<?xml version="1.0" encoding="utf-8"?>
<!-- Generator: Adobe Illustrator 25.4.1, SVG Export Plug-In . SVG Version: 6.00 Build 0)  -->
<svg version="1.1" id="Layer_1" xmlns="http://www.w3.org/2000/svg" xmlns:xlink="http://www.w3.org/1999/xlink" x="0px" y="0px"
	 viewBox="0 0 595.3 841.9" style="enable-background:new 0 0 595.3 841.9;" xml:space="preserve">
<style type="text/css">
	.st0{fill:#FFFFFF;}
</style>
<g>
	<path class="st0" d="M285.7,177.3c10.7,0,21.3,0,32,0c1.3,0.3,2.5,0.7,3.8,0.8c38.5,2.9,74.6,13.6,107.7,33.3
		c68.1,40.5,109.8,99.7,124.5,177.7c1.7,9.3,2.6,18.7,3.9,28.1c0,10.7,0,21.3,0,32c-0.3,1.3-0.7,2.6-0.8,3.9
		c-3.4,44.1-17,84.7-41.8,121.3C474.3,634.8,418,672,346.3,685.3c-9.4,1.8-19,2.7-28.6,4c-10.7,0-21.3,0-32,0
		c-1.3-0.3-2.5-0.7-3.8-0.8c-51-4.1-96.9-21.5-137.1-53.1c-51.7-40.7-83.7-93.5-95.2-158.4c-1.6-9.1-2.6-18.4-3.8-27.6
		c0-10.7,0-21.3,0-32c0.7-6.1,1.4-12.2,2.2-18.3c7.3-52.1,28.3-97.9,63.6-136.9c39.5-43.6,88.4-70.9,146.6-81
		C267.3,179.6,276.5,178.6,285.7,177.3z M435,433.3c0-15.7,0.1-31.3,0-47c0-6.8,0.3-13.8-0.8-20.4c-6.4-39.4-37.3-65.6-77.1-65.7
		c-36.8-0.1-73.6,0-110.5,0c-4,0-8,0-12,0.7c-39.2,6.2-65.9,37.2-66.1,76.9c-0.2,37.2-0.1,74.3,0,111.5c0,3.8,0.1,7.7,0.7,11.5
		c6.3,39.2,37.3,65.8,77,66c37,0.1,74,0.1,111,0c4,0,8-0.1,12-0.7c39.3-6.4,65.6-37.3,65.9-77.1C435.1,470.2,435,451.7,435,433.3z"
		/>
	<path class="st0" d="M410.2,433.7c0,18.8,0.1,37.7,0,56.5c-0.2,25.8-15.6,45.4-39.8,50.5c-3.9,0.8-7.9,1-11.9,1
		c-37.8,0.1-75.7,0.1-113.5,0c-25.8-0.1-45.4-15.6-50.6-39.7c-0.5-2.4-0.8-4.9-0.9-7.4c-0.1-40.8-0.5-81.7,0.1-122.5
		c0.4-23.1,16.6-41.3,39.2-46.1c3.9-0.8,7.9-1.1,11.9-1.1c38-0.1,76-0.1,114,0c25.7,0.1,45.3,15.6,50.3,39.9c0.9,4.2,1,8.6,1,12.9
		C410.2,396.4,410.2,415.1,410.2,433.7z M233.4,433.2c-0.1,37.8,30.1,68.2,68.2,68.4c37.5,0.2,68.2-30.1,68.4-67.7
		c0.2-38-30-68.7-67.7-68.9C264.1,364.8,233.6,395.1,233.4,433.2z M373,378.9c8.8,0,16.2-7.3,16.2-16.2c0-8.9-7.1-16.2-16-16.4
		c-9.1-0.1-16.5,7.3-16.4,16.4C356.8,371.6,364.1,378.8,373,378.9z"/>
	<path class="st0" d="M301.7,477.7c-24.7,0-44.5-19.8-44.4-44.4c0.1-24.5,19.7-44.2,44.1-44.3c24.9-0.1,44.8,19.8,44.6,44.7
		C346,458.1,326.2,477.6,301.7,477.7z"/>
</g>
</svg>
