<?xml version="1.0" encoding="utf-8"?>
<!-- Generator: Adobe Illustrator 25.3.0, SVG Export Plug-In . SVG Version: 6.00 Build 0)  -->
<svg version="1.1" id="Layer_1" xmlns="http://www.w3.org/2000/svg" xmlns:xlink="http://www.w3.org/1999/xlink" x="0px" y="0px"
	 viewBox="0 0 1920 1080" style="enable-background:new 0 0 1920 1080;" xml:space="preserve">
<style type="text/css">
	.st0{fill:#E9D9C6;}
	.st1{fill:#E9D9C7;}
	.st2{fill:#F0EBEB;}
	.st3{fill:#EDE6E6;}
	.st4{fill:#EBE4E3;}
	.st5{fill:#AC8989;}
	.st6{fill:#B29292;}
	.st7{fill:#A47F7E;}
	.st8{fill:#9B7171;}
	.st9{fill:#966B6B;}
	.st10{fill:#9F7776;}
	.st11{fill:#B79A99;}
	.st12{fill:#A98686;}
	.st13{fill:#CEBAB9;}
	.st14{fill:#BDA2A2;}
	.st15{fill:#C5AEAD;}
	.st16{fill:#DDCFCF;}
</style>
<g>
	<path class="st0" d="M1054,538c1.7,0,3.3,0,5,0c0.5,0.6,0.8,1.6,1.4,1.8c3.8,0.8,7.7,1.5,11.6,2.2c0.7,0.3,1.4,0.7,2,1l0,0
		c1.3,0.7,2.7,1.4,4,2c2.6,3.7,5.2,7.3,7.8,11c0.5,3,0.9,6.1,1.4,9.1c-0.1,0.3-0.1,0.6-0.1,0.9c-0.3,2-0.6,4.1-0.9,6.1
		c-3.5,8.5-9.5,14.1-18.2,17.2c-8.5,2.9-17.1,3.5-25.8,3c-3-0.8-6-1.6-9.1-2.4c-2.3-1.3-4.6-2.6-7-3.9c-1.3-1.7-2.7-3.3-4-5
		c-1.7-2-3.3-4-5-6c-0.3-0.7-0.7-1.4-1-2.2c-0.3-0.3-0.5-0.5-0.8-0.8c-2.8-2.3-5.5-4.6-8.3-7c-4.8-4.6-10.5-6-17-4.9
		c-5.3,1.4-10.6,2.7-15.9,4.1c-1,0.3-2,0.6-3,0.8c-1.7,0-3.3,0-5,0c-1-0.3-2-0.7-3.1-1c-0.3,0-0.7,0-1,0c0-0.3-0.1-0.7-0.1-1
		c0-1.3,0-2.6,0-3.9c1.2-2.7,2.1-5.5,3.6-8c4.1-7.1,8.3-14.1,12.5-21.1c1.3-2,2.6-4,4-6c0.4-1.3,0.8-2.6,1.1-3.8
		c0.9-1,1.9-2.1,2.8-3.1c0.4-1.2,0.7-2.4,1.4-4.5c-7.6,2.5-14.2,4.6-20.6,7c-1.5,0.6-2.8,2.3-3.7,3.8c-3.5,5.8-6.8,11.7-10.1,17.6
		c-1,0.7-1.9,1.4-2.9,2.2c-1.4,1-2.7,2-4.1,2.9c-1.3-0.3-2.6-0.7-3.9-1c0.1-1.9,0.1-3.8,0.2-5.7c0.6-1.3,1.7-2.7,1.7-4
		c0-1.1-1.1-2.9-2-3.1c-4.2-0.7-10.4,7.6-9,11.9c1,1.7,2,3.3,3,5c-1.7,0.6-3.3,1.3-5,1.9c-2.3-1.3-4.6-2.6-6.9-4
		c-0.3-0.7-0.7-1.3-1-2c0.7-3.7,1.3-7.3,2-11c0.6-1,1.3-2,1.9-3.1c1-1,2-2,3-3c0.3-3.7-0.7-5.8-4.9-4c-7.5,0.1-9.2,1.7-12.1,11
		c-0.7,1.3-1.4,2.6-2.1,4c-0.3,0.4-0.6,0.7-0.9,1.1c-5,6.7-9.6,13.9-18.9,15.2c-3-0.7-6-1.5-9-2.2c-0.7-0.7-1.3-1.3-2-2
		c-0.6-1-1.3-2-1.9-3.1c-0.6-6.2-0.9-12.3,3-17.8c2-1.7,3.9-3.4,5.9-5.1c2.3-1.7,4.7-3.3,7-5c4-2.3,8-4.7,12.1-7
		c2.4-0.4,4.7-0.7,7.1-1.1c6.5,1.1,13.2,3.4,19-1.9c0.9-1,1.9-2,2.8-3c-0.3-0.2-0.5-0.5-0.8-0.7c-0.7,0.6-1.5,1.2-2.2,1.8
		c-6,0.6-12,1.3-17.9,1.9c-2.3-0.6-4.6-1.3-7-1.9c-0.7-0.7-1.3-1.3-2-2c-0.5-5.2,2.6-6.3,7-6c2.4,0,4.7,0,7.1,0
		c6.3,0.7,12.7,1.4,19,2c-0.2,1.5-0.3,3-0.5,4.5c0.4,0.2,0.8,0.5,1.2,0.7c1.4-1.8,2.8-3.5,4.2-5.3c2.6,1.1,5.8-3.2,8,0.9
		c-0.9,3.8,2.1,4.7,4.5,5c1.7,0.2,3.7-1.3,5.5-2c4.3-0.7,8.7-1.4,13-2c3.7-2.3,7.3-4.7,11-7c1.7-1.7,3.3-3.3,5-5
		c8.7-9.9,17-20.3,26.4-29.5c6.4-6.3,14.4-11,21.6-16.5c0.7-0.3,1.3-0.7,2-1c2-0.7,4-1.4,6-2.1c0.7-0.3,1.4-0.6,2-1c1,0,2,0,3,0
		c0.7,0.4,1.3,0.7,2,1.1c1,1,2,2,2.9,3c0.4,1,0.7,2,1.1,3c0,1,0.1,2.1,0.1,3.1c-0.4,1.9-0.8,3.9-1.2,5.8
		c-4.6,5.7-9.2,11.4-13.8,17.1c-0.4,0.3-0.8,0.6-1.2,0.9c-3,2.6-6.1,5.3-9.1,7.9c-2.3,2.9-4.6,5.8-6.9,8.7c-3.3,1.7-6.8,3.1-9.9,5.1
		c-5.8,3.7-6.7,8.5-3,14.7c3,5.2,3.7,10.7,2.9,16.5c-4.8,4.1-4.8,6.7,0.1,9.3c0.7,0.3,1.3,0.6,2,0.9v-0.1c0.3,0.3,0.7,0.6,1,0.9
		c0.7,0,1.4,0.1,2.1,0.1c2,0.7,4.1,1.3,6.1,2c1.6,0.3,3.2,0.6,4.9,1c0,0.6,0,1.3,0,1.9c-0.3,1.8-0.5,3.5-0.8,5.3c-0.7,2-1.4,4-2.2,6
		c-2.3,5.7-0.9,8.6,5.1,10.9c2,1,4,1.9,6,2.9l0,0c4.7,1.7,9.3,3.3,14,5c2,0,4.1-0.4,6,0.1c5.7,1.4,11.1,1.5,16.1-2.1
		c4.4-3.6,3.5-7.3,0.1-11c-2.1-1.7-4-4.2-6.5-5c-6.8-2.1-13.8-3.4-20.7-5.1c-2-0.3-4-0.6-5.9-1c-0.7-1.3-1.4-2.7-2.1-4c0-1,0-2,0-3
		c2.6-1.4,5.3-2.7,7.9-4.1C1050,539.3,1052,538.7,1054,538z M1028.9,466.9L1028.9,466.9c-2.3,1.6-5.4,2.9-6.7,5.1
		c-1,1.8,0.1,4.9,0.3,7.4c0.8-0.1,1.7-0.2,2.5-0.4c4.3-3.7,11.3-5.3,10.7-13c1-3,2.4-4.7,6-0.4c-0.2-2.6,0.1-4.1-0.5-5.2
		c-0.4-0.7-2.4-1.3-2.9-1C1035.1,461.8,1032,464.4,1028.9,466.9z M1003,524c0-1.4,0.5-3.6-0.1-4.1c-1.1-0.8-3.7-1.2-4.4-0.5
		c-2.4,2.2-4.3,5-6.4,7.6c-3.2,4.1-6.7,8.1-9.5,12.5c-4.2,6.5-1.5,11.1,6.4,11.5c2.1-0.8,4.3-1.4,6.2-2.5c6.7-4,5.5-10.4,4.8-16.6
		C1000.9,529.2,1001.9,526.6,1003,524z M901.5,532.9c-0.4-0.5-0.9-1-1.3-1.5c-2.2,1.2-4.6,2.1-6.4,3.6c-0.7,0.6-0.4,2.7-0.1,4
		c0.1,0.3,2.4,0.7,2.8,0.2C898.3,537.3,899.8,535,901.5,532.9z"/>
	<path class="st1" d="M825.9,613c-0.4-4.3,2.2-6.8,5.5-8.6c9.4-4.9,19-9.6,28.5-14.4c6.3-2.1,8.4-6.9,5.9-12.7
		c-0.9-1.9-1.4-4.1-1.9-6.1c-1.4-6-2.7-12.1-4.1-18.2c-1.6-23.4,8-42,23.8-58.4c9.6-10,21.4-16.7,32.9-23.9
		c8.1-5.1,16.5-9.2,25.9-10.9c2.8-0.5,5.6-0.5,8.4-0.7c4.4,0.7,8.7,1.4,13.1,2c3,2.3,6,4.6,9,7c0.9,2,1.9,4,2.8,6.1
		c-0.6,4.6-1.3,9.2-1.9,13.9c-1,1-1.9,2.1-2.9,3.1c-1.3,0-2.6,0-3.9,0c-0.3-1.7-0.7-3.3-1-5c0-2,0-4,0-6c-0.9-2.3-1.9-4.6-2.8-6.8
		c-2.9-5.6-4.8-6-13.1-3.2c-15.6,2.8-29.5,9.7-41.8,19c-9.5,7.1-19.2,14.6-24.2,26c-7.3,11.3-10,23.8-10.1,37.1
		c-0.6,5.9-0.2,11.7,3.2,16.9c0.8,3.3-0.6,8,5.1,8.1c1,0.3,2,0.6,2.9,0.9c2-0.7,3.9-1.3,5.9-2c10.1-2.9,20.1-6.3,30.4-8.4
		c5.7-1.2,11.9-3.5,17.6,0.5c-0.3,2.3-0.7,4.6-1,6.8c-11.3,4.2-22.7,8.5-34,12.7c-1.9,0.5-3.9,0.8-5.6,1.7c-1.7,0.9-4.1,2.4-4.2,3.7
		c-0.1,1.8,1.7,3.6,2.7,5.5c1,0.9,2,1.8,3.1,2.7c2.9,2.3,5.7,4.9,8.8,6.8c6.2,3.9,12.3,8.1,20.1,7.9c1.7,0.7,3.4,1.3,5,2
		c1.3,0,2.6,0,3.9,0.1c8.8,0.3,17.7,1.3,26.5,0.7c8.5-0.5,16.1-4.3,22.7-9.8l0,0c1.7-1,3.3-2,5-3l0,0c1-0.7,2-1.3,3-2l0,0
		c1.7-1.7,3.4-3.3,5-5c4.7-3.7,9.4-7.6,16-7c0,0.7,0,1.3,0,2c0,1,0,2,0,3c-0.4,1.6-0.7,3.3-1.1,4.9c-0.1,0.5-0.1,0.9-0.2,1.4
		c-6.4,6.1-12.3,13-19.4,18.2c-9.5,7-20.7,10.8-32.5,12.7c-2,0.3-3.6,2.4-5.4,3.7c-0.6,0-1.3,0-1.9,0c-0.4-0.5-0.8-1-1.3-1.5
		c-0.3,0.5-0.6,1-0.8,1.5c-2.6,0-5.3,0-7.9,0c-2.2-0.7-4.4-1.3-6.5-2c-3-0.3-6-0.7-9-1c-8-3.4-16.1-6.7-24.1-10.1
		c-5.6-3.7-11.3-7.4-16.9-11.1c-0.3-0.3-0.5-0.6-0.8-0.8c-1.7-2-3.4-4-5-6c-1.3-2.5-8.9-6.6-11.2-6c-0.4,0.1-0.8,0.6-1.2,0.8
		c-11.6,5.7-23.2,11.4-34.8,17.2c-1.3,0-2.6,0-4,0c-1.3-0.3-2.7-0.7-4-1c-0.3-0.3-0.7-0.7-1-1C826.6,615.7,826.3,614.3,825.9,613z"
		/>
	<path class="st2" d="M825.9,613c0.3,1.3,0.7,2.7,1,4"/>
	<path class="st3" d="M1054,538c-2,0.6-4,1.3-6,1.9C1050,539.3,1052,538.7,1054,538z"/>
	<path class="st2" d="M1029,597L1029,597c-1.3,1.3-2.7,2.7-4,4"/>
	<path class="st2" d="M1008,627c1-1,2-2,3-3C1010,625,1009,626,1008,627z"/>
	<path class="st2" d="M1023,606c0.7,0,1.3,0,2,0"/>
	<path class="st4" d="M1048,442c-0.7,0.3-1.4,0.6-2,1C1046.6,442.6,1047.3,442.3,1048,442z"/>
	<path class="st4" d="M1040,445c-0.7,0.3-1.3,0.7-2,1C1038.7,445.7,1039.3,445.3,1040,445z"/>
	<path class="st5" d="M950,469.9c8.3-2.8,10.2-2.3,13.1,3.2c-11.3-1.2-20.9,4.4-30.8,8.2c-12.9,5-23.3,13.9-33.2,23.2
		c-5.8,5.5-11.5,11.6-12.2,20.4c-2,1.7-3.9,3.4-5.9,5.1c1.3-4.7,2.7-9.4,4-14.1c1-0.7,2.1-1.3,3-2.2c6.9-7.2,13.5-14.9,20.8-21.6
		c10.6-9.6,23.9-14.5,37.1-19.4C947.5,472.3,948.7,470.9,950,469.9z"/>
	<path class="st6" d="M988.9,550.9c-7.9-0.4-10.6-5-6.4-11.5c2.8-4.4,6.3-8.3,9.5-12.5c1.3,0,2.6,0.2,3.8-0.2
		c2.5-0.8,4.8-1.8,7.2-2.8c-1,2.6-2.1,5.2-3.1,7.8C991.9,535.2,985.6,543.2,988.9,550.9z"/>
	<path class="st6" d="M1090.6,571.4c-2.9,13.8-12,21.9-27.2,24.5c-8.8,1.5-17.5,1.7-25.8-2.3c-1.8-0.8-3.1-2.5-4.7-3.8
		c3,0.8,6,1.6,9.1,2.4c0.8,0.6,1.7,1.7,2.5,1.7c6.2,0.1,12.6,0.7,18.7-0.1c10.7-1.5,19.5-6.4,23.4-17.4c0.4-1.2-0.3-2.9-0.5-4.3
		c0.3-2,0.6-4.1,0.9-6.1c0.1-0.1,0.3-0.2,0.3-0.2c-0.1-0.2-0.2-0.4-0.3-0.6c-0.3-3.1-0.8-6.2-1.3-9.2"/>
	<path class="st7" d="M906.7,553.9c-0.9,0.7-1.8,1.4-2.7,2.1c-0.7,0-1.3,0-2,0c-1.7,0.3-3.5,1-5.2,0.8c-1.9-0.2-3.8-1.1-5.7-1.7
		c9.3-1.4,13.9-8.5,18.9-15.2c0.5,0.2,0.9,0.5,1.4,0.7c-0.2-0.6-0.4-1.2-0.5-1.7c0.7-1.3,1.4-2.6,2.1-4c0.4,0.2,1,0.8,1.1,0.7
		c3.7-3.9,7.4-7.7,11-11.6c4.2-1.8,5.2,0.4,4.9,4c-7.5-1.7-14.1,6.1-17,16C909.7,546.5,906.2,549,906.7,553.9z"/>
	<path class="st7" d="M1086.2,572.1c0.2,1.4,0.9,3.1,0.5,4.3c-3.9,11-12.7,15.9-23.4,17.4c-6.1,0.9-12.4,0.3-18.7,0.1
		c-0.8,0-1.7-1.1-2.5-1.7c8.8,0.5,17.4,0,25.8-3C1076.7,586.2,1082.6,580.5,1086.2,572.1z"/>
	<path class="st8" d="M960.1,536.1c0,0.3,0,0.6-0.1,0.9c-1.2,1-2.3,2.2-3.6,2.9c-1,0.6-2.3,0.7-3.5,1c3.4-5.9,6.6-11.8,10.1-17.6
		c0.9-1.5,2.2-3.3,3.7-3.8c6.4-2.4,12.9-4.4,20.6-7c-0.6,2.1-1,3.3-1.4,4.5C973.3,517.1,962.8,525,960.1,536.1z"/>
	<path class="st9" d="M885,516c-1.3,4.7-2.7,9.4-4,14.1c-3.8,5.5-3.6,11.6-3,17.8c-1.4,1.4-2.9,2.8-4.3,4.2
		c0.1-13.3,2.9-25.8,10.1-37.1C884.3,515.3,884.7,515.7,885,516z"/>
	<path class="st10" d="M1042.1,475c4.6-5.7,9.2-11.4,13.8-17.1c-0.3,2.7-0.6,5.4-0.9,8.1c0,0.3,0,0.6-0.1,0.9
		c-0.4,0.7-0.7,1.3-1.1,2c-0.1,0.7-0.1,1.3-0.2,2c-0.3,0.3-0.5,0.5-0.8,0.8c-1.4,1.7-2.7,3.4-4.1,5.1c-1,0-1.9,0.1-2.9,0.1
		c-0.3,0-0.6,0-0.9,0C1044.1,476.3,1043.1,475.7,1042.1,475z"/>
	<path class="st6" d="M1075.2,562c-8.1-2.1-16.3-4-24.4-6.4c-1.2-0.3-1.9-2.4-2.8-3.6c6.9,1.6,13.9,3,20.7,5.1
		C1071.2,557.8,1073.1,560.3,1075.2,562z"/>
	<path class="st6" d="M1014.8,528.8c0.8-5.8,0.1-11.4-2.9-16.5c1.3-3.1,2.7-6.2,4-9.3c0.3,1,0.6,2,1,3c-0.6,1.4-1.2,2.7-1.9,4.1
		c0,0.9,0,1.9,0,2.8c1,6.1,2,12.1,3,18.2c0,0.6,0,1.3,0,1.9c-0.4,2-0.7,4-1.1,6.1c-0.7-0.3-1.3-0.6-2-0.9
		C1014.9,535,1014.9,531.9,1014.8,528.8z"/>
	<path class="st11" d="M931,551c1.7-0.6,3.3-1.3,5-1.9c-1-1.7-2-3.3-3-5c1.4-0.9,2.8-2,4.3-2.8c1.6-0.8,3.3-1.4,5-2
		c-0.1,1.9-0.2,3.8-0.2,5.7"/>
	<path class="st9" d="M1016,503c-1.3,3.1-2.7,6.2-4,9.3c-3.6-6.2-2.8-11,3-14.7c3.1-2,6.6-3.4,9.9-5.1c-1.3,1.8-2.6,3.6-4,5.4
		C1019.3,499.6,1017.6,501.3,1016,503z"/>
	<path class="st7" d="M873.8,552.1c1.4-1.4,2.9-2.8,4.3-4.2c0.6,1,1.3,2,1.9,3.1c0,1,0,2-0.1,3.1c0,0.7,0,1.3,0,2
		c-0.3,0.7-0.7,1.3-1,2c-0.3,0.3-0.6,0.7-0.9,1c0,2.3,0,4.7,0,7c-0.3,1-0.6,2-0.9,3C873.6,563.8,873.2,558,873.8,552.1z"/>
	<path class="st12" d="M1030.2,550.2c0.9,1.1,2.6,2.1,2.7,3.3c0.3,4.5,0.1,9.1,0.1,13.6c-6-2.3-7.3-5.2-5.1-10.9
		C1028.7,554.2,1029.4,552.2,1030.2,550.2z"/>
	<path class="st10" d="M942.2,539.3c-1.7,0.7-3.4,1.2-5,2c-1.5,0.8-2.9,1.8-4.3,2.8c-1.3-4.3,4.9-12.6,9-11.9c0.9,0.2,2,2,2,3.1
		C943.9,536.6,942.8,537.9,942.2,539.3z"/>
	<path class="st7" d="M1035.7,466c0.5,7.7-6.4,9.3-10.7,13c1.3-4.1,2.6-8.1,3.9-12.2l0,0C1031.2,466.6,1033.4,466.3,1035.7,466z"/>
	<path class="st5" d="M1007,565.1c-0.4,0.2-1,0.8-1.2,0.6c-8.4-4.5-16.7-2.5-25,0.4c-1.5,0.5-3.2,0.5-4.8,0.8
		c1.1-0.7,2.1-1.6,3.3-2.1c3.5-1.6,7.1-3.1,10.7-4.7C996.4,559.1,1002.2,560.4,1007,565.1z"/>
	<path class="st12" d="M960.1,536.1c2.7-11.1,13.2-18.9,25.9-19.1c-0.9,1-1.9,2.1-2.8,3.1c-9.3-0.5-15,4.9-19.7,12
		C962.5,533.6,961.2,534.8,960.1,536.1z"/>
	<path class="st7" d="M932.2,510c-5.9,5.3-12.5,3-19,1.9c0.3-0.6,0.6-1.3,0.8-1.9c6-0.6,12-1.3,17.9-1.9
		C932,508.7,932.1,509.3,932.2,510z"/>
	<path class="st8" d="M1003,524c-2.4,0.9-4.8,2-7.2,2.8c-1.2,0.4-2.5,0.1-3.8,0.2c2.1-2.6,4-5.4,6.4-7.6c0.8-0.7,3.3-0.3,4.4,0.5
		C1003.5,520.4,1003,522.6,1003,524z"/>
	<path class="st7" d="M1020.9,497.9c1.3-1.8,2.6-3.6,4-5.4c2.3-2.9,4.6-5.8,6.9-8.7c0.4,1.7,0.8,3.5,1.2,5.2c-2,1.8-4.1,3.6-6.1,5.4
		c-0.6,0.6-1.1,1.2-1.7,1.8C1023.7,496.7,1022.3,497.3,1020.9,497.9z"/>
	<path class="st6" d="M1033,489c-0.4-1.7-0.8-3.5-1.2-5.2c3-2.6,6.1-5.3,9.1-7.9c1.4,0.4,2.7,0.7,4.1,1.1c0.3,0,0.6,0,0.9,0
		c-1.5,1.2-3,2.4-4.3,3.7c-2.3,2.4-4.4,4.9-6.6,7.3C1034.3,488.3,1033.6,488.7,1033,489z"/>
	<path class="st11" d="M912.9,543.9c2.9-9.9,9.5-17.7,17-16c-1,1-2,2-3,3c-5.8,0.3-8.4,4.1-9.8,9.1c-0.4,1-0.7,2-1.1,2.9
		C915,543.3,914,543.7,912.9,543.9C913,544,912.9,543.9,912.9,543.9z"/>
	<path class="st9" d="M925,523.9c-3.7,3.9-7.3,7.8-11,11.6c-0.1,0.1-0.7-0.4-1.1-0.7C915.8,525.6,917.6,524,925,523.9z"/>
	<path class="st8" d="M1028.9,466.8c-1.3,4.1-2.6,8.1-3.9,12.2c-0.8,0.1-1.7,0.2-2.5,0.4c-0.2-2.5-1.3-5.6-0.3-7.4
		C1023.5,469.7,1026.6,468.5,1028.9,466.8z"/>
	<path class="st8" d="M1035.7,466c-2.3,0.3-4.6,0.6-6.9,0.9c3.1-2.5,6.2-5.1,9.5-7.4c0.5-0.4,2.5,0.3,2.9,1c0.6,1.1,0.3,2.6,0.5,5.2
		C1038.1,461.3,1036.7,463,1035.7,466z"/>
	<path class="st10" d="M990,560.1c-3.6,1.6-7.1,3.1-10.7,4.7c-1.2,0.5-2.2,1.4-3.3,2.1c-0.6,0-1.3,0-1.9,0c0-0.9,0-1.8,0-2.7
		C979.4,562.9,984.7,561.5,990,560.1z"/>
	<path class="st9" d="M901.5,532.9c-1.6,2.1-3.1,4.3-4.9,6.3c-0.4,0.5-2.8,0.1-2.8-0.2c-0.3-1.3-0.6-3.4,0.1-4
		c1.9-1.5,4.2-2.4,6.4-3.6C900.6,531.9,901,532.4,901.5,532.9z"/>
	<path class="st12" d="M1057.1,452.1c3.2,4.2,2.2,10.6-2.1,13.9c0.3-2.7,0.6-5.4,0.9-8.1C1056.3,456,1056.7,454.1,1057.1,452.1z"/>
	<path class="st12" d="M952.9,540.9c1.2-0.3,2.5-0.4,3.5-1c1.3-0.8,2.4-1.9,3.6-2.9c-1.9,2.5-3.7,5.1-5.9,7.3
		c-0.5,0.5-2.6-0.8-4-1.2C951,542.3,951.9,541.6,952.9,540.9z"/>
	<path class="st7" d="M1014.8,528.8c0,3.1,0.1,6.2,0.1,9.3C1010,535.6,1010,533,1014.8,528.8z"/>
	<path class="st13" d="M1039,570c4.7,1.7,9.3,3.3,14,5C1048.3,573.3,1043.6,571.6,1039,570z"/>
	<path class="st1" d="M938,502c1.7,0,3.3,0,5,0c-1.4,1.8-2.8,3.5-4.2,5.3c-0.4-0.2-0.8-0.5-1.2-0.7C937.7,505.1,937.8,503.5,938,502
		z"/>
	<path class="st14" d="M1018.1,533c0.6,2.3,1.3,4.7,1.9,7c-0.7,0-1.4-0.1-2.1-0.1c-0.3-0.3-0.7-0.6-1-0.9v0.1
		C1017.3,537,1017.7,535,1018.1,533z"/>
	<path class="st12" d="M1045,476.9c-1.4-0.4-2.7-0.7-4.1-1.1c0.4-0.3,0.8-0.6,1.2-0.9C1043.1,475.7,1044.1,476.3,1045,476.9z"/>
	<path class="st1" d="M932.2,510c-0.1-0.7-0.2-1.3-0.2-2c0.7-0.6,1.5-1.2,2.2-1.8c0.3,0.2,0.5,0.5,0.8,0.7
		C934,508,933.1,509,932.2,510z"/>
	<path class="st5" d="M974.1,564.2c0,0.9,0,1.8,0,2.7c-1-0.6-2-1.2-3-1.9C972,564.8,973.1,564.5,974.1,564.2z"/>
	<path class="st9" d="M910.8,538.8c0.2,0.6,0.4,1.2,0.5,1.7c-0.5-0.2-0.9-0.5-1.4-0.7C910.2,539.5,910.5,539.2,910.8,538.8z"/>
	<path class="st6" d="M1016.9,539c0.3,0.3,0.7,0.6,1,0.9C1017.6,539.6,1017.3,539.3,1016.9,539z"/>
	<path class="st7" d="M1087.2,565.1c0.1,0.2,0.2,0.4,0.3,0.6c0,0-0.2,0.1-0.3,0.2C1087,565.7,1087.1,565.4,1087.2,565.1z"/>
	<path class="st7" d="M836,619c11.6-5.7,23.2-11.4,34.8-17.2c0.4-0.2,0.8-0.7,1.2-0.8c2.3-0.6,9.9,3.5,11.2,6
		c-6.2-0.8-11.6,1-17.1,3.8c-6.9,3.5-14.1,6.5-21.4,9.3C841.9,621.1,838.4,622.9,836,619z"/>
	<path class="st10" d="M1015.1,608.1c-0.4,1-0.7,1.9-1.1,2.9c-1,1.3-2,2.6-3,3.9c-0.6,0.4-1.3,0.7-1.9,1.1c-1,1-2,2-3,3
		c-3,2-5.9,4-8.9,6.1c-0.7,0.6-1.4,1.3-2.1,1.9c-0.6,0-1.2,0.1-1.9,0.1c-0.7,0.6-1.4,1.3-2.1,1.9c-1.3,0.7-2.7,1.3-4,2
		c-4.7,1.7-9.4,3.3-14,5c-3.8,0.6-7.6,1.1-11.4,1.7l0,0c-1.4,0.1-2.7,0.2-4.1,0.3c1.8-1.3,3.5-3.4,5.4-3.7
		c11.8-1.9,22.9-5.7,32.5-12.7c7.1-5.2,13-12.1,19.4-18.2C1014.9,605,1015,606.5,1015.1,608.1z"/>
	<path class="st10" d="M885,516c-0.4-0.4-0.7-0.7-1.1-1.1c5.1-11.4,14.8-18.9,24.2-26c12.4-9.3,26.3-16.2,41.8-19
		c-1.3,1-2.6,2.4-4.1,2.9c-13.2,4.9-26.5,9.7-37.1,19.4c-7.4,6.7-13.9,14.4-20.8,21.6C887.2,514.7,886.1,515.3,885,516z"/>
	<path class="st7" d="M938,574.9c2.4,4.3-1.6,5.4-3.8,6.3c-7.6,3.2-15.5,5.9-23.2,8.7c-1.7,0.6-3.5,1-5.2,1.7
		c-4.2,1.8-6.7,4.6-5.7,9.6c-1-0.9-2-1.8-3.1-2.7c1.6-2.6,3.2-5.3,4.9-7.9c0.6-1,1.4-2,2.1-2.9C915.3,583.4,926.6,579.2,938,574.9z"
		/>
	<path class="st15" d="M977,468.1c2.1,5.1,5.3,9.9,4.1,15.9c-0.4,1.9-0.4,4-1.1,5.8c-1.8,4.5-5.6,5-9,1.2c1-1,1.9-2.1,2.9-3.1
		c1.2,3.7,2.6,1.2,3.6,0c2.8-3.5,2-9.4-1.7-13.8c-0.9-2-1.9-4-2.8-6.1C974.3,468,975.6,468,977,468.1L977,468.1z"/>
	<path class="st6" d="M975.8,474c3.7,4.4,4.5,10.4,1.7,13.8c-1,1.2-2.4,3.7-3.6,0C974.5,483.2,975.1,478.6,975.8,474z"/>
	<path class="st6" d="M930,636c-8-3.7-16.1-7.4-24.1-11.1c8,3.4,16.1,6.7,24.1,10.1C930,635.3,930,635.7,930,636z"/>
	<path class="st9" d="M903.9,587.7c-0.7,1-1.5,1.9-2.1,2.9c-1.6,2.6-3.2,5.3-4.9,7.9c-1-1.8-2.9-3.7-2.7-5.5
		c0.1-1.4,2.5-2.8,4.2-3.7C900,588.4,902.1,588.2,903.9,587.7z"/>
	<path class="st16" d="M977,468c-1.3,0-2.7-0.1-4-0.1c-3-2.3-6-4.6-9-7"/>
	<path class="st6" d="M877.9,566c1.4,3.7,2.8,7.4,4.2,11.1c-5.7-0.2-4.3-4.8-5.1-8.1C877.3,568,877.6,567,877.9,566z"/>
	<path class="st12" d="M930,636c0-0.4,0-0.7,0-1.1c3,0.3,6,0.7,9,1c0,0.7,0,1.3,0,2C936,637.3,933,636.7,930,636z"/>
	<path class="st10" d="M939,637.9c0-0.7,0-1.3,0-2c2.2,0.7,4.4,1.3,6.5,2C943.4,638,941.2,637.9,939,637.9z"/>
	<path class="st3" d="M995,604c1.7-1.7,3.4-3.3,5-5C998.4,600.7,996.7,602.3,995,604z"/>
	<path class="st12" d="M1015.1,608.1c-0.1-1.6-0.2-3.1-0.3-4.7c0.1-0.5,0.1-1,0.2-1.4C1018.2,603.9,1018,606,1015.1,608.1z"/>
	<path class="st3" d="M987,609c1.7-1,3.3-2,5-3C990.3,607,988.7,608,987,609z"/>
	<path class="st3" d="M992,606c1-0.7,2-1.3,3-2C994,604.7,993,605.3,992,606z"/>
	<path class="st15" d="M934,618c1.3,0,2.6,0,3.9,0.1C936.6,618.1,935.3,618,934,618z"/>
	<path class="st10" d="M955.5,638c-0.7,0-1.4,0-2.1,0c0.3-0.5,0.6-1,0.8-1.5C954.7,637,955.1,637.5,955.5,638z"/>
	<path class="st11" d="M906.7,553.9c-0.4-4.9,3-7.4,6.3-10l0.1,0.1c0,1,0,2,0,3C910.9,549.3,908.8,551.6,906.7,553.9z"/>
	<path class="st15" d="M913,547c0-1,0-2,0-3c1-0.3,2-0.7,2.9-1C915,544.3,914,545.7,913,547z"/>
	<path class="st12" d="M1055,467c-0.4,0.7-0.7,1.3-1.1,2C1054.3,468.3,1054.6,467.7,1055,467z"/>
	<path class="st6" d="M878.9,558c-0.3,0.3-0.6,0.7-0.9,1C878.3,558.6,878.6,558.3,878.9,558z"/>
	<path class="st6" d="M973,636c4.7-1.7,9.4-3.3,14-5C982.3,632.7,977.7,634.3,973,636z"/>
	<path class="st12" d="M1011,614.9c1-1.3,2-2.6,3-3.9C1013,612.3,1012,613.6,1011,614.9z"/>
	<path class="st12" d="M1006,619c1-1,2-2,3-3C1008,617,1007,618,1006,619z"/>
	<path class="st12" d="M995,627c0.7-0.6,1.4-1.3,2.1-1.9C996.4,625.7,995.7,626.3,995,627z"/>
	<path class="st12" d="M991,629c0.7-0.6,1.4-1.3,2.1-1.9C992.4,627.7,991.7,628.4,991,629z"/>
	<path class="st1" d="M961.6,637.7C961.6,637.7,961.5,637.7,961.6,637.7C961.5,637.7,961.6,637.7,961.6,637.7z"/>
</g>
</svg>
