<?xml version="1.0" encoding="UTF-8" standalone="no"?>
<svg
   xmlns:dc="http://purl.org/dc/elements/1.1/"
   xmlns:cc="http://creativecommons.org/ns#"
   xmlns:rdf="http://www.w3.org/1999/02/22-rdf-syntax-ns#"
   xmlns:svg="http://www.w3.org/2000/svg"
   xmlns="http://www.w3.org/2000/svg"
   xmlns:sodipodi="http://sodipodi.sourceforge.net/DTD/sodipodi-0.dtd"
   xmlns:inkscape="http://www.inkscape.org/namespaces/inkscape"
   version="1.1"
   id="Layer_1"
   x="0px"
   y="0px"
   viewBox="0 0 1920 1080"
   style="enable-background:new 0 0 1920 1080;"
   xml:space="preserve"
   sodipodi:docname="7_logo_Cafe_Cook_blue.svg"
   inkscape:version="1.0.1 (3bc2e813f5, 2020-09-07)"><metadata
   id="metadata165"><rdf:RDF><cc:Work
       rdf:about=""><dc:format>image/svg+xml</dc:format><dc:type
         rdf:resource="http://purl.org/dc/dcmitype/StillImage" /><dc:title></dc:title></cc:Work></rdf:RDF></metadata><defs
   id="defs163" /><sodipodi:namedview
   pagecolor="#ffffff"
   bordercolor="#666666"
   borderopacity="1"
   objecttolerance="10"
   gridtolerance="10"
   guidetolerance="10"
   inkscape:pageopacity="0"
   inkscape:pageshadow="2"
   inkscape:window-width="1920"
   inkscape:window-height="1001"
   id="namedview161"
   showgrid="false"
   inkscape:zoom="0.6328125"
   inkscape:cx="960"
   inkscape:cy="536.83951"
   inkscape:window-x="-9"
   inkscape:window-y="-9"
   inkscape:window-maximized="1"
   inkscape:current-layer="Layer_1" />
<style
   type="text/css"
   id="style2">
	.st0{fill:#E9D9C6;}
	.st1{fill:#E9D9C7;}
	.st2{fill:#F0EBEB;}
	.st3{fill:#EDE6E6;}
	.st4{fill:#EBE4E3;}
	.st5{fill:#AC8989;}
	.st6{fill:#B29292;}
	.st7{fill:#A47F7E;}
	.st8{fill:#9B7171;}
	.st9{fill:#966B6B;}
	.st10{fill:#9F7776;}
	.st11{fill:#B79A99;}
	.st12{fill:#A98686;}
	.st13{fill:#CEBAB9;}
	.st14{fill:#BDA2A2;}
	.st15{fill:#C5AEAD;}
	.st16{fill:#DDCFCF;}
</style>
<g
   id="g158"
   transform="matrix(5.3514275,0,0,4.9808362,-4243.1483,-2184.218)">
	<path
   class="st0"
   d="m 1054,538 c 1.7,0 3.3,0 5,0 0.5,0.6 0.8,1.6 1.4,1.8 3.8,0.8 7.7,1.5 11.6,2.2 0.7,0.3 1.4,0.7 2,1 v 0 c 1.3,0.7 2.7,1.4 4,2 2.6,3.7 5.2,7.3 7.8,11 0.5,3 0.9,6.1 1.4,9.1 -0.1,0.3 -0.1,0.6 -0.1,0.9 -0.3,2 -0.6,4.1 -0.9,6.1 -3.5,8.5 -9.5,14.1 -18.2,17.2 -8.5,2.9 -17.1,3.5 -25.8,3 -3,-0.8 -6,-1.6 -9.1,-2.4 -2.3,-1.3 -4.6,-2.6 -7,-3.9 -1.3,-1.7 -2.7,-3.3 -4,-5 -1.7,-2 -3.3,-4 -5,-6 -0.3,-0.7 -0.7,-1.4 -1,-2.2 -0.3,-0.3 -0.5,-0.5 -0.8,-0.8 -2.8,-2.3 -5.5,-4.6 -8.3,-7 -4.8,-4.6 -10.5,-6 -17,-4.9 -5.3,1.4 -10.6,2.7 -15.9,4.1 -1,0.3 -2,0.6 -3,0.8 -1.7,0 -3.3,0 -5,0 -1,-0.3 -2,-0.7 -3.1,-1 -0.3,0 -0.7,0 -1,0 0,-0.3 -0.1,-0.7 -0.1,-1 0,-1.3 0,-2.6 0,-3.9 1.2,-2.7 2.1,-5.5 3.6,-8 4.1,-7.1 8.3,-14.1 12.5,-21.1 1.3,-2 2.6,-4 4,-6 0.4,-1.3 0.8,-2.6 1.1,-3.8 0.9,-1 1.9,-2.1 2.8,-3.1 0.4,-1.2 0.7,-2.4 1.4,-4.5 -7.6,2.5 -14.2,4.6 -20.6,7 -1.5,0.6 -2.8,2.3 -3.7,3.8 -3.5,5.8 -6.8,11.7 -10.1,17.6 -1,0.7 -1.9,1.4 -2.9,2.2 -1.4,1 -2.7,2 -4.1,2.9 -1.3,-0.3 -2.6,-0.7 -3.9,-1 0.1,-1.9 0.1,-3.8 0.2,-5.7 0.6,-1.3 1.7,-2.7 1.7,-4 0,-1.1 -1.1,-2.9 -2,-3.1 -4.2,-0.7 -10.4,7.6 -9,11.9 1,1.7 2,3.3 3,5 -1.7,0.6 -3.3,1.3 -5,1.9 -2.3,-1.3 -4.6,-2.6 -6.9,-4 -0.3,-0.7 -0.7,-1.3 -1,-2 0.7,-3.7 1.3,-7.3 2,-11 0.6,-1 1.3,-2 1.9,-3.1 1,-1 2,-2 3,-3 0.3,-3.7 -0.7,-5.8 -4.9,-4 -7.5,0.1 -9.2,1.7 -12.1,11 -0.7,1.3 -1.4,2.6 -2.1,4 -0.3,0.4 -0.6,0.7 -0.9,1.1 -5,6.7 -9.6,13.9 -18.9,15.2 -3,-0.7 -6,-1.5 -9,-2.2 -0.7,-0.7 -1.3,-1.3 -2,-2 -0.6,-1 -1.3,-2 -1.9,-3.1 -0.6,-6.2 -0.9,-12.3 3,-17.8 2,-1.7 3.9,-3.4 5.9,-5.1 2.3,-1.7 4.7,-3.3 7,-5 4,-2.3 8,-4.7 12.1,-7 2.4,-0.4 4.7,-0.7 7.1,-1.1 6.5,1.1 13.2,3.4 19,-1.9 0.9,-1 1.9,-2 2.8,-3 -0.3,-0.2 -0.5,-0.5 -0.8,-0.7 -0.7,0.6 -1.5,1.2 -2.2,1.8 -6,0.6 -12,1.3 -17.9,1.9 -2.3,-0.6 -4.6,-1.3 -7,-1.9 -0.7,-0.7 -1.3,-1.3 -2,-2 -0.5,-5.2 2.6,-6.3 7,-6 2.4,0 4.7,0 7.1,0 6.3,0.7 12.7,1.4 19,2 -0.2,1.5 -0.3,3 -0.5,4.5 0.4,0.2 0.8,0.5 1.2,0.7 1.4,-1.8 2.8,-3.5 4.2,-5.3 2.6,1.1 5.8,-3.2 8,0.9 -0.9,3.8 2.1,4.7 4.5,5 1.7,0.2 3.7,-1.3 5.5,-2 4.3,-0.7 8.7,-1.4 13,-2 3.7,-2.3 7.3,-4.7 11,-7 1.7,-1.7 3.3,-3.3 5,-5 8.7,-9.9 17,-20.3 26.4,-29.5 6.4,-6.3 14.4,-11 21.6,-16.5 0.7,-0.3 1.3,-0.7 2,-1 2,-0.7 4,-1.4 6,-2.1 0.7,-0.3 1.4,-0.6 2,-1 1,0 2,0 3,0 0.7,0.4 1.3,0.7 2,1.1 1,1 2,2 2.9,3 0.4,1 0.7,2 1.1,3 0,1 0.1,2.1 0.1,3.1 -0.4,1.9 -0.8,3.9 -1.2,5.8 -4.6,5.7 -9.2,11.4 -13.8,17.1 -0.4,0.3 -0.8,0.6 -1.2,0.9 -3,2.6 -6.1,5.3 -9.1,7.9 -2.3,2.9 -4.6,5.8 -6.9,8.7 -3.3,1.7 -6.8,3.1 -9.9,5.1 -5.8,3.7 -6.7,8.5 -3,14.7 3,5.2 3.7,10.7 2.9,16.5 -4.8,4.1 -4.8,6.7 0.1,9.3 0.7,0.3 1.3,0.6 2,0.9 v -0.1 c 0.3,0.3 0.7,0.6 1,0.9 0.7,0 1.4,0.1 2.1,0.1 2,0.7 4.1,1.3 6.1,2 1.6,0.3 3.2,0.6 4.9,1 0,0.6 0,1.3 0,1.9 -0.3,1.8 -0.5,3.5 -0.8,5.3 -0.7,2 -1.4,4 -2.2,6 -2.3,5.7 -0.9,8.6 5.1,10.9 2,1 4,1.9 6,2.9 v 0 c 4.7,1.7 9.3,3.3 14,5 2,0 4.1,-0.4 6,0.1 5.7,1.4 11.1,1.5 16.1,-2.1 4.4,-3.6 3.5,-7.3 0.1,-11 -2.1,-1.7 -4,-4.2 -6.5,-5 -6.8,-2.1 -13.8,-3.4 -20.7,-5.1 -2,-0.3 -4,-0.6 -5.9,-1 -0.7,-1.3 -1.4,-2.7 -2.1,-4 0,-1 0,-2 0,-3 2.6,-1.4 5.3,-2.7 7.9,-4.1 1.8,-0.4 3.8,-1 5.8,-1.7 z m -25.1,-71.1 v 0 c -2.3,1.6 -5.4,2.9 -6.7,5.1 -1,1.8 0.1,4.9 0.3,7.4 0.8,-0.1 1.7,-0.2 2.5,-0.4 4.3,-3.7 11.3,-5.3 10.7,-13 1,-3 2.4,-4.7 6,-0.4 -0.2,-2.6 0.1,-4.1 -0.5,-5.2 -0.4,-0.7 -2.4,-1.3 -2.9,-1 -3.2,2.4 -6.3,5 -9.4,7.5 z M 1003,524 c 0,-1.4 0.5,-3.6 -0.1,-4.1 -1.1,-0.8 -3.7,-1.2 -4.4,-0.5 -2.4,2.2 -4.3,5 -6.4,7.6 -3.2,4.1 -6.7,8.1 -9.5,12.5 -4.2,6.5 -1.5,11.1 6.4,11.5 2.1,-0.8 4.3,-1.4 6.2,-2.5 6.7,-4 5.5,-10.4 4.8,-16.6 0.9,-2.7 1.9,-5.3 3,-7.9 z m -101.5,8.9 c -0.4,-0.5 -0.9,-1 -1.3,-1.5 -2.2,1.2 -4.6,2.1 -6.4,3.6 -0.7,0.6 -0.4,2.7 -0.1,4 0.1,0.3 2.4,0.7 2.8,0.2 1.8,-1.9 3.3,-4.2 5,-6.3 z"
   id="path4" />
	<path
   class="st1"
   d="m 825.9,613 c -0.4,-4.3 2.2,-6.8 5.5,-8.6 9.4,-4.9 19,-9.6 28.5,-14.4 6.3,-2.1 8.4,-6.9 5.9,-12.7 -0.9,-1.9 -1.4,-4.1 -1.9,-6.1 -1.4,-6 -2.7,-12.1 -4.1,-18.2 -1.6,-23.4 8,-42 23.8,-58.4 9.6,-10 21.4,-16.7 32.9,-23.9 8.1,-5.1 16.5,-9.2 25.9,-10.9 2.8,-0.5 5.6,-0.5 8.4,-0.7 4.4,0.7 8.7,1.4 13.1,2 3,2.3 6,4.6 9,7 0.9,2 1.9,4 2.8,6.1 -0.6,4.6 -1.3,9.2 -1.9,13.9 -1,1 -1.9,2.1 -2.9,3.1 -1.3,0 -2.6,0 -3.9,0 -0.3,-1.7 -0.7,-3.3 -1,-5 0,-2 0,-4 0,-6 -0.9,-2.3 -1.9,-4.6 -2.8,-6.8 -2.9,-5.6 -4.8,-6 -13.1,-3.2 -15.6,2.8 -29.5,9.7 -41.8,19 -9.5,7.1 -19.2,14.6 -24.2,26 -7.3,11.3 -10,23.8 -10.1,37.1 -0.6,5.9 -0.2,11.7 3.2,16.9 0.8,3.3 -0.6,8 5.1,8.1 1,0.3 2,0.6 2.9,0.9 2,-0.7 3.9,-1.3 5.9,-2 10.1,-2.9 20.1,-6.3 30.4,-8.4 5.7,-1.2 11.9,-3.5 17.6,0.5 -0.3,2.3 -0.7,4.6 -1,6.8 -11.3,4.2 -22.7,8.5 -34,12.7 -1.9,0.5 -3.9,0.8 -5.6,1.7 -1.7,0.9 -4.1,2.4 -4.2,3.7 -0.1,1.8 1.7,3.6 2.7,5.5 1,0.9 2,1.8 3.1,2.7 2.9,2.3 5.7,4.9 8.8,6.8 6.2,3.9 12.3,8.1 20.1,7.9 1.7,0.7 3.4,1.3 5,2 1.3,0 2.6,0 3.9,0.1 8.8,0.3 17.7,1.3 26.5,0.7 8.5,-0.5 16.1,-4.3 22.7,-9.8 v 0 c 1.7,-1 3.3,-2 5,-3 v 0 c 1,-0.7 2,-1.3 3,-2 v 0 c 1.7,-1.7 3.4,-3.3 5,-5 4.7,-3.7 9.4,-7.6 16,-7 0,0.7 0,1.3 0,2 0,1 0,2 0,3 -0.4,1.6 -0.7,3.3 -1.1,4.9 -0.1,0.5 -0.1,0.9 -0.2,1.4 -6.4,6.1 -12.3,13 -19.4,18.2 -9.5,7 -20.7,10.8 -32.5,12.7 -2,0.3 -3.6,2.4 -5.4,3.7 -0.6,0 -1.3,0 -1.9,0 -0.4,-0.5 -0.8,-1 -1.3,-1.5 -0.3,0.5 -0.6,1 -0.8,1.5 -2.6,0 -5.3,0 -7.9,0 -2.2,-0.7 -4.4,-1.3 -6.5,-2 -3,-0.3 -6,-0.7 -9,-1 -8,-3.4 -16.1,-6.7 -24.1,-10.1 -5.6,-3.7 -11.3,-7.4 -16.9,-11.1 -0.3,-0.3 -0.5,-0.6 -0.8,-0.8 -1.7,-2 -3.4,-4 -5,-6 -1.3,-2.5 -8.9,-6.6 -11.2,-6 -0.4,0.1 -0.8,0.6 -1.2,0.8 -11.6,5.7 -23.2,11.4 -34.8,17.2 -1.3,0 -2.6,0 -4,0 -1.3,-0.3 -2.7,-0.7 -4,-1 -0.3,-0.3 -0.7,-0.7 -1,-1 -0.5,-1.3 -0.8,-2.7 -1.2,-4 z"
   id="path6" />
	<path
   class="st2"
   d="m 825.9,613 c 0.3,1.3 0.7,2.7 1,4"
   id="path8" />
	<path
   class="st3"
   d="m 1054,538 c -2,0.6 -4,1.3 -6,1.9 2,-0.6 4,-1.2 6,-1.9 z"
   id="path10" />
	<path
   class="st2"
   d="m 1029,597 v 0 c -1.3,1.3 -2.7,2.7 -4,4"
   id="path12" />
	<path
   class="st2"
   d="m 1008,627 c 1,-1 2,-2 3,-3 -1,1 -2,2 -3,3 z"
   id="path14" />
	<path
   class="st2"
   d="m 1023,606 c 0.7,0 1.3,0 2,0"
   id="path16" />
	<path
   class="st4"
   d="m 1048,442 c -0.7,0.3 -1.4,0.6 -2,1 0.6,-0.4 1.3,-0.7 2,-1 z"
   id="path18" />
	<path
   class="st4"
   d="m 1040,445 c -0.7,0.3 -1.3,0.7 -2,1 0.7,-0.3 1.3,-0.7 2,-1 z"
   id="path20" />
	<path
   class="st5"
   d="m 950,469.9 c 8.3,-2.8 10.2,-2.3 13.1,3.2 -11.3,-1.2 -20.9,4.4 -30.8,8.2 -12.9,5 -23.3,13.9 -33.2,23.2 -5.8,5.5 -11.5,11.6 -12.2,20.4 -2,1.7 -3.9,3.4 -5.9,5.1 1.3,-4.7 2.7,-9.4 4,-14.1 1,-0.7 2.1,-1.3 3,-2.2 6.9,-7.2 13.5,-14.9 20.8,-21.6 10.6,-9.6 23.9,-14.5 37.1,-19.4 1.6,-0.4 2.8,-1.8 4.1,-2.8 z"
   id="path22" />
	<path
   class="st6"
   d="m 988.9,550.9 c -7.9,-0.4 -10.6,-5 -6.4,-11.5 2.8,-4.4 6.3,-8.3 9.5,-12.5 1.3,0 2.6,0.2 3.8,-0.2 2.5,-0.8 4.8,-1.8 7.2,-2.8 -1,2.6 -2.1,5.2 -3.1,7.8 -8,3.5 -14.3,11.5 -11,19.2 z"
   id="path24" />
	<path
   class="st6"
   d="m 1090.6,571.4 c -2.9,13.8 -12,21.9 -27.2,24.5 -8.8,1.5 -17.5,1.7 -25.8,-2.3 -1.8,-0.8 -3.1,-2.5 -4.7,-3.8 3,0.8 6,1.6 9.1,2.4 0.8,0.6 1.7,1.7 2.5,1.7 6.2,0.1 12.6,0.7 18.7,-0.1 10.7,-1.5 19.5,-6.4 23.4,-17.4 0.4,-1.2 -0.3,-2.9 -0.5,-4.3 0.3,-2 0.6,-4.1 0.9,-6.1 0.1,-0.1 0.3,-0.2 0.3,-0.2 -0.1,-0.2 -0.2,-0.4 -0.3,-0.6 -0.3,-3.1 -0.8,-6.2 -1.3,-9.2"
   id="path26" />
	<path
   class="st7"
   d="m 906.7,553.9 c -0.9,0.7 -1.8,1.4 -2.7,2.1 -0.7,0 -1.3,0 -2,0 -1.7,0.3 -3.5,1 -5.2,0.8 -1.9,-0.2 -3.8,-1.1 -5.7,-1.7 9.3,-1.4 13.9,-8.5 18.9,-15.2 0.5,0.2 0.9,0.5 1.4,0.7 -0.2,-0.6 -0.4,-1.2 -0.5,-1.7 0.7,-1.3 1.4,-2.6 2.1,-4 0.4,0.2 1,0.8 1.1,0.7 3.7,-3.9 7.4,-7.7 11,-11.6 4.2,-1.8 5.2,0.4 4.9,4 -7.5,-1.7 -14.1,6.1 -17,16 -3.3,2.5 -6.8,5 -6.3,9.9 z"
   id="path28" />
	<path
   class="st7"
   d="m 1086.2,572.1 c 0.2,1.4 0.9,3.1 0.5,4.3 -3.9,11 -12.7,15.9 -23.4,17.4 -6.1,0.9 -12.4,0.3 -18.7,0.1 -0.8,0 -1.7,-1.1 -2.5,-1.7 8.8,0.5 17.4,0 25.8,-3 8.8,-3 14.7,-8.7 18.3,-17.1 z"
   id="path30" />
	<path
   class="st8"
   d="m 960.1,536.1 c 0,0.3 0,0.6 -0.1,0.9 -1.2,1 -2.3,2.2 -3.6,2.9 -1,0.6 -2.3,0.7 -3.5,1 3.4,-5.9 6.6,-11.8 10.1,-17.6 0.9,-1.5 2.2,-3.3 3.7,-3.8 6.4,-2.4 12.9,-4.4 20.6,-7 -0.6,2.1 -1,3.3 -1.4,4.5 -12.6,0.1 -23.1,8 -25.8,19.1 z"
   id="path32" />
	<path
   class="st9"
   d="m 885,516 c -1.3,4.7 -2.7,9.4 -4,14.1 -3.8,5.5 -3.6,11.6 -3,17.8 -1.4,1.4 -2.9,2.8 -4.3,4.2 0.1,-13.3 2.9,-25.8 10.1,-37.1 0.5,0.3 0.9,0.7 1.2,1 z"
   id="path34" />
	<path
   class="st10"
   d="m 1042.1,475 c 4.6,-5.7 9.2,-11.4 13.8,-17.1 -0.3,2.7 -0.6,5.4 -0.9,8.1 0,0.3 0,0.6 -0.1,0.9 -0.4,0.7 -0.7,1.3 -1.1,2 -0.1,0.7 -0.1,1.3 -0.2,2 -0.3,0.3 -0.5,0.5 -0.8,0.8 -1.4,1.7 -2.7,3.4 -4.1,5.1 -1,0 -1.9,0.1 -2.9,0.1 -0.3,0 -0.6,0 -0.9,0 -0.8,-0.6 -1.8,-1.2 -2.8,-1.9 z"
   id="path36" />
	<path
   class="st6"
   d="m 1075.2,562 c -8.1,-2.1 -16.3,-4 -24.4,-6.4 -1.2,-0.3 -1.9,-2.4 -2.8,-3.6 6.9,1.6 13.9,3 20.7,5.1 2.5,0.7 4.4,3.2 6.5,4.9 z"
   id="path38" />
	<path
   class="st6"
   d="m 1014.8,528.8 c 0.8,-5.8 0.1,-11.4 -2.9,-16.5 1.3,-3.1 2.7,-6.2 4,-9.3 0.3,1 0.6,2 1,3 -0.6,1.4 -1.2,2.7 -1.9,4.1 0,0.9 0,1.9 0,2.8 1,6.1 2,12.1 3,18.2 0,0.6 0,1.3 0,1.9 -0.4,2 -0.7,4 -1.1,6.1 -0.7,-0.3 -1.3,-0.6 -2,-0.9 0,-3.2 0,-6.3 -0.1,-9.4 z"
   id="path40" />
	<path
   class="st11"
   d="m 931,551 c 1.7,-0.6 3.3,-1.3 5,-1.9 -1,-1.7 -2,-3.3 -3,-5 1.4,-0.9 2.8,-2 4.3,-2.8 1.6,-0.8 3.3,-1.4 5,-2 -0.1,1.9 -0.2,3.8 -0.2,5.7"
   id="path42" />
	<path
   class="st9"
   d="m 1016,503 c -1.3,3.1 -2.7,6.2 -4,9.3 -3.6,-6.2 -2.8,-11 3,-14.7 3.1,-2 6.6,-3.4 9.9,-5.1 -1.3,1.8 -2.6,3.6 -4,5.4 -1.6,1.7 -3.3,3.4 -4.9,5.1 z"
   id="path44" />
	<path
   class="st7"
   d="m 873.8,552.1 c 1.4,-1.4 2.9,-2.8 4.3,-4.2 0.6,1 1.3,2 1.9,3.1 0,1 0,2 -0.1,3.1 0,0.7 0,1.3 0,2 -0.3,0.7 -0.7,1.3 -1,2 -0.3,0.3 -0.6,0.7 -0.9,1 0,2.3 0,4.7 0,7 -0.3,1 -0.6,2 -0.9,3 -3.5,-5.3 -3.9,-11.1 -3.3,-17 z"
   id="path46" />
	<path
   class="st12"
   d="m 1030.2,550.2 c 0.9,1.1 2.6,2.1 2.7,3.3 0.3,4.5 0.1,9.1 0.1,13.6 -6,-2.3 -7.3,-5.2 -5.1,-10.9 0.8,-2 1.5,-4 2.3,-6 z"
   id="path48" />
	<path
   class="st10"
   d="m 942.2,539.3 c -1.7,0.7 -3.4,1.2 -5,2 -1.5,0.8 -2.9,1.8 -4.3,2.8 -1.3,-4.3 4.9,-12.6 9,-11.9 0.9,0.2 2,2 2,3.1 0,1.3 -1.1,2.6 -1.7,4 z"
   id="path50" />
	<path
   class="st7"
   d="m 1035.7,466 c 0.5,7.7 -6.4,9.3 -10.7,13 1.3,-4.1 2.6,-8.1 3.9,-12.2 v 0 c 2.3,-0.2 4.5,-0.5 6.8,-0.8 z"
   id="path52" />
	<path
   class="st5"
   d="m 1007,565.1 c -0.4,0.2 -1,0.8 -1.2,0.6 -8.4,-4.5 -16.7,-2.5 -25,0.4 -1.5,0.5 -3.2,0.5 -4.8,0.8 1.1,-0.7 2.1,-1.6 3.3,-2.1 3.5,-1.6 7.1,-3.1 10.7,-4.7 6.4,-1 12.2,0.3 17,5 z"
   id="path54" />
	<path
   class="st12"
   d="m 960.1,536.1 c 2.7,-11.1 13.2,-18.9 25.9,-19.1 -0.9,1 -1.9,2.1 -2.8,3.1 -9.3,-0.5 -15,4.9 -19.7,12 -1,1.5 -2.3,2.7 -3.4,4 z"
   id="path56" />
	<path
   class="st7"
   d="m 932.2,510 c -5.9,5.3 -12.5,3 -19,1.9 0.3,-0.6 0.6,-1.3 0.8,-1.9 6,-0.6 12,-1.3 17.9,-1.9 0.1,0.6 0.2,1.2 0.3,1.9 z"
   id="path58" />
	<path
   class="st8"
   d="m 1003,524 c -2.4,0.9 -4.8,2 -7.2,2.8 -1.2,0.4 -2.5,0.1 -3.8,0.2 2.1,-2.6 4,-5.4 6.4,-7.6 0.8,-0.7 3.3,-0.3 4.4,0.5 0.7,0.5 0.2,2.7 0.2,4.1 z"
   id="path60" />
	<path
   class="st7"
   d="m 1020.9,497.9 c 1.3,-1.8 2.6,-3.6 4,-5.4 2.3,-2.9 4.6,-5.8 6.9,-8.7 0.4,1.7 0.8,3.5 1.2,5.2 -2,1.8 -4.1,3.6 -6.1,5.4 -0.6,0.6 -1.1,1.2 -1.7,1.8 -1.5,0.5 -2.9,1.1 -4.3,1.7 z"
   id="path62" />
	<path
   class="st6"
   d="m 1033,489 c -0.4,-1.7 -0.8,-3.5 -1.2,-5.2 3,-2.6 6.1,-5.3 9.1,-7.9 1.4,0.4 2.7,0.7 4.1,1.1 0.3,0 0.6,0 0.9,0 -1.5,1.2 -3,2.4 -4.3,3.7 -2.3,2.4 -4.4,4.9 -6.6,7.3 -0.7,0.3 -1.4,0.7 -2,1 z"
   id="path64" />
	<path
   class="st11"
   d="m 912.9,543.9 c 2.9,-9.9 9.5,-17.7 17,-16 -1,1 -2,2 -3,3 -5.8,0.3 -8.4,4.1 -9.8,9.1 -0.4,1 -0.7,2 -1.1,2.9 -1,0.4 -2,0.8 -3.1,1 0.1,0.1 0,0 0,0 z"
   id="path66" />
	<path
   class="st9"
   d="m 925,523.9 c -3.7,3.9 -7.3,7.8 -11,11.6 -0.1,0.1 -0.7,-0.4 -1.1,-0.7 2.9,-9.2 4.7,-10.8 12.1,-10.9 z"
   id="path68" />
	<path
   class="st8"
   d="m 1028.9,466.8 c -1.3,4.1 -2.6,8.1 -3.9,12.2 -0.8,0.1 -1.7,0.2 -2.5,0.4 -0.2,-2.5 -1.3,-5.6 -0.3,-7.4 1.3,-2.3 4.4,-3.5 6.7,-5.2 z"
   id="path70" />
	<path
   class="st8"
   d="m 1035.7,466 c -2.3,0.3 -4.6,0.6 -6.9,0.9 3.1,-2.5 6.2,-5.1 9.5,-7.4 0.5,-0.4 2.5,0.3 2.9,1 0.6,1.1 0.3,2.6 0.5,5.2 -3.6,-4.4 -5,-2.7 -6,0.3 z"
   id="path72" />
	<path
   class="st10"
   d="m 990,560.1 c -3.6,1.6 -7.1,3.1 -10.7,4.7 -1.2,0.5 -2.2,1.4 -3.3,2.1 -0.6,0 -1.3,0 -1.9,0 0,-0.9 0,-1.8 0,-2.7 5.3,-1.3 10.6,-2.7 15.9,-4.1 z"
   id="path74" />
	<path
   class="st9"
   d="m 901.5,532.9 c -1.6,2.1 -3.1,4.3 -4.9,6.3 -0.4,0.5 -2.8,0.1 -2.8,-0.2 -0.3,-1.3 -0.6,-3.4 0.1,-4 1.9,-1.5 4.2,-2.4 6.4,-3.6 0.3,0.5 0.7,1 1.2,1.5 z"
   id="path76" />
	<path
   class="st12"
   d="m 1057.1,452.1 c 3.2,4.2 2.2,10.6 -2.1,13.9 0.3,-2.7 0.6,-5.4 0.9,-8.1 0.4,-1.9 0.8,-3.8 1.2,-5.8 z"
   id="path78" />
	<path
   class="st12"
   d="m 952.9,540.9 c 1.2,-0.3 2.5,-0.4 3.5,-1 1.3,-0.8 2.4,-1.9 3.6,-2.9 -1.9,2.5 -3.7,5.1 -5.9,7.3 -0.5,0.5 -2.6,-0.8 -4,-1.2 0.9,-0.8 1.8,-1.5 2.8,-2.2 z"
   id="path80" />
	<path
   class="st7"
   d="m 1014.8,528.8 c 0,3.1 0.1,6.2 0.1,9.3 -4.9,-2.5 -4.9,-5.1 -0.1,-9.3 z"
   id="path82" />
	<path
   class="st13"
   d="m 1039,570 c 4.7,1.7 9.3,3.3 14,5 -4.7,-1.7 -9.4,-3.4 -14,-5 z"
   id="path84" />
	<path
   class="st1"
   d="m 938,502 c 1.7,0 3.3,0 5,0 -1.4,1.8 -2.8,3.5 -4.2,5.3 -0.4,-0.2 -0.8,-0.5 -1.2,-0.7 0.1,-1.5 0.2,-3.1 0.4,-4.6 z"
   id="path86" />
	<path
   class="st14"
   d="m 1018.1,533 c 0.6,2.3 1.3,4.7 1.9,7 -0.7,0 -1.4,-0.1 -2.1,-0.1 -0.3,-0.3 -0.7,-0.6 -1,-0.9 v 0.1 c 0.4,-2.1 0.8,-4.1 1.2,-6.1 z"
   id="path88" />
	<path
   class="st12"
   d="m 1045,476.9 c -1.4,-0.4 -2.7,-0.7 -4.1,-1.1 0.4,-0.3 0.8,-0.6 1.2,-0.9 1,0.8 2,1.4 2.9,2 z"
   id="path90" />
	<path
   class="st1"
   d="m 932.2,510 c -0.1,-0.7 -0.2,-1.3 -0.2,-2 0.7,-0.6 1.5,-1.2 2.2,-1.8 0.3,0.2 0.5,0.5 0.8,0.7 -1,1.1 -1.9,2.1 -2.8,3.1 z"
   id="path92" />
	<path
   class="st5"
   d="m 974.1,564.2 c 0,0.9 0,1.8 0,2.7 -1,-0.6 -2,-1.2 -3,-1.9 0.9,-0.2 2,-0.5 3,-0.8 z"
   id="path94" />
	<path
   class="st9"
   d="m 910.8,538.8 c 0.2,0.6 0.4,1.2 0.5,1.7 -0.5,-0.2 -0.9,-0.5 -1.4,-0.7 0.3,-0.3 0.6,-0.6 0.9,-1 z"
   id="path96" />
	<path
   class="st6"
   d="m 1016.9,539 c 0.3,0.3 0.7,0.6 1,0.9 -0.3,-0.3 -0.6,-0.6 -1,-0.9 z"
   id="path98" />
	<path
   class="st7"
   d="m 1087.2,565.1 c 0.1,0.2 0.2,0.4 0.3,0.6 0,0 -0.2,0.1 -0.3,0.2 -0.2,-0.2 -0.1,-0.5 0,-0.8 z"
   id="path100" />
	<path
   class="st7"
   d="m 836,619 c 11.6,-5.7 23.2,-11.4 34.8,-17.2 0.4,-0.2 0.8,-0.7 1.2,-0.8 2.3,-0.6 9.9,3.5 11.2,6 -6.2,-0.8 -11.6,1 -17.1,3.8 -6.9,3.5 -14.1,6.5 -21.4,9.3 -2.8,1 -6.3,2.8 -8.7,-1.1 z"
   id="path102" />
	<path
   class="st10"
   d="m 1015.1,608.1 c -0.4,1 -0.7,1.9 -1.1,2.9 -1,1.3 -2,2.6 -3,3.9 -0.6,0.4 -1.3,0.7 -1.9,1.1 -1,1 -2,2 -3,3 -3,2 -5.9,4 -8.9,6.1 -0.7,0.6 -1.4,1.3 -2.1,1.9 -0.6,0 -1.2,0.1 -1.9,0.1 -0.7,0.6 -1.4,1.3 -2.1,1.9 -1.3,0.7 -2.7,1.3 -4,2 -4.7,1.7 -9.4,3.3 -14,5 -3.8,0.6 -7.6,1.1 -11.4,1.7 v 0 c -1.4,0.1 -2.7,0.2 -4.1,0.3 1.8,-1.3 3.5,-3.4 5.4,-3.7 11.8,-1.9 22.9,-5.7 32.5,-12.7 7.1,-5.2 13,-12.1 19.4,-18.2 0,1.6 0.1,3.1 0.2,4.7 z"
   id="path104" />
	<path
   class="st10"
   d="m 885,516 c -0.4,-0.4 -0.7,-0.7 -1.1,-1.1 5.1,-11.4 14.8,-18.9 24.2,-26 12.4,-9.3 26.3,-16.2 41.8,-19 -1.3,1 -2.6,2.4 -4.1,2.9 -13.2,4.9 -26.5,9.7 -37.1,19.4 -7.4,6.7 -13.9,14.4 -20.8,21.6 -0.7,0.9 -1.8,1.5 -2.9,2.2 z"
   id="path106" />
	<path
   class="st7"
   d="m 938,574.9 c 2.4,4.3 -1.6,5.4 -3.8,6.3 -7.6,3.2 -15.5,5.9 -23.2,8.7 -1.7,0.6 -3.5,1 -5.2,1.7 -4.2,1.8 -6.7,4.6 -5.7,9.6 -1,-0.9 -2,-1.8 -3.1,-2.7 1.6,-2.6 3.2,-5.3 4.9,-7.9 0.6,-1 1.4,-2 2.1,-2.9 11.3,-4.3 22.6,-8.5 34,-12.8 z"
   id="path108" />
	<path
   class="st15"
   d="m 977,468.1 c 2.1,5.1 5.3,9.9 4.1,15.9 -0.4,1.9 -0.4,4 -1.1,5.8 -1.8,4.5 -5.6,5 -9,1.2 1,-1 1.9,-2.1 2.9,-3.1 1.2,3.7 2.6,1.2 3.6,0 2.8,-3.5 2,-9.4 -1.7,-13.8 -0.9,-2 -1.9,-4 -2.8,-6.1 1.3,0 2.6,0 4,0.1 z"
   id="path110" />
	<path
   class="st6"
   d="m 975.8,474 c 3.7,4.4 4.5,10.4 1.7,13.8 -1,1.2 -2.4,3.7 -3.6,0 0.6,-4.6 1.2,-9.2 1.9,-13.8 z"
   id="path112" />
	<path
   class="st6"
   d="m 930,636 c -8,-3.7 -16.1,-7.4 -24.1,-11.1 8,3.4 16.1,6.7 24.1,10.1 0,0.3 0,0.7 0,1 z"
   id="path114" />
	<path
   class="st9"
   d="m 903.9,587.7 c -0.7,1 -1.5,1.9 -2.1,2.9 -1.6,2.6 -3.2,5.3 -4.9,7.9 -1,-1.8 -2.9,-3.7 -2.7,-5.5 0.1,-1.4 2.5,-2.8 4.2,-3.7 1.6,-0.9 3.7,-1.1 5.5,-1.6 z"
   id="path116" />
	<path
   class="st16"
   d="m 977,468 c -1.3,0 -2.7,-0.1 -4,-0.1 -3,-2.3 -6,-4.6 -9,-7"
   id="path118" />
	<path
   class="st6"
   d="m 877.9,566 c 1.4,3.7 2.8,7.4 4.2,11.1 -5.7,-0.2 -4.3,-4.8 -5.1,-8.1 0.3,-1 0.6,-2 0.9,-3 z"
   id="path120" />
	<path
   class="st12"
   d="m 930,636 c 0,-0.4 0,-0.7 0,-1.1 3,0.3 6,0.7 9,1 0,0.7 0,1.3 0,2 -3,-0.6 -6,-1.2 -9,-1.9 z"
   id="path122" />
	<path
   class="st10"
   d="m 939,637.9 c 0,-0.7 0,-1.3 0,-2 2.2,0.7 4.4,1.3 6.5,2 -2.1,0.1 -4.3,0 -6.5,0 z"
   id="path124" />
	<path
   class="st3"
   d="m 995,604 c 1.7,-1.7 3.4,-3.3 5,-5 -1.6,1.7 -3.3,3.3 -5,5 z"
   id="path126" />
	<path
   class="st12"
   d="m 1015.1,608.1 c -0.1,-1.6 -0.2,-3.1 -0.3,-4.7 0.1,-0.5 0.1,-1 0.2,-1.4 3.2,1.9 3,4 0.1,6.1 z"
   id="path128" />
	<path
   class="st3"
   d="m 987,609 c 1.7,-1 3.3,-2 5,-3 -1.7,1 -3.3,2 -5,3 z"
   id="path130" />
	<path
   class="st3"
   d="m 992,606 c 1,-0.7 2,-1.3 3,-2 -1,0.7 -2,1.3 -3,2 z"
   id="path132" />
	<path
   class="st15"
   d="m 934,618 c 1.3,0 2.6,0 3.9,0.1 -1.3,0 -2.6,-0.1 -3.9,-0.1 z"
   id="path134" />
	<path
   class="st10"
   d="m 955.5,638 c -0.7,0 -1.4,0 -2.1,0 0.3,-0.5 0.6,-1 0.8,-1.5 0.5,0.5 0.9,1 1.3,1.5 z"
   id="path136" />
	<path
   class="st11"
   d="m 906.7,553.9 c -0.4,-4.9 3,-7.4 6.3,-10 l 0.1,0.1 c 0,1 0,2 0,3 -2.2,2.3 -4.3,4.6 -6.4,6.9 z"
   id="path138" />
	<path
   class="st15"
   d="m 913,547 c 0,-1 0,-2 0,-3 1,-0.3 2,-0.7 2.9,-1 -0.9,1.3 -1.9,2.7 -2.9,4 z"
   id="path140" />
	<path
   class="st12"
   d="m 1055,467 c -0.4,0.7 -0.7,1.3 -1.1,2 0.4,-0.7 0.7,-1.3 1.1,-2 z"
   id="path142" />
	<path
   class="st6"
   d="m 878.9,558 c -0.3,0.3 -0.6,0.7 -0.9,1 0.3,-0.4 0.6,-0.7 0.9,-1 z"
   id="path144" />
	<path
   class="st6"
   d="m 973,636 c 4.7,-1.7 9.4,-3.3 14,-5 -4.7,1.7 -9.3,3.3 -14,5 z"
   id="path146" />
	<path
   class="st12"
   d="m 1011,614.9 c 1,-1.3 2,-2.6 3,-3.9 -1,1.3 -2,2.6 -3,3.9 z"
   id="path148" />
	<path
   class="st12"
   d="m 1006,619 c 1,-1 2,-2 3,-3 -1,1 -2,2 -3,3 z"
   id="path150" />
	<path
   class="st12"
   d="m 995,627 c 0.7,-0.6 1.4,-1.3 2.1,-1.9 -0.7,0.6 -1.4,1.2 -2.1,1.9 z"
   id="path152" />
	<path
   class="st12"
   d="m 991,629 c 0.7,-0.6 1.4,-1.3 2.1,-1.9 -0.7,0.6 -1.4,1.3 -2.1,1.9 z"
   id="path154" />
	<path
   class="st1"
   d="m 961.6,637.7 c 0,0 -0.1,0 0,0 -0.1,0 0,0 0,0 z"
   id="path156" />
</g>
<path
   style="fill:#465990;stroke:none;stroke-width:1.58025;fill-opacity:1"
   d="m 1336.8889,764.47011 c -23.0519,-2.87754 -50.6786,-11.12549 -69.7633,-20.82788 -17.31,-8.80009 -19.1088,-10.17736 -30.2251,-23.14158 -6.5008,-7.58153 -17.293,-19.82905 -23.9825,-27.2167 -6.6895,-7.38765 -13.6058,-16.27654 -15.3695,-19.75309 -2.3487,-4.62961 -10.1541,-11.81795 -29.1703,-26.86419 -14.2799,-11.29877 -30.2614,-23.48927 -35.5144,-27.09 -13.0972,-8.97764 -31.7516,-14.981 -49.6045,-15.96375 -16.018,-0.88175 -26.0788,0.49689 -54.5186,7.47069 -10.8642,2.66403 -30.41971,7.46591 -43.45675,10.67084 -29.47451,7.2458 -53.86705,8.67556 -69.86158,4.09493 l -9.94089,-2.84694 v -11.46662 c 0,-10.19114 0.79036,-13.22515 7.10534,-27.27609 8.65081,-19.24812 68.9726,-115.61248 92.99258,-148.55603 4.2422,-5.81832 8.5597,-14.03976 9.9583,-18.96296 1.8136,-6.38385 4.5007,-10.78909 10.1211,-16.59259 6.0186,-6.21475 8.4747,-10.43097 11.5069,-19.75309 2.1202,-6.51852 3.653,-12.0761 3.406,-12.35018 -0.4897,-0.54353 -78.19148,23.49818 -101.05221,31.26657 -9.43032,3.20456 -15.96324,6.52287 -19.55999,9.93525 -6.28875,5.96642 -17.35432,22.73688 -44.31641,67.16391 -20.8105,34.29071 -21.39154,34.93589 -46.97875,52.16534 -6.98234,4.70165 -10.70224,6.26247 -13.4321,5.63597 -2.07649,-0.47656 -6.44212,-1.52993 -9.70138,-2.34084 l -5.92592,-1.47438 0.019,-13.76624 c 0.0161,-11.60551 0.61306,-14.80512 3.80366,-20.38489 7.0284,-12.2914 6.77646,-18.27541 -1.13514,-26.96162 -9.94946,-10.9236 -36.51557,5.80652 -48.78022,30.71954 -7.32421,14.87757 -7.23589,23.49586 0.36128,35.25577 3.08813,4.78025 6.11939,9.53127 6.73612,10.55783 0.73084,1.21651 -2.95537,4.00266 -10.58552,8.00087 l -11.70687,6.13441 -17.94876,-9.78568 c -25.32447,-13.80692 -24.72968,-12.30592 -18.22744,-45.99876 5.90031,-30.57381 8.69809,-36.48651 24.20367,-51.15104 8.80474,-8.32716 8.82133,-8.36071 8.0593,-16.29134 -0.97319,-10.12818 -6.82559,-16.04329 -14.45992,-14.61488 -2.68533,0.50243 -11.80931,1.60259 -20.27553,2.44482 -8.46622,0.84222 -18.28607,2.39805 -21.8219,3.45742 -13.57235,4.06637 -24.60783,18.27834 -33.58047,43.24635 -4.24543,11.81369 -11.06501,24.85954 -15.69509,30.02469 -1.5582,1.73827 -9.79691,11.69383 -18.30825,22.12346 -28.13157,34.47187 -47.27713,48.03257 -77.75541,55.07372 -8.35578,1.93038 -10.29104,1.73435 -32.47417,-3.28949 -26.5788,-6.01933 -28.00861,-6.88869 -38.06057,-23.14163 l -5.98658,-9.67964 -0.58689,-20.54321 c -0.69674,-24.38852 1.70493,-36.97556 10.10532,-52.96153 4.85244,-9.23424 7.84764,-12.4347 22.49115,-24.03254 25.04301,-19.83437 51.04258,-36.59582 86.36237,-55.67622 l 31.54322,-17.04023 18.715,-2.71934 c 17.91705,-2.60338 19.43567,-2.59547 35.61727,0.18524 36.07171,6.19869 52.13233,5.4787 70.60383,-3.16517 9.85346,-4.61099 29.26141,-21.07086 29.26141,-24.81658 0,-1.15951 -3.25266,1.2282 -7.22812,5.30601 l -7.22811,7.41419 0.6212,-5.05235 c 0.34164,-2.77879 0.0596,-4.7053 -0.62667,-4.28113 -0.68631,0.42417 -22.77987,2.93218 -49.09678,5.57336 l -47.84893,4.80216 -18.5354,-4.37172 c -16.6948,-3.93761 -19.10752,-4.95764 -24.297,-10.27214 -5.48456,-5.6167 -5.70757,-6.26075 -4.63789,-13.39387 1.35585,-9.0415 7.03984,-15.39864 15.98987,-17.88356 11.48487,-3.1887 54.26898,-1.95009 104.17178,3.0158 26.07407,2.59466 54.75947,4.71984 63.74532,4.7226 l 16.33791,0.005 -9.88506,11.4568 c -5.43678,6.30123 -10.97901,11.45679 -12.31605,11.45679 -1.33705,0 -2.9255,-1.77778 -3.52991,-3.95062 l -1.0989,-3.95062 -0.15755,4.09202 c -0.11031,2.86514 0.96937,4.60547 3.60095,5.80451 3.49007,1.59017 4.56105,0.76502 14.99677,-11.55459 7.25298,-8.56233 12.03821,-12.96009 13.49402,-12.40144 1.24067,0.47609 7.71837,-0.6672 14.3949,-2.54063 10.22194,-2.86829 12.87261,-3.10245 16.78319,-1.48262 5.81573,2.40895 7.68376,5.83686 7.68376,14.10007 0,8.46685 4.71684,13.24027 16.45539,16.65275 10.20408,2.96641 14.56492,2.37492 29.37177,-3.98389 7.93347,-3.40705 18.11838,-5.53057 44.74314,-9.32876 l 34.47152,-4.9176 30.31857,-18.12925 c 36.1585,-21.62094 42.2497,-27.11336 101.6622,-91.66829 47.8974,-52.04307 87.4845,-91.54765 109.5947,-109.36605 9.1259,-7.35452 36.6463,-26.737825 61.1565,-43.074013 43.3806,-28.913468 45.059,-29.859745 63.2098,-35.636814 10.2553,-3.264059 21.2844,-7.259838 24.509,-8.879508 12.2817,-6.168853 27.2654,-1.877796 40.2938,11.539396 11.7624,12.113397 14.3155,26.866528 8.77,50.676845 l -3.2148,13.80307 -19.5036,22.542604 c -10.7269,12.39844 -26.9128,31.07595 -35.9687,41.50558 -9.0558,10.42963 -20.8033,22.46299 -26.1055,26.74081 -45.3343,36.57573 -48.6141,39.55744 -65.787,59.80787 -13.4663,15.87962 -19.4883,21.74946 -25.0389,24.40639 -4.0195,1.92408 -16.2031,7.70535 -27.0744,12.84729 -49.5323,23.42771 -57.5983,43.45287 -34.7541,86.28273 11.9163,22.34167 14.9428,34.11675 14.9815,58.28925 l 0.033,20.27558 -6.6086,5.7985 c -13.1522,11.53989 -16.4869,22.91712 -9.2411,31.52824 5.2741,6.2679 31.2143,18.98873 40.8372,20.02622 4.1827,0.45096 13.7827,2.71643 21.3334,5.03442 7.5507,2.31796 19.7729,5.37217 27.1606,6.78709 l 13.4321,2.57258 -0.4552,8.64103 c -0.7212,13.69189 -4.1395,26.13253 -12.9974,47.30227 -10.0383,23.99087 -11.5092,34.09177 -6.418,44.07143 3.7416,7.33416 13.1466,14.23753 25.266,18.54554 3.9856,1.41674 14.3577,5.62535 23.049,9.35247 8.6914,3.72712 32.1581,12.31216 52.1482,19.07785 35.0146,11.85076 36.8201,12.28626 49.3023,11.89194 7.8229,-0.24714 18.154,0.6814 26.074,2.34346 17.7647,3.72801 43.4299,3.75196 55.7016,0.052 20.0367,-6.04119 36.1542,-17.52613 40.4494,-28.82342 5.1268,-13.48461 -1.3483,-27.54773 -20.3645,-44.22922 -18.2456,-16.00542 -23.0354,-18.55537 -45.2863,-24.10908 -25.7203,-6.41971 -89.6261,-20.03368 -109.037,-23.22838 -8.6914,-1.43046 -15.9075,-2.70474 -16.0358,-2.83174 -0.1283,-0.12705 -2.795,-4.61723 -5.9259,-9.97828 -4.2037,-7.19771 -5.6927,-11.57104 -5.6927,-16.71928 v -6.97191 l 22.5185,-10.34946 c 27.4497,-12.61584 48.2306,-18.63171 64.3603,-18.63171 10.9965,0 11.8867,0.26854 15.7222,4.74327 3.8755,4.52145 5.5437,5.0025 35.6706,10.28614 28.7318,5.03898 33.0254,6.22233 47.2305,13.01703 l 15.6256,7.47417 19.6073,25.66833 c 10.784,14.11758 20.2681,27.63656 21.0757,30.04217 0.8076,2.4056 2.804,13.69902 4.4366,25.09647 2.86,19.96806 2.8671,21.35826 0.1926,38.17813 -2.8444,17.88851 -7.3048,28.04194 -19.595,44.6054 -26.3328,35.48842 -72.0295,58.51773 -132.9268,66.98975 -20.849,2.90051 -67.0776,4.38853 -81.2761,2.61616 z M 1064.2013,555.83458 c 17.8656,-6.03895 25.6677,-10.68457 34.5661,-20.58175 11.7077,-13.02176 14.9402,-27.28267 12.156,-53.62876 l -1.8352,-17.36635 7.4034,-17.83256 c 6.7562,-16.27383 10.3778,-32.12113 8.9889,-39.33314 -0.6197,-3.21798 -9.2032,-6.15375 -17.992,-6.15375 -6.7568,0 -7.7204,0.58855 -17.4644,10.66667 -10.5647,10.92712 -17.5536,18.93897 -48.0974,55.13778 -29.8826,35.41509 -38.4699,49.57235 -38.4699,63.42234 0,12.53659 10.6154,23.54619 26.8642,27.86178 12.7859,3.39586 18.4286,3.03074 33.8803,-2.19226 z M 558.85476,498.51852 c 2.64444,-2.82469 8.88423,-10.26133 13.86619,-16.52588 l 9.0581,-11.39008 -2.88952,-3.96767 c -1.58924,-2.18221 -3.79263,-3.99001 -4.89642,-4.01734 -2.62007,-0.0648 -30.36133,13.79666 -33.94373,16.96068 -5.14576,4.54481 -3.2392,21.85363 2.53146,22.98198 8.71504,1.70404 11.55518,0.99868 16.27392,-4.04169 z M 1259.8113,190.90198 c 10.0322,-6.25357 21.196,-13.9001 24.8086,-16.99228 8.4085,-7.19739 14.1266,-18.53544 15.3759,-30.48788 1.0107,-9.67054 5.0544,-18.42983 9.2513,-20.04037 3.9842,-1.52889 9.1937,0.69078 15.2894,6.51454 3.2012,3.05844 6.2234,5.5608 6.716,5.5608 1.6385,0 0.7466,-18.08692 -1.1688,-23.7037 -1.5348,-4.50044 -3.123,-5.92232 -8.5252,-7.63202 l -6.639,-2.10116 -15.4845,11.03812 c -8.5164,6.07096 -20.5888,14.8387 -26.8274,19.48387 -6.2387,4.64516 -18.1951,12.59189 -26.5698,17.6594 -21.6505,13.10073 -23.9557,18.21046 -19.572,43.38375 l 1.7744,10.18961 6.6654,-0.75128 c 4.699,-0.52966 12.0461,-4.10542 24.9057,-12.1214 z"
   id="path994" /><path
   style="fill:#465990;stroke:none;stroke-width:1.58025;fill-opacity:1"
   d="m 800.81051,987.86508 c -12.71383,-3.96933 -23.21168,-5.92304 -41.87654,-7.79343 -14.68409,-1.4715 -28.15272,-3.71453 -32.81051,-5.4642 -11.17829,-4.19904 -43.38364,-16.69911 -59.25926,-23.00068 -7.38766,-2.9324 -21.96543,-8.5842 -32.39506,-12.55953 -27.25451,-10.38826 -25.76855,-9.60248 -75.50003,-39.92494 L 513.49378,871.39491 498.1296,853.95134 c -8.45029,-9.59397 -17.14195,-19.16062 -19.31479,-21.25921 -9.15128,-8.8386 -35.76675,-21.80123 -48.28678,-23.5173 -5.83625,-0.79993 -8.47968,-0.24327 -14.58138,3.07057 -8.50914,4.62132 -52.44914,25.04117 -132.02313,61.35395 -48.97335,22.3485 -55.96211,25.1167 -63.41109,25.1167 -10.69137,0 -30.83969,-4.42777 -34.4466,-7.56995 -2.90877,-2.53398 -9.07818,-21.00684 -9.07818,-27.18251 0,-8.20959 4.08089,-16.82421 11.49802,-24.27196 6.21753,-6.24319 13.5596,-10.525 39.54991,-23.06505 26.20262,-12.64249 116.98714,-54.91434 142.75191,-66.46934 23.47729,-10.5291 31.21358,-33.45591 20.01972,-59.32929 -6.26011,-14.46957 -7.70711,-19.6395 -20.76382,-74.18597 -12.25833,-51.21102 -13.52654,-61.67176 -11.28295,-93.06606 6.12529,-85.71038 44.08511,-160.41748 120.10744,-236.37837 39.59098,-39.559 73.78369,-63.50754 167.64814,-117.4206 41.49827,-23.83542 56.19828,-31.50477 76.7297,-40.03175 41.27399,-17.14165 79.62096,-25.89335 113.45585,-25.89335 6.97713,0 27.52284,2.13673 45.65714,4.74828 l 32.97141,4.74827 24.16333,17.54581 24.16334,17.54581 6.4679,14.11913 c 3.55734,7.76552 6.45493,16.04429 6.43906,18.39727 -0.0158,2.35298 -2.11391,18.08456 -4.66231,34.95905 l -4.63346,30.68091 -7.5252,7.64008 c -7.40736,7.52043 -7.68034,7.64008 -17.43105,7.64008 -8.97998,0 -9.9813,-0.33232 -10.71329,-3.55555 -3.35089,-14.75552 -3.9207,-19.62269 -3.95486,-33.78182 -0.0381,-15.77029 -0.15808,-16.27806 -8.21555,-34.76543 -10.93373,-25.08672 -17.39114,-34.47741 -27.24542,-39.62166 -6.5292,-3.40846 -22.15909,-2.92895 -36.79063,1.1287 -6.78164,1.8807 -21.93025,5.41372 -33.66358,7.85117 -69.01056,14.33602 -137.51251,44.34127 -201.48149,88.25301 -71.05623,48.77679 -104.15734,80.20614 -128.43502,121.94837 -4.29673,7.38766 -10.67309,18.08179 -14.16968,23.76472 -21.23247,34.50867 -35.70538,75.6501 -42.22741,120.03775 -1.48548,10.10987 -3.06862,33.63183 -3.56818,53.01528 -1.06294,41.24274 0.59612,51.85199 11.38841,72.82568 5.07832,9.86918 7.04002,15.79476 7.89354,23.84354 1.9352,18.24901 7.47667,26.22282 19.55026,28.13162 3.17109,0.50135 9.6986,1.93529 14.50558,3.18658 8.30241,2.16115 9.37047,2.07689 21.33333,-1.68304 23.02287,-7.23608 114.93522,-32.53139 140.59337,-38.69288 13.90617,-3.33941 38.08395,-8.68266 53.7284,-11.8739 25.04312,-5.10843 30.42855,-5.71683 45.03703,-5.08791 13.4489,0.57901 18.31415,1.48997 25.67902,4.8081 10.38377,4.67825 10.51254,5.15038 6.98314,25.60101 l -1.90903,11.06172 -33.15434,11.62293 c -18.2349,6.3926 -59.40008,20.82602 -91.47819,32.07427 -32.07813,11.24824 -63.36702,21.49499 -69.53086,22.77055 -13.0225,2.69489 -28.60753,9.86907 -35.57163,16.37452 -7.29676,6.81619 -6.68378,13.01954 2.63621,26.67833 7.76621,11.38165 12.86878,15.9842 42.27161,38.12919 29.79361,22.43932 70.58625,45.04059 95.60494,52.97021 7.5331,2.38759 20.02511,4.83058 28.44444,5.56269 10.77043,0.93656 18.50131,2.68939 27.35991,6.20335 9.18569,3.64369 14.8509,4.89038 22.12345,4.86848 5.37675,-0.0163 34.66479,1.17813 65.08454,2.65408 107.40929,5.21144 139.96497,-1.20917 196.29105,-38.71238 10.2424,-6.8196 26.8003,-17.10063 36.7954,-22.84674 12.8691,-7.39838 22.6383,-14.58708 33.4734,-24.63154 32.2024,-29.85264 62.6484,-45.94517 87.0204,-45.99547 l 9.0864,-0.0188 0.011,13.03704 c 0.01,7.6394 -1.358,18.98178 -3.2955,27.39552 l -3.3064,14.35849 -28.3396,26.48399 c -33.3964,31.20957 -48.4339,44.32685 -65.7094,57.3183 -42.6427,32.06808 -92.45668,52.46038 -161.68104,66.18717 -24.36142,4.83074 -28.61982,6.14435 -35.76277,11.03194 -4.45965,3.05154 -9.36986,6.94209 -10.91159,8.64568 -4.02657,4.44931 -11.93755,4.04113 -16.53552,-0.85319 -2.04128,-2.17284 -4.18441,-3.95062 -4.76255,-3.95062 -0.57811,0 -1.86113,1.77778 -2.85116,3.95062 -1.79016,3.929 -1.91047,3.9496 -21.98204,3.76636 -18.17576,-0.16593 -21.86872,-0.71085 -37.14929,-5.48153 z"
   id="path998" /><path
   style="fill:#a0a0a0;stroke:none;stroke-width:1.58025"
   d="m 473.51688,450.42223 c -0.5476,-0.5476 -0.39891,-1.77218 0.33042,-2.72128 1.40762,-1.83179 9.32536,-26.7809 10.11951,-31.88696 0.25867,-1.66313 0.9082,-3.73498 1.44341,-4.60411 1.69155,-2.74695 5.9169,-18.17284 4.97778,-18.17284 -0.49414,0 -0.039,-1.03552 1.01134,-2.30116 1.05038,-1.26562 1.49385,-2.97413 0.98549,-3.79667 -0.50836,-0.82255 1.33226,-2.28217 4.09028,-3.24363 6.34601,-2.21223 1.64141,2.10612 59.7718,-54.86459 55.62094,-54.51132 68.96389,-66.27547 94.58613,-83.39425 16.78048,-11.2114 48.70869,-28.30966 71.3398,-38.20401 5.64938,-2.46992 10.70666,-5.11289 11.2384,-5.87326 0.53175,-0.76037 1.24286,-1.14927 1.58025,-0.86421 1.15941,0.97956 14.04555,-3.91532 14.04555,-5.33528 0,-0.78132 0.59381,-1.05358 1.31958,-0.60503 1.09219,0.67501 15.83785,-4.30174 29.49523,-9.9548 1.73827,-0.7195 3.51605,-1.34474 3.95062,-1.38941 0.73121,-0.0752 12.41159,-4.47759 19.75309,-7.44508 1.73827,-0.70263 4.5269,-1.54038 6.19697,-1.86167 1.67005,-0.32129 3.98116,-1.3682 5.1358,-2.32646 1.15462,-0.95826 2.09932,-1.29012 2.09932,-0.73747 0,1.89293 11.0111,-3.5949 18.14979,-9.04569 8.44699,-6.44976 28.42279,-12.38789 42.68972,-12.69022 11.54876,-0.24473 19.04229,3.78662 26.09628,14.03922 2.59519,3.772 4.71696,7.0856 4.71503,7.36357 -0.002,0.27797 -7.64638,0.56956 -16.98766,0.64797 -31.85425,0.2674 -53.96224,5.93288 -117.24201,30.04492 -68.58943,26.13522 -103.60127,44.79327 -149.42115,79.62756 -41.39901,31.47335 -84.23458,70.57103 -98.83679,90.21217 -11.87318,15.97038 -23.63234,43.58374 -23.63234,55.49448 0,1.57764 -5.26878,7.14521 -12.02318,12.70502 -13.80256,11.36141 -15.60983,12.55181 -16.97846,11.18317 z"
   id="path1000" /><path
   style="fill:#465990;stroke:none;stroke-width:1.58025;fill-opacity:0.33333334"
   d="m 490.12457,381.48404 c -1.29397,-1.55915 0.0583,-5.21868 5.46709,-14.79549 19.72208,-34.91963 54.80364,-68.32074 119.12439,-113.41819 62.2903,-43.67383 127.61061,-73.83536 193.58025,-89.3853 32.61593,-7.68801 31.00953,-7.65168 20.93827,-0.47363 -3.85688,2.74889 -19.32516,9.23627 -36.33426,15.23854 -88.316,31.16548 -132.75704,53.85069 -175.81389,89.74531 -8.69136,7.2456 -37.84691,34.93437 -64.79012,61.53058 -26.94321,26.59622 -50.74588,49.54318 -52.89483,50.99323 -4.70783,3.17674 -6.99378,3.31594 -9.2769,0.56495 z"
   id="path1005" /><path
   style="fill:#71637c;stroke:none;stroke-width:1.58025;fill-opacity:1"
   d="m 433.60123,547.83684 c 3.98051,-61.62466 19.81128,-114.08262 47.37756,-156.9936 5.39783,-8.40252 6.21496,-9.06748 8.42575,-6.85669 2.21078,2.21078 1.42651,5.79157 -8.087,36.92315 -6.33728,20.73782 -12.3491,37.32285 -15.08739,41.62212 -9.60769,15.08464 -11.78406,24.9417 -12.19359,55.22625 l -0.37236,27.53585 -10.56529,9.53556 -10.56528,9.53556 z"
   id="path1007" /><path
   id="path1009"
   style="fill:#71637c;stroke:none;stroke-width:1.58025;fill-opacity:1"
   d="M 1405.6992 101.02539 C 1405.4134 100.73955 1389.309 118.80762 1369.9102 141.17773 C 1350.5114 163.54785 1335.3622 182.0921 1336.2461 182.38672 C 1337.1299 182.68134 1340.3027 184.65133 1343.2969 186.76562 C 1347.433 189.68625 1350.8283 190.62356 1357.4316 190.66406 C 1362.2118 190.69337 1366.8881 190.19518 1367.8223 189.55664 C 1368.7565 188.9181 1375.3342 181.76848 1382.4395 173.66992 C 1391.8095 162.99009 1395.3574 157.76963 1395.3574 154.66406 C 1395.3574 152.3091 1396.5904 148.62356 1398.0977 146.47461 C 1399.866 143.95351 1401.7935 135.29188 1403.5293 122.05664 C 1405.0088 110.77514 1405.9851 101.31122 1405.6992 101.02539 z M 1319.7402 105.70508 C 1312.6404 105.40281 1301.2312 113.06049 1270.5176 136.20898 L 1264.9883 140.37891 L 1272.8887 139.35938 C 1277.2344 138.7994 1284.6874 137.87098 1289.4512 137.29492 C 1297.5961 136.31001 1298.3318 135.85226 1301.7715 129.61523 C 1307.5062 119.21681 1314.7064 118.69734 1325.2148 127.92383 L 1330.9805 132.98633 L 1330.291 122.1582 C 1329.7234 113.24416 1328.9577 110.80902 1325.959 108.38086 C 1323.9941 106.78979 1322.1068 105.80583 1319.7402 105.70508 z M 1260.3828 143.86914 C 1257.986 143.7937 1235.5889 158.68064 1231.1875 163.36914 L 1225.832 169.07422 L 1226.8105 181.89453 C 1227.348 188.94596 1228.2393 196.31593 1228.793 198.27148 C 1229.8255 201.91782 1235.9315 203.17332 1240.0137 200.57812 C 1241.6747 199.52217 1261.4889 144.86198 1260.5508 143.92383 C 1260.5164 143.88941 1260.4601 143.87157 1260.3828 143.86914 z M 1235.0449 273.47461 C 1233.3287 273.65905 1222.3579 278.49013 1209.5488 284.72852 C 1188.2847 295.08478 1183.2987 298.23638 1174.9258 306.61133 C 1166.8268 314.71227 1164.7978 317.84174 1163.1289 324.80273 C 1160.6871 334.98783 1161.8188 343.25257 1167.3379 355.55078 C 1169.6035 360.59937 1172.0188 364.16647 1172.7051 363.47656 C 1173.3913 362.78665 1178.1962 353.0791 1183.3828 341.9043 C 1192.3792 322.52127 1193.5673 320.81377 1209.2266 304.76953 C 1226.8091 286.75489 1236.6707 274.91096 1235.2617 273.50195 C 1235.2318 273.47199 1235.1593 273.46231 1235.0449 273.47461 z M 741.56055 348.03711 C 729.41945 347.88105 648.75377 356.88764 647.5625 358.72852 C 643.75499 364.61226 647.86234 366.09094 681.08594 370.80078 C 701.28001 373.66352 720.45492 370.38743 736 361.41602 C 742.40487 357.71963 744.29686 355.75599 744.29688 352.80273 C 744.29688 350.69876 743.72734 348.62552 743.03125 348.19531 C 742.87479 348.09861 742.36995 348.04751 741.56055 348.03711 z M 1037.0879 371.19727 C 1030.4407 372.01194 939.29767 400.47451 929.89648 404.74805 C 918.68941 409.84249 916.21394 413.29097 873.21484 483.69922 L 857.89844 508.7793 L 863.91211 507.68164 C 870.9008 506.40524 877.95778 502.5414 887.33984 494.85352 C 892.43391 490.67931 894.25728 487.92057 895.00195 483.26367 C 896.74982 472.33308 909.27855 449.97579 920.56445 437.64648 C 944.48389 411.51564 976.33943 396.07866 1016.7461 391.03906 L 1032.4043 389.08594 L 1035.3086 380.52148 C 1036.9056 375.81091 1037.8741 371.61823 1037.4609 371.20508 C 1037.4279 371.17208 1037.3023 371.17099 1037.0879 371.19727 z M 1109.4707 402.51172 C 1104.8892 402.57816 1100.3788 403.68297 1097.8105 405.70312 C 1093.085 409.42021 1068.2461 437.99525 1068.2461 439.71484 C 1068.2461 442.54053 1087.9295 438.47361 1104.5703 432.20898 L 1122.7207 425.375 L 1123.8008 419.08203 C 1125.2682 410.52842 1124.0435 406.4088 1119.4082 404.29688 C 1116.6402 403.03568 1113.0341 402.46004 1109.4707 402.51172 z M 721.04297 423.17969 C 713.59496 423.04274 705.08486 429.89412 677.96484 456.02539 C 654.17016 478.95258 647.40536 484.6671 645.7168 483.26562 C 643.23563 481.20643 642.63577 481.81952 636.31836 492.87891 C 632.83216 498.98192 632.37189 501.00768 633.68555 504.46289 C 635.21187 508.4774 635.09391 508.61055 630.83789 507.67578 C 626.98479 506.82949 625.69173 507.59405 621.04492 513.47266 C 589.86125 552.92264 566.92611 571.29116 540.3457 578.10352 C 536.05412 579.20342 532.54297 580.56756 532.54297 581.13477 C 532.54297 581.702 536.98782 583.42875 542.41992 584.97266 C 547.85202 586.51657 553.00782 587.9964 553.87695 588.25977 C 557.15687 589.2536 562.09384 588.80689 572.04883 586.61719 C 577.69822 585.37455 584.96732 584.33323 588.20117 584.30273 C 592.20187 584.26496 596.36829 582.63386 601.23828 579.20117 C 607.74914 574.61188 608.39453 573.57002 608.39453 567.66016 C 608.39453 557.66283 615.16076 545.80141 626.01367 536.76953 C 631.1461 532.49828 636.6406 528.31062 638.22461 527.46289 C 639.80861 526.61516 643.02228 520.6598 645.36719 514.23047 C 651.20497 498.22431 661.83985 480.56751 672.75195 468.75977 C 688.47847 451.74248 704.81211 443.60547 723.24414 443.60547 L 733.23438 443.60547 L 733.23438 438.78516 C 733.23438 431.78006 729.11799 424.85805 724.2207 423.62891 C 723.14889 423.3599 722.10697 423.19925 721.04297 423.17969 z M 704 425.86719 L 692.9375 426.88477 C 677.97215 428.26175 666.65619 433.8768 659.69336 443.37891 C 653.7761 451.45412 642.55392 477.69126 644.00977 480.04688 C 644.51434 480.86327 645.78173 481.53125 646.82617 481.53125 C 647.87061 481.53125 661.16272 469.00679 676.36328 453.69922 L 704 425.86719 z M 573.95703 465.00195 C 571.87847 464.91398 568.38236 466.63009 559.26172 471.16211 C 542.23526 479.62251 538.86328 482.25867 538.86328 487.10938 C 538.86328 494.17874 540.87183 500.34915 543.39062 501.01953 C 551.88495 503.28031 555.98048 500.24331 572.68359 479.29688 C 580.05403 470.05398 580.10295 469.91936 577.07617 466.89258 C 575.94113 465.75754 575.20417 465.05474 573.95703 465.00195 z M 455.82617 547.56055 C 453.63388 547.63586 450.14416 551.19745 441.2832 559.64062 L 432.98828 567.54688 L 433.01562 584.98242 C 433.04976 606.66686 436.00224 621.11827 443.51953 636.39258 L 449.35156 648.24219 L 451.78516 642.71289 C 453.39192 639.06471 454.41431 630.73644 454.79102 618.22266 C 455.2569 602.74693 455.88352 598.67889 458.19922 596.09961 C 463.43917 590.26321 464.5918 586.10267 464.5918 573.0332 C 464.5918 561.89899 464.00457 559.02811 460.50391 553.05469 C 458.45149 549.55251 457.53129 547.50197 455.82617 547.56055 z M 1036.0742 611.5957 C 1035.6664 611.18783 978.90732 624.18616 972.24609 626.21289 C 971.15221 626.54571 970.27148 629.30419 970.27148 632.39453 C 970.27148 637.60525 970.60319 637.97461 975.26953 637.97461 C 978.01813 637.97461 983.52842 635.94737 987.51562 633.46875 C 991.50284 630.99012 1004.1714 625.16606 1015.668 620.52734 C 1027.1647 615.88863 1036.3478 611.86929 1036.0742 611.5957 z M 588.52148 745.45117 C 578.82585 745.51098 557.91797 754.21258 548.57031 762.07812 C 544.9144 765.15438 543.60547 767.58545 543.60547 771.29492 C 543.60547 776.23774 544.91121 778.83426 552.72266 789.41797 C 554.86172 792.31618 557.14848 794.09451 557.80469 793.36914 C 558.46089 792.64377 564.87217 783.16107 572.05273 772.29688 C 579.23329 761.43268 586.56101 750.94384 588.33594 748.98828 C 591.46152 745.54468 591.46667 745.43297 588.52148 745.45117 z " /><path
   style="fill:#a0a0a0;stroke:none;stroke-width:1.58025"
   d="m 242.5679,908.27018 c -1.73827,-0.719 -4.77932,-3.0509 -6.75788,-5.18201 l -3.59739,-3.87475 80.23936,-36.82215 c 44.13166,-20.25218 87.56689,-40.36364 96.52277,-44.69215 13.99343,-6.76323 17.21211,-7.74544 22.88733,-6.98423 8.25143,1.10675 36.16966,14.99466 44.48746,22.13027 l 6.22608,5.34119 -8.77252,-0.72749 c -11.87372,-0.98466 -33.68137,2.09508 -49.29271,6.96127 -7.07084,2.20404 -25.30052,9.55671 -40.5104,16.33926 -32.86238,14.65434 -80.27089,33.54407 -106.77278,42.54319 -18.50929,6.28512 -28.1377,7.66512 -34.65932,4.9676 z"
   id="path1055" /><path
   style="fill:#b79a99;stroke:none;stroke-width:1.58025;fill-opacity:1"
   d=""
   id="path1067" /><path
   style="fill:#a0a0a0;stroke:none;stroke-width:1.58025"
   d="m 474.90339,447.16049 c 1.73087,-4.10006 15.95963,-50.98311 17.23391,-56.78489 0.79269,-3.60911 2.37225,-5.44393 5.67883,-6.59663 2.55893,-0.89205 26.05457,-22.46119 53.23413,-48.86926 79.02821,-76.78504 89.54143,-85.20965 138.07853,-110.64715 32.47861,-17.0215 44.9047,-22.28773 97.83417,-41.46247 30.44114,-11.0279 40.38751,-15.32017 53.15167,-22.93711 7.77616,-4.64037 28.3864,-10.18397 37.86243,-10.18397 11.61107,0 21.51813,5.90514 26.7718,15.95743 l 2.14571,4.10558 -20.06457,1.02174 c -30.70091,1.56337 -51.92939,7.09829 -106.97815,27.8925 -84.48844,31.91479 -124.24849,54.83257 -189.62963,109.30287 -20.61209,17.17234 -54.60638,50.24571 -63.51655,61.79586 -10.54295,13.66669 -21.28366,37.47374 -24.92882,55.25529 -0.58255,2.84175 -5.01352,7.84127 -12.95497,14.61729 -12.27411,10.47285 -16.01412,12.497 -13.91849,7.53292 z"
   id="path1069" /><path
   style="fill:#a0a0a0;stroke:none;stroke-width:1.58025"
   d="m 474.80019,447.16049 c 1.96944,-5.11752 14.91979,-47.36142 16.76196,-54.67731 1.20674,-4.79243 2.87088,-7.57748 4.91551,-8.22641 4.06006,-1.28861 19.03851,-15.05741 69.94813,-64.29917 50.74039,-49.07808 60.9046,-57.90407 85.42606,-74.1789 21.68265,-14.39072 77.73935,-42.54962 101.1358,-50.80344 42.78124,-15.0924 68.65323,-25.31078 80.67155,-31.86197 21.13668,-11.52162 44.71482,-16.21941 56.56155,-11.26953 4.62553,1.93267 16.84098,14.14873 16.84098,16.84182 0,0.58024 -8.71111,1.53096 -19.35803,2.11272 -32.84181,1.79453 -54.1571,7.47973 -113.38271,30.24141 -51.33029,19.72734 -75.96636,31.35145 -108.24692,51.07449 -49.8041,30.42972 -125.78105,96.20694 -144.40081,125.01533 -7.06736,10.93458 -16.91803,33.52778 -18.46593,42.35292 -1.46806,8.36997 -4.01843,11.8273 -16.03834,21.74188 -11.00829,9.08014 -14.16104,10.59325 -12.3688,5.93616 z"
   id="path1071" /><path
   style="fill:#a0a0a0;stroke:none;stroke-width:1.58025"
   d="m 474.4639,447.95062 c 1.67144,-4.53541 7.64115,-23.82763 13.19752,-42.65019 4.28173,-14.50466 6.72677,-20.38049 8.74759,-21.02186 3.66981,-1.16476 22.1078,-18.16075 71.11717,-65.55524 22.04332,-21.31697 45.76765,-43.61832 52.72073,-49.55855 34.48251,-29.45943 87.84851,-57.71776 157.23457,-83.25874 23.90124,-8.79804 49.17518,-19.08251 56.16433,-22.85438 21.64648,-11.68209 44.57079,-16.22356 56.57494,-11.2079 4.59252,1.91887 16.84098,14.14143 16.84098,16.80535 0,0.56018 -10.48889,1.81572 -23.30864,2.7901 -30.80911,2.34168 -48.49268,6.89817 -97.48422,25.11859 -87.69942,32.61624 -130.46613,56.99691 -195.38843,111.38808 -21.76876,18.23761 -55.52434,51.01963 -64.24774,62.39473 -7.59203,9.89982 -18.09948,31.19795 -21.72212,44.02976 -4.03313,14.28583 -5.4931,16.51742 -17.28592,26.42186 -10.65645,8.95004 -14.61442,11.10286 -13.16076,7.15839 z"
   id="path1073" /><path
   style="fill:#b79a99;stroke:none;stroke-width:1.58025;fill-opacity:1"
   d="m 474.49166,447.95062 c 0.41565,-1.08642 4.88775,-15.65733 9.93799,-32.3798 6.35575,-21.04527 9.97288,-30.65543 11.75066,-31.21967 3.08452,-0.979 27.50963,-23.57223 79.13041,-73.19565 21.08012,-20.26448 43.42998,-41.01389 49.66635,-46.10982 31.99859,-26.14698 86.27528,-54.67401 146.97355,-77.24713 41.218,-15.32858 47.15776,-17.75866 66.28017,-27.11663 21.10285,-10.32712 40.49996,-13.64412 51.89404,-8.87411 5.1105,2.13945 16.9369,13.89729 16.9369,16.83872 0,0.86663 -1.95556,1.58177 -4.34568,1.58921 -12.37052,0.0385 -42.3385,3.6253 -54.88431,6.56903 -32.67719,7.66731 -105.07345,35.22207 -144.60091,55.03658 -44.53904,22.32673 -86.21472,52.07756 -135.71787,96.88425 -30.21168,27.34545 -43.18178,42.81979 -53.21454,63.48909 -4.64921,9.57821 -9.51424,21.59787 -10.81118,26.71033 -2.54766,10.04271 -6.10012,14.6084 -19.28753,24.7887 -8.35914,6.453 -10.99622,7.60391 -9.70805,4.2369 z"
   id="path1077" /><path
   style="fill:#a0a0a0;stroke:none;stroke-width:1.58025"
   d="m 238.06114,903.70101 -4.30794,-4.49652 39.9629,-18.26014 c 21.9796,-10.04307 64.80772,-29.78615 95.1736,-43.87351 51.07544,-23.69496 55.75719,-25.56087 62.50721,-24.91228 8.16149,0.78422 34.518,13.15251 42.84946,20.10791 l 5.20146,4.34238 -17.30416,0.90371 c -23.35254,1.21961 -36.2014,4.90844 -76.36598,21.9242 -81.4748,34.51689 -120.82338,48.76077 -134.70115,48.76077 -7.50705,0 -9.30136,-0.61989 -13.0154,-4.49652 z"
   id="path1079" /><path
   style="fill:#a0a0a0;stroke:none;stroke-width:1.58025"
   d="m 238.07161,903.71194 -4.29748,-4.4856 95.21163,-43.87978 c 88.79902,-40.92443 95.6979,-43.83306 102.43162,-43.18603 8.24462,0.7922 34.25079,12.93992 42.56163,19.88092 l 5.43581,4.53984 -17.28767,0.96291 c -22.24632,1.23911 -35.53133,4.87557 -68.16183,18.65773 -87.08754,36.78319 -128.97533,51.9956 -143.17132,51.9956 -7.19172,0 -9.05397,-0.65658 -12.72239,-4.48559 z"
   id="path1081" /><path
   style="fill:#b79a99;stroke:none;stroke-width:1.58025;fill-opacity:1"
   d="m 238.03523,903.67397 -4.33384,-4.52356 94.80322,-43.67397 c 69.86663,-32.18618 96.33861,-43.67397 100.64044,-43.67397 7.38086,0 32.02783,10.77256 42.55865,18.6013 l 7.90124,5.87387 -16.24119,1.17012 c -27.90127,2.01019 -31.75782,3.25795 -108.59832,35.13596 -61.23811,25.40522 -91.07297,35.61381 -104.08222,35.61381 -7.08641,0 -8.9541,-0.66798 -12.64798,-4.52356 z"
   id="path1083" /><path
   style="fill:#71637c;stroke:none;stroke-width:1.58025;fill-opacity:1"
   d="m 1367.6237,774.07755 c -17.3965,-0.77655 -23.1271,-1.59773 -26.4692,-3.79299 -2.3461,-1.54103 -4.265,-2.96325 -4.2642,-3.1605 7e-4,-0.19724 13.334,-0.44742 29.6296,-0.55595 94.6451,-0.63034 157.3774,-26.5397 191.7521,-79.19638 4.1737,-6.39361 8.0323,-13.02259 8.5746,-14.73106 1.488,-4.68831 3.6117,-2.23683 4.7734,5.51017 0.9244,6.16399 0.2495,8.43852 -6.2022,20.90144 -16.3325,31.5499 -39.3514,50.83635 -76.0317,63.70316 -28.6823,10.06127 -68.0346,13.72045 -121.7624,11.32211 z"
   id="path1085" /><path
   style="fill:#465990;stroke:#71637c;stroke-width:1.58025;fill-opacity:1;stroke-opacity:1"
   d="m 749.38643,517.45108 c 1.78855,-15.86799 16.27879,-36.53757 31.89253,-45.49307 10.03075,-5.75329 15.71121,-5.92847 20.61629,-0.6358 6.11156,6.59448 6.3866,11.22428 1.24948,21.03312 -4.4725,8.53984 -4.81212,8.79666 -18.181,13.74845 -12.26947,4.54457 -21.55179,9.1911 -32.61516,16.32647 l -3.79958,2.45055 z"
   id="path1092" /><path
   style="fill:#a0a0a0;stroke:none;stroke-width:1.58025"
   d="m 814.61728,990.83729 c -1.73827,-0.41069 -9.20493,-2.44264 -16.59259,-4.51545 -7.38765,-2.07281 -24.80988,-5.23281 -38.71605,-7.02224 -13.90617,-1.78942 -26.70617,-3.67285 -28.44444,-4.18542 -8.40425,-2.47816 -116.56175,-44.94953 -123.76892,-48.6017 -4.53672,-2.29893 -26.9002,-15.49781 -49.69662,-29.33085 l -41.44804,-25.151 -19.07284,-21.02766 c -20.5217,-22.62502 -29.48801,-29.32404 -50.52154,-37.74628 -17.60096,-7.04776 -20.78225,-6.55711 -51.11544,7.8837 -36.59548,17.42212 -138.53137,64.00118 -154.81286,70.74093 -15.58698,6.45225 -24.36731,6.97539 -42.10695,2.5088 -10.88118,-2.73972 -11.12325,-2.9141 -14.83075,-10.68371 -4.99947,-10.47712 -6.22442,-25.29604 -2.66066,-32.18758 5.198,-10.05182 14.5973,-17.30963 36.82829,-28.43747 23.56997,-11.7981 77.96035,-37.44737 127.73812,-60.2384 17.21519,-7.88208 33.63894,-16.11477 36.49721,-18.29488 8.07244,-6.15715 13.41582,-16.62581 14.33576,-28.08638 0.67393,-8.39555 0.0242,-12.01026 -4.3203,-24.03587 -5.339,-14.77841 -20.28618,-71.0669 -27.88722,-105.01842 -3.99775,-17.85675 -4.40791,-22.48382 -4.27245,-48.19753 0.12484,-23.69576 0.84057,-32.05294 4.28715,-50.05921 13.71882,-71.67238 50.14509,-135.2791 114.20887,-199.4289 36.34132,-36.39009 67.63623,-59.47937 133.9428,-98.82251 69.81036,-41.42213 103.95636,-58.7228 138.71708,-70.28344 50.73579,-16.87361 76.38417,-18.78541 137.984,-10.28515 l 25.28395,3.48898 24.67317,17.86405 24.67317,17.86406 5.74658,13.37673 c 3.48004,8.10072 5.74659,15.91656 5.74659,19.81619 0,3.54171 -1.84414,19.06283 -4.09807,34.49137 l -4.09807,28.0519 -7.35872,7.3879 c -7.4223,7.45171 -10.49659,8.52073 -22.5872,7.85417 -3.83441,-0.21141 -4.30311,-1.01747 -5.87648,-10.10627 -0.94037,-5.4321 -2.15799,-17.34321 -2.70584,-26.46913 -1.06197,-17.68998 -3.69397,-26.41365 -14.54159,-48.19753 -12.54726,-25.19708 -22.14297,-31.15205 -44.76862,-27.78281 -14.46256,2.15366 -75.20472,16.65506 -93.86665,22.40944 -39.5368,12.19113 -93.67926,37.12189 -130.37037,60.03109 -40.59126,25.3444 -87.70612,61.08724 -110.9311,84.15589 -18.59847,18.47329 -31.4499,35.40648 -48.44285,63.82875 -24.03617,40.20274 -33.8283,62.41452 -43.03242,97.61169 -7.49062,28.64465 -9.49033,45.73001 -10.44914,89.27681 -1.00618,45.69725 -0.32857,50.47835 10.52623,74.27161 3.42409,7.50546 7.19406,19.20186 8.5442,26.50867 3.85261,20.84959 6.33249,22.93777 34.30617,28.88739 8.5655,1.82177 9.69396,1.62389 39.50617,-6.92762 79.81939,-22.89583 127.61097,-35.19505 172.93876,-44.50596 25.41883,-5.22136 30.41723,-5.77873 47.37966,-5.28333 16.78816,0.49032 19.77851,1.01331 26.07407,4.56026 l 7.11111,4.00641 -0.28137,11.78449 c -0.47676,19.96662 5.01524,16.50061 -65.42042,41.28701 -34.26401,12.05756 -79.00932,27.30819 -99.43401,33.89026 -51.07195,16.45853 -57.34837,18.93631 -64.86593,25.60756 -9.35955,8.30587 -9.14016,14.24585 1.07855,29.20146 17.57508,25.72203 92.331,75.54968 134.10837,89.38829 7.82222,2.59109 21.87398,5.83009 31.22612,7.19778 9.35214,1.36768 22.15214,4.28638 28.44445,6.48598 10.67719,3.73243 15.13092,4.16467 66.74918,6.47817 31.60252,1.41639 68.855,2.13676 86.91358,1.68067 60.04193,-1.51643 81.04862,-8.2294 137.48148,-43.93396 13.037,-8.24841 29.037,-18.278 35.5556,-22.28797 6.5185,-4.00996 17.4401,-12.1506 24.2701,-18.09031 38.7854,-33.72928 60.8066,-45.76102 89.3144,-48.79873 l 10.0783,-1.07392 -1.0735,14.00573 c -0.5904,7.70316 -2.2635,19.94036 -3.718,27.19377 l -2.6444,13.18801 -28.4839,26.34812 c -60.2701,55.75111 -76.5468,68.13431 -114.4685,87.08651 -31.6926,15.83912 -57.94175,24.40761 -110.95697,36.21964 -29.57824,6.59017 -34.66009,8.50075 -45.10204,16.9566 -7.61077,6.16319 -14.37485,6.94952 -18.69701,2.17358 -1.57312,-1.73827 -3.79165,-3.16049 -4.93006,-3.16049 -1.13842,0 -2.83101,1.42222 -3.7613,3.16049 -1.56381,2.92202 -3.20755,3.14667 -21.78399,2.97719 -11.0509,-0.10082 -21.51477,-0.51933 -23.25305,-0.93002 z"
   id="path1094" /><path
   id="path1105"
   style="fill:#465990;stroke:none;stroke-width:1.58025;fill-opacity:1"
   d="M 1375.5371 18.775391 C 1374.2259 18.752027 1372.8064 18.820138 1371.1953 18.962891 C 1362.0253 19.775417 1323.1122 33.449165 1313.707 39.164062 C 1300.0412 47.467782 1244.6858 84.826045 1226.2715 98.171875 C 1202.3109 115.53737 1161.4353 155.14796 1103.8125 216.83984 C 1040.8606 284.23719 1035.125 289.25743 992.39453 314.40234 C 970.26047 327.42721 968.99815 327.94735 955.25977 329.69336 C 924.99735 333.53942 901.33676 338.17137 889.33203 342.59766 C 875.15891 347.82345 869.325 348.25025 859.50391 344.78516 C 849.48601 341.25064 845.86842 337.15746 844.59766 327.91797 C 843.95864 323.27179 842.19629 318.69043 840.33398 316.82812 C 836.83307 313.32721 832.97663 313.46646 813.92188 317.77734 C 804.25443 319.96447 803.18147 320.69313 792.54102 332.30664 C 782.2304 343.56013 781.05941 344.38453 777.83008 342.65625 C 775.26872 341.28545 774.35431 339.40592 774.44531 335.69727 L 774.57031 330.61719 L 776.1582 334.96289 C 777.03114 337.35302 778.33302 339.30859 779.05273 339.30859 C 779.77243 339.30859 784.76313 334.50924 790.14258 328.64258 L 799.92383 317.97461 L 773.29492 316.94727 C 758.64927 316.38175 739.20015 315.14319 730.07422 314.19531 C 670.87027 308.04597 623.85205 307.05011 613.97656 311.73633 C 602.14742 317.34964 598.19272 331.93592 606.41992 339.60938 C 612.68276 345.45068 615.91578 346.81308 633.28516 350.91797 L 648.84766 354.5957 L 691.43555 350.22461 C 714.85933 347.82101 737.0464 345.40516 740.74023 344.85547 C 746.95322 343.93092 747.45703 344.12372 747.45703 347.42383 C 747.45703 350.82686 747.69692 350.75756 752.66797 345.93945 C 758.40014 340.3836 760.09961 339.74303 760.09961 343.13672 C 760.09961 346.03508 746.75669 357.69819 736.04492 364.16406 C 718.82694 374.5572 700.15144 376.31247 664.0918 370.92383 C 644.12266 367.93971 642.28668 367.91157 624.69531 370.33008 L 606.24414 372.86719 L 580.06055 387.125 C 545.84484 405.75619 520.35687 421.67488 498.70508 437.9375 C 463.10044 464.68007 456.74564 477.03173 456.71094 519.55859 L 456.69141 542.57617 L 464.19727 553.53516 C 473.4725 567.07719 478.86352 569.95891 505.15625 575.43555 L 524.38867 579.44141 L 536.44727 576.35742 C 562.71845 569.63839 581.43451 555.93838 609.30859 523.02539 C 631.76568 496.50865 634.07277 492.99191 642.76562 472.04883 C 653.64861 445.82919 661.69439 434.51753 673.39648 428.98047 C 679.79052 425.95501 720.23748 420.65286 725.96289 422.08984 C 731.11299 423.38243 734.81445 430.47656 734.81445 439.05469 C 734.81445 445.1193 733.88108 446.68927 724.50391 456.40234 C 710.40498 471.0063 707.22514 478.93708 700.92578 515.20703 C 697.42501 535.36347 698.20629 536.71678 720.4707 549.0625 L 738.2168 558.9043 L 744.8125 555.56641 C 748.43972 553.73095 753.31131 550.8873 755.63867 549.24805 L 759.87109 546.26758 L 753.49023 535.76562 C 747.73229 526.28782 747.17463 524.45618 747.79102 517.02344 C 748.70652 505.98358 755.38959 492.86691 765.85547 481.5625 C 775.37095 471.28467 785.0631 465.72852 793.48047 465.72852 C 799.46759 465.72852 802.45385 467.53271 806.48438 473.58594 C 810.06808 478.96816 809.74646 484.42333 805.25977 494.37695 C 802.70979 500.03402 801.07782 507.35509 800.36328 516.33203 L 799.29102 529.80078 L 808.31055 531.69141 C 818.69971 533.87055 820.73402 533.16028 836.92773 521.69727 C 851.6748 511.25826 858.5629 502.48469 882.41211 463.76758 C 918.49879 405.18404 918.21357 405.48215 947.04102 396.02148 C 976.48311 386.35908 1037.3386 367.75391 1039.498 367.75391 C 1041.0937 367.75391 1041.4389 368.8905 1040.7168 371.76758 C 1037.99 382.63231 1032.7706 393.4011 1027.1133 399.82812 C 1023.6684 403.74176 1018.7159 411.69634 1016.1094 417.50586 C 1013.5028 423.31539 1000.4486 444.5416 987.09961 464.67578 C 963.35294 500.49266 935.1895 545.58785 920.8125 570.81445 C 910.99273 588.04472 907.64311 597.24153 906.31055 610.62695 L 905.17773 621.99609 L 914.35547 624.66406 C 921.79526 626.82687 927.57935 627.16316 944.92578 626.44336 C 964.34121 625.63769 970.26939 624.58518 1008.9883 615.0625 C 1044.8381 606.2454 1054.5865 604.42715 1070.002 603.68164 C 1103.3084 602.07094 1119.0647 607.81149 1153.5566 634.11914 C 1179.9025 654.21373 1194.6615 667.49684 1201.2012 677.00195 C 1207.4464 686.07895 1244.0988 727.78591 1249.7812 732.28125 C 1262.686 742.49006 1300.0822 757.17569 1325.5645 762.04102 C 1340.8504 764.95953 1398.1671 764.0208 1421.3164 760.47266 C 1469.813 753.03944 1507.2038 736.83149 1533.8887 711.67773 C 1564.2216 683.08522 1575.4051 653.48829 1570.1152 615.80469 C 1565.8313 585.28674 1566.2663 586.17473 1536.959 548.05078 C 1524.6438 532.03082 1523.9709 531.44809 1510.8008 525.36328 C 1496.6663 518.8329 1485.478 515.80374 1451.6719 509.35742 C 1434.6948 506.12013 1430.6078 504.77551 1426.877 501.20117 C 1422.7568 497.2538 1421.4461 496.93396 1410.0059 497.08203 C 1393.8948 497.29059 1376.3335 502.39872 1347.4609 515.27539 L 1325.0371 525.27734 L 1325.4961 532.1582 C 1326.0683 540.74391 1334.8228 557.26517 1339.2598 558.13281 C 1481.9125 586.02802 1485.1728 587.05235 1510.1465 611.77539 C 1522.7136 624.21634 1524.9699 627.27848 1527.1191 634.81445 C 1531.379 649.75112 1527.0568 659.72969 1511.7676 670.25977 C 1493.6005 682.7719 1468.4823 687.6709 1441.9746 683.87305 C 1435.0215 682.87686 1420.0879 681.43902 1408.7891 680.67578 C 1389.115 679.34677 1386.8419 678.80832 1355.0605 667.97656 C 1323.7726 657.31296 1280.8542 640.87181 1269.9219 635.36133 C 1251.905 626.27981 1247.2912 610.96258 1255.7148 588.19727 C 1267.3444 556.76736 1272.0765 541.37985 1273.0254 531.90625 L 1274.0742 521.44141 L 1261.6289 518.72656 C 1254.7845 517.23329 1243.1396 514.39111 1235.752 512.41016 C 1228.3643 510.42921 1217.3854 507.64443 1211.3535 506.2207 C 1198.0554 503.08185 1178.6982 493.7646 1172.4102 487.47656 C 1168.8654 483.93176 1167.8027 481.41836 1167.8027 476.58984 C 1167.8027 468.56708 1170.5209 463.49888 1179.5273 454.73242 L 1186.7656 447.6875 L 1186.7383 431.0293 C 1186.701 408.37706 1183.7265 395.99327 1172.709 372.61523 C 1162.0008 349.89376 1159.9093 343.26782 1159.9453 332.19727 C 1159.9786 322.01884 1164.2408 312.78304 1172.6914 304.58203 C 1180.9572 296.5604 1190.752 290.74719 1218.4004 277.45312 C 1238.7959 267.64646 1240.266 266.61347 1250.7969 254.69336 C 1272.882 229.69464 1281.2422 221.58445 1305.332 201.78516 C 1332.9588 179.07895 1339.0267 172.90074 1377.9746 127.83594 C 1404.6885 96.926542 1405.7188 95.478305 1408.2656 85.228516 C 1411.5923 71.840193 1411.9103 51.816928 1408.9102 44.636719 C 1405.6664 36.873148 1395.1433 26.081423 1386.709 21.869141 C 1382.435 19.734653 1379.4707 18.845483 1375.5371 18.775391 z M 1316.7461 101.99023 C 1317.8776 101.96847 1318.9252 102.26348 1320.2812 102.67969 C 1329.3045 105.44901 1331.2762 108.88859 1331.916 122.97656 C 1332.2277 129.84107 1331.8748 135.44941 1331.1309 135.44141 C 1330.387 135.43298 1326.656 132.9437 1322.8398 129.91016 C 1319.0237 126.87662 1314.2117 124.39453 1312.1484 124.39453 C 1307.385 124.39453 1302.6038 131.93364 1301.1543 141.72656 C 1299.6772 151.70576 1296.3955 160.48531 1291.502 167.55664 C 1287.313 173.60989 1261.3303 192.15268 1247.0254 199.29688 C 1242.9985 201.30801 1237.0398 203.36667 1233.7832 203.87109 C 1227.0033 204.92122 1227.0023 204.92023 1224.998 187.60547 C 1223.5431 175.03664 1224.8006 166.57834 1228.7871 162.12109 C 1230.4454 160.26702 1241.0469 152.554 1252.3457 144.98047 C 1263.6444 137.40694 1282.3083 124.40812 1293.8203 116.0957 C 1309.2153 104.97956 1313.3517 102.05554 1316.7461 101.99023 z M 1099.1816 400.9375 L 1108.6035 400.96094 C 1120.942 400.99146 1125.7798 403.45996 1126.4199 410.04883 C 1127.032 416.34885 1122.0835 434.72259 1115.1309 451.96484 C 1110.3872 463.7291 1109.9897 465.91608 1111.0508 474.44922 C 1111.6973 479.64816 1112.2883 489.28327 1112.3613 495.86133 C 1112.7014 526.36634 1098.1417 545.13646 1065.6797 556.04492 C 1048.7867 561.72161 1037.7241 561.88769 1025 556.65625 C 1009.4115 550.24715 1003.457 542.56236 1003.457 528.85156 C 1003.457 519.4466 1007.6491 510.04328 1018.8242 494.38281 C 1028.3112 481.08792 1075.5184 425.24268 1088.7969 411.60547 L 1099.1816 400.9375 z M 573.48242 462.56836 C 575.17498 462.56836 578.01928 464.42074 579.80078 466.68555 L 583.03906 470.80273 L 570.375 486.29297 C 563.40969 494.81167 556.61223 502.20154 555.26953 502.7168 C 553.92682 503.23204 550.06629 503.6543 546.69141 503.6543 C 539.16335 503.6543 536.71481 500.02906 536.69141 488.84375 C 536.67928 483.05267 537.43775 480.57125 539.74609 478.83594 C 545.34336 474.62809 570.35285 462.56836 573.48242 462.56836 z " /><path
   style="fill:#465990;stroke:none;stroke-width:1.58025;fill-opacity:1"
   d="m 805.92593,987.82786 c -10.81891,-3.39279 -28.51567,-6.811 -52.63351,-10.1664 -19.95582,-2.77637 -24.6781,-4.13453 -55.30864,-15.90713 -83.63348,-32.14385 -87.75141,-34.04982 -135.76296,-62.83721 l -44.68996,-26.79579 -20.07582,-21.26639 c -22.03676,-23.34366 -31.11926,-30.23082 -49.65527,-37.65299 -19.65298,-7.86944 -20.5352,-7.64214 -83.55286,21.52741 -89.33592,41.35171 -129.13462,58.81893 -138.28166,60.69039 -8.67264,1.77438 -16.64845,0.99996 -31.84491,-3.09201 -8.20893,-2.21045 -12.61727,-10.74433 -13.63989,-26.40482 -1.56176,-23.91703 3.39421,-27.21698 126.87757,-84.48181 78.56079,-36.43219 81.58864,-38.29925 87.00448,-53.64937 3.71827,-10.5387 2.81335,-21.50272 -3.39186,-41.09497 -3.11923,-9.84865 -11.09303,-38.88442 -17.71956,-64.52393 l -12.04824,-46.61728 0.0412,-34.76544 c 0.0374,-31.6162 0.42689,-36.5914 4.29851,-54.92296 11.5481,-54.67865 34.25149,-101.4211 73.48794,-151.29926 6.49518,-8.25679 25.03709,-28.21216 41.20425,-44.34528 40.6244,-40.53886 69.43462,-61.62194 143.96275,-105.35071 67.09534,-39.36765 99.42319,-55.05342 137.65864,-66.79322 28.6995,-8.81188 44.01963,-11.28466 70.14383,-11.32172 21.1367,-0.03 70.57394,4.95448 80.0012,8.06603 3.92235,1.29461 40.77219,27.04874 48.38032,33.81273 5.29544,4.70788 13.04816,26.16434 13.06286,36.1528 0.006,4.591 -1.53428,19.67673 -3.42451,33.52385 -3.36885,24.67875 -3.54874,25.30064 -9.0987,31.45145 -8.56606,9.49343 -22.33442,13.77806 -26.83784,8.35176 -0.99539,-1.19938 -2.56603,-10.26605 -3.49029,-20.14815 -2.69173,-28.77981 -5.28354,-39.58047 -13.75236,-57.30918 -8.40373,-17.59242 -17.07606,-28.63691 -25.1356,-32.01095 -10.45496,-4.37684 -25.41085,-2.17306 -82.64851,12.17842 -82.07803,20.57984 -146.31509,51.95504 -222.02194,108.44179 -46.46852,34.67129 -68.82635,57.06461 -91.22963,91.37446 -25.7686,39.46369 -40.45021,69.51424 -50.95538,104.29629 -9.86207,32.65275 -12.10031,49.67786 -13.0279,99.09618 -0.92013,49.02106 -0.86119,49.4799 9.80304,76.31123 3.79985,9.56049 7.75883,21.64938 8.7977,26.8642 2.32293,11.66031 5.14616,17.36433 10.24967,20.70828 4.78748,3.13687 24.7746,8.52628 31.62053,8.52628 2.75012,0 21.64265,-4.66931 41.9834,-10.37623 127.67694,-35.82186 175.52773,-46.51265 208.18536,-46.51265 17.73101,0 20.96789,0.42344 27.17905,3.55555 l 7.05089,3.55556 0.47094,10.82823 c 0.58436,13.43598 -1.63682,17.30628 -12.8884,22.45744 -10.55382,4.83168 -103.46507,37.36772 -157.25686,55.06881 -46.70162,15.36796 -54.35819,18.73292 -61.73097,27.13007 -6.18515,7.04451 -5.85524,11.20948 1.91047,24.11896 10.96431,18.22671 50.62082,48.76321 96.21091,74.08478 24.19423,13.43789 39.82825,19.13192 68.49378,24.94595 13.90618,2.82048 29.19507,6.30044 33.97531,7.73325 13.97125,4.18764 53.09812,6.21465 122.46914,6.34461 61.49347,0.1152 65.60148,-0.0583 80.73614,-3.40982 28.36883,-6.28224 45.32267,-14.36042 94.67132,-45.10903 30.9524,-19.28616 39.823,-25.53547 60.0494,-42.3044 34.2992,-28.43632 52.0144,-37.2675 83.4002,-41.57593 l 5.968,-0.81927 -0.9321,8.20379 c -0.5126,4.51208 -2.0206,16.02601 -3.3511,25.58651 l -2.4191,17.38271 -15.2589,14.8444 c -23.8241,23.17696 -64.6772,59.24262 -80.8172,71.34638 -24.8316,18.6219 -56.9323,35.44674 -89.1599,46.73108 -8.77169,3.07135 -33.37071,9.82058 -54.66454,14.99831 -43.72741,10.63256 -47.49852,11.89137 -58.69306,19.59185 -8.53641,5.87203 -15.50957,7.04593 -18.73904,3.15465 -1.08198,-1.3037 -3.58185,-2.37037 -5.55529,-2.37037 -1.97343,0 -3.99736,1.06667 -4.49765,2.37037 -1.24672,3.24892 -42.67566,3.11478 -53.15693,-0.17214 z"
   id="path1108" /></svg>
