<?xml version="1.0" encoding="UTF-8" standalone="no"?>
<svg
   xmlns:dc="http://purl.org/dc/elements/1.1/"
   xmlns:cc="http://creativecommons.org/ns#"
   xmlns:rdf="http://www.w3.org/1999/02/22-rdf-syntax-ns#"
   xmlns:svg="http://www.w3.org/2000/svg"
   xmlns="http://www.w3.org/2000/svg"
   xmlns:sodipodi="http://sodipodi.sourceforge.net/DTD/sodipodi-0.dtd"
   xmlns:inkscape="http://www.inkscape.org/namespaces/inkscape"
   version="1.1"
   id="Laag_1"
   x="0px"
   y="0px"
   width="480px"
   height="166.4px"
   viewBox="0 0 480 166.4"
   style="enable-background:new 0 0 480 166.4;"
   xml:space="preserve"
   sodipodi:docname="8_logo_Goldmund_blue.svg"
   inkscape:version="1.0.1 (3bc2e813f5, 2020-09-07)"><metadata
   id="metadata43"><rdf:RDF><cc:Work
       rdf:about=""><dc:format>image/svg+xml</dc:format><dc:type
         rdf:resource="http://purl.org/dc/dcmitype/StillImage" /><dc:title></dc:title></cc:Work></rdf:RDF></metadata><defs
   id="defs41" /><sodipodi:namedview
   pagecolor="#ffffff"
   bordercolor="#666666"
   borderopacity="1"
   objecttolerance="10"
   gridtolerance="10"
   guidetolerance="10"
   inkscape:pageopacity="0"
   inkscape:pageshadow="2"
   inkscape:window-width="1920"
   inkscape:window-height="1001"
   id="namedview39"
   showgrid="false"
   inkscape:zoom="2.53125"
   inkscape:cx="240"
   inkscape:cy="82.409873"
   inkscape:window-x="-9"
   inkscape:window-y="-9"
   inkscape:window-maximized="1"
   inkscape:current-layer="Laag_1" />
<style
   type="text/css"
   id="style2">
	.st0{fill:#904338;}
</style>
<g
   id="g36">
	<path
   class="st0"
   d="M27.3,139.1L27.3,139.1C12.2,139.1,0,126.9,0,111.8V35.4c0-15.1,12.2-24.5,27.3-24.5l0,0V139.1z"
   id="path4" />
	<path
   class="st0"
   d="M87.3,166.4L87.3,166.4c-15.1,0-27.3-12.2-27.3-27.3V54.5c0-15.1,12.2-27.3,27.3-27.3l0,0V166.4z"
   id="path6" />
	<path
   class="st0"
   d="M90,166.4L90,166.4V27.3l0,0c15.1,0,27.3,12.2,27.3,27.3v84.5C117.3,154.2,105.1,166.4,90,166.4z"
   id="path8" />
	<path
   class="st0"
   d="M177.3,163.6L177.3,163.6c-15.1,0-27.3-12.2-27.3-27.3V60c0-15.1,12.2-27.3,27.3-27.3l0,0V163.6z"
   id="path10" />
	<path
   class="st0"
   d="M267.3,136.4H240V0l0,0c15.1,0,27.3,12.2,27.3,27.3V136.4z"
   id="path12" />
	<path
   class="st0"
   d="M297.3,136.4H270V2.7l0,0c15.1,0,27.3,12.2,27.3,27.3V136.4z"
   id="path14" />
	<path
   class="st0"
   d="M327.3,166.4L327.3,166.4c-15.1,0-27.3-12.2-27.3-27.3V32.7h27.3V166.4z"
   id="path16" />
	<path
   class="st0"
   d="M330,166.4L330,166.4V32.8h27.3v106.4C357.3,154.2,345.1,166.4,330,166.4z"
   id="path18" />
	<path
   class="st0"
   d="M417.3,163.6H390V27.3l0,0c15.1,0,27.3,12.2,27.3,27.3V163.6z"
   id="path20" />
	<path
   class="st0"
   d="M447.3,163.6L447.3,163.6c-15.1,0-27.3-12.2-27.3-27.3V60c0-15.1,12.2-27.3,27.3-27.3l0,0V163.6z"
   id="path22" />
	<path
   class="st0"
   d="M30,10.9v152.7h-2.7v2.7H30c15.1,0,27.3-12.2,27.3-27.3V10.9H30z"
   id="path24" />
	<polygon
   class="st0"
   points="147.3,160.9 147.3,2.7 120,2.7 120,163.6 147.3,163.6 150,163.6 150,160.9  "
   id="polygon26" />
	<polygon
   class="st0"
   points="360,27.3 357.3,27.3 357.3,30 360,30 360,163.6 387.3,163.6 387.3,27.3  "
   id="polygon28" />
	<polygon
   class="st0"
   points="210,0 207.3,0 207.3,2.7 210,2.7 210,136.4 237.3,136.4 237.3,0  "
   id="polygon30" />
	<polygon
   class="st0"
   points="207.3,160.9 207.3,5.5 180,5.5 177.3,5.5 177.3,8.2 180,8.2 180,163.6 207.3,163.6 207.3,163.6    210,163.6 210,160.9  "
   id="polygon32" />
	<polygon
   class="st0"
   points="477.3,160.9 477.3,5.5 450,5.5 447.3,5.5 447.3,8.2 450,8.2 450,163.6 477.3,163.6 480,163.6    480,160.9  "
   id="polygon34" />
</g>
<path
   id="path870"
   style="fill:#465990;stroke:#465990;stroke-width:0.395062;fill-opacity:1;stroke-opacity:1"
   d="M 207.4082 0.23632812 L 207.4082 1.421875 C 207.4082 2.5129982 207.51805 2.6074219 208.79102 2.6074219 L 210.17188 2.6074219 L 210.17188 69.373047 L 210.17188 136.13867 L 223.60547 136.13867 L 237.03711 136.13867 L 237.03711 68.1875 L 237.03711 0.23632812 L 222.22266 0.23632812 L 207.4082 0.23632812 z M 240.19727 0.23632812 L 240.19727 68.1875 L 240.19727 136.13867 L 253.63672 136.13867 L 267.07812 136.13867 L 266.9707 79.150391 L 266.86328 22.162109 L 265.93945 19.398438 C 264.40399 14.80214 262.49315 11.783626 258.80469 8.1328125 C 256.30425 5.6578965 254.62574 4.3795548 252.44531 3.2910156 C 249.23319 1.6874198 244.1372 0.23632812 241.71484 0.23632812 L 240.19727 0.23632812 z M 120.09961 3.0019531 L 120.09961 83.199219 L 120.09961 163.39844 L 134.91406 163.39844 L 149.72852 163.39844 L 149.72852 162.21289 C 149.72852 161.12181 149.61868 161.02734 148.3457 161.02734 L 146.96289 161.02734 L 146.96289 82.015625 L 146.96289 3.0019531 L 133.53125 3.0019531 L 120.09961 3.0019531 z M 270.22266 3.0019531 L 270.22266 69.570312 L 270.22266 136.13867 L 283.66211 136.13867 L 297.10156 136.13867 L 296.99609 80.533203 L 296.88867 24.927734 L 295.96484 22.162109 C 294.23828 16.993756 291.06608 12.309966 287.01172 8.9414062 C 283.20965 5.7824667 276.18081 3.0226995 271.90039 3.0078125 L 270.22266 3.0019531 z M 177.38281 5.7675781 L 177.38281 6.953125 C 177.38281 8.0442482 177.49266 8.1386719 178.76562 8.1386719 L 180.14844 8.1386719 L 180.14844 85.767578 L 180.14844 163.39844 L 194.96289 163.39844 L 209.77734 163.39844 L 209.77734 162.21289 C 209.77734 161.12181 209.66751 161.02734 208.39453 161.02734 L 207.01172 161.02734 L 207.01172 83.398438 L 207.01172 5.7675781 L 192.19727 5.7675781 L 177.38281 5.7675781 z M 447.60547 5.7675781 L 447.60547 6.953125 C 447.60547 8.0442482 447.71531 8.1386719 448.98828 8.1386719 L 450.37109 8.1386719 L 450.37109 85.767578 L 450.37109 163.39844 L 465.18555 163.39844 L 480 163.39844 L 480 162.21289 C 480 161.12181 479.89017 161.02734 478.61719 161.02734 L 477.23438 161.02734 L 477.23438 83.398438 L 477.23438 5.7675781 L 462.41992 5.7675781 L 447.60547 5.7675781 z M 30.025391 10.904297 L 30.025391 87.347656 L 30.025391 163.79297 L 28.839844 163.79297 C 27.773962 163.79297 27.654297 163.91864 27.654297 165.03711 L 27.654297 166.2793 L 31.111328 166.04297 C 37.315687 165.6167 42.002119 163.8641 46.751953 160.19727 C 51.085864 156.85154 54.602022 151.45487 56.376953 145.42188 C 57.029054 143.20538 57.080706 138.76335 57.189453 76.978516 L 57.306641 10.904297 L 43.666016 10.904297 L 30.025391 10.904297 z M 27.259766 11.072266 L 24.197266 11.34375 C 19.830048 11.730909 17.686771 12.330094 13.476562 14.339844 C 7.0802247 17.393151 2.7619851 22.58578 0.89453125 29.470703 C 0.24985026 31.847511 0.19726564 35.141328 0.19726562 73.71875 C 0.19726562 112.4254 0.24851484 115.58007 0.90039062 117.96484 C 3.8618346 128.79875 11.860577 136.37761 22.548828 138.47461 C 23.510269 138.66324 24.962529 138.83753 25.777344 138.86133 L 27.259766 138.9043 L 27.259766 74.988281 L 27.259766 11.072266 z M 86.914062 27.382812 L 84.328125 27.623047 C 80.706344 27.961254 75.663329 29.802182 72.386719 31.980469 C 65.85308 36.324023 61.559474 43.166905 60.474609 50.966797 C 59.914217 54.995844 59.899933 138.74958 60.458984 142.61719 C 61.363415 148.87421 63.825244 153.72875 68.423828 158.32617 C 70.837852 160.73959 72.223617 161.74176 75.140625 163.18359 C 77.161796 164.18262 79.970467 165.24831 81.382812 165.55078 C 82.795159 165.85324 84.616826 166.11356 85.431641 166.13086 L 86.914062 166.16211 L 86.914062 96.773438 L 86.914062 27.382812 z M 90.074219 27.386719 L 90.074219 96.775391 L 90.074219 166.16211 L 91.478516 166.16211 C 93.789836 166.16211 98.38844 164.97099 101.33398 163.60938 C 108.59127 160.25467 113.93839 153.89218 116.12109 146.01562 C 116.92568 143.1123 116.9375 142.36121 116.9375 97 C 116.9375 52.766616 116.90858 50.812509 116.17578 47.947266 C 113.35553 36.920182 103.9595 28.809596 92.664062 27.652344 L 90.074219 27.386719 z M 357.53125 27.496094 L 357.53125 28.681641 C 357.53125 29.772767 357.64108 29.867188 358.91406 29.867188 L 360.29688 29.867188 L 360.29688 96.632812 L 360.29688 163.39844 L 373.72852 163.39844 L 387.16016 163.39844 L 387.16016 95.447266 L 387.16016 27.496094 L 372.3457 27.496094 L 357.53125 27.496094 z M 390.32031 27.496094 L 390.32031 95.447266 L 390.32031 163.39844 L 403.76172 163.39844 L 417.20312 163.39844 L 417.0957 106.60742 L 416.98828 49.816406 L 415.91211 46.65625 C 413.43242 39.374851 408.54914 33.649214 402.15625 30.527344 C 398.67924 28.829395 393.9147 27.496094 391.32617 27.496094 L 390.32031 27.496094 z M 447.20898 32.912109 L 444.49609 33.140625 C 434.49948 33.978705 425.65578 40.897396 421.80273 50.894531 L 420.54297 54.162109 L 420.43164 96.830078 C 420.30774 144.10658 420.22322 142.33599 422.87305 147.83203 C 426.74984 155.87295 433.71331 161.24398 442.49609 162.9668 C 443.45894 163.15568 444.9137 163.32972 445.72852 163.35352 L 447.20898 163.39844 L 447.20898 98.154297 L 447.20898 32.912109 z M 176.98828 33.027344 L 175.30859 33.033203 C 172.6279 33.042526 168.75556 34.119563 165.17188 35.851562 C 160.63613 38.043682 155.73613 42.866265 153.39062 47.447266 C 150.11192 53.850848 150.32031 50.371275 150.32031 98.410156 L 150.32031 141.07617 L 151.35547 144.10547 C 153.90068 151.56088 158.65891 157.17698 165.15234 160.38867 C 167.29367 161.44779 170.06926 162.468 171.6543 162.7793 C 173.17529 163.07803 174.99696 163.34093 175.70312 163.36133 L 176.98828 163.39844 L 176.98828 98.212891 L 176.98828 33.027344 z M 300.24609 33.027344 L 300.24609 87.679688 C 300.24609 140.95787 300.26769 142.41071 301.03516 145.45703 C 303.58301 155.57018 311.60685 163.37185 321.72461 165.57227 C 323.05758 165.86216 324.81409 166.11356 325.62891 166.13086 L 327.11133 166.16211 L 327.11133 99.595703 L 327.11133 33.027344 L 313.67969 33.027344 L 300.24609 33.027344 z M 330.27148 33.027344 L 330.27148 99.650391 L 330.27148 166.27148 L 332.92773 166 C 342.47801 165.02154 351.2566 158.39015 355.11328 149.24023 C 357.16602 144.37021 357.13672 145.29306 357.13672 87.115234 L 357.13672 33.027344 L 343.70312 33.027344 L 330.27148 33.027344 z " /></svg>
