<?xml version="1.0" encoding="utf-8"?>
<!-- Generator: Adobe Illustrator 23.0.1, SVG Export Plug-In . SVG Version: 6.00 Build 0)  -->
<svg version="1.1" id="Laag_1" xmlns="http://www.w3.org/2000/svg" xmlns:xlink="http://www.w3.org/1999/xlink" x="0px" y="0px"
	 width="480px" height="166.4px" viewBox="0 0 480 166.4" style="enable-background:new 0 0 480 166.4;" xml:space="preserve">
<style type="text/css">
	.st0{fill:#904338;}
</style>
<g>
	<path class="st0" d="M27.3,139.1L27.3,139.1C12.2,139.1,0,126.9,0,111.8V35.4c0-15.1,12.2-24.5,27.3-24.5l0,0V139.1z"/>
	<path class="st0" d="M87.3,166.4L87.3,166.4c-15.1,0-27.3-12.2-27.3-27.3V54.5c0-15.1,12.2-27.3,27.3-27.3l0,0V166.4z"/>
	<path class="st0" d="M90,166.4L90,166.4V27.3l0,0c15.1,0,27.3,12.2,27.3,27.3v84.5C117.3,154.2,105.1,166.4,90,166.4z"/>
	<path class="st0" d="M177.3,163.6L177.3,163.6c-15.1,0-27.3-12.2-27.3-27.3V60c0-15.1,12.2-27.3,27.3-27.3l0,0V163.6z"/>
	<path class="st0" d="M267.3,136.4H240V0l0,0c15.1,0,27.3,12.2,27.3,27.3V136.4z"/>
	<path class="st0" d="M297.3,136.4H270V2.7l0,0c15.1,0,27.3,12.2,27.3,27.3V136.4z"/>
	<path class="st0" d="M327.3,166.4L327.3,166.4c-15.1,0-27.3-12.2-27.3-27.3V32.7h27.3V166.4z"/>
	<path class="st0" d="M330,166.4L330,166.4V32.8h27.3v106.4C357.3,154.2,345.1,166.4,330,166.4z"/>
	<path class="st0" d="M417.3,163.6H390V27.3l0,0c15.1,0,27.3,12.2,27.3,27.3V163.6z"/>
	<path class="st0" d="M447.3,163.6L447.3,163.6c-15.1,0-27.3-12.2-27.3-27.3V60c0-15.1,12.2-27.3,27.3-27.3l0,0V163.6z"/>
	<path class="st0" d="M30,10.9v152.7h-2.7v2.7H30c15.1,0,27.3-12.2,27.3-27.3V10.9H30z"/>
	<polygon class="st0" points="147.3,160.9 147.3,2.7 120,2.7 120,163.6 147.3,163.6 150,163.6 150,160.9 	"/>
	<polygon class="st0" points="360,27.3 357.3,27.3 357.3,30 360,30 360,163.6 387.3,163.6 387.3,27.3 	"/>
	<polygon class="st0" points="210,0 207.3,0 207.3,2.7 210,2.7 210,136.4 237.3,136.4 237.3,0 	"/>
	<polygon class="st0" points="207.3,160.9 207.3,5.5 180,5.5 177.3,5.5 177.3,8.2 180,8.2 180,163.6 207.3,163.6 207.3,163.6 
		210,163.6 210,160.9 	"/>
	<polygon class="st0" points="477.3,160.9 477.3,5.5 450,5.5 447.3,5.5 447.3,8.2 450,8.2 450,163.6 477.3,163.6 480,163.6 
		480,160.9 	"/>
</g>
</svg>
