<?xml version="1.0" encoding="utf-8"?>
<!-- Generator: Adobe Illustrator 25.4.1, SVG Export Plug-In . SVG Version: 6.00 Build 0)  -->
<svg version="1.1" id="Layer_1" xmlns="http://www.w3.org/2000/svg" xmlns:xlink="http://www.w3.org/1999/xlink" x="0px" y="0px"
	 viewBox="0 0 142.7 370.8" style="enable-background:new 0 0 142.7 370.8;" xml:space="preserve">
<style type="text/css">
	.st0{fill:#FD8612;}
	.st1{fill:#FFFFFF;}
</style>
<g id="Layer_1-2">
	<g id="XMLID_00000021834759640086433900000014983981218492685986_">
		<g>
			<path class="st0" d="M98.5,166.4c-7.6,6.8-17.1,10.1-26.7,9.9l0.3-36.7L98.5,166.4z"/>
			<path class="st0" d="M70,141.1v35.1c-8.8-0.6-17.5-4.2-24.4-10.7L70,141.1z"/>
			<path class="st0" d="M69.5,139l-25.2,25.2c-6.8-7.1-10.3-16.3-10.6-25.5L69.5,139z"/>
			<path class="st0" d="M44,111.1l25.7,26.1l-36-0.3C33.8,127.6,37.3,118.4,44,111.1z"/>
			<path class="st1" d="M142.4,95.9c0-0.1,0-0.2,0-0.4C142.4,95.7,142.4,95.8,142.4,95.9z"/>
			<path class="st1" d="M141.3,94.9c0.5,0,0.9,0.4,0.9,0.9s-0.4,0.9-0.9,0.9h0c-0.1,0-0.3-0.1-0.4-0.2l-0.4-0.4
				c0-0.4-0.1-0.8-0.1-1.2H141.3z"/>
			<path class="st1" d="M142.4,95.5c0,0.1,0,0.2,0,0.4c0,0.2-0.1,0.4-0.3,0.6c-0.2,0.2-0.5,0.3-0.8,0.2c0.5,0,0.9-0.4,0.9-0.9
				s-0.4-0.9-0.9-0.9h-0.9c0-0.5-0.1-1.1-0.1-1.6l1.9,1.9C142.3,95.3,142.3,95.4,142.4,95.5z"/>
			<path class="st1" d="M142.4,95.9c0.6,10.7,0.5,21.5-0.8,33.3l-0.1,0c0.1-0.3,0-0.6-0.2-0.8l-1.4-1.4c1.1-10.7,1.2-20.6,0.7-30.3
				h0.7h0c0.3,0.1,0.6,0,0.8-0.2C142.3,96.3,142.4,96.1,142.4,95.9z"/>
			<path class="st1" d="M141.3,96.7h-0.7c0-0.2,0-0.4,0-0.6l0.4,0.4C141,96.6,141.2,96.7,141.3,96.7z"/>
			<path class="st1" d="M141.3,128.4c0.2,0.2,0.3,0.5,0.2,0.8c0,0.2-0.1,0.3-0.2,0.5c-0.2,0.2-0.4,0.3-0.7,0.3
				c-0.2,0-0.5-0.1-0.6-0.3l-0.4-0.4c0.1-0.8,0.2-1.6,0.2-2.3L141.3,128.4z"/>
			<path class="st1" d="M140.4,94.9c0,0.4,0.1,0.8,0.1,1.2l-1.2-1.2H140.4z"/>
			<path class="st1" d="M130.6,118.1l9.2,8.9c-0.1,0.8-0.1,1.5-0.2,2.3l-5.6-5.4C133.1,121.6,131.9,119.6,130.6,118.1z"/>
			<path class="st1" d="M139.1,68.2c1.6,9.2,2.8,18.2,3.3,27.3c0-0.1-0.1-0.2-0.2-0.4l-1.9-1.9c-0.6-8.1-1.6-16.1-3-24.2
				c0.2,0.1,0.3,0.2,0.3,0.2c0.4,0.2,0.8,0.1,1.1-0.2c0.2-0.2,0.2-0.5,0.2-0.8L139.1,68.2z"/>
			<path class="st1" d="M138.9,68.3c0.1,0.3,0,0.6-0.2,0.8c-0.3,0.3-0.7,0.4-1.1,0.2c0,0-0.1-0.1-0.3-0.2h0
				c-0.1-0.8-0.3-1.6-0.4-2.3c1.1,0.6,1.6,1,1.7,1C138.8,67.9,138.9,68.1,138.9,68.3z"/>
			<path class="st1" d="M137.3,148.7c-0.9,3-2,6-3.4,8.8c1.5-3.7,2.5-8.3,2.8-13.4c1.2-4.2,2.1-8.5,2.6-12.8c0.1-0.7,0.2-1.3,0.2-2
				l0.4,0.4c0.1,0.2,0.4,0.3,0.6,0.3c0.3,0,0.5-0.1,0.7-0.3c0.1-0.1,0.2-0.3,0.2-0.5l0.1,0c-0.1,0.8-0.2,1.5-0.3,2.3
				C140.6,137.4,139.2,143.1,137.3,148.7z"/>
			<path class="st1" d="M136.9,66.8c-1.5-8.2-3.2-16.6-5.2-25.5c0.8-0.7,1.3-1.4,1.4-2.2c2.3,10.2,4.4,19.8,6,29.2l-0.2,0
				c0-0.2-0.1-0.3-0.3-0.5C138.5,67.7,137.9,67.3,136.9,66.8z"/>
			<path class="st1" d="M133.9,157.5c-0.5,1.2-1.1,2.4-1.7,3.4C132.9,159.8,133.4,158.7,133.9,157.5z"/>
			<path class="st1" d="M133.1,38.8c0,0.1,0,0.2,0,0.2c-0.1-0.5-0.2-1-0.3-1.4C133,38,133.1,38.4,133.1,38.8z"/>
			<path class="st1" d="M132.8,37.6c-0.2-0.3-0.5-0.7-0.8-1c0.4,0,0.7,0.3,0.8,0.7C132.7,37.4,132.7,37.5,132.8,37.6z"/>
			<path class="st1" d="M131.9,36.6c0.4,0.3,0.6,0.7,0.8,1c0.1,0.5,0.2,1,0.3,1.4c-0.1,0.8-0.6,1.5-1.4,2.2c-0.2-0.7-0.3-1.3-0.4-2
				c0-0.1,0.1-0.2,0.1-0.3c0-0.2-0.1-0.5-0.3-0.8c0-0.1-0.1-0.3-0.1-0.4c-0.1-0.5,0.2-1,0.7-1.1C131.7,36.6,131.8,36.6,131.9,36.6z"
				/>
			<path class="st1" d="M132.1,157c1.8-4.3,3-10.2,3-16.5c0-8.7-2.1-16.4-5.2-20.6l4.2,4c1.8,4.4,2.8,10.2,2.8,16.7
				c0,1.2,0,2.4-0.1,3.5c-0.4,1.4-0.8,2.7-1.3,4.1C134.6,151.2,133.5,154.1,132.1,157z"/>
			<path class="st1" d="M132.1,157c-0.4,1-0.9,2-1.4,2.8C131.2,158.9,131.7,157.9,132.1,157z"/>
			<path class="st1" d="M131,38.1c0.2,0.3,0.3,0.5,0.3,0.8c0,0.1,0,0.2-0.1,0.3C131.2,38.9,131.1,38.5,131,38.1z"/>
			<path class="st1" d="M130.6,118.1l-1.4-1.3C129.7,117.1,130.2,117.6,130.6,118.1z"/>
			<path class="st1" d="M132.1,157c1.3-2.8,2.5-5.8,3.4-8.8c0.5-1.3,0.9-2.7,1.3-4.1c-0.3,5.1-1.3,9.7-2.8,13.4
				c-0.5,1.1-1.1,2.3-1.7,3.4c-1.5,2.4-3.2,4.1-5.1,4.8c1.3-1.9,2.5-3.9,3.6-5.9C131.2,159,131.7,158,132.1,157z"/>
			<path class="st1" d="M129.9,119.9l-2.5-2.4C128.3,118,129.1,118.9,129.9,119.9z"/>
			<path class="st1" d="M129.2,116.7c-0.8-0.7-1.7-1.1-2.5-1.4v-1L129.2,116.7z"/>
			<path class="st1" d="M134.1,123.9l-4.2-4c-0.8-1-1.6-1.9-2.5-2.4l-0.7-0.7v-1.5c0.9,0.3,1.7,0.8,2.5,1.4l1.4,1.3c0,0,0,0,0,0
				C131.9,119.6,133.1,121.6,134.1,123.9z"/>
			<path class="st1" d="M130.7,159.8c-1.1,2-2.3,4-3.6,5.9c-0.1,0.1-0.3,0.1-0.4,0.2v-2C128.2,163.2,129.6,161.8,130.7,159.8z"/>
			<path class="st1" d="M126.7,116.8l0.7,0.7c-0.2-0.2-0.5-0.3-0.7-0.4V116.8z"/>
			<path class="st1" d="M126.7,166.4v1.6c0,0.2-0.1,0.5-0.2,0.6c0-0.1-0.1-0.3-0.2-0.4l-0.5-0.5
				C126.1,167.2,126.4,166.8,126.7,166.4z"/>
			<path class="st1" d="M126.7,117.1v46.7c-0.6,0.3-1.2,0.4-1.8,0.4v-47.6C125.5,116.7,126.1,116.9,126.7,117.1z"/>
			<path class="st1" d="M126.7,116.8v0.3c-0.6-0.3-1.2-0.4-1.8-0.4v-1.6L126.7,116.8z"/>
			<path class="st1" d="M126.7,115.3v1.5l-1.8-1.7V115C125.5,115,126.1,115.1,126.7,115.3z"/>
			<path class="st1" d="M126.7,114.3v1c-0.6-0.2-1.2-0.3-1.8-0.3v-2.5L126.7,114.3z"/>
			<polygon class="st1" points="126.7,96.7 126.7,114.3 124.9,112.5 124.9,96.7 			"/>
			<path class="st1" d="M126.7,96.1v0.6h-1.8v-0.6c0-0.5,0.4-0.9,0.9-0.9S126.7,95.6,126.7,96.1z"/>
			<path class="st1" d="M126.7,96.1c0-0.5-0.4-0.9-0.9-0.9v-0.3h13.5l1.2,1.2c0,0.2,0,0.4,0,0.6h-13.9V96.1z"/>
			<path class="st1" d="M124.9,166.2v-1.9c0.6,0,1.2-0.1,1.8-0.4v2C126.1,166.1,125.5,166.2,124.9,166.2z"/>
			<path class="st1" d="M126.5,168.6c-0.2,0.2-0.4,0.3-0.7,0.3c-0.3,0-0.6-0.1-0.7-0.3c0.2-0.3,0.5-0.6,0.7-0.9l0.5,0.5
				C126.4,168.3,126.5,168.5,126.5,168.6z"/>
			<path class="st1" d="M126.7,166.4c-0.3,0.4-0.6,0.9-0.9,1.3l-0.9-0.8v-0.6c0.6,0,1.2-0.1,1.8-0.3V166.4z"/>
			<path class="st1" d="M125.8,94.9v0.3c-0.5,0-0.9,0.4-0.9,0.9v0.6h-16.3l-1.5-1.4v-0.4H125.8z"/>
			<path class="st1" d="M125.8,167.7c-0.2,0.3-0.4,0.6-0.7,0.9c-0.1-0.2-0.2-0.3-0.2-0.6v-1.2L125.8,167.7z"/>
			<path class="st1" d="M125.8,168.9c0.3,0,0.5-0.1,0.7-0.3c0.1,0.3,0,0.6-0.2,0.9c-0.2,0.2-0.5,0.3-0.7,0.3c-0.2,0-0.5-0.1-0.6-0.3
				l-0.4-0.4c0.2-0.2,0.3-0.4,0.4-0.6C125.2,168.8,125.5,168.9,125.8,168.9z"/>
			<path class="st1" d="M124.9,112.5v2.5c0,0-0.1,0-0.1,0L107,97.8l0-1.1h1.6L124.9,112.5z"/>
			<path class="st1" d="M124.8,115C124.8,115,124.9,115,124.8,115L124.8,115L124.8,115z"/>
			<path class="st1" d="M137.3,69.1c-1.8-1.1-11.4-6.7-28.7-7.5l-1.5-1.5v-0.3c0.3,0,0.5,0,0.8,0c15.7,0.5,25.3,4.9,29,7
				C137,67.5,137.2,68.3,137.3,69.1z"/>
			<path class="st1" d="M115.9,158.1l8.3,8.1C120.9,165.8,118,162.8,115.9,158.1z"/>
			<path class="st1" d="M115.9,158.1c2.1,4.7,5,7.7,8.3,8.1l0.7,0.7v1.2c0,0.2,0.1,0.4,0.2,0.6c-0.1,0.2-0.3,0.4-0.4,0.6l-17.5-17
				v-2.6L115.9,158.1z"/>
			<path class="st1" d="M131,38.1c-1.6-2.1-10.1-4.6-23.9-6.2v-1.9c12.2,1.4,21.6,3.6,24.8,6.5c-0.1,0-0.2,0-0.3,0
				c-0.5,0.1-0.8,0.6-0.7,1.1C130.9,37.8,131,38,131,38.1z"/>
			<path class="st1" d="M107.1,45.8c14.8-1.7,23.4-4.4,24.1-6.6c0.1,0.7,0.3,1.3,0.4,2c-3.4,2.8-12.7,4.9-24.6,6.3V45.8z"/>
			<path class="st1" d="M124.8,116.7c-5.6,0-10.3,10.9-10.3,23.8s4.7,23.8,10.3,23.8c0,0,0.1,0,0.1,0v1.9c0,0-0.1,0-0.1,0
				c-0.2,0-0.4,0-0.6,0l-8.3-8.1c-2-4.6-3.2-10.7-3.2-17.5c0-14.3,5.3-25.6,12.1-25.6h0l0.1,0.1L124.8,116.7
				C124.9,116.7,124.8,116.7,124.8,116.7z"/>
			<path class="st1" d="M108.6,61.6c-0.2,0-0.5,0-0.7,0c-0.3,0-0.5,0-0.8,0v-1.5L108.6,61.6z"/>
			<path class="st1" d="M108.6,96.7H107V96c0.1-0.1,0.1-0.2,0.1-0.4v-0.3L108.6,96.7z"/>
			<path class="st1" d="M107.9,61.6c0.2,0,0.5,0,0.7,0l31.7,31.7c0,0.5,0.1,1,0.1,1.6h-1.1l-32.2-32.1v-1.2
				C107.4,61.6,107.6,61.6,107.9,61.6z"/>
			<path class="st1" d="M120.6,176.3c-4.1,4.3-8.7,8.1-13.8,11.2l0-0.1c0.2-0.2,0.4-0.4,0.4-0.8v-1.5c4.4-2.9,8.5-6.3,12.1-10.1
				c1.9-1.9,3.7-3.9,5.3-6l0.4,0.4c0.1,0.2,0.4,0.3,0.6,0.3c0.2,0,0.5-0.1,0.7-0.3c0.2-0.3,0.3-0.6,0.2-0.9c0.1-0.2,0.2-0.4,0.2-0.6
				v-1.6c0.2-0.2,0.3-0.4,0.4-0.6c1.9-0.8,3.7-2.5,5.1-4.8C129.2,166.6,125.2,171.8,120.6,176.3z"/>
			<path class="st1" d="M107.3,173.1c0,0.1,0,0.3-0.1,0.4v-0.8C107.3,172.8,107.3,173,107.3,173.1z"/>
			<path class="st1" d="M107.2,185.2v1.5c0,0.3-0.2,0.6-0.4,0.8c-0.1,0.1-0.3,0.2-0.5,0.2c-0.5,0-0.9-0.4-0.9-0.9v-0.4
				C106,186,106.6,185.6,107.2,185.2z"/>
			<path class="st1" d="M107.2,173.5l0,11.7c-0.6,0.4-1.2,0.8-1.8,1.1l0-11.1c0.5-0.5,1.1-1,1.6-1.5
				C107.1,173.7,107.1,173.6,107.2,173.5z"/>
			<path class="st1" d="M107.2,172.7c0-0.1-0.1-0.2-0.2-0.2l-1.6-1.7l-0.1-20.4l1.8,1.8L107.2,172.7z"/>
			<path class="st1" d="M107,173.7c-0.5,0.5-1.1,1-1.6,1.5v-4.4l1.6,1.7c0.1,0.1,0.1,0.1,0.2,0.2v0.8
				C107.1,173.6,107.1,173.7,107,173.7z"/>
			<polygon class="st1" points="107.1,149.6 107.1,152.1 105.3,150.4 105.3,147.8 			"/>
			<path class="st1" d="M107.1,95.3C107.1,95.3,107,95.2,107.1,95.3l-0.1-0.2c0-0.1,0-0.1,0-0.2h0.1V95.3z"/>
			<path class="st1" d="M107.1,62.8v32.1H107c-0.1-0.4-0.4-0.7-0.9-0.7c-0.3,0-0.7,0.2-0.8,0.5V63l1-1L107.1,62.8z"/>
			<path class="st1" d="M107.1,59.8v0.3L107,60c-0.2-0.2-0.4-0.2-0.7-0.2C106.6,59.8,106.8,59.8,107.1,59.8z"/>
			<path class="st1" d="M107.1,47.5v12.2c-0.2,0-0.5,0-0.8,0c-0.3,0-0.7,0-1,0v-12C105.9,47.7,106.5,47.6,107.1,47.5z"/>
			<path class="st1" d="M107.1,45.8v1.7c-0.6,0.1-1.2,0.1-1.8,0.2V46C105.9,46,106.5,45.9,107.1,45.8z"/>
			<path class="st1" d="M107.1,32v13.9c-0.6,0.1-1.2,0.1-1.8,0.2V31.7C105.9,31.8,106.5,31.9,107.1,32z"/>
			<path class="st1" d="M107.1,30.1V32c-0.6-0.1-1.2-0.1-1.8-0.2v-1.9C105.9,29.9,106.5,30,107.1,30.1z"/>
			<path class="st1" d="M107.1,3.6v26.5c-0.6-0.1-1.2-0.1-1.8-0.2V5.1c1-0.4,1.6-1.1,1.7-1.9C107.1,3.3,107.1,3.4,107.1,3.6z"/>
			<path class="st1" d="M107,96v-0.8c0,0,0.1,0.1,0.1,0.1v0.3C107.1,95.7,107.1,95.9,107,96z"/>
			<path class="st1" d="M106.7,131.5c0.2-0.2,0.2-0.4,0.2-0.6h0.2l0,18.7l-1.8-1.8l0-16.7l0.2,0.2c0.1,0.2,0.4,0.3,0.6,0.3
				C106.4,131.7,106.6,131.6,106.7,131.5z"/>
			<path class="st1" d="M106.7,130.2l-1.4-1.4l-0.1-32.1h0.7l1.1,1.1l0.1,33.1h-0.2C106.9,130.6,106.8,130.4,106.7,130.2z"/>
			<polygon class="st1" points="107,96.7 107,97.8 105.9,96.7 			"/>
			<path class="st1" d="M107,94.9h-1.7c0-0.1,0-0.1,0.1-0.2c0,0,0,0,0,0c0.1-0.3,0.4-0.5,0.8-0.5C106.5,94.2,106.9,94.5,107,94.9z"
				/>
			<path class="st1" d="M105.3,3.6c0-0.2,0.1-0.4,0.1-0.5c0.2-0.2,0.4-0.4,0.8-0.4c0.4,0,0.7,0.2,0.8,0.5c-0.1,0.8-0.7,1.5-1.7,1.9
				V3.6z"/>
			<path class="st1" d="M105.3,60.4v-0.6c0.3,0,0.7,0,1,0c-0.2,0-0.4,0.1-0.7,0.2L105.3,60.4z"/>
			<path class="st1" d="M107,96.7h-1.1l-0.1-0.1c0,0-0.1-0.1-0.1-0.1h0.5c0.4,0,0.7-0.2,0.8-0.5V96.7z"/>
			<path class="st1" d="M105.3,63v-1.4c0.6,0,1.2,0,1.8,0v1.2l-0.8-0.8L105.3,63z"/>
			<path class="st1" d="M105.5,131.4l-0.2-0.2l0-2.4l1.4,1.4c0.2,0.2,0.2,0.4,0.2,0.7c0,0.2-0.1,0.4-0.2,0.6
				c-0.1,0.1-0.3,0.2-0.6,0.2C105.9,131.7,105.6,131.6,105.5,131.4z"/>
			<path class="st1" d="M105.7,96.5c-0.3-0.3-0.2-0.8,0.1-1.2c0.4-0.4,0.8-0.4,1.2-0.1V96c-0.1,0.3-0.4,0.5-0.8,0.5H105.7z"/>
			<path class="st1" d="M105.2,96.7v-0.2h0.5c0,0,0.1,0.1,0.1,0.1l0.1,0.1H105.2z"/>
			<path class="st1" d="M105.3,61.6v-1.2l0.4-0.4c0.2-0.2,0.4-0.2,0.7-0.2c0.2,0,0.5,0.1,0.7,0.2l0.1,0.1v1.5
				C106.5,61.6,105.9,61.6,105.3,61.6z"/>
			<path class="st1" d="M105.3,61.6V63L92.7,75.6V73l11.4-11.4C104.5,61.6,104.9,61.6,105.3,61.6z"/>
			<path class="st1" d="M105.3,60.4v1.2c-0.4,0-0.8,0-1.2,0L105.3,60.4z"/>
			<polygon class="st1" points="105.3,128.8 105.3,131.2 71.8,97.7 71.8,96.7 73.2,96.7 			"/>
			<path class="st1" d="M105.8,95.3c-0.4,0.4-0.4,0.9-0.1,1.2h-0.5v-1.4c0-0.1,0-0.1,0-0.2h1.7c0,0.1,0,0.1,0,0.2v0.1
				C106.6,94.9,106.2,94.9,105.8,95.3z"/>
			<path class="st1" d="M92.7,60.8c4.2-0.7,8.3-1.1,12.6-1.1v0.6l-1.2,1.2c-3.9,0.1-7.6,0.5-11.4,1.1V60.8z"/>
			<path class="st1" d="M100.4,165.8c0.4,0.4,0.3,0.9,0,1.3c-0.2,0.2-0.4,0.4-0.6,0.6l-1.3-1.3c0.2-0.2,0.4-0.4,0.6-0.6
				C99.5,165.4,100,165.5,100.4,165.8C100.4,165.8,100.4,165.8,100.4,165.8C100.4,165.8,100.4,165.8,100.4,165.8z"/>
			<path class="st1" d="M105.3,31.7c-3.8-0.4-8-0.8-12.6-1v-1.9c4.4,0.3,8.6,0.6,12.6,1V31.7z"/>
			<path class="st1" d="M105.3,47.7c-4,0.4-8.2,0.8-12.6,1v-1.7c4.6-0.3,8.8-0.6,12.6-1V47.7z"/>
			<path class="st1" d="M92.7,3.1c0.3,0.4,2.5,1.3,6.2,1.3c3.7,0,5.9-0.9,6.2-1.3h0.3c-0.1,0.1-0.1,0.3-0.1,0.5v1.5
				c-1.8,0.8-4.5,1.1-6.4,1.1c-1.8,0-4.4-0.3-6.2-1V3.6c0-0.2,0-0.3-0.1-0.4L92.7,3.1z"/>
			<polygon class="st1" points="92.7,73 92.7,75.6 90.9,77.4 90.9,74.8 			"/>
			<path class="st1" d="M92.7,62.6V73l-1.8,1.8V62.9C91.5,62.8,92.1,62.7,92.7,62.6z"/>
			<path class="st1" d="M92.7,60.8v1.8c-0.6,0.1-1.2,0.2-1.8,0.3v-1.8C91.5,61,92.1,60.9,92.7,60.8z"/>
			<path class="st1" d="M92.7,48.8v12.1c-0.6,0.1-1.2,0.2-1.8,0.3V48.9C91.5,48.8,92.1,48.8,92.7,48.8z"/>
			<path class="st1" d="M92.7,47.1v1.7c-0.6,0-1.2,0.1-1.8,0.1v-1.7C91.5,47.2,92.1,47.1,92.7,47.1z"/>
			<path class="st1" d="M92.7,30.7v16.4c-0.6,0-1.2,0.1-1.8,0.1V30.6C91.5,30.6,92.1,30.7,92.7,30.7z"/>
			<path class="st1" d="M92.7,28.8v1.9c-0.6,0-1.2-0.1-1.8-0.1v-1.9C91.5,28.8,92.1,28.8,92.7,28.8z"/>
			<path class="st1" d="M92.7,5.2v23.6c-0.6,0-1.2-0.1-1.8-0.1V3.6C91.1,4.3,91.8,4.8,92.7,5.2z"/>
			<path class="st1" d="M92.7,94.7h12.6c0,0.1-0.1,0.1-0.1,0.2H90.9V77.4l1.8-1.8V94.7z"/>
			<path class="st1" d="M92.7,3.6v1.6c-0.9-0.4-1.6-0.9-1.8-1.6v0c0-0.5,0.4-0.9,0.9-0.9c0.3,0,0.6,0.2,0.8,0.5
				C92.7,3.3,92.7,3.4,92.7,3.6z"/>
			<path class="st1" d="M90.9,94.9h14.3c0,0.1,0,0.1,0,0.2v1.4H91.8c-0.5,0-0.9-0.4-0.9-0.9V94.9z"/>
			<path class="st1" d="M90.8,3.1c0-2.4,5.1-3.1,8.1-3.1s8.1,0.7,8.1,3.1c0,0,0,0.1,0,0.1c-0.2-0.3-0.4-0.5-0.8-0.5
				c-0.3,0-0.6,0.2-0.8,0.4h-0.3c-0.3-0.4-2.5-1.3-6.2-1.3c-3.7,0-5.8,0.9-6.2,1.3l-0.1,0.1c-0.2-0.3-0.4-0.5-0.8-0.5
				c-0.5,0-0.9,0.4-0.9,0.9v0C90.8,3.5,90.8,3.3,90.8,3.1z"/>
			<path class="st1" d="M105.2,96.7h-32l-0.8-0.8l1-1h17.5v0.7c0,0.5,0.4,0.9,0.9,0.9h13.4V96.7z"/>
			<polygon class="st1" points="90.9,74.8 90.9,77.4 73.4,94.9 71.8,94.9 71.8,93.9 			"/>
			<path class="st1" d="M77.3,350.2c0,0,0.1-0.1,0.1-0.1c0.4,0,0.8,0,1.2,0c0.4,0.3,0.4,0.9,0.1,1.2l-0.5,0.6c-0.8,0-1.5,0-2.3-0.1
				L77.3,350.2z"/>
			<path class="st1" d="M78.6,350.1C78.6,350.1,78.6,350.1,78.6,350.1c-0.4,0-0.8,0-1.2,0C77.7,349.8,78.2,349.8,78.6,350.1z"/>
			<path class="st1" d="M78.2,351.9l-6.6,7.5c0.2-0.2,0.3-0.4,0.3-0.6v-2.4l4-4.6C76.6,351.9,77.4,351.9,78.2,351.9z"/>
			<path class="st1" d="M77.4,350.1c0,0-0.1,0.1-0.1,0.1l-1.5,1.6c-1.3,0-2.7,0-4,0V350C73.7,350,75.6,350,77.4,350.1z"/>
			<path class="st1" d="M71.8,178.7v-1.1l0-1.3c9.5,0.2,19.1-3.1,26.7-9.9l1.3,1.3C92.1,174.7,82.1,178.7,71.8,178.7z"/>
			<polygon class="st1" points="71.8,96.7 71.8,94.9 73.4,94.9 72.4,95.9 73.2,96.7 			"/>
			<path class="st1" d="M72,138.1c0-0.2-0.1-0.4-0.2-0.6v-0.2c0.2,0,0.3,0.1,0.5,0.3c0.3,0.3,0.3,0.8,0,1.2l-0.2,0.2v-0.5L72,138.1
				C72,138.1,72,138.1,72,138.1z"/>
			<polygon class="st1" points="71.8,139.3 72.1,139 72.1,139.6 71.8,139.3 			"/>
			<path class="st1" d="M71.8,139.3l0.3,0.3l-0.3,36.7c0,0,0,0,0,0V139.3z"/>
			<path class="st1" d="M71.8,138.8c0.2-0.2,0.2-0.4,0.2-0.7l0.1,0.4v0.5l-0.3,0.3V138.8z"/>
			<path class="st1" d="M72,138.1c0.1,0.3,0,0.5-0.2,0.7v-0.9C71.9,137.9,71.9,138,72,138.1C72,138.1,72,138.1,72,138.1z"/>
			<path class="st1" d="M71.9,115.4l33.4,32.4v2.6l-33.5-32.5L71.9,115.4C71.8,115.3,71.9,115.4,71.9,115.4z"/>
			<path class="st1" d="M86.2,198.3c-8.7,4.5-13.5,7-14.4,12.7c0,0,0,0,0-0.1v-4.6c2.4-3.7,7-6.1,13.6-9.6c1.4-0.7,2.9-1.5,4.5-2.3
				c1.6-0.8,3.5-1.8,5.4-2.7c2.5-1.2,4.9-2.4,6-3.1c1.4-0.7,2.8-1.5,4.1-2.3v0.4c0,0.5,0.4,0.9,0.9,0.9c0.2,0,0.4-0.1,0.5-0.2l0,0.1
				c-1.5,0.9-3.1,1.8-4.6,2.6c-1.2,0.7-3.6,1.9-6.1,3.2c-1.9,0.9-3.8,1.9-5.4,2.7C89.1,196.8,87.6,197.6,86.2,198.3z"/>
			<path class="st1" d="M71.8,136.8l28.6,29c-0.4-0.3-0.9-0.4-1.3,0c-0.2,0.2-0.4,0.4-0.6,0.6l-26.4-26.8l0-0.6l0.2-0.2
				c0.3-0.4,0.3-0.9,0-1.2c-0.2-0.2-0.3-0.2-0.5-0.3V136.8z"/>
			<path class="st1" d="M71.8,137.5c0.1,0.2,0.2,0.3,0.2,0.6c-0.1-0.1-0.1-0.2-0.2-0.3V137.5z"/>
			<path class="st1" d="M71.8,186.2c12,0,23.9-4.3,33.3-13.1l-5.3-5.4c0.2-0.2,0.4-0.4,0.6-0.6c0.3-0.4,0.4-0.9,0-1.3l4.9,5v4.4
				c-9.2,8.3-21.1,13-33.6,13V186.2z"/>
			<path class="st1" d="M71.8,211c0,0.1,0,0.2,0,0.3L71.8,211C71.8,211,71.8,211,71.8,211z"/>
			<path class="st1" d="M71.8,176.3l0,1.3L71.8,176.3C71.8,176.3,71.8,176.3,71.8,176.3z"/>
			<path class="st1" d="M71.8,210.9C71.8,210.9,71.8,210.9,71.8,210.9c0,0.1,0,0.1,0,0.1V210.9z"/>
			<path class="st1" d="M71.8,206.3v4.6c-0.2-0.9-0.5-1.9-1-2.8C71.1,207.5,71.4,206.8,71.8,206.3z"/>
			<path class="st1" d="M71.8,188.2v18.1c-0.4,0.6-0.7,1.2-1,1.9c-0.2-0.5-0.5-0.9-0.8-1.4v-18.6c0.5,0,0.9,0,1.4,0H71.8z"/>
			<path class="st1" d="M71.8,178.7v7.5c-0.6,0-1.2,0-1.8,0v-7.5C70.6,178.7,71.2,178.7,71.8,178.7z"/>
			<path class="st1" d="M71.8,178.7c-0.6,0-1.2,0-1.8,0v-1.1c0,0.5,0.4,0.9,0.9,0.9s0.9-0.4,0.9-0.9V178.7z"/>
			<path class="st1" d="M71.8,139.3v37c-0.6,0-1.2,0-1.8-0.1l0.3-35.4L71.8,139.3z"/>
			<path class="st1" d="M71.8,138.8v0.5l-0.3-0.3C71.6,138.9,71.7,138.9,71.8,138.8z"/>
			<path class="st1" d="M71.8,137.8l-0.6-0.2c-0.1,0-0.3,0-0.4,0.1l0.2-0.2c0.2-0.1,0.3-0.2,0.5-0.2c0.1,0.1,0.2,0.1,0.3,0.2V137.8z
				"/>
			<path class="st1" d="M71.8,137.3v0.2c-0.1-0.1-0.2-0.2-0.3-0.2C71.6,137.3,71.7,137.3,71.8,137.3z"/>
			<path class="st1" d="M70.6,115.4c0.4-0.4,0.8-0.4,1.2-0.1v2.6l-1.2-1.2c-0.2-0.1-0.3-0.4-0.3-0.6
				C70.3,115.8,70.4,115.6,70.6,115.4z"/>
			<path class="st1" d="M71.8,96.7v1l-1-1c0.1,0,0.2,0,0.2,0H71.8z"/>
			<path class="st1" d="M70.5,96.4c-0.4-0.3-0.4-0.9,0-1.2l0.3-0.3c0.1,0,0.2,0,0.2,0h0.8v1.8H71c-0.1,0-0.2,0-0.2,0L70.5,96.4z"/>
			<path class="st1" d="M71.8,93.9v1H71c-0.1,0-0.2,0-0.2,0L71.8,93.9z"/>
			<path class="st1" d="M71.8,67.1v26.8l-1,1c-0.4,0.1-0.7,0.4-0.7,0.9H70V67.6C70.6,67.4,71.2,67.3,71.8,67.1z"/>
			<path class="st1" d="M70.9,66c0.5,0,0.9,0.4,0.9,0.9v0.2c-0.6,0.1-1.2,0.3-1.8,0.4v-0.7c0-0.4,0.3-0.8,0.7-0.9
				C70.8,66,70.8,66,70.9,66z"/>
			<path class="st1" d="M70,177.6l0-1.4c0.6,0,1.2,0.1,1.8,0.1v1.3c0,0.5-0.4,0.9-0.9,0.9S70,178.1,70,177.6z"/>
			<path class="st1" d="M71.1,137.2l-1.1,0V135l1.8,1.8v0.5c-0.1,0-0.2,0-0.3,0C71.4,137.2,71.2,137.2,71.1,137.2z"/>
			<path class="st1" d="M71.8,139.3l-1.5,1.5l0-1.8l0.9,0c0.1,0,0.2,0,0.3,0L71.8,139.3L71.8,139.3z"/>
			<path class="st1" d="M71.1,137.2c0.2,0,0.3,0,0.4,0.1c-0.2,0-0.3,0.1-0.5,0.2l-0.2,0.2c-0.1,0.1-0.2,0.2-0.3,0.3l-0.5-0.5v-0.3
				L71.1,137.2z"/>
			<path class="st1" d="M71.4,188.2c-0.5,0-0.9,0-1.4,0v-2c0.6,0,1.2,0,1.8,0v2H71.4z"/>
			<path class="st1" d="M71.2,137.6l0.6,0.2v0.9c-0.1,0.1-0.2,0.1-0.3,0.2l-1-1l0.3-0.3C70.9,137.6,71.1,137.6,71.2,137.6z"/>
			<path class="st1" d="M70.3,138.5c0-0.1,0-0.3,0.1-0.4l0.1-0.1l1,1c-0.1,0-0.2,0-0.3,0l-0.9,0V138.5z"/>
			<path class="st1" d="M70.9,359.7c0.2,0,0.5-0.1,0.6-0.3l-8.3,9.5c-0.3,0-0.6,0-0.9,0l0-1.8l7.7-8.7v0.3
				C70,359.3,70.4,359.7,70.9,359.7z"/>
			<path class="st1" d="M70.9,211.8c-0.5-0.1-0.8-0.5-0.8-1c0.2-1,0.4-1.8,0.7-2.7c0.4,0.9,0.8,1.8,1,2.8v0.1
				C71.7,211.5,71.4,211.8,70.9,211.8L70.9,211.8z"/>
			<path class="st1" d="M71.5,359.4c-0.2,0.2-0.4,0.3-0.6,0.3c-0.5,0-0.9-0.4-0.9-0.9v-0.3l1.8-2v2.4
				C71.8,359,71.7,359.3,71.5,359.4z"/>
			<path class="st1" d="M70.9,66c-0.1,0-0.1,0-0.2,0l-0.1-0.4c1.3-0.3,2.6-0.6,3.9-0.9c5.6-1.3,11-2.6,16.4-3.6v1.8
				c-5.3,0.9-10.6,2.2-16,3.5c-1,0.2-2.1,0.5-3.1,0.7v-0.2C71.8,66.4,71.4,66,70.9,66z"/>
			<path class="st1" d="M70.9,351.8c-0.3,0-0.6,0-0.9,0V350c0.3,0,0.6,0,0.9,0c0.3,0,0.6,0,0.9,0v1.8
				C71.5,351.8,71.2,351.8,70.9,351.8z"/>
			<path class="st1" d="M70,351.8c0.3,0,0.6,0,0.9,0c0.3,0,0.6,0,0.9,0v4.6l-1.8,2V351.8z"/>
			<path class="st1" d="M70,350V211.5c0.2,0.3,0.5,0.5,0.8,0.5H71h0.1c0.4-0.1,0.6-0.4,0.7-0.7V350c-0.3,0-0.6,0-0.9,0
				C70.6,350,70.3,350,70,350z"/>
			<path class="st1" d="M70.8,94.9l-0.3,0.3c-0.4,0.3-0.4,0.9,0,1.2l0.3,0.3c-0.4-0.1-0.7-0.4-0.7-0.9C70.1,95.4,70.4,95,70.8,94.9z
				"/>
			<path class="st1" d="M70.8,137.7l-0.3,0.3l0,0C70.6,137.8,70.7,137.7,70.8,137.7z"/>
			<path class="st1" d="M71.8,115.3c-0.4-0.3-0.8-0.3-1.2,0.1c-0.2,0.2-0.3,0.4-0.3,0.7H70v-11.7c0.1,0,0.1,0,0.2,0
				c0.2,0,0.4-0.1,0.5-0.3c0.4-0.4,0.4-1,0-1.3l-0.7-0.7v-6.3h0.1c0,0.4,0.3,0.8,0.7,0.9l1,1V115.3z"/>
			<path class="st1" d="M70.6,116.7l1.2,1.2v18.9L70,135v-18.9h0.3C70.3,116.3,70.4,116.5,70.6,116.7z"/>
			<path class="st1" d="M70.5,138L70.5,138l-0.1,0.1C70.4,138.1,70.4,138,70.5,138z"/>
			<path class="st1" d="M70.7,102.8c0.4,0.3,0.4,0.9,0,1.3c-0.1,0.2-0.3,0.3-0.5,0.3c-0.1,0-0.1,0-0.2,0v-2.2L70.7,102.8z"/>
			<path class="st1" d="M70,137.5l0.5,0.5c0,0-0.1,0.1-0.1,0.1l-0.4,0.4V137.5z"/>
			<path class="st1" d="M70,138.5l0.4-0.4c-0.1,0.1-0.1,0.2-0.1,0.4v0.5H70V138.5z"/>
			<polygon class="st1" points="70.3,139 70.3,140.8 70,141.1 70,139 			"/>
			<polygon class="st1" points="70.3,140.8 70,176.2 70,176.2 70,141.1 			"/>
			<path class="st1" d="M70.1,210.8c0,0.5,0.3,0.9,0.8,1H71c0.4,0,0.7-0.3,0.8-0.8v0.3c-0.1,0.4-0.3,0.6-0.7,0.7H71h-0.2
				c-0.3,0-0.6-0.2-0.8-0.5v-4.8c0.3,0.5,0.6,0.9,0.8,1.4C70.5,209,70.2,209.8,70.1,210.8z"/>
			<polygon class="st1" points="70,176.2 70,177.6 70,176.2 			"/>
			<path class="st1" d="M70,186.2v2c-12.8-0.4-24.4-5.7-33.1-14l1.5-1.5C47.3,181.2,58.6,185.7,70,186.2z"/>
			<path class="st1" d="M70,139v2.1l-24.4,24.4c0,0-0.1-0.1-0.1-0.1c-0.4-0.4-0.8-0.8-1.2-1.2L69.5,139H70z"/>
			<polygon class="st1" points="70,138.5 70,139 69.5,139 			"/>
			<path class="st1" d="M70,137.5v1l-0.5,0.5l-35.8-0.3c0-0.6,0-1.2,0-1.8l36,0.3L70,137.5z"/>
			<polygon class="st1" points="70,137.2 70,137.5 69.7,137.2 			"/>
			<path class="st1" d="M69.6,104.2L52.8,87.8l1.2-1.3L70,102.1v2.2C69.8,104.3,69.7,104.3,69.6,104.2z"/>
			<path class="st1" d="M45.6,165.5c6.9,6.6,15.6,10.2,24.4,10.7v1.4v1.1c-10.2-0.4-19.4-4.7-26.3-11.3L45.6,165.5z"/>
			<path class="st1" d="M63.2,368.9l-1,1.1c0.1-0.1,0.1-0.2,0.1-0.4l0-0.7C62.7,368.9,63,368.9,63.2,368.9z"/>
			<path class="st1" d="M62.3,367.1l0,1.8c-0.5,0-1,0-1.5-0.1L62.3,367.1z"/>
			<path class="st1" d="M62.1,370.2l0.2-0.2C62.2,370.1,62.2,370.1,62.1,370.2z"/>
			<path class="st1" d="M62.1,370.2c0.1-0.1,0.2-0.1,0.2-0.2l1-1.1c2.5,0.1,5,0.1,7.7,0.1c31.4,0,48.7-5.1,48.7-8.6
				c0-3.2-14.7-7.8-41.4-8.5l0.5-0.6c0.3-0.3,0.3-0.9-0.1-1.2c21.9,0.7,42.8,4.2,42.8,10.3c0,6.8-26,10.4-50.5,10.4
				c-3.2,0-6.4-0.1-9.6-0.2v0C61.6,370.6,61.8,370.5,62.1,370.2L62.1,370.2z"/>
			<path class="st1" d="M61.5,370.5c-0.5,0-0.9-0.4-0.9-0.9l0-0.5c0,0,0,0,0,0l0.2-0.3c0.5,0,1,0,1.5,0.1l0,0.7c0,0.1,0,0.3-0.1,0.4
				l-0.2,0.2C61.9,370.4,61.7,370.5,61.5,370.5z"/>
			<path class="st1" d="M62,370.3c-0.2,0.2-0.4,0.3-0.7,0.3c-0.5,0-0.9-0.4-0.9-0.9c0-0.2,0.1-0.4,0.2-0.6l0,0.5
				c0,0.5,0.4,0.9,0.9,0.9C61.7,370.5,61.9,370.4,62,370.3L62,370.3z"/>
			<path class="st1" d="M60.8,368.8l-0.2,0.3c0,0,0,0,0,0l0-0.3C60.7,368.8,60.8,368.8,60.8,368.8z"/>
			<path class="st1" d="M60.4,360.4H22.2c0-0.6,0.5-1.2,1.4-1.8h37.7c0.5,0,0.9,0.4,0.9,0.9l0.1,7.6l-1.5,1.7c-0.1,0-0.2,0-0.3,0
				L60.4,360.4z"/>
			<path class="st1" d="M57.6,83l-3.5,3.6l-1.3-1.3l3.5-3.6c0.4-0.4,0.9-0.3,1.3,0C58,82.1,57.9,82.6,57.6,83z"/>
			<polygon class="st1" points="54.1,86.6 52.8,87.8 51.5,86.6 52.8,85.3 			"/>
			<polygon class="st1" points="52.8,87.8 38.2,102.7 38,102.5 38,100.4 51.5,86.6 			"/>
			<path class="st1" d="M52.8,85.3l-1.2,1.3L38,73.4v-1.5c0.4,0,0.7,0,1.1,0.1L52.8,85.3z"/>
			<path class="st1" d="M43.7,167.4c-0.5-0.4-0.9-0.9-1.3-1.3l1.9-1.9c0.4,0.4,0.8,0.8,1.2,1.2c0,0,0.1,0.1,0.1,0.1L43.7,167.4z"/>
			<path class="st1" d="M44.6,109.2L70,135v2.2h-0.3L44,111.1c0.2-0.2,0.4-0.4,0.6-0.6C44.9,110.1,44.9,109.6,44.6,109.2z"/>
			<path class="st1" d="M44.6,110.5c-0.2,0.2-0.4,0.4-0.6,0.6l-1.3-1.3c0.2-0.2,0.4-0.4,0.6-0.6c0.4-0.4,0.9-0.4,1.3,0
				C44.9,109.6,44.9,110.1,44.6,110.5z"/>
			<path class="st1" d="M44.3,164.2l-1.9,1.9c-6.9-7.3-11.2-17.1-11.2-27.9c0.1,0.3,0.4,0.5,0.8,0.5l1.7,0
				C34,147.9,37.5,157,44.3,164.2z"/>
			<path class="st1" d="M43.7,167.4l-5.3,5.3c0,0-0.1-0.1-0.1-0.1c-0.4-0.4-0.8-0.8-1.2-1.2l5.3-5.3C42.8,166.5,43.3,167,43.7,167.4
				z"/>
			<path class="st1" d="M31.2,137.4c0.2-10.4,4.3-20.2,11.5-27.6l1.3,1.3c-6.8,7.3-10.2,16.5-10.3,25.8l-1.7,0
				C31.6,136.9,31.4,137.1,31.2,137.4z"/>
			<path class="st1" d="M37.9,70.8l1.2,1.1c-0.4,0-0.7,0-1.1-0.1v-0.7C38,71,38,70.9,37.9,70.8z"/>
			<path class="st1" d="M38.3,172.6c0,0,0.1,0.1,0.1,0.1l-1.5,1.5c-0.4-0.4-0.9-0.9-1.3-1.3l1.5-1.5
				C37.5,171.8,37.9,172.2,38.3,172.6z"/>
			<path class="st1" d="M37.2,104.1c0.5,0,0.8-0.4,0.8-0.9v-0.3l0.2-0.2l6.4,6.5c-0.4-0.4-0.9-0.4-1.3,0c-0.2,0.2-0.4,0.4-0.6,0.6
				l-5.5-5.6L37.2,104.1z"/>
			<polygon class="st1" points="38,102.5 38.2,102.7 38,102.9 			"/>
			<polygon class="st1" points="38,73.4 38,100.4 37,101.4 36.2,100.6 36.2,72.9 36.9,72.3 			"/>
			<path class="st1" d="M38,71.2v0.7c-0.6,0-1.2-0.1-1.8-0.1v-0.5c0-0.5,0.4-0.9,0.9-0.9c0.1,0,0.2,0,0.4,0.1c0,0,0,0,0,0l0.4,0.4
				C38,70.9,38,71,38,71.2z"/>
			<path class="st1" d="M37.9,70.8l-0.4-0.4C37.7,70.5,37.8,70.6,37.9,70.8z"/>
			<path class="st1" d="M37.9,70.8c-0.1-0.2-0.2-0.3-0.4-0.4c0,0,0,0,0,0c-0.1-0.1-0.2-0.2-0.4-0.2l0-0.2c3.1,0.2,6.3,0.2,9.6-0.1
				c8.5-0.8,16.3-2.5,23.9-4.3l0.1,0.4c-0.4,0.1-0.7,0.4-0.7,0.9v0.7c-7.3,1.7-15,3.3-23.2,4C45,71.9,43.2,72,41.4,72
				c-0.8,0-1.6,0-2.3-0.1L37.9,70.8z"/>
			<path class="st1" d="M37.7,102.8c0-0.4-0.2-0.7-0.5-0.8c0.2,0,0.5,0.1,0.6,0.3l0.2,0.2v0.4l-0.4,0.4c-0.1,0.1-0.2,0.2-0.4,0.3
				C37.5,103.4,37.7,103.1,37.7,102.8z"/>
			<path class="st1" d="M37.2,102c-0.2,0-0.4,0.1-0.6,0.3c-0.1,0.1-0.3,0.3-0.4,0.4v-0.8h0.6C37,101.9,37.1,101.9,37.2,102z"/>
			<path class="st1" d="M36.4,103.3l-0.2-0.2v-0.4c0.1-0.1,0.3-0.3,0.4-0.4c0.2-0.2,0.4-0.3,0.6-0.3c0,0,0,0,0,0
				c0.3,0.2,0.5,0.4,0.5,0.8c0,0.3-0.2,0.6-0.5,0.8c-0.1,0-0.1,0-0.2,0C36.8,103.6,36.5,103.5,36.4,103.3z"/>
			<path class="st1" d="M37,101.4l1-1v2.1l-0.2-0.2c-0.1-0.2-0.4-0.3-0.6-0.3c0,0,0,0,0,0c-0.1-0.1-0.2-0.1-0.4-0.1h-0.6v-1.3
				L37,101.4z"/>
			<path class="st1" d="M36.9,174.2l-7.3,7.3c-0.5-0.4-1-0.8-1.4-1.2l7.4-7.4C36.1,173.3,36.5,173.7,36.9,174.2z"/>
			<path class="st1" d="M36.2,71.7c0.6,0.1,1.2,0.1,1.8,0.1v1.5l-1.1-1.1l-0.7,0.6V71.7z"/>
			<path class="st1" d="M38,103.2c0,0.5-0.3,0.9-0.8,0.9c0,0-0.1,0-0.1,0c-0.3,0-0.6-0.2-0.8-0.4h0.4c0.2,0,0.3,0,0.5-0.1
				c0.2,0,0.3-0.1,0.4-0.3l0.4-0.4V103.2z"/>
			<path class="st1" d="M37,103.6c0.1,0,0.1,0,0.2,0c-0.2,0.1-0.3,0.1-0.5,0.1h-0.4c-0.1-0.1-0.1-0.3-0.1-0.5v-0.1l0.2,0.2
				C36.5,103.5,36.8,103.6,37,103.6z"/>
			<path class="st1" d="M36.2,103.2c0,0.2,0.1,0.4,0.1,0.5h-1.1c0.2-0.3,0.5-0.5,0.8-0.8L36.2,103.2L36.2,103.2z"/>
			<path class="st1" d="M36.2,102.7v0.4l-0.2-0.2C36.1,102.8,36.1,102.8,36.2,102.7z"/>
			<path class="st1" d="M36.2,101.9v0.8c-0.1,0.1-0.1,0.1-0.2,0.2l-1-1H36.2z"/>
			<polygon class="st1" points="36.2,100.6 36.2,101.9 35,101.9 20.5,87.2 21.8,85.9 			"/>
			<path class="st1" d="M36.2,71.7v1.2l-14.4,13l-1.3-1.3L35,71.6C35.4,71.6,35.8,71.7,36.2,71.7z"/>
			<path class="st1" d="M35,71.6l1.3-1.2c0.2-0.2,0.5-0.3,0.8-0.2c0.1,0,0.3,0.1,0.4,0.2c-0.1,0-0.2-0.1-0.4-0.1
				c-0.5,0-0.9,0.4-0.9,0.9v0.5C35.8,71.7,35.4,71.6,35,71.6z"/>
			<path class="st1" d="M33.7,136.9c0,0.6,0,1.2,0,1.8l-1.7,0c-0.4,0-0.6-0.2-0.8-0.5c0,0,0-0.1,0-0.1c0-0.2,0-0.5,0-0.7
				c0.1-0.3,0.4-0.5,0.8-0.5L33.7,136.9z"/>
			<path class="st1" d="M31.2,137.4c0,0.2,0,0.5,0,0.7c0,0,0,0.1,0,0.1c-0.1-0.1-0.1-0.3-0.1-0.4C31.1,137.6,31.1,137.5,31.2,137.4z
				"/>
			<path class="st1" d="M28.5,182.1c-0.2,0-0.5-0.1-0.6-0.3c-0.2-0.2-0.3-0.4-0.3-0.6c0-0.2,0.1-0.5,0.3-0.6l0.3-0.3
				c0.5,0.4,0.9,0.8,1.4,1.2l-0.4,0.4C28.9,182,28.7,182.1,28.5,182.1z"/>
			<path class="st1" d="M29.6,181.5c3.5,2.8,7.2,5.1,11.2,7.1c2,1.1,4.5,2.3,7.2,3.6c8.2,3.8,17.9,8.4,22,14.6v4.8
				c-0.1-0.1-0.1-0.1-0.1-0.2c-1.5-7.4-13.8-13.2-22.8-17.4c-2.7-1.3-5.3-2.5-7.3-3.6c-4.4-2.3-8.5-4.9-12.3-8l0.4-0.4
				c0.2,0.2,0.4,0.3,0.6,0.3c0.2,0,0.4-0.1,0.7-0.2L29.6,181.5z"/>
			<path class="st1" d="M21.6,137.1c0.2-12.4,5.1-24.3,13.6-33.4h1.1c0.2,0.2,0.4,0.4,0.8,0.4c0,0,0.1,0,0.1,0l0,0.1
				c-9.1,9.4-13.7,21.6-13.6,33.8l-0.8,0c0-0.5-0.4-0.9-0.9-0.9H21.6z"/>
			<path class="st1" d="M21.6,358.6h2c-0.9,0.6-1.4,1.2-1.4,1.8h-0.6c-0.5,0-0.9-0.4-0.9-0.9c0-0.1,0-0.2,0.1-0.3
				C20.9,358.8,21.2,358.6,21.6,358.6z"/>
			<path class="st1" d="M21.6,138.9c0-0.4,0-0.8,0-1.2c0-0.2,0-0.4,0-0.6h0.3c0.5,0,0.9,0.4,0.9,0.9s-0.4,0.9-0.9,0.9H21.6z"/>
			<path class="st1" d="M21.9,138.9c0.5,0,0.9-0.4,0.9-0.9l0.8,0c0,12.1,4.6,24.1,13.5,33.4l-1.5,1.5c-8.5-8.8-13.8-20.8-14-34H21.9
				z"/>
			<polygon class="st1" points="21.8,85.9 20.5,87.2 19.2,85.9 20.5,84.7 			"/>
			<path class="st1" d="M21.6,138.9h-17c-0.1-0.6-0.2-1.2-0.4-1.8h17.3c0,0.2,0,0.4,0,0.6C21.6,138.1,21.6,138.5,21.6,138.9z"/>
			<path class="st1" d="M70,351.8c-25.8,0.1-41.8,3.6-46.4,6.8h-2c-0.4,0-0.7,0.2-0.8,0.6l-0.1,0c3-5.9,26.6-9,49.3-9.1V351.8z"/>
			<path class="st1" d="M20.7,359.5c0,0.5,0.4,0.9,0.9,0.9h0.6c0,3.1,13.5,7.4,38.4,8.4l0,0.3c-0.1,0.2-0.2,0.4-0.2,0.6
				c0,0.5,0.4,0.9,0.9,0.9v0c-21.2-0.8-40.9-4.3-40.9-10.2c0-0.4,0.1-0.9,0.3-1.3l0.1,0C20.7,359.3,20.7,359.4,20.7,359.5z"/>
			<path class="st1" d="M5.3,69.2l15.2,15.5l-1.3,1.2L4.9,71.4C5,70.7,5.2,69.9,5.3,69.2z"/>
			<path class="st1" d="M71.4,30.1c-35.4,0-57.7,4.6-59.8,8.3c0.1-0.2,0.1-0.5,0.2-0.7c0.1-0.5-0.2-1-0.7-1.1c-0.1,0-0.2,0-0.2,0
				c6-5.5,34-8.4,60.5-8.4c6.5,0,13.1,0.2,19.5,0.5v1.9C85,30.3,78.4,30.1,71.4,30.1z"/>
			<path class="st1" d="M11.5,39c0.4,3.7,23.1,8.7,59.9,8.7c7,0,13.6-0.2,19.5-0.5v1.7c-6.3,0.4-13,0.5-19.5,0.5
				c-26.3,0-54.1-2.9-60.4-8.2C11.2,40.4,11.3,39.7,11.5,39z"/>
			<path class="st1" d="M11.5,38.9c0-0.2,0.1-0.3,0.1-0.5C11.6,38.6,11.6,38.8,11.5,38.9C11.5,39,11.5,38.9,11.5,38.9z"/>
			<path class="st1" d="M11.5,39c-0.2,0.7-0.3,1.5-0.5,2.2c-0.9-0.7-1.3-1.5-1.3-2.3c0-0.1,0-0.2,0-0.2c0-0.2,0.1-0.3,0.1-0.5
				c0.2-0.5,0.5-1,1-1.5c0.1,0,0.2,0,0.2,0c0.5,0.1,0.8,0.6,0.7,1.1c-0.1,0.2-0.1,0.4-0.2,0.7C11.6,38.5,11.5,38.7,11.5,39
				C11.5,38.9,11.5,39,11.5,39z"/>
			<path class="st1" d="M10,37.3c0.1-0.4,0.5-0.7,0.9-0.7c-0.5,0.5-0.9,1-1,1.5C9.9,37.8,9.9,37.5,10,37.3z"/>
			<path class="st1" d="M9.8,38c0,0.2-0.1,0.4-0.1,0.5C9.7,38.4,9.8,38.2,9.8,38z"/>
			<path class="st1" d="M7,60.2c2.4,1.5,14.3,8.6,30.1,9.8l0,0.2c-0.3,0-0.6,0-0.8,0.2L35,71.6c-10-1.1-19.8-4.3-28.4-9.5
				C6.7,61.4,6.8,60.8,7,60.2z"/>
			<path class="st1" d="M7,60.2c-0.1,0.6-0.2,1.2-0.4,1.9c-0.4-0.2-0.7-0.4-1.1-0.7c-0.3-0.2-0.4-0.6-0.3-1c0-0.1,0.1-0.2,0.1-0.3
				c0.3-0.4,0.8-0.5,1.2-0.2C6.5,59.9,6.7,60,7,60.2z"/>
			<path class="st1" d="M3.7,69.6c0-0.2,0.1-0.3,0.2-0.5c0.3-0.4,0.9-0.4,1.3,0l0.1,0.1c-0.1,0.7-0.3,1.5-0.4,2.2l-1-1
				C3.7,70.1,3.6,69.9,3.7,69.6z"/>
			<path class="st1" d="M5.1,60.4C6.4,53.4,8,46.2,9.7,38.6c0,0.1,0,0.2,0,0.2c0,0.8,0.5,1.6,1.3,2.3c-1.5,6.6-2.9,12.9-4.1,19
				c-0.3-0.2-0.4-0.3-0.5-0.3c-0.4-0.3-0.9-0.2-1.2,0.2C5.2,60.2,5.2,60.3,5.1,60.4L5.1,60.4z"/>
			<path class="st1" d="M5.2,60.4c-0.1,0.4,0,0.8,0.3,1c0.4,0.2,0.7,0.5,1.1,0.7c-0.5,2.4-0.9,4.8-1.3,7.1l-0.1-0.1
				c-0.4-0.4-1-0.4-1.3,0c-0.1,0.2-0.2,0.3-0.2,0.5l-0.3-0.1C3.9,66.5,4.5,63.5,5.2,60.4L5.2,60.4z"/>
			<path class="st1" d="M3.8,137.1h0.5c0.1,0.6,0.2,1.2,0.4,1.8H3.8c-0.4,0-0.8-0.3-0.9-0.7c0-0.1,0-0.1,0-0.2
				C2.9,137.5,3.3,137.1,3.8,137.1z"/>
			<path class="st1" d="M4.6,138.9c3.3,15.9,10.2,28.9,20.7,38.8c0.9,0.9,1.9,1.8,2.9,2.6l-0.3,0.3c-0.2,0.1-0.3,0.4-0.3,0.6
				c0,0.2,0.1,0.5,0.3,0.6l-0.4,0.4c-1.2-1-2.4-2.1-3.6-3.2c-10.7-10.2-18-24.2-21.2-40.8l0.3-0.1c0.1,0.4,0.4,0.7,0.9,0.7H4.6z"/>
			<path class="st1" d="M35.2,103.7H1.9c0,0,0,0-0.1,0c0-0.1,0-0.1,0-0.2c0.3,0.1,0.5,0,0.8-0.2l1.6-1.4H35l1,1
				C35.8,103.2,35.5,103.4,35.2,103.7z"/>
			<path class="st1" d="M1.8,103.5c0-0.5,0-1.1,0-1.6c0,0,0,0,0,0h2.2l-1.6,1.4C2.4,103.5,2.1,103.5,1.8,103.5z"/>
			<path class="st1" d="M1.9,101.9c0-0.1,0-0.2,0-0.3l17.3-15.7l1.3,1.3L4.2,101.9H1.9C1.9,101.9,1.9,101.9,1.9,101.9z"/>
			<path class="st1" d="M1.9,101.6c0,0.1,0,0.2,0,0.3c-0.3,0-0.5,0.1-0.7,0.3c0-0.1,0.1-0.2,0.2-0.2L1.9,101.6z"/>
			<path class="st1" d="M1.9,101.9c0,0.5,0,1.1,0,1.6c-0.2,0-0.4-0.1-0.5-0.3c-0.2-0.2-0.3-0.7-0.1-1C1.4,102,1.6,101.9,1.9,101.9z"
				/>
			<path class="st1" d="M1.3,103.2c0.2,0.2,0.3,0.3,0.5,0.3c0,0.1,0,0.1,0,0.2c-0.5,0-0.8-0.4-0.8-0.9c0-0.2,0.1-0.4,0.2-0.6
				C1,102.5,1.1,103,1.3,103.2z"/>
			<path class="st1" d="M4.9,71.4c-1.7,10.2-2.8,20-3,30.1L1.4,102c-0.1,0.1-0.1,0.1-0.2,0.2c-0.1,0.2-0.2,0.4-0.2,0.6
				c0,0.5,0.4,0.9,0.8,0.9c-0.1,8.6,0.3,17.5,1.5,27c0.3,2.2,0.6,4.3,1,6.4H3.8c-0.5,0-0.9,0.4-0.9,0.9c0,0.1,0,0.1,0,0.2l-0.3,0.1
				c-0.5-2.4-0.9-4.8-1.2-7.3C-1.2,108.5,0,89.8,3.4,69.5l0.3,0.1c0,0.3,0,0.6,0.2,0.8L4.9,71.4z"/>
		</g>
		<g>
		</g>
	</g>
</g>
</svg>
