<?xml version="1.0" encoding="utf-8"?>
<!-- Generator: Adobe Illustrator 25.4.1, SVG Export Plug-In . SVG Version: 6.00 Build 0)  -->
<svg version="1.1" id="Layer_1" xmlns="http://www.w3.org/2000/svg" xmlns:xlink="http://www.w3.org/1999/xlink" x="0px" y="0px"
	 viewBox="0 0 65.1 161.9" style="enable-background:new 0 0 65.1 161.9;" xml:space="preserve">
<style type="text/css">
	.st0{fill:#FFFFFF;}
	.st1{fill:#FD8612;}
</style>
<g id="Layer_1-2">
	<g id="XMLID_00000114789303333084561590000018330431627330635948_">
		<g>
			<path class="st0" d="M65.1,138.4V152c0,0.1,0,0.2-0.1,0.4c-0.1-1-0.7-2-1.7-2.8v-10.1h0.5c0.2,0,0.3-0.1,0.5-0.2
				c0.1,0,0.2-0.1,0.3-0.2c0.2-0.2,0.3-0.4,0.3-0.6H65.1z"/>
			<path class="st0" d="M65.1,94.5v43.8h-0.2c0-0.2-0.1-0.5-0.3-0.6l-1.3-1.3V94.9l0.2,0.2c0.2,0.2,0.4,0.3,0.6,0.3
				c0.2,0,0.4-0.1,0.6-0.2C64.9,95,65.1,94.8,65.1,94.5L65.1,94.5z"/>
			<path class="st0" d="M65.1,62.7v31.8h0c0-0.2-0.1-0.4-0.3-0.6l-1.5-1.5V63.6h0.8C64.6,63.6,65,63.2,65.1,62.7L65.1,62.7z"/>
			<path class="st0" d="M65.1,39.1v23.6H65c0-0.4-0.3-0.8-0.7-0.9l-1-1V40.4c0.3-0.1,0.6-0.2,0.9-0.4c0.1,0,0.2-0.1,0.3-0.1
				c0.3-0.2,0.4-0.5,0.4-0.8H65.1z"/>
			<path class="st0" d="M65.1,6.9v32.2h-0.2c0-0.2,0-0.3-0.1-0.5c-0.3-0.4-0.8-0.5-1.2-0.3c-0.1,0-0.1,0-0.2,0.1V9.5
				C64.4,8.8,65,8,65,7.1c0-0.2,0-0.5-0.1-0.7C65,6.5,65.1,6.7,65.1,6.9z"/>
			<path class="st0" d="M65,152.3c0,0.1,0,0.2,0,0.3c0,6-16.7,9.2-32.4,9.2c-0.1,0-0.3,0-0.4,0v0c0.5,0,0.9-0.4,0.9-0.9v-0.9
				c6.8,0,12.9-0.6,17.7-1.5l0.7,0.7c0.2,0.2,0.4,0.3,0.6,0.3c0.2,0,0.5-0.1,0.7-0.2c0.3-0.3,0.3-0.8,0.1-1.2
				c6.5-1.4,10.4-3.5,10.4-5.4c0-0.2,0-0.3-0.1-0.4l0.2-0.1c0.1,0.4,0.4,0.7,0.9,0.7C64.5,152.9,64.8,152.7,65,152.3z"/>
			<path class="st0" d="M64.9,6.4C65,6.6,65,6.8,65,7.1c0,0.9-0.6,1.8-1.7,2.5V7.1V6.9c0-0.5,0.4-0.9,0.9-0.9
				C64.4,6,64.7,6.2,64.9,6.4C64.9,6.4,64.9,6.4,64.9,6.4z"/>
			<path class="st0" d="M64.8,93.9c0.2,0.2,0.3,0.4,0.3,0.6c0,0.2-0.1,0.5-0.3,0.7c-0.2,0.2-0.4,0.2-0.6,0.2c-0.2,0-0.5-0.1-0.6-0.3
				l-0.2-0.2v-2.5L64.8,93.9z"/>
			<path class="st0" d="M64.7,38.6c0.1,0.2,0.1,0.3,0.1,0.5c0,0.3-0.1,0.6-0.4,0.8c-0.1,0-0.2,0.1-0.3,0.1c-0.3,0.1-0.6,0.2-0.9,0.4
				v-1.9c0.1,0,0.1-0.1,0.2-0.1C63.9,38.1,64.4,38.2,64.7,38.6z"/>
			<path class="st0" d="M64.6,137.7c0.2,0.2,0.3,0.4,0.3,0.6c0,0.2-0.1,0.5-0.3,0.6c-0.1,0.1-0.2,0.2-0.3,0.2
				c0.2-0.2,0.3-0.4,0.3-0.6c0.1-0.5-0.3-0.9-0.8-1h-0.5v-1.2L64.6,137.7z"/>
			<path class="st0" d="M63.8,137.6c0.5,0.1,0.9,0.5,0.8,1c0,0.3-0.2,0.5-0.3,0.6c-0.1,0-0.2,0-0.3,0.1h0c-0.2,0-0.4-0.1-0.6-0.3
				l-0.1-0.1v-1.3H63.8z"/>
			<path class="st0" d="M64.4,63.3c0.4-0.3,0.4-0.9,0.1-1.3l-0.2-0.2c0.4,0.1,0.7,0.5,0.7,0.9c0,0.5-0.4,0.9-0.9,0.9h-0.8v-0.3
				C63.6,63.6,64.1,63.5,64.4,63.3z"/>
			<path class="st0" d="M64.5,62c0.3,0.4,0.3,0.9-0.1,1.3c-0.3,0.3-0.8,0.3-1.1,0v-1.5h0.8c0.1,0,0.2,0,0.2,0L64.5,62z"/>
			<path class="st0" d="M64.9,6.4C64.7,6.2,64.4,6,64.2,6c-0.5,0-0.9,0.4-0.9,0.9v0.1h0c0-1.8-10.5-5.3-30.7-5.3S1.9,5.2,1.9,7.1
				H1.8V6.9C1.8,6.4,1.4,6,0.9,6C0.7,6,0.4,6.1,0.3,6.3C2.2,1.7,20.2,0,32.6,0C45,0,63.2,1.7,64.9,6.4z"/>
			<path class="st0" d="M65,152.3c-0.2,0.3-0.5,0.5-0.8,0.5c-0.4,0-0.8-0.3-0.9-0.7c0-0.1,0-0.1,0-0.2v-2.4
				C64.3,150.4,64.9,151.3,65,152.3z"/>
			<path class="st0" d="M63.3,60.8l1,1c-0.1,0-0.1,0-0.2,0h-0.8V60.8z"/>
			<path class="st0" d="M64,139.3c0.1,0,0.2,0,0.3-0.1c-0.1,0.1-0.3,0.2-0.5,0.2h-0.5v-0.5l0.1,0.1C63.5,139.2,63.7,139.3,64,139.3
				L64,139.3z"/>
			<path class="st0" d="M63.3,152c0,0.1,0,0.1,0,0.2l-0.2,0.1c-0.8-2.9-9.7-5.8-22.9-6.7l-1.9-1.9c10.8,0.5,21,2.6,24.9,5.9V152z"/>
			<polygon class="st0" points="63.3,138.9 63.3,139.4 34.1,139.4 33,138.3 33,137.6 61.9,137.6 			"/>
			<polygon class="st0" points="63.3,137.6 63.3,138.9 61.9,137.6 			"/>
			<path class="st0" d="M63.3,136.4v1.2h-1.3l-28.9-28.8l0-2.5L59,132.1v1.9c0,0.5,0.4,0.9,0.9,0.9c0,0,0,0,0,0
				c0.5,0,0.9-0.4,0.9-0.9v-0.1L63.3,136.4z"/>
			<polygon class="st0" points="63.3,92.4 63.3,94.9 60.8,92.4 60.8,89.9 			"/>
			<path class="st0" d="M63.3,63.3v0.3h-2.5v-0.8c0-0.5-0.4-0.9-0.9-0.9S59,62.3,59,62.8v0.8l-24.6,0l-1.2-1.2c0,0,0,0-0.1,0l0-0.5
				l28.6,0L63.3,63.3C63.2,63.3,63.2,63.3,63.3,63.3z"/>
			<path class="st0" d="M63.3,61.8v1.5c0,0,0,0-0.1,0l-1.5-1.5H63.3z"/>
			<path class="st0" d="M63.3,60.8v1h-1.5L41.6,41.6c1,0.2,2,0.3,3,0.5L63.3,60.8z"/>
			<path class="st0" d="M63.3,38.4v1.9c-3.8,1.5-7.9,2.3-12.1,2.3c-2.2-0.1-4.4-0.2-6.6-0.5l-2.2-2.2C48.8,41.1,55.9,41.5,63.3,38.4
				z"/>
			<path class="st0" d="M63.3,7.1v2.5c-4.9,3.2-19.4,4.5-30,4.6c0-0.5-0.4-0.9-0.9-0.9v-0.9c0.1,0,0.2,0,0.2,0
				C52.7,12.3,63.2,8.9,63.3,7.1L63.3,7.1z"/>
			<path class="st1" d="M63.1,152.2c0.1,0.1,0.1,0.3,0.1,0.4c0,1.9-3.8,4-10.4,5.4c0,0-0.1-0.1-0.1-0.1l-12.5-12.5
				C53.4,146.4,62.3,149.4,63.1,152.2z"/>
			<path class="st1" d="M41.6,41.6l20.2,20.2l-28.6,0l0-22c0.9,0.2,1.8,0.5,2.7,0.7C37.8,40.9,39.7,41.3,41.6,41.6z"/>
			<path class="st0" d="M60.8,134c0,0.5-0.4,0.9-0.9,0.9c0,0,0,0,0,0c-0.5,0-0.9-0.4-0.9-0.9v-1.9L60.8,134L60.8,134z"/>
			<polygon class="st0" points="60.8,92.4 60.8,133.9 59,132.1 59,90.6 			"/>
			<polygon class="st0" points="60.8,89.9 60.8,92.4 59,90.6 59,88.1 			"/>
			<polygon class="st0" points="60.8,63.6 60.8,89.9 59,88.1 59,63.6 			"/>
			<path class="st0" d="M60.8,62.8v0.8H59v-0.8c0-0.5,0.4-0.9,0.9-0.9S60.8,62.3,60.8,62.8z"/>
			<polygon class="st0" points="59,88.1 59,90.6 47.4,79.1 48.7,77.8 			"/>
			<path class="st1" d="M32.6,1.8c20.1,0,30.7,3.4,30.7,5.3s-10.5,5.3-30.7,5.3c-0.1,0-0.2,0-0.2,0c-20,0-30.4-3.4-30.4-5.3
				C1.9,5.2,12.4,1.8,32.6,1.8z"/>
			<path class="st0" d="M53.9,71.5c0.3,0.3,0.3,0.8,0,1.2l-5.2,5.2l-1.3-1.3l5.2-5.2C53,71.1,53.5,71.1,53.9,71.5z"/>
			<path class="st0" d="M52.8,158.1c0.3,0.4,0.2,0.9-0.1,1.2c-0.2,0.2-0.4,0.2-0.7,0.2c-0.2,0-0.5-0.1-0.6-0.3l-0.7-0.7
				C51.5,158.4,52.2,158.3,52.8,158.1z"/>
			<path class="st0" d="M52.7,158c0,0,0.1,0.1,0.1,0.1c-0.7,0.1-1.4,0.3-2.1,0.4l-13.2-13.2c0.9,0,1.8,0.1,2.7,0.1L52.7,158z"/>
			<path class="st1" d="M37.5,145.4l13.2,13.2c-4.8,0.9-10.9,1.5-17.7,1.5l0-14.8C34.6,145.3,36.1,145.3,37.5,145.4z"/>
			
				<rect x="46.5" y="76.9" transform="matrix(0.7071 -0.7071 0.7071 0.7071 -41.1378 56.3342)" class="st0" width="1.8" height="1.8"/>
			<path class="st0" d="M47.4,79.1l-4.6,4.7c-0.2,0.2-0.4,0.2-0.6,0.2c-0.2,0-0.5-0.1-0.6-0.3c-0.3-0.3-0.3-0.9,0-1.3l4.6-4.6
				L47.4,79.1z"/>
			<polygon class="st0" points="47.4,76.5 46.2,77.8 33.2,64.8 33.2,63.6 34.4,63.6 			"/>
			<path class="st0" d="M42.4,39.9l2.2,2.2c-1-0.1-2-0.3-3-0.5l-2.3-2.4C40.3,39.5,41.3,39.7,42.4,39.9z"/>
			<path class="st0" d="M33.2,30.7l9.2,9.2c-1.1-0.2-2.2-0.4-3.2-0.6l-6-6V30.7z"/>
			<path class="st0" d="M39.2,39.3l2.3,2.4c-1.9-0.3-3.8-0.8-5.7-1.3c-0.9-0.2-1.8-0.4-2.7-0.7v-1.9c1.1,0.3,2.1,0.5,3.1,0.8
				C37.2,38.8,38.2,39.1,39.2,39.3z"/>
			<path class="st0" d="M38.3,143.6l1.9,1.9c-0.9-0.1-1.8-0.1-2.7-0.1l-1.9-1.9C36.6,143.5,37.5,143.6,38.3,143.6z"/>
			<path class="st1" d="M33.2,33.2l6,6c-1-0.2-2-0.5-2.9-0.7c-1-0.2-2.1-0.5-3.1-0.8L33.2,33.2z"/>
			<path class="st0" d="M34.1,139.4l4.2,4.2c-0.9,0-1.8-0.1-2.7-0.1l-2.7-2.6v-1.5H34.1z"/>
			<path class="st0" d="M35.7,143.5l1.9,1.9c-1.5-0.1-3-0.1-4.5-0.1l0-1.8C33.9,143.5,34.8,143.5,35.7,143.5z"/>
			<path class="st0" d="M33.2,62.3l1.2,1.2h-1.3L33.2,62.3C33.2,62.3,33.2,62.3,33.2,62.3z"/>
			<polygon class="st0" points="34.1,139.4 33,139.4 33,138.3 			"/>
			<path class="st0" d="M33.2,14.1l0,16.6L33,30.5c-0.2-0.2-0.4-0.3-0.6-0.3c-0.2,0-0.5,0.1-0.6,0.3l-0.3,0.3l0-16.6
				c0.4,0,0.8,0,1.1,0C32.8,14.1,33,14.1,33.2,14.1z"/>
			<path class="st0" d="M33.2,14.1c-0.2,0-0.4,0-0.7,0c-0.4,0-0.8,0-1.1,0c0-0.5,0.4-0.9,0.9-0.9C32.8,13.2,33.2,13.6,33.2,14.1z"/>
			<path class="st0" d="M33.2,30.7v2.6l-0.9-0.9l-0.9,0.9v-2.6l0.3-0.3c0.2-0.2,0.4-0.3,0.6-0.3c0.2,0,0.5,0.1,0.6,0.3L33.2,30.7z"
				/>
			<path class="st0" d="M33.2,33.2l0,4.6c-0.2,0-0.4-0.1-0.6-0.1c-0.4-0.1-0.8-0.2-1.2-0.3l0-4.1l0.9-0.9L33.2,33.2z"/>
			<path class="st0" d="M33.2,37.8v1.9c-0.3-0.1-0.7-0.2-1-0.3c-0.3-0.1-0.5-0.1-0.8-0.2v-1.9c0.4,0.1,0.8,0.2,1.2,0.3
				C32.8,37.7,33,37.8,33.2,37.8z"/>
			<path class="st0" d="M33.2,39.7l0,22h-1.8l0-22.5c0.3,0.1,0.5,0.1,0.8,0.2C32.5,39.5,32.8,39.6,33.2,39.7z"/>
			<path class="st0" d="M33.2,61.8l0,0.5c-0.3-0.3-0.8-0.2-1.1,0c-0.4,0.3-0.4,0.8-0.1,1.2h-0.5v-1.8H33.2z"/>
			<path class="st0" d="M33.2,62.3v1.2h-1.3c-0.3-0.4-0.2-0.9,0.1-1.2C32.3,62.1,32.8,62,33.2,62.3z"/>
			<path class="st0" d="M33.2,63.6v1.3l-1.2-1.2c0,0,0,0-0.1-0.1H33.2z"/>
			<path class="st0" d="M33.2,64.8L33.1,94H33c0-0.2-0.1-0.5-0.3-0.6L31.3,92l0-28.4h0.5c0,0,0,0,0.1,0.1L33.2,64.8z"/>
			<path class="st0" d="M33.1,94l0,12.2c-0.3-0.3-0.9-0.3-1.3,0c-0.2,0.2-0.3,0.4-0.3,0.6h-0.2l0-12.3l0.1,0.1
				c0.2,0.2,0.4,0.3,0.6,0.3c0.2,0,0.5-0.1,0.6-0.3c0.2-0.2,0.3-0.4,0.3-0.6H33.1z"/>
			<path class="st0" d="M33.1,106.2l0,2.5l-1.3-1.3c-0.2-0.2-0.3-0.4-0.3-0.6c0-0.2,0.1-0.5,0.3-0.6
				C32.2,105.9,32.7,105.9,33.1,106.2z"/>
			<path class="st0" d="M33.1,108.8l0,19.9h0c0-0.2-0.1-0.5-0.3-0.6l-1.5-1.5l0-19.7h0.2c0,0.2,0.1,0.5,0.3,0.6L33.1,108.8z"/>
			<path class="st0" d="M33,128.7l0,8.9h-0.7l-1-1.1l0-7.4l0.2,0.2c0.2,0.2,0.4,0.3,0.6,0.3c0.2,0,0.5-0.1,0.6-0.3c0,0,0,0,0,0
				C32.9,129.1,33,128.9,33,128.7L33,128.7z"/>
			<polygon class="st0" points="33,137.6 33,138.3 32.3,137.6 			"/>
			<polygon class="st0" points="33,138.3 33,139.4 31.6,139.4 31.3,139.1 31.3,137.6 32.3,137.6 			"/>
			<polygon class="st0" points="33,139.4 33,140.8 31.6,139.4 			"/>
			<path class="st0" d="M33,140.8v2.6c-0.2,0-0.3,0-0.5,0c-0.4,0-0.9,0-1.3,0l0-4.1h0.3L33,140.8z"/>
			<path class="st0" d="M33,143.5l0,1.8c-0.2,0-0.3,0-0.5,0c-0.4,0-0.9,0-1.3,0v-1.8c0.4,0,0.9,0,1.3,0
				C32.7,143.5,32.9,143.5,33,143.5z"/>
			<path class="st0" d="M33,145.3l0,14.8c-0.2,0-0.3,0-0.4,0c-0.4,0-0.9,0-1.3,0l0-7h0.2c0.5,0,0.9-0.4,0.9-0.9s-0.4-0.9-0.9-0.9
				h-0.2l0-6c0.4,0,0.9,0,1.3,0C32.7,145.3,32.9,145.3,33,145.3z"/>
			<path class="st0" d="M33,160.1v0.9c0,0.5-0.4,0.9-0.9,0.9c-0.5,0-0.9-0.4-0.9-0.9V160c0.4,0,0.9,0,1.3,0
				C32.7,160.1,32.8,160.1,33,160.1z"/>
			<path class="st0" d="M33,128.7c0,0.2-0.1,0.4-0.2,0.6c0,0,0,0,0,0c-0.2,0.2-0.4,0.3-0.6,0.3c-0.2,0-0.5-0.1-0.6-0.3l-0.2-0.2v0
				v-2.6l1.5,1.5C32.9,128.2,33,128.5,33,128.7z"/>
			<path class="st0" d="M32.7,93.4c0.2,0.2,0.3,0.4,0.3,0.6c0,0.2-0.1,0.5-0.3,0.6c-0.2,0.2-0.4,0.3-0.6,0.3c-0.2,0-0.5-0.1-0.6-0.3
				l-0.1-0.1V92L32.7,93.4z"/>
			<path class="st0" d="M32.3,12.3v0.9c-0.5,0-0.9,0.4-0.9,0.9C20.8,14,6.6,12.7,1.8,9.5V7.1h0.1C1.9,8.9,12.4,12.3,32.3,12.3z"/>
			<polygon class="st0" points="32.3,137.6 31.3,137.6 31.3,136.5 			"/>
			<path class="st0" d="M32.1,161.8L32.1,161.8c-15.6,0-32-3.3-32-9.2c0-0.1,0-0.2,0-0.2c0.1,0.2,0.3,0.4,0.6,0.4h0
				c0.2,0.1,0.4,0.2,0.6,0.2H2c0.9,3.3,12.6,6.8,29.2,7v0.9C31.2,161.4,31.6,161.8,32.1,161.8z"/>
			<path class="st0" d="M31.5,151.3c0.5,0,0.9,0.4,0.9,0.9s-0.4,0.9-0.9,0.9h-0.2v-1.8H31.5z"/>
			<polygon class="st0" points="31.6,139.4 31.3,139.4 31.3,139.1 			"/>
			<path class="st0" d="M26,36.2l5.4-5.4v2.6l-3.3,3.3C27.4,36.5,26.7,36.3,26,36.2z"/>
			<path class="st0" d="M31.4,37.4v1.9c-1.6-0.4-3.2-0.8-4.8-1.1l1.5-1.5C29.2,36.9,30.3,37.1,31.4,37.4z"/>
			<polygon class="st0" points="31.4,61.8 31.4,63.6 3.2,63.5 2.3,62.6 3.2,61.7 			"/>
			<polygon class="st1" points="31.4,63.6 31.3,92 3.2,63.5 			"/>
			<polygon class="st0" points="31.3,92 31.3,94.5 1.8,64.6 1.8,63.5 3.2,63.5 			"/>
			<path class="st0" d="M31.3,126.6v2.6L1.8,99.7v-2.2c0.2,0,0.4,0.1,0.6,0.2c0,0,0,0,0,0L31.3,126.6z"/>
			<polygon class="st0" points="31.3,136.5 31.3,137.6 29.8,137.6 1.8,109.6 1.8,107.1 			"/>
			<polygon class="st0" points="31.3,137.6 31.3,139.1 29.8,137.6 			"/>
			<polygon class="st0" points="31.3,139.1 31.3,139.4 1.8,139.4 1.8,137.6 29.8,137.6 			"/>
			<path class="st0" d="M31.3,143.5v1.8c-15,0.1-26,3-28.7,6H1.8v-1.7C6.2,145.7,18.9,143.6,31.3,143.5z"/>
			<path class="st1" d="M31.3,145.3l0,6H2.6C5.2,148.3,16.2,145.4,31.3,145.3z"/>
			<path class="st0" d="M31.2,151.3v1.8H2c0-0.1-0.1-0.3-0.1-0.4c0-0.4,0.2-0.9,0.6-1.4H31.2z"/>
			<path class="st1" d="M31.2,153.1l0,7c-16.6-0.2-28.3-3.7-29.2-7H31.2z"/>
			<path class="st0" d="M28.1,36.6l-1.5,1.5c-0.7-0.2-1.4-0.3-2.1-0.4l1.5-1.6C26.7,36.3,27.4,36.5,28.1,36.6z"/>
			<path class="st0" d="M26.6,38.1L3.2,61.7H1.8v-1.1l22.7-22.9C25.2,37.8,25.9,38,26.6,38.1z"/>
			<path class="st0" d="M26,36.2l-1.5,1.6c-2.2-0.4-4.5-0.6-6.7-0.6c-5.4,0.1-12.4,1.4-16,4.4v-2.2c2-1.3,4.4-2.2,7-2.8
				c3.1-0.8,6.4-1.1,9-1.1h0.3C20.8,35.3,23.4,35.6,26,36.2z"/>
			<polygon class="st0" points="3.2,63.5 1.8,63.5 1.8,61.7 3.2,61.7 2.3,62.6 			"/>
			<path class="st0" d="M1.8,151.3h0.8c-0.4,0.5-0.6,0.9-0.6,1.4c0,0.1,0,0.3,0.1,0.4H1.3c-0.2,0-0.5-0.1-0.6-0.2c0.1,0,0.1,0,0.2,0
				c0.5,0,0.9-0.4,0.9-0.9V151.3z"/>
			<path class="st0" d="M1.8,151.3v0.7c0,0.5-0.4,0.9-0.9,0.9c-0.1,0-0.1,0-0.2,0h0c-0.2-0.2-0.3-0.4-0.3-0.7c0-0.5,0.4-0.9,0.9-0.9
				H1.8z"/>
			<path class="st0" d="M1.8,149.6v1.7H1.3c-0.5,0-0.9,0.4-0.9,0.9c0,0.3,0.1,0.5,0.3,0.7c-0.2-0.1-0.4-0.2-0.6-0.4
				C0.2,151.4,0.8,150.4,1.8,149.6z"/>
			<path class="st0" d="M1.8,139.4v10.2c-1,0.9-1.6,1.8-1.7,2.9C0.1,152.3,0,152.2,0,152v-13.5h0.1c0,0.5,0.3,0.9,0.8,0.9H1.8z"/>
			<path class="st0" d="M1.8,137.6v1.8H0.9c-0.5-0.1-0.8-0.4-0.8-0.9c0,0,0-0.1,0-0.1c0-0.4,0.4-0.8,0.8-0.8H1.8z"/>
			<path class="st0" d="M1.8,109.6v28H0.9c-0.4,0.1-0.8,0.4-0.8,0.8c0,0,0,0.1,0,0.1H0v-30.8h0.2c0,0.2,0.1,0.5,0.2,0.6L1.8,109.6z"
				/>
			<path class="st0" d="M1.8,107.1v2.6l-1.4-1.4c-0.2-0.2-0.2-0.4-0.2-0.6c0-0.2,0.1-0.5,0.3-0.7C0.8,106.6,1.4,106.6,1.8,107.1
				L1.8,107.1z"/>
			<path class="st0" d="M1.8,99.7v7.4L1.7,107c-0.4-0.4-0.9-0.4-1.3,0c-0.2,0.2-0.3,0.4-0.3,0.7H0v-45h0.2c0,0.3,0.2,0.6,0.5,0.8
				l1.2,1.2v32.9c-0.2,0-0.5,0.1-0.7,0.3c-0.3,0.4-0.3,0.9,0,1.3L1.8,99.7z"/>
			<path class="st0" d="M1.8,97.5v2.2L1.1,99c-0.3-0.3-0.3-0.9,0-1.3C1.3,97.5,1.6,97.4,1.8,97.5z"/>
			<path class="st0" d="M1.8,63.5v1.1l-1.2-1.2c0.1,0.1,0.3,0.1,0.4,0.1H1.8z"/>
			<path class="st0" d="M1.8,61.7v1.8H1.1c-0.2,0-0.3,0-0.4-0.1l-0.2-0.2c-0.3-0.4-0.3-0.9,0-1.2l0.1-0.1c0.1-0.1,0.3-0.1,0.5-0.1
				H1.8z"/>
			<path class="st0" d="M1.8,60.7v1.1H1.1c-0.2,0-0.3,0-0.5,0.1L1.8,60.7z"/>
			<path class="st0" d="M1.8,41.5v19.2l-1.2,1.2c-0.3,0.1-0.4,0.4-0.4,0.8H0V40.9h0.2c0,0.2,0.1,0.4,0.2,0.6
				C0.8,41.8,1.4,41.9,1.8,41.5C1.8,41.5,1.8,41.5,1.8,41.5z"/>
			<path class="st0" d="M1.8,39.3v2.2c0,0,0,0-0.1,0c-0.4,0.3-1,0.3-1.3-0.1c-0.1-0.2-0.2-0.4-0.2-0.6c0-0.3,0.1-0.5,0.3-0.7
				C0.9,39.8,1.4,39.5,1.8,39.3z"/>
			<path class="st0" d="M1.8,9.5v29.8c-0.4,0.3-0.8,0.6-1.2,0.9c-0.2,0.2-0.3,0.4-0.3,0.7H0V6.9c0-0.3,0.1-0.5,0.3-0.7
				C0.2,6.5,0.1,6.8,0.1,7.1C0.1,8,0.7,8.8,1.8,9.5z"/>
			<path class="st0" d="M1.8,7.1v2.5C0.7,8.8,0.1,8,0.1,7.1c0-0.3,0.1-0.5,0.2-0.8C0.4,6.1,0.7,6,0.9,6c0.5,0,0.9,0.4,0.9,0.9V7.1z"
				/>
			<path class="st0" d="M0.5,63.2l0.2,0.2c-0.3-0.2-0.5-0.4-0.5-0.8c0-0.3,0.2-0.6,0.4-0.8L0.5,62C0.1,62.3,0.1,62.9,0.5,63.2z"/>
		</g>
		<g>
		</g>
	</g>
</g>
</svg>
