<?xml version="1.0" encoding="utf-8"?>
<!-- Generator: Adobe Illustrator 25.4.1, SVG Export Plug-In . SVG Version: 6.00 Build 0)  -->
<svg version="1.1" id="Layer_1" xmlns="http://www.w3.org/2000/svg" xmlns:xlink="http://www.w3.org/1999/xlink" x="0px" y="0px"
	 viewBox="0 0 125.1 293" style="enable-background:new 0 0 125.1 293;" xml:space="preserve">
<style type="text/css">
	.st0{fill:#FFFFFF;}
	.st1{fill:#FD8612;}
	.st2{fill:#FEE12B;}
</style>
<g>
	<g id="XMLID_00000023968508497770605540000000512137904120945341_">
		<g>
			<path class="st0" d="M125.1,283v-0.4C125.2,282.7,125.2,282.8,125.1,283c0.1,0.1,0.1,0.2,0,0.3v-0.1c0,0,0,0,0,0V283z"/>
			<path class="st0" d="M125.1,176.8v-0.9C125.3,176.2,125.2,176.5,125.1,176.8z"/>
			<path class="st0" d="M123.3,178.6l1.6-1.5l0.1-0.1c0-0.1,0.1-0.1,0.1-0.2v81.4c0,0,0-0.1,0-0.2c0-0.1,0-0.2-0.1-0.2l0,0l-1.7-3.9
				V178.6z"/>
			<path class="st0" d="M123.3,109.6V85.7h0.9c0.5,0,0.9-0.4,0.9-0.9v26.8h-0.3c0,0,0-0.1,0-0.1c0-0.2,0-0.4-0.2-0.6L123.3,109.6z"
				/>
			<path class="st0" d="M123.3,79.6c0.5-0.5,1-1,1.5-1.6c0-0.1,0-0.1,0.1-0.2c0.1-0.2,0.1-0.3,0.2-0.4v7.4c0-0.5-0.4-0.9-0.9-0.9
				h-0.9V79.6z"/>
			<path class="st0" d="M123.3,113.5l1.3-1.3c0.2-0.2,0.2-0.3,0.2-0.5c0,0,0-0.1,0-0.1h0.3v64.3c0,0,0,0,0-0.1
				c0-0.1-0.1-0.1-0.1-0.1c0,0-0.1-0.1-0.1-0.1c-0.4-0.3-1-0.3-1.3,0.1l-0.3,0.3v-3.8l1.3-1.3c0.3-0.4,0.3-0.9,0-1.3
				c-0.4-0.3-0.9-0.3-1.3,0V113.5z"/>
			<path class="st0" d="M125.1,282.6v0.4h0c0-0.3,0-0.4-0.1-0.5C125.1,282.5,125.1,282.5,125.1,282.6z"/>
			<path class="st0" d="M125.1,283v0.2C125.1,283.1,125.1,283,125.1,283L125.1,283z"/>
			<path class="st0" d="M125,257.8c0.1,0.1,0.1,0.2,0.1,0.2L125,257.8z"/>
			<path class="st0" d="M125,282.4C125,282.4,125,282.4,125,282.4C125,282.4,124.9,282.4,125,282.4c-0.1-0.1-0.1-0.1-0.2-0.2
				C124.9,282.3,125,282.3,125,282.4z"/>
			<path class="st0" d="M123.3,258.3v-0.1V254l1.7,3.8l0,0l0.1,0.2c0,0.1,0,0.1,0,0.2c0,0.3-0.2,0.6-0.6,0.8c-0.1,0-0.2,0-0.3,0
				c-0.4,0-0.7-0.2-0.8-0.5L123.3,258.3z"/>
			<path class="st0" d="M125.1,283c0-0.2,0-0.4-0.2-0.6c0,0,0.1,0,0.1,0C125.1,282.6,125.1,282.7,125.1,283z"/>
			<path class="st0" d="M125.1,258.2c0,0.4-0.2,0.7-0.6,0.8C124.9,258.8,125.1,258.5,125.1,258.2z"/>
			<path class="st0" d="M124.7,76.7c0.2,0.2,0.3,0.3,0.3,0.5C124.9,77.1,124.8,76.8,124.7,76.7z"/>
			<path class="st0" d="M123.3,43.2c1-0.8,1.6-1.6,1.6-2.5c0-0.4-0.1-0.8-0.3-1.1c0.3,0.1,0.5,0.4,0.5,0.8v37H125c0-0.1,0-0.1,0-0.2
				c0-0.2-0.1-0.4-0.3-0.5c-0.4-0.3-1-0.3-1.3,0.1l-0.1,0.1V43.2z"/>
			<path class="st0" d="M124.8,111.5C124.8,111.5,124.8,111.6,124.8,111.5C124.8,111.6,124.8,111.5,124.8,111.5z"/>
			<path class="st0" d="M125.1,283.8c0,0.4-0.2,0.7-0.5,0.9c0.3-0.5,0.5-0.9,0.5-1.4V283.8z"/>
			<path class="st0" d="M124.6,110.9c0.2,0.2,0.2,0.3,0.2,0.6C124.8,111.3,124.7,111.1,124.6,110.9z"/>
			<path class="st0" d="M124.9,282.4c-0.2-0.2-0.4-0.3-0.6-0.3h0.1c0.1,0,0.3,0,0.4,0.1C124.9,282.3,124.9,282.3,124.9,282.4z"/>
			<path class="st0" d="M124.2,284.8c0.2,0,0.3-0.1,0.4-0.1C124.5,284.8,124.3,284.8,124.2,284.8z"/>
			<path class="st0" d="M124.9,177.1l-1.6,1.5v-2.5l0.3-0.3c0.3-0.4,0.9-0.4,1.3-0.1c0,0,0,0,0.1,0c0,0.1,0.1,0.1,0.1,0.1
				c0,0,0,0,0,0.1v0.9c0,0.1-0.1,0.1-0.1,0.2L124.9,177.1z"/>
			<path class="st0" d="M124.8,78c-0.5,0.6-1,1.1-1.5,1.6v-2.7l0.1-0.1c0.3-0.4,0.9-0.4,1.3-0.1c0.2,0.2,0.2,0.4,0.3,0.5
				c0,0.1,0,0.1,0,0.2c0,0.2-0.1,0.3-0.1,0.4C124.8,77.9,124.8,77.9,124.8,78z"/>
			<path class="st0" d="M124.2,284.8c0.2-0.2,0.4-0.5,0.4-0.8c0-0.1,0-0.1,0-0.2c0.2-0.1,0.4-0.3,0.5-0.5c0,0.5-0.2,0.9-0.5,1.4
				C124.5,284.7,124.4,284.8,124.2,284.8C124.2,284.8,124.2,284.8,124.2,284.8z"/>
			<path class="st0" d="M124.6,283.7l-0.7-1.6h0.4c0.2,0,0.4,0.1,0.6,0.3c0.2,0.1,0.2,0.4,0.2,0.6c0,0.1,0,0.1,0,0.2c0,0,0,0,0,0
				v0.1c-0.1,0.2-0.3,0.4-0.5,0.5V283.7z"/>
			<path class="st0" d="M124.6,170.9l-1.3,1.3v-2.6c0.4-0.3,0.9-0.3,1.3,0C124.9,170,124.9,170.5,124.6,170.9z"/>
			<path class="st0" d="M123.3,280.5L123.3,280.5v-22.2l0.1,0.2c0.1,0.3,0.4,0.5,0.8,0.5c0.1,0,0.2,0,0.3,0c0.4-0.1,0.6-0.4,0.6-0.8
				v24.4c0-0.1,0-0.1-0.1-0.1c0,0,0,0,0,0c0-0.1-0.1-0.1-0.2-0.2c0-0.1-0.1-0.2-0.2-0.4C124.4,281.4,123.9,280.9,123.3,280.5z"/>
			<path class="st0" d="M124,284.8c-0.4-0.1-0.7-0.4-0.6-0.9h0.8c0,0,0,0,0,0c0.1,0,0.2,0,0.2-0.1c0,0,0,0,0,0
				C124.6,284.2,124.5,284.6,124,284.8C124.1,284.8,124.1,284.8,124,284.8C124.1,284.8,124.1,284.8,124,284.8z"/>
			<path class="st0" d="M124.1,284.8C124.1,284.8,124.1,284.8,124.1,284.8C124.1,284.8,124.1,284.8,124.1,284.8
				C124.1,284.8,124.1,284.8,124.1,284.8z"/>
			<path class="st0" d="M123.3,110.5h0.4c0.5,0,0.9,0.4,0.9,0.9s-0.4,0.9-0.9,0.9h-0.4V110.5z"/>
			<path class="st0" d="M124.7,281.9c-0.6-0.8-1-1.1-1.4-1.4C123.9,280.9,124.4,281.4,124.7,281.9z"/>
			<path class="st0" d="M123.3,282.1h0.5l0.7,1.6v0.1c0,0,0,0,0,0c-0.1,0-0.2,0.1-0.2,0.1c0,0,0,0,0,0h-0.8h-0.1v-0.8V282.1z"/>
			<path class="st0" d="M124.6,112.2l-1.3,1.3v-1.2h0.4c0.5,0,0.9-0.4,0.9-0.9s-0.4-0.9-0.9-0.9h-0.4v-0.9l1.3,1.3
				c0.1,0.2,0.2,0.4,0.2,0.6c0,0,0,0.1,0,0.1s0,0.1,0,0.1C124.8,111.8,124.7,112,124.6,112.2z"/>
			<path class="st0" d="M124.9,40.7c0,0.9-0.6,1.7-1.6,2.5v-2.5v-0.3c0-0.5,0.4-0.9,0.9-0.9c0.1,0,0.2,0,0.2,0c0,0,0.1,0,0.1,0
				c0,0,0.1,0,0.1,0.1C124.8,39.9,124.9,40.3,124.9,40.7z"/>
			<path class="st0" d="M123.3,280.5c0.4,0.3,0.7,0.6,1.4,1.4c0.1,0.1,0.1,0.2,0.2,0.4c-0.1-0.1-0.3-0.1-0.4-0.1h-0.1h-0.4h-0.1
				l-0.5-1.1v-0.1V280.5z"/>
			<path class="st0" d="M123.6,175.8l-0.3,0.3V176l0.3-0.3c0.3-0.4,0.9-0.4,1.3-0.1c0,0,0,0.1,0.1,0.1c0,0-0.1,0-0.1,0
				C124.5,175.4,123.9,175.4,123.6,175.8z"/>
			<polygon class="st0" points="123.3,281 123.8,282.1 123.3,282.1 			"/>
			<path class="st0" d="M123.3,85.7v-1.8h0.9c0.5,0,0.9,0.4,0.9,0.9s-0.4,0.9-0.9,0.9H123.3z"/>
			<polygon class="st0" points="123.3,178.6 100,201.2 99.2,199.3 123.3,176.1 			"/>
			<polygon class="st1" points="98,196.7 123.3,172.2 123.3,176 123.3,176.1 99.2,199.3 			"/>
			<path class="st1" d="M123.3,79.6v4.3h-7.7C118.4,83,121.1,81.6,123.3,79.6z"/>
			<path class="st0" d="M123.2,283.9H123h-0.1c0.3-0.3,0.4-0.5,0.4-0.8v0.8H123.2z"/>
			<polygon class="st0" points="122.7,111.5 121.7,110.5 123.3,110.5 123.3,112.3 121.9,112.3 			"/>
			<path class="st0" d="M123.3,283.1c0-0.3-0.2-0.7-0.6-1h0.6V283.1z"/>
			<path class="st0" d="M124,284.8c-0.5,0-0.8-0.4-0.8-0.9h0.1h0.1C123.3,284.3,123.6,284.7,124,284.8z"/>
			<path class="st0" d="M123,280.1c0.1,0.2,0.2,0.3,0.3,0.3v0.1v0.4L123,280.1z"/>
			<path class="st0" d="M123.7,284.9c-0.4,0-0.7-0.2-0.8-0.5l-0.1-0.3c0.1-0.1,0.1-0.1,0.2-0.2h0.2c0,0.5,0.4,0.9,0.8,0.9
				c0,0,0,0,0.1,0c0,0,0,0,0,0c0,0,0,0,0,0c0,0,0,0,0.1,0c-0.1,0-0.1,0.1-0.2,0.1C124,284.8,123.8,284.9,123.7,284.9z"/>
			<path class="st0" d="M122.9,280.1L122.9,280.1c-0.6-0.3-1.4-0.7-2.4-1.1l0-0.1C121.4,279.4,122.2,279.7,122.9,280.1z"/>
			<path class="st0" d="M121.5,281.3l-1-2.2c0.9,0.4,1.7,0.8,2.4,1.1l0-0.1c0,0,0.1,0.1,0.1,0.1l0.3,0.8v1.1h-0.6
				C122.4,281.8,122,281.6,121.5,281.3z"/>
			<path class="st0" d="M122.9,283.9c-0.1,0-0.1,0.1-0.2,0.2v-0.2H122.9z"/>
			<path class="st0" d="M122.7,282.1c0.4,0.3,0.6,0.7,0.6,1c0,0.3-0.1,0.5-0.4,0.8h-0.2l-0.8-1.8H122.7z"/>
			<path class="st0" d="M121.5,281.3c0.5,0.3,0.9,0.5,1.2,0.8h-0.8L121.5,281.3z"/>
			<polygon class="st0" points="121.9,112.3 98,112.3 98,110.5 121.7,110.5 122.7,111.5 			"/>
			<path class="st0" d="M120.4,278.9c0,0,0.1,0,0.1,0l0,0.1C120.5,279,120.4,279,120.4,278.9L120.4,278.9z"/>
			<path class="st0" d="M108.5,248.6c0-0.1,0-0.2,0-0.2l0.3-0.2l14.1,31.9c-0.7-0.4-1.4-0.8-2.4-1.1c0,0-0.1,0-0.1,0l-13-29.3h0.2
				l0,0l0.3-0.1c0,0,0,0,0,0C108.3,249.3,108.5,249,108.5,248.6z"/>
			<path class="st0" d="M108.8,248.2l-0.3,0.2c0,0,0,0,0,0L108.8,248.2z"/>
			<path class="st0" d="M108.5,248.4c0,0.1,0,0.2,0,0.2c0,0.4-0.2,0.7-0.6,0.8c0.3-0.5,0.4-0.6,0.4-0.7c0-0.1,0-0.2-0.1-0.3
				L108.5,248.4C108.4,248.4,108.4,248.4,108.5,248.4L108.5,248.4z"/>
			<path class="st0" d="M108.4,248.3C108.4,248.3,108.4,248.4,108.4,248.3L108.4,248.3C108.4,248.4,108.4,248.4,108.4,248.3
				L108.4,248.3z"/>
			<path class="st0" d="M108.4,248.3C108.4,248.3,108.4,248.3,108.4,248.3L108.4,248.3c-0.1-0.2-0.4-0.5-0.8-0.5h-0.8l0-0.1h0.8
				C108,247.8,108.3,248,108.4,248.3z"/>
			<polygon class="st0" points="107.6,249.6 107.6,249.6 107.4,249.6 			"/>
			<path class="st0" d="M107.6,247.8c0.4,0,0.7,0.3,0.8,0.5l-0.2,0.1c0.1,0.1,0.1,0.2,0.1,0.3c0,0.1,0,0.2-0.4,0.7c0,0,0,0,0,0
				c-0.1,0-0.2,0.1-0.3,0.1l-0.8-1.7H107.6z"/>
			<path class="st0" d="M99.4,85.7l-0.3-0.3c0.3,0,0.6,0,0.9,0.1c0,0,0,0,0.1,0c0.3,0,0.7,0,1,0.1c0.7,0,1.4,0.1,2.2,0.1
				c3.4,0,7.5-0.3,11.4-1.4c0.3-0.1,0.7-0.2,1-0.3h7.7v1.8H99.4z"/>
			<polygon class="st0" points="98,87 98,85.7 99.4,85.7 123.3,109.6 123.3,110.5 121.7,110.5 			"/>
			<polygon class="st0" points="98,136.3 121.9,112.3 123.3,112.3 123.3,113.5 98,138.9 			"/>
			<path class="st0" d="M123.3,172.2L98,196.7c0-0.1,0-0.1,0-0.1v-2.5l25.3-24.5V172.2z"/>
			<path class="st0" d="M98.4,201.3c-0.4-0.3-0.4-0.9,0-1.3l0.7-0.6v0l0.1-0.1l0.8,1.9l-0.1,0.1l-0.1,0.1c-0.3,0.1-0.6,0.2-0.8,0.2
				S98.5,201.5,98.4,201.3z"/>
			<path class="st0" d="M99.1,85.4l-1.5-1.5h18c-0.3,0.1-0.7,0.2-1,0.3c-3.9,1.1-8,1.4-11.4,1.4c-0.8,0-1.5,0-2.2-0.1
				c-0.3,0-0.7,0-1-0.1c0,0,0,0-0.1,0C99.7,85.4,99.4,85.4,99.1,85.4z"/>
			<path class="st0" d="M99.1,199.4l-0.7,0.6c0,0,0,0,0,0L99.1,199.4L99.1,199.4L99.1,199.4z"/>
			<path class="st0" d="M98.6,85.4c0.1,0,0.3,0,0.5,0l0.3,0.3H98v-0.4C98.2,85.4,98.4,85.4,98.6,85.4z"/>
			<path class="st0" d="M98,85.3c0.2,0,0.4,0,0.6,0.1C98.4,85.4,98.2,85.4,98,85.3z"/>
			<path class="st0" d="M99.7,201.5l0.1-0.1l0.1-0.1l23.4,52.6v0.1v4.2L98,201.1l0,0c0,0.1,0.1,0.2,0.2,0.3c0.1,0.2,0.4,0.3,0.6,0.3
				C99.1,201.7,99.4,201.6,99.7,201.5z"/>
			<path class="st0" d="M98,196.7l-0.8-1.8l0.8-0.8V196.7C98,196.6,98,196.6,98,196.7z"/>
			<path class="st0" d="M97.6,85.3c-0.5,0-0.9-0.1-1.4-0.2V85c0-0.5,0.4-0.9,0.9-0.9S98,84.5,98,85v0.3
				C97.8,85.3,97.7,85.3,97.6,85.3z"/>
			<polygon class="st0" points="98,87 96.7,85.7 98,85.7 			"/>
			<polygon class="st0" points="96.2,110.5 96.2,86.2 96.7,85.7 98,87 98,110.5 			"/>
			<rect x="96.2" y="110.5" class="st0" width="1.8" height="1.8"/>
			<path class="st0" d="M97.9,196.8c0-0.1,0-0.1,0.1-0.2C98,196.7,98,196.7,97.9,196.8L97.9,196.8z"/>
			<path class="st0" d="M97.1,197.1c-0.5,0-0.9-0.4-0.9-0.9c0-0.2,0.1-0.5,0.3-0.6l0.7-0.8l0.8,1.8l-0.2,0.2
				C97.6,197,97.4,197.1,97.1,197.1z"/>
			<path class="st0" d="M97.6,83.9L97.6,83.9c-0.2-0.1-0.2-0.2-0.3-0.2c-0.1-0.1-0.2-0.1-0.3-0.1v-0.1c0.6,0.1,1.2,0.1,1.8,0.2
				c4.2,0.2,18.4,0.8,24.5-6.8v2.7c-2.2,2-4.9,3.4-7.7,4.3H97.6z"/>
			<path class="st0" d="M96.5,139.1c-0.1-0.3-0.2-0.5-0.2-0.7c0-0.3,0.1-0.4,0.2-0.6l1.5-1.5v2.6v0l-0.2,0.2
				C97.4,139.5,96.9,139.5,96.5,139.1z"/>
			<path class="st0" d="M106.8,247.8l-11-24.7h0.7c0.5,0,0.8-0.4,0.9-0.8l0,0c0,0,0,0,0-0.1l11.4,26l-0.4,0.1c0,0,0,0,0,0
				c-0.1-0.3-0.4-0.5-0.8-0.6h-0.8V247.8L106.8,247.8z"/>
			<path class="st0" d="M97.4,222.1L97.4,222.1l-0.4-0.8C97.2,221.5,97.4,221.8,97.4,222.1z"/>
			<path class="st0" d="M96.2,83.8c0.2-0.2,0.5-0.3,0.8-0.2c0.1,0,0.2,0,0.3,0.1c0.1,0.1,0.2,0.1,0.3,0.2L96.2,83.8L96.2,83.8z"/>
			<path class="st0" d="M96.2,196.2v-3.6l1,2.3l-0.7,0.7C96.3,195.7,96.2,196,96.2,196.2z"/>
			<path class="st0" d="M96.7,85.7h-0.5v-0.1v-0.4c0.5,0,0.9,0.1,1.4,0.1c0.1,0,0.3,0,0.4,0v0.4H96.7z"/>
			<polygon class="st0" points="96.7,85.7 96.2,86.2 96.2,85.7 			"/>
			<path class="st0" d="M96.3,138.4c0,0.2,0.1,0.4,0.2,0.7C96.3,138.9,96.3,138.7,96.3,138.4z"/>
			<path class="st0" d="M96.2,138.4v-26.1H98v24l-1.5,1.5c-0.2,0.2-0.2,0.4-0.2,0.6H96.2z"/>
			<path class="st0" d="M97.2,194.9l-1-2.3v-54.2h0.1c0,0.3,0,0.5,0.2,0.7c0.4,0.4,0.9,0.4,1.3,0l0.2-0.2v55.2L97.2,194.9z"/>
			<path class="st0" d="M97.1,197.2c-0.5,0-0.9-0.4-0.9-0.9c0,0,0,0,0-0.1C96.2,196.7,96.6,197.1,97.1,197.2
				c0.3-0.1,0.5-0.2,0.7-0.3l0.2-0.2c0,0.1,0,0.1-0.1,0.2l-0.1,0.1C97.6,197.1,97.4,197.2,97.1,197.2z"/>
			<path class="st0" d="M98,201.1l-1.8-4.1h0.1c0.1,0.3,0.5,0.6,0.8,0.6c0.5,0,0.8-0.3,0.9-0.8l1.1,2.6l-0.7,0.6c0,0,0,0,0,0
				l-0.1,0.1C98,200.4,97.9,200.8,98,201.1L98,201.1z"/>
			<path class="st0" d="M96.3,196.9c0-0.1-0.1-0.2-0.1-0.3v-0.3c0,0.5,0.4,0.9,0.9,0.9c0.3,0,0.5-0.1,0.7-0.2l0.1-0.1
				c-0.1,0.3-0.4,0.6-0.8,0.6C96.7,197.5,96.4,197.3,96.3,196.9z"/>
			<path class="st0" d="M96.3,196.9c-0.1-0.1-0.1-0.1-0.1-0.2L96.3,196.9z"/>
			<path class="st0" d="M96.2,196.2C96.2,196.3,96.2,196.3,96.2,196.2L96.2,196.2C96.2,196.2,96.2,196.2,96.2,196.2z"/>
			<path class="st0" d="M96.2,85.1L96.2,85.1c-0.3,0-0.6,0-0.9-0.1C95.6,85,95.9,85.1,96.2,85.1z"/>
			<path class="st0" d="M95,85l1.1-1.1h1.5l1.5,1.5c-0.2,0-0.4,0-0.5,0c-0.2-0.1-0.4-0.1-0.6-0.1V85c0-0.5-0.4-0.9-0.9-0.9
				s-0.9,0.4-0.9,0.9v0.1c-0.3,0-0.6-0.1-0.9-0.1C95.2,85,95.1,85,95,85z"/>
			<path class="st0" d="M95.8,223h0.7c0.5,0,0.8-0.3,0.9-0.7l0,0c-0.1,0.4-0.4,0.8-0.9,0.8h-0.7L95.8,223z"/>
			<polygon class="st0" points="95.8,223 95.8,223.1 95.8,223.1 95.8,223 			"/>
			<path class="st0" d="M96.5,223h-0.7l-0.8-1.7h1.5c0.1-0.1,0.3-0.1,0.4,0c0.1,0,0.1,0.1,0.1,0.1l0.4,0.9
				C97.3,222.7,97,223,96.5,223z"/>
			<path class="st0" d="M95.3,85c0.3,0,0.6,0.1,0.9,0.2v0.4h-1.8L95,85C95.1,85,95.2,85,95.3,85z"/>
			<path class="st0" d="M88.6,83.9h7.5L95,85c-0.2,0-0.4-0.1-0.6-0.1c-0.3,0-0.7-0.1-1-0.1c0,0,0,0,0,0c-1.1-0.2-2.1-0.4-3.2-0.6
				C89.7,84.1,89.1,84,88.6,83.9z"/>
			<polygon class="st0" points="95,221.3 95.8,223 95.8,223 95,221.3 			"/>
			<polygon class="st0" points="95,85 94.4,85.6 94.3,85.6 			"/>
			<path class="st0" d="M94.3,85.7H70.8v-1.8h17.8h0c0.5,0.1,1.1,0.2,1.6,0.3c1,0.2,2.1,0.4,3.2,0.6c0,0,0,0,0,0
				c0.3,0.1,0.7,0.1,1,0.1c0.2,0,0.4,0.1,0.6,0.1L94.3,85.7L94.3,85.7L94.3,85.7z"/>
			<path class="st1" d="M88.6,83.9H70.8v-4.5c1.4,0.3,2.7,0.7,4.1,1.1C79.3,81.7,83.9,83,88.6,83.9z"/>
			<path class="st0" d="M121.5,281.3c-4.9-2.6-19.6-5.3-41.4-6l0.2-0.8c0.1-0.4,0-0.7-0.3-0.9c15.2,0.4,32.3,2.1,40.4,5.4l0,0
				c0,0,0.1,0,0.1,0.1L121.5,281.3z"/>
			<path class="st0" d="M80,273.6c0.2,0.2,0.3,0.6,0.3,0.9l-0.2,0.8c0,0-0.1,0-0.1,0c-0.2,0-0.3,0-0.5,0l0.2-0.2l0.1-0.1
				c0.1-0.2,0.2-0.4,0.2-0.7c0-0.3-0.1-0.5-0.3-0.7c0,0,0,0,0,0C79.8,273.6,79.9,273.6,80,273.6z"/>
			<path class="st0" d="M79.7,273.6c0.1-0.1,0.2,0,0.3,0C79.9,273.6,79.8,273.6,79.7,273.6z"/>
			<path class="st0" d="M79.7,273.7C79.7,273.7,79.7,273.7,79.7,273.7C79.6,273.7,79.7,273.6,79.7,273.7c0.2,0.1,0.3,0.4,0.3,0.6
				C80,274.1,79.9,273.8,79.7,273.7z"/>
			<path class="st0" d="M79.7,273.6c0,0-0.1,0-0.2,0c0,0,0,0,0,0c-0.1-0.1-0.2-0.1-0.3-0.1c0.1,0,0.3,0,0.4,0c0,0,0.1,0,0.1,0
				c0.1-0.1,0.2,0,0.3,0.1C79.9,273.6,79.8,273.5,79.7,273.6C79.7,273.6,79.7,273.6,79.7,273.6z"/>
			<path class="st0" d="M79.5,273.6c0,0,0.1,0,0.2,0C79.7,273.6,79.6,273.6,79.5,273.6C79.6,273.6,79.6,273.6,79.5,273.6z"/>
			<path class="st0" d="M79.2,273.4c0.2,0,0.3,0.1,0.4,0.1C79.5,273.5,79.3,273.5,79.2,273.4c0,0.1-0.1,0.1-0.1,0.1c0,0-0.1,0-0.1,0
				c0,0-0.1,0-0.1,0C79,273.5,79.1,273.4,79.2,273.4z"/>
			<path class="st0" d="M78.7,274c0-0.2,0.2-0.4,0.3-0.5c0,0,0.1,0,0.1,0c0.1,0,0.3,0,0.4,0.1c0,0,0,0,0,0c0,0,0,0,0.1,0
				c0,0,0.1,0,0.1,0l0,0c0,0-0.1,0-0.1,0.1c0.1,0,0.1,0,0.1,0c0.2,0.1,0.3,0.4,0.3,0.6c0,0.2-0.1,0.4-0.2,0.6l-0.1,0.1l-0.2,0.2
				c0,0-0.1,0-0.1,0c-0.3,0-0.7,0-1.1,0L78.7,274z"/>
			<path class="st0" d="M78.9,273.5c0,0,0.1-0.1,0.2-0.1c0,0,0.1,0,0.1,0C79.1,273.4,79,273.5,78.9,273.5z"/>
			<path class="st0" d="M78.6,273.5c0.2-0.1,0.3-0.1,0.5-0.1c-0.1,0-0.1,0-0.2,0.1h0C78.8,273.5,78.7,273.5,78.6,273.5z"/>
			<path class="st0" d="M78.2,275.2c0,0,0.1,0,0.1,0c0.4,0,0.8,0,1.1,0l-1.7,1.7L78.2,275.2z"/>
			<path class="st0" d="M77,275.1l1.4-1.4c0.1-0.1,0.1-0.1,0.2-0.2c0.1,0,0.2,0,0.3,0c-0.2,0.1-0.3,0.3-0.3,0.5l-0.4,1.2
				C77.8,275.2,77.4,275.2,77,275.1z"/>
			<path class="st0" d="M78.2,275.2c-0.4,0-0.9,0-1.3,0l0.1-0.1C77.4,275.2,77.8,275.2,78.2,275.2z"/>
			<path class="st0" d="M76,282.7l1.7-5.7l1.7-1.7c0,0,0.1,0,0.1,0c0.2,0,0.3,0,0.5,0l-2,6.8h43.9l0.8,1.8H76.8
				c-0.3,0-0.6-0.1-0.7-0.4C75.9,283.3,75.9,283,76,282.7z"/>
			<path class="st0" d="M76.9,275.1C76.9,275.1,76.9,275.1,76.9,275.1v0.1c0,0-0.1,0-0.1,0L76.9,275.1z"/>
			<path class="st0" d="M78.4,273.7l-1.4,1.4c0,0-0.1,0-0.1,0l-0.1,0.1c-2,0-3.9-0.1-6-0.1v-1.7c2.5,0,5.1,0,7.8,0.1
				C78.5,273.5,78.4,273.6,78.4,273.7z"/>
			<path class="st0" d="M88.6,83.8c-4.7-0.9-9.2-2.2-13.7-3.4c-1.4-0.4-2.7-0.8-4.1-1.1v-1.8c1.5,0.4,3.1,0.8,4.6,1.3
				c7,1.8,14.3,3.9,21.6,4.6v0.1c-0.3,0-0.6,0-0.8,0.2l-0.1,0.1H88.6z"/>
			<path class="st0" d="M74.4,217.6c0.2,0.2,0.2,0.4,0.2,0.6s-0.1,0.4-0.2,0.6l-2.3,2.3h-1.3V220l2.4-2.4
				C73.5,217.2,74.1,217.2,74.4,217.6z"/>
			<path class="st0" d="M70.8,139.5v-4.4l25.4,57.5v3.6v0.1v0.3c0,0,0,0,0,0.1L70.8,139.5z"/>
			<polygon class="st0" points="95.8,223 70.8,223 70.8,222.5 72.1,221.2 95,221.2 95,221.3 95,221.3 			"/>
			<polygon class="st0" points="70.8,221.2 72.1,221.2 70.8,222.5 			"/>
			<polygon class="st0" points="70.8,108.8 94.3,85.7 96.2,85.7 96.2,86.2 71.6,110.5 70.8,110.5 			"/>
			<polygon class="st0" points="96.2,112.3 70.8,112.3 70.8,111.2 71.6,110.5 96.2,110.5 			"/>
			<polygon class="st0" points="70.8,111.2 70.8,110.5 71.6,110.5 			"/>
			<path class="st0" d="M70.8,162.7v-0.8L97,221.4c0,0-0.1-0.1-0.1-0.1c-0.1-0.1-0.2-0.1-0.4-0.1H95l-24.2-55v-2.7
				c0.1-0.1,0.1-0.3,0.1-0.4c0-0.1,0-0.1,0-0.2C70.9,162.9,70.9,162.8,70.8,162.7L70.8,162.7C70.8,162.7,70.8,162.7,70.8,162.7z"/>
			<path class="st0" d="M107.4,249.6H70.8v-0.7c0,0,0.1-0.1,0.1-0.1c0.1-0.1,0.1-0.2,0.1-0.3c0,0,0-0.1,0-0.1c0-0.2,0-0.4-0.1-0.5
				h35.9l0.8,1.8L107.4,249.6z"/>
			<path class="st0" d="M70.8,248.9l0.1-1.1c0.1,0.2,0.1,0.3,0.1,0.5c0,0.1,0,0.1,0,0.1c0,0.1-0.1,0.2-0.1,0.3
				C70.9,248.8,70.8,248.9,70.8,248.9z"/>
			<path class="st0" d="M70.9,248.8c0.1-0.1,0.1-0.2,0.1-0.3C71,248.6,71,248.7,70.9,248.8z"/>
			<path class="st0" d="M70.9,283.3C70.9,283.2,70.9,283.2,70.9,283.3L70.9,283.3C70.9,283.2,70.9,283.2,70.9,283.3z"/>
			<path class="st0" d="M70.9,162.9c0,0.1,0,0.2,0,0.2c0,0.1,0,0.3-0.1,0.4v-0.8c0,0,0,0.1,0.1,0.1v0
				C70.9,162.8,70.9,162.9,70.9,162.9z"/>
			<path class="st0" d="M70.8,247.8v-0.2C70.8,247.6,70.9,247.7,70.8,247.8L70.8,247.8z"/>
			<polygon class="st0" points="70.8,248.9 70.8,249.6 70.1,249.6 			"/>
			<polygon class="st0" points="70.8,222.5 70.8,223 70.3,223 			"/>
			<polygon class="st0" points="69.6,221.2 70.8,220 70.8,221.1 70.8,221.2 			"/>
			<path class="st0" d="M70.3,165.2c0-0.1,0-0.2,0-0.2V165.2c0.1-0.4,0.1-0.9,0.1-1.3c0.2-0.1,0.2-0.1,0.3-0.3c0,0,0.1-0.1,0.1-0.1
				v2.7L70.3,165.2z"/>
			<polygon class="st0" points="70.8,111.2 70.8,112.3 69.7,112.3 			"/>
			<polygon class="st0" points="70.8,108.8 70.8,110.5 69.1,110.5 			"/>
			<polygon class="st0" points="69,157.8 69,135.5 70.8,139.5 70.8,161.9 70.8,161.9 			"/>
			<path class="st0" d="M69,49.1c0-0.5,0.4-0.9,0.9-0.9s0.9,0.4,0.9,0.9v0.8c-0.2,0-0.4,0-0.6,0c-0.4,0-0.8,0-1.2,0V49.1z"/>
			<path class="st0" d="M69,77V49.9c0.4,0,0.8,0,1.2,0c0.2,0,0.4,0,0.6,0v27.6C70.2,77.3,69.6,77.2,69,77z"/>
			<path class="st0" d="M69,77.1L69,77.1c0.6,0.1,1.2,0.3,1.8,0.4v1.8c-0.6-0.2-1.2-0.3-1.8-0.5V77.1z"/>
			<path class="st0" d="M69,83.9v-5c0.6,0.2,1.2,0.3,1.8,0.5v4.5H69z"/>
			<polygon class="st0" points="69,83.9 70.8,83.9 70.8,85.7 69,85.7 69,84 			"/>
			<polygon class="st0" points="69,110.5 69,85.7 70.8,85.7 70.8,108.8 69.1,110.5 			"/>
			<polygon class="st0" points="69,113 69.7,112.3 70.8,112.3 70.8,135.1 69,131 			"/>
			<path class="st0" d="M69,221.2v-49c0.8-2.2,1.2-4.6,1.3-7l0.5,1V220l-1.2,1.2H69z"/>
			<path class="st0" d="M69,250.7l1.1-1.1h0.7v23.8c-0.2,0-0.4,0-0.6,0c-0.4,0-0.8,0-1.2,0V250.7z"/>
			<path class="st0" d="M69,275.1v-1.7c0.4,0,0.8,0,1.2,0c0.2,0,0.4,0,0.6,0v1.7c-0.2,0-0.4,0-0.6,0C69.8,275.1,69.4,275.1,69,275.1
				z"/>
			<path class="st0" d="M69,282.3v-7.2c0.4,0,0.8,0,1.2,0c0.2,0,0.4,0,0.6,0v6v0.1l-1.1,1.1H69z"/>
			<path class="st0" d="M70.8,282.8c-0.1-0.2-0.3-0.4-0.6-0.4c-0.1,0-0.2,0-0.2,0h-0.3l1.1-1.1L70.8,282.8L70.8,282.8L70.8,282.8z"
				/>
			<path class="st0" d="M69,162.2v-4.3l1.8,4l0,0v0.8c-0.1-0.3-0.5-0.5-0.7-0.5H70H69L69,162.2z"/>
			<path class="st0" d="M77.7,276.9l-7,6.9c0,0,0,0-0.1,0c0.2-0.2,0.2-0.4,0.3-0.6c0,0,0-0.1,0-0.1v0c0,0,0-0.1,0-0.1s0-0.1,0-0.1
				c0-0.1,0-0.2-0.1-0.3v-1.5v-0.1l6-5.9c0,0,0.1,0,0.1,0c0.4,0,0.9,0,1.3,0L77.7,276.9z"/>
			<path class="st0" d="M70.8,282.8c-0.2-0.2-0.3-0.4-0.6-0.4C70.5,282.4,70.7,282.6,70.8,282.8z"/>
			<polygon class="st0" points="69,135.5 69,131 70.8,135.1 70.8,139.5 			"/>
			<path class="st0" d="M70.4,283.9c0.3-0.1,0.4-0.3,0.5-0.6c0,0.2-0.1,0.4-0.3,0.6l0,0C70.6,283.9,70.5,283.9,70.4,283.9z"/>
			<path class="st0" d="M70.4,163.9c0.2-0.1,0.2-0.1,0.3-0.2C70.6,163.7,70.6,163.8,70.4,163.9C70.4,163.9,70.4,163.9,70.4,163.9z"
				/>
			<path class="st0" d="M70.4,163.9c0,0.4,0,0.9,0,1.3l-0.1-0.2C70.3,164.6,70.3,164.3,70.4,163.9C70.3,164,70.3,164,70.4,163.9
				C70.3,163.9,70.4,163.9,70.4,163.9z"/>
			<path class="st0" d="M70.4,163.9C70.4,163.9,70.4,163.9,70.4,163.9c0,0.1-0.1,0.1-0.1,0.1h0C70.3,163.9,70.3,163.9,70.4,163.9
				C70.3,163.9,70.4,163.9,70.4,163.9z"/>
			<path class="st0" d="M69.3,247.8l0.2-0.2c0.4-0.4,0.9-0.4,1.3,0v0.2H69.3z"/>
			<path class="st0" d="M70.3,164C70.3,164,70.3,164,70.3,164C70.3,164,70.3,164,70.3,164L70.3,164z"/>
			<path class="st0" d="M70.3,164C70.3,164,70.3,164,70.3,164c0,0-0.1,0-0.1,0C70.2,164,70.3,164,70.3,164z"/>
			<polygon class="st0" points="70.3,223 69,223 69,221.8 69.6,221.2 70.8,221.2 70.8,222.5 			"/>
			<polygon class="st0" points="70.3,223 69,224.3 69,223 			"/>
			<path class="st0" d="M70.2,164c0,0,0.1,0,0.1,0c0,0.3,0,0.7,0,1l-0.4-1H70C70.1,164,70.1,164,70.2,164z"/>
			<path class="st0" d="M70.2,282.3c-0.1,0-0.1,0-0.2,0C70.1,282.3,70.1,282.3,70.2,282.3z"/>
			<path class="st0" d="M70.8,49.1c0-0.5-0.4-0.9-0.9-0.9v-0.1c0.1,0,0.2,0,0.3,0c32.8,0,52.9-4.3,52.9-7.4h0.2v2.5
				c-6.8,4.9-33.4,6.7-52.5,6.7V49.1z"/>
			<path class="st0" d="M70.1,162.2c0.2,0,0.6,0.2,0.7,0.5C70.6,162.4,70.3,162.2,70.1,162.2L70.1,162.2z"/>
			<polygon class="st0" points="70.1,249.6 69,250.7 69,249.6 			"/>
			<path class="st0" d="M69.2,283.5c0-0.1-0.1-0.2-0.1-0.3c0-0.2,0.1-0.5,0.3-0.6l0.3-0.3H70c0.1,0,0.2,0,0.2,0
				c0.2,0.1,0.4,0.2,0.6,0.4h0v0v0.2c0,0.5-0.4,0.9-0.9,0.9c-0.1,0-0.2,0-0.2,0C69.5,283.8,69.3,283.6,69.2,283.5z"/>
			<path class="st0" d="M69,164h0.8l0.5,1.2c-0.1,2.4-0.6,4.8-1.3,7V164z"/>
			<polygon class="st0" points="69.7,112.3 69,113 69,112.3 			"/>
			<path class="st0" d="M70,284.1c-0.4,0-0.7-0.2-0.8-0.6c0.1,0.2,0.3,0.3,0.5,0.4c0.1,0,0.1,0,0.2,0c0.5,0,0.9-0.4,0.9-0.9v-0.2
				c0,0,0.1,0.1,0.1,0.2c0,0,0,0.1,0,0.1s0,0.1,0,0.1c0,0,0,0.1,0,0.1c-0.1,0.3-0.2,0.5-0.5,0.6c0.1,0,0.2,0,0.2-0.1
				c-0.1,0.1-0.2,0.2-0.4,0.2C70.1,284.1,70,284.1,70,284.1z"/>
			<polygon class="st0" points="69.6,221.2 69,221.8 69,221.2 			"/>
			<path class="st0" d="M69.8,164l-0.5-1.3c0.1,0,0.2,0,0.2,0c0.5,0,0.9,0.4,0.9,0.9c0,0.1,0,0.2,0,0.3c0,0-0.1,0-0.1,0
				c0,0,0,0,0,0.1c0,0-0.1,0-0.1,0c-0.1,0-0.1,0-0.2,0H69.8L69.8,164z"/>
			<path class="st0" d="M69.7,283.9c-0.2-0.1-0.4-0.2-0.5-0.4C69.3,283.6,69.5,283.8,69.7,283.9z"/>
			<path class="st0" d="M69,247.8v-23.5l1.3-1.3h0.5v24.6c-0.4-0.4-0.9-0.4-1.3,0l-0.2,0.2H69z"/>
			<path class="st0" d="M69.3,162.7l-0.2-0.5H70c0.3,0,0.6,0.2,0.8,0.5v0.8c0,0.1-0.1,0.1-0.1,0.1c-0.1,0.1-0.2,0.2-0.3,0.2
				c0-0.1,0-0.2,0-0.3c0-0.5-0.4-0.9-0.9-0.9C69.5,162.7,69.4,162.7,69.3,162.7z"/>
			<polygon class="st0" points="69.3,247.8 69,248.1 69,247.8 			"/>
			<polygon class="st0" points="70.1,249.6 69,249.6 69,248.1 69.3,247.8 70.8,247.8 70.8,248.9 			"/>
			<path class="st0" d="M69,162.9c0.1-0.1,0.2-0.1,0.3-0.2l0.5,1.3H69v-0.1V162.9z"/>
			<polygon class="st0" points="69.1,110.5 69,110.6 69,110.5 			"/>
			<polygon class="st0" points="69.7,112.3 69,112.3 69,110.6 69.1,110.5 70.8,110.5 70.8,111.2 			"/>
			<path class="st0" d="M69,162.3v-0.1l0.2,0.5c-0.1,0-0.1,0.1-0.2,0.1V162.3z"/>
			<path class="st0" d="M69.1,283.4c-0.1-0.1-0.1-0.3-0.1-0.4v-0.7h0.7l-0.3,0.3c-0.2,0.1-0.3,0.4-0.3,0.6
				C69.1,283.3,69.1,283.3,69.1,283.4z"/>
			<path class="st0" d="M68.6,163.7c0-0.4,0.2-0.6,0.4-0.8v1h-0.4C68.6,163.8,68.6,163.7,68.6,163.7z"/>
			<path class="st0" d="M69,162.3v0.5c0,0-0.1,0-0.1,0L69,162.3L69,162.3z"/>
			<polygon class="st0" points="69,162.3 69,162.3 69,162.2 			"/>
			<path class="st0" d="M69,85.7H49l0-0.1l-0.6-1.4c0.2-0.2,0.4-0.2,0.6-0.2H69V85.7z"/>
			<path class="st1" d="M69,78.9v5H48.9c-0.2,0-0.5,0.1-0.6,0.2l-4-9c4,0.1,8.4,0.5,12.9,1.3c3.9,0.7,7.6,1.4,11.4,2.4
				C68.7,78.8,68.9,78.9,69,78.9z"/>
			<polygon class="st0" points="67.3,112.3 69,110.6 69,112.3 			"/>
			<polygon class="st0" points="67.8,223 69,221.8 69,223 			"/>
			<polygon class="st0" points="67.5,249.6 69,248.1 69,249.6 			"/>
			<path class="st0" d="M67.8,223H69v1.3l-2.9,2.9c-0.1,0.1-0.3,0.2-0.6,0.2c-0.5,0-0.9-0.4-0.9-0.9c0-0.2,0.1-0.4,0.3-0.6L67.8,223
				z"/>
			<path class="st0" d="M68.6,163.5c0-0.2,0.2-0.5,0.4-0.7v0.1c-0.2,0.2-0.4,0.4-0.4,0.8C68.6,163.6,68.6,163.5,68.6,163.5z"/>
			<path class="st2" d="M68.6,164.1H43.8c0,0,0-0.1,0-0.1h24.8C68.6,164,68.6,164.1,68.6,164.1z"/>
			<path class="st1" d="M68.6,164.1c-0.2,13.6-11.3,24.8-25,25.1v-24.9c0.1-0.1,0.2-0.2,0.2-0.3c0,0,0,0.1,0,0.1H68.6z"/>
			<polygon class="st0" points="67.8,223 43.6,223 43.6,221.5 43.6,221.2 69,221.2 69,221.8 			"/>
			<polygon class="st0" points="69,110.6 67.3,112.3 60.7,112.3 59.9,110.5 69,110.5 			"/>
			<polygon class="st0" points="62.7,116.8 67.3,112.3 69,112.3 69,113 63.5,118.5 			"/>
			<polygon class="st0" points="62.1,119.8 63.5,118.5 69,131 69,135.5 			"/>
			<polygon class="st0" points="62.7,116.8 63.5,118.5 62.1,119.8 61.3,118.1 			"/>
			<polygon class="st0" points="62.1,119.8 55.2,126.6 54.5,124.9 61.3,118.1 			"/>
			<path class="st0" d="M59.9,110.5l0.8,1.8h-0.1h-1.1c-0.2,0-0.4-0.1-0.5-0.2c-0.1-0.1-0.2-0.2-0.3-0.5c0-0.1-0.1-0.2-0.1-0.3
				c0-0.5,0.4-0.9,0.9-0.9H59.9z"/>
			<path class="st0" d="M58.6,111.7C58.6,111.7,58.6,111.7,58.6,111.7v0.1V111.7L58.6,111.7z"/>
			<path class="st0" d="M59.5,112.3h1.1l2.1,4.5l-1.4,1.3l-2.8-6.3l0.1-0.1l0,0.1l0,0c0.1,0.2,0.2,0.3,0.4,0.4
				C59.1,112.2,59.3,112.3,59.5,112.3L59.5,112.3z"/>
			<polygon class="st0" points="55.2,126.6 69,157.8 69,157.9 69,162.2 53.9,127.9 			"/>
			<polygon class="st0" points="54.5,124.9 55.2,126.6 53.9,127.9 53.2,126.2 54.5,124.9 			"/>
			<path class="st0" d="M69,49.9c-11.7,0-26-0.8-36.9-2.4l-0.9-2c9.1,1.5,22.3,2.6,38.7,2.6v0.1c-0.5,0-0.9,0.4-0.9,0.9V49.9z"/>
			<path class="st0" d="M69,275.1c-9.8,0-18.6,0.5-25.8,1.2c0.2,0,0.4-0.1,0.5-0.3l1.6-1.6c7.9-0.7,16.4-1,23.7-1V275.1z"/>
			<path class="st0" d="M48.3,84.2l0.6,1.4L48.3,84.2C48.3,84.2,48.3,84.2,48.3,84.2z"/>
			<path class="st0" d="M49,85.6L49,85.6c-0.2,0.1-0.4,0-0.5,0c-0.2-0.2-0.4-0.4-0.4-0.7c0-0.3,0.1-0.5,0.3-0.7L49,85.6z"/>
			<path class="st0" d="M47,112.3h0.4c0.5,0,0.9-0.4,0.9-0.9c0,0,0,0,0-0.1c0,0,0,0,0,0c0,0,0,0,0,0c0,0,0-0.1,0-0.1c0,0,0,0,0-0.1
				l0.1-0.1l6.1,13.9l-1.3,1.3L47,112.3z"/>
			<path class="st0" d="M48.3,84.2C48.3,84.2,48.3,84.2,48.3,84.2L48.3,84.2C48.3,84.1,48.3,84.1,48.3,84.2L48.3,84.2z"/>
			<path class="st0" d="M48.3,84.1L48.3,84.1c-0.2,0.3-0.3,0.5-0.3,0.7c0,0,0,0,0,0C48,84.5,48.1,84.3,48.3,84.1z"/>
			<path class="st0" d="M48.3,111.3C48.3,111.3,48.3,111.3,48.3,111.3C48.3,111.3,48.3,111.3,48.3,111.3
				C48.3,111.3,48.3,111.3,48.3,111.3z"/>
			<path class="st0" d="M48.2,111.1C48.2,111.1,48.2,111.1,48.2,111.1C48.2,111.1,48.2,111.1,48.2,111.1L48.2,111.1z"/>
			<path class="st0" d="M47,112.2l-0.3-0.7l-0.4-1h1.1c0.3,0,0.7,0.3,0.8,0.6c0,0,0,0,0,0.1c0,0,0,0.1,0,0.1c0,0,0,0.1,0,0.1
				c0,0.5-0.4,0.9-0.9,0.9H47z"/>
			<path class="st0" d="M47.4,110.5h-1.1h-0.1l0-0.1L47.4,110.5c0.4,0,0.7,0.2,0.8,0.5c0,0,0,0.1,0,0.1l0,0
				C48.1,110.8,47.7,110.5,47.4,110.5z"/>
			<polygon class="st0" points="46.7,111.5 46.2,110.5 46.3,110.5 			"/>
			<path class="st0" d="M44.3,75c4.1,0.1,8.4,0.6,12.9,1.3c3.9,0.8,7.6,1.5,11.4,2.5c-3.8-1-7.5-1.7-11.4-2.4
				C52.7,75.6,48.3,75.2,44.3,75L44.3,75z"/>
			<path class="st0" d="M43.6,274.6v-1.1l23.9-23.9H69v1.1l-23.7,23.7C44.7,274.5,44.2,274.5,43.6,274.6z"/>
			<path class="st0" d="M43.6,189.2c13.7-0.3,24.8-11.4,25-25.1c0,0,0-0.1,0-0.1H69v8.2c-3.6,10.7-13.6,18.5-25.4,18.8V189.2z"/>
			<path class="st0" d="M43.5,73.3c4.4,0.1,9,0.5,14,1.3c3.8,0.7,7.7,1.5,11.5,2.5v1.7v0.1c-0.1,0-0.3-0.1-0.4-0.1
				c-3.8-1-7.5-1.7-11.4-2.5c-4.5-0.7-8.8-1.2-12.9-1.3l0,0.1c0,0,0,0,0,0L43.5,73.3z"/>
			<path class="st0" d="M58.6,111.7L42.3,75.1c0.7,0,1.3,0,2,0l4,9c-0.2,0.2-0.3,0.4-0.3,0.7c0,0,0,0,0,0c0,0,0,0,0,0.1
				c0,0.2,0.2,0.5,0.4,0.7c0.2,0.1,0.4,0.1,0.6,0.1l10.9,24.8h-0.4c-0.5,0-0.9,0.4-0.9,0.9c0,0.1,0,0.2,0.1,0.3L58.6,111.7
				C58.6,111.7,58.6,111.7,58.6,111.7L58.6,111.7z"/>
			<path class="st0" d="M43.2,162.3H69l-0.1,0.5c0,0,0.1,0,0.1,0v0c-0.2,0.2-0.4,0.5-0.4,0.7c0,0.1,0,0.1,0,0.2c0,0.1,0,0.1,0,0.2
				c0,0,0,0.1,0,0.1H43.8c0-0.2,0-0.3,0-0.5L43.2,162.3z"/>
			<path class="st0" d="M43.8,164c0,0.1-0.1,0.2-0.2,0.3C43.7,164.2,43.7,164.1,43.8,164z"/>
			<path class="st0" d="M43.6,164.3V164h0.1h0.1C43.7,164.1,43.7,164.2,43.6,164.3z"/>
			<polygon class="st0" points="43.6,249.5 43.6,247.7 69,247.8 69,248.1 67.5,249.6 			"/>
			<path class="st0" d="M43.6,221.5v1.5h-1.1l0.8-0.8C43.5,222,43.6,221.7,43.6,221.5z"/>
			<path class="st0" d="M41.8,189.2c0.4,0,0.8,0,1.2,0c0.2,0,0.4,0,0.6,0v1.8c-0.2,0-0.4,0-0.6,0c-0.4,0-0.8,0-1.2,0V189.2z"/>
			<path class="st0" d="M41.8,191c0.4,0,0.8,0,1.2,0c0.2,0,0.4,0,0.6,0v30.2h-0.1c0-0.1-0.1-0.2-0.2-0.3c-0.4-0.4-1-0.4-1.3,0
				l-0.2,0.2V191z"/>
			<polygon class="st0" points="41.8,223.8 42.4,223.1 42.5,223 43.6,223 43.6,247.7 41.8,247.7 			"/>
			<rect x="41.8" y="247.7" class="st0" width="1.8" height="1.8"/>
			<polygon class="st0" points="43,274.1 41.8,272.9 41.8,249.5 43.6,249.5 43.6,273.5 			"/>
			<path class="st0" d="M41.8,274.8c0.4-0.1,0.8-0.1,1.2-0.2c0.2,0,0.4,0,0.6,0v0.2c0,0.5-0.4,0.9-0.9,0.9S41.8,275.3,41.8,274.8z"
				/>
			<path class="st0" d="M42.9,164.7c-0.3,0-0.7-0.2-0.8-0.5L42,164h1.5h0.1v0.3c-0.1,0.1-0.2,0.2-0.3,0.3
				C43.1,164.7,43,164.7,42.9,164.7z"/>
			<path class="st0" d="M43.2,276.3C43.2,276.3,43.1,276.3,43.2,276.3C43.1,276.3,43.2,276.3,43.2,276.3z"/>
			<path class="st0" d="M41.8,274.7c0.4,0,0.8,0,1.2-0.1c-0.4,0-0.8,0.1-1.2,0.2V274.7z"/>
			<path class="st0" d="M43.5,163.6c0-0.4-0.4-0.8-0.8-0.8c0,0-0.1,0-0.1,0c0,0,0,0,0.1,0c0,0,0.1,0,0.1,0
				C43.2,162.8,43.6,163.2,43.5,163.6l0.1,0.4h-0.1V163.6z"/>
			<path class="st0" d="M41.8,221.6c0.2-0.2,0.4-0.3,0.7-0.3h1v-0.1c0.1,0.1,0.1,0.2,0.1,0.3c0,0.2-0.1,0.5-0.3,0.7l-0.8,0.8
				c-0.3,0-0.5-0.1-0.7-0.3v-0.1V221.6z"/>
			<path class="st0" d="M41.8,163.6c0.1-0.4,0.4-0.8,0.8-0.8c0,0,0.1,0,0.1,0c0.4,0,0.8,0.4,0.8,0.8v0.4H42L41.8,163.6z"/>
			<path class="st0" d="M42.3,75.1l-0.8-1.8c0.7,0,1.3,0,2,0l0.8,1.8C43.6,75.1,43,75.1,42.3,75.1z"/>
			<path class="st0" d="M43,274.6c-0.4,0-0.8,0.1-1.2,0.1V273l1.2,1.2l0.6-0.7v1.1C43.4,274.6,43.2,274.6,43,274.6z"/>
			<path class="st0" d="M42.4,223.1l-0.6,0.6v-1c0.2,0.2,0.4,0.3,0.7,0.3L42.4,223.1z"/>
			<path class="st0" d="M42.6,162.8c-0.4,0-0.7,0.3-0.9,0.7l-0.6-1.3H43l0.7,1.2c0.1,0.2,0.1,0.4,0,0.6h-0.1v-0.4
				c0-0.4-0.4-0.8-0.8-0.8C42.8,162.8,42.7,162.8,42.6,162.8C42.6,162.8,42.6,162.8,42.6,162.8z"/>
			<path class="st0" d="M42.1,164.2c0.1,0.3,0.5,0.5,0.8,0.5c0.1,0,0.2,0,0.4-0.1c0.1-0.1,0.2-0.2,0.3-0.3v24.9c-0.2,0-0.4,0-0.6,0
				c-0.4,0-0.8,0-1.2,0V164H42L42.1,164.2z"/>
			<polygon class="st0" points="41.8,163.6 42,164 41.8,164 			"/>
			<polygon class="st0" points="41.8,223.7 42.4,223.1 41.8,223.8 			"/>
			<path class="st0" d="M43.3,220.9c0.1,0.1,0.2,0.2,0.2,0.3h-1c-0.3,0-0.5,0.1-0.7,0.3v-0.4l0.2-0.2
				C42.3,220.5,42.9,220.5,43.3,220.9z"/>
			<polygon class="st0" points="41.8,249.5 18.6,249.5 17.7,248.6 18.6,247.7 41.8,247.7 			"/>
			<path class="st0" d="M41.7,221.8c0-0.1,0.1-0.2,0.1-0.3v0.1v1c-0.1-0.2-0.2-0.4-0.2-0.6C41.6,222,41.6,221.9,41.7,221.8z"/>
			<path class="st1" d="M41.8,164v25.2c-11.7-0.6-21.5-9.1-23.8-20.3c-0.3-1.6-0.5-3.2-0.6-4.9H41.8z"/>
			<path class="st0" d="M41.8,274.8c0,0.5,0.4,0.9,0.9,0.9s0.9-0.4,0.9-0.9v-0.2c0.6-0.1,1.1-0.1,1.7-0.2l-1.6,1.6
				c-0.2,0.2-0.4,0.2-0.5,0.3c0,0,0,0,0,0c0,0-0.1,0-0.1,0c-0.2,0-0.5-0.1-0.6-0.3l-1.2-1.2c0.2,0,0.4,0,0.6-0.1V274.8z"/>
			<path class="st0" d="M41.1,162.2l0.6,1.3c0,0,0,0.1,0,0.1L41.1,162.2L41.1,162.2z"/>
			<path class="st0" d="M41.7,221.8c0,0.1,0,0.2,0,0.2c0,0,0,0,0-0.1C41.6,221.9,41.6,221.9,41.7,221.8z"/>
			<path class="st0" d="M18.6,247.7h-1.4v-1.2l24.6-25.4v0.4c0,0.1-0.1,0.2-0.1,0.3c0,0.1-0.1,0.1-0.1,0.2c0,0,0,0,0,0.1
				c0,0,0,0,0,0.1c0,0.2,0.1,0.4,0.2,0.6v1v0.1L18.6,247.7z"/>
			<polygon class="st0" points="53.9,127.9 35.3,146.3 34.4,144.6 53.2,126.2 			"/>
			<polygon class="st0" points="35.3,146.3 43.1,162.2 43,162.2 41.1,162.2 33.9,147.6 			"/>
			<polygon class="st0" points="35.3,146.3 33.9,147.6 33.1,145.9 34.4,144.6 			"/>
			<path class="st0" d="M42.3,75.1c-3.3,0-6.5,0.2-9.5,0.6L32,74c3-0.4,6.2-0.7,9.5-0.7L42.3,75.1z"/>
			<path class="st0" d="M32.8,75.7L48.3,111l-0.1,0.1c0,0,0-0.1,0-0.1c-0.1-0.3-0.4-0.5-0.8-0.6h-1.2l0,0.1h0L31,76
				C31.6,75.9,32.2,75.8,32.8,75.7z"/>
			<path class="st0" d="M32.8,75.7c-0.6,0.1-1.2,0.2-1.8,0.3l0-0.1C31.6,75.8,32.2,75.7,32.8,75.7z"/>
			<path class="st0" d="M41.5,73.3L29.9,47.1c0,0,0,0,0.1,0l0,0.1c0.3,0,0.7,0.1,1,0.1c0.4,0.1,0.7,0.1,1.1,0.2l11.4,25.8
				C42.8,73.3,42.2,73.3,41.5,73.3z"/>
			<path class="st0" d="M32,74l0.8,1.7c-0.6,0-1.2,0.1-1.8,0.2l0,0.1c0,0,0,0,0,0l-0.7-1.7c0.2-0.1,0.5-0.1,0.8-0.2
				C31.4,74.1,31.7,74,32,74z"/>
			<path class="st0" d="M30,47.1l-0.9-1.9c0.3,0,0.6,0.1,0.9,0.1c0.3,0.1,0.7,0.1,1.1,0.2l0.9,2c-0.4,0-0.7-0.1-1.1-0.2
				C30.6,47.3,30.3,47.2,30,47.1L30,47.1C30,47.1,30,47.1,30,47.1z"/>
			<path class="st0" d="M31,47.3c-0.3,0-0.7-0.1-1-0.1l0-0.1C30.3,47.2,30.6,47.3,31,47.3z"/>
			<path class="st0" d="M17.2,80.4v-2c4.1-2,8.3-3.4,13-4.1l0.7,1.7C25.9,76.9,21.4,78.3,17.2,80.4L17.2,80.4z"/>
			<path class="st0" d="M29.1,45.2l0.9,1.9c0,0,0,0,0,0L29.1,45.2C29.1,45.2,29.1,45.2,29.1,45.2z"/>
			<path class="st0" d="M26.5,34.9c11.5-2.4,29.7-3.4,43.7-3.4c20.8,0,51,2.1,54.4,8.1c0,0-0.1,0-0.1-0.1c0,0-0.1,0-0.1,0
				c-0.1,0-0.1,0-0.2,0c-0.5,0-0.9,0.4-0.9,0.9v0.3h-0.2c0-3.1-20.1-7.4-52.9-7.4c-19.1,0-33.9,1.5-42.9,3.3L26.5,34.9z"/>
			<path class="st0" d="M27.3,36.6l3.9,8.9c-0.4,0-0.8-0.1-1.1-0.2c-0.4-0.1-0.7-0.1-1-0.2L25.5,37C26.1,36.9,26.7,36.7,27.3,36.6z"
				/>
			<path class="st0" d="M25.5,37c0.5-0.2,1.1-0.3,1.8-0.4C26.7,36.7,26.1,36.9,25.5,37z"/>
			<path class="st0" d="M26.5,34.9l0.8,1.7c-0.7,0.1-1.3,0.2-1.8,0.4l-0.7-1.7c0.2,0,0.5-0.1,0.8-0.2C25.9,35,26.2,34.9,26.5,34.9z"
				/>
			<polygon class="st0" points="19.1,162.2 17.2,162.2 17.2,161.6 33.1,145.9 33.9,147.6 			"/>
			<path class="st0" d="M17.7,41.4c1.2,1.3,5.1,2.6,11.4,3.7l0,0.1c0,0,0,0,0,0l0.9,1.9c-4.6-0.8-8.5-1.8-11.1-3L17.7,41.4z"/>
			<polygon class="st0" points="17.2,247.7 18.6,247.7 17.7,248.6 18.6,249.5 17.2,249.5 			"/>
			<path class="st0" d="M41.2,274.8l-24-24.2v-1.1h1.4l23.2,23.4v0.1v1.7C41.6,274.7,41.4,274.7,41.2,274.8z"/>
			<polygon class="st0" points="33.1,145.9 17.2,113.7 17.2,112.3 18.5,112.3 34.4,144.6 			"/>
			<path class="st2" d="M18,168.9c2.4,11.2,12.1,19.7,23.8,20.3C30.1,188.7,20.3,180.2,18,168.9z"/>
			<path class="st0" d="M17.7,110.7c0-0.1-0.1-0.1-0.1-0.2h28.6h0l0.4,1l0.3,0.8H18.5L17.7,110.7z"/>
			<path class="st0" d="M17.2,282.3v-1.9c3.9-2.7,13.2-4.5,24-5.6l1.2,1.2c0.1,0.2,0.4,0.3,0.6,0.3c-14.6,1.4-23.6,3.9-25.5,6H17.2z
				"/>
			<path class="st0" d="M17.3,40.6l0.4,0.9c0,0-0.1-0.1-0.1-0.1c0,0,0,0,0,0c-0.1,0-0.1-0.1-0.1-0.1c-0.1-0.1-0.2-0.3-0.2-0.4
				c0,0,0-0.1,0-0.2V40.6z"/>
			<path class="st0" d="M17.6,41.4C17.6,41.4,17.6,41.4,17.6,41.4S17.6,41.4,17.6,41.4z"/>
			<path class="st0" d="M17.2,110.5h0.4c0,0.1,0.1,0.1,0.1,0.2l0.8,1.6h-1.3V110.5z"/>
			<path class="st0" d="M17.2,44.7v-1.5c0.1,0.1,0.3,0.2,0.4,0.3c0.4,0.2,0.7,0.5,1.2,0.7c0,0,0.1,0,0.1,0.1L32,74
				c-0.3,0.1-0.6,0.1-0.9,0.2c-0.3,0-0.6,0.1-0.9,0.2L17.2,44.7z"/>
			<path class="st0" d="M17.7,284.1h-0.5c0-0.1,0.1-0.2,0.1-0.3v-0.1c0.1,0.1,0.2,0.2,0.2,0.3C17.6,284,17.6,284,17.7,284.1z"/>
			<path class="st0" d="M70.2,293c-20.5,0-50.3-2.3-54.4-8.3c0.1,0.1,0.3,0.1,0.5,0.1c0,0,0,0,0.1,0c0,0,0,0,0,0c0,0,0.1,0,0.1,0
				c0.4,0,0.6-0.3,0.8-0.7h0.5c3.5,3.2,22.8,7,52.5,7c29.8,0,49.2-3.9,52.6-7l0.1,0.3c0.1,0.3,0.4,0.5,0.8,0.5c0.1,0,0.3-0.1,0.3,0
				c0.1,0,0.1-0.1,0.2-0.1c0,0,0,0,0,0c0.1,0,0.3,0,0.4-0.1C120.4,290.8,90.6,293,70.2,293z"/>
			<path class="st0" d="M17.5,163.8l1.6-1.6H41l0.7,1.4c0-0.1,0-0.1,0-0.1l0.1,0.1v0.4H17.4c0-0.1,0-0.1,0-0.2H17.5z"/>
			<path class="st0" d="M17,39.7l-0.5-1c1.4-1.3,4.3-2.5,8.2-3.4l0.7,1.7c-5.2,1.2-8,2.5-8.1,3.6l-0.1-0.3
				C17.2,40.1,17.1,39.9,17,39.7L17,39.7z"/>
			<path class="st0" d="M17.2,163.9c0.1,0,0.1,0,0.2-0.1c0,0.1,0,0.1,0,0.2h-0.2V163.9z"/>
			<path class="st0" d="M41.8,191c-11.3-0.5-20.9-7.9-24.6-18.2V164h0.2c0,1.7,0.2,3.3,0.6,4.9c2.4,11.2,12.1,19.7,23.8,20.3V191z"
				/>
			<path class="st0" d="M17.5,41.3c-0.1-0.1-0.2-0.3-0.2-0.4C17.4,41,17.4,41.1,17.5,41.3z"/>
			<path class="st0" d="M17.3,283.5c0,0.2,0.1,0.3,0.2,0.5c-0.1-0.1-0.2-0.2-0.2-0.3V283.5z"/>
			<path class="st0" d="M17.3,283.7c0,0-0.1-0.1-0.1-0.2v-0.7v-0.1c0.1-0.1,0.2-0.3,0.3-0.4H69v0.7c0,0.2,0.1,0.3,0.1,0.4
				c0,0,0.1,0.1,0.1,0.1c0.1,0.4,0.4,0.6,0.8,0.6H17.7c-0.1,0-0.1-0.1-0.2-0.1c-0.1-0.1-0.2-0.3-0.2-0.5V283.7z"/>
			<path class="st0" d="M17.2,282.7c0.1-0.1,0.1-0.3,0.3-0.4C17.4,282.4,17.3,282.6,17.2,282.7z"/>
			<path class="st0" d="M17.2,162.2h1.9l-1.6,1.6h-0.1c0,0,0-0.1,0-0.2c0-0.2-0.1-0.4-0.2-0.6V162.2z"/>
			<path class="st0" d="M17.4,163.8c-0.1,0-0.1,0.1-0.2,0.1V163c0.1,0.2,0.2,0.4,0.2,0.6C17.4,163.7,17.4,163.8,17.4,163.8z"/>
			<path class="st0" d="M17.5,282.3c-0.2,0.1-0.2,0.3-0.3,0.4v-0.3v-0.1H17.5z"/>
			<path class="st0" d="M17.2,110.5v-0.2c0.1,0,0.3,0.1,0.4,0.2H17.2z"/>
			<path class="st0" d="M17.2,43.2v-2.8c0,0,0,0,0-0.1l0.1,0.3v0.1c0,0.1,0,0.1,0,0.2c0,0.1,0.1,0.3,0.2,0.4c0,0,0,0.1,0.1,0.1
				c0,0,0,0,0,0c0,0,0,0.1,0.1,0.1l1.2,2.6l0,0.1c0,0-0.1,0-0.1-0.1c-0.4-0.2-0.8-0.4-1.2-0.7C17.5,43.4,17.3,43.3,17.2,43.2z"/>
			<path class="st0" d="M17.2,282.8v0.7c-0.1,0-0.1-0.1-0.1-0.2s0-0.1,0-0.2c0,0,0-0.1,0-0.1C17.1,282.9,17.1,282.8,17.2,282.8z"/>
			<polygon class="st0" points="17.2,161.6 17.2,162.2 16.6,162.2 			"/>
			<path class="st0" d="M17.2,80.4L17.2,80.4c0,0.1-0.1,0.1-0.1,0.1v0C17.1,80.4,17.2,80.4,17.2,80.4z"/>
			<path class="st0" d="M17.1,80.5v-2c0,0,0.1,0,0.1-0.1v2C17.2,80.4,17.1,80.4,17.1,80.5z"/>
			<path class="st0" d="M16.2,42.4l1,2.3L16.2,42.4C16.1,42.3,16.1,42.3,16.2,42.4z"/>
			<path class="st0" d="M16.9,43c0.1,0.1,0.2,0.2,0.3,0.2v1.5l-1-2.3C16.4,42.6,16.6,42.8,16.9,43z"/>
			<polygon class="st0" points="16.5,112.3 17.2,112.3 17.2,113.7 			"/>
			<path class="st0" d="M15.8,248.6c0-0.5,0.4-0.9,0.9-0.9h0.5v1.8h-0.5C16.2,249.5,15.8,249.1,15.8,248.6z"/>
			<path class="st0" d="M17.1,283c0-0.1,0-0.2,0.1-0.3v0.1C17.1,282.8,17.1,282.9,17.1,283z"/>
			<path class="st0" d="M17.1,283.1c0,0,0-0.1,0-0.1C17.1,283,17.1,283.1,17.1,283.1z"/>
			<path class="st0" d="M17.1,80.5c-0.4,0.2-0.9,0-1.1-0.4c0,0,0-0.1-0.1-0.1c0,0,0-0.1,0-0.1c0-0.1,0-0.2,0-0.2
				c0-0.3,0.2-0.6,0.4-0.8l0.1-0.1c0.3-0.1,0.5-0.3,0.8-0.4v0c0,0-0.1,0-0.1,0.1V80.5z"/>
			<path class="st0" d="M15.4,283.7v-1c0.2-0.2,0.4-0.3,0.7-0.3h1.1v0.3c-0.1,0.1-0.1,0.2-0.1,0.3c0,0,0,0.1,0,0.1
				c0,0.1,0,0.1,0,0.2c0,0.1,0,0.1,0.1,0.2v0.3c0,0.1,0,0.2-0.1,0.3h-1c-0.2,0-0.3,0-0.4-0.1c-0.1-0.1-0.2-0.1-0.3-0.2
				C15.4,283.7,15.4,283.7,15.4,283.7L15.4,283.7z"/>
			<path class="st0" d="M16.3,110.5c0.1-0.1,0.2-0.2,0.3-0.2c0.2-0.1,0.4-0.1,0.6,0v0.2h-0.8H16.3z"/>
			<path class="st0" d="M17.2,40.3L17,39.7C17.1,39.9,17.2,40.1,17.2,40.3z"/>
			<path class="st0" d="M17.2,163.9c-0.1,0.1-0.2,0.1-0.3,0.1c0.1,0,0.1,0,0.1-0.1L17.2,163.9z"/>
			<path class="st0" d="M16,163.1c0-0.1,0-0.2,0.1-0.3c0,0,0.1-0.1,0.1-0.1c0,0,0.1,0,0.1,0c0.1,0,0.1,0,0.2,0
				c0.3,0,0.5,0.1,0.7,0.3v0.9c-0.1,0-0.1,0-0.2,0.1c0,0-0.1,0.1-0.1,0.1c-0.2,0-0.4-0.1-0.5-0.1c0,0,0,0,0,0
				C16.1,163.7,16,163.4,16,163.1z"/>
			<polygon class="st0" points="16.5,112.3 17.2,113.7 16.5,112.3 			"/>
			<polygon class="st0" points="16.5,112.3 16.5,112.3 16.5,112.2 16.5,112.2 			"/>
			<path class="st0" d="M16.1,111.5c-0.2-0.4-0.1-0.8,0.2-1h0.1h0.8v1.8h-0.7l0-0.1h0L16.1,111.5z"/>
			<path class="st0" d="M16.3,164c0.1,0,0.1,0,0.2,0C16.4,164,16.4,164,16.3,164z"/>
			<path class="st0" d="M15.5,40.6c0,0,0-0.1,0-0.1c0,0,0,0,0-0.1c0-0.1,0.1-0.3,0.1-0.5v0c0,0,0,0,0,0c0,0,0.1-0.1,0.1-0.1
				c0,0,0,0,0,0c0.1-0.1,0.3-0.2,0.5-0.2c0.2,0,0.5,0.1,0.6,0.3l0.3,0.6v2.8C17.1,43.1,17,43,16.9,43c-0.3-0.2-0.6-0.5-0.8-0.8
				l-0.6-1.4v-0.1C15.5,40.7,15.5,40.6,15.5,40.6z"/>
			<path class="st0" d="M15.9,39.6c0-0.1,0.2-0.4,0.4-0.7c0.1-0.1,0.1-0.2,0.2-0.2l0.5,1c-0.2-0.2-0.4-0.3-0.6-0.3
				C16.2,39.4,16,39.5,15.9,39.6z"/>
			<path class="st0" d="M16.1,162.7c0-0.1,0.1-0.2,0.2-0.2C16.2,162.6,16.1,162.6,16.1,162.7z"/>
			<path class="st0" d="M16.1,162.8C16.1,162.7,16.1,162.7,16.1,162.8c0-0.1,0.1-0.2,0.2-0.3l0.3-0.3h0.6v0.8
				c-0.2-0.2-0.4-0.3-0.7-0.3c-0.1,0-0.1,0-0.2,0C16.3,162.7,16.2,162.7,16.1,162.8C16.2,162.7,16.1,162.8,16.1,162.8
				C16.1,162.8,16.1,162.8,16.1,162.8z"/>
			<path class="st0" d="M15.5,111.3c0-0.4,0.3-0.7,0.8-0.8C15.9,110.6,15.6,110.9,15.5,111.3z"/>
			<path class="st0" d="M16.1,162.7C16.1,162.7,16.1,162.7,16.1,162.7C16.1,162.7,16.1,162.7,16.1,162.7z"/>
			<path class="st0" d="M15.5,111.3c0.1-0.4,0.4-0.7,0.8-0.8c-0.3,0.2-0.4,0.6-0.2,1l0.4,0.7h-0.1C15.9,112.2,15.5,111.8,15.5,111.3
				C15.5,111.3,15.5,111.3,15.5,111.3z"/>
			<path class="st0" d="M16.2,284.8c-0.2,0-0.3-0.1-0.5-0.1c0,0,0,0-0.1-0.1C15.9,284.7,16.1,284.8,16.2,284.8
				C16.2,284.8,16.2,284.8,16.2,284.8z"/>
			<path class="st0" d="M15.5,111.3h-0.1V79.7h0.5c0,0.1,0,0.1,0,0.2c0,0,0,0.1,0,0.1c0,0,0,0.1,0.1,0.1c0.2,0.4,0.7,0.6,1.1,0.4v0
				c0,0,0.1,0,0.1-0.1v29.9c-0.2-0.1-0.4-0.1-0.6,0c-0.1,0-0.2,0.1-0.3,0.2C15.8,110.6,15.5,110.9,15.5,111.3
				C15.5,111.3,15.5,111.3,15.5,111.3C15.5,111.3,15.5,111.3,15.5,111.3z"/>
			<path class="st0" d="M15.8,39.7C15.8,39.7,15.8,39.7,15.8,39.7C15.8,39.7,15.8,39.7,15.8,39.7z"/>
			<path class="st0" d="M15.8,249.1c-0.1-0.2-0.2-0.4-0.2-0.6c0-0.2,0.1-0.4,0.2-0.7l1.4-1.4v1.2h-0.5c-0.5,0-0.9,0.4-0.9,0.9
				s0.4,0.9,0.9,0.9h0.5v1.1L15.8,249.1z"/>
			<path class="st0" d="M15.7,163.1c0-0.5,0.4-0.9,0.9-0.9l-0.3,0.3c-0.1,0-0.2,0.1-0.2,0.2c0,0,0,0,0,0c0,0,0,0,0,0
				C16,162.9,15.8,163,15.7,163.1L15.7,163.1C15.8,163.1,15.7,163.1,15.7,163.1C15.7,163.2,15.7,163.2,15.7,163.1c0,0.1,0,0.1,0,0.1
				C15.7,163.1,15.7,163.1,15.7,163.1z"/>
			<path class="st0" d="M15.7,163.2c0,0,0,0.1,0,0.1C15.7,163.3,15.7,163.2,15.7,163.2C15.7,163.2,15.7,163.2,15.7,163.2z"/>
			<path class="st0" d="M15.6,163.5c0,0,0-0.1,0-0.1c0-0.1,0.1-0.1,0.1-0.2c0,0,0,0.1,0,0.1c0,0,0-0.1,0-0.1c0,0,0,0,0,0
				c0,0,0,0,0,0l0,0c0.1-0.1,0.1-0.2,0.2-0.2c0,0.1-0.1,0.2-0.1,0.3c0.1,0.2,0.2,0.5,0.5,0.6l0,0c0.2,0.1,0.3,0.1,0.5,0.1h-0.4
				c-0.1,0-0.1,0-0.2,0C16,163.9,15.8,163.7,15.6,163.5z"/>
			<path class="st0" d="M15.7,39.9C15.7,39.9,15.7,39.9,15.7,39.9C15.7,39.9,15.7,39.9,15.7,39.9z"/>
			<path class="st0" d="M17.2,172.8c-1-2.9-1.6-5.9-1.6-9.1c0,0,0-0.1,0-0.1c0,0,0-0.1,0-0.1c0,0,0,0,0-0.1c0,0,0,0.1,0,0.1
				c0.1,0.3,0.3,0.4,0.6,0.5c0.1,0,0.1,0,0.2,0h0.4h0.3V172.8z"/>
			<path class="st0" d="M15.8,249.2c-0.2-0.2-0.2-0.4-0.2-0.6c0,0,0,0,0-0.1C15.6,248.7,15.7,248.9,15.8,249.2l1.4,1.4L15.8,249.2z"
				/>
			<path class="st0" d="M15.4,248.5v-84.8h0.2c0,3.2,0.6,6.2,1.6,9.1v73.7l-1.4,1.4c-0.2,0.2-0.2,0.4-0.2,0.6H15.4z"/>
			<path class="st0" d="M15.6,248.5C15.6,248.5,15.6,248.5,15.6,248.5C15.6,248.6,15.6,248.6,15.6,248.5
				C15.6,248.6,15.6,248.5,15.6,248.5z"/>
			<path class="st0" d="M15.6,248.5C15.6,248.5,15.6,248.5,15.6,248.5c0,0.1,0,0.1,0,0.1h-0.2v-0.1H15.6z"/>
			<path class="st0" d="M15.4,248.6h0.2c0,0.2,0,0.4,0.2,0.6l1.4,1.4v29.8c-0.9,0.6-1.6,1.3-1.8,2.1V248.6z"/>
			<path class="st0" d="M15.5,41.1c0-0.1,0-0.2,0-0.3l0.6,1.4C15.9,41.9,15.6,41.5,15.5,41.1z"/>
			<path class="st0" d="M16.4,112.3c-0.5,0-0.9-0.4-0.9-0.9c0,0,0,0,0-0.1c0,0.5,0.4,0.8,0.9,0.8h0.1l0,0.1H16.4z"/>
			<path class="st0" d="M15.7,39.9c-0.1,0.2-0.1,0.3-0.1,0.5C15.6,40.2,15.6,40.1,15.7,39.9z"/>
			<path class="st0" d="M15.5,40.4C15.5,40.4,15.5,40.4,15.5,40.4C15.5,40.4,15.5,40.4,15.5,40.4z"/>
			<path class="st0" d="M15.5,40.5c0,0,0,0.1,0,0.1C15.5,40.5,15.5,40.5,15.5,40.5z"/>
			<path class="st0" d="M15.4,282.5c0.2-0.8,0.9-1.5,1.8-2.1C16.3,281.1,15.6,281.8,15.4,282.5z"/>
			<path class="st0" d="M15.5,41.1c0-0.1,0-0.2,0-0.3C15.5,40.9,15.5,41,15.5,41.1z"/>
			<path class="st0" d="M15.5,111.3C15.5,111.3,15.5,111.3,15.5,111.3C15.5,111.3,15.5,111.3,15.5,111.3
				C15.5,111.3,15.5,111.3,15.5,111.3z"/>
			<path class="st0" d="M15.4,79.7V40.6l0.1,0.2c0,0.1,0,0.2,0,0.3c0.1,0.4,0.2,0.8,0.6,1.1l0.1,0.2c0,0-0.1,0-0.1-0.1l1.1,2.4v33.7
				c-0.3,0.1-0.5,0.3-0.8,0.4l-0.1,0.1c-0.3,0.1-0.4,0.4-0.4,0.8H15.4z"/>
			<path class="st0" d="M15.5,111.3C15.5,111.4,15.5,111.4,15.5,111.3C15.5,111.4,15.5,111.3,15.5,111.3
				C15.5,111.3,15.5,111.3,15.5,111.3z"/>
			<path class="st0" d="M15.5,40.8l-0.1-0.2v-0.1v-0.1c0-0.1,0-0.1,0-0.2s0-0.1,0.1-0.2c0-0.1,0.1-0.1,0.1-0.2
				c0.1,0,0.1-0.1,0.2-0.1c0,0,0,0,0,0c0,0-0.1,0.1-0.1,0.1c0,0,0,0,0,0v0c-0.1,0.1-0.1,0.3-0.1,0.5c0,0,0,0,0,0.1c0,0,0,0.1,0,0.1
				C15.5,40.6,15.5,40.7,15.5,40.8L15.5,40.8z"/>
			<path class="st0" d="M15.4,111.3h0.1c0,0,0,0,0,0c0,0,0,0,0,0.1L15.4,111.3L15.4,111.3z"/>
			<path class="st0" d="M15.4,111.4h0.1c0,0.5,0.4,0.9,0.9,0.9h0.1l0.7,1.4v47.9l-0.6,0.6h-0.1c-0.5,0-0.9,0.4-0.9,0.9
				c0,0.1,0,0.2,0,0.2c0,0,0,0.1,0,0.1c0,0.1,0,0.1,0,0.1h-0.2V111.4z"/>
			<path class="st0" d="M15.4,282.5c0.2-0.7,0.9-1.4,1.8-2.1v1.9h-1.1c-0.3,0-0.5,0.1-0.7,0.3V282.5z"/>
			<path class="st0" d="M15.7,284.6c-0.2-0.2-0.3-0.4-0.3-0.7C15.5,284.1,15.6,284.4,15.7,284.6z"/>
			<path class="st0" d="M15.4,283.9c0.1,0.1,0.2,0.1,0.3,0.2c0.1,0,0.2,0.1,0.4,0.1h1c-0.1,0.4-0.3,0.6-0.7,0.7c0,0-0.1,0-0.1,0
				c-0.2,0-0.4-0.1-0.6-0.2C15.6,284.4,15.5,284.1,15.4,283.9L15.4,283.9z"/>
			<path class="st0" d="M15.3,283.2c0-0.2,0.1-0.3,0.1-0.5v1C15.4,283.5,15.3,283.4,15.3,283.2L15.3,283.2z"/>
			<path class="st0" d="M15.4,282.7C15.4,282.7,15.4,282.8,15.4,282.7c0,0,0,0,0-0.1V282.7z"/>
			<path class="st0" d="M15.3,283.8C15.3,283.8,15.4,283.8,15.3,283.8l0.1,0.1c0,0.3,0.1,0.5,0.3,0.7c0,0,0,0.1,0.1,0.1
				c-0.1,0-0.1,0-0.1-0.1c-0.1-0.2-0.3-0.5-0.3-0.7V283.8z"/>
			<path class="st0" d="M15.4,282.7c0,0.2-0.1,0.3-0.1,0.5C15.3,283.1,15.3,282.9,15.4,282.7C15.4,282.8,15.4,282.7,15.4,282.7z"/>
			<path class="st0" d="M15.3,283.2c0,0.2,0,0.3,0.1,0.5c-0.1-0.1-0.2-0.3-0.2-0.5c0-0.1,0.1-0.3,0.1-0.4
				C15.3,282.9,15.3,283.1,15.3,283.2L15.3,283.2z"/>
			<path class="st0" d="M11.8,1.6l14.7,33.3c-0.3,0.1-0.6,0.1-0.9,0.2c-0.3,0.1-0.6,0.2-0.9,0.2L10.6,3.4c0.3-0.3,0.6-0.6,0.8-0.9
				C11.7,2.2,11.8,1.9,11.8,1.6z"/>
			<path class="st0" d="M11.5,0.9l0.3,0.7c0,0.3-0.1,0.6-0.3,0.9c-0.2,0.3-0.5,0.6-0.9,0.8L9.9,1.9L9.9,1.8L9.8,1.6
				c-0.2-0.4-0.1-1,0.4-1.2c0.4-0.2,1-0.1,1.2,0.4C11.4,0.8,11.4,0.9,11.5,0.9z"/>
			<path class="st0" d="M10.6,3.3c0.3-0.2,0.6-0.5,0.9-0.8C11.3,2.8,11,3.1,10.6,3.3L10.6,3.3z"/>
			<path class="st0" d="M10.6,3.3L10.6,3.3C10.6,3.4,10.6,3.4,10.6,3.3L10.6,3.3C10.6,3.3,10.6,3.3,10.6,3.3z"/>
			<path class="st0" d="M10.6,3.3C10.6,3.3,10.6,3.3,10.6,3.3L9.9,1.9L10.6,3.3z"/>
			<path class="st0" d="M9.9,1.8l0.1,0.1L9.9,1.8z"/>
			<path class="st0" d="M9.8,1.6l0.1,0.2L9.8,1.6z"/>
			<path class="st0" d="M1,4.6c0.4,0,0.7,0.2,0.7,0.6C1.5,4.8,1.2,4.6,1,4.6z"/>
			<path class="st0" d="M2,6.4c-0.8,0.1-1.6-0.3-1.9-1V5.3c0-0.3,0.2-0.5,0.4-0.6c0.1,0,0.3-0.1,0.4-0.1c0,0,0,0,0.1,0
				c0.3,0,0.6,0.2,0.7,0.6l0.5,1.2C2.1,6.4,2,6.4,2,6.4z"/>
			<path class="st0" d="M9.5,1.8C8.2,2,6.9,2.3,5.7,2.8c-1.2,0.4-2.4,1-3.4,1.8c1.3-0.2,2.6-0.5,3.8-1C7.3,3.2,8.5,2.6,9.5,1.8z
				 M1.7,5.2C1.6,4.8,1.3,4.6,1,4.6c0,0,0,0-0.1,0c-0.1,0-0.2,0-0.4,0.1S0.1,5,0.1,5.3c-0.6-2,3.7-3.7,5-4.2s2.6-0.8,3.9-1
				C9.5,0,11.2-0.2,11.7,1c0.1,0.2,0.1,0.4,0.1,0.6l-0.3-0.7c-0.1,0-0.1-0.1-0.1-0.1c-0.2-0.5-0.8-0.6-1.2-0.4
				C9.7,0.6,9.6,1.2,9.8,1.6l0.1,0.2l0.1,0.1l0.6,1.4c-1.3,1-3.1,1.7-3.9,2c-1.2,0.5-2.6,0.8-3.9,1C2.6,6.4,2.4,6.4,2.2,6.4L1.7,5.2
				z"/>
			<path class="st0" d="M0.1,5.4c0.3,0.7,1.1,1.1,1.9,1c0,0,0.1,0,0.2,0l14.3,32.3c-0.1,0.1-0.2,0.2-0.2,0.2
				c-0.2,0.2-0.4,0.4-0.5,0.7c-0.1,0.1-0.1,0.1-0.2,0.2c0,0.1-0.1,0.1-0.1,0.2c0,0.1-0.1,0.1-0.1,0.2c0,0,0,0.1,0,0.1v0.1v0.1
				L0.1,5.9C0,5.7,0,5.5,0.1,5.3V5.4z"/>
		</g>
		<g>
		</g>
	</g>
</g>
</svg>
