<?xml version="1.0" encoding="utf-8"?>
<!-- Generator: Adobe Illustrator 25.4.1, SVG Export Plug-In . SVG Version: 6.00 Build 0)  -->
<svg version="1.1" id="Layer_1" xmlns="http://www.w3.org/2000/svg" xmlns:xlink="http://www.w3.org/1999/xlink" x="0px" y="0px"
	 viewBox="0 0 166.1 256.1" style="enable-background:new 0 0 166.1 256.1;" xml:space="preserve">
<style type="text/css">
	.st0{fill:#FD8612;}
	.st1{fill:#FFFFFF;}
</style>
<g id="Layer_1-2">
	<g id="XMLID_00000107578659614823284690000016472418471893327025_">
		<g>
			<path class="st0" d="M118.8,55.4c1.1,2.3,1.7,4.9,1.7,7.6c0,4.4-1.6,8.4-4.1,11.5c-3.3,4-8.4,6.6-14,6.6c-9.3,0-17-7.1-18-16.2
				v-3.9c1-9.1,8.7-16.2,18-16.2c3.7,0,7.2,1.1,10,3.1l-11.8,14.4c-0.3,0.4-0.3,1,0.1,1.3c0.2,0.1,0.4,0.2,0.6,0.2
				c0.3,0,0.5-0.2,0.7-0.3L113.9,49C116,50.8,117.7,52.9,118.8,55.4z"/>
			<path class="st1" d="M165.6,17.4C165.6,17.4,165.6,17.4,165.6,17.4c-0.4,0.3-1.2,0.7-2.7,1L164,17c0.3-0.4,0.9-0.4,1.3-0.1
				C165.4,17,165.5,17.2,165.6,17.4z"/>
			<path class="st1" d="M152.6,1.5l-8.9,11c-0.7,0-1.5-0.1-2.3-0.1l9.8-12c0.3-0.4,0.9-0.4,1.3-0.1S152.9,1.1,152.6,1.5z"/>
			<path class="st1" d="M165.4,18.1l-18.3,22.2l-0.2-0.1c0.4-0.4,0.4-1,0-1.3c-0.2-0.1-0.4-0.3-0.6-0.5l16.6-20.1
				c1.5-0.3,2.3-0.6,2.7-1C165.6,17.6,165.6,17.9,165.4,18.1z"/>
			<path class="st1" d="M146.9,38.9c0.4,0.3,0.4,0.9,0,1.3c-0.1,0.1-0.3,0.2-0.4,0.2c0.1-0.1,0.1-0.3,0.1-0.4c0-0.5-0.4-0.9-0.9-0.9
				l0.5-0.7C146.5,38.6,146.7,38.8,146.9,38.9z"/>
			<path class="st1" d="M145.7,39.1c0.5,0,0.9,0.4,0.9,0.9c0,0.2,0,0.3-0.1,0.4c-0.2,0.1-0.5,0-0.7-0.1c-0.2-0.1-0.4-0.3-0.7-0.5
				L145.7,39.1z"/>
			<path class="st1" d="M145.7,39.1h-1.6c-2.8-1.8-8.5-4.7-17.3-5.9l1.3-1.6c9.7,1.5,15.7,5.1,18.1,6.9L145.7,39.1
				C145.7,39.1,145.7,39.1,145.7,39.1z"/>
			<path class="st1" d="M145.8,40.3c0.2,0.2,0.4,0.2,0.7,0.1c-0.1,0.3-0.4,0.5-0.8,0.5h-1.4l0.9-1.1C145.4,40,145.6,40.2,145.8,40.3
				z"/>
			<path class="st1" d="M145.1,39.8c-0.3-0.2-0.6-0.4-1.1-0.7h1.6c0,0,0,0,0,0L145.1,39.8z"/>
			<path class="st1" d="M145.1,39.8l-0.9,1.1h-23.7l1.5-1.8h22.1C144.5,39.4,144.9,39.6,145.1,39.8z"/>
			<path class="st1" d="M143.7,12.4l-1.3,1.6c-0.7,0-1.5-0.1-2.3-0.1l1.3-1.7C142.2,12.4,143,12.4,143.7,12.4z"/>
			<path class="st1" d="M142.4,14.1l-3.7,4.6c-0.8,0-1.6,0.1-2.5,0.1l3.9-4.8C140.9,14,141.6,14.1,142.4,14.1z"/>
			<path class="st1" d="M138.6,18.7c13.2-0.7,22.1-1.5,25-2.4c-2.6-0.8-10.1-1.6-21.2-2.2l1.3-1.6c22.3,1.4,22.3,2.8,22.3,3.9
				c0,0.3,0,0.6-0.4,1c0-0.2-0.1-0.4-0.3-0.5c-0.4-0.3-1-0.3-1.3,0.1l-1.1,1.4c-3.1,0.7-9.3,1.4-21.8,2c-1.3,0.1-2.7,0.1-4,0.2
				L138.6,18.7z"/>
			<path class="st1" d="M138.6,18.7l-1.5,1.9c-0.8,0-1.6,0.1-2.5,0.1l1.5-1.9C137,18.8,137.8,18.7,138.6,18.7z"/>
			<path class="st1" d="M137.1,20.6l-8.9,11c-0.7-0.1-1.4-0.2-2.1-0.3l8.6-10.6C135.4,20.7,136.3,20.6,137.1,20.6z"/>
			<path class="st1" d="M147.1,40.3l-12.4,15.1c0.1-0.1,0.1-0.2,0.1-0.4c0-0.5-0.4-0.9-0.9-0.9h-0.4l10.9-13.2h1.4
				c0.3,0,0.6-0.2,0.8-0.5c0.2,0,0.3-0.1,0.4-0.2L147.1,40.3z"/>
			<path class="st1" d="M133.8,54.1c0.5,0,0.9,0.4,0.9,0.9c0,0.1,0,0.3-0.1,0.4l-0.3,0.3c-0.1,0.1-0.3,0.2-0.5,0.2h-1.9l1.5-1.8
				H133.8z"/>
			<path class="st1" d="M134.3,55.7l0.3-0.3C134.6,55.5,134.4,55.6,134.3,55.7z"/>
			<path class="st1" d="M134.3,55.7l-16.5,20l-0.1-0.1c1.8-2.1,3.1-4.6,3.8-7.3l10.3-12.5h1.9C134,55.9,134.2,55.8,134.3,55.7z"/>
			<path class="st1" d="M133.4,54.1l-1.5,1.8H121c-0.2-0.6-0.5-1.2-0.8-1.8H133.4z"/>
			<path class="st1" d="M128.1,31.6l-1.3,1.6c-0.7-0.1-1.4-0.2-2.2-0.3l1.3-1.7C126.7,31.4,127.4,31.5,128.1,31.6z"/>
			<path class="st1" d="M126.8,33.2l-4.8,5.9h-2.4l5-6.2C125.4,33,126.1,33.1,126.8,33.2z"/>
			<path class="st1" d="M123.4,32.8l-5.4,6.3h-2.4l5.5-6.4C121.9,32.7,122.7,32.8,123.4,32.8z"/>
			<path class="st1" d="M123.4,32.8c-0.8-0.1-1.5-0.1-2.3-0.1l1.1-1.3c0.3-0.4,0.9-0.4,1.3-0.1s0.4,0.9,0.1,1.3L123.4,32.8z"/>
			<polygon class="st1" points="122,39.1 120.6,40.9 118.2,40.9 119.7,39.1 			"/>
			<path class="st1" d="M121,55.9h-1.3c-0.4,0-0.7-0.2-0.8-0.5c-0.1-0.1-0.1-0.2-0.1-0.3c0-0.5,0.4-0.9,0.9-0.9h0.5
				C120.5,54.7,120.8,55.3,121,55.9z"/>
			<path class="st1" d="M120.6,40.9l-5.5,6.8c-0.5-0.4-1-0.8-1.5-1.1l4.6-5.6H120.6z"/>
			<path class="st1" d="M119.7,55.9h1.3c0.8,2.2,1.3,4.6,1.3,7.1l-0.7,5.3l-5.1,6.2l-0.1-0.1c2.6-3.1,4.1-7.1,4.1-11.5
				c0-2.7-0.6-5.3-1.7-7.6l0.1,0C119,55.7,119.3,55.9,119.7,55.9z"/>
			<polygon class="st1" points="119.7,39.1 118.2,40.9 116.5,40.9 118,39.1 			"/>
			<path class="st1" d="M118.8,55c0,0.1,0,0.2,0.1,0.3l-0.1,0c-1.1-2.5-2.8-4.6-4.9-6.3l1.1-1.4c2.1,1.8,3.9,4,5.1,6.5h-0.5
				C119.2,54.1,118.8,54.5,118.8,55z"/>
			<polygon class="st1" points="118,39.1 116.5,40.9 114.1,40.9 115.6,39.1 			"/>
			<path class="st1" d="M117.8,75.7l-1.3,1.4c-1.5,1.5-3.3,2.8-5.2,3.7l5.2-6.2l5.1-6.2C120.8,71.1,119.5,73.5,117.8,75.7z"/>
			<path class="st1" d="M117.8,75.7l-21.1,25.6c0-0.2-0.1-0.4-0.2-0.6l-0.8-1l15.6-18.9c1.9-1,3.7-2.2,5.2-3.7L117.8,75.7
				L117.8,75.7z"/>
			<path class="st1" d="M116.5,40.9l-4.2,4.9c-0.5-0.3-1.1-0.6-1.6-0.8c0,0,0,0,0,0l3.4-4H116.5z"/>
			<path class="st1" d="M115.6,39.1l-1.5,1.8H84.4V40c0.9-0.3,1.9-0.6,2.8-0.9H115.6z"/>
			<path class="st1" d="M115.1,47.6l-1.1,1.4c-0.5-0.4-1-0.8-1.5-1.1l1.1-1.4C114.1,46.9,114.6,47.3,115.1,47.6z"/>
			<path class="st1" d="M111.4,46.4c-0.2,0-0.4-0.1-0.6-0.2c-0.4-0.3-0.4-0.9-0.1-1.3c0.6,0.2,1.1,0.5,1.6,0.8l-0.2,0.2
				C111.9,46.3,111.7,46.4,111.4,46.4z"/>
			<path class="st1" d="M100.7,62.4l11.8-14.4c0.5,0.3,1,0.7,1.5,1.1l-11.8,14.5c-0.2,0.1-0.4,0.3-0.7,0.3c-0.2,0-0.4-0.1-0.6-0.2
				C100.4,63.4,100.4,62.8,100.7,62.4z"/>
			<path class="st1" d="M134.6,20.7c-14.2,0.6-31.7,1-50.2,1v-1.1c0-0.3-0.1-0.5-0.3-0.7c20.5,0,38.4-0.4,52.1-1.1L134.6,20.7z"/>
			<path class="st1" d="M96.7,101.3c0,0.2-0.1,0.5-0.2,0.7c0,0,0,0-0.1,0.1c-0.1,0-0.3,0.1-0.4,0.1L96.7,101.3z"/>
			<path class="st1" d="M96.5,100.7c0.1,0.2,0.2,0.4,0.2,0.6l-0.7,0.9c-0.1,0-0.1,0-0.2,0c-0.3,0-0.5-0.1-0.7-0.3l-0.6-0.8l1.2-1.4
				L96.5,100.7z"/>
			<polygon class="st1" points="84.4,86.2 95.7,99.7 94.5,101.1 84.4,89.1 			"/>
			<path class="st1" d="M95.8,102.2c0.1,0,0.1,0,0.2,0l-11.6,14v-2.8l10.1-12.2l0.6,0.8C95.3,102.1,95.5,102.2,95.8,102.2z"/>
			<path class="st1" d="M88,37c8.9-2.8,17.4-5.4,26.2-6c4.4-0.3,8.3-0.1,11.8,0.3l-1.3,1.7c-0.4,0-0.8-0.1-1.3-0.1l0.2-0.2
				c0.3-0.4,0.3-1-0.1-1.3s-1-0.3-1.3,0.1l-1.1,1.3c-2.1-0.1-4.4-0.1-6.8,0.1c-8.7,0.5-17,3.1-25.8,5.9c-0.4,0.1-0.8,0.3-1.3,0.4
				h-2.8v-1C85.6,37.8,86.8,37.4,88,37z"/>
			<path class="st1" d="M102.4,82.9c-8,0-14.8-4.7-18-11.4v-6.6c1,9.1,8.7,16.2,18,16.2c5.6,0,10.7-2.6,14-6.6l0.1,0.1l-5.2,6.2
				C108.6,82.1,105.6,82.9,102.4,82.9z"/>
			<path class="st1" d="M88,240.7c0.5,0.2,0.7,0.7,0.5,1.2c0,0.1-0.1,0.2-0.2,0.3l0,0.1c-0.7,0-1.4,0-2.2,0l0.7-1
				c0.1-0.4,0.5-0.6,0.8-0.6C87.7,240.6,87.9,240.6,88,240.7z"/>
			<path class="st1" d="M84.4,39.1h2.8c-0.9,0.3-1.9,0.6-2.8,0.9V39.1z"/>
			<path class="st1" d="M86.8,241.2l-0.7,1c-0.6,0-1.1,0-1.7,0v-1.7c1,0,2.1,0,3.2,0v0.1C87.3,240.6,86.9,240.8,86.8,241.2z"/>
			<path class="st1" d="M84.4,54.5c3.2-6.7,10-11.4,18-11.4c3,0,5.8,0.6,8.3,1.8c-0.3,0.4-0.3,1,0.1,1.3c0.2,0.1,0.4,0.2,0.6,0.2
				c0.3,0,0.5-0.1,0.7-0.4l0.2-0.2c0.4,0.2,0.9,0.5,1.3,0.8l-1.1,1.4c-2.9-1.9-6.3-3.1-10-3.1c-9.3,0-17,7.1-18,16.2V54.5z"/>
			<path class="st1" d="M84.4,247.5v-2.8l1.7-2.5c0.7,0,1.5,0,2.2,0l-4,5.8l0,0C84.3,247.9,84.4,247.7,84.4,247.5z"/>
			<path class="st1" d="M83.3,242.2c0.4,0,0.7,0,1.1,0v2.5l-1.3,1.9h-0.5v-4.4C82.8,242.2,83.1,242.2,83.3,242.2z"/>
			<polygon class="st1" points="84.4,89.1 84.4,113.3 83.2,114.8 82.6,114.1 82.6,89 83.5,88 			"/>
			<path class="st1" d="M84.4,61.1v3.9c-0.1-0.6-0.1-1.3-0.1-1.9C84.3,62.3,84.3,61.7,84.4,61.1z"/>
			<path class="st1" d="M84.4,40.9v13.6c-1,2-1.6,4.2-1.8,6.5V41.6l0.7-0.7H84.4z"/>
			<path class="st1" d="M84.4,40v0.9h-1.2l0.6-0.6c0-0.1,0.1-0.1,0.1-0.2C84.1,40.1,84.2,40,84.4,40z"/>
			<path class="st1" d="M83,21.7c0.5,0,0.9,0,1.4,0v16.4c-0.6,0.2-1.2,0.4-1.8,0.5v-17C82.7,21.7,82.9,21.7,83,21.7z"/>
			<path class="st1" d="M83.9,40.1c0.2-0.4,0.1-0.8-0.1-1h0.6V40C84.2,40,84.1,40.1,83.9,40.1z"/>
			<path class="st1" d="M82.6,64.2l1-1.2c0.3-0.4,0.3-1-0.1-1.3c-0.3-0.2-0.6-0.3-0.9-0.2V61c0.2-2.3,0.8-4.5,1.8-6.5v6.6
				c-0.1,0.6-0.1,1.3-0.1,1.9c0,0.6,0,1.3,0.1,1.9v6.6c-1-2-1.6-4.2-1.8-6.5V64.2z"/>
			<path class="st1" d="M82.8,86c0.3-0.4,0.9-0.4,1.3-0.1l0.1,0.1l0.2,0.2v2.8L83.5,88l-0.9,1v-2.8L82.8,86z"/>
			<path class="st1" d="M84.1,19.9c-0.3,0-0.6,0-1,0c0,0-0.1,0-0.2,0c0.1-0.1,0.3-0.2,0.6-0.2S83.9,19.8,84.1,19.9z"/>
			<path class="st1" d="M82.6,40.5c0.4-0.1,0.9-0.3,1.3-0.4c0,0.1-0.1,0.1-0.1,0.2l-0.6,0.6h-0.6c0,0-0.1,0-0.1,0V40.5z"/>
			<path class="st1" d="M83.8,39.1c0.3,0.3,0.3,0.7,0.1,1c-0.4,0.1-0.9,0.3-1.3,0.4v-1.4c0,0,0.1,0,0.1,0H83.8z"/>
			<path class="st1" d="M83.8,39.1h-1.1c0,0-0.1,0-0.1,0V39C83,38.8,83.4,38.8,83.8,39.1z"/>
			<path class="st1" d="M84.3,247.5c0-0.5-0.4-0.9-0.9-0.9h-0.3l1.3-1.9L84.3,247.5c0.1,0.2,0,0.4-0.1,0.5c-0.2,0.2-0.4,0.4-0.8,0.4
				c0,0-0.1,0-0.1,0C83.8,248.3,84.2,248,84.3,247.5z"/>
			<path class="st1" d="M83.5,61.7c0.4,0.3,0.4,0.9,0.1,1.3l-1,1.2v-2.7C82.9,61.4,83.2,61.5,83.5,61.7z"/>
			<path class="st1" d="M84.3,248l-4.2,6.1c-0.7,0-1.4,0-2.2,0l3.9-5.7h1.5c0,0,0.1,0,0.1,0c0,0,0.1,0,0.1,0
				C83.8,248.4,84.1,248.2,84.3,248L84.3,248z"/>
			<path class="st1" d="M84.1,85.9c-0.4-0.3-1-0.3-1.3,0.1l-0.2,0.2V65c0.2,2.3,0.8,4.5,1.8,6.5v14.7L84.1,85.9L84.1,85.9z"/>
			<path class="st1" d="M83.3,240.5c0.4,0,0.7,0,1.1,0v1.7c-0.4,0-0.7,0-1.1,0c-0.2,0-0.5,0-0.7,0v-1.7
				C82.8,240.5,83.1,240.5,83.3,240.5z"/>
			<path class="st1" d="M83.2,40.9l-0.7,0.7v-0.7c0,0,0.1,0,0.1,0H83.2z"/>
			<path class="st1" d="M83.4,248.4c-0.5-0.1-0.8-0.4-0.8-0.9v-0.2l0.5-0.7h0.3c0.5,0,0.9,0.4,0.9,0.9
				C84.2,248,83.8,248.3,83.4,248.4z"/>
			<path class="st1" d="M83.2,114.8l1.2-1.5v2.8l-0.5,0.6c-0.2,0.2-0.5,0.4-0.7,0.4c-0.2,0-0.4-0.1-0.6-0.2v-2.9L83.2,114.8z"/>
			<path class="st1" d="M83.2,117.2c0.2,0,0.5-0.2,0.7-0.4l0.5-0.6v124.3c-0.4,0-0.7,0-1.1,0c-0.2,0-0.5,0-0.7,0V117
				C82.8,117.1,82.9,117.2,83.2,117.2z"/>
			<polygon class="st1" points="83.1,246.6 82.6,247.3 82.6,246.6 			"/>
			<path class="st1" d="M83,21.7c-0.1,0-0.3,0-0.4,0v-1.1c0-0.3,0.1-0.5,0.3-0.7c0,0,0.1,0,0.2,0c0.3,0,0.6,0,1,0
				c0.2,0.2,0.3,0.4,0.3,0.7v1.1C83.9,21.7,83.5,21.7,83,21.7z"/>
			<path class="st1" d="M82.6,38.7c0.6-0.2,1.2-0.4,1.8-0.5v1h-0.6c-0.4-0.3-0.8-0.3-1.2-0.1V38.7z"/>
			<path class="st1" d="M81.8,248.4l0.8-1.1v0.2c0,0.5,0.3,0.8,0.8,0.9c0,0-0.1,0-0.1,0H81.8z"/>
			<path class="st1" d="M82.6,246.6v0.7l-0.8,1.1H46.1c0-0.1,0-0.1,0-0.2c0-0.5,0.6-1,1.8-1.6H82.6z"/>
			<polygon class="st1" points="82.6,86.2 82.6,89 71.8,101 70.6,99.6 			"/>
			<path class="st1" d="M82.6,64.2V65C82.6,64.8,82.6,64.5,82.6,64.2L82.6,64.2z"/>
			<path class="st1" d="M82.5,63c0-0.5,0-1,0.1-1.5c0,0,0,0,0,0v2.7l0,0.1C82.5,63.8,82.5,63.4,82.5,63z"/>
			<path class="st1" d="M82.6,61v0.6c0,0,0,0,0,0C82.6,61.3,82.6,61.2,82.6,61z"/>
			<path class="st1" d="M82.6,40.5v0.4c-0.2,0-0.4-0.1-0.5-0.2C82.3,40.6,82.4,40.6,82.6,40.5z"/>
			<path class="st1" d="M82.6,39.1v1.4c-0.2,0-0.3,0.1-0.5,0.2c-0.2-0.2-0.3-0.4-0.3-0.7c0-0.1,0-0.1,0-0.2l0.7-0.7
				C82.5,39.1,82.6,39.1,82.6,39.1z"/>
			<path class="st1" d="M82.6,39L82.6,39c0,0.1-0.1,0.1-0.1,0.1L82.6,39C82.5,39.1,82.6,39,82.6,39z"/>
			<path class="st1" d="M82.6,61.5c0,0.5-0.1,1-0.1,1.5c0,0.4,0,0.8,0.1,1.2L61.7,88.8l-1.2-1.5l21.7-25.5
				C82.3,61.7,82.4,61.6,82.6,61.5z"/>
			<path class="st1" d="M82.5,39.1l-0.7,0.7C81.9,39.5,82.1,39.2,82.5,39.1z"/>
			<path class="st1" d="M81.8,40c0,0.3,0.1,0.5,0.3,0.7c-0.5,0.1-1,0.3-1.4,0.4l1.2-1.3C81.8,39.9,81.8,39.9,81.8,40z"/>
			<path class="st1" d="M80.1,254.2l-0.8,1.1c-0.2,0.3-0.5,0.4-0.8,0.4c-0.5,0-0.9-0.4-0.9-0.9c0-0.2,0.1-0.4,0.2-0.5l0.1-0.2
				C78.6,254.1,79.3,254.2,80.1,254.2z"/>
			<path class="st1" d="M80.1,254.2c1.1,0,2.1,0,3.2,0c23.1,0,37.8-3.6,37.8-6c0-2.2-12.6-5.5-32.8-5.9l0-0.1
				c0.1-0.1,0.2-0.2,0.2-0.3c0.2-0.5,0-1-0.5-1.2c-0.1-0.1-0.3-0.1-0.4-0.1v-0.1c15.5,0.3,35.3,2.6,35.3,7.8
				c0,5.7-23.7,7.8-39.6,7.8c-1.6,0-3.2,0-4.8,0l0-0.4c0.3,0,0.6-0.1,0.8-0.4L80.1,254.2z"/>
			<path class="st1" d="M71.2,101.7c-0.2,0.3-0.7,0.4-1,0.2l-0.6-0.7c0,0,0-0.1,0-0.1c0-0.2,0.1-0.4,0.2-0.6l0.8-0.9l1.2,1.4
				L71.2,101.7z"/>
			<path class="st1" d="M70.2,101.9c0.4,0.1,0.8,0.1,1-0.2l0.6-0.7l10.8,13.1v2.9c0,0-0.1-0.1-0.1-0.1L70.2,101.9z"/>
			<path class="st1" d="M69.6,101.3l0.6,0.7c-0.1,0-0.2-0.1-0.3-0.1C69.7,101.7,69.6,101.5,69.6,101.3z"/>
			<path class="st1" d="M68.8,55.5l-0.7-0.7l12.6-13.7c0.5-0.1,1-0.3,1.4-0.4c0.1,0.1,0.3,0.2,0.5,0.2v0.7L69.1,56.3
				C69.2,56.1,69.1,55.8,68.8,55.5z"/>
			<path class="st1" d="M68.8,56.8c-0.1,0.1-0.2,0.2-0.4,0.3l0.7-0.7C69,56.5,68.9,56.7,68.8,56.8z"/>
			<path class="st1" d="M69.1,56.3l-0.7,0.7c-0.1,0-0.2,0-0.2,0c-0.2,0-0.4-0.1-0.6-0.2c0.4-0.1,0.7-0.4,0.8-0.9
				c0-0.4-0.3-0.7-0.6-0.9l0.3-0.4l0.7,0.7C69.1,55.8,69.2,56.1,69.1,56.3z"/>
			<path class="st1" d="M68.4,56c-0.1,0.4-0.4,0.8-0.8,0.9c0,0-0.1,0-0.1-0.1l-0.6-0.7l0.9-1C68.1,55.3,68.4,55.6,68.4,56z"/>
			<path class="st1" d="M59,45.4l9.1,9.4l-0.3,0.4c-0.1,0-0.2,0-0.3,0h-1.6l-9.2-9.6C57.4,45.5,58.2,45.4,59,45.4z"/>
			<path class="st1" d="M67.8,55.1l-0.9,1l-1-1h1.6C67.6,55.1,67.7,55.1,67.8,55.1z"/>
			<path class="st1" d="M67.5,56.8C67.5,56.8,67.6,56.9,67.5,56.8C67.5,56.9,67.5,56.9,67.5,56.8l-1.3,0.1l0.7-0.8L67.5,56.8z"/>
			<polygon class="st1" points="65.9,55.1 66.9,56.1 66.2,56.9 50.8,56.9 50.8,55.1 			"/>
			<path class="st1" d="M61.1,89.5c-0.1,0.2-0.4,0.3-0.7,0.3c-0.1,0-0.2,0-0.3-0.1h0L59.5,89c0-0.2,0-0.5,0.2-0.7l0.8-1l1.2,1.5
				L61.1,89.5z"/>
			<path class="st1" d="M69.8,100.5c-0.1,0.2-0.2,0.4-0.2,0.6c0,0,0,0.1,0,0.1l-9.5-11.5c0.1,0,0.2,0.1,0.3,0.1
				c0.3,0,0.6-0.1,0.7-0.3l0.6-0.7l8.9,10.8L69.8,100.5z"/>
			<path class="st1" d="M59.5,89l0.6,0.7c-0.1,0-0.2-0.1-0.3-0.1C59.6,89.5,59.5,89.2,59.5,89z"/>
			<path class="st1" d="M57.8,44.1c-0.2-0.2-0.4-0.3-0.6-0.3v-0.1c9.1-0.5,17.4-2.6,25.4-5V39c0,0-0.1,0-0.1,0.1l0,0
				c-0.3,0.1-0.6,0.3-0.7,0.7l-1.2,1.3c-6.8,2-13.9,3.7-21.6,4.3L57.8,44.1z"/>
			<path class="st1" d="M56.5,44.1c0.2-0.2,0.4-0.3,0.7-0.3c0.2,0,0.4,0.1,0.6,0.3l1.2,1.3c-0.8,0.1-1.6,0.1-2.4,0.1l-0.1-0.1
				C56.2,45,56.2,44.5,56.5,44.1z"/>
			<path class="st1" d="M68.4,57.1L51.1,75.9l-0.6-0.7c0.1-0.2,0.2-0.3,0.2-0.6l0-0.9l15.5-16.8h1.2c0.1,0,0.1,0,0.2,0
				c0.2,0.2,0.4,0.2,0.6,0.2C68.3,57.1,68.3,57.1,68.4,57.1z"/>
			<path class="st1" d="M56.6,45.5c-1.1,0-2.1,0.1-3.2,0.1c-0.8,0-1.5,0-2.3,0c-0.1,0-0.1,0-0.2,0l0-0.8c0-0.5-0.4-0.9-0.9-0.9v-0.1
				c0.4,0,0.7,0,1.1,0c2.1,0.1,4.1,0,6.1-0.1v0.1c-0.2,0-0.5,0.1-0.7,0.3c-0.3,0.4-0.3,0.9,0,1.3L56.6,45.5z"/>
			<path class="st1" d="M50.9,44.8l0,0.8c-0.6,0-1.2,0-1.8-0.1v-0.7c0-0.5,0.4-0.9,0.9-0.9S50.9,44.3,50.9,44.8z"/>
			<path class="st1" d="M50.9,45.6l-0.1,9.5H49l0.1-9.6C49.7,45.5,50.3,45.6,50.9,45.6z"/>
			<path class="st1" d="M50.5,75.2l0.6,0.7l-0.8,0.9c-0.2,0.2-0.4,0.3-0.6,0.3c0,0,0,0,0,0l-0.8-1c0-0.2,0.1-0.3,0.2-0.5l0.3-0.3
				c0.2,0.1,0.3,0.2,0.5,0.2C50.1,75.5,50.3,75.4,50.5,75.2z"/>
			<polygon class="st1" points="50.8,55.1 50.8,56.9 49,56.9 49,55.1 			"/>
			<polygon class="st1" points="50.8,56.9 50.7,73.7 50,74.6 48.9,73.3 49,56.9 			"/>
			<path class="st1" d="M50.7,73.7l0,0.9c0,0.3-0.1,0.5-0.2,0.6L50,74.6L50.7,73.7z"/>
			<path class="st1" d="M50.5,75.2c-0.2,0.2-0.4,0.3-0.7,0.3c-0.2,0-0.4-0.1-0.5-0.2l0.7-0.8L50.5,75.2z"/>
			<path class="st1" d="M48.9,73.3l1,1.3l-0.7,0.8c-0.2-0.2-0.4-0.4-0.4-0.7L48.9,73.3z"/>
			<path class="st1" d="M51.1,75.9l9.4,11.4l-0.8,1c-0.2,0.2-0.2,0.5-0.2,0.7l-9.8-11.9c0,0,0,0,0,0c0.2,0,0.4-0.1,0.6-0.3
				L51.1,75.9z"/>
			<path class="st1" d="M48.8,76.1l0.8,1c-0.5,0-0.9-0.4-0.9-0.9C48.8,76.2,48.8,76.1,48.8,76.1z"/>
			<polygon class="st1" points="49,55.1 49,56.9 35.4,56.9 33.9,55.1 			"/>
			<path class="st1" d="M45.8,246.6h2.1c-1.2,0.6-1.8,1.1-1.8,1.6c0,0.1,0,0.1,0,0.2h-0.3c-0.5,0-0.9-0.4-0.9-0.9
				c0-0.2,0.1-0.4,0.1-0.5C45.2,246.8,45.5,246.6,45.8,246.6z"/>
			<path class="st1" d="M45.8,246.6c-0.3,0-0.6,0.2-0.8,0.4l-0.2-0.1c3.2-4.3,21-6.3,37.8-6.4v1.7c-18.9,0.1-30.4,2.4-34.7,4.4H45.8
				z"/>
			<path class="st1" d="M45.8,248.4h0.3c0.7,2,11.3,5.2,31.8,5.7l-0.1,0.2c-0.1,0.1-0.2,0.3-0.2,0.5c0,0.5,0.4,0.9,0.9,0.9l0,0.4
				c-17.3-0.4-34.2-2.8-34.2-7.8c0-0.5,0.2-1,0.5-1.4L45,247c-0.1,0.1-0.1,0.3-0.1,0.5C44.9,248,45.3,248.4,45.8,248.4z"/>
			<path class="st1" d="M33.6,55.1h0.3l1.5,1.8h-1.8c-0.2,0-0.5-0.1-0.6-0.3c-0.2-0.2-0.3-0.4-0.3-0.6
				C32.7,55.5,33.1,55.1,33.6,55.1z"/>
			<path class="st1" d="M48.8,76.1l-16-19.3l0.1-0.1c0.2,0.2,0.4,0.3,0.6,0.3h1.8l13.5,16.4l0,1.3c0,0.3,0.1,0.6,0.4,0.7L49,75.6
				C48.9,75.8,48.8,75.9,48.8,76.1z"/>
			<path class="st1" d="M32.7,56c0,0.2,0.1,0.5,0.3,0.6l-0.1,0.1L19,39.9c0.6,0.3,1.7,0.9,3.6,1.5l11.3,13.7h-0.3
				C33.1,55.1,32.7,55.5,32.7,56z"/>
			<path class="st1" d="M26.4,40.6c4.8,1.3,12.3,2.7,23.6,3.1v0.1c-0.5,0-0.9,0.4-0.9,0.9v0.7c-14-0.6-22.2-2.6-26.5-4.1l-2.4-2.9
				L26.4,40.6z"/>
			<path class="st1" d="M18.1,38.8l0.9,1c-0.3-0.1-0.4-0.2-0.5-0.3C18.2,39.4,18.1,39.1,18.1,38.8z"/>
			<path class="st1" d="M20.1,38.5l2.4,2.9c-1.9-0.6-3-1.2-3.6-1.5l-0.9-1v0c0-0.1,0-0.3,0.1-0.4c0.2-0.3,0.5-0.4,0.8-0.4
				c0.1,0,0.3,0,0.4,0.1C19.4,38.1,19.6,38.2,20.1,38.5z"/>
			<path class="st1" d="M2.4,17l1.1,1.4c-1.3-0.3-2.1-0.5-2.7-0.8c0-0.3,0.2-0.5,0.4-0.6C1.6,16.7,2.1,16.7,2.4,17z"/>
			<path class="st1" d="M83.1,12.7c-42.7,0-74.5,1.8-80.5,3.6c6,1.8,37.7,3.6,80.3,3.6c-0.2,0.2-0.3,0.4-0.3,0.7v1.1
				c-21.8,0-42.3-0.5-57.7-1.3C13,19.7,6.8,19,3.5,18.4L2.4,17c-0.3-0.3-0.8-0.3-1.1-0.1c-0.2,0.1-0.4,0.4-0.4,0.6
				C0,17.1,0,16.7,0,16.3c0-1.2,0-2.7,24.9-4.1C40.4,11.4,61.1,11,83,11s42.6,0.5,58.1,1.3c0.1,0,0.2,0,0.3,0l-1.3,1.7
				C125.8,13.2,106,12.7,83.1,12.7z"/>
			<path class="st1" d="M0.9,17.5c0.5,0.3,1.3,0.5,2.7,0.8l16.6,20.1c-0.5-0.2-0.7-0.4-0.8-0.4C19.3,38,19.1,38,19,38
				c-0.3,0-0.6,0.1-0.8,0.4c-0.1,0.1-0.1,0.3-0.1,0.4L1,18.1C0.9,17.9,0.8,17.7,0.9,17.5z"/>
		</g>
		<g>
		</g>
	</g>
</g>
</svg>
