<?xml version="1.0" encoding="utf-8"?>
<!-- Generator: Adobe Illustrator 25.4.1, SVG Export Plug-In . SVG Version: 6.00 Build 0)  -->
<svg version="1.1" id="Layer_1" xmlns="http://www.w3.org/2000/svg" xmlns:xlink="http://www.w3.org/1999/xlink" x="0px" y="0px"
	 viewBox="0 0 204.1 267.6" style="enable-background:new 0 0 204.1 267.6;" xml:space="preserve">
<style type="text/css">
	.st0{fill:#FFFFFF;}
	.st1{fill:#FD8612;}
</style>
<g id="Layer_1-2">
	<g id="XMLID_00000129193241454974310690000005154269617655723153_">
		<g>
			<path class="st0" d="M199.3,31.9c0.4,0.3,0.4,0.9,0.1,1.3l-2.1,2.4c0-0.9,0-1.8-0.1-2.7c0.2-0.2,0.4-0.4,0.4-0.7c0,0,0-0.1,0-0.2
				c-0.1-0.3-0.3-0.6-0.5-0.8c-0.1-0.5-0.1-1.1-0.2-1.6L199.3,31.9z"/>
			<path class="st1" d="M199.4,33.2c0.3-0.4,0.3-1-0.1-1.3l-2.5-2.2c-1.1-5.9-4.1-11.6-8.9-15.9c-0.1-0.1-0.1-0.2-0.2-0.3
				c-0.1-0.1-0.3-0.2-0.4-0.3c-4.8-4-10.6-6.2-16.4-6.5l-2.6-2.3c-0.4-0.3-1-0.3-1.3,0.1l-2.2,2.5c-5.9,0.9-11.4,3.8-15.8,8.4
				l-3.5-3C157.1-0.4,176.8-2,190.3,9c14,11.3,16.1,31.8,4.7,45.8l-3.5-3c3.7-4.8,5.6-10.5,5.8-16.1L199.4,33.2z"/>
			<path class="st0" d="M197.6,32.1c0,0,0,0.1,0,0.2c0,0.3-0.2,0.5-0.4,0.7l0.3-0.3l-0.3-0.3c0-0.3-0.1-0.6-0.1-1
				C197.3,31.5,197.5,31.8,197.6,32.1z"/>
			<path class="st0" d="M197.5,32.6l-0.3,0.3c0-0.2,0-0.4-0.1-0.6L197.5,32.6z"/>
			<path class="st0" d="M197.2,32.9c0.1,0.9,0.1,1.8,0.1,2.7l-1.8,2.1c0.1-1,0.2-2,0.2-3L197.2,32.9L197.2,32.9z"/>
			<path class="st0" d="M195.5,37.7l1.8-2.1c-0.2,5.7-2.1,11.3-5.8,16.1l-1.4-1.2C193.1,46.7,194.9,42.3,195.5,37.7z"/>
			<path class="st0" d="M197.2,32.3c0,0.2,0.1,0.4,0.1,0.6l0,0c-0.1,0.1-0.3,0.1-0.4,0.2l-1.2,0.1c0-0.6-0.1-1.2-0.1-1.8l0.6,0
				L197.2,32.3z"/>
			<path class="st0" d="M197.2,32.9l-1.6,1.8c0-0.1,0-0.1,0-0.2c0-0.4,0-0.9,0-1.3l1.2-0.1C196.9,33.1,197.1,33,197.2,32.9z"/>
			<path class="st0" d="M197.2,32.3l-1.1-1l0.5,0c0.2,0,0.3,0,0.5,0C197.1,31.7,197.1,32,197.2,32.3z"/>
			<path class="st0" d="M192,8c14.5,12.3,16.3,34,4,48.5c-0.1,0.1-0.1,0.1-0.2,0.2c-0.1,0.2-0.4,0.3-0.7,0.3c-0.2,0-0.4-0.1-0.6-0.2
				l-4.9-4.2l0,0c0.2,0.1,0.4,0.2,0.6,0.2c0.3,0,0.5-0.1,0.7-0.3c0.2-0.2,0.4-0.5,0.6-0.7l3.5,3c11.4-14,9.3-34.5-4.7-45.8
				c-13.5-11-33.2-9.4-44.8,3.5l3.5,3c-0.2,0.2-0.4,0.4-0.6,0.7l-0.1,0.1c-0.2,0.3-0.2,0.6-0.1,0.9l-4.6-3.9
				c-0.4-0.3-0.4-0.9-0.1-1.3C155.8-2.5,177.5-4.3,192,8z"/>
			<path class="st0" d="M196.8,29.7c0.1,0.6,0.2,1.1,0.2,1.6c-0.1-0.1-0.3-0.1-0.5,0l-0.5,0l-0.7-0.6c-0.1-0.9-0.3-1.9-0.6-2.8
				L196.8,29.7z"/>
			<path class="st0" d="M196.8,29.7l-2-1.8c-1.2-4.7-3.7-9.1-7.5-12.6l0.6-0.6c0.2-0.3,0.2-0.6,0.1-0.9
				C192.7,18.1,195.7,23.7,196.8,29.7z"/>
			<path class="st0" d="M195.4,30.7l0.7,0.6l-0.6,0C195.4,31.2,195.4,30.9,195.4,30.7z"/>
			<path class="st0" d="M185.2,46.5l10.4-11.8c0,1-0.1,2-0.2,3l-8.8,10L185.2,46.5z"/>
			<path class="st0" d="M195.6,33.2l-6.9,0.5c0.2-0.4,0.2-0.9-0.2-1.1l-0.7-0.6l7.6-0.6C195.5,32,195.6,32.6,195.6,33.2z"/>
			<path class="st0" d="M195.4,30.7L183.2,20l1.1-1.3l10.4,9.2C195,28.8,195.2,29.8,195.4,30.7z"/>
			<path class="st0" d="M191.5,51.8c-0.2,0.2-0.4,0.5-0.6,0.7c-0.2,0.2-0.4,0.3-0.7,0.3c-0.2,0-0.4-0.1-0.6-0.2
				c-0.4-0.3-0.4-0.9-0.1-1.3c0.2-0.2,0.4-0.5,0.6-0.7L191.5,51.8z"/>
			<path class="st0" d="M186.7,47.7l3.4,2.9c-0.2,0.2-0.4,0.5-0.6,0.7c-0.3,0.4-0.3,1,0.1,1.3l0,0l-4.9-4.2l0.1-0.1
				c0.2,0.2,0.4,0.3,0.6,0.3c0.2,0,0.5-0.1,0.7-0.2L186.7,47.7z"/>
			<path class="st0" d="M188.5,32.6c0.4,0.3,0.4,0.8,0.2,1.1l-2.5,0.2l0.5-0.5l-1.4-1.2l2.5-0.2L188.5,32.6z"/>
			<path class="st0" d="M186.2,33.9l2.5-0.2c0,0.1-0.1,0.1-0.1,0.2l-7.8,8.8l-1.4-1.1L186.2,33.9z"/>
			<path class="st0" d="M187.9,13.8c0.1,0.3,0.1,0.6-0.1,0.9l-0.6,0.6c-0.3-0.3-0.6-0.6-0.9-0.8c-0.2-0.1-0.3-0.2-0.4-0.4l0.5-0.6
				c0.2-0.3,0.5-0.4,0.9-0.3C187.4,13.4,187.6,13.5,187.9,13.8C187.8,13.7,187.9,13.7,187.9,13.8z"/>
			<path class="st0" d="M187.9,13.8C187.9,13.7,187.8,13.7,187.9,13.8c-0.3-0.2-0.4-0.4-0.6-0.5c0.2,0,0.3,0.1,0.4,0.3
				C187.8,13.6,187.8,13.7,187.9,13.8z"/>
			<polygon class="st0" points="187.8,32 185.3,32.2 178.2,25.9 179.4,24.5 			"/>
			<path class="st0" d="M187.2,15.3l-2.9,3.4l-1.4-1.2l2.9-3.3c0.1,0.1,0.3,0.2,0.4,0.4C186.6,14.8,186.9,15,187.2,15.3z"/>
			<path class="st0" d="M187.2,13.2c-0.3-0.1-0.6,0-0.9,0.3l-0.5,0.6c-3.8-3.1-8.3-4.9-12.9-5.6l-2.1-1.8
				C176.7,7.1,182.4,9.2,187.2,13.2z"/>
			<path class="st0" d="M186.7,33.4l-0.5,0.5l-9,0.7l0.4-0.4c0.3-0.3,0.3-0.9-0.1-1.2l-0.2-0.2l8-0.6L186.7,33.4z"/>
			<path class="st0" d="M185.2,46.5l1.4,1.2l-0.6,0.7c-0.2,0.1-0.5,0.2-0.7,0.2c-0.2,0-0.5-0.1-0.6-0.3c-0.2-0.2-0.3-0.4-0.3-0.6
				c0-0.2,0.1-0.5,0.2-0.6L185.2,46.5z"/>
			<path class="st0" d="M185.2,46.5l-0.6,0.6c-0.1,0.1-0.2,0.4-0.2,0.6c0,0.2,0.1,0.5,0.3,0.6l-0.1,0.1l-5.7-4.9l0,0
				c0.2,0.1,0.4,0.2,0.6,0.2c0.3,0,0.6-0.1,0.6-0.3l0.6-0.7L185.2,46.5z"/>
			<polygon class="st0" points="184.4,18.7 183.2,20 181.9,18.8 183,17.5 			"/>
			<polygon class="st0" points="183.2,20 179.4,24.5 178,23.3 181.9,18.8 			"/>
			<path class="st0" d="M183,17.5l-1.1,1.3L170,8.4c1,0,1.9,0.1,2.9,0.2L183,17.5z"/>
			<path class="st0" d="M180.8,42.7l-0.6,0.7c0,0.2-0.3,0.3-0.6,0.3c-0.2,0-0.4-0.1-0.6-0.2c-0.4-0.3-0.4-0.9-0.1-1.3l0.6-0.7
				L180.8,42.7z"/>
			<path class="st0" d="M179.5,41.5l-0.6,0.7c-0.3,0.4-0.3,1,0.1,1.3l0,0l-7.4-6.3c0.2-1,0.3-1.6,0.3-1.7c0-0.1,0-0.3,0-0.4h0
				l1.6,1.4l-0.5,0.6c-0.3,0.4-0.3,1,0.1,1.3c0.2,0.1,0.4,0.2,0.6,0.2c0.3,0,0.5-0.1,0.6-0.4l0.5-0.6L179.5,41.5z"/>
			<polygon class="st0" points="179.4,24.5 178.2,25.9 176.8,24.7 178,23.3 			"/>
			<polygon class="st0" points="176.8,24.7 178.2,25.9 174.5,30.3 173.1,29 			"/>
			<polygon class="st0" points="178,23.3 176.8,24.7 169.8,18.5 169.6,15.9 			"/>
			<path class="st0" d="M177.5,33c0.4,0.3,0.4,0.9,0.1,1.2l-0.4,0.4l-2.3,0.2l0.9-1l-0.9-0.8l2.4-0.2L177.5,33z"/>
			<polygon class="st0" points="174.5,30.3 177.3,32.8 174.9,33 173.3,31.6 			"/>
			<polygon class="st0" points="177.2,34.6 174.8,37.6 173.5,36.5 174.9,34.8 			"/>
			<path class="st0" d="M175.8,33.8l-0.9,1l-3,0.2l-0.1-0.1c0-0.1-0.1-0.1-0.1-0.2c0,0,0,0,0,0c0,0,0,0,0,0c0-0.1,0-0.2,0-0.3
				c0-0.2,0-0.5-0.2-0.7l0.4-0.5l3-0.2L175.8,33.8z"/>
			<path class="st0" d="M174.8,37.6l-0.5,0.6c-0.1,0.3-0.3,0.4-0.6,0.4c-0.2,0-0.4-0.1-0.6-0.2c-0.4-0.3-0.4-0.9-0.1-1.3l0.5-0.6
				L174.8,37.6z"/>
			<polygon class="st0" points="174.5,30.3 173.3,31.6 172,30.4 173.1,29 			"/>
			<path class="st0" d="M173.3,31.6l-0.5,0.6c0.2-0.4,0.1-0.7-0.1-1c-0.4-0.4-0.9-0.4-1.3-0.1l-0.5,0.5l1.1-1.2L173.3,31.6z"/>
			<polygon class="st0" points="170.4,26.6 173.1,29 172,30.4 170.6,29.2 			"/>
			<path class="st0" d="M170.9,6.8l2.1,1.8c-1-0.1-1.9-0.2-2.9-0.2l-1.1-1c-0.1-0.3-0.2-0.5-0.4-0.6C169.3,6.7,170.1,6.7,170.9,6.8z
				"/>
			<path class="st0" d="M172.7,31.2c0.2,0.2,0.3,0.6,0.1,1l-0.5,0.6l-0.4,0.5l-0.9,0.1l-0.1-1.6l0.1-0.1l0.5-0.5
				C171.8,30.8,172.3,30.8,172.7,31.2z"/>
			<path class="st0" d="M172.3,32.8l0.5-0.6c0,0.1-0.1,0.1-0.1,0.2L172.3,32.8z"/>
			<polygon class="st0" points="171.8,33.3 172.3,32.8 171.9,33.3 			"/>
			<path class="st0" d="M171.9,33.3l-0.4,0.5c0,0,0,0-0.1-0.1L171.9,33.3L171.9,33.3z"/>
			<path class="st0" d="M171.9,35.1L171.9,35.1C171.8,35,171.8,35,171.9,35.1L171.9,35.1z"/>
			<path class="st0" d="M171.9,35.1c0,0.2,0,0.3,0,0.4c0,0.2-0.1,0.8-0.3,1.7l-1.5-1.3c0.9-0.3,1.3-0.6,1.5-0.8L171.9,35.1z"/>
			<path class="st0" d="M171.8,35C171.8,35,171.8,35,171.8,35l-0.2,0.1c0-0.1,0.1-0.1,0.1-0.2L171.8,35z"/>
			<path class="st0" d="M171.8,33.3l-0.4,0.5c-0.1-0.1-0.2-0.2-0.4-0.3v-0.1L171.8,33.3z"/>
			<path class="st0" d="M171.8,35l-0.2-0.1c0,0,0,0,0-0.1c0,0,0,0,0,0C171.8,34.9,171.8,34.9,171.8,35z"/>
			<path class="st0" d="M171.7,34.5c0,0.1,0,0.2,0,0.3c-0.1-0.1-0.2-0.1-0.3-0.2c0,0,0,0-0.1,0l-0.3-0.3l0.5-0.5
				C171.7,34,171.7,34.3,171.7,34.5z"/>
			<path class="st0" d="M171.7,34.8C171.7,34.8,171.7,34.8,171.7,34.8C171.7,34.8,171.7,34.8,171.7,34.8l-0.4-0.2c0,0,0,0,0.1,0
				C171.5,34.7,171.6,34.7,171.7,34.8z"/>
			<path class="st0" d="M171.3,34.6l0.3,0.3c0,0.1-0.1,0.1-0.1,0.2l-1.5,0.1c0,0,0,0-0.1,0c0,0,0,0,0,0c0.2,0,0.3-0.1,0.5-0.3
				c0.2-0.1,0.3-0.2,0.4-0.4C171.1,34.5,171.2,34.5,171.3,34.6z"/>
			<path class="st0" d="M170.1,35.9l1.5,1.3c-1.2,6.1-5.8,26.6-14.8,35.1l-0.3-0.3c0.2-0.2,0.4-0.4,0.4-0.8c0-0.4-0.3-0.8-0.7-0.9
				c4.7-5,8.2-13.6,10.4-21c1.1-0.7,1.7-1.2,1.8-1.3c0.2-0.2,0.3-0.5,0.3-0.7c0-0.2-0.1-0.4-0.2-0.6c-0.3-0.3-0.7-0.4-1-0.2
				c1.4-5,2.2-9.1,2.5-10.6C170,35.9,170,35.9,170.1,35.9z"/>
			<path class="st0" d="M170.1,35.2l1.5-0.1c-0.2,0.3-0.6,0.6-1.5,0.8l-0.1-0.1c0,0,0,0,0,0c-0.1-0.2-0.1-0.4,0-0.5
				C170,35.3,170,35.2,170.1,35.2C170.1,35.2,170.1,35.2,170.1,35.2z"/>
			<path class="st0" d="M171.5,33.8l-0.5,0.5l0,0c0-0.1,0-0.1,0-0.2L171.5,33.8C171.4,33.7,171.4,33.7,171.5,33.8z"/>
			<path class="st0" d="M171.4,33.7l-0.4,0.4c0,0,0-0.1,0-0.1l-0.1-0.6C171.1,33.5,171.3,33.6,171.4,33.7z"/>
			<path class="st0" d="M171,34.3l0.3,0.3c-0.1-0.1-0.2-0.1-0.4-0.1C171,34.4,171,34.4,171,34.3C171,34.3,171,34.3,171,34.3
				L171,34.3z"/>
			<path class="st0" d="M171,34.1c0,0.1,0,0.1,0,0.2l-0.1-0.1L171,34.1z"/>
			<path class="st0" d="M171,34C171,34,171,34.1,171,34l-0.1,0.2l-0.9-0.8c0,0,0.1,0,0.1,0l0.7-0.1c0.1,0,0.1,0,0.1,0.1L171,34z"/>
			<path class="st0" d="M171,34.3L171,34.3C171,34.3,171,34.3,171,34.3L171,34.3z"/>
			<path class="st0" d="M171,34.3C171,34.3,171,34.3,171,34.3l-0.2,0.2c-0.1,0-0.2,0-0.3,0.1l0.4-0.4L171,34.3
				C171,34.3,171,34.3,171,34.3z"/>
			<path class="st0" d="M170.8,34.5l0.2-0.2C171,34.4,171,34.4,170.8,34.5C170.9,34.5,170.9,34.5,170.8,34.5
				C170.9,34.5,170.9,34.5,170.8,34.5z"/>
			<path class="st0" d="M170.9,33.3L170.9,33.3c-0.1,0.1-0.1,0-0.1,0L170.9,33.3z"/>
			<path class="st0" d="M170.8,31.7l0.1,1.6l-0.1,0c-0.3-0.1-0.6-0.2-1.1-0.4L170.8,31.7z"/>
			<path class="st0" d="M170.9,34.5C170.9,34.5,170.9,34.5,170.9,34.5c-0.1,0.2-0.2,0.3-0.4,0.4L170.9,34.5
				C170.9,34.5,170.9,34.5,170.9,34.5z"/>
			<path class="st0" d="M170.9,34.2l-0.4,0.4c-0.1,0.1-0.3,0.2-0.3,0.3l0,0l0-0.1c-0.5,0-0.8-0.3-0.9-0.7c0,0,0,0,0,0
				c0.1-0.4,0.4-0.7,0.8-0.8L170.9,34.2z"/>
			<polygon class="st0" points="170.8,31.7 170.9,31.6 170.8,31.7 			"/>
			<path class="st0" d="M168.3,4.5l2.6,2.3c-0.8-0.1-1.6-0.1-2.4,0c-0.1-0.1-0.3-0.1-0.4-0.1l-0.2-0.2l-0.4,0.4
				c-0.9,0-1.8,0.2-2.6,0.3l2.2-2.5C167.3,4.2,167.9,4.2,168.3,4.5z"/>
			<path class="st0" d="M170.8,34.5l-0.3,0.4c-0.1,0-0.2,0.1-0.3,0.1l-0.1,0v0l0,0l0.3-0.3C170.6,34.5,170.7,34.5,170.8,34.5z"/>
			<path class="st0" d="M170.8,31.7l-1.1,1.3c-0.1,0-0.1,0-0.2,0L170.8,31.7z"/>
			<path class="st0" d="M170.8,31.7L170.8,31.7l-1.3,1.3c-0.1,0-0.1,0-0.2,0l-0.3-0.2l-0.4-4.4l0.4-0.4l1.5,1.4L170.8,31.7z"/>
			<path class="st0" d="M170.8,33.3l-0.7,0.1c-0.1,0-0.1,0-0.1,0l-0.4-0.3l0.1-0.1C170.2,33.1,170.5,33.2,170.8,33.3z"/>
			<path class="st0" d="M170.4,26.6l0.2,2.5l-1.5-1.4l-0.4,0.4l-0.2-2.5c0.1-0.1,0.2-0.1,0.4-0.1c0.2,0,0.5,0.1,0.6,0.2L170.4,26.6z
				"/>
			<path class="st0" d="M170.5,34.6l-0.3,0.3C170.2,34.8,170.4,34.7,170.5,34.6z"/>
			<path class="st0" d="M170.4,26.6l-0.9-0.8c-0.1-0.1-0.4-0.2-0.6-0.2c-0.1,0-0.2,0-0.4,0.1l-0.6-7.9l0.5-0.5l1.4,1.2L170.4,26.6z"
				/>
			<path class="st0" d="M170.2,35c0.1,0,0.2-0.1,0.3-0.1c-0.1,0.1-0.3,0.2-0.5,0.3C170.1,35.1,170.1,35,170.2,35L170.2,35L170.2,35z
				"/>
			<path class="st0" d="M170.1,34.9L170.1,34.9L170.1,34.9l-0.2,0.2h0c-0.4-0.1-0.7-0.4-0.7-0.9c0,0,0-0.1,0-0.1
				C169.3,34.6,169.6,34.9,170.1,34.9L170.1,34.9z"/>
			<path class="st0" d="M169.9,35.2l0.2-0.2c0,0.1-0.1,0.1-0.1,0.2C170,35.2,170,35.2,169.9,35.2C169.9,35.2,169.9,35.2,169.9,35.2z
				"/>
			<path class="st0" d="M170.1,35.9c0,0-0.1,0-0.1,0C170,35.9,170,35.9,170.1,35.9L170.1,35.9z"/>
			<path class="st0" d="M170,35.2C170,35.2,170,35.2,170,35.2C170,35.2,170,35.2,170,35.2C170,35.2,170,35.2,170,35.2z"/>
			<path class="st0" d="M168.9,7.4l1.1,1c-0.3,0-0.7,0-1.1,0L168.9,7.4C168.9,7.4,168.9,7.4,168.9,7.4z"/>
			<path class="st0" d="M170,35.2c0,0,0,0.1,0,0.1c-0.1,0.1-0.1,0.3,0,0.5c0,0,0,0,0,0l-0.4-0.3l0.3-0.3
				C169.9,35.2,169.9,35.2,170,35.2C170,35.2,170,35.2,170,35.2z"/>
			<path class="st0" d="M170,35.8c0,0,0,0.1,0,0.1c-0.3,0.1-0.7,0.2-1.1,0.3l0.7-0.7L170,35.8z"/>
			<path class="st0" d="M169.6,33.1l0.4,0.3c-0.4,0.1-0.7,0.4-0.8,0.8c0,0,0,0,0-0.1l0-0.5L169.6,33.1z"/>
			<path class="st0" d="M170,35.2C169.9,35.2,169.9,35.2,170,35.2L170,35.2L170,35.2C169.9,35.2,169.9,35.2,170,35.2z"/>
			<path class="st0" d="M169.9,35.2L169.9,35.2c0,0-0.1,0-0.1,0c-0.2,0-0.4-0.1-0.6-0.2c-0.4-0.3-0.4-0.9-0.1-1.3l0.1-0.1l0,0.5
				c0,0,0,0,0,0.1c0,0,0,0,0,0c0,0,0,0.1,0,0.1C169.2,34.7,169.5,35.1,169.9,35.2z"/>
			<path class="st0" d="M169.9,35.2l-0.3,0.3l-1.2-1c0.1,0,0.2-0.1,0.3-0.1c-0.2,0-0.3-0.1-0.5-0.1l0.9-0.9l0,0.3l-0.1,0.1
				c-0.3,0.4-0.3,1,0.1,1.3c0.2,0.1,0.4,0.2,0.6,0.2C169.8,35.2,169.9,35.2,169.9,35.2z"/>
			<path class="st0" d="M169.6,15.9l0.2,2.6l-1.4-1.2l-0.5,0.5l-0.2-2.6c0.3-0.3,0.8-0.3,1.2,0L169.6,15.9z"/>
			<path class="st0" d="M169.7,33l-0.1,0.1l-0.1-0.1l0.1-0.1C169.6,32.9,169.7,33,169.7,33z"/>
			<polygon class="st0" points="169.6,33.1 169.2,33.6 169.1,33.4 169.5,33 			"/>
			<path class="st0" d="M169.6,35.5l-0.7,0.7c-0.8,0.2-1.8,0.3-3.1,0.5l2.2-2.2c0.1,0,0.3-0.1,0.4-0.1L169.6,35.5z"/>
			<path class="st0" d="M169,8.4l0.6,7.5l-0.7-0.6c-0.4-0.3-0.9-0.3-1.2,0l-0.5-6.8C167.8,8.4,168.4,8.4,169,8.4z"/>
			<path class="st0" d="M169.6,32.9L169.6,32.9l-0.2,0C169.4,32.9,169.5,32.9,169.6,32.9z"/>
			<path class="st0" d="M169.5,33l-0.4,0.4l0-0.5c0.1,0,0.2,0,0.3,0.1L169.5,33z"/>
			<path class="st0" d="M169.1,32.6l0.3,0.2c-0.1,0-0.2,0-0.3-0.1L169.1,32.6z"/>
			<path class="st0" d="M169.1,32.8l0,0.5l-0.9,0.9c0,0,0,0,0,0l-2.4-2C167.2,32.5,168.3,32.6,169.1,32.8z"/>
			<path class="st0" d="M169.1,32.6l0,0.2c-0.8-0.2-1.9-0.4-3.3-0.5l-0.9-0.8c0.4,0.2,0.8,0.1,1.1-0.2l0.6-0.7L169.1,32.6z"/>
			<path class="st0" d="M168.9,7.4l0.1,1c-0.6,0-1.2,0-1.8,0.1l-0.1-0.9c0-0.2,0.1-0.5,0.2-0.6l0.1-0.1c0,0,0,0,0.1,0
				c0.2,0,0.5,0,0.7,0L168.9,7.4C168.9,7.4,168.9,7.4,168.9,7.4z"/>
			<path class="st0" d="M168.9,7.4l-0.7-0.6c0.1,0,0.2,0,0.2,0C168.7,6.9,168.8,7.1,168.9,7.4z"/>
			<path class="st0" d="M168.9,36.2l-19.5,19.5c-1.2,0.4-2.5,0.8-3.8,1.1l20.1-20.1C167.1,36.6,168.1,36.4,168.9,36.2z"/>
			<path class="st0" d="M168.5,25.7l0.2,2.5l-2.1,2.4l-1.4-1.2l3.1-3.5C168.4,25.8,168.5,25.8,168.5,25.7z"/>
			<path class="st0" d="M168.7,34.4c-0.1,0-0.2,0-0.3,0.1l-0.2-0.2l0,0C168.4,34.3,168.5,34.4,168.7,34.4z"/>
			<path class="st0" d="M168.5,46.8c0.1,0.2,0.2,0.4,0.2,0.6c0,0.2-0.1,0.5-0.3,0.7c-0.1,0.1-0.7,0.6-1.8,1.3c0.3-1,0.6-1.9,0.8-2.9
				C167.8,46.4,168.2,46.5,168.5,46.8z"/>
			<path class="st0" d="M168.4,6.7c-0.1,0-0.2,0-0.2,0L168,6.6C168.2,6.6,168.3,6.7,168.4,6.7z"/>
			<path class="st0" d="M168.2,34.3l0.2,0.2c-0.1,0-0.3,0-0.4,0.1L168.2,34.3z"/>
			<path class="st0" d="M168.2,34.3L168.2,34.3L168.2,34.3C168.2,34.3,168.2,34.3,168.2,34.3z"/>
			<path class="st0" d="M168,6.6l0.2,0.1c-0.2,0-0.5,0-0.7,0c0.1-0.1,0.3-0.2,0.4-0.2C167.9,6.6,168,6.6,168,6.6z"/>
			<path class="st0" d="M165.8,32.3l2.4,2c-7.9-1.5-37.6-2.8-76.8-2.8c-24.9,0-46,0.5-60.1,1.3l-1.6-1.6c1.7-0.1,3.5-0.2,5.5-0.3
				c15-0.7,35-1.1,56.2-1.1s41.2,0.4,56.2,1.1C156.6,31.3,162.3,31.8,165.8,32.3z"/>
			<path class="st0" d="M168,34.5l-2.2,2.2c-3.5,0.5-9.2,0.9-18.2,1.4c-15,0.7-34.9,1.1-56.2,1.1c-20.6,0-40-0.4-54.8-1l-2-2
				c14,0.7,33.7,1.2,56.8,1.2C130.2,37.3,159.8,36,168,34.5z"/>
			<path class="st0" d="M167.7,15.3l0.2,2.6l-6.9,7.9l-1.4-1.2l8-9.1C167.6,15.4,167.7,15.3,167.7,15.3z"/>
			<path class="st0" d="M167.5,6.8C167.5,6.8,167.4,6.8,167.5,6.8L167.5,6.8C167.5,6.8,167.5,6.8,167.5,6.8z"/>
			<path class="st0" d="M167.4,6.8L167.4,6.8L167.3,7l-1.5,1.7c-1,0.1-1.9,0.3-2.9,0.6l1.9-2.1C165.7,6.9,166.6,6.8,167.4,6.8z"/>
			<path class="st0" d="M167.2,46.7c0.1-0.1,0.2-0.1,0.3-0.2c-0.2,0.9-0.5,1.9-0.8,2.9c-1.8,1.2-4.8,3.1-8.9,5.1
				c-3.1,1.4-6.8,2.9-11.1,4.1l2.8-2.8C160.8,51.9,167.1,46.8,167.2,46.7z"/>
			<path class="st0" d="M165.8,8.6l1.5-1.7c-0.1,0.2-0.2,0.4-0.2,0.6l0.1,0.9C166.7,8.5,166.3,8.6,165.8,8.6z"/>
			<path class="st0" d="M166.6,30.6l-0.6,0.7c-0.2,0.3-0.7,0.4-1.1,0.2l-0.4-0.4c-0.2-0.3-0.1-0.8,0.1-1.1l0.6-0.7L166.6,30.6z"/>
			<path class="st0" d="M165.8,8.6l-10.7,12.1l-1.4-1.2l9.1-10.4C163.9,9,164.9,8.8,165.8,8.6z"/>
			<path class="st0" d="M161,25.7l4.2,3.6l-0.6,0.7c-0.2,0.3-0.3,0.8-0.1,1.1l-5.4-4.6l0,0c0.4,0.3,1,0.3,1.3-0.1L161,25.7z"/>
			<path class="st0" d="M164.5,31.2l0.4,0.4c-0.1,0-0.2-0.1-0.2-0.1C164.6,31.3,164.6,31.3,164.5,31.2z"/>
			<path class="st0" d="M164.8,7.1l-1.9,2.1c-4.7,1.2-9,3.7-12.5,7.5l-1.4-1.2C153.4,10.9,158.9,8,164.8,7.1z"/>
			<path class="st0" d="M161,25.7l-0.6,0.7c-0.3,0.4-0.9,0.4-1.3,0.1c-0.4-0.3-0.4-0.9-0.1-1.3l0.6-0.7L161,25.7z"/>
			<path class="st0" d="M155.2,20.7l4.4,3.8l-0.6,0.7c-0.3,0.4-0.3,1,0.1,1.3l0,0l-5.6-4.8c0.4,0.1,0.8,0,1-0.3L155.2,20.7z"/>
			<path class="st0" d="M156.5,72l0.3,0.3c-0.4,0.4-0.8,0.7-1.2,1c-5.2,4.2-10.7,6.5-15.1,8.4c-5.1,2.1-9.1,3.8-10.5,7.2
				c-1.5,4-2.8,8.1-3.7,12.3c0,0.1-0.1,0.2-0.1,0.4l-0.4-0.1c0-0.1,0-0.1,0-0.2V96c0.7-2.6,1.6-5.1,2.5-7.6c1.7-4.1,6-5.9,11.4-8.2
				c4.5-1.9,9.5-4.1,14.6-8h1.7C156.2,72.2,156.4,72.1,156.5,72z"/>
			<path class="st0" d="M156.9,71.3c0,0.3-0.2,0.6-0.4,0.8c-0.1,0.1-0.3,0.1-0.5,0.1h-1.7c0,0,0.1-0.1,0.1-0.1
				c0.6-0.5,1.2-1,1.8-1.7C156.6,70.5,156.9,70.9,156.9,71.3z"/>
			<path class="st0" d="M156,70.4c0.1,0,0.1,0,0.2,0c-0.6,0.6-1.2,1.2-1.8,1.7c0,0-0.1,0.1-0.1,0.1H133l1.8-1.8H156z"/>
			<path class="st0" d="M155.2,20.7l-0.7,0.8c-0.2,0.3-0.6,0.4-1,0.3l-0.5-0.5c-0.1-0.3-0.1-0.7,0.1-0.9l0.7-0.8L155.2,20.7z"/>
			<path class="st0" d="M153.8,19.6l-0.7,0.8c-0.2,0.2-0.3,0.6-0.1,0.9l-4.2-3.6c0.4,0.1,0.8,0,1-0.3c0.2-0.2,0.4-0.5,0.6-0.7
				L153.8,19.6z"/>
			<path class="st0" d="M153,21.3l0.5,0.5c-0.1,0-0.2-0.1-0.3-0.2C153.1,21.5,153,21.4,153,21.3z"/>
			<path class="st0" d="M150.4,16.7c-0.2,0.2-0.4,0.5-0.6,0.7c-0.2,0.3-0.7,0.4-1,0.3l-0.6-0.5c-0.1-0.3-0.1-0.7,0.1-0.9l0.1-0.1
				c0.2-0.2,0.4-0.5,0.6-0.7L150.4,16.7z"/>
			<path class="st0" d="M149.4,55.7l-2.8,2.8c-1.1,0.3-2.3,0.6-3.5,0.9l2.6-2.6C147,56.5,148.2,56.1,149.4,55.7z"/>
			<path class="st0" d="M148.2,17.2l0.6,0.5c-0.1,0-0.2-0.1-0.3-0.1C148.4,17.5,148.3,17.4,148.2,17.2z"/>
			<path class="st0" d="M146.6,58.6l-11.8,11.8h-2.7l11-11C144.3,59.2,145.5,58.9,146.6,58.6z"/>
			<path class="st0" d="M145.6,56.8l-2.6,2.6c-4.3,1-9.1,1.7-14.4,2c-1,0.1-2,0.1-2.9,0.2v-0.8c0-0.5-0.4-0.9-0.9-0.9l0-0.2
				c1.2,0,2.4-0.1,3.7-0.1C135,59.2,140.7,58.2,145.6,56.8z"/>
			<polygon class="st0" points="134.8,70.4 133,72.2 130.3,72.2 132.1,70.4 			"/>
			<polygon class="st0" points="133,72.2 125.8,79.4 125.8,76.7 130.3,72.2 			"/>
			<polygon class="st0" points="132.1,70.4 130.3,72.2 125.8,72.2 125.8,70.4 			"/>
			<path class="st0" d="M127.4,258.1c0.1,0.2,0.1,0.4,0.1,0.6c0,5.8-19,8.9-36.8,8.9s-36.8-3.1-36.8-8.9c0-0.1,0-0.1,0-0.2
				c0,0.5,0.4,0.8,0.9,0.8h1.1c1.6,2.9,14.5,6.5,34.8,6.5s33.2-3.6,34.8-6.5h0.8c0.5-0.1,0.9-0.5,0.9-1c0-0.1,0-0.1,0-0.2
				L127.4,258.1z"/>
			<path class="st0" d="M127.4,258.1l-0.2,0.1c-0.1-0.4-0.4-0.7-0.9-0.7h-1.4c-2.5-2.2-10.9-4.6-23.7-5.5l0.2-0.3
				c0.2-0.4,0.1-0.8-0.2-1.1c-0.1-0.1-0.3-0.2-0.5-0.2l0-0.2C114.3,251,126.4,253.7,127.4,258.1z"/>
			<path class="st0" d="M127.2,258.1c0,0.1,0,0.1,0,0.2c0,0.5-0.4,0.9-0.9,1h-0.8c0.1-0.2,0.2-0.4,0.2-0.6c0-0.4-0.3-0.9-0.8-1.3
				h1.4C126.7,257.4,127.1,257.7,127.2,258.1z"/>
			<path class="st0" d="M125.8,101.5l0.4,0.1c-1.3,4.9-2.6,10-4.8,14.6c-0.9,2-2.1,3.8-3.3,5.6l-0.2-0.2c0.2-0.2,0.2-0.5,0.2-0.8
				c1.7-2,2.6-4.6,2.6-7.5c1.5-3.7,2.6-7.7,3.6-11.5c0.2,0.2,0.4,0.3,0.7,0.3C125.3,102.2,125.7,101.9,125.8,101.5z"/>
			<path class="st0" d="M125.8,96v5.4c0,0,0,0.1,0,0.2c-0.1,0.3-0.4,0.6-0.9,0.6c-0.3,0-0.5-0.1-0.7-0.3c0.1-0.3,0.2-0.7,0.3-1
				C124.9,99.2,125.3,97.6,125.8,96z"/>
			<path class="st0" d="M125.8,79.4V96c-0.5,1.6-0.9,3.3-1.3,4.9c-0.1,0.3-0.2,0.7-0.3,1c-0.1-0.2-0.2-0.4-0.2-0.6V81.2L125.8,79.4z
				"/>
			<polygon class="st0" points="125.8,76.7 125.8,79.4 124,81.2 124,78.5 			"/>
			<path class="st0" d="M125.8,72.2v4.5l-1.8,1.8v-7.2h0.2c0,0.5,0.4,0.9,0.9,0.9H125.8z"/>
			<path class="st0" d="M125.8,70.4v1.8h-0.7c-0.5,0-0.9-0.4-0.9-0.9s0.4-0.9,0.9-0.9H125.8z"/>
			<path class="st0" d="M125.8,61.5v8.9h-0.7c-0.5,0-0.9,0.4-0.9,0.9H124v-9.7C124.6,61.6,125.2,61.6,125.8,61.5z"/>
			<path class="st0" d="M125.8,60.7v0.8c-0.6,0-1.2,0-1.8,0v-0.9c0-0.5,0.4-0.9,0.9-0.9S125.8,60.2,125.8,60.7z"/>
			<path class="st0" d="M125.7,258.7c0,0.2-0.1,0.4-0.2,0.6H96.7c-0.3,0-0.6-0.2-0.8-0.4c-0.2-0.3-0.2-0.6,0-0.9l2-3.6l-6.4,4.6
				c-0.2,0.1-0.3,0.2-0.5,0.2h-0.4v-0.7c0.5,0,0.9-0.5,0.9-1v-0.7l6.9-5c1,0.1,1.9,0.1,2.8,0.2l-3,5.5h26.7
				C125.4,257.8,125.7,258.3,125.7,258.7z"/>
			<path class="st0" d="M124.9,59.6l0,0.2c-0.5,0-0.9,0.4-0.9,0.9v0.9c-1,0-2,0-3,0c-4.7,0-8.8-0.2-12.5-0.6v-0.6
				c0-0.5-0.4-0.9-0.9-0.9l0.1-0.5C112.5,59.6,118.1,59.8,124.9,59.6z"/>
			<path class="st0" d="M124,78.5v2.7L109.2,96c-0.3-0.2-0.6-0.3-0.8-0.4c0.1-0.1,0.1-0.3,0.1-0.4V94L124,78.5z"/>
			<path class="st0" d="M120.6,113.4c0,2.9-0.9,5.5-2.6,7.5c0-0.2-0.1-0.4-0.2-0.5l-0.6-0.6c0.9-1.4,1.8-2.8,2.5-4.3
				C120,114.8,120.3,114.1,120.6,113.4z"/>
			<path class="st0" d="M120.4,111c0.1,0.8,0.2,1.7,0.2,2.4c-0.3,0.7-0.6,1.4-0.9,2.1c-0.7,1.5-1.5,3-2.5,4.3l-0.4-0.4
				c1.6-2.1,2.2-4.9,1.7-8.1c-0.7-3.9-2.7-7.5-5.6-10.3c-1.4-1.4-3-2.7-4.8-3.6c-0.3-0.1-0.5-0.3-0.8-0.4l0.1-0.1
				c0.1,0,0.2,0.1,0.3,0.1c0.3,0,0.5-0.1,0.7-0.2l0.8-0.8c1.8,1,3.5,2.2,5,3.7c1.6,1.5,2.9,3.2,4,5.2
				C119.2,106.8,119.9,108.8,120.4,111z"/>
			<path class="st1" d="M118.5,111.3c0.5,3.2-0.1,6-1.7,8.1L94.7,97c1.7-1.2,3.7-1.8,5.8-1.7c0.7,0,1.4,0.1,2,0.2
				c1.7,0.3,3.3,0.8,4.8,1.5c0.3,0.1,0.5,0.3,0.8,0.4c1.8,0.9,3.4,2.1,4.8,3.6C115.8,103.8,117.8,107.4,118.5,111.3z"/>
			<path class="st0" d="M117.8,121.7l0.2,0.2c-2.5,3.5-5.7,6.5-9.3,8.8c0.3-0.4,0.3-0.8-0.1-1.2l-0.5-0.6c2.3-1.5,4.3-3.3,6.2-5.3
				c1-0.4,1.9-1,2.7-1.7c0,0,0,0,0.1,0C117.3,121.9,117.6,121.8,117.8,121.7z"/>
			<path class="st0" d="M118,120.9c0,0.3,0,0.5-0.2,0.8c-0.2,0.1-0.5,0.2-0.7,0.2c0,0,0,0-0.1,0c0.2-0.2,0.4-0.3,0.6-0.5
				C117.7,121.2,117.9,121.1,118,120.9z"/>
			<path class="st0" d="M118,120.9c-0.1,0.2-0.3,0.3-0.4,0.5c-0.2,0.2-0.4,0.3-0.6,0.5c-0.2,0-0.5-0.1-0.5-0.3l-0.3-0.3
				c0.4-0.5,0.7-1,1-1.5l0.6,0.6C117.9,120.6,118,120.8,118,120.9z"/>
			<path class="st0" d="M116.8,119.4l0.4,0.4c-0.3,0.5-0.7,1-1,1.5l-0.6-0.6c0.2-0.2,0.4-0.4,0.6-0.6
				C116.4,119.9,116.6,119.6,116.8,119.4z"/>
			<path class="st0" d="M94.7,97l22.1,22.4c-0.2,0.2-0.4,0.5-0.6,0.7c-0.2,0.2-0.4,0.4-0.6,0.6L93.4,98.2c0.1-0.1,0.2-0.2,0.3-0.3
				C94,97.6,94.4,97.3,94.7,97z"/>
			<path class="st0" d="M116.5,121.6c0.1,0.2,0.3,0.3,0.5,0.3c-0.8,0.7-1.8,1.3-2.7,1.7c0.7-0.7,1.3-1.5,1.9-2.3L116.5,121.6z"/>
			<path class="st0" d="M115.6,120.7l0.6,0.6c-0.6,0.8-1.2,1.6-1.9,2.3c-1.5,0.7-3.1,1-4.8,1c-0.8,0-1.5-0.1-2.3-0.2
				c-1.8-0.3-3.5-0.8-5.1-1.6l-10.3-10.5v0c0-0.4-0.2-0.7-0.5-0.8l0-5.4c0.5,3.7,2.4,7.7,5.7,11c2.8,2.9,6.5,4.8,10.4,5.5
				C110.7,123,113.5,122.4,115.6,120.7z"/>
			<path class="st1" d="M93.4,98.2l22.2,22.4c-2.1,1.8-4.9,2.4-8.2,1.9c-3.9-0.7-7.6-2.6-10.4-5.5c-3.3-3.3-5.3-7.3-5.7-11v0V103
				C91.5,101.2,92.2,99.5,93.4,98.2z"/>
			<path class="st0" d="M108.4,95.5c0.3,0.1,0.6,0.3,0.8,0.4l-0.8,0.8c-0.2,0.1-0.4,0.2-0.7,0.2c-0.1,0-0.2,0-0.3-0.1
				c-0.1-0.1-0.2-0.1-0.3-0.2l-2.6-2.6c0.7,0.2,1.5,0.4,2.2,0.7v0.3c0,0.5,0.4,0.9,0.9,0.9C107.9,96,108.2,95.8,108.4,95.5z"/>
			<path class="st0" d="M108.7,129.5c0.4,0.4,0.4,0.8,0.1,1.2c-0.2,0.1-0.4,0.3-0.6,0.4c0,0,0,0-0.1,0c-0.2,0-0.5-0.1-0.7-0.3
				l-0.8-0.9c0.5-0.3,1.1-0.6,1.6-1L108.7,129.5z"/>
			<path class="st0" d="M108.2,131.1c0.2-0.1,0.4-0.3,0.6-0.4c0,0-0.1,0.1-0.1,0.1C108.5,131,108.3,131.1,108.2,131.1z"/>
			<path class="st0" d="M108.5,94v1.1c0,0.2,0,0.3-0.1,0.4c-0.6-0.3-1.1-0.5-1.7-0.7v-1l1,1L108.5,94z"/>
			<path class="st0" d="M108.5,61v33l-0.8,0.8l-1-1v-33C107.3,60.8,107.9,60.9,108.5,61z"/>
			<path class="st0" d="M108.5,60.4V61c-0.6-0.1-1.2-0.1-1.8-0.2v-0.4c0-0.5,0.4-0.9,0.9-0.9S108.5,59.9,108.5,60.4z"/>
			<path class="st0" d="M108.1,131.1C108.1,131.1,108.1,131.1,108.1,131.1c-0.9,0.6-1.8,1.1-2.8,1.6c-4.4,2-9,3.1-13.7,3.1
				c-0.1,0-0.2,0-0.3,0v-1.7c0.1,0,0.2,0,0.3,0c4.4,0,8.8-1.1,12.8-3c0.7-0.4,1.4-0.8,2.2-1.2l0.8,0.9
				C107.6,131,107.9,131.1,108.1,131.1z"/>
			<path class="st0" d="M102.1,122.8l6,6.1c-0.5,0.3-1.1,0.7-1.6,1l-15.3-15.5l0-1.3c0.1-0.1,0.3-0.2,0.4-0.3c1,2,2.4,3.9,4.2,5.6
				C97.6,120.3,99.8,121.8,102.1,122.8z"/>
			<path class="st0" d="M108.4,95.5c-0.1,0.3-0.4,0.5-0.8,0.5c-0.5,0-0.9-0.4-0.9-0.9v-0.3C107.3,95,107.8,95.2,108.4,95.5z"/>
			<path class="st0" d="M107.7,59l-0.1,0.5c-0.5,0-0.9,0.4-0.9,0.9v0.4c-6.1-0.8-11-2-15.5-3.5v-0.8c0-0.4-0.2-0.7-0.5-0.8l0.2-0.5
				C95.6,56.8,100.9,58.2,107.7,59z"/>
			<path class="st0" d="M107.4,96.9L107.4,96.9c-1.6-0.6-3.2-1.1-4.9-1.4c-0.6-0.1-1.3-0.2-2-0.2c-2.1-0.1-4.1,0.5-5.8,1.7l-1.2-1.2
				c2.4-1.9,5.7-2.6,9.3-2.1c0.6,0.1,1.1,0.2,1.7,0.4l2.6,2.6C107.2,96.8,107.2,96.9,107.4,96.9z"/>
			<path class="st0" d="M106.7,93.8v1c-0.7-0.3-1.4-0.5-2.2-0.7L91.2,80.7l0-2.6L106.7,93.8z"/>
			<path class="st0" d="M91.8,112.3l10.3,10.5c-2.3-1.1-4.5-2.5-6.3-4.4c-1.7-1.7-3.1-3.6-4.2-5.6C91.7,112.7,91.8,112.5,91.8,112.3
				z"/>
			<path class="st0" d="M101.2,250.5c0.3,0.3,0.4,0.7,0.2,1.1l-0.2,0.3c-0.9-0.1-1.9-0.1-2.8-0.2l1.7-1.3c0.2-0.1,0.3-0.2,0.6-0.2
				C100.8,250.3,101.1,250.3,101.2,250.5z"/>
			<path class="st0" d="M100.7,250.1l0,0.2c-0.2,0-0.4,0.1-0.6,0.2l-1.7,1.3c-2.2-0.1-4.5-0.2-6.9-0.2v-1.8
				C94.6,249.8,97.6,249.9,100.7,250.1z"/>
			<path class="st0" d="M93.5,95.8l1.2,1.2c-0.4,0.3-0.7,0.6-1,0.9c-0.1,0.1-0.2,0.2-0.3,0.3L92.2,97c0.1-0.1,0.2-0.2,0.3-0.3
				C92.8,96.4,93.2,96.1,93.5,95.8z"/>
			<path class="st0" d="M91.3,93.5l2.3,2.3c-0.4,0.3-0.7,0.6-1,0.9c-0.1,0.1-0.2,0.2-0.3,0.3l-0.9-1V93.5z"/>
			<path class="st0" d="M92.2,97l1.2,1.2c-1.2,1.3-1.9,3-2.1,4.8l0-4.8C91.5,97.8,91.8,97.4,92.2,97z"/>
			<path class="st0" d="M91.8,112.3L91.8,112.3l-0.5-0.5v-0.3C91.6,111.6,91.8,111.9,91.8,112.3z"/>
			<path class="st0" d="M91.3,111.8l0.5,0.5c0,0.2-0.1,0.4-0.2,0.5c-0.1-0.2-0.2-0.5-0.4-0.7V111.8z"/>
			<path class="st0" d="M91.3,112.1c0.1,0.2,0.2,0.5,0.4,0.7c-0.1,0.1-0.2,0.2-0.4,0.3V112.1z"/>
			<path class="st0" d="M91.5,256.8v0.7c0,0.5-0.4,1-0.9,1s-0.9-0.4-0.9-0.9v-0.2h1L91.5,256.8z"/>
			<path class="st0" d="M91.5,251.6l0,5.2l-0.8,0.6h-1l0-5.8c0.3,0,0.7,0,1,0C91,251.6,91.2,251.6,91.5,251.6z"/>
			<path class="st0" d="M91.5,249.8v1.8c-0.3,0-0.5,0-0.8,0c-0.3,0-0.7,0-1,0v-1.8c0.3,0,0.7,0,1,0C91,249.8,91.2,249.8,91.5,249.8z
				"/>
			<path class="st0" d="M91.3,135.8l0.2,114c-0.3,0-0.5,0-0.8,0c-0.3,0-0.7,0-1,0l-0.2-114.1C90.1,135.8,90.7,135.8,91.3,135.8z"/>
			<path class="st0" d="M91.3,134.1v1.7c-0.6,0-1.2,0-1.8-0.1V134C90.1,134.1,90.7,134.1,91.3,134.1z"/>
			<path class="st0" d="M91.3,114.4l0,19.7c-0.6,0-1.2,0-1.8-0.1l0-20.8h0.6L91.3,114.4z"/>
			<path class="st0" d="M91.3,113.1l0,1.3l-1.2-1.2h0.8C91,113.2,91.2,113.2,91.3,113.1z"/>
			<path class="st0" d="M91.3,112.1v1c-0.1,0.1-0.2,0.1-0.4,0.1h-0.8l-0.2-0.2c-0.3-0.4-0.3-0.9,0-1.3c0.3-0.3,0.8-0.3,1.2-0.1
				C91.1,111.8,91.2,111.9,91.3,112.1z"/>
			<path class="st0" d="M91.3,111.8v0.3c-0.1-0.2-0.2-0.3-0.2-0.5C91.1,111.6,91.2,111.7,91.3,111.8L91.3,111.8z"/>
			<path class="st0" d="M91.3,111.5v0.3l-0.1-0.1c0,0-0.1-0.1-0.1-0.1c0-0.1-0.1-0.1-0.1-0.2C91.1,111.4,91.2,111.4,91.3,111.5z"/>
			<path class="st0" d="M91.3,106.1l0,5.4c-0.1,0-0.2-0.1-0.3-0.1c-1-2.3-1.5-4.6-1.5-6.7v-0.2c0-2.3,0.6-4.5,1.8-6.3l0,4.8
				C91.1,104,91.1,105,91.3,106.1L91.3,106.1z"/>
			<path class="st0" d="M91.3,103v3.1C91.1,105,91.1,104,91.3,103z"/>
			<path class="st0" d="M91.3,96.1v2.2c-1.2,1.8-1.8,4-1.8,6.3l0-10.3L91.3,96.1z"/>
			<polygon class="st0" points="91.3,93.5 89.4,91.7 89.4,80.5 90.2,79.6 91.2,80.7 			"/>
			<polygon class="st0" points="89.4,91.7 91.3,93.5 91.3,96.1 89.5,94.2 			"/>
			<path class="st0" d="M91.2,78l0,2.6l-1-1l0.5-0.5c0.1-0.1,0.1-0.2,0.2-0.3c0,0,0,0,0,0c0.1-0.1,0.1-0.3,0.1-0.5
				c0-0.5-0.4-0.9-0.9-0.9h-0.7v0c0.3-0.3,0.8-0.2,1.2,0l0.1,0.1L91.2,78z"/>
			<path class="st0" d="M91.2,57.2l0,20.8l-0.5-0.5l-0.1-0.1c-0.3-0.3-0.8-0.3-1.2,0l0-19.9l0.8,0c0.3,0,0.6-0.1,0.7-0.4
				C91,57.2,91.1,57.2,91.2,57.2z"/>
			<path class="st0" d="M91.2,56.4v0.8c-0.1,0-0.2-0.1-0.3-0.1c0.1-0.2,0.2-0.3,0.2-0.5c0-0.5-0.4-0.9-0.9-0.9h-0.5
				c0.1-0.1,0.3-0.2,0.6-0.2c0.1,0,0.2,0,0.3,0.1C91,55.7,91.2,56,91.2,56.4z"/>
			<path class="st0" d="M91,111.4c0,0.1,0,0.1,0.1,0.2c-0.4-0.2-0.9-0.3-1.2,0.1c-0.3,0.4-0.3,0.9,0,1.3l0.2,0.2h-0.6v-1.8L91,111.4
				C90.9,111.4,90.9,111.4,91,111.4z"/>
			<path class="st0" d="M91,111.4C90.9,111.4,90.9,111.4,91,111.4l-1.5,0l0-6.7C89.5,106.8,90,109.1,91,111.4z"/>
			<path class="st0" d="M91.1,56.6c0,0.2-0.1,0.4-0.2,0.5c-0.5-0.2-1-0.3-1.5-0.5v-0.2c0-0.3,0.1-0.5,0.3-0.7h0.5
				C90.7,55.7,91.1,56.1,91.1,56.6z"/>
			<path class="st0" d="M91,78.3c0,0.2-0.1,0.3-0.1,0.5c0-0.1,0.1-0.2,0.1-0.3c0-0.2-0.1-0.5-0.3-0.7c-0.3-0.3-0.8-0.3-1.2,0v-0.4
				h0.7C90.6,77.4,91,77.8,91,78.3z"/>
			<path class="st0" d="M90.9,78.5c0,0.1,0,0.2-0.1,0.3c0,0,0,0,0,0c-0.2,0.2-0.4,0.4-0.8,0.4h-0.3l-0.4-0.4v-1.1
				c0.3-0.3,0.8-0.2,1.2,0C90.8,78,90.9,78.2,90.9,78.5z"/>
			<path class="st0" d="M90.8,55.1l-0.2,0.5c-0.1,0-0.2-0.1-0.3-0.1c-0.2,0-0.4,0.1-0.6,0.2l-2.8,0c-1.6-0.6-3.2-1.2-4.7-1.8
				c-6.1-2.6-12.5-4.6-19-6c-6.9-1.4-13-1.8-18.6-1.7l-1.8-1.8c6.2-0.3,13,0.1,20.8,1.6c6.6,1.4,13.1,3.5,19.3,6.1
				C85.5,53.2,88.1,54.2,90.8,55.1z"/>
			<path class="st0" d="M90.8,78.8c0,0.1-0.1,0.2-0.2,0.3l-0.5,0.5l-0.4-0.4h0.3C90.4,79.2,90.7,79,90.8,78.8z"/>
			<path class="st0" d="M90.6,258.5v0.7l-34.7,0.1c-0.1-0.2-0.2-0.4-0.2-0.6c0-0.4,0.2-0.8,0.6-1.2l33.3-0.1v0.2
				C89.7,258.1,90.1,258.5,90.6,258.5z"/>
			<path class="st0" d="M90.9,57.1c-0.2,0.2-0.4,0.4-0.7,0.4l-0.8,0v-0.9C89.9,56.8,90.4,57,90.9,57.1z"/>
			<polygon class="st0" points="89.8,79.2 90.2,79.6 89.4,80.5 89.4,79.2 			"/>
			<polygon class="st0" points="89.8,79.2 89.4,79.2 89.4,78.8 			"/>
			<path class="st0" d="M86.9,55.7l2.8,0c-0.2,0.2-0.3,0.4-0.3,0.7v0.2C88.6,56.3,87.7,56,86.9,55.7z"/>
			<path class="st0" d="M89.7,249.8v1.8c-18.3,0.1-30.5,3.1-33.3,5.9h-1.5c-0.3,0-0.7,0.2-0.8,0.5C55.4,252.8,72.9,249.9,89.7,249.8
				z"/>
			<path class="st0" d="M89.5,134v1.7c-12.4-0.8-23.3-8.5-28.2-19.9c-0.3-0.7-0.6-1.5-0.9-2.2c0.2-0.1,0.3-0.2,0.5-0.3l0.1-0.1h1.1
				c0.3,0.7,0.5,1.3,0.8,2C67.5,126.1,77.9,133.3,89.5,134z"/>
			<path class="st0" d="M89.5,111.4v1.8H62.1c-0.1-0.3-0.2-0.6-0.3-0.9l0.8-0.9H89.5z"/>
			<polygon class="st0" points="89.4,91.7 89.5,94.2 83.1,87.8 84.3,86.5 			"/>
			<polygon class="st0" points="89.4,79.2 89.4,80.5 84.3,86.5 83,85.1 88.2,79.2 			"/>
			<path class="st0" d="M89.4,78.8v0.4h-1.3l0.9-1.1C89.1,78.4,89.2,78.6,89.4,78.8L89.4,78.8z"/>
			<path class="st0" d="M89.4,77.8v1.1l0,0c-0.2-0.2-0.3-0.4-0.3-0.7l0.2-0.2C89.3,77.8,89.4,77.8,89.4,77.8z"/>
			<path class="st0" d="M89.4,77.4v0.4c-0.1,0-0.1,0.1-0.1,0.1l-0.2,0.2c0-0.2,0.1-0.4,0.2-0.6C89.3,77.5,89.4,77.4,89.4,77.4
				L89.4,77.4z"/>
			<path class="st0" d="M89.4,77.4L89.4,77.4L89.4,77.4C89.4,77.4,89.4,77.4,89.4,77.4z"/>
			<path class="st0" d="M89.4,56.6v0.9l-8.8,0.1c0.3-0.4,0.4-0.9,0-1.3c-0.2-0.2-0.5-0.3-0.7-0.3v-0.3l7,0
				C87.7,56,88.6,56.3,89.4,56.6z"/>
			<path class="st0" d="M89.4,77.4C89.4,77.4,89.3,77.5,89.4,77.4c-0.2,0.3-0.3,0.5-0.3,0.7l-0.9,1.1h-11l-1.8-1.8H89.4z"/>
			<polygon class="st0" points="84.3,86.5 83.1,87.8 81.8,86.5 83,85.1 			"/>
			<path class="st0" d="M83.1,87.8l-20.5,23.6h-1.1c-0.1-0.4-0.2-0.7-0.4-1.1l20.7-23.8L83.1,87.8z"/>
			<polygon class="st0" points="83,85.1 81.8,86.5 74.6,79.2 77.1,79.2 			"/>
			<path class="st0" d="M80.6,56.3c0.4,0.4,0.3,0.9,0,1.3l-2.6,0l1.3-1.3c0.2-0.2,0.4-0.3,0.6-0.3C80.1,56,80.4,56.1,80.6,56.3z"/>
			<path class="st0" d="M80.6,57.6C80.6,57.6,80.6,57.6,80.6,57.6L68.1,70.1l-1.3-1.3L78,57.6L80.6,57.6z"/>
			<path class="st0" d="M79.9,55.8V56c-0.2,0-0.4,0.1-0.6,0.3L78,57.6l-19.8,0.1l0.1-0.1c0.3-0.4,0.4-0.9,0-1.3
				c-0.4-0.3-0.9-0.4-1.3,0l-1.3,1.2l-1.6-1.6L79.9,55.8z"/>
			<polygon class="st0" points="75.3,77.4 77.1,79.2 74.6,79.2 72.8,77.4 			"/>
			<polygon class="st0" points="68.1,70.1 75.3,77.4 72.8,77.4 66.8,71.3 			"/>
			<polygon class="st0" points="74.6,79.2 59,79.2 60.8,77.4 72.8,77.4 			"/>
			<polygon class="st0" points="68.1,70.1 66.8,71.3 65.6,70 66.8,68.8 			"/>
			<path class="st0" d="M66.8,71.3l-6,6.1h-2.2c-0.2,0-0.5,0.1-0.6,0.3l0,0l7.6-7.6L66.8,71.3z"/>
			<polygon class="st0" points="66.8,68.8 65.6,70 55.8,60.1 57,58.8 			"/>
			<path class="st0" d="M62.6,111.4l-0.8,0.9c-0.1-0.3-0.2-0.6-0.3-0.9H62.6z"/>
			<path class="st0" d="M61.8,112.3c0.1,0.3,0.2,0.6,0.3,0.9H61L61.8,112.3z"/>
			<path class="st0" d="M61.8,112.3l-0.8,0.9h-0.1c-0.3,0-0.6-0.1-0.7-0.4c-0.1-0.2-0.1-0.3-0.2-0.5c0,0,0,0,0,0
				c0-0.5,0.4-0.9,0.9-0.9h0.6C61.6,111.7,61.7,112,61.8,112.3z"/>
			<path class="st0" d="M61.1,110.3c0.1,0.4,0.2,0.7,0.4,1.1h-0.6c-0.5,0-0.9,0.4-0.9,0.9c0,0,0,0,0,0c-0.1-0.2-0.1-0.4-0.2-0.6
				L61.1,110.3z"/>
			<path class="st0" d="M61.1,110.3l-1.3,1.5c-1.1-3.2-2-6.6-2.8-9.9c-1-4.5-2.4-8.8-4-13.1c-0.4-1-1.1-2-1.9-2.8l0.3-0.2
				c0.1,0.1,0.3,0.2,0.5,0.2c0.2,0,0.5-0.1,0.7-0.3l0.3-0.3c0.7,0.8,1.4,1.8,1.8,2.8c1.7,4.4,3,8.8,4,13.4
				C59.3,104.5,60.1,107.4,61.1,110.3z"/>
			<path class="st0" d="M61,113.2l-0.1,0.1c-0.1,0.1-0.3,0.2-0.5,0.3c-0.1-0.2-0.2-0.5-0.3-0.7C60.3,113.1,60.6,113.2,61,113.2
				L61,113.2z"/>
			<path class="st0" d="M60.8,77.4L59,79.2h-0.4c-0.5,0-0.9-0.4-0.9-0.9c0-0.2,0.1-0.5,0.3-0.6c0.2-0.2,0.4-0.3,0.6-0.3H60.8z"/>
			<path class="st0" d="M60.2,112.8c0.1,0.2,0.2,0.5,0.3,0.7c-0.1,0-0.1,0-0.2,0c-0.5,0-0.9-0.4-0.9-0.9c0-0.2,0.1-0.4,0.2-0.6
				l0.3-0.3c0.1,0.2,0.1,0.4,0.2,0.6C60,112.5,60.1,112.7,60.2,112.8z"/>
			<path class="st0" d="M60,112.3c0.1,0.2,0.1,0.3,0.2,0.5C60.1,112.7,60,112.5,60,112.3z"/>
			<path class="st0" d="M59,79.2l-6.1,6.1c-0.4-0.4-0.9-0.9-1.3-1.3l6.4-6.4l0,0c-0.2,0.2-0.3,0.4-0.3,0.6c0,0.5,0.4,0.9,0.9,0.9H59
				z"/>
			<path class="st0" d="M58.3,56.3c0.4,0.4,0.3,0.9,0,1.3l-0.1,0.1l-2.2,0l-0.2-0.2l1.3-1.2C57.4,55.9,57.9,56,58.3,56.3z"/>
			<polygon class="st0" points="58.2,57.7 57,58.8 55.9,57.7 			"/>
			<polygon class="st0" points="57,58.8 55.8,60.1 54.5,58.8 55.5,57.7 55.9,57.7 			"/>
			<path class="st0" d="M54.8,257.5h1.5c-0.4,0.4-0.6,0.8-0.6,1.2c0,0.2,0.1,0.4,0.2,0.6h-1.1c-0.5,0-0.9-0.4-0.9-0.8
				c0-0.2,0-0.3,0.1-0.5C54.1,257.7,54.5,257.5,54.8,257.5z"/>
			<polygon class="st0" points="55.7,57.5 55.9,57.7 55.5,57.7 			"/>
			<path class="st0" d="M54.5,58.8l1.3,1.3L38.1,77.6c-0.4-0.2-0.7-0.3-1.1-0.5c-0.2-0.1-0.4-0.2-0.7-0.3L54.5,58.8z"/>
			<polygon class="st0" points="54.2,55.9 55.7,57.5 55.5,57.7 53.4,57.8 51.6,56 			"/>
			<polygon class="st0" points="55.5,57.7 54.5,58.8 53.4,57.8 			"/>
			<path class="st0" d="M54.2,55.9l-2.5,0l-9.5-9.6c0.8-0.1,1.6-0.1,2.4-0.1L54.2,55.9z"/>
			<path class="st0" d="M53.9,258.4c0-0.2,0-0.3,0.1-0.4C54,258.2,53.9,258.3,53.9,258.4C53.9,258.5,53.9,258.4,53.9,258.4z"/>
			<polygon class="st0" points="51.6,56 53.4,57.8 33.6,57.9 33.6,56.1 			"/>
			<path class="st0" d="M52.9,85.3l-0.3,0.3c-0.2,0.2-0.5,0.3-0.7,0.3c-0.2,0-0.4-0.1-0.5-0.2c0,0-0.1-0.1-0.1-0.1
				c-0.4-0.4-0.4-0.9,0-1.3l0.3-0.3C52.1,84.4,52.5,84.8,52.9,85.3z"/>
			<path class="st0" d="M51.6,84l-0.3,0.3c-0.4,0.4-0.4,0.9,0,1.3c0,0.1,0.1,0.1,0.1,0.1l-0.3,0.2c-2.5-2.4-6.5-4-10.1-5.3
				c-1.8-0.7-3.3-1.3-4.7-2c0.1,0.1,0.2,0.1,0.3,0.1c0.2,0,0.4-0.1,0.7-0.3l0.8-0.8c1.1,0.5,2.3,0.9,3.6,1.4
				C45.1,80.3,48.9,81.8,51.6,84z"/>
			<path class="st0" d="M42.8,44.5l1.8,1.8c-0.8,0-1.6,0.1-2.4,0.1l-1.7-1.8C41.2,44.5,42,44.5,42.8,44.5z"/>
			<path class="st0" d="M36.6,38.2l6.2,6.3c-0.8,0-1.6,0.1-2.4,0.2L33.9,38c0.4,0,0.8,0,1.3,0.1C35.7,38.1,36.1,38.1,36.6,38.2z"/>
			<path class="st0" d="M40.4,44.6l1.7,1.8c-3,0.2-5.9,0.6-8.6,1.1v-0.7c0-0.5-0.4-0.9-0.9-0.9c-0.1,0-0.1,0-0.2,0l0-0.1
				C35,45.3,37.6,44.9,40.4,44.6z"/>
			<path class="st0" d="M38.1,77.6l-0.8,0.8c-0.3,0.2-0.5,0.3-0.7,0.3c-0.1,0-0.2,0-0.3-0.1c0,0,0,0,0,0c-0.1-0.1-0.2-0.1-0.2-0.2
				c-0.4-0.4-0.4-0.9,0-1.3l0.3-0.3c0.2,0.1,0.4,0.2,0.7,0.3C37.3,77.3,37.7,77.5,38.1,77.6z"/>
			<path class="st0" d="M34.6,36.1l2,2c-0.5,0-0.9,0-1.4-0.1c-0.4,0-0.9,0-1.3-0.1l-2-2C32.8,36.1,33.7,36.1,34.6,36.1z"/>
			<path class="st0" d="M36.3,76.8L36,77.1c-0.4,0.4-0.4,0.9,0,1.3c0,0.1,0.1,0.2,0.2,0.2c0,0,0,0,0,0c-6.8-3.4-13-9.2-16.1-15.1
				c-1.9-3.6-3.4-7.4-4.7-11.3l0.2-0.1c0,0.1,0,0.1,0.1,0.2c0.2,0.5,0.7,0.7,1.2,0.5c0.2-0.1,0.3-0.1,0.5-0.2
				c1.2,3.5,2.6,6.9,4.2,10.1c2.2,4,5.9,8,10.2,11.2v1.4c0,0.5,0.4,0.9,0.9,0.9s0.9-0.4,0.9-0.9v-0.2C34.5,75.7,35.4,76.3,36.3,76.8
				z"/>
			<path class="st0" d="M31.3,32.8l3.3,3.3c-0.9,0-1.8-0.1-2.7-0.1l-3-3.1C29.7,32.9,30.5,32.9,31.3,32.8z"/>
			<path class="st0" d="M31.9,36l2,2c-12.7-0.7-18.4-1.3-20.9-2c0-0.1,0-0.2-0.1-0.3c0.2-0.2,0.3-0.4,0.3-0.7c0-0.5-0.4-0.9-0.9-0.9
				h-0.5c-0.3,0-0.5,0.1-0.7,0.3c0,0-0.1,0.1-0.1,0.1c0,0,0,0,0,0c0-1,0-2.2,16.2-3.2l1.6,1.6c-7.3,0.4-12.4,0.9-14.8,1.4
				C16.8,35,23,35.5,31.9,36z"/>
			<path class="st0" d="M33.6,75.1v0.2c0,0.5-0.4,0.9-0.9,0.9s-0.9-0.4-0.9-0.9v-1.4C32.4,74.3,33,74.7,33.6,75.1z"/>
			<path class="st0" d="M33.6,57.9v17.2c-0.6-0.4-1.2-0.8-1.8-1.2V57h0.1c0,0.5,0.4,0.9,0.9,0.9L33.6,57.9z"/>
			<path class="st0" d="M33.6,56.1v1.8l-0.8,0c-0.5,0-0.9-0.4-0.9-0.9s0.4-0.9,0.9-0.9L33.6,56.1z"/>
			<path class="st0" d="M33.6,47.5v8.6l-0.8,0c-0.5,0-0.9,0.4-0.9,0.9h-0.1v-9.1C32.4,47.7,33,47.6,33.6,47.5z"/>
			<path class="st0" d="M33.6,46.8v0.7c-0.6,0.1-1.2,0.2-1.8,0.4v-1.1c0-0.4,0.3-0.8,0.7-0.9c0.1,0,0.1,0,0.2,0
				C33.2,45.9,33.6,46.3,33.6,46.8z"/>
			<path class="st0" d="M32.5,45.8l0,0.1c-0.4,0.1-0.7,0.4-0.7,0.9v1.1c-5.5,1.2-10.3,3-14.4,4.7c-0.2-0.6-0.4-1.2-0.6-1.8
				C21.2,48.9,26.4,47,32.5,45.8z"/>
			<path class="st0" d="M29.7,31.2l1.6,1.6c-0.8,0-1.6,0.1-2.4,0.1l-1.6-1.6C28,31.3,28.9,31.2,29.7,31.2z"/>
			<path class="st0" d="M14.2,15.4l15.5,15.7c-0.8,0-1.7,0.1-2.4,0.1L12.8,16.7C13.3,16.3,13.8,15.9,14.2,15.4z"/>
			<path class="st0" d="M17.4,52.6c-0.2,0.1-0.3,0.1-0.5,0.2c-0.5,0.2-1,0-1.2-0.5c0-0.1,0-0.1-0.1-0.2c-0.1-0.4,0.1-0.8,0.6-1
				c0.2-0.1,0.4-0.2,0.6-0.3C17,51.4,17.2,52,17.4,52.6z"/>
			<path class="st0" d="M16.6,50.2c0.1,0.2,0.1,0.4,0.2,0.6c-0.2,0.1-0.4,0.2-0.6,0.3c-0.4,0.2-0.6,0.6-0.6,1l-0.2,0.1
				c-0.2-0.5-0.3-1-0.5-1.5C13.2,45.6,12,40.4,11,35.1c0-0.2,0-0.4,0.1-0.6c0,0.5,0,1,2,1.5C13.9,40.8,15.1,45.5,16.6,50.2z"/>
			<path class="st0" d="M12.8,3.6c3.6,2.6,4.4,7.7,1.8,11.3c-0.1,0.2-0.3,0.4-0.4,0.5L13,14.3c1.1-1.4,1.7-3.2,1.4-5.2
				C14.1,7.4,13.2,6,11.8,5c-1.1-0.8-2.4-1.2-3.7-1.2c-0.3,0-0.7,0-1,0.1c-3.4,0.6-5.7,3.8-5.2,7.3s3.8,5.7,7.3,5.2
				c0.9-0.1,1.7-0.4,2.4-0.9l1.2,1.2c-1.3,1-3,1.5-4.7,1.5c-4.5,0-8.1-3.7-8.1-8.1c0-4,2.9-7.3,6.8-8C8.9,1.8,11.1,2.3,12.8,3.6z"/>
			<path class="st1" d="M14.4,9.1c0.3,1.9-0.3,3.8-1.4,5.2L8.6,9.8c-0.4-0.3-0.9-0.4-1.3,0c-0.3,0.3-0.3,0.9,0,1.3l4.3,4.4
				c-0.7,0.5-1.5,0.8-2.4,0.9c-3.5,0.5-6.8-1.7-7.3-5.2s1.8-6.7,5.2-7.3c0.3-0.1,0.7-0.1,1-0.1c1.3,0,2.6,0.4,3.7,1.2
				C13.2,6,14.1,7.4,14.4,9.1z"/>
			<path class="st0" d="M13,14.3l1.2,1.2c-0.4,0.5-0.9,0.9-1.4,1.2l-1.2-1.2C12.1,15.2,12.6,14.7,13,14.3z"/>
			<path class="st0" d="M13.3,35c0,0.3-0.1,0.5-0.3,0.7c0,0.1,0,0.2,0.1,0.3c-1.9-0.5-2-1-2-1.5c0,0,0.1-0.1,0.1-0.1
				c0.2-0.2,0.4-0.3,0.7-0.3h0.5C12.9,34.1,13.3,34.5,13.3,35z"/>
			<path class="st0" d="M8.6,9.8l4.4,4.5c-0.4,0.5-0.9,0.9-1.4,1.2l-4.3-4.4c-0.3-0.4-0.3-1,0-1.3C7.7,9.4,8.2,9.5,8.6,9.8z"/>
		</g>
		<g>
		</g>
	</g>
</g>
</svg>
