<?xml version="1.0" encoding="utf-8"?>
<!-- Generator: Adobe Illustrator 25.4.1, SVG Export Plug-In . SVG Version: 6.00 Build 0)  -->
<svg version="1.1" id="Layer_1" xmlns="http://www.w3.org/2000/svg" xmlns:xlink="http://www.w3.org/1999/xlink" x="0px" y="0px"
	 viewBox="0 0 150.9 262.9" style="enable-background:new 0 0 150.9 262.9;" xml:space="preserve">
<style type="text/css">
	.st0{fill:#FD8612;}
	.st1{fill:#FFFFFF;}
</style>
<g id="Layer_1-2">
	<g id="XMLID_00000107589145491846233640000002927959328982725043_">
		<g>
			<path class="st0" d="M41,86.9c0.3,0.6,0.4,1.3,0.4,2c0,2.9-2.3,5.2-5.2,5.2c-2.9,0-5.2-2.3-5.2-5.2s2.3-5.2,5.2-5.2
				c1.5,0,2.8,0.6,3.7,1.5c0,0,0.1,0.1,0.1,0.1L36.4,88c-0.4,0.3-0.5,0.8-0.2,1.2c0.1,0.3,0.4,0.4,0.7,0.4c0.2,0,0.4-0.1,0.6-0.1
				L41,86.9z"/>
			<path class="st1" d="M147.8,54.7c2.8,9.8,4.7,21,2.3,29.3c-0.7,2.5-1.8,4.8-3.3,6.7l-0.5-0.4c0.1-0.1,0.1-0.2,0.1-0.3
				c0-0.5-0.4-0.9-0.8-0.9c1.2-1.7,2.1-3.6,2.7-5.7c0.7-2.3,1-5,1-8h0.3c0.5,0,0.9-0.4,0.9-0.9s-0.4-0.9-0.9-0.9h-0.3
				c-0.2-4.8-1.1-10.3-2.8-16.6c0.3-0.5,0.6-1,0.9-1.6c0.1-0.2,0.1-0.4,0.1-0.6L147.8,54.7z"/>
			<path class="st1" d="M149.6,73.6c0.5,0,0.9,0.4,0.9,0.9s-0.4,0.9-0.9,0.9h-0.3c0-0.6,0-1.2,0-1.8H149.6z"/>
			<path class="st1" d="M149.3,73.6c0,0.6,0,1.2,0,1.8h-12.6l0.1-0.1c0.4-0.3,0.5-0.9,0.2-1.3c-0.2-0.2-0.5-0.4-0.8-0.4v0H149.3z"/>
			<path class="st0" d="M149.3,73.6h-13h-20.9l3.7-2.7c9.2-0.6,21.1-3.6,27.4-13.9C148.1,63.3,149.1,68.8,149.3,73.6z"/>
			<path class="st1" d="M147.8,54.7l-0.3,0.1c-0.1-0.2-0.2-0.5-0.4-0.6c-0.4-0.2-1,0-1.2,0.4c-1.6-5.7-3.8-11.9-6.5-18.7
				c-0.2-0.6-0.4-1-0.5-1.3c1-0.5,1-1,1-1.4c0-0.2,0-0.5-0.2-0.8c0.3,0.1,0.5,0.4,0.6,0.8c0.1,0.2,0.4,1.1,0.8,2.1
				C142.5,39.1,145.4,46.4,147.8,54.7z"/>
			<path class="st1" d="M147.4,54.8c0.1,0.2,0,0.4-0.1,0.6c-0.3,0.6-0.6,1.1-0.9,1.6c-0.2-0.8-0.4-1.6-0.7-2.4
				c0.2-0.4,0.8-0.6,1.2-0.4C147.2,54.3,147.4,54.5,147.4,54.8z"/>
			<path class="st1" d="M146.3,90.3l0.5,0.4c-7,9.6-21.7,13.1-34,16c-3.3,0.8-6.3,1.5-9,2.3c-1.7,0.5-3.3,1-4.9,1.4
				c-12.5,3.5-22.3,6.3-22.7,15.5c0,0.2,0,0.3-0.1,0.4v-0.6v0c0-0.1,0-0.2,0-0.3v-5.1c0.1,0,0.1,0,0.2,0l11.2-8.4l0,0
				c3.3-1.2,6.9-2.2,10.8-3.3c1.6-0.4,3.2-0.9,4.9-1.4c2.7-0.8,5.8-1.5,9.1-2.3c11.3-2.7,24.8-5.9,31.9-14h1.3
				C145.9,90.9,146.2,90.7,146.3,90.3z"/>
			<path class="st1" d="M146.4,90c0,0.1,0,0.2-0.1,0.3c-0.1,0.3-0.4,0.6-0.8,0.6h-1.3c0.5-0.6,1-1.2,1.4-1.8
				C146,89.1,146.4,89.5,146.4,90z"/>
			<path class="st1" d="M145.8,54.6c0.2,0.8,0.5,1.6,0.7,2.4c-6.3,10.3-18.2,13.3-27.4,13.9l0.2-0.2c0.4-0.3,0.5-0.9,0.2-1.3
				c-0.1-0.1-0.2-0.2-0.3-0.3C128.4,68.5,140.2,65.4,145.8,54.6C145.8,54.6,145.8,54.6,145.8,54.6z"/>
			<path class="st1" d="M145.5,89.1C145.5,89.1,145.6,89.1,145.5,89.1c-0.4,0.6-0.8,1.2-1.3,1.8h-28.1v-0.2l2.2-1.6H145.5z"/>
			<path class="st1" d="M139.6,32.4c0.2,0.3,0.2,0.5,0.2,0.8c0,0.4,0,0.9-1,1.4c-0.4-0.9-0.4-1.1-0.4-1.3c0-0.5,0.4-0.9,0.9-0.9
				C139.4,32.4,139.5,32.4,139.6,32.4z"/>
			<path class="st1" d="M139.6,32.4c-0.1,0-0.2-0.1-0.3-0.1c-0.5,0-0.9,0.4-0.9,0.9c0,0.2,0.1,0.4,0.4,1.3c-1.7,0.9-6.2,2-18.4,2.9
				c-0.3,0-0.6,0-0.9,0.1l0-1.9c10.2-0.7,16.4-1.7,18.1-2.4c-1.8-0.8-8-1.8-18.1-2.5l0-1.8c0.3,0,0.5,0,0.8,0.1
				C135.6,30.2,138.9,31.5,139.6,32.4z"/>
			<path class="st1" d="M137.7,13c0.3,0.4,0.2,1-0.2,1.3l-17.8,13.4v-0.3l2.8-4.1l13.9-10.5C136.8,12.5,137.4,12.6,137.7,13z"/>
			<path class="st1" d="M137.5,0.4c0.2,0.3,0.2,0.7,0,1l-15,21.9l-2.8,2.1l0-1.2l13.4-19.5l-13.3,9.6v-0.4c0-0.3-0.2-0.6-0.5-0.8
				c-0.3-0.1-0.6-0.1-0.9,0.1l-0.5,0.4c0-0.1,0.1-0.2,0.2-0.3c0.1-0.1,0.2-0.1,0.3-0.2l17.8-12.8C136.6-0.1,137.2,0,137.5,0.4z"/>
			<path class="st1" d="M137,74c0.3,0.4,0.2,1-0.2,1.3l-0.1,0.1h0h-3.1l2.1-1.6c0.2-0.1,0.4-0.2,0.5-0.2
				C136.5,73.6,136.8,73.8,137,74z"/>
			<polygon class="st1" points="136.7,75.4 118.2,89.1 116.1,89.1 116.1,88.4 133.6,75.4 			"/>
			<path class="st1" d="M136.2,73.6L136.2,73.6c-0.2,0-0.4,0.1-0.5,0.2l-2.1,1.6h-20.7l2.4-1.8H136.2z"/>
			<polygon class="st1" points="119.7,25.4 122.5,23.3 119.7,27.4 			"/>
			<path class="st1" d="M119.8,13.8v0.4l-0.4,0.3c-0.4,0.4-0.9,0.4-1.3,0c-0.3-0.3-0.4-0.7-0.2-1l0.5-0.4c0.3-0.2,0.6-0.2,0.9-0.1
				C119.6,13.2,119.8,13.5,119.8,13.8z"/>
			<path class="st1" d="M119.8,14.2l-0.1,9.9l-1.7,2.5c0,0,0,0,0,0.1l-0.2,0.1l0.1-11.2L101.1,28c-0.9,0-1.9-0.1-2.9-0.1
				c0-0.1,0.1-0.2,0.3-0.2l19.4-14.2c-0.2,0.3-0.1,0.7,0.2,1c0.4,0.4,0.9,0.4,1.3,0L119.8,14.2z"/>
			<path class="st1" d="M118,26.6l1.7-2.5l0,1.2L118,26.6C118,26.6,118,26.6,118,26.6z"/>
			<path class="st1" d="M119.7,25.4l0,2l-0.2,0.2c-0.1,0.3-0.4,0.4-0.7,0.4c-0.2,0-0.4-0.1-0.5-0.2c-0.4-0.3-0.5-0.8-0.3-1.1
				L119.7,25.4z"/>
			<path class="st1" d="M119.7,27.4v0.3l-1.5,1.1c-0.1,0-0.2,0-0.4,0l0-2l0.2-0.1c-0.2,0.4-0.1,0.9,0.3,1.1c0.1,0.1,0.3,0.2,0.5,0.2
				c0.3,0,0.6-0.1,0.7-0.4L119.7,27.4z"/>
			<path class="st1" d="M118.2,28.8l1.5-1.1l0,1.2C119.2,28.9,118.7,28.9,118.2,28.8z"/>
			<path class="st1" d="M119.6,28.9l0,1.8c-0.6,0-1.2-0.1-1.8-0.1l0-1.5l0.4-0.3C118.7,28.9,119.2,28.9,119.6,28.9z"/>
			<path class="st1" d="M119.6,30.7l-0.1,4.9c-0.6,0-1.2,0.1-1.8,0.1l0-5.2C118.4,30.6,119,30.7,119.6,30.7z"/>
			<path class="st1" d="M119.5,69.4c0.3,0.4,0.2,1-0.2,1.3l-0.2,0.2c-1.2,0.1-2.2,0.1-3.3,0.1l2.4-1.8c0,0,0,0,0,0
				c0.3,0,0.6,0,0.9-0.1C119.3,69.2,119.4,69.3,119.5,69.4z"/>
			<path class="st1" d="M119.6,35.6l0,1.9c-0.6,0.1-1.2,0.1-1.8,0.1l0-1.9C118.4,35.7,119,35.7,119.6,35.6z"/>
			<path class="st1" d="M119.5,37.6l0,3.5c-0.1-0.5-0.5-0.9-1-0.8l-0.8,0.1l0-2.7C118.3,37.6,118.9,37.6,119.5,37.6z"/>
			<path class="st1" d="M119.5,41.1c0,0.1,0,0.2,0,0.3V41.1z"/>
			<path class="st1" d="M119.5,41.1C119.5,41.1,119.5,41.1,119.5,41.1v0.3c0,0,0,0,0,0c0,0.1-0.1,0.2-0.1,0.2c0-0.2-0.1-0.4-0.3-0.6
				c-0.4-0.4-1-0.4-1.3,0l-0.1,0.1l0-0.7l0.8-0.1C119,40.2,119.4,40.6,119.5,41.1z"/>
			<path class="st1" d="M119.4,41.6c0-0.1,0.1-0.1,0.1-0.2c0,0.2-0.1,0.4-0.2,0.5C119.4,41.8,119.4,41.7,119.4,41.6z"/>
			<path class="st1" d="M119.4,41.6c0,0.1,0,0.2-0.1,0.2c-0.2,0.2-0.4,0.4-0.8,0.4c-0.2,0-0.3,0-0.5-0.1l0.6-0.1
				C119,42,119.2,41.9,119.4,41.6z"/>
			<path class="st1" d="M119.1,41c0.2,0.2,0.3,0.4,0.3,0.6c-0.2,0.2-0.4,0.4-0.7,0.5l-0.6,0.1c-0.3-0.2-0.4-0.4-0.4-0.8v-0.3
				l0.1-0.1C118.1,40.6,118.7,40.6,119.1,41z"/>
			<path class="st1" d="M119.3,41.9c0,0.1-0.1,0.3-0.2,0.4c-0.1,0.1-0.2,0.2-0.3,0.2L99.3,56.7c0.2-0.2,0.4-0.4,0.4-0.8l0-1.9
				l16.1-11.7l2.3-0.3c0.1,0.1,0.3,0.1,0.5,0.1C118.9,42.3,119.2,42.1,119.3,41.9z"/>
			<path class="st1" d="M119.1,70.9l-3.7,2.7h-3.1l3.5-2.6C116.8,71,117.9,70.9,119.1,70.9z"/>
			<path class="st1" d="M118.2,69.2c0.3-0.2,0.6-0.2,0.9-0.1C118.8,69.1,118.5,69.2,118.2,69.2z"/>
			<polygon class="st1" points="118.2,89.1 116.1,90.7 116.1,89.1 			"/>
			<path class="st1" d="M118.2,69.2C118.2,69.2,118.2,69.2,118.2,69.2l-2.5,1.8c-0.3,0-0.5,0-0.8,0c-1.9,0-3.6-0.1-5-0.2
				c-11.3-0.9-22-5.2-32.4-9.4c-0.5-0.2-1-0.4-1.5-0.6v-0.3l0.3-0.2l2.3-0.3c10.1,4.1,20.6,8.3,31.4,9.2
				C112.2,69.2,115,69.4,118.2,69.2z"/>
			<path class="st1" d="M118.2,28.8l-0.4,0.3v-0.3C117.9,28.8,118,28.8,118.2,28.8z"/>
			<path class="st1" d="M118.1,42.2l-2.3,0.3l1.9-1.4v0.3C117.7,41.7,117.9,42,118.1,42.2z"/>
			<path class="st1" d="M117.8,26.8l0,2c-0.8-0.1-1.6-0.1-2.5-0.2L117.8,26.8z"/>
			<path class="st1" d="M117.8,28.8v0.3l-1.8,1.4c-0.9,0-1.9-0.1-2.9-0.2l2.2-1.6C116.2,28.7,117,28.8,117.8,28.8z"/>
			<path class="st1" d="M117.8,29.1l0,1.5c-0.6,0-1.2-0.1-1.8-0.1L117.8,29.1z"/>
			<path class="st1" d="M117.7,35.8l0,1.9c-3.7,0.2-7.8,0.4-12.2,0.6l2.7-2C111.7,36.1,114.8,36,117.7,35.8z"/>
			<polygon class="st1" points="117.7,40.4 117.7,41.1 115.8,42.4 99.8,44.4 99.8,42.6 99.9,42.6 			"/>
			<path class="st1" d="M116.1,90.9v4.8c0,0.5-0.5,0.9-0.9,0.9c-0.5,0-0.9-0.4-0.9-0.9V92l1.5-1.1H116.1z"/>
			<polygon class="st1" points="116.1,90.7 116.1,90.9 115.8,90.9 			"/>
			<polygon class="st1" points="116.1,89.1 116.1,90.7 115.8,90.9 114.3,90.9 114.3,89.7 115.1,89.1 			"/>
			<polygon class="st1" points="116.1,88.4 116.1,89.1 115.1,89.1 			"/>
			<path class="st1" d="M116.1,84.5v3.9l-1,0.7h-0.8v-4.6c0-0.5,0.4-0.9,0.9-0.9S116.1,84,116.1,84.5z"/>
			<path class="st1" d="M116,30.5l-7.8,5.8c-1.1,0.1-2.2,0.1-3.3,0.1l8.2-6.2C114.1,30.4,115.1,30.4,116,30.5z"/>
			<polygon class="st1" points="115.8,90.9 114.3,92 114.3,90.9 			"/>
			<path class="st0" d="M115.8,71l-3.5,2.6H76.1V60.8c0.5,0.2,1,0.4,1.5,0.6c10.4,4.2,21.1,8.5,32.4,9.4c1.4,0.1,3.1,0.2,5,0.2
				C115.2,71,115.5,71,115.8,71z"/>
			<polygon class="st1" points="115.3,73.6 112.9,75.4 109.8,75.4 112.2,73.6 			"/>
			<path class="st1" d="M115.3,28.7l-2.2,1.6c-4-0.2-8.4-0.4-13.2-0.5l0-0.9l1.2-0.9C106.2,28.2,110.9,28.4,115.3,28.7z"/>
			<polygon class="st1" points="115.1,89.1 114.3,89.7 114.3,89.1 			"/>
			<path class="st1" d="M114.3,90.9V92l-26.8,19.9l0,0c-2.1,0.8-4.1,1.7-5.8,2.7c-2.4,1.4-4.3,3-5.6,5.1v-1.6l36.6-27.2H114.3z"/>
			<polygon class="st1" points="114.3,89.7 114.3,90.9 112.7,90.9 			"/>
			<polygon class="st1" points="114.3,89.1 114.3,89.7 112.7,90.9 91.8,90.9 94.3,89.1 			"/>
			<polygon class="st1" points="112.9,75.4 94.3,89.1 92.1,89.1 92.1,88.5 109.8,75.4 			"/>
			<path class="st1" d="M112.2,73.6l-2.4,1.8H92.1c0-0.5-0.4-0.8-0.9-0.8c-0.5,0-0.8,0.3-0.9,0.8H76.1v-1.8H112.2z"/>
			<path class="st1" d="M108.2,36.3l-2.7,2c-1.1,0-2.1,0.1-3.2,0.1l2.6-2C106.1,36.4,107.2,36.4,108.2,36.3z"/>
			<path class="st1" d="M105.6,38.3l-5.7,4.3l-0.1,0l0-2.3l2.5-1.9C103.4,38.4,104.5,38.3,105.6,38.3z"/>
			<path class="st1" d="M104.9,36.4l-2.6,2c-0.8,0-1.7,0-2.5,0.1l0-1.9C101.6,36.6,103.3,36.5,104.9,36.4z"/>
			<path class="st1" d="M109.9,255.2c0-2.2-11.3-5.4-29.4-5.9l0.5-0.6c0.1,0,0.1-0.1,0.2-0.2c0.2-0.3,0.1-0.7-0.1-1
				c14,0.5,30.6,2.7,30.6,7.6c0,5.7-21.8,7.8-36.5,7.8c-2.1,0-4.4-0.1-6.8-0.1v-0.1c0.1,0,0.2,0,0.4-0.1c0.3-0.1,0.5-0.3,0.5-0.6
				l0.8-0.9c1.6,0,3.3,0.1,5.1,0.1C96.4,261.1,109.9,257.6,109.9,255.2z"/>
			<path class="st1" d="M101.1,28l-1.2,0.9l0,0.9c-0.6,0-1.2,0-1.8-0.1l0-1.3c0-0.2,0-0.4,0.1-0.5C99.2,27.9,100.2,28,101.1,28z"/>
			<polygon class="st1" points="99.9,42.6 99.8,42.6 99.8,42.6 			"/>
			<path class="st1" d="M99.9,29.8l-0.1,6.9c-0.6,0-1.2,0-1.8,0.1l0-7C98.7,29.7,99.3,29.7,99.9,29.8z"/>
			<path class="st1" d="M99.8,36.6l0,1.9c-0.6,0-1.2,0-1.8,0l0-1.8C98.7,36.7,99.2,36.6,99.8,36.6z"/>
			<path class="st1" d="M99.8,38.5l0,1.8L98,41.7l0-3.1C98.6,38.5,99.2,38.5,99.8,38.5z"/>
			<polygon class="st1" points="99.8,40.3 99.8,42.6 98,42.8 98,41.7 			"/>
			<polygon class="st1" points="99.8,42.6 99.8,42.6 98,44 98,42.8 			"/>
			<polygon class="st1" points="99.8,42.6 99.8,44.4 98,44.6 98,44 			"/>
			<polygon class="st1" points="99.8,44.4 99.7,54.1 98.1,55.3 97.9,55.3 98,44.6 			"/>
			<path class="st1" d="M99.7,54.1l0,1.9c0,0.3-0.2,0.6-0.4,0.8c-0.1,0.1-0.3,0.1-0.5,0.1c-0.5,0-0.9-0.4-0.9-0.9v-0.7l0.2,0
				L99.7,54.1z"/>
			<path class="st1" d="M99.3,56.7l-0.2,0.1C99,57,98.8,57,98.7,57.1l-20,2.8c-0.1,0-0.2-0.1-0.3-0.1c-0.3-0.1-0.6-0.2-0.8-0.3
				l2-1.5l18.5-2.6V56c0,0.5,0.4,0.9,0.9,0.9C99,56.9,99.2,56.8,99.3,56.7z"/>
			<path class="st1" d="M98.2,27.9c-0.1,0.1-0.1,0.3-0.1,0.5l0,1.3c-6.8-0.2-14.4-0.3-22.7-0.3c-36.4,0-58.7,2.1-62.3,3.8h-0.3
				c0-0.5-0.4-0.8-0.8-0.9c-0.5,0-0.9,0.3-1,0.8c0-1,0.7-2.7,19.4-4.1c12-0.9,28-1.4,45-1.4C83.3,27.6,91,27.7,98.2,27.9z"/>
			<path class="st1" d="M98,36.7l0,1.8c-6.9,0.2-14.3,0.3-21.9,0.3v-0.1c0-0.5-0.4-0.9-0.9-0.9V37c0.1,0,0.1,0,0.2,0
				C83.7,37,91.3,36.9,98,36.7z"/>
			<polygon class="st1" points="96.2,43 98,41.7 98,42.8 			"/>
			<polygon class="st1" points="98,42.8 98,44 97,44.7 93.3,45.2 96.2,43 			"/>
			<polygon class="st1" points="97,44.7 98,44 98,44.6 			"/>
			<polygon class="st1" points="97,44.7 79.4,58 76.1,58.4 76.1,58.1 93.3,45.2 			"/>
			<polygon class="st1" points="96.2,43 93.3,45.2 76.1,47.3 76.1,45.4 			"/>
			<path class="st1" d="M94.3,89.1l-2.5,1.8h-3l1.5-1.1v0.1c0,0.5,0.4,0.9,0.9,0.9c0.4,0,0.9-0.4,0.9-0.9v-0.8H94.3z"/>
			<path class="st1" d="M92.1,89.1v0.8c0,0.5-0.5,0.9-0.9,0.9c-0.5,0-0.9-0.4-0.9-0.9v-0.1l0.9-0.7H92.1z"/>
			<polygon class="st1" points="92.1,88.5 92.1,89.1 91.2,89.1 			"/>
			<path class="st1" d="M92.1,75.5v13l-0.9,0.6h-0.9V75.5c0,0,0-0.1,0-0.1L92.1,75.5C92.1,75.4,92.1,75.5,92.1,75.5z"/>
			<path class="st1" d="M92.1,75.4h-1.8c0.1-0.5,0.4-0.8,0.9-0.8C91.7,74.6,92,74.9,92.1,75.4z"/>
			<polygon class="st1" points="91.8,90.9 76.1,102.4 76.1,100.3 88.8,90.9 			"/>
			<polygon class="st1" points="91.2,89.1 90.3,89.8 90.3,89.1 			"/>
			<polygon class="st1" points="90.3,89.1 90.3,89.8 88.8,90.9 76.1,90.9 76.1,89.1 			"/>
			<path class="st1" d="M87.5,111.9l-11.2,8.4c-0.1,0-0.1,0-0.2,0v-0.6c1.3-2.1,3.2-3.7,5.6-5.1C83.4,113.6,85.4,112.7,87.5,111.9z"
				/>
			<path class="st1" d="M81.1,247.5c0.2,0.3,0.3,0.7,0.1,1c-0.1,0.1-0.1,0.2-0.2,0.2l-0.5,0.6c-0.7,0-1.5,0-2.2-0.1l1.4-1.6
				c0-0.1,0.1-0.1,0.1-0.1C80.2,247.5,80.7,247.5,81.1,247.5z"/>
			<path class="st1" d="M80.9,247.3c0.1,0.1,0.2,0.1,0.2,0.2c-0.4,0-0.9,0-1.3,0C80.1,247.2,80.6,247.1,80.9,247.3z"/>
			<path class="st1" d="M80.5,249.3l-4.4,5c0-0.1,0.1-0.2,0.1-0.3v-2.3l2.2-2.4C79,249.2,79.8,249.3,80.5,249.3z"/>
			<path class="st1" d="M79.8,247.5c0,0-0.1,0.1-0.1,0.1l-1.4,1.6c-0.7,0-1.4,0-2.2,0v-1.8C77.3,247.4,78.6,247.4,79.8,247.5z"/>
			<path class="st1" d="M79.4,58l-2,1.5c-0.4-0.2-0.9-0.4-1.4-0.6v-0.5L79.4,58z"/>
			<path class="st1" d="M78.7,59.9l-2.3,0.3l1.1-0.8c0.3,0.1,0.6,0.2,0.8,0.3C78.4,59.8,78.5,59.9,78.7,59.9z"/>
			<path class="st1" d="M77.5,59.4l-1.1,0.8l-0.3,0v-1.4C76.6,59.1,77,59.3,77.5,59.4z"/>
			<polygon class="st1" points="76.4,60.3 76.1,60.5 76.1,60.3 			"/>
			<path class="st1" d="M76.1,125.4c0,0.1,0,0.2,0,0.3V125.4z"/>
			<path class="st1" d="M76.1,125.7L76.1,125.7c-0.1,0.4-0.4,0.6-0.9,0.7c0,0,0,0,0,0c-0.5,0-0.8-0.3-0.9-0.8c0.1-1.6,0.4-3.1,1-4.4
				c0.5,1.2,0.8,2.6,0.8,4.1V125.7z"/>
			<path class="st1" d="M76.1,251.7v2.3c0,0.1,0,0.2-0.1,0.3l-0.4,0.5c-0.1,0.1-0.3,0.1-0.4,0.1c-0.5,0-0.9-0.4-0.9-0.9v-0.3
				L76.1,251.7z"/>
			<path class="st1" d="M76.1,249.2v2.5l-1.8,2v-4.5c0.3,0,0.6,0,0.9,0C75.5,249.2,75.8,249.2,76.1,249.2z"/>
			<path class="st1" d="M76.1,247.4v1.8c-0.3,0-0.6,0-0.9,0c-0.3,0-0.6,0-0.9,0v-1.8c0.3,0,0.6,0,0.9,0
				C75.5,247.4,75.8,247.4,76.1,247.4z"/>
			<path class="st1" d="M76.1,126.3v121.1c-0.3,0-0.6,0-0.9,0c-0.3,0-0.6,0-0.9,0V125.8c0,0.5,0.4,0.9,0.9,0.9c0,0,0,0,0.1,0.1
				C75.7,126.8,75.9,126.6,76.1,126.3z"/>
			<path class="st1" d="M75.2,126.4c0.5-0.1,0.8-0.3,0.9-0.7v0.6c-0.2,0.3-0.4,0.5-0.8,0.5c-0.1-0.1-0.1-0.1-0.1-0.1
				c-0.5,0-0.9-0.4-0.9-0.9c0-0.1,0-0.1,0-0.2C74.4,126.1,74.7,126.4,75.2,126.4C75.2,126.4,75.2,126.4,75.2,126.4z"/>
			<path class="st1" d="M76.1,120.3v5.1c-0.1-1.5-0.3-2.9-0.8-4.1c0.1-0.3,0.3-0.6,0.4-0.9h0C75.8,120.4,75.9,120.3,76.1,120.3z"/>
			<path class="st1" d="M76.1,119.7v0.6c-0.2,0-0.3,0.1-0.4,0.1C75.8,120.2,75.9,119.9,76.1,119.7z"/>
			<path class="st1" d="M76.1,118.1v1.6c-0.2,0.2-0.3,0.5-0.4,0.7h0c-0.3,0-0.6-0.1-0.7-0.4c-0.3-0.4-0.2-1,0.2-1.2L76.1,118.1z"/>
			<path class="st1" d="M76.1,102.4v15.7l-0.9,0.7c-0.4,0.2-0.5,0.8-0.2,1.2c0.1,0.3,0.4,0.4,0.7,0.4c-0.2,0.3-0.3,0.6-0.4,0.9
				c-0.3-0.7-0.6-1.3-1-1.9v-15.6L76.1,102.4z"/>
			<polygon class="st1" points="76.1,100.3 76.1,102.4 74.3,103.8 74.3,101.6 			"/>
			<polygon class="st1" points="76.1,90.9 76.1,100.3 74.3,101.6 74.3,90.9 			"/>
			<rect x="74.3" y="89.1" class="st1" width="1.8" height="1.8"/>
			<path class="st1" d="M76.1,75.4v13.7h-1.8V75.3c0.1,0,0.2,0.1,0.3,0.1H76.1z"/>
			<path class="st1" d="M76.1,73.6v1.8h-1.5c-0.1,0-0.2,0-0.3-0.1v0l0.7-0.5c0.3-0.1,0.4-0.4,0.4-0.7l0-0.5H76.1z"/>
			<path class="st1" d="M76.1,60.8v12.8h-0.7l0.1-12.7l0.3-0.2C75.9,60.7,76,60.7,76.1,60.8z"/>
			<path class="st1" d="M76.1,60.5v0.3c-0.1,0-0.2-0.1-0.3-0.1L76.1,60.5z"/>
			<path class="st1" d="M76.1,60.3v0.2l-0.3,0.2c-0.1,0-0.2-0.1-0.3-0.1v-0.2L76.1,60.3z"/>
			<path class="st1" d="M76.1,58.9v1.4l-0.5,0.1l0-1.7C75.8,58.7,75.9,58.8,76.1,58.9z"/>
			<path class="st1" d="M76.1,58.4v0.5c-0.2-0.1-0.3-0.1-0.5-0.2v-0.1l0,0L76.1,58.4z"/>
			<polygon class="st1" points="76.1,58.1 76.1,58.4 75.6,58.5 			"/>
			<polygon class="st1" points="76.1,47.3 76.1,58.1 75.6,58.5 75.6,58.5 75.7,47.3 			"/>
			<path class="st1" d="M76.1,45.4v1.8l-0.4,0l0-0.8c0-0.3-0.2-0.6-0.5-0.8c-0.1-0.1-0.2-0.1-0.3-0.1L76.1,45.4z"/>
			<path class="st1" d="M76.1,38.8v6.7l-1.2,0.1h0c-0.2,0-0.4,0-0.6,0.2v-7c0.4,0,0.7,0,1.1,0C75.6,38.8,75.9,38.8,76.1,38.8z"/>
			<path class="st1" d="M76.1,38.7L76.1,38.7c-0.2,0.1-0.5,0.1-0.7,0.1c-0.4,0-0.7,0-1.1,0v-0.1c0-0.5,0.4-0.9,0.9-0.9
				S76.1,38.2,76.1,38.7z"/>
			<path class="st1" d="M75.6,254.8l0.4-0.5C76,254.5,75.8,254.7,75.6,254.8z"/>
			<path class="st1" d="M75.8,60.7l-0.3,0.2l0-0.3C75.6,60.6,75.7,60.6,75.8,60.7z"/>
			<path class="st1" d="M75.7,46.5l0,0.8L75,47.4c-0.3,0-0.6-0.1-0.7-0.3v-1.2c0.1-0.2,0.4-0.3,0.6-0.3h0c0.1,0,0.2,0,0.3,0.1
				C75.5,45.9,75.7,46.2,75.7,46.5z"/>
			<path class="st1" d="M75.7,47.3l-0.1,11.2l-0.3,0c-0.3-0.1-0.6-0.3-1-0.4V47.1c0.1,0.2,0.4,0.3,0.7,0.3L75.7,47.3z"/>
			<path class="st1" d="M75.6,254.8l-5.5,6.2c-0.3,0-0.6,0-0.8,0l0-1.6l5-5.7v0.3c0,0.5,0.4,0.9,0.9,0.9
				C75.4,254.9,75.5,254.9,75.6,254.8z"/>
			<polygon class="st1" points="75.6,58.5 75.6,58.5 75.6,58.5 			"/>
			<path class="st1" d="M75.6,58.5l-0.1,0.1c-0.1,0-0.1-0.1-0.2-0.1L75.6,58.5L75.6,58.5z"/>
			<path class="st1" d="M75.4,58.6l0.1-0.1v0.1C75.5,58.7,75.5,58.6,75.4,58.6z"/>
			<path class="st1" d="M75.6,58.7l0,1.7l-0.2,0h-0.2c0,0-0.1,0-0.1,0c-0.1,0-0.2-0.1-0.4-0.2c0,0,0,0,0,0c-0.2-0.2-0.4-0.5-0.4-0.7
				l1.1-0.9C75.5,58.6,75.5,58.7,75.6,58.7z"/>
			<path class="st1" d="M75.6,60.4v0.2c-0.2-0.1-0.3-0.1-0.5-0.2c0,0,0.1,0,0.1,0h0.2L75.6,60.4z"/>
			<path class="st1" d="M75.6,60.6l0,0.3l-1.2,0.9v-1.8c0.1,0,0.3,0.1,0.4,0.2c0,0,0,0,0,0c0.1,0.1,0.2,0.1,0.4,0.2
				C75.2,60.4,75.4,60.5,75.6,60.6z"/>
			<path class="st1" d="M75.5,60.9l-0.1,12.7h-0.8c-0.1,0-0.2,0-0.3,0.1V61.8L75.5,60.9z"/>
			<path class="st1" d="M75.4,58.6l-1.1,0.9c0,0,0-0.1,0-0.1c0-0.4,0.3-0.8,0.7-0.8l0.3,0C75.3,58.6,75.4,58.6,75.4,58.6z"/>
			<path class="st1" d="M75.4,73.6l0,0.5c0,0.3-0.1,0.6-0.4,0.7l-0.7,0.5v-1.7c0.1,0,0.2-0.1,0.3-0.1H75.4z"/>
			<path class="st1" d="M75.3,58.6l-0.3,0c-0.4,0-0.7,0.4-0.7,0.8v-1.2C74.6,58.3,74.9,58.4,75.3,58.6z"/>
			<path class="st1" d="M75.2,37v0.8c-0.5,0-0.9,0.4-0.9,0.9v0.1c-16.6,0-32.2-0.5-43.9-1.4c-11.5-0.8-16.2-1.8-18.1-2.7
				c0.4-1.1,0.5-1.3,0.5-1.5h0.3C16.7,34.9,38.9,37,75.2,37z"/>
			<path class="st1" d="M74.7,60.2c0.1,0.1,0.2,0.1,0.4,0.2C75,60.4,74.8,60.3,74.7,60.2z"/>
			<path class="st1" d="M74.3,45.7c0.2-0.1,0.4-0.2,0.6-0.2c-0.2,0-0.5,0.2-0.6,0.3V45.7z"/>
			<path class="st1" d="M74.7,60.2c-0.1-0.1-0.3-0.1-0.4-0.2v-0.6l0,0C74.3,59.8,74.5,60,74.7,60.2z"/>
			<path class="st1" d="M74.3,119.3c0.4,0.6,0.7,1.2,1,1.9c-0.6,1.3-0.9,2.7-1,4.4c0,0,0-0.1,0-0.1V119.3z"/>
			<path class="st1" d="M74.3,125.5c0,0,0,0.1,0,0.1c0,0.1,0,0.1,0,0.2V125.5z"/>
			<path class="st1" d="M74.3,59.4C74.3,59.4,74.3,59.5,74.3,59.4v0.1V59.4z"/>
			<path class="st1" d="M74.3,247.4v1.8c-16.6,0.1-28.3,2.3-32.3,4.4h-2.2c-0.3,0-0.6,0.2-0.8,0.4l0,0
				C41.6,249.2,60.7,247.5,74.3,247.4z"/>
			<path class="st1" d="M74.3,119.3v6.2c-0.3-6.8-5.6-9.9-13.1-12.5l0,0c0.1,0,0.2,0.1,0.3,0.1c0.2,0,0.3,0,0.5-0.2l1.3-1
				C68.2,113.7,72.1,115.9,74.3,119.3z"/>
			<path class="st1" d="M74.3,101.6v2.2l-11,8.1c-0.6-0.2-1.3-0.5-2-0.7L74.3,101.6z"/>
			<path class="st1" d="M74.3,89.1v1.8H53.8c0-0.1,0.1-0.1,0.1-0.1c0.1-0.1,0.1-0.1,0.2-0.2l2-1.5H74.3z"/>
			<path class="st1" d="M74.3,75.3L74.3,75.3C74.3,75.3,74.3,75.3,74.3,75.3L74.3,75.3z"/>
			<path class="st1" d="M74.3,73.7v1.7l0,0c-0.3-0.1-0.6-0.4-0.6-0.8S73.9,73.8,74.3,73.7z"/>
			<path class="st1" d="M74.3,61.8v11.8c-0.4,0.1-0.6,0.5-0.6,0.8s0.2,0.7,0.6,0.8L56,89.1h-2.2c-0.1,0-0.3,0-0.4,0.1
				c-0.2,0-0.5,0-0.7,0.2l-0.4,0.3l0.1-10.1l1.4-2c0.1-0.1,0.2-0.3,0.2-0.5l0.3-0.2l-0.1,11.3l19.5-14.6l0.1-11.4L74.3,61.8z"/>
			<path class="st1" d="M74.3,60.1v1.8l-0.5,0.4l0-2.3C74,59.9,74.2,60,74.3,60.1z"/>
			<path class="st1" d="M74.3,59.5v0.6c-0.2-0.1-0.3-0.1-0.4-0.2v-0.1L74.3,59.5z"/>
			<path class="st1" d="M74.3,59.4v0.1l-0.4,0.3l0-1.8c0.1,0,0.3,0.1,0.4,0.2V59.4z"/>
			<path class="st1" d="M74.3,47.1v11.1C74.2,58.1,74,58,73.9,58l0.1-9.8l-8.7,6.5c-0.7-0.2-1.4-0.5-2.1-0.7l11-8.2c0,0,0.1,0,0.1,0
				v0.2c-0.2,0.2-0.2,0.4-0.2,0.7C74.1,46.8,74.2,46.9,74.3,47.1z"/>
			<path class="st1" d="M74.3,45.9v1.2c-0.1-0.1-0.2-0.3-0.2-0.5C74.1,46.3,74.1,46.1,74.3,45.9z"/>
			<path class="st1" d="M73.9,58l0,1.8l-0.1,0c-3.4-1.4-6.8-2.7-10.3-3.8l1.7-1.3C68.2,55.7,71,56.8,73.9,58z"/>
			<path class="st1" d="M73.9,59.8L73.9,59.8C73.8,59.9,73.8,59.9,73.9,59.8L73.9,59.8z"/>
			<path class="st1" d="M73.9,59.9l0,2.3L54.3,76.9l0-2.3L73.9,59.9C73.8,59.9,73.8,59.9,73.9,59.9z"/>
			<path class="st1" d="M70.1,261l-0.8,0.9c0-0.1,0-0.2,0-0.2l0-0.7C69.6,261,69.8,261,70.1,261z"/>
			<path class="st1" d="M69.3,261.7c0,0.1,0,0.2,0,0.2l-0.3,0.4c-0.1,0.1-0.2,0.2-0.2,0.3c-0.1,0-0.2,0-0.3,0
				c-0.5,0-0.9-0.4-0.9-0.9l0-0.3c0-0.1,0.1-0.1,0.1-0.2l0.2-0.2c0.5,0,0.9,0,1.4,0L69.3,261.7z"/>
			<path class="st1" d="M69,262.3l0.3-0.4c0,0.3-0.2,0.5-0.5,0.6C68.8,262.5,68.9,262.4,69,262.3z"/>
			<path class="st1" d="M69.3,259.4l0,1.6c-0.5,0-0.9,0-1.4,0L69.3,259.4z"/>
			<path class="st1" d="M69.2,254.5l0.1,4.9l-1.3,1.5c-0.1,0-0.2,0-0.3,0l-0.1-5.5H40.6c-0.1-0.1-0.1-0.2-0.1-0.3
				c0-0.5,0.5-1,1.5-1.5h26.3C68.8,253.6,69.2,254,69.2,254.5z"/>
			<path class="st1" d="M68.5,262.6c0.1,0,0.2,0,0.3,0c-0.1,0.1-0.2,0.1-0.4,0.1c-0.2,0-0.4-0.1-0.6-0.2c-0.3-0.3-0.4-0.7-0.2-1.1
				l0,0.3C67.6,262.2,68,262.6,68.5,262.6z"/>
			<path class="st1" d="M68.4,262.7L68.4,262.7c-13.8-0.5-29.7-2.7-29.7-7.6c0-0.4,0.1-0.8,0.3-1.1l0,0c-0.1,0.1-0.1,0.3-0.1,0.5
				c0,0.5,0.4,0.9,0.9,0.9h0.8c0.9,2.1,11,4.8,27,5.5v0.4c-0.2,0.4-0.1,0.9,0.2,1.1C68,262.6,68.2,262.7,68.4,262.7z"/>
			<path class="st1" d="M67.9,260.9l-0.2,0.2c0,0.1-0.1,0.1-0.1,0.2v-0.4C67.7,260.9,67.8,260.9,67.9,260.9z"/>
			<path class="st1" d="M65.3,54.7L63.5,56c-0.5-0.2-1-0.4-1.6-0.5c0-0.2-0.1-0.3-0.2-0.4l1.4-1C63.9,54.3,64.6,54.5,65.3,54.7z"/>
			<path class="st1" d="M63.5,56l-9.1,6.9l-0.2,0c0.1-0.3,0.1-0.7-0.1-1c-0.2-0.3-0.7-0.4-1-0.3l6.6-5h1.4c0.5,0,0.9-0.4,0.9-0.9
				c0-0.1,0-0.1,0-0.2C62.5,55.7,63,55.9,63.5,56z"/>
			<path class="st1" d="M63.3,111.8l-1.3,1c-0.2,0.2-0.3,0.2-0.5,0.2c-0.1,0-0.2,0-0.3-0.1c-0.3-0.2-0.6-0.5-0.5-0.9
				c0-0.2,0.1-0.5,0.3-0.6l0.3-0.2C62,111.4,62.7,111.6,63.3,111.8z"/>
			<path class="st1" d="M63.2,54l-1.4,1c-0.2-0.2-0.4-0.3-0.7-0.3h-1.5c-3.9-1.1-7.7-2-11.7-2.4c-6.5-0.7-12.6-0.7-18.3,0v-0.7
				c0-0.5-0.4-0.9-0.9-0.9l0-0.1c3.1-0.5,6.4-0.7,9.7-0.7c3.1,0,6.4,0.2,9.7,0.6C53.2,51.2,58.2,52.4,63.2,54z"/>
			<path class="st1" d="M62,55.5c0,0,0,0.1,0,0.2c0,0.5-0.4,0.9-0.9,0.9h-1.4l1.7-1.2C61.6,55.4,61.8,55.5,62,55.5z"/>
			<path class="st1" d="M62,55.5c-0.2-0.1-0.4-0.1-0.6-0.2l0.3-0.3C61.9,55.2,62,55.4,62,55.5z"/>
			<path class="st1" d="M61.8,55.1l-0.3,0.3c-0.6-0.2-1.2-0.4-1.8-0.5h1.5C61.4,54.8,61.6,54.9,61.8,55.1z"/>
			<path class="st1" d="M61.4,55.3l-1.7,1.2H29.6v-1.8h30C60.2,55,60.8,55.2,61.4,55.3z"/>
			<path class="st1" d="M61.3,111.1l-0.3,0.2c-0.2,0.1-0.3,0.4-0.3,0.6c-0.1,0.4,0.1,0.8,0.5,0.9l0,0c-2.6-0.9-5.5-1.7-8.6-2.6
				c-1.7-0.5-3.5-1-5.2-1.5c-2.7-0.8-5.8-1.5-9-2.3c-1.6-0.4-3.2-0.8-4.8-1.2l0.1-0.2c0.1,0,0.1,0,0.2,0c0.2,0,0.4-0.1,0.5-0.2
				l1.2-0.9c1.1,0.3,2.2,0.5,3.3,0.8c3.3,0.8,6.4,1.5,9.1,2.3c1.8,0.5,3.5,1,5.2,1.5C56,109.5,58.8,110.3,61.3,111.1z"/>
			<path class="st1" d="M56,89.1l-2,1.5c0.2-0.4,0.2-0.8-0.1-1.1c-0.2-0.2-0.4-0.3-0.6-0.3c0.1-0.1,0.3-0.1,0.4-0.1H56z"/>
			<path class="st1" d="M54.4,62.9l-0.1,11.6L52.4,76l0.1-11.7l1.4-1.1c0.1-0.1,0.2-0.2,0.3-0.3L54.4,62.9z"/>
			<path class="st1" d="M52.4,76l1.9-1.4l0,2.3L54,77.1c0-0.3-0.1-0.6-0.4-0.8c-0.4-0.3-0.9-0.2-1.2,0.2V76z"/>
			<path class="st1" d="M54.1,61.9c0.2,0.3,0.2,0.7,0.1,1c-0.1,0.1-0.2,0.2-0.3,0.3l-1.4,1.1l0-1.9c0-0.3,0.1-0.5,0.4-0.7l0.2-0.1
				C53.4,61.5,53.9,61.6,54.1,61.9z"/>
			<path class="st1" d="M54,89.5c0.2,0.3,0.3,0.8,0.1,1.1l-0.3,0.2c-0.1,0-0.1,0.1-0.2,0.1c-0.4-0.1-0.7-0.4-0.7-0.9
				c0-0.3,0.2-0.7,0.5-0.8C53.6,89.2,53.8,89.3,54,89.5z"/>
			<path class="st1" d="M53.8,90.8l0.3-0.2c-0.1,0.1-0.1,0.1-0.2,0.2C53.9,90.8,53.8,90.8,53.8,90.8c-0.1,0.1-0.1,0.1-0.2,0.1
				C53.7,90.9,53.7,90.8,53.8,90.8z"/>
			<path class="st1" d="M53.6,76.3c0.3,0.2,0.4,0.5,0.4,0.8l-1.6,1.2l0-1.8C52.7,76.1,53.2,76,53.6,76.3z"/>
			<path class="st1" d="M52.4,78.3l1.6-1.2c0,0.2-0.1,0.3-0.2,0.5l-1.4,2V78.3z"/>
			<path class="st1" d="M53.8,90.9l-18.3,13.2c-0.7-0.2-1.5-0.4-2.2-0.6l5.9-8.3c2.2-1,3.8-3.1,4-5.7l6.5-9.2l2.7-2v1.3l-14.7,20.8
				l14.6-10.7V90c0,0.3,0.2,0.6,0.5,0.8c0.1,0.1,0.3,0.1,0.4,0.1c0.1,0,0.3,0,0.4,0C53.7,90.9,53.7,90.9,53.8,90.9z"/>
			<path class="st1" d="M53.6,90.9c-0.1,0-0.3,0-0.4,0c-0.1,0-0.3,0-0.4-0.1c-0.3-0.2-0.5-0.5-0.5-0.8v-0.3l0.4-0.3
				c0.2-0.2,0.5-0.2,0.7-0.2c-0.3,0.2-0.5,0.5-0.5,0.8C52.9,90.4,53.2,90.8,53.6,90.9z"/>
			<path class="st1" d="M53.1,61.6l-0.2,0.1c-0.3,0.2-0.4,0.4-0.4,0.7l0,1.9L29.7,81.6l0-2.3l23.1-17.5C52.9,61.6,53,61.6,53.1,61.6
				z"/>
			<path class="st1" d="M52.4,76v0.5l-2.7,3.8l-7.2,5.4c-0.3-0.6-0.6-1.1-1-1.5L52.4,76z"/>
			<polygon class="st1" points="49.7,80.3 52.4,76.5 52.4,78.3 			"/>
			<path class="st1" d="M43.2,88.9c0,0.2,0,0.4,0,0.7l-4,5.7c-0.9,0.4-1.9,0.6-2.9,0.6c-3,0-5.5-1.8-6.5-4.5l0-5.1
				c1-2.6,3.5-4.5,6.5-4.5c2.1,0,4,0.9,5.2,2.3L40,85.3c0,0-0.1-0.1-0.1-0.1c-0.9-0.9-2.2-1.5-3.7-1.5c-2.9,0-5.2,2.3-5.2,5.2
				s2.3,5.2,5.2,5.2c2.9,0,5.2-2.3,5.2-5.2c0-0.7-0.1-1.4-0.4-2l1.5-1.1C42.9,86.7,43.2,87.8,43.2,88.9z"/>
			<path class="st1" d="M39.1,95.3l4-5.7C42.9,92.1,41.3,94.3,39.1,95.3z"/>
			<path class="st1" d="M42.5,85.8L41,86.9c-0.2-0.6-0.6-1.1-1-1.6l1.4-1.1C41.8,84.7,42.2,85.2,42.5,85.8z"/>
			<path class="st1" d="M39.8,253.6H42c-1,0.5-1.5,1-1.5,1.5c0,0.1,0,0.2,0.1,0.3h-0.8c-0.5,0-0.9-0.4-0.9-0.9
				c0-0.2,0.1-0.4,0.1-0.5C39.2,253.8,39.5,253.6,39.8,253.6z"/>
			<path class="st1" d="M41,86.9l-3.5,2.6c-0.2,0-0.4,0.1-0.6,0.1c-0.3,0-0.6-0.1-0.7-0.4c-0.3-0.4-0.2-0.9,0.2-1.2l3.6-2.7
				C40.4,85.8,40.8,86.3,41,86.9z"/>
			<path class="st1" d="M35.5,104.1l-1.2,0.9c-0.1,0.1-0.3,0.2-0.5,0.2c-0.1,0-0.1,0-0.2,0c-0.4-0.1-0.7-0.4-0.7-0.9
				c0-0.2,0.1-0.3,0.2-0.5l0.2-0.2C34,103.7,34.8,103.9,35.5,104.1z"/>
			<path class="st1" d="M33.6,105.2l-0.1,0.2C19.9,102,4.8,97.1,1.1,83.9C-0.7,77.6,0,69.7,1.6,62l0.1,0c0,0.1,0,0.1,0,0.2
				c0,0.2,0,0.4,0.2,0.5c0.3,0.4,0.8,0.5,1.2,0.2c0.1,0,0.1-0.1,0.1-0.1c-1.8,8.5-1.9,15.4-0.4,20.5c1.3,4.5,4,7.9,7.5,10.7
				c-0.1,0.3-0.1,0.7,0.1,0.9c0.2,0.3,0.4,0.4,0.7,0.4c0.2,0,0.4-0.1,0.6-0.2l0.1,0c4.6,3.1,10.3,5.3,16.1,7v0.6
				c0,0.5,0.4,0.9,0.9,0.9s0.9-0.4,0.9-0.8v-0.2c1.2,0.3,2.4,0.6,3.6,0.9l-0.2,0.2c-0.1,0.2-0.2,0.3-0.2,0.5
				C32.9,104.7,33.2,105.1,33.6,105.2z"/>
			<path class="st1" d="M29.7,102.6v0.2c0,0.4-0.4,0.8-0.9,0.8s-0.9-0.4-0.9-0.9v-0.6C28.5,102.3,29.1,102.5,29.7,102.6z"/>
			<path class="st1" d="M29.7,91.4l0,11.2c-0.6-0.2-1.2-0.3-1.8-0.5l0-19.2l1.8-1.4l0,4.8c-0.3,0.8-0.5,1.6-0.5,2.5
				C29.2,89.8,29.4,90.7,29.7,91.4z"/>
			<path class="st1" d="M29.7,86.4l0,5.1c-0.3-0.8-0.5-1.6-0.5-2.5C29.2,88,29.4,87.2,29.7,86.4z"/>
			<polygon class="st1" points="29.6,79.2 29.7,81.6 27.9,82.9 27.9,80.6 			"/>
			<polygon class="st1" points="29.6,56.6 29.6,79.2 27.9,80.6 27.8,56.6 			"/>
			<rect x="27.8" y="54.8" class="st1" width="1.8" height="1.8"/>
			<path class="st1" d="M29.6,52.4l0,2.4h-1.8l0-2.1C28.4,52.6,29,52.5,29.6,52.4z"/>
			<path class="st1" d="M29.6,51.7v0.7c-0.6,0.1-1.2,0.2-1.8,0.3v-1c0-0.5,0.4-0.9,0.9-0.9S29.6,51.2,29.6,51.7z"/>
			<path class="st1" d="M28.7,50.7L28.7,50.7c-0.5,0.1-0.9,0.5-0.9,1v1c-3,0.5-6,1.2-8.8,2.1h-4.8c-0.1,0-0.2,0-0.3,0.1l0-0.1
				C18.5,52.8,23.5,51.4,28.7,50.7z"/>
			<path class="st1" d="M27.9,80.6v2.3l-12.6,9.6c0-0.1,0.1-0.2,0.1-0.3v-2.1L27.9,80.6z"/>
			<path class="st1" d="M27.8,54.8v1.8H15.3c0-0.1,0-0.3-0.1-0.4c1.2-0.5,2.5-1,3.8-1.4H27.8z"/>
			<path class="st1" d="M14.2,54.8H19c-1.3,0.4-2.5,0.9-3.8,1.4c-0.1-0.3-0.4-0.5-0.8-0.5c-0.4,0-0.7,0.3-0.8,0.6
				c-0.2-0.2-0.2-0.4-0.2-0.6c0-0.4,0.2-0.7,0.6-0.8C14,54.8,14.1,54.8,14.2,54.8z"/>
			<path class="st1" d="M15.3,90.1v2.1c0,0.1,0,0.2-0.1,0.3l-0.8,0.6c0,0,0,0-0.1,0c-0.5,0-0.9-0.4-0.9-0.9v-0.7L15.3,90.1z"/>
			<path class="st1" d="M15.3,56.6v33.5l-1.8,1.4V56.9c0.2-0.1,0.5-0.2,0.7-0.3H15.3z"/>
			<path class="st1" d="M15.3,56.6h-1.1c0.3-0.1,0.7-0.3,1-0.4C15.3,56.3,15.3,56.4,15.3,56.6z"/>
			<path class="st1" d="M14.5,93.1l0.8-0.6C15.1,92.8,14.8,93.1,14.5,93.1z"/>
			<path class="st1" d="M15.2,56.2c-0.3,0.1-0.7,0.3-1,0.4c-0.3,0-0.5-0.1-0.6-0.3c0.1-0.4,0.4-0.6,0.8-0.6
				C14.8,55.7,15.1,55.9,15.2,56.2z"/>
			<path class="st1" d="M14.5,93.1l-2.7,2.1c-0.5-0.3-1-0.7-1.5-1.1c0.1-0.1,0.2-0.3,0.3-0.4l2.9-2.2v0.7
				C13.5,92.7,13.9,93.1,14.5,93.1C14.4,93.1,14.4,93.1,14.5,93.1z"/>
			<path class="st1" d="M14.2,56.6c-0.2,0.1-0.5,0.2-0.7,0.3v-0.3c0-0.1,0-0.2,0.1-0.3C13.7,56.5,13.9,56.6,14.2,56.6z"/>
			<path class="st1" d="M13.8,54.8L13.8,54.8c-0.3,0.2-0.5,0.5-0.5,0.9c0,0.2,0.1,0.5,0.2,0.6c0,0.1-0.1,0.2-0.1,0.3v0.3
				c-3.6,1.6-7,3.6-10.3,6c0.2-0.8,0.4-1.7,0.6-2.6C7,58.1,10.4,56.3,13.8,54.8z"/>
			<path class="st1" d="M12.8,33.2c0,0.2-0.1,0.4-0.5,1.5C11,34.1,11,33.6,11,33.2c0,0,0-0.1,0-0.1c0,0,0,0,0,0
				c0.1-0.5,0.5-0.8,1-0.8C12.4,32.4,12.8,32.7,12.8,33.2z"/>
			<path class="st1" d="M12.3,34.7c-0.1,0.3-0.2,0.6-0.4,1.1C8.2,45,5.5,53.2,3.8,60.3c-0.6,0.4-1.1,0.8-1.7,1.2
				c-0.2,0.1-0.3,0.3-0.3,0.5l-0.1,0c2.3-11.2,6.7-22,8.6-26.8c0.4-1,0.7-1.8,0.8-2.1c0,0,0,0.1,0,0.1C11,33.6,11,34.1,12.3,34.7z"
				/>
			<path class="st1" d="M11.8,95.2L11.8,95.2c-0.3,0.1-0.5,0.2-0.7,0.2c-0.3,0-0.5-0.1-0.7-0.4c-0.2-0.3-0.2-0.6-0.1-0.9
				C10.8,94.5,11.3,94.8,11.8,95.2z"/>
			<path class="st1" d="M3.8,60.3c-0.2,0.9-0.4,1.8-0.6,2.6c0,0-0.1,0.1-0.1,0.1c-0.4,0.3-0.9,0.2-1.2-0.2c-0.1-0.2-0.2-0.3-0.2-0.5
				c0-0.1,0-0.1,0-0.2c0-0.2,0.2-0.4,0.3-0.5C2.7,61.1,3.2,60.7,3.8,60.3z"/>
		</g>
		<g>
		</g>
	</g>
</g>
</svg>
