<?xml version="1.0" encoding="utf-8"?>
<!-- Generator: Adobe Illustrator 25.4.1, SVG Export Plug-In . SVG Version: 6.00 Build 0)  -->
<svg version="1.1" id="Layer_1" xmlns="http://www.w3.org/2000/svg" xmlns:xlink="http://www.w3.org/1999/xlink" x="0px" y="0px"
	 viewBox="0 0 65.1 161.9" style="enable-background:new 0 0 65.1 161.9;" xml:space="preserve">
<style type="text/css">
	.st0{fill:#FFFFFF;}
	.st1{fill:#FEDF2C;}
	.st2{fill:#FD8612;}
</style>
<g>
	<g id="XMLID_00000162340920757367692820000005025414090754617994_">
		<g>
			<path class="st0" d="M65.1,138.5V152c0,0.1,0,0.2-0.1,0.4c0,0,0-0.1,0-0.1c-0.1-1-0.7-1.9-1.7-2.8v-10h0.5c0.2,0,0.3-0.1,0.5-0.2
				c0.1,0,0.2-0.1,0.3-0.2c0.2-0.2,0.3-0.4,0.3-0.6H65.1z"/>
			<path class="st0" d="M65.1,94.5v43.8h-0.2c0-0.1,0-0.1,0-0.2c0-0.2-0.1-0.4-0.3-0.4l-0.1-0.1l-1.2-1.3V94.9l0.2,0.2
				c0.2,0.2,0.4,0.3,0.6,0.3c0,0,0,0,0.1,0c0,0,0,0,0,0c0.2,0,0.4,0,0.6-0.2c0.1-0.1,0.2-0.3,0.3-0.5C65.1,94.6,65.1,94.6,65.1,94.5
				z"/>
			<path class="st0" d="M65.1,62.7v31.8c0-0.2-0.1-0.4-0.3-0.6l-1.4-1.5v0.1l-0.1-0.1V63.6h0.8c0.2,0,0.5-0.1,0.6-0.3
				C64.9,63.2,65.1,62.9,65.1,62.7z"/>
			<path class="st0" d="M65.1,39.1v23.6H65c0-0.4-0.3-0.8-0.7-0.9l-1-1V40.4c0.3-0.1,0.6-0.2,0.9-0.4c0.1,0,0.2-0.1,0.3-0.1
				c0.3-0.2,0.4-0.5,0.4-0.8H65.1z"/>
			<path class="st0" d="M65.1,6.9v32.2h-0.2c0-0.2,0-0.3-0.1-0.5c-0.3-0.4-0.7-0.5-1.1-0.3c0,0-0.1,0-0.1,0c-0.1,0-0.1,0-0.2,0.1
				V9.5c0.6-0.4,1.1-0.9,1.3-1.4c0.2-0.3,0.2-0.7,0.2-1c0-0.1,0-0.2,0-0.3c0-0.1,0-0.1,0-0.2c0-0.1,0-0.1-0.1-0.2
				C65,6.5,65.1,6.7,65.1,6.9z"/>
			<path class="st0" d="M65.1,94.5c0,0.1,0,0.1,0,0.2c-0.1,0.2-0.2,0.3-0.4,0.5c-0.2,0.1-0.4,0.2-0.5,0.2c-0.2,0-0.5-0.1-0.6-0.3
				l-0.2-0.2v-2.4l1.4,1.4C65,94.1,65.1,94.3,65.1,94.5z"/>
			<path class="st0" d="M65,152.4c0,0.1,0,0.1,0,0.2c0,6-16.7,9.2-32.4,9.2c0,0-0.1,0-0.1,0c0.1-0.1,0.2-0.1,0.3-0.2
				c0.2-0.2,0.3-0.4,0.3-0.7v-0.8c6.8,0,12.8-0.6,17.6-1.5l-0.1-0.1c0,0,0.1,0,0.1,0l0.7,0.7c0.1,0.2,0.4,0.3,0.6,0.3c0,0,0,0,0.1,0
				c0.1,0,0.1,0,0.2,0c0.1,0,0.2,0,0.3-0.1c0.1,0,0.1-0.1,0.2-0.1c0.3-0.3,0.3-0.8,0.1-1.2c6.5-1.4,10.4-3.5,10.4-5.4
				c0-0.2,0-0.3-0.1-0.4l0.1-0.1c0,0.1,0.1,0.2,0.2,0.2c0,0,0,0,0,0c0.2,0.2,0.4,0.4,0.8,0.4C64.5,152.9,64.8,152.7,65,152.4
				C65,152.3,65,152.4,65,152.4z"/>
			<path class="st0" d="M65,152.3C65,152.3,65,152.4,65,152.3C65,152.4,65,152.3,65,152.3C65,152.3,65,152.3,65,152.3z"/>
			<path class="st0" d="M65,6.7c0,0.1,0,0.2,0,0.3c0,0.3-0.1,0.7-0.2,1c-0.3,0.5-0.7,1-1.3,1.4v0c0,0-0.1,0-0.1,0.1V7.1V7V6.9
				c0-0.5,0.4-0.9,0.9-0.9c0.2,0,0.5,0.2,0.7,0.4c0,0,0,0.1,0.1,0.2C65,6.6,65,6.7,65,6.7z"/>
			<path class="st0" d="M65,152.3C65,152.3,65,152.3,65,152.3c-0.1-0.9-0.7-1.9-1.7-2.7v-0.1C64.3,150.4,64.9,151.3,65,152.3z"/>
			<path class="st0" d="M65,6.6c0,0.1,0,0.1,0,0.2C65,6.7,65,6.6,65,6.6z"/>
			<path class="st0" d="M64.9,6.4c0,0.1,0,0.1,0.1,0.2C64.9,6.5,64.9,6.4,64.9,6.4z"/>
			<path class="st0" d="M65.1,94.7c0,0.2-0.1,0.3-0.3,0.5c-0.2,0.2-0.4,0.2-0.6,0.2c0,0,0,0,0,0c0.2,0,0.4-0.1,0.5-0.2
				C64.8,95.1,65,94.9,65.1,94.7z"/>
			<path class="st0" d="M64.9,138.1c0,0.1,0,0.1,0,0.2c0,0.1,0,0.1,0,0.2c0,0.2-0.1,0.3-0.3,0.4c-0.1,0.1-0.1,0.1-0.2,0.2
				c0.1-0.1,0.2-0.3,0.2-0.4c0-0.1,0-0.1,0-0.2c0-0.4-0.3-0.8-0.8-0.9h-0.5v-1.1l1.2,1.2l0.1,0.1C64.8,137.8,64.8,138,64.9,138.1z"
				/>
			<path class="st0" d="M65,62.7c0,0.2-0.1,0.5-0.3,0.6c-0.2,0.2-0.4,0.3-0.6,0.3h-0.8v-0.3c0.1,0.1,0.1,0.1,0.2,0.2
				c0.3,0.1,0.6,0.1,0.9-0.2c0.2-0.1,0.3-0.3,0.3-0.5c0-0.1,0-0.2,0-0.3c0-0.1,0-0.1,0-0.2c0,0,0-0.1-0.1-0.2c0,0,0-0.1-0.1-0.1
				l-0.2-0.2C64.7,61.9,65,62.3,65,62.7z"/>
			<polygon class="st0" points="63.4,92.4 64.8,93.9 63.4,92.5 			"/>
			<path class="st0" d="M64.7,38.6c0.1,0.2,0.1,0.3,0.1,0.5c0,0.3-0.1,0.6-0.4,0.8c-0.1,0-0.2,0.1-0.3,0.1c-0.3,0.1-0.6,0.2-0.9,0.4
				v-0.1c0,0,0.1,0,0.1,0v-1.8c0,0,0-0.1,0.1-0.1c0.1,0,0.1-0.1,0.2-0.1c0,0,0.1,0,0.1,0C64.1,38.1,64.5,38.3,64.7,38.6z"/>
			<path class="st0" d="M64.7,62.5c0,0.1,0,0.2,0,0.3c0,0.2-0.1,0.4-0.3,0.5c-0.2,0.2-0.6,0.2-0.9,0.2c-0.1,0-0.2-0.1-0.2-0.2v-1.5
				h0.8c0.1,0,0.1,0,0.2,0l0.2,0.2c0,0,0.1,0.1,0.1,0.1c0,0.1,0.1,0.1,0.1,0.2C64.7,62.4,64.7,62.4,64.7,62.5z"/>
			<path class="st0" d="M64.7,62.3c0,0.1,0,0.1,0,0.2C64.7,62.4,64.7,62.4,64.7,62.3z"/>
			<path class="st0" d="M64.6,62.1c0,0.1,0.1,0.1,0.1,0.2C64.6,62.2,64.6,62.2,64.6,62.1z"/>
			<path class="st0" d="M64.6,138.4c0,0.1,0,0.1,0,0.2c0,0.2-0.1,0.3-0.2,0.4c0,0-0.1,0.1-0.1,0.1c0.2-0.2,0.3-0.4,0.3-0.6
				C64.6,138.5,64.6,138.4,64.6,138.4z"/>
			<path class="st0" d="M64.6,138.4c0,0,0,0.1,0,0.1c0,0.2-0.1,0.4-0.3,0.6c0,0,0.1,0,0.1-0.1c-0.1,0.1-0.1,0.1-0.1,0.1
				c-0.1,0-0.2,0-0.3,0.1c-0.2,0-0.4-0.1-0.6-0.3l-0.1-0.1v-1.3h0.5C64.2,137.7,64.6,138,64.6,138.4z"/>
			<polygon class="st0" points="63.3,136.3 64.5,137.6 63.3,136.4 			"/>
			<path class="st0" d="M65,152.3c-0.2,0.3-0.5,0.5-0.8,0.5c-0.2,0-0.5-0.1-0.7-0.3c0,0,0,0,0,0c0-0.1-0.1-0.2-0.1-0.3l-0.1,0
				c0,0,0-0.1,0-0.1c0,0,0-0.1,0-0.1c0,0,0-0.1,0-0.1v-2.3C64.3,150.4,64.9,151.3,65,152.3z"/>
			<path class="st0" d="M64.9,6.4C64.7,6.2,64.4,6,64.2,6c-0.5,0-0.9,0.4-0.9,0.9V7c0-0.9-2.6-2.2-7.8-3.3c-5.1-1.1-12.8-2-22.9-2
				C12.4,1.7,1.9,5.2,1.9,7.1H1.8V6.9C1.8,6.4,1.4,6,0.9,6C0.7,6,0.4,6.1,0.3,6.3C2.2,1.7,20.2,0,32.6,0S63.2,1.7,64.9,6.4z"/>
			<path class="st0" d="M64.3,61.8c-0.1,0-0.1,0-0.2,0h-0.8v-1L64.3,61.8z"/>
			<path class="st0" d="M64,139.3c0.1,0,0.1,0,0.2,0c-0.1,0.1-0.3,0.1-0.4,0.1h-0.5v-0.5l0.1,0.1C63.5,139.2,63.7,139.3,64,139.3z"
				/>
			<path class="st0" d="M64.4,63.3c-0.2,0.2-0.6,0.3-0.9,0.2C63.8,63.5,64.2,63.4,64.4,63.3z"/>
			<path class="st0" d="M63.4,9.5c0.6-0.4,1.1-0.9,1.3-1.4C64.5,8.6,64,9.1,63.4,9.5L63.4,9.5z"/>
			<path class="st0" d="M63.4,152.2c0,0.1,0.1,0.2,0.1,0.3C63.4,152.4,63.4,152.3,63.4,152.2L63.4,152.2z"/>
			<path class="st0" d="M63.3,152.1C63.3,152.1,63.3,152.1,63.3,152.1l-0.1,0.2c0,0,0-0.1-0.1-0.1c-0.8-2.8-9.7-5.8-22.9-6.8
				c0,0-0.1,0-0.1,0l-1.7-1.7c10.8,0.5,20.9,2.6,24.8,5.9v2.4h0.1C63.3,152,63.3,152.1,63.3,152.1z"/>
			<polygon class="st0" points="63.3,138.9 63.3,139.4 34.1,139.4 33,138.3 33,137.6 61.9,137.6 			"/>
			<polygon class="st0" points="63.3,137.6 63.3,138.9 61.9,137.6 62,137.6 			"/>
			<path class="st0" d="M63.3,137.5v0.1H62l-28.9-28.8v-0.1v-2.4L59,132.1v1.9c0,0.5,0.4,0.9,0.9,0.9s0.9-0.4,0.9-0.9v-0.1l2.5,2.5
				V137.5z"/>
			<polygon class="st0" points="63.3,92.4 63.3,94.9 60.8,92.4 60.8,89.9 			"/>
			<path class="st0" d="M63.3,63.3v0.3h-2.5v-0.8c0-0.5-0.4-0.9-0.9-0.9h1.8l0.8,0.7L63.3,63.3C63.3,63.3,63.3,63.3,63.3,63.3z"/>
			<polygon class="st0" points="63.3,61.8 63.3,63.3 62.5,62.6 61.7,61.8 61.8,61.8 			"/>
			<path class="st0" d="M63.3,60.8v1h-1.5L41.6,41.6c1,0.2,2,0.4,3,0.5L63.3,60.8z"/>
			<path class="st0" d="M63.3,38.4v1.8c0,0-0.1,0-0.1,0L63.3,38.4C63.2,38.5,63.3,38.5,63.3,38.4z"/>
			<path class="st0" d="M63.3,38.4L63.3,38.4c0,0.1,0,0.1-0.1,0.1v1.8c-3.8,1.5-7.8,2.3-12,2.3c-2.2-0.1-4.4-0.2-6.6-0.5l-2.2-2.2
				C48.8,41.1,55.9,41.5,63.3,38.4z"/>
			<path class="st0" d="M63.3,7.1v2.5c-4.9,3.2-19.4,4.5-30,4.6c0-0.3-0.1-0.5-0.3-0.7c-0.1-0.2-0.3-0.3-0.6-0.3v-0.8
				c0,0,0.1,0,0.2,0c0,0,0,0,0.1,0C52.8,12.4,63.3,9,63.3,7.1z"/>
			<path class="st0" d="M63.3,63.3C63.3,63.3,63.3,63.3,63.3,63.3l-0.8-0.7L63.3,63.3z"/>
			<path class="st1" d="M63.2,152.3c0,0.1,0,0.2,0,0.3c0,1.9-3.8,4-10.4,5.4l-0.1-0.1l-12.3-12.3C53.5,146.5,62.3,149.4,63.2,152.3
				L63.2,152.3z"/>
			<path class="st2" d="M63.1,152.2C63.1,152.2,63.1,152.2,63.1,152.2v0.1c-0.8-2.9-9.6-5.8-22.7-6.7h0l-0.2-0.2
				C53.4,146.4,62.3,149.4,63.1,152.2z"/>
			<path class="st1" d="M61.8,61.8L61.8,61.8H33.2v-0.1V39.8c0.9,0.2,1.8,0.5,2.7,0.7c0.5,0.1,0.9,0.2,1.4,0.3c0,0,0.1,0,0.1,0
				c1.4,0.3,2.7,0.7,4.1,0.9l-0.1-0.1c0.1,0,0.2,0,0.2,0L61.8,61.8z"/>
			<polygon class="st0" points="60.8,92.4 60.8,133.9 59,132.1 59,90.6 			"/>
			<polygon class="st0" points="60.8,89.9 60.8,92.4 59,90.6 59,88.1 			"/>
			<polygon class="st0" points="60.8,63.6 60.8,89.9 59,88.1 59,63.6 			"/>
			<path class="st0" d="M60.8,62.8v0.8H59v-0.8c0-0.5,0.4-0.9,0.9-0.9S60.8,62.3,60.8,62.8z"/>
			<path class="st0" d="M59,132.1l1.8,1.9c0,0.5-0.4,0.9-0.9,0.9S59,134.5,59,134V132.1z"/>
			<path class="st0" d="M33.2,61.9h26.7c-0.5,0-0.9,0.4-0.9,0.9v0.8H34.4l-0.1-0.1h0.1l-1.2-1.2V61.9z"/>
			<polygon class="st0" points="59,88.1 59,90.6 47.4,79.1 48.7,77.8 48.7,77.9 48.8,77.8 			"/>
			<path class="st2" d="M63.3,7.1c0,1.9-10.5,5.3-30.6,5.3C52.7,12.3,63.2,8.9,63.3,7.1z"/>
			<path class="st1" d="M32.6,1.8c20.1,0,30.7,3.4,30.7,5.3c-0.1,1.8-10.6,5.2-30.6,5.3c0,0,0,0-0.1,0c-0.1,0-0.2,0-0.2,0
				c0,0-0.1,0-0.1,0v-0.1C16.8,12.3,7,10.2,3.4,8.5c0,0,0,0,0,0C2.5,8,2,7.5,2,7.1C1.9,5.2,12.4,1.8,32.6,1.8z"/>
			<path class="st0" d="M53.9,71.5c0.3,0.3,0.3,0.8,0,1.2l-5.2,5.2l0,0l0,0l0,0l-1.2-1.2l5.2-5.2C53,71.1,53.5,71.1,53.9,71.5z"/>
			<path class="st0" d="M52.8,158.1c0.3,0.4,0.2,0.9-0.1,1.2c0,0-0.1,0.1-0.1,0.1c-0.1,0-0.2,0.1-0.3,0.1c-0.1,0-0.1,0-0.2,0
				c-0.2,0-0.4-0.1-0.6-0.3l-0.7-0.7c0,0,0,0-0.1,0l0,0C51.5,158.4,52.2,158.3,52.8,158.1z"/>
			<path class="st0" d="M52.7,158l0.1,0.1c-0.7,0.1-1.4,0.3-2.1,0.4l-13.1-13.1c0.8,0,1.7,0,2.5,0.1l0.1,0.1c0.1,0,0.1,0,0.2,0h0
				L52.7,158z"/>
			<path class="st0" d="M52.3,159.5c0.1,0,0.2-0.1,0.3-0.1C52.5,159.4,52.4,159.5,52.3,159.5z"/>
			<path class="st0" d="M52.1,159.5C52,159.5,52,159.5,52.1,159.5c-0.3,0-0.6-0.1-0.7-0.3l-0.7-0.7c0,0,0,0,0.1,0l0.7,0.7
				C51.7,159.4,51.9,159.5,52.1,159.5z"/>
			<path class="st2" d="M50.6,158.5L50.6,158.5c-4.7,1-10.8,1.6-17.5,1.6V160C39.8,160,45.9,159.4,50.6,158.5z"/>
			<path class="st1" d="M37.5,145.4l13.1,13.1c-4.8,0.9-10.8,1.5-17.5,1.5v0.1c0,0-0.1,0-0.1,0v-14.8c0,0,0.1,0,0.1,0
				c1.1,0,2.2,0,3.4,0C36.8,145.4,37.2,145.4,37.5,145.4z"/>
			
				<rect x="48.7" y="77.8" transform="matrix(0.7071 -0.7071 0.7071 0.7071 -40.7842 57.2378)" class="st0" width="0.1" height="0.1"/>
			<polygon class="st0" points="48.7,77.8 48.7,77.8 47.4,76.6 47.4,76.6 			"/>
			<polygon class="st0" points="48.7,77.8 47.4,79.1 46.2,77.8 46.8,77.1 47.4,76.6 47.4,76.6 47.4,76.6 			"/>
			<polygon class="st0" points="47.4,76.5 46.8,77.1 46.2,77.8 33.2,64.8 33.2,63.6 34.4,63.6 			"/>
			<path class="st0" d="M47.4,79.1l-4.6,4.7C42.6,84,42.4,84,42.2,84s-0.5-0.1-0.6-0.3c-0.3-0.3-0.3-0.9,0-1.3l4.6-4.5L47.4,79.1
				L47.4,79.1z"/>
			<polygon class="st0" points="47.4,79.1 47.4,79.1 47.4,79.1 46.2,77.9 46.2,77.8 			"/>
			<polygon class="st0" points="46.8,77.1 46.2,77.8 46.2,77.8 			"/>
			<polygon class="st0" points="46.2,77.8 46.2,77.9 46.1,77.8 46.2,77.8 			"/>
			<path class="st0" d="M42.4,39.9l2.2,2.2c-1-0.2-2-0.3-3-0.5l-2.2-2.2c0.7,0.1,1.4,0.3,2.1,0.4C41.8,39.8,42.1,39.8,42.4,39.9z"/>
			<path class="st0" d="M42.4,39.9c-0.3,0-0.6-0.1-0.8-0.1c-0.8-0.2-1.5-0.3-2.3-0.5l0.1,0.1c-0.1,0-0.2,0-0.2,0l-0.1-0.1
				c0,0,0.1,0,0.1,0l-6-6v-2.5L42.4,39.9z"/>
			<path class="st0" d="M41.6,41.6c1,0.2,2,0.3,3,0.5C43.6,42,42.6,41.8,41.6,41.6z"/>
			<path class="st0" d="M41.4,41.6l0.1,0.1c-1.4-0.2-2.7-0.5-4.1-0.9C38.7,41.1,40,41.3,41.4,41.6z"/>
			<path class="st0" d="M39.2,39.3l2.2,2.3c-1.3-0.2-2.6-0.5-4-0.7c0,0-0.1,0-0.1,0c-0.5-0.1-1-0.3-1.5-0.4
				c-0.9-0.2-1.7-0.4-2.6-0.7v0v-1.9c1.1,0.3,2,0.5,3,0.8C37.2,38.8,38.2,39.1,39.2,39.3z"/>
			<path class="st0" d="M40.2,145.4l0.2,0.2c-0.1,0-0.1,0-0.2,0l-0.1-0.1c0,0,0.1,0,0.1,0l-0.1-0.1
				C40.1,145.4,40.2,145.4,40.2,145.4z"/>
			<path class="st0" d="M40.2,145.5c0,0-0.1,0-0.1,0l-0.1-0.1c0,0,0.1,0,0.1,0L40.2,145.5z"/>
			<path class="st0" d="M40.1,145.4c0,0-0.1,0-0.1,0l-1.7-1.7c0,0,0.1,0,0.1,0L40.1,145.4z"/>
			<path class="st0" d="M40,145.4l0.1,0.1c-0.8-0.1-1.7-0.1-2.5-0.1l-0.1-0.1C38.3,145.3,39.2,145.4,40,145.4z"/>
			<path class="st0" d="M39.3,39.2c0.8,0.2,1.5,0.4,2.3,0.5c-0.7-0.1-1.5-0.3-2.1-0.4L39.3,39.2z"/>
			<path class="st0" d="M38.3,143.7l1.7,1.7c-0.8,0-1.7-0.1-2.5-0.1l-1.8-1.8C36.6,143.5,37.4,143.6,38.3,143.7l0.1,0
				C38.4,143.7,38.3,143.7,38.3,143.7z"/>
			<path class="st2" d="M39.2,39.2c0,0-0.1,0-0.1,0l-5.9-5.9v-0.1L39.2,39.2z"/>
			<path class="st1" d="M33.2,33.3l5.9,5.9c-1-0.2-1.9-0.5-2.8-0.7c-1-0.2-2.1-0.5-3.1-0.8V33.3z"/>
			<path class="st0" d="M38.3,143.6c-0.9,0-1.7-0.1-2.6-0.1c0,0-0.1,0-0.1,0L33,141v-0.2v-1.4h1.1L38.3,143.6z"/>
			<path class="st0" d="M37.6,145.4C37.6,145.4,37.5,145.4,37.6,145.4l-0.1,0C37.5,145.4,37.6,145.4,37.6,145.4z"/>
			<path class="st0" d="M37.6,145.4c0,0-0.1,0-0.1,0l-1.9-1.9c0,0,0.1,0,0.1,0L37.6,145.4L37.6,145.4z"/>
			<path class="st0" d="M37.5,145.4c-0.3,0-0.7,0-1-0.1c-1.1,0-2.3,0-3.4,0v-1.8c0.8,0,1.6,0,2.5,0L37.5,145.4z"/>
			<polygon class="st0" points="34.4,63.5 34.3,63.5 33.2,62.4 33.2,62.3 			"/>
			<polygon class="st0" points="34.3,63.5 33.2,63.5 33.2,62.4 			"/>
			<polygon class="st0" points="34.1,139.4 33,139.4 33,138.3 			"/>
			<polygon class="st0" points="33.2,64.8 33.2,64.9 32.5,64.2 			"/>
			<path class="st0" d="M33.2,63.6v1.2l-0.7-0.6L32,63.7c0,0,0,0-0.1-0.1H33.2z"/>
			<path class="st0" d="M33.2,62.4v1.1h-0.1L33.2,62.4C33.2,62.4,33.2,62.4,33.2,62.4z"/>
			<path class="st0" d="M33.2,62.3L33.2,62.3C33.2,62.4,33.2,62.4,33.2,62.3L33.2,62.3z"/>
			<path class="st0" d="M33.2,61.9v0.4c0,0-0.1-0.1-0.1-0.1v-0.3H33.2z"/>
			<path class="st0" d="M33.2,61.8L33.2,61.8l-0.1,0.1v0.3c-0.1-0.1-0.2-0.1-0.3-0.1c0,0-0.1,0-0.1,0s-0.1,0-0.1,0
				c-0.2,0-0.4,0.1-0.5,0.2c-0.3,0.3-0.4,0.8-0.1,1.2h-0.4v-1.8L33.2,61.8L33.2,61.8z"/>
			<path class="st0" d="M33.2,39.8v21.9h-1.7h-0.1V39.3v-0.1c0.3,0.1,0.5,0.1,0.8,0.2c0.1,0,0.2,0.1,0.2,0.1
				c0.2,0.1,0.4,0.1,0.7,0.2v0v0C33.1,39.7,33.2,39.7,33.2,39.8L33.2,39.8z"/>
			<path class="st0" d="M33.2,39.7L33.2,39.7c0,0-0.1,0-0.1,0v0C33.1,39.7,33.2,39.7,33.2,39.7z"/>
			<path class="st0" d="M33.2,37.8v1.9c0,0-0.1,0-0.1,0v-1.9C33.1,37.8,33.2,37.8,33.2,37.8z"/>
			<path class="st0" d="M33.2,37.8L33.2,37.8c0,0-0.1,0-0.1,0v1.9c-0.2-0.1-0.4-0.1-0.7-0.2c-0.1,0-0.2,0-0.2-0.1
				c-0.3-0.1-0.5-0.1-0.8-0.2v-1.8c0.4,0.1,0.8,0.2,1.2,0.3c0.2,0,0.3,0.1,0.5,0.1C33.1,37.8,33.2,37.8,33.2,37.8z"/>
			<path class="st0" d="M33.2,37.7L33.2,37.7c0,0.1-0.1,0.1-0.2,0.1c-0.1,0-0.3-0.1-0.5-0.2c-0.4-0.1-0.8-0.2-1.2-0.3v-3.9v-0.1
				l0.9-0.9l0.9,0.9V37.7z"/>
			<polygon class="st0" points="33.2,33.2 33.2,33.3 32.3,32.4 			"/>
			<path class="st0" d="M33.2,30.7v2.5l-0.9-0.8l-0.9,0.9v-2.5v-0.1l0.1-0.1v0.2l0.3-0.3c0.1-0.2,0.4-0.3,0.6-0.3
				c0.2,0,0.4,0.1,0.6,0.3L33.2,30.7z"/>
			<path class="st0" d="M33.2,14.1v16.6L33,30.5l-0.1-0.1c-0.1-0.2-0.4-0.3-0.6-0.3s-0.4,0.1-0.6,0.3l-0.2,0.2V14.2
				c0.4,0,0.8,0,1.1,0C32.8,14.1,33,14.1,33.2,14.1z"/>
			<path class="st0" d="M33.2,62.3L33.2,62.3c0,0.1,0,0.1-0.1,0.1v-0.2C33.1,62.2,33.2,62.3,33.2,62.3z"/>
			<path class="st0" d="M33.2,64.9L33.1,94H33c0-0.1,0-0.1,0-0.2c0-0.2-0.1-0.4-0.3-0.4L31.4,92v0.1L31.3,92l0.1-28.4h0.4
				c0,0,0,0,0.1,0.1l0.6,0.5L33.2,64.9z"/>
			<path class="st0" d="M33.2,14.1c-0.2,0-0.4,0-0.7,0c-0.4,0-0.8,0-1.1,0c0-0.5,0.4-0.9,0.9-0.9c0,0,0.1,0,0.1,0v0.1
				c0.2,0,0.4,0.1,0.6,0.2C33.1,13.7,33.2,13.9,33.2,14.1z"/>
			<path class="st0" d="M33.2,39.7c0,0-0.1,0-0.1,0v0C33.1,39.7,33.2,39.7,33.2,39.7z"/>
			<path class="st0" d="M33.2,62.3c0,0-0.1,0-0.1-0.1v0C33.1,62.2,33.2,62.3,33.2,62.3z"/>
			<path class="st0" d="M33.2,62.4l-0.1,1.1H32c-0.3-0.4-0.3-0.9,0.1-1.2c0.1-0.1,0.3-0.2,0.4-0.2c0,0,0.1,0,0.1,0s0.1,0,0.1,0
				c0.1,0,0.2,0,0.3,0.1L33.2,62.4C33.2,62.4,33.2,62.4,33.2,62.4z"/>
			<path class="st0" d="M33.1,108.8v19.9c0-0.2-0.1-0.4-0.2-0.5c0-0.1,0-0.2,0-0.2l-1.5-1.5v0.2l-0.1-0.1v-19.7h0.2
				c0,0.2,0.1,0.5,0.3,0.6L33.1,108.8z"/>
			<path class="st0" d="M33.1,106.3v2.4l-1.3-1.3c-0.2-0.2-0.3-0.4-0.3-0.6c0-0.1,0-0.1,0-0.2c0-0.2,0.1-0.3,0.3-0.4
				c0.1,0,0.1-0.1,0.2-0.1s0.1,0,0.2-0.1c0.1,0,0.1,0,0.2-0.1c0.1,0,0.2,0,0.3,0c0.2,0,0.3,0.1,0.5,0.2V106.3z"/>
			<path class="st0" d="M33.1,94v12.2c-0.1-0.1-0.3-0.2-0.5-0.2c-0.1,0-0.2,0-0.3,0c-0.1,0-0.1,0-0.2,0.1c0,0-0.1,0-0.2,0.1
				c0,0-0.1,0.1-0.2,0.1c-0.1,0.1-0.2,0.3-0.3,0.4c0,0.1,0,0.1,0,0.2h-0.2V94.5l0.1,0.1c0.2,0.2,0.4,0.3,0.6,0.3c0,0,0,0,0,0
				c0,0,0,0,0,0c0.2,0,0.4-0.1,0.6-0.3C32.9,94.5,33,94.2,33.1,94L33.1,94z"/>
			<path class="st0" d="M33,160.1v0.9c0,0.2-0.1,0.4-0.2,0.6c-0.1,0.1-0.4,0.2-0.6,0.2c0.1,0,0.2,0,0.3,0c-0.1,0.1-0.3,0.1-0.4,0.1
				c-0.1,0-0.3,0-0.4-0.1c0.1,0,0.3,0,0.4,0c-0.5,0-0.9-0.4-0.9-0.9v-0.8V160c0,0,0.1,0,0.1,0v0.1c0.4,0,0.9,0,1.3,0
				C32.7,160.1,32.8,160.1,33,160.1C33,160.1,33,160.1,33,160.1z"/>
			<path class="st0" d="M33,145.3v14.8c0,0,0,0,0,0c-0.2,0-0.3,0-0.5-0.1c-0.4,0-0.8,0-1.2,0v-6.9h0.2c0.5,0,0.9-0.4,0.9-0.9
				s-0.4-0.9-0.9-0.9h-0.2v-6c0.4,0,0.9,0,1.3,0C32.7,145.3,32.9,145.3,33,145.3z"/>
			<path class="st0" d="M33,143.5v1.8c-0.1,0-0.3,0-0.4,0c-0.4,0-0.9,0-1.3,0v-1.8c0.4,0,0.8,0,1.2,0
				C32.7,143.5,32.9,143.5,33,143.5z"/>
			<path class="st0" d="M33,141v2.4c-0.2,0-0.3,0-0.5,0c-0.4,0-0.9,0-1.3,0v-4h0.1h0.3l1.3,1.3v0.2L33,141z"/>
			<polygon class="st0" points="33,140.8 33,141 32.9,140.9 32.9,140.7 			"/>
			<polygon class="st0" points="33,139.4 33,140.8 32.9,140.7 32.9,139.4 			"/>
			<polygon class="st0" points="33,138.3 33,139.4 32.9,139.4 31.6,139.4 31.5,139.3 31.3,139.1 31.3,137.6 32.3,137.6 			"/>
			<polygon class="st0" points="33,137.6 33,138.3 32.3,137.6 			"/>
			<path class="st0" d="M33,128.7v8.9h-0.7l-1-1.1v-7.3v-0.1l0.2,0.2c0.2,0.2,0.4,0.3,0.6,0.3c0,0,0,0,0.1,0c0,0,0,0,0,0
				c0.2,0,0.4-0.1,0.6-0.3c0.1-0.2,0.2-0.3,0.2-0.4C33,128.8,33,128.7,33,128.7z"/>
			<path class="st0" d="M33,93.8c0,0.1,0,0.1,0,0.2h-0.1c0,0.2-0.1,0.4-0.3,0.6c-0.1,0.2-0.3,0.3-0.5,0.3c-0.2,0-0.5-0.1-0.5-0.3
				l-0.1-0.1v-2.4l1.3,1.3C32.8,93.5,32.9,93.7,33,93.8z"/>
			<path class="st0" d="M33,128.7c0,0.1,0,0.1,0,0.2c0,0.1-0.1,0.3-0.3,0.4c-0.1,0.2-0.4,0.3-0.5,0.3c-0.2,0-0.5-0.1-0.6-0.3
				l-0.2-0.2v-2.4l1.4,1.4c0,0,0.1,0.1,0.1,0.1C33,128.4,33,128.6,33,128.7z"/>
			<path class="st0" d="M32.9,30.4l0.1,0.1c-0.2-0.2-0.4-0.3-0.6-0.3c-0.2,0-0.5,0.1-0.6,0.3l-0.3,0.3v-0.2l0.2-0.2
				c0.2-0.2,0.4-0.3,0.6-0.3S32.8,30.2,32.9,30.4z"/>
			<path class="st0" d="M32.9,94L32.9,94c0.1,0.2,0,0.5-0.2,0.6c-0.2,0.2-0.4,0.3-0.6,0.3c0,0,0,0,0,0c0.2,0,0.5-0.1,0.5-0.3
				C32.8,94.4,32.9,94.2,32.9,94z"/>
			<path class="st0" d="M33,160.1c-0.2,0-0.3,0-0.4,0c-0.4,0-0.9,0-1.3,0V160c0.4,0,0.8,0,1.2,0C32.7,160.1,32.8,160.1,33,160.1z"/>
			<path class="st0" d="M32.9,128.2c0-0.1-0.1-0.1-0.1-0.1l-1.4-1.4v-0.2l1.5,1.5C32.9,128.1,32.9,128.1,32.9,128.2z"/>
			<polygon class="st0" points="32.9,139.4 32.9,140.7 31.6,139.4 			"/>
			<path class="st0" d="M33,128.8c0,0.1-0.1,0.3-0.2,0.4c-0.2,0.2-0.4,0.3-0.6,0.3c0,0,0,0,0,0c0.2,0,0.5-0.1,0.5-0.3
				C32.8,129.1,32.9,129,33,128.8z"/>
			<path class="st0" d="M32.6,37.6c0.2,0.1,0.3,0.2,0.5,0.2c-0.1,0-0.3-0.1-0.5-0.1c-0.4-0.1-0.8-0.2-1.2-0.3v-0.1
				C31.8,37.4,32.2,37.5,32.6,37.6z"/>
			<polygon class="st0" points="31.4,92 32.7,93.4 31.4,92.1 			"/>
			<path class="st0" d="M32.7,62.1c0,0-0.1,0-0.1,0C32.6,62.1,32.6,62.1,32.7,62.1z"/>
			<path class="st0" d="M32.8,161.6c-0.1,0.1-0.2,0.2-0.3,0.2c-0.1,0-0.2,0-0.3,0C32.4,161.8,32.6,161.7,32.8,161.6z"/>
			<path class="st0" d="M33,13.5c-0.1-0.1-0.4-0.2-0.6-0.2v-0.1C32.6,13.2,32.8,13.3,33,13.5z"/>
			<path class="st0" d="M32.3,106c-0.1,0-0.1,0-0.2,0.1C32.2,106,32.2,106,32.3,106z"/>
			<path class="st0" d="M32.3,12.4v0.8c-0.5,0-0.9,0.4-0.9,0.9C20.8,14,6.6,12.7,1.8,9.5V7.1h0.1c0,0.4,0.5,0.9,1.5,1.4c0,0,0,0,0,0
				C6.8,10.3,16.6,12.4,32.3,12.4z"/>
			<path class="st0" d="M32.3,12.3v0.1c-15.7,0-25.5-2.1-28.9-3.9C7,10.2,16.8,12.3,32.3,12.3z"/>
			<polygon class="st0" points="31.3,136.5 32.3,137.6 31.3,137.6 			"/>
			<path class="st0" d="M32.5,62.1c-0.2,0-0.3,0.1-0.4,0.2c-0.4,0.3-0.4,0.8-0.1,1.2h-0.1c-0.3-0.4-0.2-0.9,0.1-1.2
				C32.1,62.2,32.3,62.1,32.5,62.1z"/>
			<path class="st0" d="M32.1,106c-0.1,0-0.1,0-0.2,0.1C32,106.1,32.1,106,32.1,106z"/>
			<path class="st0" d="M32.1,161.8c-0.1,0-0.3,0-0.4,0c-0.3-0.2-0.5-0.4-0.5-0.8v-0.1C31.2,161.4,31.6,161.8,32.1,161.8z"/>
			<path class="st0" d="M31.5,151.3c0.5,0,0.9,0.4,0.9,0.9s-0.4,0.9-0.9,0.9h-0.2v-1.8H31.5z"/>
			<polygon class="st0" points="31.6,139.4 31.3,139.4 31.3,139.3 31.5,139.3 			"/>
			<path class="st0" d="M31.5,106.6c0-0.2,0.1-0.4,0.3-0.4C31.6,106.3,31.6,106.5,31.5,106.6z"/>
			<polygon class="st0" points="31.5,139.3 31.3,139.3 31.3,139.1 			"/>
			<polygon class="st0" points="31.4,61.8 31.4,63.6 31.3,63.6 3.2,63.5 2.3,62.6 3.2,61.7 			"/>
			<path class="st0" d="M31.4,39.2L31.4,39.2c-1.6-0.3-3.2-0.7-4.8-1l1.5-1.5c1.1,0.2,2.2,0.4,3.3,0.7V39.2z"/>
			<path class="st0" d="M31.4,33.3L31.4,33.3l-3.3,3.4c0,0-0.1,0-0.1,0l0.1-0.1c-0.7-0.1-1.4-0.3-2-0.5l5.3-5.3V33.3z"/>
			<polygon class="st1" points="31.4,63.6 31.3,92 31.3,63.6 			"/>
			<path class="st1" d="M31.3,145.3v6h-0.1H2.6c0.1-0.1,0.2-0.2,0.3-0.3c2.4-2.2,9.4-4.4,19.2-5.3C24.9,145.5,28,145.3,31.3,145.3
				C31.2,145.3,31.3,145.3,31.3,145.3z"/>
			<path class="st0" d="M31.3,143.5v1.8c0,0-0.1,0-0.1,0L31.3,143.5C31.2,143.5,31.3,143.5,31.3,143.5z"/>
			<rect x="31.2" y="139.3" class="st0" width="0.1" height="0.1"/>
			<polygon class="st0" points="31.3,139.1 31.3,139.3 31.2,139.3 31.2,139.4 1.8,139.4 1.8,137.6 29.8,137.6 			"/>
			<polygon class="st0" points="31.3,137.6 31.3,139.1 29.8,137.6 			"/>
			<polygon class="st0" points="31.3,136.5 31.3,137.6 29.8,137.6 1.8,109.6 1.8,107.1 			"/>
			<path class="st0" d="M31.3,129.1L31.3,129.1L1.8,99.7v-2.1c0,0,0.1,0,0.1,0v-0.1c0.2,0,0.3,0.1,0.5,0.2l28.9,28.9V129.1z"/>
			<polygon class="st0" points="31.3,92 31.3,94.5 1.9,64.7 1.8,64.6 1.8,63.5 3.2,63.5 			"/>
			<polygon class="st1" points="31.3,63.6 31.3,92 3.2,63.5 			"/>
			<path class="st0" d="M31.2,161c0,0.4,0.2,0.6,0.5,0.8c-15.5-0.1-31.6-3.4-31.6-9.2c0,0,0-0.1,0-0.1c0.2,0.2,0.4,0.3,0.6,0.4
				c0.1,0.1,0.4,0.2,0.6,0.2H2c0.9,3.3,12.6,6.8,29.2,7v0.8V161z"/>
			<path class="st2" d="M31.2,160v0.1c-16.6-0.2-28.3-3.7-29.2-7h0C3.1,156.4,14.8,159.8,31.2,160z"/>
			<path class="st1" d="M31.2,153.1v6.9c-16.4-0.2-28.1-3.6-29.2-6.9h0.1H31.2z"/>
			<path class="st0" d="M31.2,151.3v1.8H2.1C2,153,2,152.8,2,152.7c0-0.5,0.2-0.9,0.6-1.4H31.2z"/>
			<path class="st0" d="M31.2,143.5v1.8c-3.2,0-6.3,0.2-9.1,0.4c-9.8,0.9-16.9,3-19.2,5.3c-0.1,0.1-0.2,0.2-0.3,0.3H2.5H1.8v-1.7
				C6.2,145.7,18.8,143.6,31.2,143.5z"/>
			<path class="st0" d="M28.1,36.6L28.1,36.6c-0.8-0.1-1.4-0.3-2.1-0.4l0.1-0.1C26.8,36.3,27.4,36.5,28.1,36.6z"/>
			<path class="st0" d="M28,36.7l-1.4,1.4c-0.7-0.2-1.4-0.3-2-0.4l1.4-1.5C26.7,36.3,27.4,36.5,28,36.7z"/>
			<path class="st0" d="M26.6,38.1L3.2,61.7H1.8v-1v-0.1l22.6-22.8c0,0,0.1,0,0.1,0l0.1-0.1C25.2,37.8,25.9,38,26.6,38.1z"/>
			<path class="st0" d="M26.1,36.1L26.1,36.1c-0.1,0.1-0.1,0.1-0.2,0.1L26.1,36.1C26,36.1,26,36.1,26.1,36.1z"/>
			<path class="st0" d="M26,36.2l-1.4,1.5c0,0,0,0-0.1,0L26,36.2C26,36.2,26,36.2,26,36.2z"/>
			<path class="st0" d="M25.9,36.2l-1.4,1.5l-0.1,0.1c-2.2-0.4-4.4-0.6-6.6-0.6c-5.4,0.1-12.4,1.4-16,4.4v-0.1v-2.1
				c2-1.3,4.4-2.2,7-2.8c3.1-0.8,6.4-1.1,9-1.1h0.3C20.8,35.3,23.4,35.6,25.9,36.2z"/>
			<path class="st0" d="M24.6,37.7L24.6,37.7c-0.1,0.1-0.1,0.1-0.2,0.1L24.6,37.7C24.5,37.7,24.5,37.7,24.6,37.7z"/>
			<path class="st2" d="M22.1,145.7c-9.8,0.9-16.8,3-19.2,5.3C5.2,148.8,12.2,146.6,22.1,145.7z"/>
			<polygon class="st0" points="3.2,61.7 2.3,62.6 3.2,63.5 1.8,63.5 1.8,61.8 1.8,61.7 			"/>
			<path class="st2" d="M2.9,151c-0.1,0.1-0.2,0.2-0.3,0.3C2.7,151.2,2.8,151.1,2.9,151z"/>
			<path class="st0" d="M2.5,151.3L2.5,151.3c-0.3,0.5-0.5,0.9-0.5,1.4c0,0.1,0,0.3,0.1,0.4H2c0,0,0-0.1,0-0.1h0
				c0-0.1-0.1-0.2-0.1-0.3C1.9,152.3,2.1,151.8,2.5,151.3z"/>
			<path class="st0" d="M1.8,151.3h0.7c-0.4,0.5-0.6,1-0.6,1.4c0,0.1,0.1,0.2,0.1,0.3H1.3c-0.1,0-0.3,0-0.4-0.1
				c0.5,0,0.9-0.4,0.9-0.9V151.3z"/>
			<path class="st0" d="M2,153c0,0,0,0.1,0,0.1h0C2,153.1,2,153,2,153L2,153z"/>
			<path class="st0" d="M2,153.1H1.3c-0.2,0-0.5-0.1-0.6-0.2c0.1,0,0.1,0,0.2,0h0C1,153,1.2,153,1.3,153H2C2,153,2,153.1,2,153.1z"
				/>
			<path class="st0" d="M1.9,97.5L1.9,97.5c0,0.1-0.1,0.1-0.1,0.1v-0.1C1.8,97.5,1.9,97.5,1.9,97.5z"/>
			<path class="st0" d="M1.9,64.7v32.8c0,0-0.1,0-0.1,0c-0.2-0.1-0.5,0-0.7,0.2c-0.3,0.4-0.3,0.9,0,1.2c0,0.1,0.1,0.2,0.1,0.2
				l0.6,0.5v7.4L1.7,107c0,0-0.1-0.1-0.1-0.1c-0.1,0-0.1-0.1-0.1-0.1c-0.1,0-0.1-0.1-0.2-0.1c0,0,0,0,0,0c-0.3-0.1-0.6,0-0.9,0.3
				c-0.2,0.2-0.3,0.4-0.3,0.7H0v-45h0.2c0,0.3,0.2,0.6,0.5,0.8l1.1,1.1L1.9,64.7z"/>
			<path class="st0" d="M1.8,151.3v0.7c0,0.5-0.4,0.9-0.9,0.9h0c-0.1,0-0.1-0.1-0.2-0.1c0,0-0.1,0-0.1,0c-0.1-0.2-0.2-0.3-0.2-0.6
				c0-0.5,0.4-0.9,0.9-0.9H1.8z"/>
			<path class="st0" d="M1.8,149.6v1.7H1.3c-0.5,0-0.9,0.4-0.9,0.9c0,0.2,0.1,0.4,0.2,0.6c-0.2,0-0.4-0.2-0.5-0.4
				c0-0.2,0.1-0.5,0.2-0.7C0.5,150.9,1,150.3,1.8,149.6z"/>
			<path class="st0" d="M1.8,139.4v10.2c-0.8,0.6-1.3,1.3-1.5,2.1c-0.1,0.2-0.1,0.5-0.2,0.7c0,0,0,0,0,0c0,0,0,0,0,0.1
				c0-0.2-0.1-0.3-0.1-0.5v-13.5h0.1c0,0.1,0,0.2,0.1,0.4c0.1,0.3,0.4,0.5,0.8,0.5H1.8z"/>
			<path class="st0" d="M1.8,137.6v1.8H0.9c-0.4-0.1-0.6-0.3-0.8-0.5c0-0.1-0.1-0.2-0.1-0.4v-0.1c0-0.1,0-0.2,0.1-0.3
				c0.1-0.2,0.4-0.4,0.7-0.5H1.8z"/>
			<path class="st0" d="M1.8,109.7v27.9H0.9c-0.3,0-0.6,0.2-0.7,0.5c0,0.1-0.1,0.2-0.1,0.3v0.1H0v-30.8h0.1h0.1c0,0.2,0,0.4,0.2,0.6
				l0,0L1.8,109.7z"/>
			<polygon class="st0" points="1.8,109.6 1.8,109.7 0.4,108.3 			"/>
			<path class="st0" d="M1.8,107.1v2.5l-1.3-1.2l0,0c-0.1-0.1-0.2-0.4-0.2-0.6c0-0.2,0.1-0.5,0.3-0.7c0.2-0.2,0.5-0.3,0.8-0.3
				c0,0,0,0,0,0c0.1,0,0.1,0,0.2,0.1c0,0,0.1,0.1,0.1,0.1C1.6,106.9,1.7,107,1.8,107.1L1.8,107.1z"/>
			<path class="st0" d="M1.8,97.6v2.1L1.1,99c0,0,0,0,0-0.1c-0.1-0.3-0.1-0.7,0.1-1C1.4,97.7,1.6,97.6,1.8,97.6z"/>
			<path class="st0" d="M1.8,97.5v0.1c-0.2,0-0.4,0.1-0.6,0.3c-0.2,0.3-0.3,0.7-0.1,1c-0.3-0.3-0.2-0.9,0-1.2
				C1.3,97.5,1.6,97.4,1.8,97.5z"/>
			<path class="st0" d="M1.8,63.5v1.1l-1.1-1.1l-0.1-0.1c0.1,0.1,0.2,0.1,0.3,0.1c0.1,0,0.1,0,0.2,0H1.8z"/>
			<path class="st0" d="M1.8,61.8v1.7H1.1c-0.1,0-0.2,0-0.2,0c-0.1,0-0.1,0-0.2-0.1l-0.2-0.2c-0.3-0.4-0.3-0.9,0-1.2l0.1-0.1
				c0.1,0,0.2-0.1,0.2-0.1c0.1,0,0.1,0,0.2,0H1.8z"/>
			<path class="st0" d="M1.8,61.7L1.8,61.7l-0.7,0.1c-0.1,0-0.2,0-0.2,0c-0.1,0-0.2,0-0.2,0.1l1.2-1.2V61.7z"/>
			<path class="st0" d="M1.8,60.6v0.1l-1.2,1.2c0,0-0.1,0-0.1,0l0.1-0.1c-0.1,0.1-0.1,0.1-0.2,0.2c-0.1,0.1-0.2,0.2-0.2,0.4
				c0,0,0,0,0,0c0,0,0,0,0,0c0,0,0,0,0,0c0,0,0,0.1,0,0.1c0,0,0,0,0,0c0,0,0,0,0,0v0c0,0,0,0,0,0.1H0V40.9h0.2
				c0,0.2,0.1,0.4,0.2,0.6c0.4,0.3,1,0.4,1.4,0v0.1V60.6z"/>
			<path class="st0" d="M1.8,39.4v2.1c0,0,0,0-0.1,0c-0.4,0.3-1,0.3-1.3-0.1c-0.1-0.2-0.2-0.3-0.2-0.5h0.1c0-0.3,0.1-0.5,0.3-0.7
				C1,39.9,1.4,39.6,1.8,39.4L1.8,39.4z"/>
			<path class="st0" d="M1.8,9.6v29.7c-0.4,0.2-0.9,0.5-1.3,0.8c-0.2,0.2-0.3,0.4-0.3,0.7c0,0,0,0.1,0,0.1h0H0v-34
				c0-0.3,0.1-0.5,0.3-0.7C0.2,6.4,0.2,6.6,0.1,6.9c0,0.1,0,0.2,0,0.2c0,0.3,0.1,0.7,0.2,1C0.6,8.6,1.1,9.1,1.8,9.6z"/>
			<path class="st0" d="M1.8,9.5v0.1c-0.7-0.5-1.2-1-1.4-1.5C0.6,8.6,1.1,9.1,1.8,9.5z"/>
			<path class="st0" d="M1.8,7.1v2.4C1.1,9.1,0.6,8.6,0.3,8.1c-0.2-0.3-0.2-0.6-0.2-1c0-0.1,0-0.2,0-0.2c0-0.2,0.1-0.3,0.2-0.6
				C0.4,6.1,0.7,6,0.9,6c0.5,0,0.9,0.4,0.9,0.9V7.1z"/>
			<path class="st0" d="M1.8,39.3c-0.4,0.3-0.8,0.6-1.2,0.9c-0.2,0.2-0.3,0.4-0.3,0.7H0.2c0,0,0-0.1,0-0.1c0-0.3,0.1-0.5,0.3-0.7
				C0.9,39.8,1.4,39.5,1.8,39.3z"/>
			<path class="st0" d="M1.7,107c0,0-0.1-0.1-0.1-0.1C1.6,106.9,1.7,107,1.7,107z"/>
			<path class="st0" d="M0.9,152.9c-0.1,0-0.1,0-0.2,0c0,0-0.1-0.1-0.1-0.1c0,0,0.1,0,0.1,0C0.8,152.8,0.8,152.9,0.9,152.9z"/>
			<path class="st0" d="M0.9,61.8c-0.1,0-0.2,0-0.2,0.1C0.7,61.8,0.8,61.8,0.9,61.8z"/>
			<path class="st0" d="M0.6,152.8c0,0,0.1,0.1,0.1,0.1c-0.2-0.1-0.4-0.2-0.6-0.4c0,0,0-0.1,0-0.1C0.2,152.6,0.4,152.7,0.6,152.8z"
				/>
			<path class="st0" d="M0.5,63.2l0.2,0.2c-0.2-0.2-0.4-0.3-0.5-0.6C0.3,62.9,0.4,63.1,0.5,63.2z"/>
			<path class="st0" d="M0.6,61.8l-0.1,0.1c0,0-0.1,0-0.1,0.1C0.5,61.9,0.5,61.9,0.6,61.8z"/>
			<path class="st0" d="M0.5,61.9L0.5,61.9c-0.1,0.1-0.2,0.2-0.2,0.3C0.3,62.2,0.4,62.1,0.5,61.9C0.5,62,0.5,61.9,0.5,61.9z"/>
			<path class="st0" d="M0.3,151.7c0.2-0.8,0.8-1.5,1.5-2.1C1,150.3,0.5,150.9,0.3,151.7z"/>
			<path class="st0" d="M0.2,138.1c0.1-0.3,0.4-0.5,0.7-0.5C0.6,137.7,0.3,137.9,0.2,138.1z"/>
			<path class="st0" d="M0.2,62.4C0.2,62.4,0.2,62.4,0.2,62.4C0.2,62.4,0.2,62.4,0.2,62.4z"/>
			<path class="st0" d="M0.2,62.6c0,0,0-0.1,0-0.1C0.2,62.5,0.2,62.5,0.2,62.6z"/>
			<path class="st0" d="M0.2,107.7c0,0.2,0.1,0.5,0.2,0.6C0.2,108.1,0.2,107.9,0.2,107.7z"/>
			<path class="st0" d="M0.2,62.6C0.2,62.6,0.2,62.7,0.2,62.6C0.2,62.7,0.2,62.7,0.2,62.6L0.2,62.6z"/>
			<path class="st0" d="M0.2,62.6C0.2,62.6,0.2,62.6,0.2,62.6C0.2,62.6,0.2,62.6,0.2,62.6C0.2,62.6,0.2,62.6,0.2,62.6z"/>
			<path class="st0" d="M0.1,152.4C0.1,152.4,0.1,152.5,0.1,152.4C0.1,152.4,0.1,152.4,0.1,152.4C0.1,152.4,0.1,152.4,0.1,152.4z"/>
		</g>
		<g>
		</g>
	</g>
</g>
</svg>
