<?xml version="1.0" encoding="utf-8"?>
<!-- Generator: Adobe Illustrator 25.4.1, SVG Export Plug-In . SVG Version: 6.00 Build 0)  -->
<svg version="1.1" id="Layer_1" xmlns="http://www.w3.org/2000/svg" xmlns:xlink="http://www.w3.org/1999/xlink" x="0px" y="0px"
	 viewBox="0 0 150.9 262.9" style="enable-background:new 0 0 150.9 262.9;" xml:space="preserve">
<style type="text/css">
	.st0{fill:#FEE12B;}
	.st1{fill:#FFFFFF;}
</style>
<g id="Layer_1-2">
	<g id="XMLID_00000154412200746283370910000014351829367054239922_">
		<g>
			<path class="st0" d="M27.8,52.7l0,2.1H19C21.8,53.9,24.8,53.2,27.8,52.7z"/>
			<path class="st0" d="M59.6,54.8h-30l0-2.4c5.7-0.8,11.8-0.8,18.3,0C51.8,52.8,55.7,53.7,59.6,54.8z"/>
			<path class="st0" d="M136.2,73.6h-20.9l3.7-2.7c9.2-0.6,21.1-3.6,27.4-13.9c1.7,6.3,2.6,11.8,2.8,16.6H136.2z"/>
			<path class="st0" d="M112.2,73.6H76.1V60.8c0.5,0.2,1,0.4,1.5,0.6c10.4,4.2,21.1,8.5,32.4,9.4c1.4,0.1,3.1,0.2,5,0.2
				c0.2,0,0.5,0,0.8,0L112.2,73.6z"/>
			<path class="st0" d="M41,86.9l0.4,2c0,2.9-2.3,5.2-5.2,5.2c-2.9,0-5.2-2.3-5.2-5.2s2.3-5.2,5.2-5.2c1.5,0,2.8,0.6,3.7,1.5
				c0,0,0.1,0.1,0.1,0.1L36.4,88c-0.4,0.3-0.5,0.8-0.2,1.2c0.1,0.3,0.4,0.4,0.7,0.4c0.2,0,0.4-0.1,0.6-0.1L41,86.9z"/>
			<path class="st1" d="M149.3,75.4c0-0.6,0-1.2,0-1.8h0.3c0.5,0,0.9,0.4,0.9,0.9s-0.4,0.9-0.9,0.9H149.3z"/>
			<path class="st1" d="M145.6,89.1c1.2-1.7,2.1-3.6,2.7-5.7c0.7-2.3,1-5,1-8h0.3c0.5,0,0.9-0.4,0.9-0.9s-0.4-0.9-0.9-0.9h-0.3
				c-0.2-4.8-1.1-10.3-2.8-16.6c0.3-0.5,0.6-1,0.9-1.6c0.1-0.2,0.1-0.4,0.1-0.6l0.3-0.1c2.8,9.8,4.7,21,2.3,29.3
				c-0.7,2.5-1.8,4.8-3.3,6.7l-0.5-0.4c0.1-0.1,0.1-0.2,0.1-0.3C146.4,89.5,146,89.1,145.6,89.1z"/>
			<path class="st1" d="M147.4,55.4c-0.3,0.6-0.6,1.1-0.9,1.6c-0.2-0.8-0.4-1.6-0.7-2.4c0.2-0.4,0.8-0.6,1.2-0.4
				c0.2,0.1,0.4,0.3,0.4,0.6C147.5,55,147.5,55.2,147.4,55.4z"/>
			<path class="st1" d="M145.6,89.1c0.5,0,0.8,0.4,0.8,0.9c0,0.1,0,0.2-0.1,0.3c-0.1,0.3-0.4,0.6-0.8,0.6h-1.3
				C144.7,90.3,145.1,89.7,145.6,89.1z"/>
			<path class="st1" d="M146.5,57c-6.3,10.3-18.2,13.3-27.4,13.9l0.2-0.2c0.4-0.3,0.5-0.9,0.2-1.3c-0.1-0.1-0.2-0.2-0.3-0.3
				c9.2-0.7,21-3.7,26.7-14.5c0,0,0,0,0,0C146.1,55.4,146.3,56.2,146.5,57z"/>
			<path class="st1" d="M145.5,89.1C145.5,89.1,145.6,89.1,145.5,89.1c-0.4,0.6-0.8,1.2-1.3,1.8h-28.1v-0.2l2.2-1.6H145.5z"/>
			<path class="st1" d="M147,54.2c-0.4-0.2-1,0-1.2,0.4c-1.6-5.7-3.8-11.9-6.5-18.7c-0.2-0.6-0.4-1-0.5-1.3c1-0.5,1-1,1-1.4
				c0-0.2,0-0.5-0.2-0.8c0.3,0.1,0.5,0.4,0.6,0.8c0.1,0.2,0.4,1.1,0.8,2.1c1.5,3.8,4.4,11.1,6.8,19.4l-0.3,0.1
				C147.4,54.5,147.2,54.3,147,54.2z"/>
			<path class="st1" d="M139.8,33.2c0,0.4,0,0.9-1,1.4c-0.4-0.9-0.4-1.1-0.4-1.3c0-0.5,0.4-0.9,0.9-0.9c0.1,0,0.2,0,0.3,0.1
				C139.8,32.7,139.8,33,139.8,33.2z"/>
			<path class="st1" d="M137.5,14.3l-17.8,13.4v-0.3l2.8-4.1l13.9-10.5c0.4-0.3,1-0.2,1.3,0.2C138,13.4,137.9,14,137.5,14.3z"/>
			<path class="st1" d="M136.2,73.6h13c0,0.6,0,1.2,0,1.8h-12.6l0.1-0.1c0.4-0.3,0.5-0.9,0.2-1.3C136.8,73.8,136.5,73.6,136.2,73.6
				L136.2,73.6z"/>
			<path class="st1" d="M133.6,75.4l2.1-1.6c0.2-0.1,0.4-0.2,0.5-0.2c0.3,0,0.6,0.1,0.8,0.4c0.3,0.4,0.2,1-0.2,1.3l-0.1,0.1h0H133.6
				z"/>
			<polygon class="st1" points="136.7,75.4 118.2,89.1 116.1,89.1 116.1,88.4 133.6,75.4 			"/>
			<path class="st1" d="M135.7,73.8l-2.1,1.6h-20.7l2.4-1.8h20.9v0C136.1,73.6,135.9,73.7,135.7,73.8z"/>
			<polygon class="st1" points="119.7,25.4 122.5,23.3 119.7,27.4 			"/>
			<path class="st1" d="M120.4,29c15.2,1.2,18.5,2.5,19.2,3.5c-0.1,0-0.2-0.1-0.3-0.1c-0.5,0-0.9,0.4-0.9,0.9c0,0.2,0.1,0.4,0.4,1.3
				c-1.7,0.9-6.2,2-18.4,2.9c-0.3,0-0.6,0-0.9,0.1l0-1.9c10.2-0.7,16.4-1.7,18.1-2.4c-1.8-0.8-8-1.8-18.1-2.5l0-1.8
				C119.9,29,120.2,29,120.4,29z"/>
			<path class="st1" d="M118,26.6l1.7-2.5l0,1.2L118,26.6C118,26.6,118,26.6,118,26.6z"/>
			<path class="st1" d="M118.2,28.8l1.5-1.1l0,1.2C119.2,28.9,118.7,28.9,118.2,28.8z"/>
			<path class="st1" d="M119.6,30.7l-0.1,4.9c-0.6,0-1.2,0.1-1.8,0.1l0-5.2C118.4,30.6,119,30.7,119.6,30.7z"/>
			<path class="st1" d="M119.5,41.1c0,0.1,0,0.2,0,0.3V41.1z"/>
			<path class="st1" d="M119.4,41.6c0-0.1,0.1-0.1,0.1-0.2c0,0.2-0.1,0.4-0.2,0.5C119.4,41.8,119.4,41.7,119.4,41.6z"/>
			<path class="st1" d="M118.1,14.5c-0.3-0.3-0.4-0.7-0.2-1l0.5-0.4c0.3-0.2,0.6-0.2,0.9-0.1c0.3,0.2,0.5,0.5,0.5,0.8v0.4l-0.4,0.3
				C119,14.9,118.5,14.9,118.1,14.5z"/>
			<path class="st1" d="M119.1,70.9l-3.7,2.7h-3.1l3.5-2.6C116.8,71,117.9,70.9,119.1,70.9z"/>
			<path class="st1" d="M119.5,37.6c-0.6,0.1-1.2,0.1-1.8,0.1l0-1.9c0.6,0,1.2-0.1,1.8-0.1L119.5,37.6z"/>
			<path class="st1" d="M119.6,30.7c-0.6,0-1.2-0.1-1.8-0.1l0-1.5l0.4-0.3c0.5,0,1,0.1,1.5,0.1L119.6,30.7z"/>
			<path class="st1" d="M118.2,69.2c0.3-0.2,0.6-0.2,0.9-0.1C118.8,69.1,118.5,69.2,118.2,69.2z"/>
			<path class="st1" d="M118.8,42.5L99.3,56.7c0.2-0.2,0.4-0.4,0.4-0.8l0-1.9l16.1-11.7l2.3-0.3c0.1,0.1,0.3,0.1,0.5,0.1
				c0.3,0,0.6-0.2,0.8-0.4c0,0.1-0.1,0.3-0.2,0.4C119,42.4,118.9,42.5,118.8,42.5z"/>
			<path class="st1" d="M118.1,42.2l0.6-0.1c0.3-0.1,0.6-0.2,0.7-0.5c0,0.1,0,0.2-0.1,0.2c-0.2,0.2-0.4,0.4-0.8,0.4
				C118.4,42.3,118.3,42.2,118.1,42.2z"/>
			<path class="st1" d="M117.7,40.4l0-2.7c0.6,0,1.2-0.1,1.8-0.1l0,3.5c-0.1-0.5-0.5-0.9-1-0.8L117.7,40.4z"/>
			<path class="st1" d="M118.3,27.8c-0.4-0.3-0.5-0.8-0.3-1.1l1.7-1.3l0,2l-0.2,0.2c-0.1,0.3-0.4,0.4-0.7,0.4
				C118.6,28,118.4,27.9,118.3,27.8z"/>
			<polygon class="st1" points="118.2,89.1 116.1,90.7 116.1,89.1 			"/>
			<path class="st1" d="M118.2,28.8l-0.4,0.3v-0.3C117.9,28.8,118,28.8,118.2,28.8z"/>
			<path class="st1" d="M118.1,42.2l-2.3,0.3l1.9-1.4v0.3C117.7,41.7,117.9,42,118.1,42.2z"/>
			<path class="st1" d="M118.4,13l17.8-12.8c0.4-0.3,1-0.2,1.3,0.2c0.2,0.3,0.2,0.7,0,1l-15,21.9l-2.8,2.1l0-1.2l13.4-19.5
				l-13.3,9.6v-0.4c0-0.3-0.2-0.6-0.5-0.8c-0.3-0.1-0.6-0.1-0.9,0.1l-0.5,0.4c0-0.1,0.1-0.2,0.2-0.3C118.2,13.1,118.3,13.1,118.4,13
				z"/>
			<path class="st1" d="M117.7,41.4v-0.3l0.1-0.1c0.3-0.4,0.9-0.4,1.3,0c0.2,0.2,0.3,0.4,0.3,0.6c-0.2,0.2-0.4,0.4-0.7,0.5l-0.6,0.1
				C117.9,42,117.7,41.7,117.7,41.4z"/>
			<path class="st1" d="M117.9,15.6L101.1,28c-0.9,0-1.9-0.1-2.9-0.1c0-0.1,0.1-0.2,0.3-0.2l19.4-14.2c-0.2,0.3-0.1,0.7,0.2,1
				c0.4,0.4,0.9,0.4,1.3,0l0.4-0.3l-0.1,9.9l-1.7,2.5c0,0,0,0,0,0.1l-0.2,0.1L117.9,15.6z"/>
			<path class="st1" d="M117.8,28.8l0-2l0.2-0.1c-0.2,0.4-0.1,0.9,0.3,1.1c0.1,0.1,0.3,0.2,0.5,0.2c0.3,0,0.6-0.1,0.7-0.4l0.2-0.2
				v0.3l-1.5,1.1C118,28.8,117.9,28.8,117.8,28.8z"/>
			<path class="st1" d="M117.8,28.8c-0.8-0.1-1.6-0.1-2.5-0.2l2.5-1.9L117.8,28.8z"/>
			<path class="st1" d="M117.8,28.8v0.3l-1.8,1.4c-0.9,0-1.9-0.1-2.9-0.2l2.2-1.6C116.2,28.7,117,28.8,117.8,28.8z"/>
			<path class="st1" d="M117.8,29.1l0,1.5c-0.6,0-1.2-0.1-1.8-0.1L117.8,29.1z"/>
			<path class="st1" d="M117.7,40.4l0.8-0.1c0.5-0.1,0.9,0.3,1,0.8c0,0,0,0,0,0v0.3c0,0,0,0,0,0c0,0.1-0.1,0.2-0.1,0.2
				c0-0.2-0.1-0.4-0.3-0.6c-0.4-0.4-1-0.4-1.3,0l-0.1,0.1L117.7,40.4z"/>
			<path class="st1" d="M117.7,35.8l0,1.9c-3.7,0.2-7.8,0.4-12.2,0.6l2.7-2C111.7,36.1,114.8,36,117.7,35.8z"/>
			<polygon class="st1" points="117.7,40.4 117.7,41.1 115.8,42.4 99.8,44.4 99.8,42.6 99.9,42.6 			"/>
			<path class="st1" d="M115.8,71l2.4-1.8c0,0,0,0,0,0c0.3,0,0.6,0,0.9-0.1c0.1,0.1,0.3,0.2,0.3,0.3c0.3,0.4,0.2,1-0.2,1.3l-0.2,0.2
				C117.9,70.9,116.8,71,115.8,71z"/>
			<path class="st1" d="M116.1,90.9v4.8c0,0.5-0.5,0.9-0.9,0.9c-0.5,0-0.9-0.4-0.9-0.9V92l1.5-1.1H116.1z"/>
			<polygon class="st1" points="116.1,90.7 116.1,90.9 115.8,90.9 			"/>
			<polygon class="st1" points="116.1,89.1 116.1,90.7 115.8,90.9 114.3,90.9 114.3,89.7 115.1,89.1 			"/>
			<polygon class="st1" points="116.1,88.4 116.1,89.1 115.1,89.1 			"/>
			<path class="st1" d="M116.1,84.5v3.9l-1,0.7h-0.8v-4.6c0-0.5,0.4-0.9,0.9-0.9S116.1,84,116.1,84.5z"/>
			<path class="st1" d="M116,30.5l-7.8,5.8c-1.1,0.1-2.2,0.1-3.3,0.1l8.2-6.2C114.1,30.4,115.1,30.4,116,30.5z"/>
			<polygon class="st1" points="115.8,90.9 114.3,92 114.3,90.9 			"/>
			<polygon class="st1" points="115.3,73.6 112.9,75.4 109.8,75.4 112.2,73.6 			"/>
			<path class="st1" d="M115.3,28.7l-2.2,1.6c-4-0.2-8.4-0.4-13.2-0.5l0-0.9l1.2-0.9C106.2,28.2,110.9,28.4,115.3,28.7z"/>
			<polygon class="st1" points="115.1,89.1 114.3,89.7 114.3,89.1 			"/>
			<polygon class="st1" points="114.3,89.7 114.3,90.9 112.7,90.9 			"/>
			<polygon class="st1" points="114.3,89.1 114.3,89.7 112.7,90.9 91.8,90.9 94.3,89.1 			"/>
			<polygon class="st1" points="112.9,75.4 94.3,89.1 92.1,89.1 92.1,88.5 109.8,75.4 			"/>
			<path class="st1" d="M108.2,36.3l-2.7,2c-1.1,0-2.1,0.1-3.2,0.1l2.6-2C106.1,36.4,107.2,36.4,108.2,36.3z"/>
			<path class="st1" d="M105.6,38.3l-5.7,4.3l-0.1,0l0-2.3l2.5-1.9C103.4,38.4,104.5,38.3,105.6,38.3z"/>
			<path class="st1" d="M104.9,36.4l-2.6,2c-0.8,0-1.7,0-2.5,0.1l0-1.9C101.6,36.6,103.3,36.5,104.9,36.4z"/>
			<polygon class="st1" points="99.9,42.6 99.8,42.6 99.8,42.6 			"/>
			<path class="st1" d="M99.9,28.9l0,0.9c-0.6,0-1.2,0-1.8-0.1l0-1.3c0-0.2,0-0.4,0.1-0.5c1,0,1.9,0,2.9,0.1L99.9,28.9z"/>
			<path class="st1" d="M99.9,29.8l-0.1,6.9c-0.6,0-1.2,0-1.8,0.1l0-7C98.7,29.7,99.3,29.7,99.9,29.8z"/>
			<path class="st1" d="M99.8,38.5l0,1.8L98,41.7l0-3.1C98.6,38.5,99.2,38.5,99.8,38.5z"/>
			<polygon class="st1" points="99.8,40.3 99.8,42.6 98,42.8 98,41.7 			"/>
			<polygon class="st1" points="99.8,42.6 99.8,42.6 98,44 98,42.8 			"/>
			<polygon class="st1" points="99.8,42.6 99.8,44.4 98,44.6 98,44 			"/>
			<polygon class="st1" points="99.8,44.4 99.7,54.1 98.1,55.3 97.9,55.3 98,44.6 			"/>
			<path class="st1" d="M99.8,38.5c-0.6,0-1.2,0-1.8,0l0-1.8c0.6,0,1.2,0,1.8-0.1L99.8,38.5z"/>
			<path class="st1" d="M99.7,54.1l0,1.9c0,0.3-0.2,0.6-0.4,0.8c-0.1,0.1-0.3,0.1-0.5,0.1c-0.5,0-0.9-0.4-0.9-0.9v-0.7l0.2,0
				L99.7,54.1z"/>
			<polygon class="st1" points="96.2,43 98,41.7 98,42.8 			"/>
			<polygon class="st1" points="98,42.8 98,44 97,44.7 93.3,45.2 96.2,43 			"/>
			<polygon class="st1" points="97,44.7 98,44 98,44.6 			"/>
			<path class="st1" d="M98.7,57.1l-20,2.8c-0.1,0-0.2-0.1-0.3-0.1c-0.3-0.1-0.6-0.2-0.8-0.3l2-1.5l18.5-2.6V56
				c0,0.5,0.4,0.9,0.9,0.9c0.2,0,0.4-0.1,0.5-0.1l-0.2,0.1C99,57,98.8,57,98.7,57.1z"/>
			<polygon class="st1" points="97,44.7 79.4,58 76.1,58.4 76.1,58.1 93.3,45.2 			"/>
			<polygon class="st1" points="96.2,43 93.3,45.2 76.1,47.3 76.1,45.4 			"/>
			<path class="st1" d="M92.1,89.1v0.8c0,0.5-0.5,0.9-0.9,0.9c-0.5,0-0.9-0.4-0.9-0.9v-0.1l0.9-0.7H92.1z"/>
			<polygon class="st1" points="92.1,88.5 92.1,89.1 91.2,89.1 			"/>
			<path class="st1" d="M92.1,75.5v13l-0.9,0.6h-0.9V75.5c0,0,0-0.1,0-0.1L92.1,75.5C92.1,75.4,92.1,75.5,92.1,75.5z"/>
			<path class="st1" d="M92.1,75.4h-1.8c0.1-0.5,0.4-0.8,0.9-0.8C91.7,74.6,92,74.9,92.1,75.4z"/>
			<polygon class="st1" points="91.8,90.9 76.1,102.4 76.1,100.3 88.8,90.9 			"/>
			<polygon class="st1" points="91.2,89.1 90.3,89.8 90.3,89.1 			"/>
			<path class="st1" d="M91.2,74.6c-0.5,0-0.8,0.3-0.9,0.8H76.1v-1.8h36.1l-2.4,1.8H92.1C92,74.9,91.7,74.6,91.2,74.6z"/>
			<path class="st1" d="M91.8,90.9h-3l1.5-1.1v0.1c0,0.5,0.4,0.9,0.9,0.9c0.4,0,0.9-0.4,0.9-0.9v-0.8h2.2L91.8,90.9z"/>
			<polygon class="st1" points="90.3,89.1 90.3,89.8 88.8,90.9 76.1,90.9 76.1,89.1 			"/>
			<path class="st1" d="M87.5,111.9l-11.2,8.4c-0.1,0-0.1,0-0.2,0v-0.6l5.6-5.1C83.4,113.6,85.4,112.7,87.5,111.9z"/>
			<path class="st1" d="M81.1,247.5c-0.4,0-0.9,0-1.3,0c0.3-0.3,0.7-0.4,1.1-0.2C81,247.4,81.1,247.4,81.1,247.5z"/>
			<path class="st1" d="M79.7,247.6c0-0.1,0.1-0.1,0.1-0.1c0.4,0,0.8,0,1.3,0c0.2,0.3,0.3,0.7,0.1,1c-0.1,0.1-0.1,0.2-0.2,0.2
				l-0.5,0.6c-0.7,0-1.5,0-2.2-0.1L79.7,247.6z"/>
			<path class="st1" d="M80.5,249.3l-4.4,5c0-0.1,0.1-0.2,0.1-0.3v-2.3l2.2-2.4C79,249.2,79.8,249.3,80.5,249.3z"/>
			<path class="st1" d="M79.8,247.5c0,0-0.1,0.1-0.1,0.1l-1.4,1.6c-0.7,0-1.4,0-2.2,0v-1.8C77.3,247.4,78.6,247.4,79.8,247.5z"/>
			<path class="st1" d="M79.4,58l-2,1.5c-0.4-0.2-0.9-0.4-1.4-0.6v-0.5L79.4,58z"/>
			<path class="st1" d="M78.7,59.9l-2.3,0.3l1.1-0.8c0.3,0.1,0.6,0.2,0.8,0.3C78.4,59.8,78.5,59.9,78.7,59.9z"/>
			<path class="st1" d="M78.7,59.9c10.1,4.1,20.6,8.3,31.4,9.2c2.1,0.2,4.9,0.3,8.1,0.1c0,0,0,0,0,0l-2.4,1.8c-0.3,0-0.5,0-0.8,0
				c-1.9,0-3.6-0.1-5-0.2c-11.3-0.9-22-5.2-32.4-9.4c-0.5-0.2-1-0.4-1.5-0.6v-0.3l0.3-0.2L78.7,59.9z"/>
			<path class="st1" d="M77.5,59.4l-1.1,0.8l-0.3,0v-1.4C76.6,59.1,77,59.3,77.5,59.4z"/>
			<path class="st1" d="M81.7,114.6l-5.6,5.1v-1.6l36.6-27.2h1.6V92l-26.8,19.9l0,0C85.4,112.7,83.4,113.6,81.7,114.6z"/>
			<polygon class="st1" points="76.4,60.3 76.1,60.5 76.1,60.3 			"/>
			<path class="st1" d="M98.9,110.4c-12.5,3.5-22.3,6.3-22.7,15.5c0,0.2,0,0.3-0.1,0.4v-0.6v0c0-0.1,0-0.2,0-0.3v-5.1
				c0.1,0,0.1,0,0.2,0l11.2-8.4l0,0c3.3-1.2,6.9-2.2,10.8-3.3c1.6-0.4,3.2-0.9,4.9-1.4c2.7-0.8,5.8-1.5,9.1-2.3
				c11.3-2.7,24.8-5.9,31.9-14h1.3c0.4,0,0.7-0.2,0.8-0.6l0.5,0.4c-7,9.6-21.7,13.1-34,16c-3.3,0.8-6.3,1.5-9,2.3
				C102.1,109.5,100.5,110,98.9,110.4z"/>
			<path class="st1" d="M76.1,125.4c0,0.1,0,0.2,0,0.3V125.4z"/>
			<path class="st1" d="M74.3,249.2c0.3,0,0.6,0,0.9,0c0.3,0,0.6,0,0.9,0v2.5l-1.8,2V249.2z"/>
			<path class="st1" d="M76.1,125.4c-0.1-1.5-0.3-2.9-0.8-4.1c0.1-0.3,0.3-0.6,0.4-0.9h0c0.1,0,0.2-0.1,0.4-0.1V125.4z"/>
			<path class="st1" d="M75.7,120.4c-0.3,0-0.6-0.1-0.7-0.4c-0.3-0.4-0.2-1,0.2-1.2l0.9-0.7v1.6L75.7,120.4L75.7,120.4z"/>
			<polygon class="st1" points="76.1,100.3 76.1,102.4 74.3,103.8 74.3,101.6 			"/>
			<polygon class="st1" points="76.1,90.9 76.1,100.3 74.3,101.6 74.3,90.9 			"/>
			<rect x="74.3" y="89.1" class="st1" width="1.8" height="1.8"/>
			<path class="st1" d="M76.1,75.4v13.7h-1.8V75.3c0.1,0,0.2,0.1,0.3,0.1H76.1z"/>
			<path class="st1" d="M75.4,74.1l0-0.5h0.7v1.8h-1.5c-0.1,0-0.2,0-0.3-0.1v0l0.7-0.5C75.3,74.7,75.4,74.4,75.4,74.1z"/>
			<path class="st1" d="M76.1,60.8v12.8h-0.7l0.1-12.7l0.3-0.2C75.9,60.7,76,60.7,76.1,60.8z"/>
			<path class="st1" d="M76.1,60.5v0.3c-0.1,0-0.2-0.1-0.3-0.1L76.1,60.5z"/>
			<path class="st1" d="M76.1,60.3v0.2l-0.3,0.2c-0.1,0-0.2-0.1-0.3-0.1v-0.2L76.1,60.3z"/>
			<path class="st1" d="M76.1,58.9v1.4l-0.5,0.1l0-1.7C75.8,58.7,75.9,58.8,76.1,58.9z"/>
			<path class="st1" d="M76.1,58.4v0.5c-0.2-0.1-0.3-0.1-0.5-0.2v-0.1l0,0L76.1,58.4z"/>
			<polygon class="st1" points="76.1,58.1 76.1,58.4 75.6,58.5 			"/>
			<polygon class="st1" points="76.1,47.3 76.1,58.1 75.6,58.5 75.6,58.5 75.7,47.3 			"/>
			<path class="st1" d="M75.4,38.8c0.2,0,0.5,0,0.7,0v6.7l-1.2,0.1h0c-0.2,0-0.4,0-0.6,0.2v-7C74.7,38.8,75,38.8,75.4,38.8z"/>
			<path class="st1" d="M75.6,254.8l0.4-0.5C76,254.5,75.8,254.7,75.6,254.8z"/>
			<path class="st1" d="M76.1,120.3c-0.2,0-0.3,0.1-0.4,0.1l0.4-0.7V120.3z"/>
			<path class="st1" d="M75.8,60.7l-0.3,0.2l0-0.3C75.6,60.6,75.7,60.6,75.8,60.7z"/>
			<polygon class="st1" points="75.6,58.5 75.6,58.5 75.6,58.5 			"/>
			<path class="st1" d="M75.2,45.7c-0.1-0.1-0.2-0.1-0.3-0.1l1.2-0.1v1.8l-0.4,0l0-0.8C75.7,46.2,75.5,45.9,75.2,45.7z"/>
			<path class="st1" d="M75.6,58.5l-0.1,0.1c-0.1,0-0.1-0.1-0.2-0.1L75.6,58.5L75.6,58.5z"/>
			<path class="st1" d="M75.4,58.6l0.1-0.1v0.1C75.5,58.7,75.5,58.6,75.4,58.6z"/>
			<path class="st1" d="M74.3,125.6l1-4.4c0.5,1.2,0.8,2.6,0.8,4.1v0.3v0c-0.1,0.3-0.4,0.6-0.9,0.7c0,0,0,0,0,0
				C74.7,126.4,74.4,126.1,74.3,125.6z"/>
			<path class="st1" d="M75.4,37c8.3,0,15.9-0.1,22.6-0.3l0,1.8c-6.9,0.2-14.3,0.3-21.9,0.3v-0.1c0-0.5-0.4-0.9-0.9-0.9V37
				C75.3,37,75.3,37,75.4,37z"/>
			<path class="st1" d="M75.4,58.6l-1.1,0.9c0,0,0-0.1,0-0.1c0-0.4,0.3-0.8,0.7-0.8l0.3,0C75.3,58.6,75.4,58.6,75.4,58.6z"/>
			<path class="st1" d="M75.5,60.9l-1.2,0.9v-1.8c0.1,0,0.3,0.1,0.4,0.2c0,0,0,0,0,0c0.1,0.1,0.2,0.1,0.4,0.2
				c0.2,0.1,0.3,0.1,0.5,0.2L75.5,60.9z"/>
			<path class="st1" d="M75.6,254.8l-5.5,6.2c-0.3,0-0.6,0-0.8,0l0-1.6l5-5.7v0.3c0,0.5,0.4,0.9,0.9,0.9
				C75.4,254.9,75.5,254.9,75.6,254.8z"/>
			<path class="st1" d="M75.4,38.8c-0.4,0-0.7,0-1.1,0v-0.1c0-0.5,0.4-0.9,0.9-0.9s0.9,0.4,0.9,0.9v0.1
				C75.9,38.8,75.6,38.8,75.4,38.8z"/>
			<path class="st1" d="M74.3,254v-0.3l1.8-2v2.3c0,0.1,0,0.2-0.1,0.3l-0.4,0.5c-0.1,0.1-0.3,0.1-0.4,0.1
				C74.7,254.9,74.3,254.5,74.3,254z"/>
			<path class="st1" d="M75.3,58.6l-0.3,0c-0.4,0-0.7,0.4-0.7,0.8v-1.2C74.6,58.3,74.9,58.4,75.3,58.6z"/>
			<path class="st1" d="M74.3,47.1v-1.2c0.2-0.2,0.4-0.3,0.6-0.3h0c0.1,0,0.2,0,0.3,0.1c0.3,0.2,0.5,0.5,0.5,0.8l0,0.8L75,47.4
				C74.7,47.4,74.4,47.3,74.3,47.1z"/>
			<path class="st1" d="M75.2,249.2c-0.3,0-0.6,0-0.9,0v-1.8c0.3,0,0.6,0,0.9,0c0.3,0,0.6,0,0.9,0v1.8
				C75.8,249.2,75.5,249.2,75.2,249.2z"/>
			<path class="st1" d="M75.4,60.4l0.2,0v0.2c-0.2-0.1-0.3-0.1-0.5-0.2c0,0,0.1,0,0.1,0H75.4z"/>
			<path class="st1" d="M75.2,126.7c-0.5,0-0.9-0.4-0.9-0.9c0-0.1,0-0.1,0-0.2c0.1,0.4,0.4,0.8,0.9,0.8c0,0,0,0,0,0
				c0.5-0.1,0.8-0.3,0.9-0.7v0.6c-0.2,0.3-0.4,0.5-0.8,0.5C75.2,126.7,75.2,126.7,75.2,126.7z"/>
			<path class="st1" d="M74.3,247.4V125.8c0,0.5,0.4,0.9,0.9,0.9c0,0,0,0,0.1,0.1c0.3,0,0.6-0.2,0.8-0.5v121.1c-0.3,0-0.6,0-0.9,0
				C74.9,247.4,74.6,247.4,74.3,247.4z"/>
			<path class="st1" d="M75.1,60.4c-0.1,0-0.3-0.1-0.4-0.2C74.8,60.3,75,60.3,75.1,60.4z"/>
			<path class="st1" d="M74.7,60.2c-0.2-0.2-0.4-0.5-0.4-0.7l1.1-0.9c0,0,0.1,0,0.1,0l0,1.7l-0.2,0h-0.2c0,0-0.1,0-0.1,0
				C75,60.3,74.8,60.3,74.7,60.2C74.7,60.2,74.7,60.2,74.7,60.2z"/>
			<path class="st1" d="M74.3,119.3v-15.6l1.8-1.3v15.7l-0.9,0.7c-0.4,0.2-0.5,0.8-0.2,1.2c0.1,0.3,0.4,0.4,0.7,0.4
				c-0.2,0.3-0.3,0.6-0.4,0.9C75,120.6,74.7,119.9,74.3,119.3z"/>
			<path class="st1" d="M74.3,75.3v-1.7c0.1,0,0.2-0.1,0.3-0.1h0.8l0,0.5c0,0.3-0.1,0.6-0.4,0.7L74.3,75.3z"/>
			<path class="st1" d="M74.7,60.2c-0.1-0.1-0.3-0.1-0.4-0.2v-0.6l0,0C74.3,59.8,74.5,60,74.7,60.2z"/>
			<path class="st1" d="M74.6,73.6c-0.1,0-0.2,0-0.3,0.1V61.8l1.2-0.9l-0.1,12.7H74.6z"/>
			<path class="st1" d="M74.3,58.2V47.1c0.1,0.2,0.4,0.3,0.7,0.3l0.7-0.1l-0.1,11.2l-0.3,0C74.9,58.4,74.6,58.3,74.3,58.2z"/>
			<path class="st1" d="M74.3,45.9v-0.2c0.2-0.1,0.4-0.2,0.6-0.2C74.7,45.6,74.5,45.8,74.3,45.9z"/>
			<path class="st1" d="M75.3,121.3l-1,4.4c0,0,0-0.1,0-0.1v-6.2C74.7,119.9,75,120.6,75.3,121.3z"/>
			<path class="st1" d="M74.3,125.5c0,0,0,0.1,0,0.1c0,0.1,0,0.1,0,0.2V125.5z"/>
			<path class="st1" d="M74.3,59.4C74.3,59.4,74.3,59.5,74.3,59.4v0.1V59.4z"/>
			<path class="st1" d="M74.3,101.6v2.2l-11,8.1c-0.6-0.2-1.3-0.5-2-0.7L74.3,101.6z"/>
			<path class="st1" d="M74.3,89.1v1.8H53.8c0-0.1,0.1-0.1,0.1-0.1c0.1-0.1,0.1-0.1,0.2-0.2l2-1.5H74.3z"/>
			<path class="st1" d="M74.3,75.3L74.3,75.3C74.3,75.3,74.3,75.3,74.3,75.3L74.3,75.3z"/>
			<path class="st1" d="M73.7,74.5c0-0.4,0.2-0.7,0.6-0.8v1.7l0,0C73.9,75.2,73.7,74.9,73.7,74.5z"/>
			<path class="st1" d="M74.3,60.1v1.8l-0.5,0.4l0-2.3C74,59.9,74.2,60,74.3,60.1z"/>
			<path class="st1" d="M74.3,59.5v0.6c-0.2-0.1-0.3-0.1-0.4-0.2v-0.1L74.3,59.5z"/>
			<path class="st1" d="M74.3,59.4v0.1l-0.4,0.3l0-1.8c0.1,0,0.3,0.1,0.4,0.2V59.4z"/>
			<path class="st1" d="M74.3,45.9v1.2c-0.1-0.1-0.2-0.3-0.2-0.5C74.1,46.3,74.1,46.1,74.3,45.9z"/>
			<path class="st1" d="M74,48.2l-8.7,6.5c-0.7-0.2-1.4-0.5-2.1-0.7l11-8.2c0,0,0.1,0,0.1,0v0.2c-0.2,0.2-0.2,0.4-0.2,0.7
				c0,0.2,0.1,0.4,0.2,0.5v11.1C74.2,58.1,74,58,73.9,58L74,48.2z"/>
			<path class="st1" d="M73.9,59.8L73.9,59.8C73.8,59.9,73.8,59.9,73.9,59.8L73.9,59.8z"/>
			<path class="st1" d="M73.9,59.9l0,2.3L54.3,76.9l0-2.3L73.9,59.9C73.8,59.9,73.8,59.9,73.9,59.9z"/>
			<path class="st1" d="M69.3,261.7l0-0.7c0.3,0,0.5,0,0.8,0l-0.8,0.9C69.3,261.9,69.3,261.8,69.3,261.7z"/>
			<path class="st1" d="M69.3,259.4l0,1.6c-0.5,0-0.9,0-1.4,0L69.3,259.4z"/>
			<path class="st1" d="M75.2,261.1c21.2,0,34.7-3.5,34.7-5.9c0-2.2-11.3-5.4-29.4-5.9l0.5-0.6c0.1,0,0.1-0.1,0.2-0.2
				c0.2-0.3,0.1-0.7-0.1-1c14,0.5,30.6,2.7,30.6,7.6c0,5.7-21.8,7.8-36.5,7.8c-2.1,0-4.4,0-6.8-0.1v-0.1c0.1,0,0.2,0,0.4-0.1
				c0.3-0.1,0.5-0.3,0.5-0.6l0.8-0.9C71.8,261.1,73.4,261.1,75.2,261.1z"/>
			<path class="st1" d="M69.3,261.9c0,0.3-0.2,0.5-0.5,0.6c0.1-0.1,0.2-0.2,0.2-0.3L69.3,261.9z"/>
			<path class="st1" d="M68.5,262.6c-0.5,0-0.9-0.4-0.9-0.9l0-0.3c0-0.1,0.1-0.1,0.1-0.2l0.2-0.2c0.5,0,0.9,0,1.4,0l0,0.7
				c0,0.1,0,0.2,0,0.2l-0.3,0.4c-0.1,0.1-0.2,0.2-0.2,0.3C68.7,262.6,68.6,262.6,68.5,262.6z"/>
			<path class="st1" d="M67.9,260.9l-0.2,0.2c0,0.1-0.1,0.1-0.1,0.2v-0.4C67.7,260.9,67.8,260.9,67.9,260.9z"/>
			<path class="st1" d="M67.6,261.7c0,0.5,0.4,0.9,0.9,0.9c0.1,0,0.2,0,0.3,0c-0.1,0.1-0.2,0.1-0.4,0.1c-0.2,0-0.4-0.1-0.6-0.2
				c-0.3-0.3-0.4-0.7-0.2-1.1L67.6,261.7z"/>
			<path class="st1" d="M67.5,255.4H40.6c-0.1-0.1-0.1-0.2-0.1-0.3c0-0.5,0.5-1,1.5-1.5h26.3c0.5,0,0.9,0.4,0.9,0.9l0.1,4.9
				l-1.3,1.5c-0.1,0-0.2,0-0.3,0L67.5,255.4z"/>
			<path class="st1" d="M65.3,54.7c2.9,1,5.8,2.1,8.6,3.3l0,1.8l-0.1,0c-3.4-1.4-6.8-2.7-10.3-3.8L65.3,54.7z"/>
			<path class="st1" d="M65.3,54.7L63.5,56c-0.5-0.2-1-0.4-1.6-0.5c0-0.2-0.1-0.3-0.2-0.4l1.4-1C63.9,54.3,64.6,54.5,65.3,54.7z"/>
			<path class="st1" d="M63.3,111.8l-1.3,1c-0.2,0.2-0.3,0.2-0.5,0.2c-0.1,0-0.2,0-0.3-0.1c-0.3-0.2-0.6-0.5-0.5-0.9
				c0-0.2,0.1-0.5,0.3-0.6l0.3-0.2C62,111.4,62.7,111.6,63.3,111.8z"/>
			<path class="st1" d="M62,55.5c0,0,0,0.1,0,0.2c0,0.5-0.4,0.9-0.9,0.9h-1.4l1.7-1.2C61.6,55.4,61.8,55.5,62,55.5z"/>
			<path class="st1" d="M62,55.5c-0.2-0.1-0.4-0.1-0.6-0.2l0.3-0.3C61.9,55.2,62,55.4,62,55.5z"/>
			<path class="st1" d="M61.8,55.1l-0.3,0.3c-0.6-0.2-1.2-0.4-1.8-0.5h1.5C61.4,54.8,61.6,54.9,61.8,55.1z"/>
			<path class="st1" d="M62,112.8l1.3-1c4.9,1.8,8.8,4,11,7.5v6.2c-0.3-6.8-5.6-9.9-13.1-12.5l0,0c0.1,0,0.2,0.1,0.3,0.1
				C61.7,113,61.8,113,62,112.8z"/>
			<path class="st1" d="M61.4,55.3l-1.7,1.2H29.6v-1.8h30C60.2,55,60.8,55.2,61.4,55.3z"/>
			<path class="st1" d="M53.9,63.2c0.1-0.1,0.2-0.2,0.3-0.3l0.2,0l-0.1,11.6L52.4,76l0.1-11.7L53.9,63.2z"/>
			<path class="st1" d="M53.8,89.1H56l-2,1.5c0.2-0.4,0.2-0.8-0.1-1.1c-0.2-0.2-0.4-0.3-0.6-0.3C53.5,89.1,53.7,89.1,53.8,89.1z"/>
			<path class="st1" d="M54,89.5c0.2,0.3,0.3,0.8,0.1,1.1l-0.3,0.2c-0.1,0-0.1,0.1-0.2,0.1c-0.4-0.1-0.7-0.4-0.7-0.9
				c0-0.3,0.2-0.7,0.5-0.8C53.6,89.2,53.8,89.3,54,89.5z"/>
			<path class="st1" d="M53.8,90.8l0.3-0.2c-0.1,0.1-0.1,0.1-0.2,0.2C53.9,90.8,53.8,90.8,53.8,90.8c-0.1,0.1-0.1,0.1-0.2,0.1
				C53.7,90.9,53.7,90.8,53.8,90.8z"/>
			<path class="st1" d="M53.8,77.6l-1.4,2v-1.3l1.6-1.2C54,77.3,53.9,77.5,53.8,77.6z"/>
			<path class="st1" d="M52.5,62.4c0-0.3,0.1-0.5,0.4-0.7l0.2-0.1c0.4-0.1,0.8,0,1,0.3c0.2,0.3,0.2,0.7,0.1,1
				c-0.1,0.1-0.2,0.2-0.3,0.3l-1.4,1.1L52.5,62.4z"/>
			<path class="st1" d="M54.1,61.9c-0.2-0.3-0.7-0.4-1-0.3l6.6-5h1.4c0.5,0,0.9-0.4,0.9-0.9c0-0.1,0-0.1,0-0.2
				c0.5,0.2,1,0.3,1.6,0.5l-9.1,6.9l-0.2,0C54.3,62.6,54.3,62.2,54.1,61.9z"/>
			<path class="st1" d="M53.4,89.2c-0.2,0-0.5,0-0.7,0.2l-0.4,0.3l0.1-10.1l1.4-2c0.1-0.1,0.2-0.3,0.2-0.5l0.3-0.2l-0.1,11.3
				l19.5-14.6l0.1-11.4l0.5-0.4v11.8c-0.4,0.1-0.6,0.5-0.6,0.8s0.2,0.7,0.6,0.8L56,89.1h-2.2C53.7,89.1,53.5,89.1,53.4,89.2z"/>
			<path class="st1" d="M52.4,76.5c0.3-0.4,0.8-0.5,1.2-0.2c0.3,0.2,0.4,0.5,0.4,0.8l-1.6,1.2L52.4,76.5z"/>
			<path class="st1" d="M52.4,76l1.9-1.4l0,2.3L54,77.1c0-0.3-0.1-0.6-0.4-0.8c-0.4-0.3-0.9-0.2-1.2,0.2V76z"/>
			<path class="st1" d="M52.7,89.4c0.2-0.2,0.5-0.2,0.7-0.2c-0.3,0.2-0.5,0.5-0.5,0.8c0,0.4,0.3,0.8,0.7,0.9c-0.1,0-0.3,0-0.4,0
				c-0.1,0-0.3,0-0.4-0.1c-0.3-0.2-0.5-0.5-0.5-0.8v-0.3L52.7,89.4z"/>
			<path class="st1" d="M52.5,62.4l0,1.9L29.7,81.6l0-2.3l23.1-17.5c0.1-0.1,0.2-0.1,0.3-0.1l-0.2,0.1
				C52.6,61.9,52.5,62.1,52.5,62.4z"/>
			<path class="st1" d="M52.4,76v0.5l-2.7,3.8l-7.2,5.4c-0.3-0.6-0.6-1.1-1-1.5L52.4,76z"/>
			<polygon class="st1" points="49.7,80.3 52.4,76.5 52.4,78.3 			"/>
			<path class="st1" d="M53.8,90.9l-18.3,13.2c-0.7-0.2-1.5-0.4-2.2-0.6l5.9-8.3c2.2-1,3.8-3.1,4-5.7l6.5-9.2l2.7-2v1.3l-14.7,20.8
				l14.6-10.7V90c0,0.3,0.2,0.6,0.5,0.8c0.1,0.1,0.3,0.1,0.4,0.1c0.1,0,0.3,0,0.4,0C53.7,90.9,53.7,90.9,53.8,90.9z"/>
			<path class="st1" d="M40,85.3l1.4-1.1c0.4,0.5,0.8,1,1,1.5L41,86.9C40.8,86.3,40.4,85.8,40,85.3z"/>
			<path class="st1" d="M39.1,95.3l4-5.7C42.9,92.1,41.3,94.3,39.1,95.3z"/>
			<path class="st1" d="M40.5,255.1c0,0.1,0,0.2,0.1,0.3h-0.8c-0.5,0-0.9-0.4-0.9-0.9c0-0.2,0.1-0.4,0.1-0.5
				c0.2-0.2,0.4-0.4,0.8-0.4H42C41,254.1,40.5,254.6,40.5,255.1z"/>
			<path class="st1" d="M74.3,249.2c-16.6,0.1-28.3,2.3-32.3,4.4h-2.2c-0.3,0-0.6,0.2-0.8,0.4l0,0c2.6-4.7,21.7-6.5,35.3-6.6V249.2z
				"/>
			<path class="st1" d="M40.6,255.4c0.9,2.1,11,4.8,27,5.5v0.4c-0.2,0.4-0.1,0.9,0.2,1.1c0.2,0.1,0.4,0.2,0.6,0.2v0.1
				c-13.8-0.5-29.7-2.8-29.7-7.7c0-0.4,0.1-0.8,0.3-1.1l0,0c-0.1,0.1-0.1,0.3-0.1,0.5c0,0.5,0.4,0.9,0.9,0.9H40.6z"/>
			<path class="st1" d="M47.9,52.4c-6.5-0.7-12.6-0.7-18.3,0v-0.7c0-0.5-0.4-0.9-0.9-0.9l0-0.1c3.1-0.5,6.4-0.7,9.7-0.7
				c3.1,0,6.4,0.2,9.7,0.6c5.1,0.6,10.1,1.8,15.1,3.4l-1.4,1c-0.2-0.2-0.4-0.3-0.7-0.3h-1.5C55.7,53.7,51.8,52.8,47.9,52.4z"/>
			<path class="st1" d="M41,86.9l-3.5,2.6c-0.2,0-0.4,0.1-0.6,0.1c-0.3,0-0.6-0.1-0.7-0.4c-0.3-0.4-0.2-0.9,0.2-1.2l3.6-2.7
				C40.4,85.8,40.8,86.3,41,86.9z"/>
			<path class="st1" d="M33.8,105.2c-0.1,0-0.1,0-0.2,0c-0.4-0.1-0.7-0.4-0.7-0.9c0-0.2,0.1-0.3,0.2-0.5l0.2-0.2
				c0.8,0.2,1.5,0.4,2.2,0.6l-1.2,0.9C34.2,105.1,34,105.2,33.8,105.2z"/>
			<path class="st1" d="M47.4,108.9c-2.7-0.8-5.8-1.5-9-2.3c-1.6-0.4-3.2-0.8-4.8-1.2l0.1-0.2c0.1,0,0.1,0,0.2,0
				c0.2,0,0.4-0.1,0.5-0.2l1.2-0.9c1.1,0.3,2.2,0.5,3.3,0.8c3.3,0.8,6.4,1.5,9.1,2.3c1.8,0.5,3.5,1,5.2,1.5c2.9,0.8,5.7,1.6,8.2,2.5
				l-0.3,0.2c-0.2,0.1-0.3,0.4-0.3,0.6c-0.1,0.4,0.1,0.8,0.5,0.9l0,0c-2.6-0.9-5.5-1.7-8.6-2.6C50.9,109.9,49.1,109.4,47.4,108.9z"
				/>
			<path class="st1" d="M36.2,83.7c-2.9,0-5.2,2.3-5.2,5.2s2.3,5.2,5.2,5.2c2.9,0,5.2-2.3,5.2-5.2l-0.4-2l1.5-1.1
				c0.5,0.9,0.7,2,0.7,3.1c0,0.2,0,0.4,0,0.7l-4,5.7c-0.9,0.4-1.9,0.6-2.9,0.6c-3,0-5.5-1.8-6.5-4.5l0-5.1c1-2.6,3.5-4.5,6.5-4.5
				c2.1,0,4,0.9,5.2,2.3L40,85.3c0,0-0.1-0.1-0.1-0.1C39,84.3,37.7,83.7,36.2,83.7z"/>
			<path class="st1" d="M29.7,102.8c0,0.4-0.4,0.8-0.9,0.8s-0.9-0.4-0.9-0.9v-0.6c0.6,0.2,1.2,0.3,1.8,0.5V102.8z"/>
			<path class="st1" d="M29.7,86.4l0,5.1c-0.3-0.8-0.5-1.6-0.5-2.5C29.2,88,29.4,87.2,29.7,86.4z"/>
			<path class="st1" d="M29.7,81.6l0,4.8c-0.3,0.8-0.5,1.6-0.5,2.5c0,0.9,0.2,1.8,0.5,2.5l0,11.2c-0.6-0.2-1.2-0.3-1.8-0.5l0-19.2
				L29.7,81.6z"/>
			<polygon class="st1" points="29.6,79.2 29.7,81.6 27.9,82.9 27.9,80.6 			"/>
			<polygon class="st1" points="29.6,56.6 29.6,79.2 27.9,80.6 27.8,56.6 			"/>
			<rect x="27.8" y="54.8" class="st1" width="1.8" height="1.8"/>
			<path class="st1" d="M29.6,52.4l0,2.4h-1.8l0-2.1C28.4,52.6,29,52.5,29.6,52.4z"/>
			<path class="st1" d="M29.6,51.7v0.7c-0.6,0.1-1.2,0.2-1.8,0.3v-1c0-0.5,0.4-0.9,0.9-0.9S29.6,51.2,29.6,51.7z"/>
			<path class="st1" d="M27.9,80.6v2.3l-12.6,9.6c0-0.1,0.1-0.2,0.1-0.3v-2.1L27.9,80.6z"/>
			<path class="st1" d="M27.8,54.8v1.8H15.3c0-0.1,0-0.3-0.1-0.4c1.2-0.5,2.5-1,3.8-1.4H27.8z"/>
			<path class="st1" d="M15.3,56.6v33.5l-1.8,1.4V56.9c0.2-0.1,0.5-0.2,0.7-0.3H15.3z"/>
			<path class="st1" d="M15.3,56.6h-1.1c0.3-0.1,0.7-0.3,1-0.4C15.3,56.3,15.3,56.4,15.3,56.6z"/>
			<path class="st1" d="M14.5,93.1l0.8-0.6C15.1,92.8,14.8,93.1,14.5,93.1z"/>
			<path class="st1" d="M15.2,56.2c-0.3,0.1-0.7,0.3-1,0.4c-0.3,0-0.5-0.1-0.6-0.3c0.1-0.4,0.4-0.6,0.8-0.6
				C14.8,55.7,15.1,55.9,15.2,56.2z"/>
			<path class="st1" d="M13.8,54.8l14.9-4.1l0,0.1c-0.5,0-0.9,0.4-0.9,0.9v1c-3,0.5-6,1.2-8.8,2.1h-4.8C14.1,54.8,14,54.8,13.8,54.8
				L13.8,54.8z"/>
			<path class="st1" d="M14.4,93.1c-0.5,0-0.9-0.4-0.9-0.9v-0.7l1.8-1.4v2.1c0,0.1,0,0.2-0.1,0.3L14.4,93.1
				C14.4,93.1,14.4,93.1,14.4,93.1z"/>
			<path class="st1" d="M14.2,56.6c-0.2,0.1-0.5,0.2-0.7,0.3v-0.3c0-0.1,0-0.2,0.1-0.3C13.7,56.5,13.9,56.6,14.2,56.6z"/>
			<path class="st1" d="M14.4,55.7c-0.4,0-0.7,0.3-0.8,0.6c-0.2-0.2-0.2-0.4-0.2-0.6c0-0.4,0.2-0.7,0.6-0.8c0.1,0,0.2-0.1,0.3-0.1
				H19c-1.3,0.4-2.5,0.9-3.8,1.4C15.1,55.9,14.8,55.7,14.4,55.7z"/>
			<path class="st1" d="M11,33.1c0-1,0.7-2.7,19.4-4.1c12-0.9,28-1.4,45-1.4c7.9,0,15.6,0.1,22.8,0.3c-0.1,0.1-0.1,0.3-0.1,0.5
				l0,1.3c-6.8-0.2-14.4-0.3-22.7-0.3c-36.4,0-58.7,2.1-62.3,3.8h-0.3c0-0.5-0.4-0.8-0.8-0.9C11.5,32.3,11.1,32.6,11,33.1z"/>
			<path class="st1" d="M13.1,33.2c3.6,1.7,25.8,3.8,62.1,3.8v0.8c-0.5,0-0.9,0.4-0.9,0.9v0.1c-16.6,0-32.2-0.5-43.9-1.4
				c-11.5-0.8-16.2-1.8-18.1-2.7c0.4-1.1,0.5-1.3,0.5-1.5H13.1z"/>
			<path class="st1" d="M11,33.1c0.1-0.5,0.5-0.8,1-0.8c0.4,0.1,0.8,0.4,0.8,0.9c0,0.2-0.1,0.4-0.5,1.5C11,34.1,11,33.6,11,33.2
				C11,33.2,11,33.1,11,33.1C11,33.1,11,33.1,11,33.1z"/>
			<path class="st1" d="M11.8,95.2c-0.5-0.3-1-0.7-1.5-1.1c0.1-0.1,0.2-0.3,0.3-0.4l2.9-2.2v0.7c0,0.5,0.4,0.9,0.9,0.9
				c0,0,0.1,0,0.1,0L11.8,95.2z"/>
			<path class="st1" d="M11.1,95.4c-0.3,0-0.5-0.1-0.7-0.4c-0.2-0.3-0.2-0.6-0.1-0.9c0.5,0.4,1,0.7,1.5,1.1l-0.1,0
				C11.5,95.3,11.3,95.4,11.1,95.4z"/>
			<path class="st1" d="M11,33.1C11,33.1,11,33.1,11,33.1C11,33.1,11,33.1,11,33.1z"/>
			<path class="st1" d="M3.8,60.3l10-5.5l0,0.1c-0.3,0.1-0.6,0.5-0.6,0.8c0,0.2,0.1,0.5,0.2,0.6c0,0.1-0.1,0.2-0.1,0.3v0.3
				c-3.6,1.6-7,3.6-10.3,6C3.4,62,3.6,61.2,3.8,60.3z"/>
			<path class="st1" d="M3.8,60.3c-0.2,0.9-0.4,1.8-0.6,2.6c0,0-0.1,0.1-0.1,0.1c-0.4,0.3-0.9,0.2-1.2-0.2c-0.1-0.2-0.2-0.3-0.2-0.5
				c0-0.1,0-0.1,0-0.2c0-0.2,0.2-0.4,0.3-0.5C2.7,61.1,3.2,60.7,3.8,60.3z"/>
			<path class="st1" d="M12.3,34.7c-0.1,0.3-0.2,0.6-0.4,1.1C8.2,45,5.5,53.2,3.8,60.3c-0.6,0.4-1.1,0.8-1.7,1.2
				c-0.2,0.1-0.3,0.3-0.3,0.5l-0.1,0c2.3-11.2,6.7-22,8.6-26.8c0.4-1,0.7-1.8,0.8-2.1c0,0,0,0.1,0,0.1C11,33.6,11,34.1,12.3,34.7z"
				/>
			<path class="st1" d="M10.4,95c0.2,0.3,0.4,0.4,0.7,0.4c0.2,0,0.4-0.1,0.6-0.2l0.1,0c4.6,3.1,10.3,5.3,16.1,7v0.6
				c0,0.5,0.4,0.9,0.9,0.9s0.9-0.4,0.9-0.8v-0.2c1.2,0.3,2.4,0.6,3.6,0.9l-0.2,0.2c-0.1,0.2-0.2,0.3-0.2,0.5c0,0.4,0.3,0.8,0.7,0.9
				l-0.1,0.2C19.9,102,4.8,97.1,1.1,83.9C-0.7,77.6,0,69.7,1.6,62l0.1,0c0,0.1,0,0.1,0,0.2c0,0.2,0,0.4,0.2,0.5
				c0.3,0.4,0.8,0.5,1.2,0.2c0.1,0,0.1-0.1,0.1-0.1c-1.8,8.5-1.9,15.4-0.4,20.5c1.3,4.5,3.9,7.9,7.5,10.7
				C10.2,94.4,10.2,94.7,10.4,95z"/>
		</g>
		<g>
		</g>
	</g>
</g>
</svg>
