<?xml version="1.0" encoding="utf-8"?>
<!-- Generator: Adobe Illustrator 25.4.1, SVG Export Plug-In . SVG Version: 6.00 Build 0)  -->
<svg version="1.1" id="Layer_1" xmlns="http://www.w3.org/2000/svg" xmlns:xlink="http://www.w3.org/1999/xlink" x="0px" y="0px"
	 viewBox="0 0 125.1 293" style="enable-background:new 0 0 125.1 293;" xml:space="preserve">
<style type="text/css">
	.st0{fill:#FFFFFF;}
	.st1{fill:#FEE12B;}
</style>
<g id="Layer_1-2">
	<g id="XMLID_00000152944861489285027300000001983236403955679378_">
		<g>
			<path class="st0" d="M125.1,175.9c0.2,0.3,0.1,0.6,0,0.9V175.9z"/>
			<path class="st0" d="M125.2,283c0,0.1,0,0.2-0.1,0.3v-0.1v-0.6C125.2,282.7,125.2,282.8,125.2,283z"/>
			<path class="st0" d="M125.1,283.3v0.5c0,0.4-0.2,0.7-0.5,0.9C124.9,284.2,125.1,283.8,125.1,283.3
				C125.1,283.3,125.1,283.3,125.1,283.3z"/>
			<path class="st0" d="M125.1,283.2L125.1,283.2c0,0.1,0,0.1,0,0.1C125.1,283.3,125.1,283.2,125.1,283.2z"/>
			<path class="st0" d="M125.1,282.6v0.6c0-0.3,0-0.6-0.2-0.8C125,282.4,125.1,282.5,125.1,282.6z"/>
			<path class="st0" d="M125.1,258.2v24.4c0-0.1-0.1-0.2-0.2-0.2c0,0,0,0,0,0c-0.2-0.7-0.8-1.3-1.6-1.9v-22.2l0.1,0.2
				c0.1,0.3,0.4,0.5,0.8,0.5c0.1,0,0.2,0,0.3,0C124.9,258.8,125.1,258.5,125.1,258.2L125.1,258.2z"/>
			<path class="st0" d="M125.1,176.8v81.4h0c0-0.1,0-0.2-0.1-0.4l-1.7-3.9v-75.3l1.6-1.5l0.1-0.1C125,176.9,125.1,176.9,125.1,176.8
				z"/>
			<path class="st0" d="M125.1,175.9v0.9c0,0.1-0.1,0.1-0.1,0.2l-0.1,0.1l-1.6,1.5v-2.6l0.3-0.3c0.3-0.4,0.9-0.4,1.3-0.1
				C125,175.8,125.1,175.8,125.1,175.9z"/>
			<path class="st0" d="M125.1,111.5v64.4c0-0.1-0.1-0.2-0.2-0.2c-0.4-0.3-1-0.3-1.3,0.1l-0.3,0.3v-3.9l1.3-1.3
				c0.3-0.4,0.3-0.9,0-1.3c-0.4-0.3-0.9-0.3-1.3,0v-56.1l1.3-1.3c0.2-0.2,0.2-0.4,0.2-0.6H125.1z"/>
			<path class="st0" d="M125.1,84.8v26.8h-0.3c0-0.2-0.1-0.5-0.2-0.7l-1.3-1.3V85.7h0.9C124.7,85.7,125.1,85.3,125.1,84.8z"/>
			<path class="st0" d="M125.1,77.4v7.4c0-0.5-0.4-0.9-0.9-0.9h-0.9v-4.3c0.5-0.5,1-1,1.5-1.6C124.9,77.8,125,77.6,125.1,77.4
				L125.1,77.4z"/>
			<path class="st0" d="M125.1,40.4v37H125c0-0.2-0.1-0.5-0.3-0.7c-0.4-0.3-1-0.3-1.3,0.1c0,0-0.1,0.1-0.1,0.1V43.2
				c1-0.8,1.6-1.6,1.6-2.5c0-0.4-0.1-0.8-0.3-1.1C124.9,39.7,125.1,40,125.1,40.4z"/>
			<path class="st0" d="M125.1,283.2c0,0,0,0.1,0,0.1c-0.1,0.2-0.3,0.4-0.5,0.5c0,0,0-0.1,0-0.1l-0.7-1.6h0.5c0.2,0,0.5,0.1,0.6,0.3
				c0,0,0,0,0,0C125.1,282.6,125.1,282.9,125.1,283.2z"/>
			<path class="st0" d="M125,257.8c0.1,0.1,0.1,0.3,0.1,0.4c0,0.4-0.2,0.7-0.6,0.8c-0.1,0-0.2,0-0.3,0c-0.4,0-0.7-0.2-0.8-0.5
				l-0.1-0.2v-4.3L125,257.8z"/>
			<path class="st0" d="M125,77.4c0,0.2-0.1,0.4-0.2,0.6c-0.5,0.6-1,1.1-1.5,1.6v-2.7c0,0,0.1-0.1,0.1-0.1c0.3-0.4,0.9-0.4,1.3-0.1
				C124.9,76.9,125,77.1,125,77.4z"/>
			<path class="st0" d="M125.1,283.3c0,0.5-0.2,0.9-0.5,1.4c-0.1,0.1-0.3,0.1-0.4,0.1c0,0,0,0,0,0c0.3-0.2,0.5-0.6,0.4-1
				C124.8,283.7,125,283.5,125.1,283.3z"/>
			<path class="st0" d="M124.6,110.9c0.2,0.2,0.2,0.4,0.2,0.7c0,0.2-0.1,0.4-0.2,0.6l-1.3,1.3v-1.2h0.4c0.5,0,0.9-0.4,0.9-0.9
				s-0.4-0.9-0.9-0.9h-0.4v-0.9L124.6,110.9z"/>
			<path class="st0" d="M124.6,169.6c0.3,0.4,0.3,0.9,0,1.3l-1.3,1.3v-2.6C123.7,169.3,124.2,169.3,124.6,169.6z"/>
			<path class="st0" d="M124.6,39.6c0.2,0.3,0.3,0.7,0.3,1.1c0,0.9-0.6,1.7-1.6,2.5v-2.5v-0.3c0-0.5,0.4-0.9,0.9-0.9
				C124.3,39.5,124.5,39.5,124.6,39.6z"/>
			<path class="st0" d="M124.5,283.8c0.1,0.4,0,0.8-0.4,1c-0.5,0-0.9-0.4-0.9-0.9h0.9C124.3,283.9,124.4,283.9,124.5,283.8z"/>
			<path class="st0" d="M124.5,283.7c0,0,0,0.1,0,0.1c-0.1,0-0.2,0.1-0.3,0.1h-0.9v-0.8v-1h0.5L124.5,283.7z"/>
			<path class="st0" d="M124.9,282.4c-0.2-0.2-0.4-0.3-0.6-0.3h-0.5l-0.5-1.1v-0.5C124.1,281,124.7,281.7,124.9,282.4z"/>
			<path class="st0" d="M124.6,39.6c-0.1-0.1-0.2-0.1-0.4-0.1c-0.5,0-0.9,0.4-0.9,0.9v0.3h-0.2c0-3.1-20.1-7.4-52.9-7.4
				c-19.1,0-33.9,1.5-42.9,3.3l-0.8-1.7c11.5-2.4,29.7-3.4,43.7-3.4C91,31.5,121.2,33.6,124.6,39.6z"/>
			<path class="st0" d="M124.2,83.9c0.5,0,0.9,0.4,0.9,0.9s-0.4,0.9-0.9,0.9h-0.9v-1.8H124.2z"/>
			<path class="st0" d="M124.2,284.8c0.2,0,0.3-0.1,0.4-0.1c-4.2,6.1-34,8.3-54.4,8.3c-20.6,0-50.5-2.3-54.5-8.4
				c0.2,0.1,0.4,0.2,0.6,0.2c0.4,0,0.7-0.3,0.9-0.7h0.5c3.5,3.2,22.8,7,52.5,7c29.8,0,49.2-3.9,52.6-7l0.1,0.3
				c0.1,0.3,0.4,0.5,0.8,0.5c0.1,0,0.3-0.1,0.3,0C124.1,284.9,124.1,284.8,124.2,284.8C124.2,284.8,124.2,284.8,124.2,284.8z"/>
			<path class="st0" d="M124.2,284.8c-0.1,0-0.1,0.1-0.2,0.1c0-0.1-0.2,0-0.3,0c-0.4,0-0.7-0.2-0.8-0.5l-0.1-0.3
				c0.1-0.1,0.1-0.1,0.2-0.2h0.4C123.3,284.4,123.7,284.8,124.2,284.8z"/>
			<path class="st0" d="M123.7,110.5c0.5,0,0.9,0.4,0.9,0.9s-0.4,0.9-0.9,0.9h-0.4v-1.8H123.7z"/>
			<polygon class="st0" points="123.3,281 123.8,282.1 123.3,282.1 			"/>
			<path class="st0" d="M123.3,283.1v0.8h-0.4C123.2,283.6,123.3,283.4,123.3,283.1z"/>
			<path class="st0" d="M123.3,282.1v1c0-0.3-0.2-0.7-0.6-1H123.3z"/>
			<path class="st0" d="M123.3,281v1.1h-0.6c-0.3-0.3-0.7-0.5-1.2-0.8l-1-2.3c1,0.4,1.8,0.8,2.5,1.2L123.3,281z"/>
			<path class="st0" d="M123.3,280.4v0.5l-0.3-0.8C123.1,280.3,123.2,280.4,123.3,280.4z"/>
			<path class="st0" d="M123.3,253.9v4.3L96.2,197l0.1,0c0.1,0.3,0.5,0.6,0.8,0.6c0.5,0,0.8-0.3,0.9-0.8l0,0l1.1,2.6l-0.8,0.7
				c-0.4,0.4-0.4,1,0,1.3c0.1,0.2,0.4,0.3,0.6,0.3s0.5-0.1,0.8-0.2l0.2-0.2L123.3,253.9z"/>
			<polygon class="st0" points="123.3,176.1 123.3,178.6 100,201.2 99.2,199.3 			"/>
			<polygon class="st1" points="123.3,172.2 123.3,176.1 99.2,199.3 98,196.7 			"/>
			<path class="st0" d="M123.3,169.6v2.6L98,196.7l0,0c0,0,0-0.1,0-0.1v-2.5L123.3,169.6z"/>
			<polygon class="st0" points="123.3,112.3 123.3,113.5 98,138.9 98,136.3 121.9,112.3 			"/>
			<polygon class="st0" points="123.3,110.5 123.3,112.3 121.9,112.3 122.7,111.5 121.7,110.5 			"/>
			<polygon class="st0" points="123.3,109.6 123.3,110.5 121.7,110.5 98,87 98,85.7 99.4,85.7 			"/>
			<path class="st0" d="M123.3,83.9v1.8H99.4l-0.3-0.3c1.1,0.1,2.5,0.2,4.1,0.2c3.4,0,7.5-0.3,11.4-1.4c0.3-0.1,0.7-0.2,1-0.3H123.3
				z"/>
			<path class="st1" d="M123.3,79.6v4.3h-7.7C118.4,83,121.1,81.6,123.3,79.6z"/>
			<path class="st0" d="M123.3,76.9v2.7c-2.2,2-4.9,3.4-7.7,4.3h-18l-0.1-0.1c-0.2-0.1-0.3-0.2-0.5-0.2l0-0.1
				c0.6,0.1,1.2,0.1,1.8,0.2C103,83.9,117.2,84.5,123.3,76.9z"/>
			<path class="st0" d="M123.3,40.7v2.5c-6.8,4.9-33.4,6.7-52.5,6.7v-0.8c0-0.5-0.4-0.9-0.9-0.9v-0.1c0.1,0,0.2,0,0.3,0
				c32.8,0,52.9-4.3,52.9-7.4H123.3z"/>
			<path class="st0" d="M123.3,283.1c0,0.3-0.1,0.5-0.4,0.8h-0.2l-0.8-1.8h0.8C123.1,282.4,123.3,282.8,123.3,283.1z"/>
			<path class="st0" d="M108.8,248.2l14.1,32c-0.7-0.4-1.5-0.8-2.5-1.2l-13-29.4h0c0.5,0,0.9-0.4,0.9-0.9c0-0.1,0-0.2-0.1-0.3
				L108.8,248.2z"/>
			<path class="st0" d="M122.7,283.9h0.2c-0.1,0-0.1,0.1-0.2,0.2L122.7,283.9z"/>
			<path class="st0" d="M122.7,282.1h-0.8l-0.4-0.8C122,281.6,122.4,281.8,122.7,282.1z"/>
			<polygon class="st0" points="122.7,111.5 121.9,112.3 98,112.3 98,110.5 121.7,110.5 			"/>
			<path class="st0" d="M121.9,282.1l0.8,1.8H76.8c-0.3,0-0.6-0.1-0.7-0.4c-0.2-0.2-0.2-0.5-0.1-0.8l1.7-5.7l1.7-1.7
				c0.2,0,0.4,0,0.6,0l-2,6.8H121.9z"/>
			<path class="st0" d="M120.5,279l1,2.3c-4.9-2.6-19.6-5.3-41.4-6l0.2-0.8c0.1-0.4,0-0.7-0.3-0.9C95.3,274,112.5,275.7,120.5,279z"
				/>
			<path class="st0" d="M97.6,83.9h18c-0.3,0.1-0.7,0.2-1,0.3c-3.9,1.1-8,1.4-11.4,1.4c-1.5,0-2.9-0.1-4.1-0.2L97.6,83.9z"/>
			<path class="st0" d="M97.4,222.2l11.4,26l-0.4,0.2c-0.1-0.3-0.4-0.6-0.8-0.6h-0.8L95.8,223h0.7C97,223,97.3,222.7,97.4,222.2z"/>
			<path class="st0" d="M108.4,248.3c0.1,0.1,0.1,0.2,0.1,0.3c0,0.5-0.4,0.9-0.9,0.9h0l-0.8-1.8h0.8
				C108,247.8,108.3,248,108.4,248.3z"/>
			<path class="st0" d="M107.6,249.6l-36.8,0v-0.7c0.3-0.3,0.3-0.8,0.1-1.1l35.9,0L107.6,249.6z"/>
			<path class="st0" d="M99.2,199.3l0.8,1.9l-0.2,0.2c-0.3,0.1-0.6,0.2-0.8,0.2s-0.5-0.1-0.6-0.3c-0.4-0.3-0.4-0.9,0-1.3L99.2,199.3
				z"/>
			<path class="st0" d="M99.4,85.7H98v-0.4c0.2,0,0.4,0,0.6,0.1c0.2,0,0.3,0,0.5,0L99.4,85.7z"/>
			<path class="st0" d="M97.6,83.9l1.5,1.5c-0.2,0-0.4,0-0.5,0c-0.2,0-0.4,0-0.6-0.1V85c0-0.5-0.4-0.9-0.9-0.9s-0.9,0.4-0.9,0.9v0.2
				C95.8,85.1,95.4,85,95,85l1.1-1.1H97.6z"/>
			<path class="st0" d="M98,196.7L98,196.7C98,196.7,98,196.7,98,196.7L98,196.7z"/>
			<path class="st0" d="M98,194.1v2.5c0,0,0,0,0,0.1l-0.8-1.8L98,194.1z"/>
			<path class="st0" d="M98,138.9v55.2l-0.8,0.8l-1-2.3v-54.2h0.1c0,0.2,0.1,0.4,0.2,0.7c0.4,0.4,0.9,0.4,1.3,0L98,138.9z"/>
			<path class="st0" d="M98,136.3v2.6l-0.2,0.2c-0.4,0.4-0.9,0.4-1.3,0c-0.2-0.2-0.2-0.4-0.2-0.7s0.1-0.4,0.2-0.6L98,136.3z"/>
			<path class="st0" d="M98,112.3v24l-1.5,1.5c-0.2,0.2-0.2,0.4-0.2,0.6h-0.1v-26.1H98z"/>
			<rect x="96.2" y="110.5" class="st0" width="1.8" height="1.8"/>
			<polygon class="st0" points="98,87 98,110.5 96.2,110.5 96.2,86.2 96.7,85.7 			"/>
			<polygon class="st0" points="98,85.7 98,87 96.7,85.7 			"/>
			<path class="st0" d="M98,85.3v0.4h-1.3h-0.5v-0.5C96.8,85.2,97.4,85.3,98,85.3z"/>
			<path class="st0" d="M98,85v0.3c-0.6,0-1.2-0.1-1.8-0.2V85c0-0.5,0.4-0.9,0.9-0.9S98,84.5,98,85z"/>
			<path class="st0" d="M97.2,194.9l0.8,1.8c0,0,0,0,0,0.1l-0.2,0.2c-0.2,0.1-0.4,0.2-0.7,0.2c-0.5,0-0.9-0.4-0.9-0.9
				c0-0.2,0.1-0.5,0.3-0.6L97.2,194.9z"/>
			<path class="st0" d="M97.8,196.9l0.2-0.2c-0.1,0.4-0.4,0.8-0.9,0.8c-0.4,0-0.7-0.2-0.8-0.6c0-0.1-0.1-0.2-0.1-0.3v-0.4
				c0,0.5,0.4,0.9,0.9,0.9C97.4,197.1,97.6,197,97.8,196.9z"/>
			<path class="st0" d="M97.6,83.9h-1.5l0.1-0.1c0.2-0.2,0.5-0.3,0.8-0.2C97.2,83.6,97.3,83.7,97.6,83.9L97.6,83.9z"/>
			<path class="st0" d="M97.4,222.1c0,0,0,0.1,0,0.1l-0.4-0.9C97.2,221.5,97.4,221.8,97.4,222.1z"/>
			<path class="st0" d="M97,221.4l0.4,0.9c-0.1,0.4-0.4,0.8-0.9,0.8h-0.7l-0.8-1.8h1.5C96.7,221.2,96.9,221.3,97,221.4z"/>
			<path class="st0" d="M96.2,192.6l1,2.3l-0.7,0.7c-0.2,0.1-0.3,0.4-0.3,0.6V192.6z"/>
			<path class="st0" d="M97,83.4l0,0.1c-0.3,0-0.6,0-0.8,0.2l-0.1,0.1h-7.5c-4.7-0.9-9.2-2.2-13.7-3.4c-1.4-0.4-2.7-0.8-4.1-1.1
				v-1.8c1.5,0.4,3.1,0.8,4.6,1.3C82.4,80.6,89.7,82.7,97,83.4z"/>
			<path class="st0" d="M70.8,161.9L97,221.4c-0.1-0.1-0.3-0.2-0.5-0.2H95l-24.2-55v-2.7c0.1-0.1,0.1-0.3,0.1-0.4
				c0-0.2,0-0.3-0.1-0.4V161.9z"/>
			<polygon class="st0" points="96.7,85.7 96.2,86.2 96.2,85.7 			"/>
			<path class="st0" d="M96.3,196.9L96.3,196.9l-25.5-57.4v-4.4l25.4,57.5v3.6v0.4C96.2,196.7,96.2,196.8,96.3,196.9z"/>
			<polygon class="st0" points="96.2,110.5 96.2,112.3 70.8,112.3 70.8,111.2 71.6,110.5 			"/>
			<polygon class="st0" points="96.2,85.7 96.2,86.2 71.6,110.5 70.8,110.5 70.8,108.8 94.3,85.7 			"/>
			<path class="st0" d="M96.2,85.1v0.5h-1.9L95,85C95.4,85,95.8,85.1,96.2,85.1z"/>
			<path class="st0" d="M96.1,83.9L95,85c-2.1-0.3-4.3-0.7-6.4-1.1H96.1z"/>
			<polygon class="st0" points="95.8,223 70.8,223 70.8,222.5 72.1,221.2 95,221.2 			"/>
			<path class="st0" d="M95,85l-0.7,0.7H70.8v-1.8h17.8C90.7,84.3,92.8,84.7,95,85z"/>
			<path class="st1" d="M88.6,83.9H70.8v-4.5c1.4,0.3,2.7,0.7,4.1,1.1C79.3,81.7,83.9,83,88.6,83.9z"/>
			<path class="st0" d="M80,273.6c0.2,0.2,0.3,0.6,0.3,0.9l-0.2,0.8c-0.2,0-0.4,0-0.6,0l0.2-0.2l0.1-0.1c0.3-0.4,0.3-1-0.1-1.3
				c0,0,0,0-0.1,0C79.8,273.5,79.9,273.6,80,273.6z"/>
			<path class="st0" d="M80,273.6c-0.1,0-0.3,0-0.4,0c-0.1-0.1-0.2-0.1-0.4-0.1c0.1,0,0.3,0,0.5,0C79.8,273.4,79.9,273.5,80,273.6z"
				/>
			<path class="st0" d="M79.7,273.6c0.4,0.3,0.4,0.9,0.1,1.3l-0.1,0.1l-0.2,0.2c-0.4,0-0.8,0-1.2,0l0.4-1.2c0-0.2,0.2-0.4,0.3-0.5
				C79.1,273.5,79.4,273.5,79.7,273.6C79.7,273.6,79.7,273.6,79.7,273.6z"/>
			<path class="st0" d="M79.6,273.5c-0.2,0-0.5,0-0.7,0c0.1-0.1,0.2-0.1,0.3-0.1c0,0,0,0,0,0C79.4,273.4,79.5,273.5,79.6,273.5z"/>
			<path class="st0" d="M79.4,275.2l-1.7,1.7l0.5-1.7C78.7,275.2,79.1,275.2,79.4,275.2z"/>
			<path class="st0" d="M78.6,273.5c0.2-0.1,0.4-0.1,0.6-0.1c-0.1,0-0.2,0.1-0.3,0.1C78.8,273.5,78.7,273.5,78.6,273.5z"/>
			<path class="st0" d="M78.6,273.5c0.1,0,0.2,0,0.3,0c-0.2,0.1-0.3,0.3-0.3,0.5l-0.4,1.2c-0.4,0-0.9,0-1.3,0l1.5-1.5
				C78.5,273.6,78.5,273.6,78.6,273.5z"/>
			<path class="st0" d="M78.6,273.5c-0.1,0-0.2,0.1-0.2,0.2l-1.5,1.5c-2,0-4-0.1-6.1-0.1v-1.7C73.3,273.4,75.9,273.4,78.6,273.5z"/>
			<path class="st0" d="M78.2,275.2l-0.5,1.7l-7,6.9c-0.1,0.1-0.3,0.1-0.5,0.2c0.4-0.1,0.7-0.4,0.7-0.9c0-0.1,0-0.3-0.1-0.4v-1.6
				l6.1-6C77.3,275.2,77.8,275.2,78.2,275.2z"/>
			<path class="st0" d="M74.4,217.6c0.2,0.2,0.2,0.4,0.2,0.6s-0.1,0.4-0.2,0.6l-2.3,2.3h-1.3V220l2.4-2.4
				C73.5,217.2,74.1,217.2,74.4,217.6z"/>
			<polygon class="st0" points="72.1,221.2 70.8,222.5 70.8,221.2 			"/>
			<polygon class="st0" points="71.6,110.5 70.8,111.2 70.8,110.5 			"/>
			<path class="st0" d="M70.9,247.8c0.2,0.4,0.2,0.8-0.1,1.1L70.9,247.8L70.9,247.8z"/>
			<path class="st0" d="M70.8,247.6c0,0,0.1,0.1,0.1,0.2h-0.1V247.6z"/>
			<path class="st0" d="M70.8,162.7c0.1,0.1,0.1,0.3,0.1,0.4c0,0.1,0,0.3-0.1,0.4V162.7z"/>
			<path class="st0" d="M70.8,282.8c0.1,0.1,0.1,0.3,0.1,0.4c0,0.4-0.3,0.8-0.7,0.9c-0.1,0-0.2,0-0.2,0c-0.4,0-0.7-0.2-0.8-0.6
				c0.2,0.2,0.4,0.4,0.7,0.4c0.5,0,0.9-0.4,0.9-0.9V282.8z"/>
			<path class="st0" d="M70.8,282.8v0.2c0,0.5-0.4,0.9-0.9,0.9c-0.3,0-0.6-0.2-0.7-0.4c0,0,0,0,0,0c0-0.1-0.1-0.2-0.1-0.3
				c0-0.2,0.1-0.5,0.3-0.6l0.3-0.3H70C70.3,282.3,70.7,282.5,70.8,282.8z"/>
			<path class="st0" d="M70.8,281.2v1.6c-0.2-0.3-0.5-0.5-0.8-0.5h-0.3L70.8,281.2z"/>
			<path class="st0" d="M70.8,275.1v6.1l-1.1,1.1H69v-7.2c0.4,0,0.8,0,1.2,0C70.4,275.1,70.6,275.1,70.8,275.1z"/>
			<path class="st0" d="M70.8,273.4v1.7c-0.2,0-0.4,0-0.6,0c-0.4,0-0.8,0-1.2,0v-1.7c0.4,0,0.8,0,1.2,0
				C70.4,273.4,70.6,273.4,70.8,273.4z"/>
			<path class="st0" d="M70.8,249.6v23.8c-0.2,0-0.4,0-0.6,0c-0.4,0-0.8,0-1.2,0v-22.7l1.1-1.1H70.8z"/>
			<polygon class="st0" points="70.8,248.9 70.8,249.6 70.1,249.6 			"/>
			<polygon class="st0" points="70.8,247.8 70.8,248.9 70.1,249.6 69,249.6 69,248.1 69.3,247.8 			"/>
			<path class="st0" d="M70.8,247.6v0.2h-1.5l0.2-0.2C69.9,247.2,70.4,247.2,70.8,247.6z"/>
			<path class="st0" d="M70.8,223v24.6c-0.4-0.4-0.9-0.4-1.3,0l-0.2,0.2H69v-23.5l1.3-1.3H70.8z"/>
			<polygon class="st0" points="70.8,222.5 70.8,223 70.3,223 			"/>
			<polygon class="st0" points="70.8,221.2 70.8,222.5 70.3,223 69,223 69,221.8 69.6,221.2 			"/>
			<polygon class="st0" points="70.8,220 70.8,221.2 69.6,221.2 			"/>
			<path class="st0" d="M70.8,166.2V220l-1.2,1.2H69v-49c0.8-2.2,1.2-4.6,1.3-7L70.8,166.2z"/>
			<path class="st0" d="M70.8,163.5v2.7l-0.5-1c0-0.4,0-0.9,0-1.3C70.6,163.8,70.7,163.7,70.8,163.5z"/>
			<path class="st0" d="M70.8,162.7v0.8c-0.1,0.2-0.2,0.3-0.4,0.4c0-0.1,0-0.2,0-0.3c0-0.5-0.4-0.9-0.9-0.9c-0.1,0-0.2,0-0.2,0
				l-0.2-0.5h1C70.3,162.2,70.7,162.4,70.8,162.7z"/>
			<path class="st0" d="M70.8,161.9v0.8c-0.2-0.3-0.5-0.5-0.8-0.5h-1l0,0v-4.3L70.8,161.9z"/>
			<polygon class="st0" points="70.8,139.5 70.8,161.9 69,157.8 69,135.5 			"/>
			<polygon class="st0" points="70.8,135.1 70.8,139.5 69,135.5 69,131 			"/>
			<polygon class="st0" points="70.8,112.3 70.8,135.1 69,131 69,113 69.7,112.3 			"/>
			<polygon class="st0" points="70.8,111.2 70.8,112.3 69.7,112.3 			"/>
			<polygon class="st0" points="70.8,110.5 70.8,111.2 69.7,112.3 69,112.3 69,110.6 69.1,110.5 			"/>
			<polygon class="st0" points="70.8,108.8 70.8,110.5 69.1,110.5 			"/>
			<polygon class="st0" points="70.8,85.7 70.8,108.8 69.1,110.5 69,110.5 69,85.7 			"/>
			<rect x="69" y="83.9" class="st0" width="1.8" height="1.8"/>
			<path class="st0" d="M70.8,79.4v4.5H69v-5C69.6,79.1,70.2,79.2,70.8,79.4z"/>
			<path class="st0" d="M70.8,77.5v1.8c-0.6-0.2-1.2-0.3-1.8-0.5v-1.8C69.6,77.2,70.2,77.4,70.8,77.5z"/>
			<path class="st0" d="M70.8,49.9v27.6c-0.6-0.2-1.2-0.3-1.8-0.5V49.9c0.4,0,0.8,0,1.2,0C70.4,49.9,70.6,49.9,70.8,49.9z"/>
			<path class="st0" d="M70.8,49.1v0.8c-0.2,0-0.4,0-0.6,0c-0.4,0-0.8,0-1.2,0v-0.8c0-0.5,0.4-0.9,0.9-0.9S70.8,48.6,70.8,49.1z"/>
			<path class="st0" d="M70.4,163.6c0,0.1,0,0.2,0,0.3c-0.1,0.1-0.2,0.1-0.4,0.1h-0.2l-0.5-1.3c0.1,0,0.2,0,0.2,0
				C70,162.7,70.4,163.1,70.4,163.6z"/>
			<path class="st0" d="M70.4,163.9c0,0.4,0,0.9,0,1.3l-0.5-1.2H70C70.1,164,70.3,164,70.4,163.9z"/>
			<path class="st0" d="M69.8,164l0.5,1.2c-0.1,2.4-0.6,4.8-1.3,7V164H69.8z"/>
			<polygon class="st0" points="70.3,223 69,224.3 69,223 			"/>
			<polygon class="st0" points="70.1,249.6 69,250.7 69,249.6 			"/>
			<path class="st0" d="M70,284.1H17.7c-0.2-0.2-0.4-0.4-0.5-0.6v-0.8c0.1-0.1,0.1-0.3,0.3-0.4H69v0.7c0,0.2,0.1,0.4,0.2,0.5
				c0,0,0,0,0,0C69.3,283.9,69.6,284.1,70,284.1z"/>
			<path class="st0" d="M69.9,48.1v0.1c-0.5,0-0.9,0.4-0.9,0.9v0.8c-11.7,0-26-0.8-36.9-2.4l-0.9-2C40.3,47,53.5,48.1,69.9,48.1z"/>
			<path class="st0" d="M69.3,162.7l0.5,1.3H69v-1.1C69.1,162.8,69.2,162.8,69.3,162.7z"/>
			<polygon class="st0" points="69.7,112.3 69,113 69,112.3 			"/>
			<path class="st0" d="M69.7,282.3l-0.3,0.3c-0.2,0.1-0.3,0.4-0.3,0.6c0,0.1,0,0.2,0.1,0.3c-0.1-0.1-0.2-0.3-0.2-0.5v-0.7H69.7z"/>
			<polygon class="st0" points="69.6,221.2 69,221.8 69,221.2 			"/>
			<polygon class="st0" points="69.3,247.8 69,248.1 69,247.8 			"/>
			<path class="st0" d="M69,162.2l0.2,0.5c-0.1,0-0.2,0.1-0.3,0.1L69,162.2L69,162.2z"/>
			<polygon class="st0" points="69.1,110.5 69,110.6 69,110.5 			"/>
			<polygon class="st0" points="69,162.2 69,162.2 69,162.2 			"/>
			<path class="st0" d="M69,273.4v1.7c-9.9,0-18.7,0.5-26,1.2v0c0.2,0,0.5-0.1,0.7-0.3l1.6-1.6C53.2,273.7,61.7,273.4,69,273.4z"/>
			<path class="st0" d="M69,249.6v1.1l-23.7,23.7c-0.6,0.1-1.1,0.1-1.7,0.2v-1.1l23.9-23.9H69z"/>
			<polygon class="st0" points="69,248.1 69,249.6 67.5,249.6 			"/>
			<polygon class="st0" points="69,247.8 69,248.1 67.5,249.6 43.6,249.5 43.6,247.7 			"/>
			<path class="st0" d="M69,223v1.3l-2.9,2.9c-0.1,0.1-0.3,0.2-0.6,0.2c-0.5,0-0.9-0.4-0.9-0.9c0-0.2,0.1-0.4,0.3-0.6l2.9-2.9H69z"
				/>
			<polygon class="st0" points="69,221.8 69,223 67.8,223 			"/>
			<polygon class="st0" points="69,221.2 69,221.8 67.8,223 43.6,223 43.6,221.5 43.6,221.2 			"/>
			<path class="st0" d="M69,164v8.2c-3.6,10.7-13.6,18.5-25.4,18.8v-1.8c13.7-0.3,24.8-11.5,25-25.2H69z"/>
			<path class="st0" d="M69,162.8v1.1h-0.4c0-0.1,0-0.3,0-0.4C68.6,163.3,68.8,163,69,162.8z"/>
			<path class="st0" d="M69,162.2v0.7c-0.2,0.2-0.4,0.4-0.4,0.8c0,0.1,0,0.3,0,0.4H43.8c0-0.2,0-0.4,0-0.6l-0.6-1.2H69z"/>
			<polygon class="st0" points="69,157.8 69,162.2 53.9,127.9 55.2,126.6 			"/>
			<polygon class="st0" points="69,131 69,135.5 62.1,119.8 63.5,118.5 			"/>
			<polygon class="st0" points="69,112.3 69,113 63.5,118.5 62.7,116.8 67.3,112.3 			"/>
			<polygon class="st0" points="69,110.6 69,112.3 67.3,112.3 			"/>
			<polygon class="st0" points="69,110.5 69,110.6 67.3,112.3 60.7,112.3 59.9,110.5 			"/>
			<path class="st0" d="M69,83.9v1.8H49l-0.7-1.5c0.2-0.2,0.4-0.2,0.6-0.2H69z"/>
			<path class="st1" d="M69,78.9v5H48.9c-0.2,0-0.5,0.1-0.6,0.2l-4-9.1c4.1,0.1,8.4,0.6,12.9,1.3C61.2,77.1,65.1,77.9,69,78.9z"/>
			<path class="st0" d="M69,77.1v1.8c-3.9-1-7.8-1.8-11.8-2.5c-4.5-0.8-8.9-1.2-12.9-1.3l-0.8-1.8c4.4,0.1,9,0.5,14,1.3
				C61.3,75.3,65.2,76.1,69,77.1z"/>
			<path class="st1" d="M43.8,164h24.8c-0.2,13.7-11.3,24.9-25,25.2v-24.9C43.7,164.2,43.7,164.1,43.8,164z"/>
			<polygon class="st0" points="62.7,116.8 63.5,118.5 62.1,119.8 61.3,118.1 			"/>
			<path class="st0" d="M62.7,116.8l-1.4,1.3l-2.8-6.3l0.1-0.1c0.1,0.3,0.5,0.6,0.8,0.6h1.2L62.7,116.8z"/>
			<polygon class="st0" points="61.3,118.1 62.1,119.8 55.2,126.6 54.5,124.9 			"/>
			<path class="st0" d="M60.7,112.3h-1.2c-0.4,0-0.7-0.2-0.8-0.6c0-0.1-0.1-0.2-0.1-0.3c0-0.5,0.4-0.9,0.9-0.9h0.4L60.7,112.3z"/>
			<path class="st0" d="M49,85.7l10.9,24.8h-0.4c-0.5,0-0.9,0.4-0.9,0.9c0,0.1,0,0.2,0.1,0.3l-0.1,0.1L42.3,75.1c0.6,0,1.3,0,2,0
				l4,9.1c-0.2,0.2-0.3,0.4-0.3,0.7C48,85.3,48.4,85.7,49,85.7L49,85.7z"/>
			<polygon class="st0" points="54.5,124.9 55.2,126.6 53.9,127.9 53.2,126.2 			"/>
			<path class="st0" d="M48.3,111l6.1,13.9l-1.3,1.3L47,112.3h0.4c0.5,0,0.9-0.4,0.9-0.9c0-0.1,0-0.2-0.1-0.3L48.3,111z"/>
			<polygon class="st0" points="53.2,126.2 53.9,127.9 35.3,146.3 34.4,144.6 			"/>
			<path class="st0" d="M49,85.7L49,85.7c-0.6,0-1-0.4-1-0.9c0-0.3,0.1-0.5,0.3-0.7L49,85.7z"/>
			<path class="st0" d="M32.8,75.7L48.3,111l-0.1,0.1c-0.1-0.3-0.5-0.6-0.8-0.6h-1.2L31,75.9C31.6,75.8,32.2,75.7,32.8,75.7z"/>
			<path class="st0" d="M48.2,111c0,0.1,0.1,0.2,0.1,0.3c0,0.5-0.4,0.9-0.9,0.9H47l-0.8-1.8h1.2C47.8,110.5,48.1,110.7,48.2,111z"/>
			<path class="st0" d="M47,112.3H18.5l-0.8-1.6c0-0.1-0.1-0.1-0.1-0.2h28.7L47,112.3z"/>
			<path class="st0" d="M45.3,274.4l-1.6,1.6c-0.2,0.2-0.5,0.3-0.7,0.3s-0.5-0.1-0.6-0.3l-1.2-1.2c0.2,0,0.4,0,0.6-0.1v0.1
				c0,0.5,0.4,0.9,0.9,0.9s0.9-0.4,0.9-0.9v-0.2C44.2,274.5,44.7,274.5,45.3,274.4z"/>
			<path class="st0" d="M43.5,73.3l0.8,1.8c-0.7,0-1.3,0-2,0l-0.8-1.8C42.2,73.3,42.8,73.3,43.5,73.3z"/>
			<path class="st0" d="M43.7,163.4c0.1,0.2,0.1,0.4,0,0.6h-0.2v-0.4c0-0.4-0.4-0.8-0.8-0.8c-0.5-0.1-0.9,0.3-1,0.8l-0.7-1.4h2
				L43.7,163.4z"/>
			<path class="st0" d="M43.6,164h0.2c0,0.1-0.1,0.2-0.2,0.3V164z"/>
			<path class="st0" d="M43.6,274.6v0.2c0,0.5-0.4,0.9-0.9,0.9s-0.9-0.4-0.9-0.9v-0.1C42.4,274.7,43,274.6,43.6,274.6z"/>
			<path class="st0" d="M43.6,273.5v1.1c-0.6,0-1.2,0.1-1.8,0.2v-1.8l1.2,1.2L43.6,273.5z"/>
			<polygon class="st0" points="43.6,249.5 43.6,273.5 43,274.1 41.8,272.9 41.8,249.5 			"/>
			<rect x="41.8" y="247.7" class="st0" width="1.8" height="1.8"/>
			<polygon class="st0" points="43.6,223 43.6,247.7 41.8,247.7 41.8,223.7 42.5,223 42.5,223 			"/>
			<path class="st0" d="M43.6,221.5v1.5h-1.1l0.8-0.8C43.5,222,43.6,221.7,43.6,221.5z"/>
			<path class="st0" d="M43.6,221.2v0.3C43.6,221.4,43.6,221.3,43.6,221.2L43.6,221.2z"/>
			<path class="st0" d="M43.6,191v30.2h-0.1c0-0.1-0.1-0.2-0.2-0.3c-0.4-0.4-1-0.4-1.3,0l-0.2,0.2V191c0.4,0,0.8,0,1.2,0
				C43.2,191,43.4,191,43.6,191z"/>
			<path class="st0" d="M43.6,189.2v1.8c-0.2,0-0.4,0-0.6,0c-0.4,0-0.8,0-1.2,0v-1.8c0.4,0,0.8,0,1.2,0
				C43.2,189.2,43.4,189.2,43.6,189.2z"/>
			<path class="st0" d="M43.6,164.3v24.9c-0.2,0-0.4,0-0.6,0c-0.4,0-0.8,0-1.2,0V164H42l0.1,0.2c0.1,0.3,0.5,0.5,0.8,0.5
				c0.1,0,0.2,0,0.4-0.1C43.4,164.5,43.5,164.4,43.6,164.3z"/>
			<path class="st0" d="M43.6,164v0.3c-0.1,0.1-0.2,0.2-0.3,0.3c-0.2,0.1-0.3,0.1-0.4,0.1c-0.3,0-0.7-0.2-0.8-0.5L42,164H43.6z"/>
			<path class="st0" d="M43.6,163.6v0.4H42l-0.2-0.4v0c0.1-0.5,0.5-0.9,1-0.8C43.2,162.8,43.6,163.2,43.6,163.6z"/>
			<path class="st0" d="M43.5,221.2c0.1,0.1,0.1,0.2,0.1,0.3c0,0.2-0.1,0.5-0.3,0.7l-0.8,0.8h0h0c-0.3,0-0.5-0.1-0.7-0.3v-1.1
				c0.2-0.2,0.4-0.3,0.7-0.3H43.5z"/>
			<path class="st0" d="M43.5,221.2h-1c-0.3,0-0.5,0.1-0.7,0.3v-0.4l0.2-0.2c0.3-0.4,0.9-0.4,1.3,0C43.4,221,43.5,221.1,43.5,221.2z
				"/>
			<path class="st0" d="M32.1,47.5l11.4,25.8c-0.7,0-1.3,0-2,0L29.9,47.1C30.6,47.3,31.4,47.4,32.1,47.5z"/>
			<polygon class="st0" points="35.3,146.3 43.1,162.2 41.1,162.2 33.9,147.6 			"/>
			<path class="st0" d="M43,276.3L43,276.3c-14.6,1.4-23.6,3.9-25.5,6h-0.3v-1.9c3.9-2.7,13.2-4.5,24-5.6l1.2,1.2
				C42.5,276.2,42.8,276.3,43,276.3z"/>
			<path class="st0" d="M42.5,223l-0.7,0.8v-1.1C42,222.9,42.2,223,42.5,223L42.5,223z"/>
			<path class="st0" d="M42.3,75.1c-3.3,0-6.5,0.2-9.5,0.6L32,74c3-0.4,6.2-0.7,9.5-0.7L42.3,75.1z"/>
			<polygon class="st0" points="41.8,163.6 42,164 41.8,164 			"/>
			<path class="st0" d="M41.8,163.6L41.8,163.6v0.4H17.4c0-0.1,0-0.1,0-0.2c0,0,0.1,0,0.1,0l1.6-1.6h22L41.8,163.6z"/>
			<path class="st0" d="M41.8,272.9v1.8c-0.2,0-0.4,0-0.6,0.1l-24-24.2v-1.1h1.4L41.8,272.9z"/>
			<polygon class="st0" points="41.8,247.7 41.8,249.5 18.6,249.5 17.7,248.6 18.6,247.7 			"/>
			<path class="st0" d="M41.8,222.7v1.1l-23.2,23.9h-1.4v-1.2l24.6-25.4v0.4c-0.1,0.2-0.2,0.4-0.2,0.6
				C41.6,222.3,41.7,222.5,41.8,222.7z"/>
			<path class="st0" d="M41.8,221.5v1.1c-0.1-0.2-0.2-0.4-0.2-0.6C41.6,221.9,41.7,221.7,41.8,221.5z"/>
			<path class="st0" d="M41.8,189.2v1.8c-11.3-0.5-20.9-7.9-24.6-18.2V164h0.2C17.6,177.5,28.4,188.5,41.8,189.2z"/>
			<path class="st1" d="M41.8,164v25.2c-13.4-0.6-24.2-11.6-24.4-25.2H41.8z"/>
			<polygon class="st0" points="34.4,144.6 35.3,146.3 33.9,147.6 33.1,145.9 			"/>
			<polygon class="st0" points="18.5,112.3 34.4,144.6 33.1,145.9 17.2,113.7 17.2,112.3 			"/>
			<polygon class="st0" points="33.9,147.6 19.1,162.2 17.2,162.2 17.2,161.6 33.1,145.9 			"/>
			<path class="st0" d="M32,74l0.8,1.7c-0.6,0.1-1.2,0.2-1.8,0.3l-0.7-1.7C30.8,74.2,31.4,74.1,32,74z"/>
			<path class="st0" d="M31.2,45.5l0.9,2c-0.7-0.1-1.4-0.2-2.1-0.3l-0.9-2C29.8,45.3,30.5,45.4,31.2,45.5z"/>
			<path class="st0" d="M18.9,44.2L32,74c-0.6,0.1-1.2,0.2-1.8,0.3l-13-29.6v-1.5C17.7,43.6,18.2,43.9,18.9,44.2z"/>
			<path class="st0" d="M27.3,36.6l3.9,8.9c-0.8-0.1-1.5-0.2-2.1-0.4L25.5,37C26,36.8,26.6,36.7,27.3,36.6z"/>
			<path class="st0" d="M30.2,74.3l0.7,1.7c-5,0.9-9.6,2.3-13.8,4.5v-2C21.2,76.5,25.5,75.1,30.2,74.3z"/>
			<path class="st0" d="M29.1,45.1l0.9,2c-4.6-0.8-8.5-1.8-11.1-3l-1.2-2.7C18.9,42.7,22.8,44,29.1,45.1z"/>
			<path class="st0" d="M26.5,34.9l0.8,1.7c-0.6,0.1-1.2,0.3-1.8,0.4l-0.7-1.7C25.3,35.2,25.9,35,26.5,34.9z"/>
			<path class="st0" d="M11.8,1.6l14.7,33.3c-0.6,0.1-1.2,0.3-1.8,0.4l-14.1-32C11.3,2.8,11.8,2.2,11.8,1.6z"/>
			<path class="st0" d="M24.7,35.3l0.7,1.7c-5.2,1.2-8,2.5-8.1,3.6l-0.1-0.3c0-0.2-0.1-0.4-0.2-0.6l-0.5-1
				C17.9,37.4,20.8,36.2,24.7,35.3z"/>
			<path class="st0" d="M19.1,162.2l-1.6,1.6c0,0-0.1,0-0.1,0c0-0.1,0-0.2,0-0.2c0-0.2-0.1-0.4-0.2-0.6v-0.8H19.1z"/>
			<path class="st0" d="M17.7,41.5l1.2,2.7c-0.6-0.3-1.2-0.6-1.7-1v-2.8c0,0,0,0,0-0.1l0.1,0.3c0,0,0,0.1,0,0.1
				C17.3,40.9,17.4,41.2,17.7,41.5z"/>
			<polygon class="st0" points="18.6,249.5 17.2,249.5 17.2,247.7 18.6,247.7 17.7,248.6 			"/>
			<path class="st0" d="M17.7,110.7l0.8,1.6h-1.3v-1.8h0.4C17.6,110.6,17.7,110.6,17.7,110.7z"/>
			<path class="st0" d="M17.3,40.6l0.4,0.9c-0.3-0.3-0.4-0.5-0.4-0.8C17.3,40.7,17.3,40.6,17.3,40.6z"/>
			<path class="st0" d="M17.7,284.1h-0.5c0-0.1,0.1-0.2,0.1-0.3v-0.3C17.3,283.7,17.5,283.9,17.7,284.1z"/>
			<path class="st0" d="M17.6,110.5h-0.4v-0.2C17.3,110.3,17.5,110.4,17.6,110.5z"/>
			<path class="st0" d="M17.2,282.3h0.3c-0.1,0.1-0.2,0.3-0.3,0.4V282.3z"/>
			<path class="st0" d="M17.4,163.8c0,0.1,0,0.1,0,0.2h-0.2v-0.1C17.3,163.9,17.3,163.9,17.4,163.8z"/>
			<path class="st0" d="M17.4,163.6c0,0.1,0,0.2,0,0.2c-0.1,0-0.1,0.1-0.2,0.1V163C17.3,163.2,17.4,163.4,17.4,163.6z"/>
			<path class="st0" d="M17.2,283.5v0.3c0,0.1,0,0.2-0.1,0.3h-1c-0.3,0-0.5-0.1-0.7-0.3v-1.1c0.2-0.2,0.4-0.3,0.7-0.3h1.1v0.4
				c-0.1,0.1-0.1,0.3-0.1,0.4S17.1,283.4,17.2,283.5z"/>
			<path class="st0" d="M17.2,282.7v0.8c-0.1-0.1-0.1-0.3-0.1-0.4S17.1,282.8,17.2,282.7z"/>
			<path class="st0" d="M17.2,280.4v1.9h-1.1c-0.3,0-0.5,0.1-0.7,0.3v-0.1C15.6,281.7,16.3,281,17.2,280.4z"/>
			<path class="st0" d="M17.2,250.6v29.8c-0.9,0.7-1.6,1.4-1.8,2.1v-34h0.2c0,0.2,0.1,0.4,0.2,0.6L17.2,250.6z"/>
			<path class="st0" d="M17.2,249.5v1.1l-1.4-1.4c-0.2-0.2-0.2-0.4-0.2-0.6s0.1-0.4,0.2-0.7l1.4-1.4v1.2h-0.5
				c-0.5,0-0.9,0.4-0.9,0.9s0.4,0.9,0.9,0.9H17.2z"/>
			<path class="st0" d="M17.2,247.7v1.8h-0.5c-0.5,0-0.9-0.4-0.9-0.9s0.4-0.9,0.9-0.9H17.2z"/>
			<path class="st0" d="M17.2,172.8v73.7l-1.4,1.4c-0.2,0.2-0.2,0.4-0.2,0.7h-0.2v-84.9h0.2C15.6,166.8,16.2,169.9,17.2,172.8z"/>
			<path class="st0" d="M17.2,164v8.8c-1-2.9-1.6-6-1.6-9.2c0-0.1,0-0.2,0-0.2c0.1,0.4,0.4,0.6,0.9,0.6h0.4H17.2z"/>
			<path class="st0" d="M17.2,163.9L17.2,163.9l-0.3,0.1C17,164,17.1,164,17.2,163.9z"/>
			<path class="st0" d="M17.2,163v0.9c-0.1,0-0.2,0.1-0.3,0.1c-0.5,0-0.9-0.4-0.9-0.9c0-0.1,0-0.2,0.1-0.3c0.1-0.1,0.3-0.1,0.4-0.1
				C16.8,162.7,17,162.8,17.2,163z"/>
			<path class="st0" d="M17.2,162.2v0.8c-0.2-0.2-0.4-0.3-0.7-0.3c-0.2,0-0.3,0-0.4,0.1c0-0.1,0.1-0.3,0.2-0.3l0.3-0.3H17.2z"/>
			<polygon class="st0" points="17.2,161.6 17.2,162.2 16.6,162.2 			"/>
			<path class="st0" d="M17.2,113.7v47.9l-0.6,0.6h-0.1c-0.5,0-0.9,0.4-0.9,0.9c0,0.1,0,0.2,0,0.2c0,0.1,0,0.2,0,0.2h-0.2v-52.2h0.1
				c0,0.5,0.4,0.9,0.9,0.9h0.1L17.2,113.7z"/>
			<polygon class="st0" points="17.2,112.3 17.2,113.7 16.5,112.3 			"/>
			<path class="st0" d="M17.2,110.5v1.8h-0.7l-0.4-0.8c-0.2-0.4-0.1-0.8,0.2-1c0,0,0.1,0,0.1,0H17.2z"/>
			<path class="st0" d="M17.2,110.3v0.2h-0.8c0,0-0.1,0-0.1,0c0.1-0.1,0.2-0.2,0.3-0.2C16.8,110.2,17,110.2,17.2,110.3z"/>
			<path class="st0" d="M17.2,80.4v29.9c-0.2-0.1-0.4-0.1-0.6,0c-0.1,0-0.2,0.1-0.3,0.2c-0.4,0.1-0.8,0.4-0.8,0.9h-0.1V79.7h0.5
				c0,0.2,0,0.3,0.1,0.4C16.2,80.5,16.8,80.7,17.2,80.4z"/>
			<path class="st0" d="M17.2,78.4v2c-0.4,0.3-1,0.1-1.2-0.3c-0.1-0.1-0.1-0.3-0.1-0.4c0-0.3,0.2-0.6,0.4-0.8l0.1-0.1
				C16.7,78.7,16.9,78.5,17.2,78.4z"/>
			<path class="st0" d="M17.2,44.7v33.7c-0.3,0.1-0.5,0.3-0.8,0.4l-0.1,0.1c-0.3,0.1-0.4,0.4-0.4,0.8h-0.5V40.6l0.1,0.2
				c0,0.5,0.2,1,0.6,1.4L17.2,44.7z"/>
			<path class="st0" d="M17.2,43.2v1.5l-1.1-2.4C16.4,42.6,16.8,42.9,17.2,43.2z"/>
			<path class="st0" d="M17.2,40.4v2.8c-0.4-0.3-0.8-0.6-1.1-1l-0.6-1.4c0,0,0-0.1,0-0.1c0-0.4,0.1-0.7,0.3-1
				c0.1-0.1,0.3-0.2,0.5-0.2c0.2,0,0.5,0.1,0.6,0.3L17.2,40.4C17.2,40.4,17.2,40.4,17.2,40.4z"/>
			<path class="st0" d="M17.2,40.3l-0.2-0.6C17.1,39.9,17.2,40.1,17.2,40.3z"/>
			<path class="st0" d="M16.1,284.1h1c-0.1,0.4-0.4,0.7-0.9,0.7c-0.2,0-0.4-0.1-0.6-0.2c-0.1-0.2-0.3-0.5-0.3-0.7c0,0,0,0,0,0v-0.1
				C15.6,284,15.8,284.1,16.1,284.1z"/>
			<path class="st0" d="M16.5,38.7l0.5,1c-0.2-0.2-0.4-0.3-0.6-0.3c-0.2,0-0.4,0.1-0.5,0.2C15.9,39.4,16.2,39,16.5,38.7z"/>
			<path class="st0" d="M16.9,164h-0.4c-0.4,0-0.8-0.3-0.9-0.6c0.1-0.2,0.2-0.4,0.4-0.5c0,0.1-0.1,0.2-0.1,0.3
				C16,163.6,16.4,164,16.9,164z"/>
			<path class="st0" d="M16.6,162.2l-0.3,0.3c-0.1,0.1-0.2,0.2-0.2,0.3c-0.2,0.1-0.4,0.3-0.4,0.5c0-0.1,0-0.2,0-0.2
				c0-0.5,0.4-0.9,0.9-0.9H16.6z"/>
			<path class="st0" d="M16.1,111.5l0.4,0.8h-0.1c-0.5,0-0.9-0.4-0.9-0.9c0-0.5,0.3-0.8,0.8-0.9C16,110.7,15.9,111.1,16.1,111.5z"/>
			<path class="st0" d="M2.2,6.4l14.3,32.3c-0.3,0.3-0.6,0.6-0.7,0.9c-0.2,0.2-0.4,0.4-0.4,0.7v0.2L0.1,5.9C0,5.7,0,5.5,0.1,5.3
				c0,0,0,0.1,0,0.1c0.3,0.7,1.1,1.1,1.9,1C2.1,6.4,2.2,6.4,2.2,6.4z"/>
			<path class="st0" d="M15.5,40.8l0.6,1.4C15.8,41.8,15.5,41.3,15.5,40.8z"/>
			<path class="st0" d="M15.8,39.7c-0.2,0.3-0.3,0.7-0.3,1c0,0,0,0.1,0,0.1l-0.1-0.2v-0.2C15.4,40.1,15.5,39.8,15.8,39.7z"/>
			<path class="st0" d="M15.4,283.9c0.1,0.2,0.2,0.5,0.3,0.7C15.5,284.4,15.4,284.2,15.4,283.9z"/>
			<path class="st0" d="M15.4,283.8v0.1C15.4,283.8,15.4,283.8,15.4,283.8C15.4,283.7,15.4,283.7,15.4,283.8z"/>
			<path class="st0" d="M15.4,282.6v1.1c0,0,0,0,0,0c0,0,0,0,0,0c0-0.2-0.1-0.3-0.1-0.5C15.3,283,15.3,282.8,15.4,282.6
				C15.4,282.7,15.4,282.6,15.4,282.6z"/>
			<path class="st0" d="M15.4,282.5v0.1c0,0,0,0,0,0C15.4,282.6,15.4,282.6,15.4,282.5z"/>
			<path class="st0" d="M15.4,282.7c0,0.2-0.1,0.3-0.1,0.5c0,0.2,0,0.3,0.1,0.5c-0.1-0.1-0.2-0.3-0.2-0.5S15.3,282.8,15.4,282.7z"/>
			<path class="st0" d="M11.7,1c0.1,0.2,0.1,0.4,0.1,0.6l-0.3-0.7c-0.1,0-0.1-0.1-0.1-0.1c-0.2-0.5-0.8-0.6-1.2-0.4
				C9.7,0.6,9.6,1.2,9.8,1.6l0.8,1.7C9.3,4.3,7.5,5,6.7,5.3c-1.2,0.5-2.6,0.8-3.9,1C2.6,6.4,2.4,6.4,2.2,6.4L1.7,5.2
				C1.5,4.8,1.2,4.6,0.9,4.6c-0.1,0-0.2,0-0.4,0.1C0.3,4.8,0.1,5,0.1,5.3c-0.6-2,3.7-3.7,5-4.2c1.3-0.5,2.6-0.8,3.9-1
				C9.5,0,11.2-0.2,11.7,1z M6.1,3.6c1.2-0.4,2.4-1,3.4-1.8C8.2,2,6.9,2.3,5.7,2.8c-1.2,0.4-2.4,1-3.4,1.8C3.6,4.4,4.9,4.1,6.1,3.6z
				"/>
			<path class="st0" d="M11.5,0.9l0.3,0.7c0,0.6-0.5,1.2-1.2,1.8L9.8,1.6c-0.2-0.4-0.1-1,0.4-1.2c0.4-0.2,1-0.1,1.2,0.4
				C11.4,0.8,11.4,0.9,11.5,0.9z"/>
			<path class="st0" d="M2.2,6.4c-0.1,0-0.2,0-0.2,0c-0.8,0.1-1.6-0.3-1.9-1c0,0,0-0.1,0-0.1C0.1,5,0.3,4.8,0.5,4.7
				c0.1,0,0.3-0.1,0.4-0.1c0.4,0,0.7,0.2,0.8,0.6L2.2,6.4z"/>
		</g>
		<g>
		</g>
	</g>
</g>
</svg>
