<?xml version="1.0" encoding="utf-8"?>
<!-- Generator: Adobe Illustrator 25.4.1, SVG Export Plug-In . SVG Version: 6.00 Build 0)  -->
<svg version="1.1" id="Layer_1" xmlns="http://www.w3.org/2000/svg" xmlns:xlink="http://www.w3.org/1999/xlink" x="0px" y="0px"
	 viewBox="0 0 166.1 275.9" style="enable-background:new 0 0 166.1 275.9;" xml:space="preserve">
<style type="text/css">
	.st0{fill:#FEE12B;}
	.st1{fill:#FFFFFF;}
</style>
<g id="Layer_1-2">
	<g id="XMLID_00000108303837191513276870000016971700594299734463_">
		<g>
			<path class="st0" d="M161.2,8.7c0,3.8-3.1,6.9-6.9,6.9c-1.6,0-3.1-0.6-4.3-1.5l5.4-5.5c0.4-0.4,0.4-1,0-1.3c-0.4-0.4-1-0.4-1.3,0
				l-5.4,5.5c-0.9-1.1-1.4-2.6-1.4-4.1c0-3.8,3.1-6.9,6.9-6.9c1.9,0,3.6,0.8,4.9,2C160.4,5.1,161.2,6.8,161.2,8.7z"/>
			<path class="st0" d="M91.7,71.3L65.4,98.2c-2-2.5-2.8-5.9-2.2-9.8c0.9-4.5,3-8.5,6-11.8c3.4-3.7,7.8-6.3,12.9-7.3
				c0.4,0,0.8-0.1,1.1-0.1c0.5-0.1,1-0.1,1.5-0.1C87.2,69,89.7,69.8,91.7,71.3z"/>
			<path class="st0" d="M93,72.5c2.2,2.5,3.1,6,2.5,10.1c-1.4,7.2-6,13.3-12.3,16.7c-2.1,1.1-4.3,1.9-6.6,2.4
				c-3.9,0.6-7.4-0.1-9.9-2.2L93,72.5z"/>
			<path class="st1" d="M166,35.8c0,0.1,0,0.2,0,0.3c0,0.6,0,1.2-3.3,2c0.4-0.5,0.9-1.1,1.3-1.6c0.2-0.2,0.4-0.5,0.6-0.7
				C164.9,35.4,165.5,35.4,166,35.8C165.9,35.7,166,35.7,166,35.8z"/>
			<path class="st1" d="M148.8,12.8l5.4-5.5c0.3-0.4,0.9-0.4,1.3,0c0.4,0.3,0.4,0.9,0,1.3l-5.4,5.5
				C149.5,13.7,149.1,13.3,148.8,12.8z"/>
			<path class="st1" d="M148.7,15.5c-0.5-0.4-0.9-0.8-1.3-1.3l1.4-1.4c0.4,0.5,0.8,0.9,1.3,1.3L148.7,15.5z"/>
			<path class="st1" d="M148.7,15.5l-15.9,16.2c-0.8,0-1.6-0.1-2.5-0.1l17-17.5C147.8,14.6,148.2,15.1,148.7,15.5z"/>
			<path class="st1" d="M166,37l-18.8,22.7c0.1-0.4,0-0.8-0.3-1c-0.2-0.2-0.5-0.4-0.8-0.6c5.5-6.7,11.1-13.4,16.6-20.1
				c3.3-0.7,3.3-1.4,3.3-2c0-0.1,0-0.2,0-0.3c0.2,0.3,0.2,0.4,0.2,0.6C166.2,36.6,166.1,36.8,166,37z"/>
			<path class="st1" d="M154.3,17.5c-2.1,0-4.1-0.8-5.6-2l1.3-1.4c1.2,0.9,2.7,1.5,4.3,1.5c3.8,0,6.9-3.1,6.9-6.9
				c0-1.9-0.8-3.6-2-4.9c-1.3-1.3-3-2-4.9-2c-3.8,0-6.9,3.1-6.9,6.9c0,1.5,0.5,2.9,1.4,4.1l-1.4,1.4c-1.2-1.5-1.9-3.3-1.9-5.4
				c0-4.8,3.9-8.8,8.7-8.8s8.8,3.9,8.8,8.7c0,2.4-1,4.6-2.6,6.2C158.9,16.4,156.7,17.4,154.3,17.5z"/>
			<path class="st1" d="M147.2,59.8c0,0.1-0.1,0.2-0.1,0.2c0,0,0,0,0,0.1c-0.1,0.1-0.2,0.2-0.4,0.3L147.2,59.8z"/>
			<path class="st1" d="M146.9,58.7c0.3,0.2,0.5,0.7,0.3,1c0,0,0,0,0,0l-0.5,0.6c-0.1,0.1-0.3,0.1-0.4,0.1c0.2-0.2,0.3-0.4,0.3-0.7
				c0-0.5-0.4-0.9-0.9-0.9h-0.2c0.2-0.3,0.4-0.5,0.6-0.8C146.4,58.3,146.7,58.5,146.9,58.7z"/>
			<path class="st1" d="M146.6,59.8c0,0.3-0.1,0.5-0.3,0.7c-0.2,0-0.3-0.1-0.4-0.2l-1-0.7c0.2-0.2,0.4-0.5,0.6-0.7h0.2
				C146.2,58.9,146.6,59.3,146.6,59.8z"/>
			<path class="st1" d="M146.3,60.5c0.1,0,0.3,0,0.4-0.1l-12,14.7c0-0.1,0-0.2,0-0.3c0-0.5-0.4-0.9-0.9-0.9h-0.6
				c3.6-4.4,7.2-8.8,10.8-13.2h1.7C145.9,60.7,146.1,60.6,146.3,60.5z"/>
			<path class="st1" d="M145.5,58.9c-0.2,0.2-0.4,0.5-0.6,0.7c-0.3-0.2-0.6-0.4-1.1-0.7H145.5z"/>
			<path class="st1" d="M146.3,60.5c-0.2,0.1-0.4,0.2-0.6,0.2H144c0.3-0.4,0.6-0.7,0.9-1.1l1,0.7C146,60.4,146.1,60.5,146.3,60.5z"
				/>
			<path class="st1" d="M144.9,59.6c-0.3,0.4-0.6,0.7-0.9,1.1h-39.5l1.8-1.8h37.5C144.3,59.1,144.6,59.4,144.9,59.6z"/>
			<path class="st1" d="M163.6,36.1c-3.4-1-15.1-2-32.4-2.7l1.6-1.6c2.9,0.1,5.7,0.2,8.3,0.4c22.6,1.2,24.7,2.6,24.9,3.7
				c0,0-0.1-0.1-0.1-0.1c-0.4-0.3-1-0.3-1.3,0.1c-0.2,0.2-0.4,0.4-0.6,0.7L163.6,36.1z"/>
			<path class="st1" d="M125.7,39c20.3-0.7,34.1-1.8,37.9-2.9l0.4,0.4c-0.4,0.5-0.9,1.1-1.3,1.6c-3.2,0.7-9.4,1.4-21.6,2
				c-5.2,0.3-11,0.6-17.2,0.8L125.7,39z"/>
			<path class="st1" d="M134.2,75.6c0.1-0.2,0.3-0.4,0.4-0.5C134.6,75.3,134.4,75.5,134.2,75.6z"/>
			<path class="st1" d="M131.7,75.7c0.5-0.6,1-1.2,1.5-1.8h0.6c0.5,0,0.9,0.4,0.9,0.9c0,0.1,0,0.2,0,0.3c-0.2,0.2-0.3,0.4-0.4,0.5
				c-0.1,0.1-0.3,0.1-0.4,0.1H131.7z"/>
			<path class="st1" d="M132.8,31.7l-1.6,1.6c-0.8,0-1.6-0.1-2.5-0.1l1.6-1.6C131.2,31.7,132,31.7,132.8,31.7z"/>
			<path class="st1" d="M131.2,33.4l-5.5,5.7c-0.9,0-1.8,0.1-2.7,0.1l5.7-5.8C129.6,33.3,130.4,33.3,131.2,33.4z"/>
			<path class="st1" d="M125.7,39l-1.8,1.8c-0.9,0-1.8,0.1-2.7,0.1l1.8-1.8C124,39.1,124.8,39.1,125.7,39z"/>
			<path class="st1" d="M123.9,40.9l-9.7,9.9c0,0,0,0,0,0c-0.9,0.1-1.9,0.2-2.8,0.3l9.9-10.1C122.2,40.9,123,40.9,123.9,40.9z"/>
			<polygon class="st1" points="118.8,75.7 91.9,107.7 90.6,106.4 116.4,75.7 			"/>
			<path class="st1" d="M118.7,74.4c0.2,0.2,0.3,0.4,0.3,0.7c0,0.2-0.1,0.5-0.2,0.6h-2.4l1-1.2c0.2-0.2,0.4-0.3,0.7-0.3
				C118.3,74.2,118.5,74.3,118.7,74.4z"/>
			<path class="st1" d="M118.7,74.4c-0.2-0.1-0.4-0.2-0.6-0.2v-0.3h15.1c-0.5,0.6-1,1.2-1.5,1.8h-12.9c0.1-0.2,0.2-0.4,0.2-0.6
				C119,74.8,118.9,74.6,118.7,74.4z"/>
			<path class="st1" d="M96.3,73.9h21.8v0.3c-0.2,0-0.5,0.1-0.7,0.3l-1,1.2H97C96.8,75.1,96.6,74.5,96.3,73.9z"/>
			<path class="st1" d="M143.9,58.9c-8.9-4.2-15.7-6.2-25-6.2c-1.4,0-2.9,0-4.5,0.2c-0.8,0-1.5,0.1-2.3,0.2l2.1-2.2
				c17.9-1.1,28.2,4.7,31.9,7.3c-0.2,0.3-0.4,0.5-0.6,0.8H143.9z"/>
			<path class="st1" d="M114.2,50.8C114.2,50.8,114.2,50.8,114.2,50.8l-2.1,2.2c-1,0.1-1.9,0.2-2.9,0.4l2.2-2.3
				C112.3,50.9,113.3,50.9,114.2,50.8z"/>
			<path class="st1" d="M112.1,53l-5.8,5.9h-2.6l5.4-5.5C110.2,53.2,111.1,53.1,112.1,53z"/>
			<polygon class="st1" points="106.3,58.9 104.6,60.7 102,60.7 103.8,58.9 			"/>
			<path class="st1" d="M104.6,60.7L94.4,71.1c-0.1-0.2-0.3-0.3-0.4-0.4c-0.3-0.3-0.6-0.6-0.9-0.8l8.9-9.2H104.6z"/>
			<path class="st1" d="M121.3,40.9c-11.3,0.3-24,0.5-37.2,0.5v-1.8c14.5,0,27.6-0.2,39-0.6L121.3,40.9z"/>
			<path class="st1" d="M103.8,58.9l-1.8,1.8H84.1V60c1.3-0.4,2.6-0.8,3.8-1.1H103.8z"/>
			<path class="st1" d="M99.6,116l-0.5-0.6c8.2-10,16.4-20,24.5-29.8c2.7-3.3,5.4-6.6,8.1-9.9h2.1c0.1,0,0.3,0,0.4-0.1L125,86.8
				c-8.3,10.1-16.8,20.4-25.2,30.7l-0.2-0.2C99.9,116.9,99.9,116.4,99.6,116z"/>
			<path class="st1" d="M97.9,116.8c0.4-0.5,0.8-0.9,1.1-1.4l0.5,0.6c0.3,0.4,0.3,0.9,0,1.3c-0.1,0.1-0.4,0.2-0.6,0.2
				s-0.5-0.1-0.7-0.3L97.9,116.8z"/>
			<path class="st1" d="M97,75.7h-0.8c-0.5,0-0.9-0.4-0.9-0.9s0.4-0.9,0.9-0.9h0.1C96.6,74.5,96.8,75.1,97,75.7z"/>
			<path class="st1" d="M99.8,117.5c-5.2,6.3-10.3,12.5-15.4,18.7v-2.9c3.5-4.3,7.1-8.6,10.7-13l0.2,0.2c0.3,0.4,0.8,0.4,1.2,0.1
				c0.4-0.3,0.4-0.9,0.1-1.3l-0.4-0.4c0.6-0.7,1.1-1.4,1.7-2.1l0.4,0.4c0.2,0.2,0.5,0.3,0.7,0.3s0.5-0.1,0.6-0.2L99.8,117.5z"/>
			<path class="st1" d="M96.2,118.9c-0.4,0.5-0.8,0.9-1.1,1.4l-10.7-11.7v-2.7L96.2,118.9z"/>
			<path class="st1" d="M96.6,119.3c0.3,0.4,0.3,1-0.1,1.3c-0.4,0.3-0.9,0.3-1.2-0.1l-0.2-0.2c0.4-0.5,0.8-0.9,1.1-1.4L96.6,119.3z"
				/>
			<path class="st1" d="M94.4,71.1L93,72.5c-0.1-0.2-0.3-0.3-0.4-0.4c-0.3-0.3-0.6-0.5-0.9-0.8l1.4-1.4c0.3,0.3,0.6,0.5,0.9,0.8
				C94.1,70.8,94.3,71,94.4,71.1z"/>
			<path class="st1" d="M93,72.5L66.7,99.5c-0.2-0.2-0.4-0.4-0.6-0.6c-0.2-0.2-0.4-0.5-0.7-0.7l26.2-26.9c0.3,0.2,0.6,0.5,0.9,0.8
				C92.7,72.2,92.9,72.4,93,72.5z"/>
			<path class="st1" d="M90.3,108.2c-0.4-0.3-0.4-0.9-0.1-1.3l0.4-0.5l1.3,1.4l-0.3,0.4c-0.2,0.2-0.4,0.3-0.7,0.3
				C90.7,108.4,90.5,108.3,90.3,108.2z"/>
			<path class="st1" d="M90.2,106.9c-0.3,0.4-0.3,1,0.1,1.3c0.2,0.1,0.4,0.2,0.6,0.2c0.3,0,0.5-0.1,0.7-0.3l0.3-0.4l7.2,7.7
				c-0.4,0.5-0.8,0.9-1.1,1.4l-13.5-14.4v-1.6c0.2-0.1,0.5-0.2,0.7-0.4l5.5,5.9L90.2,106.9z"/>
			<path class="st1" d="M109.2,53.3c-6.8,1-13.6,3.1-20.6,5.4c-0.2,0.1-0.4,0.1-0.7,0.2h-3.8V58c1.3-0.4,2.6-0.8,3.9-1.2
				c7.9-2.5,15.6-4.8,23.4-5.7L109.2,53.3z"/>
			<path class="st1" d="M88.1,260.9c0.3,0.3,0.4,0.7,0.2,1.1l0,0.1c-0.7,0-1.4,0-2.2,0l0.7-1C87.1,260.6,87.7,260.6,88.1,260.9z"/>
			<path class="st1" d="M83.2,69.1c0.5,0,0.9-0.5,0.9-0.9v-1c3.5-0.1,6.6,0.8,9,2.7l-1.4,1.4c-2-1.5-4.5-2.3-7-2.2
				C84.2,69.1,83.7,69.1,83.2,69.1L83.2,69.1z"/>
			<path class="st1" d="M88.3,262.1l-4,5.8l0,0c0.1-0.1,0.2-0.3,0.2-0.5v-2.8l1.7-2.5C86.8,262,87.6,262,88.3,262.1z"/>
			<path class="st1" d="M82.6,262c0.2,0,0.5,0,0.7,0c0.4,0,0.7,0,1.1,0v2.5l-1.3,1.9h-0.5V262z"/>
			<path class="st1" d="M83.2,137c0.2,0,0.5-0.1,0.7-0.2c0.2-0.2,0.3-0.4,0.5-0.6v124.1c-0.4,0-0.7,0-1.1,0c-0.2,0-0.5,0-0.7,0
				V136.8C82.8,136.9,82.9,137,83.2,137z"/>
			<path class="st1" d="M84.4,108.6v24.7c-0.4,0.5-0.8,1-1.2,1.4c-0.2-0.2-0.4-0.5-0.6-0.7v-25.2l1-1.1L84.4,108.6z"/>
			<path class="st1" d="M84.4,100.8v1.6l-1-1.1C83.8,101.2,84.1,101,84.4,100.8z"/>
			<path class="st1" d="M84.1,60v-1.1h3.8C86.7,59.3,85.4,59.6,84.1,60z"/>
			<path class="st1" d="M84.1,67.2v1c0,0.4-0.4,0.9-0.9,0.9s-0.9-0.4-0.9-0.9v-0.9C82.9,67.2,83.5,67.2,84.1,67.2z"/>
			<path class="st1" d="M84.1,60.7v6.5c-0.6,0-1.2,0.1-1.8,0.2v-5.6l0.9-1H84.1z"/>
			<path class="st1" d="M84.1,60v0.7h-0.8l0.5-0.6C83.9,60.1,84,60,84.1,60z"/>
			<path class="st1" d="M84.1,58.9V60c-0.1,0-0.2,0.1-0.3,0.1l0,0c0.3-0.4,0.3-0.9,0-1.2H84.1z"/>
			<path class="st1" d="M84.1,32.5v7.2c-0.3,0-0.7,0-1,0c-0.3,0-0.5,0-0.8,0v-7.2c0.3,0,0.5,0,0.8,0C83.4,32.5,83.8,32.5,84.1,32.5z
				"/>
			<path class="st1" d="M84.1,32.2v0.3c-0.3,0-0.7,0-1,0c-0.3,0-0.5,0-0.8,0v-0.3c0-0.5,0.4-0.9,0.9-0.9S84.1,31.7,84.1,32.2z"/>
			<path class="st1" d="M84.1,32.2c0-0.5-0.4-0.9-0.9-0.9v-0.5c17.1,0,33.5,0.3,47.2,0.8l-1.6,1.6c-12.5-0.5-27.7-0.8-44.7-0.8V32.2
				z"/>
			<path class="st1" d="M83,41.5c0.4,0,0.7,0,1.1,0V58c-0.6,0.2-1.2,0.4-1.8,0.5V41.5C82.5,41.5,82.8,41.5,83,41.5z"/>
			<path class="st1" d="M82.3,60.5V59v0c0,0,0,0,0,0c0.1,0,0.2-0.1,0.4-0.1h1.1c0.3,0.3,0.3,0.8,0,1.2l0,0
				C83.3,60.2,82.8,60.4,82.3,60.5z"/>
			<path class="st1" d="M83.4,101.3l-0.3-0.3c-0.2-0.3-0.3-0.6-0.2-0.9c0.2-0.1,0.4-0.2,0.6-0.2c0.5,0,0.9,0.4,0.9,0.9v0
				C84.1,101,83.8,101.2,83.4,101.3L83.4,101.3z"/>
			<path class="st1" d="M83.8,58.9h-1.1c-0.1,0-0.3,0-0.4,0.1l0.1-0.1c0.3-0.4,0.9-0.4,1.3-0.1C83.7,58.8,83.8,58.9,83.8,58.9z"/>
			<path class="st1" d="M83.8,60.1l-0.5,0.6h-0.6c-0.1,0-0.3,0-0.4-0.1v-0.1C82.8,60.4,83.3,60.2,83.8,60.1z"/>
			<path class="st1" d="M84.4,99.7c-0.3-0.2-0.7-0.3-1.1-0.2l-0.1-0.2c6.3-3.4,10.8-9.4,12.3-16.7c0.6-4.1-0.3-7.6-2.5-10.1l1.4-1.4
				c0.8,0.8,1.4,1.8,1.9,2.8h-0.1c-0.5,0-0.9,0.4-0.9,0.9s0.4,0.9,0.9,0.9H97c0.7,2.1,0.8,4.5,0.4,7.1c-0.9,5.1-3.3,9.8-7,13.4
				c-1.6,1.7-3.4,3.1-5.3,4.2L84.4,99.7z"/>
			<path class="st1" d="M83.6,107.7l-1,1.1v-2.6l0.3-0.3c0.2-0.2,0.4-0.3,0.7-0.3c0.3,0,0.5,0.1,0.7,0.3l0.1,0.1v2.7L83.6,107.7z"/>
			<path class="st1" d="M83.6,105.5c-0.3,0-0.5,0.1-0.7,0.3l-0.3,0.3v-4.4c0.3-0.1,0.5-0.2,0.8-0.4h0l1,1.1v3.5l-0.1-0.1
				C84.1,105.6,83.9,105.5,83.6,105.5z"/>
			<path class="st1" d="M84.3,267.3c0-0.5-0.4-0.9-0.9-0.9h-0.3l1.3-1.9L84.3,267.3c0.1,0.2,0,0.4-0.1,0.5c-0.2,0.2-0.4,0.4-0.8,0.4
				c0,0-0.1,0-0.1,0C83.9,268.1,84.3,267.8,84.3,267.3z"/>
			<path class="st1" d="M84.3,267.8l-4.2,6.1c-0.7,0-1.4,0-2.2,0l3.9-5.7h1.5c0,0,0,0,0.1,0c0,0,0,0,0,0c0,0,0.1,0,0.1,0
				C83.8,268.2,84.1,268,84.3,267.8L84.3,267.8z"/>
			<path class="st1" d="M82.6,262v-1.7c0.2,0,0.5,0,0.7,0c0.4,0,0.7,0,1.1,0v1.7c-0.4,0-0.7,0-1.1,0C83.1,262,82.8,262,82.6,262z"/>
			<path class="st1" d="M83.2,60.7l-0.9,1v-1.2c0.1,0.1,0.2,0.1,0.4,0.1H83.2z"/>
			<path class="st1" d="M83.4,268.2c-0.4-0.1-0.8-0.4-0.8-0.9v-0.2l0.5-0.7h0.3c0.5,0,0.9,0.4,0.9,0.9
				C84.3,267.8,83.9,268.1,83.4,268.2C83.4,268.2,83.4,268.2,83.4,268.2z"/>
			<path class="st1" d="M83.2,134.7c0.4-0.5,0.8-1,1.2-1.4v2.9c-0.2,0.2-0.3,0.4-0.5,0.6c-0.2,0.1-0.5,0.2-0.7,0.2
				c-0.2,0-0.4-0.1-0.6-0.2V134C82.8,134.2,83,134.5,83.2,134.7z"/>
			<path class="st1" d="M84.4,100.8c0-0.5-0.4-0.9-0.9-0.9c-0.2,0-0.4,0.1-0.6,0.2c0-0.2,0.1-0.3,0.2-0.4c0.1-0.1,0.2-0.2,0.2-0.2
				c0.3-0.1,0.7,0,1.1,0.2l0.7,0.7C84.9,100.6,84.6,100.7,84.4,100.8L84.4,100.8z"/>
			<polygon class="st1" points="83.1,266.4 82.6,267.1 82.6,266.4 			"/>
			<path class="st1" d="M83,41.5c-0.2,0-0.5,0-0.7,0v-1.8c0.3,0,0.5,0,0.8,0c0.3,0,0.7,0,1,0v1.8C83.7,41.5,83.4,41.5,83,41.5z"/>
			<path class="st1" d="M83.4,101.3c-0.3,0.1-0.5,0.2-0.8,0.4v-0.9c0-0.3,0.1-0.5,0.3-0.7c-0.1,0.3,0,0.6,0.2,0.9L83.4,101.3z"/>
			<path class="st1" d="M83.3,268.2h-1.5l0.8-1.1v0.2C82.6,267.8,82.9,268.1,83.3,268.2C83.3,268.2,83.3,268.2,83.3,268.2z"/>
			<path class="st1" d="M82.6,266.4v0.7l-0.8,1.1H46.1c0-0.1,0-0.1,0-0.2c0-0.5,0.6-1,1.8-1.6H82.6z"/>
			<path class="st1" d="M82.6,106.1v2.6l-11.1,11.8c-0.4-0.5-0.8-1-1.2-1.4L82.6,106.1z"/>
			<path class="st1" d="M82.3,59v-0.4c0.6-0.2,1.2-0.4,1.8-0.5v0.9h-0.3c0,0-0.1-0.1-0.1-0.1c-0.4-0.3-1-0.3-1.3,0.1L82.3,59
				C82.3,59,82.3,59,82.3,59z"/>
			<path class="st1" d="M82.3,59L82.3,59l-0.4,0.5C81.9,59.3,82.1,59.1,82.3,59z"/>
			<path class="st1" d="M82.3,60.5L82.3,60.5C82.3,60.6,82.2,60.6,82.3,60.5C82.2,60.5,82.3,60.5,82.3,60.5z"/>
			<path class="st1" d="M82.3,59v1.5c0,0-0.1,0-0.1,0c-0.3-0.1-0.4-0.4-0.4-0.8c0-0.1,0-0.2,0.1-0.3L82.3,59z"/>
			<path class="st1" d="M81.8,59.8c0,0.3,0.2,0.6,0.4,0.8c-0.6,0.2-1.2,0.3-1.8,0.5l1.4-1.6C81.8,59.6,81.8,59.7,81.8,59.8z"/>
			<path class="st1" d="M80.1,274c1.1,0,2.1,0,3.2,0c23.1,0,37.8-3.6,37.8-6c0-2.2-12.6-5.5-32.8-5.9l0-0.1c0.2-0.4,0.1-0.8-0.2-1.1
				c-0.4-0.3-1-0.3-1.3,0.1l-0.7,1c-0.6,0-1.1,0-1.7,0v-1.7c15.9,0.1,38.5,2.2,38.5,7.8c0,5.7-23.7,7.8-39.6,7.8
				c-1.6,0-3.2,0-4.8-0.1l0-0.4c0.3,0,0.6-0.1,0.8-0.4L80.1,274z"/>
			<path class="st1" d="M77.9,273.9c0.7,0,1.4,0,2.2,0l-0.8,1.1c-0.2,0.3-0.5,0.4-0.8,0.4c-0.2,0-0.4-0.1-0.5-0.2
				c-0.4-0.3-0.5-0.8-0.2-1.2L77.9,273.9z"/>
			<path class="st1" d="M66.7,99.5c2.5,2.1,6,2.9,9.9,2.2c2.4-0.5,4.6-1.3,6.6-2.4l0.1,0.2c-0.1,0-0.2,0.1-0.2,0.2
				c-0.1,0.1-0.2,0.3-0.2,0.4c-0.2,0.2-0.3,0.4-0.3,0.7v0.9c-1.8,0.8-3.7,1.4-5.6,1.7c-0.9,0.2-1.9,0.3-2.8,0.3
				c-3.1,0.1-6.3-1-8.6-3L66.7,99.5z"/>
			<path class="st1" d="M70.3,119.1c0.4,0.5,0.8,1,1.2,1.4l-0.2,0.2c-0.3,0.2-0.6,0.3-0.8,0.3s-0.4-0.1-0.6-0.2
				c-0.4-0.4-0.4-0.9,0-1.3L70.3,119.1z"/>
			<path class="st1" d="M71.3,120.7l0.2-0.2c3.7,4.5,7.4,9,11.1,13.5v2.8c0,0-0.1-0.1-0.1-0.1c-4.3-5.2-8.6-10.4-12.9-15.6l0.3-0.2
				c0.2,0.1,0.4,0.2,0.6,0.2S71,120.9,71.3,120.7z"/>
			<path class="st1" d="M82.1,69.3c-5.1,1.1-9.6,3.7-12.9,7.3l-0.2-0.2l6-6.6c2.2-1.1,4.5-2,7-2.5c0.1,0,0.3,0,0.4-0.1v0.9
				c0,0.5,0.4,0.9,0.9,0.9l0,0.1C82.8,69.2,82.5,69.3,82.1,69.3z"/>
			<path class="st1" d="M68.3,74.8c1.9-2,4.1-3.6,6.6-4.9l-6,6.6l-0.1,0.2c0.4-0.4,0.4-0.9,0-1.3L68.3,74.8z"/>
			<path class="st1" d="M74.9,69.9c-2.5,1.3-4.7,3-6.6,4.9l-0.2-0.2l12.3-13.5c0.6-0.2,1.2-0.3,1.8-0.5c0,0,0,0,0.1,0v1.2L74.9,69.9
				z"/>
			<path class="st1" d="M68.4,75.8c0-0.3-0.1-0.5-0.3-0.7c0.1-0.1,0.2-0.2,0.3-0.3l0.5,0.5c0.4,0.4,0.4,0.9,0,1.3
				c-0.2,0.2-0.4,0.3-0.6,0.3c-0.2,0-0.4-0.1-0.6-0.2C68,76.6,68.4,76.2,68.4,75.8z"/>
			<path class="st1" d="M67.1,76.2c0.3-0.4,0.6-0.7,1-1.1c0.2,0.2,0.3,0.4,0.3,0.7c0,0.4-0.4,0.8-0.8,0.9c0,0-0.1-0.1-0.1-0.1
				L67.1,76.2z"/>
			<path class="st1" d="M68.1,74.6l0.2,0.2c-0.1,0.1-0.2,0.2-0.3,0.3C68,75,67.9,75,67.8,75L68.1,74.6z"/>
			<path class="st1" d="M67.5,74.9h-1.6l-9.2-9.6c0.8,0,1.6-0.1,2.4-0.2l9.1,9.4L67.8,75C67.7,74.9,67.6,74.9,67.5,74.9z"/>
			<path class="st1" d="M68.1,75.1c-0.3,0.3-0.7,0.7-1,1.1L66.9,76l0.9-1C67.9,75,68,75,68.1,75.1z"/>
			<path class="st1" d="M67.8,75l-0.9,1l-1-1.1h1.6C67.6,74.9,67.7,74.9,67.8,75z"/>
			<path class="st1" d="M67.5,76.6C67.5,76.6,67.6,76.7,67.5,76.6C67.5,76.7,67.5,76.7,67.5,76.6l-0.8,0.1c0.1-0.2,0.3-0.3,0.4-0.5
				L67.5,76.6z"/>
			<path class="st1" d="M67.4,76.7c0.1,0,0.1,0,0.2,0c0.2,0.2,0.4,0.2,0.6,0.2c0.2,0,0.4-0.1,0.6-0.3L63,83c0.9-2.3,2.2-4.4,3.7-6.3
				H67.4z"/>
			<path class="st1" d="M66.9,76l0.2,0.2c-0.2,0.2-0.3,0.3-0.4,0.5h-0.5L66.9,76z"/>
			<polygon class="st1" points="65.9,74.9 66.9,76 66.2,76.7 50.8,76.7 50.8,74.9 			"/>
			<path class="st1" d="M66.1,98.9c0.2,0.2,0.4,0.4,0.6,0.6l-1.2,1.2c-0.2-0.2-0.4-0.4-0.6-0.6c-0.2-0.2-0.5-0.5-0.7-0.8l1.1-1.2
				C65.7,98.4,65.9,98.7,66.1,98.9z"/>
			<path class="st1" d="M65.6,100.6l-5.7,5.8c-0.4-0.5-0.8-0.9-1.2-1.4l5.6-5.7c0.2,0.3,0.5,0.5,0.7,0.8
				C65.2,100.3,65.4,100.5,65.6,100.6z"/>
			<path class="st1" d="M69.2,76.6c-3,3.2-5.1,7.3-6,11.8c-0.5,3.9,0.2,7.3,2.2,9.8l-1.1,1.2c-2.4-2.9-3.4-6.8-2.8-11.3
				c0.3-1.7,0.8-3.4,1.5-5l5.8-6.4l0.1-0.2L69.2,76.6z"/>
			<path class="st1" d="M59.9,106.5L59.9,106.5l-0.5,0.5c-0.1,0.2-0.4,0.3-0.6,0.2c-0.3,0-0.6-0.2-0.8-0.4c-0.1-0.1-0.1-0.3-0.1-0.5
				c0-0.2,0.1-0.4,0.2-0.6l0.6-0.6C59.1,105.5,59.5,106,59.9,106.5z"/>
			<path class="st1" d="M69.6,121c-3.9-4.7-7.8-9.4-11.7-14.1l0.1-0.1c0.2,0.2,0.4,0.4,0.8,0.4c0.2,0.1,0.5,0,0.6-0.2l0.5-0.5
				c3.5,4.2,6.9,8.4,10.4,12.6l-0.4,0.4c-0.4,0.4-0.4,0.9,0,1.3L69.6,121z"/>
			<path class="st1" d="M56.7,63.9c0.3-0.2,0.8-0.2,1.1,0l1.2,1.3c-0.8,0.1-1.6,0.1-2.4,0.2l-0.1-0.1C56.2,64.8,56.3,64.2,56.7,63.9
				z"/>
			<path class="st1" d="M63,83L51.2,95.9c-0.3-0.3-0.5-0.6-0.8-0.9c0.2-0.2,0.2-0.4,0.2-0.6v-0.6l15.5-17.1h0.5
				C65.2,78.6,63.9,80.7,63,83z"/>
			<path class="st1" d="M57.8,63.9c-0.3-0.2-0.8-0.2-1.1,0c-0.4,0.3-0.5,0.9-0.2,1.3l0.1,0.1c-1.1,0-2.1,0.1-3.2,0.1
				c-0.8,0-1.5,0-2.3,0c-0.1,0-0.1,0-0.2,0l0-0.8c0-0.5-0.4-0.9-0.9-0.9v-0.1c0.4,0,0.7,0,1.1,0c11.4,0.3,21.5-2.1,31.2-5V59
				c-0.2,0.1-0.4,0.3-0.4,0.5l-1.4,1.6C73.7,63,66.6,64.6,59,65.2L57.8,63.9z"/>
			<path class="st1" d="M50.9,64.6l0,0.8c-0.6,0-1.2,0-1.8-0.1v-0.7c0-0.5,0.4-0.9,0.9-0.9S50.9,64.1,50.9,64.6z"/>
			<path class="st1" d="M50.9,65.4l-0.1,9.5H49l0.1-9.6C49.7,65.3,50.3,65.4,50.9,65.4z"/>
			<polygon class="st1" points="50.8,74.9 50.8,76.7 49,76.7 49,74.9 			"/>
			<path class="st1" d="M50.8,76.7l-0.1,17.1L50,94.5c-0.4-0.5-0.8-0.9-1.1-1.4L49,76.7H50.8z"/>
			<path class="st1" d="M50.7,93.8v0.6c0,0.2-0.1,0.5-0.2,0.6c-0.1-0.2-0.3-0.3-0.4-0.5L50.7,93.8z"/>
			<path class="st1" d="M50,94.5c0.1,0.2,0.3,0.3,0.4,0.5c-0.2,0.2-0.4,0.3-0.7,0.3c-0.1,0-0.3,0-0.4-0.1c0,0,0-0.1,0.1-0.1L50,94.5
				z"/>
			<path class="st1" d="M48.9,93.1c0.4,0.5,0.8,0.9,1.1,1.4l-0.5,0.6c0,0,0,0.1-0.1,0.1c-0.3-0.1-0.5-0.5-0.5-0.8L48.9,93.1z"/>
			<path class="st1" d="M50.5,95c0.2,0.3,0.5,0.6,0.8,0.9l-0.3,0.4c-0.2,0.2-0.4,0.3-0.7,0.3c-0.2,0-0.4-0.1-0.6-0.2
				c0,0-0.1-0.1-0.1-0.1c-0.2-0.3-0.2-0.7,0-1c0.1,0,0.2,0.1,0.4,0.1C50.1,95.3,50.3,95.2,50.5,95z"/>
			<path class="st1" d="M57.9,106.9c-2.9-3.5-5.8-7-8.7-10.5l0.2-0.2c0,0,0.1,0.1,0.1,0.1c0.2,0.1,0.4,0.2,0.6,0.2
				c0.3,0,0.5-0.1,0.7-0.3l0.3-0.4c2.5,3,5,6.1,7.5,9.1l-0.6,0.6c-0.1,0.2-0.2,0.4-0.2,0.6c0,0.2,0.1,0.4,0.1,0.5L57.9,106.9z"/>
			<path class="st1" d="M49,74.9l0,1.8H35.4c-0.5-0.6-1-1.2-1.5-1.8H49z"/>
			<path class="st1" d="M45.8,266.4h2.1c-1.2,0.6-1.8,1.1-1.8,1.6c0,0.1,0,0.1,0,0.2h-0.3c-0.5,0-0.9-0.4-0.9-0.9
				c0-0.2,0.1-0.4,0.1-0.5C45.2,266.6,45.5,266.4,45.8,266.4z"/>
			<path class="st1" d="M44.8,266.7c3.2-4.3,21-6.3,37.8-6.4v1.7c-18.9,0.1-30.4,2.4-34.7,4.4h-2.1c-0.3,0-0.6,0.2-0.8,0.4
				L44.8,266.7z"/>
			<path class="st1" d="M46.1,268.2c0.7,2,11.3,5.2,31.8,5.7l-0.1,0.2c-0.3,0.4-0.2,0.9,0.2,1.2c0.1,0.1,0.3,0.2,0.5,0.2l0,0.4
				c-17.3-0.4-34.2-2.8-34.2-7.8c0-0.5,0.2-1,0.5-1.4l0.2,0.1c-0.1,0.1-0.1,0.3-0.1,0.5c0,0.5,0.4,0.9,0.9,0.9H46.1z"/>
			<path class="st1" d="M33.6,74.9h0.3c0.5,0.6,1,1.2,1.5,1.8h-1.8c-0.3,0-0.6-0.2-0.8-0.4c-0.1-0.1-0.1-0.3-0.1-0.5
				C32.7,75.3,33.1,74.9,33.6,74.9z"/>
			<path class="st1" d="M48.9,94.4c0,0.4,0.2,0.7,0.5,0.8c-0.2,0.3-0.2,0.8,0,1l-0.2,0.2c-2.6-3.2-5.3-6.4-8-9.6
				c-2.9-3.5-5.7-6.9-8.6-10.4l0.1-0.1c0.2,0.2,0.4,0.4,0.8,0.4h1.8c2.5,3,4.9,5.9,7.3,8.9c2.1,2.5,4.1,5,6.2,7.5L48.9,94.4z"/>
			<path class="st1" d="M33.6,74.9c-0.5,0-0.9,0.4-0.9,0.9c0,0.2,0.1,0.4,0.1,0.5l-0.1,0.1c-4.6-5.6-9.2-11.2-13.7-16.7
				c0.6,0.3,1.8,0.9,3.6,1.5c3.8,4.6,7.5,9.1,11.3,13.7H33.6z"/>
			<path class="st1" d="M22.6,61.2l-2.4-2.9l6.1,2.1c4.8,1.3,12.3,2.7,23.6,3.1v0.1c-0.5,0-0.9,0.4-0.9,0.9v0.7
				C35.2,64.7,27,62.7,22.6,61.2z"/>
			<path class="st1" d="M18.2,58.2c0.2-0.3,0.5-0.4,0.8-0.4c0.1,0,0.3,0,0.4,0.1c0,0,0.3,0.2,0.8,0.4l2.4,2.9
				c-1.8-0.6-3-1.2-3.6-1.5c-0.3-0.4-0.6-0.8-0.9-1.1C18.1,58.4,18.1,58.3,18.2,58.2z"/>
			<path class="st1" d="M18.1,58.6c0.3,0.4,0.6,0.7,0.9,1.1c-0.3-0.2-0.5-0.3-0.5-0.3C18.2,59.2,18.1,58.9,18.1,58.6z"/>
			<path class="st1" d="M19,57.8c-0.3,0-0.6,0.1-0.8,0.4c-0.1,0.1-0.1,0.2-0.1,0.4C12.2,51.4,6.3,44.2,0.4,37.1c0,0,0-0.1-0.1-0.1
				c0.4,0.4,1.3,0.8,3.3,1.2l16.6,20.1c-0.5-0.3-0.8-0.4-0.8-0.4C19.3,57.8,19.1,57.8,19,57.8z"/>
			<path class="st1" d="M2.6,36.1c6,1.8,37.4,3.6,79.7,3.6v1.8c-21.7,0-42.1-0.5-57.4-1.3c-11.8-0.7-18-1.4-21.3-2l-1.4-1.7
				L2.6,36.1z"/>
			<path class="st1" d="M2.2,36.4l1.4,1.7c-2-0.4-2.9-0.8-3.3-1.2c-0.2-0.4-0.2-0.9,0.2-1.2c0.4-0.3,1-0.2,1.3,0.2L2.2,36.4z"/>
			<path class="st1" d="M82.3,32.5c-42.3,0-73.7,1.8-79.7,3.6l-0.4,0.4L1.8,36c-0.3-0.4-0.9-0.5-1.3-0.2c-0.4,0.3-0.4,0.8-0.2,1.2
				C0,36.7,0,36.4,0,36.1c0-1.2,0-2.7,24.9-4c15.5-0.9,36.2-1.3,58.1-1.3c0.1,0,0.1,0,0.2,0v0.5c-0.5,0-0.9,0.4-0.9,0.9V32.5z"/>
		</g>
		<g>
		</g>
	</g>
</g>
</svg>
