<?xml version="1.0" encoding="utf-8"?>
<!-- Generator: Adobe Illustrator 25.4.1, SVG Export Plug-In . SVG Version: 6.00 Build 0)  -->
<svg version="1.1" id="Layer_1" xmlns="http://www.w3.org/2000/svg" xmlns:xlink="http://www.w3.org/1999/xlink" x="0px" y="0px"
	 viewBox="0 0 157.1 296" style="enable-background:new 0 0 157.1 296;" xml:space="preserve">
<style type="text/css">
	.st0{fill:#FFFFFF;}
	.st1{fill:#FEE12B;}
</style>
<g id="Layer_1-2">
	<g id="XMLID_00000138541942468962909190000017830317335446052539_">
		<g>
			<path class="st0" d="M138.5,6.3c17.9,10.2,24.2,33,14,50.9c-0.1,0.2-0.2,0.4-0.3,0.6c-0.3,0.2-0.6,0.4-0.9,0.4
				c-0.2,0-0.3,0-0.4-0.1l-6-3.5l0,0c0.1,0,0.2,0,0.3,0c0.3,0,0.6-0.1,0.9-0.5c0.1-0.2,0.3-0.5,0.4-0.7L151,56
				c9.4-17.2,3.1-38.8-14.1-48.2c-16.6-9.1-37.4-3.6-47.4,12.5l4.6,2.7c-0.1,0.2-0.3,0.5-0.4,0.7c-0.2,0.4-0.1,0.9,0.3,1.2L93.9,25
				l-6-3.5c-0.4-0.2-0.6-0.8-0.3-1.2c6.9-12.1,19.5-18.9,32.5-18.9C126.4,1.4,132.7,3,138.5,6.3z"/>
			<path class="st1" d="M136.9,7.8c17.2,9.4,23.5,31,14.1,48.2l-4.5-2.6c2.2-4,3.4-8.4,3.6-12.7c0.2-3.2-0.2-6.5-1-9.6
				c-0.8-3.1-2.2-6.1-4-8.9c-1.4-2.1-3.1-4.1-5-5.9c-1.5-1.4-3.2-2.6-5.1-3.7c-7.1-4.2-15.3-5.1-22.7-3.1c-3.2,0.8-6.2,2.1-8.9,3.9
				c-3.7,2.4-6.9,5.6-9.3,9.5l-4.6-2.7C99.5,4.2,120.3-1.3,136.9,7.8z"/>
			<path class="st0" d="M149.1,31.1c0.8,3.1,1.2,6.3,1,9.6h-0.1c0-0.3-0.2-0.7-0.5-0.8l-1.1-0.6c0-0.1,0-0.3,0-0.4
				c0-2.2-0.2-4.3-0.7-6.4l0.7-0.2C148.9,32.1,149.2,31.6,149.1,31.1L149.1,31.1z"/>
			<path class="st0" d="M150.1,40.6L150.1,40.6c-0.2,4.4-1.4,8.7-3.6,12.7l-1.5-0.9c0.8-1.4,1.4-2.8,1.9-4.3l0.5,0.3
				c0.1,0.1,0.2,0.1,0.4,0.1c0.3,0,0.6-0.1,0.6-0.3c0,0,0,0,0-0.1c0.3-0.4,0.1-1-0.3-1.2l-0.7-0.4c0.5-1.8,0.9-3.6,1-5.4l0.3,0.2
				c0.1,0.1,0.2,0.1,0.4,0.1c0.4,0,0.7-0.2,0.9-0.5C150.1,40.9,150.1,40.8,150.1,40.6z"/>
			<path class="st0" d="M150.1,40.6c0,0.1,0,0.2-0.1,0.4c-0.2,0.3-0.5,0.5-0.9,0.5c-0.2,0-0.3,0-0.4-0.1l-0.3-0.2
				c0.1-0.7,0.1-1.4,0.1-2l1.1,0.6C149.9,39.9,150.1,40.3,150.1,40.6z"/>
			<path class="st0" d="M149.1,31.1L149.1,31.1c-0.1-0.4-0.6-0.7-1.1-0.6l-0.6,0.2c-0.7-2.2-1.6-4.4-2.8-6.5l0.5-0.8
				c0-0.1,0.1-0.1,0.1-0.2c0.1-0.3,0.1-0.6-0.1-0.9l0.1-0.1C147,25,148.3,28,149.1,31.1z"/>
			<path class="st0" d="M149.1,31.1c0.1,0.5-0.2,1-0.6,1.1l-0.7,0.2c-0.1-0.6-0.3-1.1-0.4-1.7l0.6-0.2
				C148.5,30.4,149,30.7,149.1,31.1z"/>
			<path class="st0" d="M140.1,34.4l8.4,4.8c0,0.7,0,1.4-0.1,2l-10.9-6.1L140.1,34.4z"/>
			<path class="st0" d="M148.1,47c0.4,0.2,0.6,0.8,0.3,1.2c0,0,0,0,0,0.1c0,0.2-0.3,0.3-0.6,0.3c-0.2,0-0.3,0-0.4-0.1l-0.5-0.3
				c0.2-0.5,0.4-1.1,0.5-1.6L148.1,47z"/>
			<path class="st0" d="M147.8,32.4l-7.7,2l-1.1-0.6l0.6-1.1l7.7-2C147.5,31.2,147.7,31.8,147.8,32.4z"/>
			<path class="st0" d="M130.4,37l17.1,9.6c-0.1,0.5-0.3,1.1-0.5,1.6L128,37.6L130.4,37z"/>
			<path class="st0" d="M145,52.5l1.5,0.9c-0.1,0.2-0.3,0.5-0.4,0.7c-0.3,0.4-0.6,0.5-0.9,0.5c-0.1,0-0.2,0-0.3,0c0,0-0.1,0-0.1-0.1
				c-0.4-0.2-0.6-0.8-0.3-1.2C144.7,53,144.8,52.8,145,52.5z"/>
			<path class="st0" d="M145,22.3c0.2,0.2,0.2,0.6,0.1,0.9c0,0.1-0.1,0.1-0.1,0.2l-0.5,0.8c-0.3-0.6-0.7-1.2-1.1-1.7
				c0.2-0.5,0.7-0.6,1.2-0.5C144.8,22.1,144.9,22.2,145,22.3z"/>
			<path class="st0" d="M145.2,22.2l-0.1,0.1c-0.1-0.1-0.2-0.3-0.4-0.3c-0.5-0.2-1,0-1.2,0.5c-1-1.5-2.2-2.9-3.6-4.2l0.3-0.6
				c0.1,0,0.1-0.1,0.1-0.1c0.2-0.3,0.1-0.8-0.2-1.1l0.1-0.1C142.1,18.1,143.8,20.1,145.2,22.2z"/>
			<path class="st0" d="M145,52.5c-0.2,0.3-0.3,0.5-0.5,0.8c-0.3,0.4-0.1,1,0.3,1.2c0,0,0.1,0,0.1,0.1l0,0l-23.1-13.4
				c0.1-0.1,0.1-0.2,0.1-0.2c0-0.1,0-0.1,0-0.1c0.1-0.3,0.1-0.6-0.1-0.9c0.2-0.3,0.3-0.5,0.4-0.8L145,52.5z"/>
			<path class="st0" d="M144.5,24.2l-4.9,8.5l-2.4,0.6l6.1-10.8c0,0,0,0,0,0C143.8,23,144.2,23.6,144.5,24.2z"/>
			<path class="st0" d="M140.1,16.4c0.3,0.3,0.4,0.7,0.2,1.1c0,0,0,0.1-0.1,0.1l-0.3,0.6c-0.4-0.4-0.9-0.8-1.3-1.2l0.2-0.3
				c0.2-0.4,0.8-0.6,1.2-0.4C140,16.3,140,16.4,140.1,16.4z"/>
			<path class="st0" d="M140.2,16.4L140.2,16.4c-0.1,0-0.2,0-0.3-0.1c-0.4-0.2-1,0-1.2,0.4l-0.2,0.3c-1-0.9-2.1-1.7-3.3-2.4l0.1-0.2
				c0.3-0.4,0.1-0.9-0.3-1.2c-0.4-0.3-1-0.1-1.2,0.3l-0.1,0.2c-1.4-0.8-2.9-1.5-4.5-2l0.1-0.1c0.3-0.4,0.1-1-0.3-1.2
				c-0.4-0.3-1-0.1-1.2,0.3l-0.3,0.5c-1.8-0.5-3.7-0.8-5.5-0.9c0.2-0.4,0-1-0.4-1.1c-0.4-0.2-1,0-1.2,0.4l-0.4,0.7
				c-2.1,0-4.3,0.2-6.3,0.7l-0.2-0.7c-0.1-0.4-0.6-0.7-1.1-0.6l0,0c7.4-1.9,15.6-1,22.7,3.1C136.9,13.8,138.6,15,140.2,16.4z"/>
			<path class="st0" d="M140.1,34.4l-2.6,0.7l-0.2-0.1c-0.2-0.1-0.4-0.3-0.4-0.5c-0.1-0.2,0-0.5,0.1-0.7l0.3-0.5l2.4-0.6l-0.6,1.1
				L140.1,34.4z"/>
			<path class="st0" d="M139.9,18.2l-9.6,17l-2.3,0.6L138.5,17C139,17.4,139.4,17.8,139.9,18.2z"/>
			<path class="st0" d="M137.3,35l0.2,0.1l-7.1,1.9l-0.9-0.5l0.7-1.3l7-1.8l-0.3,0.5c-0.1,0.2-0.2,0.5-0.1,0.7
				C136.9,34.7,137.1,34.9,137.3,35z"/>
			<path class="st0" d="M135,13.2c0.4,0.3,0.6,0.8,0.3,1.2l-0.1,0.2c-0.2-0.1-0.4-0.2-0.6-0.4c-0.3-0.2-0.6-0.4-0.9-0.5l0.1-0.2
				C134,13.1,134.6,12.9,135,13.2z"/>
			<path class="st0" d="M135.2,14.6l-13.3,22.8l-0.5,0.1c-0.2-0.2-0.5-0.3-0.8-0.5l-0.2-0.7l13.3-22.7c0.3,0.2,0.6,0.3,0.9,0.5
				C134.8,14.3,135,14.4,135.2,14.6z"/>
			<path class="st0" d="M130.4,37l-2.3,0.6l0,0c-0.4-0.2-0.6-0.8-0.4-1.2l0.3-0.6l2.3-0.6l-0.7,1.3L130.4,37z"/>
			<path class="st0" d="M129,10.4c0.4,0.2,0.6,0.8,0.3,1.2l-0.1,0.1c-0.6-0.2-1.1-0.4-1.7-0.5l0.3-0.5C128,10.3,128.6,10.1,129,10.4
				z"/>
			<path class="st0" d="M129.2,11.7l-10.4,18.6l-0.6-2.5l9.4-16.6C128.1,11.3,128.7,11.5,129.2,11.7z"/>
			<path class="st0" d="M128,37.6l-5.8,1.5c0,0,0-0.1,0-0.1c0-0.3,0-0.8-0.5-1.2l0.2-0.3l6.1-1.6l-0.3,0.6
				C127.4,36.8,127.6,37.4,128,37.6L128,37.6z"/>
			<path class="st0" d="M122.2,39c0,0,0,0.1,0,0.1l-0.2,0l-0.9-0.5l0.5-0.9C122.2,38.2,122.2,38.7,122.2,39z"/>
			<path class="st0" d="M122.2,39.1c0,0,0,0.1,0,0.1l-0.2-0.1L122.2,39.1z"/>
			<path class="st0" d="M122,39.2l0.2,0.1c0,0.2-0.1,0.5-0.4,0.8c-0.1-0.1-0.2-0.3-0.3-0.3c-0.4-0.2-1,0-1.2,0.4c0,0,0,0.1-0.1,0.2
				l-1.1-0.6c0.1,0,0.1,0,0.2-0.1c0,0,0.1,0.1,0.2,0.1c0.1,0.1,0.2,0.1,0.4,0.1c0.1,0,0.2,0,0.3-0.1c0.1,0.1,0.2,0.1,0.3-0.1
				L122,39.2z"/>
			<path class="st0" d="M121.6,9.1c0.4,0.2,0.6,0.7,0.4,1.1c-0.7-0.1-1.3-0.1-2-0.1l0.4-0.7C120.6,9.1,121.2,8.9,121.6,9.1z"/>
			<path class="st0" d="M122,39.2l-1.5,0.4c-0.1,0.2-0.2,0.2-0.3,0.1c0.2-0.1,0.3-0.2,0.5-0.3l0.4-0.7L122,39.2z"/>
			<path class="st0" d="M122,10.2C122,10.3,122,10.3,122,10.2l-5.8,10.4l-0.7-2.5l4.4-7.9C120.7,10.2,121.3,10.2,122,10.2z"/>
			<path class="st0" d="M121.8,40c0.2,0.3,0.2,0.6,0.1,0.9c0,0,0,0,0,0.1c0,0,0,0.1-0.1,0.2l-0.9-0.5
				C121.4,40.5,121.7,40.2,121.8,40z"/>
			<path class="st0" d="M121.9,37.4l-0.2,0.3c-0.1-0.1-0.2-0.1-0.3-0.2L121.9,37.4z"/>
			<path class="st0" d="M120.9,40.7l0.9,0.5c-0.9,1.8-8.3,16.2-11.7,34.8l-0.1,0c0-0.1,0-0.1,0-0.2c0-0.5-0.4-0.9-0.9-0.9h-0.7
				c3.1-16.6,9.3-29.8,11.3-33.7c0,0,0,0,0,0C120.2,41.1,120.6,40.9,120.9,40.7z"/>
			<path class="st0" d="M121.5,39.7c0.1,0.1,0.3,0.2,0.3,0.3c-0.2,0.2-0.5,0.4-0.9,0.7l-0.7-0.4c0.1-0.1,0.1-0.2,0.1-0.2
				C120.5,39.7,121.1,39.5,121.5,39.7z"/>
			<path class="st0" d="M121.7,37.8l-0.5,0.9l-0.2-0.1c0-0.1,0-0.2,0-0.3l-0.1-0.5l0.6-0.2C121.5,37.6,121.6,37.7,121.7,37.8z"/>
			<path class="st0" d="M121.4,37.5l-0.6,0.2l-0.2-0.6C120.9,37.2,121.2,37.4,121.4,37.5z"/>
			<path class="st0" d="M121.1,38.7l-0.4,0.7c-0.1,0.1-0.3,0.2-0.5,0.3c0,0,0,0,0,0c-0.2,0-0.4-0.1-0.6-0.2c0.1,0,0.2-0.1,0.2-0.1
				c0,0,0,0,0,0c0.1,0,0.2,0,0.2,0c0.1,0,0.2,0,0.2-0.1c0.3-0.1,0.6-0.4,0.6-0.8L121.1,38.7z"/>
			<path class="st0" d="M120.2,40.3l0.7,0.4c-0.3,0.2-0.7,0.4-1.2,0.5C119.9,40.8,120.1,40.5,120.2,40.3z"/>
			<path class="st0" d="M120.9,38.2c0,0.1,0,0.2,0,0.3l-1-0.6c0,0,0.1,0,0.1,0l0.8-0.2L120.9,38.2z"/>
			<path class="st0" d="M119.9,37.9l1,0.6c-0.1,0.4-0.3,0.7-0.6,0.8c0,0.1-0.1,0.1-0.2,0.1c-0.1,0-0.2,0-0.2,0
				c0.2-0.1,0.3-0.2,0.4-0.3c-0.2-0.2-0.5-0.3-1-0.5C119.4,38.3,119.6,38,119.9,37.9z"/>
			<path class="st0" d="M120.6,37.1l0.2,0.6l-0.8,0.2c0,0-0.1,0-0.1,0l-0.3-0.2l0.5-0.9C120.3,36.9,120.5,37,120.6,37.1z"/>
			<path class="st0" d="M120.4,36.4l0.2,0.7c-0.1-0.1-0.3-0.1-0.5-0.2L120.4,36.4z"/>
			<path class="st0" d="M118.8,30.3l1.6,6.1l-0.3,0.5c-0.4-0.2-0.9-0.4-1.6-0.5l-1.5-5.8l0.5,0.3c0.1,0.1,0.2,0.1,0.4,0.1
				c0.1,0,0.2,0,0.2,0c0.3,0,0.5-0.2,0.6-0.4L118.8,30.3z"/>
			<path class="st0" d="M120.2,39.7C120.2,39.7,120.2,39.7,120.2,39.7c-0.1,0.1-0.2,0.1-0.3,0.1c-0.2,0-0.3,0-0.4-0.1
				c-0.1,0-0.1-0.1-0.2-0.1c0.1,0,0.2-0.1,0.3-0.1C119.8,39.6,120,39.7,120.2,39.7z"/>
			<path class="st0" d="M119.2,39.7l1.1,0.6c-0.1,0.2-0.3,0.5-0.5,1c0,0,0,0,0,0c-2.2,0.8-6.3,1.6-14.1,2.5c-10,1.1-23,1.6-36.9,1.6
				l-0.6-0.8C68,44.4,68,44.4,68,44.4v-0.1c0-0.3-0.2-0.7-0.5-0.8C95.7,43.5,114.2,41.4,119.2,39.7z"/>
			<path class="st0" d="M120.2,36.9l-0.5,0.9l-0.8-0.5l-0.3-1C119.2,36.5,119.7,36.7,120.2,36.9z"/>
			<path class="st0" d="M120.3,39.1c-0.1,0.1-0.2,0.2-0.4,0.3c0,0,0,0,0,0c-0.2-0.1-0.5-0.2-0.6-0.5c0,0,0,0,0,0c0-0.1,0-0.2,0-0.3
				C119.8,38.7,120.1,38.9,120.3,39.1z"/>
			<path class="st0" d="M119.6,37.8l0.3,0.2c-0.3,0.1-0.5,0.3-0.6,0.6c0,0-0.1,0-0.1,0c0,0,0,0,0,0L119.6,37.8z"/>
			<path class="st0" d="M119.9,39.4c-0.1,0-0.2,0.1-0.2,0.1c-0.2-0.1-0.3-0.3-0.3-0.5c0,0,0,0,0-0.1
				C119.4,39.1,119.6,39.3,119.9,39.4z"/>
			<path class="st0" d="M119.6,37.8l-0.4,0.7c0,0,0,0,0,0c0,0,0,0,0,0l-0.3-1.2L119.6,37.8z"/>
			<path class="st0" d="M119.6,39.5c-0.1,0-0.2,0.1-0.3,0.1c-0.3-0.2-0.4-0.7-0.2-1l0,0.1c0,0.1,0.1,0.1,0.1,0.2c0,0,0,0,0,0
				c0,0,0,0.1,0,0.1C119.3,39.2,119.5,39.4,119.6,39.5z"/>
			<path class="st0" d="M119.3,38.6c0,0.1,0,0.2,0,0.3c0-0.1-0.1-0.1-0.1-0.2l0-0.1c0,0,0,0,0,0C119.2,38.5,119.3,38.6,119.3,38.6z"
				/>
			<path class="st0" d="M119.3,39.6c-0.1,0-0.1,0-0.2,0.1l-3.5-2c1.5,0.3,2.7,0.6,3.5,0.9l0,0C119,38.9,119.1,39.3,119.3,39.6z"/>
			<path class="st0" d="M119.2,38.5C119.2,38.5,119.2,38.5,119.2,38.5L119.2,38.5C119.2,38.5,119.2,38.5,119.2,38.5z"/>
			<path class="st0" d="M118.8,37.3l0.3,1.2c-0.8-0.3-2-0.6-3.5-0.9l-4.7-2.7c2.1,0.3,3.8,0.6,5.1,0.8L118.8,37.3z"/>
			<path class="st0" d="M118.6,36.3l0.3,1l-2.7-1.6C117.1,35.9,117.9,36.1,118.6,36.3z"/>
			<path class="st0" d="M118.2,27.8l0.6,2.5l-0.1,0.2c-0.1,0.2-0.3,0.4-0.6,0.4c0,0-0.1,0-0.2,0c-0.2,0-0.3,0-0.4-0.1l-0.5-0.3
				l-0.6-2.4c0.5,0.2,0.9,0.5,1.2,0.6L118.2,27.8z"/>
			<path class="st0" d="M118.2,27.8l-0.6,1c-0.3-0.2-0.7-0.4-1.2-0.6l-1.8-6.9l0.2,0.1c0.1,0.1,0.2,0.1,0.4,0.1c0.1,0,0.2,0,0.3,0
				c0.2,0,0.4-0.2,0.5-0.4l0.3-0.5L118.2,27.8z"/>
			<path class="st0" d="M117.8,192.9c0,7.2-1.2,14.1-3.3,20.5c-0.1-0.4-0.4-0.7-0.9-0.7l-0.9,0c2.1-6.2,3.3-12.9,3.3-19.9
				c0-1.1,0-2.2-0.1-3.6l-0.2-2.4c-0.9-15-2.8-30.1-4.8-44.7c-0.3-2.3-0.6-4.6-0.9-6.8h1.1c0.2,0,0.5-0.2,0.7-0.4
				c0.3,2.3,0.6,4.7,0.9,7.1c1.9,14.6,3.9,29.7,4.8,44.8l0.2,2.4C117.8,190.6,117.8,191.8,117.8,192.9z"/>
			<path class="st0" d="M116.4,28.2l0.6,2.4L98.4,20c0.4-0.5,0.8-0.9,1.2-1.3C105.3,21.9,112.9,26.2,116.4,28.2z"/>
			<path class="st0" d="M115.6,18.1l0.7,2.5l-0.3,0.5c-0.1,0.2-0.3,0.4-0.5,0.4c-0.1,0-0.2,0-0.3,0c-0.2,0-0.3,0-0.4-0.1l-0.2-0.1
				L114,19l0.8,0.5L115.6,18.1z"/>
			<path class="st0" d="M95.6,23.9l20.5,11.9c-1.4-0.3-3.1-0.6-5.1-0.8l-17-9.9l0.1-0.1c0.4,0.2,0.9,0.1,1.2-0.3
				c0.1-0.1,0.2-0.3,0.3-0.5C95.6,24,95.6,23.9,95.6,23.9z"/>
			<path class="st0" d="M111,34.9l4.7,2.7c-7.8-1.5-24.6-2.9-48.4-2.9c-20.1,0-35.3,1-44.2,2.2l-0.7-1.9c1.8-0.3,4-0.5,6.6-0.8
				c10.2-1,23.8-1.6,38.3-1.6s28.1,0.5,38.3,1.6C107.6,34.5,109.4,34.7,111,34.9z"/>
			<path class="st0" d="M113.7,10.9l1.9,7.2l-0.8,1.4L114,19l-2-7.7C112.5,11.2,113.1,11,113.7,10.9z"/>
			<path class="st0" d="M114.6,21.3l-10.8-6.1c0.5-0.4,1.1-0.7,1.6-1L114,19L114.6,21.3z"/>
			<path class="st0" d="M114.5,213.3c0,0.1,0,0.2,0,0.2c0,0.3-0.2,0.6-0.4,0.7C114.2,214,114.3,213.7,114.5,213.3z"/>
			<path class="st0" d="M114.5,213.3c-0.1,0.3-0.2,0.7-0.3,1c-0.1,0.1-0.3,0.2-0.5,0.2l-1.5,0c0.2-0.6,0.5-1.2,0.7-1.8l0.9,0
				C114,212.7,114.4,213,114.5,213.3z"/>
			<path class="st0" d="M112.4,170.9c0.8,7.6,1.7,16.2,1.5,20.9c-0.1,2.2-0.2,5.8-0.8,9.8l0,0c0.1-0.3,0-0.5-0.2-0.8l-1.2-1.6
				c0.2-1.5,0.3-2.9,0.3-4.1c0.1,0.1,0.3,0.2,0.5,0.2c0.2,0,0.4,0,0.6-0.2c0.4-0.3,0.5-0.9,0.2-1.3l-1.2-1.6c0-0.2,0-0.3,0-0.5
				c0.2-4.5-0.7-13.1-1.5-20.6c-0.3-2.7-0.5-5.3-0.7-7.5l0.3,0.4c0.2,0.2,0.4,0.3,0.7,0.3c0.2,0,0.4-0.1,0.5-0.2
				c0.1-0.1,0.2-0.2,0.2-0.3C111.9,165.9,112.2,168.3,112.4,170.9z"/>
			<path class="st0" d="M113.6,214.5c0.2,0,0.4-0.1,0.5-0.2c-3.7,10.1-9.8,18.7-17.7,24.9c0.1-0.2,0.2-0.5,0.1-0.9l-0.4-1.2
				c7-5.8,12.6-13.6,16-22.7L113.6,214.5z"/>
			<path class="st0" d="M113.5,10.2l0.2,0.7c-0.6,0.1-1.2,0.3-1.7,0.4l-0.2-0.6c-0.1-0.5,0.2-1,0.6-1.1
				C112.9,9.5,113.4,9.8,113.5,10.2z"/>
			<path class="st0" d="M113.4,193.8c0.3,0.4,0.2,1-0.2,1.3c-0.2,0.2-0.4,0.2-0.6,0.2c-0.2,0-0.4,0-0.5-0.2c0.1-1.1,0.1-2.1,0.1-3
				L113.4,193.8z"/>
			<path class="st0" d="M113.1,201.6c-0.5,3.7-1.4,7.6-2.9,11.1l-1.9,0c1.6-3.3,2.5-7.1,3-10.7l0,0c0.1,0.3,0.4,0.4,0.7,0.4
				c0.2,0,0.4,0,0.6-0.2C112.9,202,113,201.8,113.1,201.6L113.1,201.6z"/>
			<path class="st0" d="M112.9,200.8c0.2,0.2,0.2,0.5,0.2,0.8c-0.1,0.2-0.2,0.4-0.4,0.5c-0.2,0.2-0.4,0.2-0.6,0.2
				c-0.3,0-0.6-0.1-0.7-0.4l0,0c0-0.2,0.1-0.4,0.1-0.6c0.1-0.7,0.2-1.4,0.2-2.1L112.9,200.8z"/>
			<path class="st0" d="M110.2,212.6l2.5,0c-0.2,0.6-0.4,1.2-0.7,1.8l-24.4-0.4l-0.7-1.8c0.1,0,0.1,0,0.2,0l21.2,0.3
				c-0.1,0.1-0.1,0.2-0.2,0.4c-0.2,0.4,0,1,0.4,1.2c0.1,0.1,0.3,0.1,0.4,0.1c0.3,0,0.6-0.2,0.7-0.5
				C109.9,213.4,110.1,213,110.2,212.6z"/>
			<path class="st0" d="M112.4,9.6L112.4,9.6c-0.4,0.1-0.7,0.6-0.6,1.1l0.2,0.6c-2.3,0.7-4.5,1.6-6.5,2.9l-1-0.6
				c-0.1-0.1-0.3-0.1-0.4-0.1c-0.2,0-0.3,0-0.4,0.1l-0.1-0.1C106.2,11.7,109.2,10.4,112.4,9.6z"/>
			<path class="st0" d="M69.5,135.3l42.7,56.9c0,0.8-0.1,1.8-0.1,3c-0.1,0-0.1-0.1-0.2-0.2l-43.7-58.3v-1.3H69.5z"/>
			<path class="st0" d="M111.9,134.4c0,0.2,0,0.4-0.1,0.5c-0.1-0.4-0.1-0.8-0.2-1.2C111.8,133.9,111.9,134.1,111.9,134.4z"/>
			<path class="st0" d="M111.6,133.8c0.1,0.4,0.1,0.8,0.2,1.2c-0.2,0.2-0.4,0.4-0.7,0.4H110c-0.1-0.6-0.2-1.2-0.2-1.8h1.2
				C111.2,133.5,111.5,133.6,111.6,133.8z"/>
			<path class="st0" d="M111.6,162.8c0.2,0.3,0.2,0.6,0.1,0.9C111.7,163.5,111.7,163.1,111.6,162.8z"/>
			<path class="st0" d="M68.2,141.1l43.6,58.1c-0.1,0.7-0.2,1.4-0.2,2.1c0,0.2-0.1,0.4-0.1,0.6l-43.2-57.6V141.1z"/>
			<path class="st0" d="M111.6,162.8c0,0.3,0.1,0.6,0.1,0.9c0,0.1-0.1,0.2-0.2,0.3c-0.1,0.1-0.3,0.2-0.5,0.2c-0.3,0-0.5-0.1-0.7-0.3
				l-0.3-0.4c0-0.3-0.1-0.6-0.1-0.9c-0.1-0.7-0.1-1.5-0.2-2.3L111.6,162.8C111.6,162.8,111.6,162.8,111.6,162.8z"/>
			<path class="st0" d="M111.6,162.5c0,0.1,0,0.2,0,0.4c0,0,0,0,0-0.1l-1.9-2.4c-0.8-7.8-2.9-20.5-3.5-24l1.1-1.1h0.4
				C108,137.3,110.8,154.6,111.6,162.5z"/>
			<path class="st0" d="M111.6,133.8c-0.2-0.2-0.4-0.3-0.6-0.3h-1.2c-1.3-9.8-2.4-19.2-2.9-27.9c0.7-2.1,1.1-4.3,1.1-6.7
				c0-0.1,0-0.1,0-0.2c0-0.1,0-0.1,0-0.2c0-0.1,0-0.1,0-0.2c0,0,0,0,0,0c0.2-0.2,0.4-0.4,0.4-0.7h0
				C108.6,108.5,110,120.8,111.6,133.8z"/>
			<path class="st0" d="M110.2,212.6c-0.2,0.4-0.4,0.8-0.5,1.2c-0.1,0.3-0.4,0.5-0.7,0.5c-0.1,0-0.3,0-0.4-0.1
				c-0.4-0.2-0.6-0.8-0.4-1.2c0.1-0.1,0.1-0.2,0.2-0.4L110.2,212.6z"/>
			<path class="st0" d="M110,76l0.1,0c-0.8,4.3-1.4,8.8-1.6,13.5c-0.1,2.6-0.2,5.4-0.1,8.2h0c0-0.2-0.1-0.3-0.2-0.5l-1.7-2.2
				c0-1.9,0.1-3.9,0.2-5.7c0.2-4.3,0.7-8.6,1.4-12.6h1C109.5,76.7,109.9,76.4,110,76z"/>
			<path class="st0" d="M109.8,133.5c0.1,0.6,0.2,1.2,0.2,1.8h-2.3c0-0.1,0-0.2,0-0.2c0-0.1-0.1-0.2-0.2-0.4c0-0.2-0.1-0.4-0.2-0.6
				c-0.4-0.4-0.9-0.4-1.3-0.1l-1.4,1.3H89.5l-1-1.3c0,0,0,0,0,0v-0.5H109.8z"/>
			<path class="st0" d="M110,75.8c0,0.1,0,0.1,0,0.2c-0.1,0.4-0.4,0.7-0.9,0.7h-1c0.1-0.6,0.2-1.2,0.3-1.8h0.7
				C109.6,74.9,110,75.3,110,75.8z"/>
			<path class="st0" d="M109.9,162.7c0,0.3,0,0.6,0.1,0.9l-22.8-28.3h2.4l6.5,8.1l-0.4,0.3c-0.3,0.4-0.3,0.9,0,1.3
				c0.2,0.2,0.5,0.3,0.7,0.3c0.2,0,0.4-0.1,0.7-0.3l0.2-0.2l12.5,15.6C109.8,161.2,109.8,162,109.9,162.7z"/>
			<path class="st0" d="M109.6,284.2c0,0.1,0,0.2,0,0.3c0,7.5-22.4,11.5-43.5,11.5c-4.8,0-9.8-0.2-14.4-0.6l0-0.4
				c0.2,0,0.3,0,0.5-0.1l1.6-1.1c3.8,0.3,8,0.5,12.3,0.5c23.7,0,40.5-4.7,41.6-9.2l0.7,0c0.5,0,0.9-0.4,0.9-0.9L109.6,284.2z"/>
			<path class="st0" d="M109.6,284.2l-0.3,0c0-0.5-0.4-0.9-0.9-0.9l-1,0c-2.8-4.1-17.9-8.2-39-8.4V273
				C88.5,273.3,109,277.1,109.6,284.2z"/>
			<path class="st0" d="M108.4,283.3c0.5,0,0.9,0.4,0.9,0.9s-0.4,0.9-0.9,0.9l-0.7,0c0-0.2,0.1-0.3,0.1-0.5c0-0.4-0.2-0.9-0.4-1.3
				L108.4,283.3z"/>
			<path class="st0" d="M91.2,74.9h17.2c-0.1,0.6-0.2,1.2-0.3,1.8H92.6L91.2,74.9z"/>
			<path class="st0" d="M108.2,97.2c0.1,0.2,0.2,0.3,0.2,0.5c0,0.3-0.1,0.5-0.4,0.7c0,0,0,0,0,0c-0.1-0.4-0.4-0.7-0.9-0.7h-0.5
				c0-0.9,0-1.8,0-2.7L108.2,97.2z"/>
			<path class="st0" d="M108,98.4c0,0.1,0,0.1,0,0.2c0,0.1,0,0.1,0,0.2C108,98.6,107.9,98.6,108,98.4
				C107.9,98.5,107.9,98.4,108,98.4z"/>
			<path class="st0" d="M108,98.7c0,0.1,0,0.1,0,0.2c0,2.3-0.4,4.6-1.1,6.7c-0.1-2.1-0.2-4.1-0.3-6.1h0.5
				C107.6,99.5,107.9,99.2,108,98.7z"/>
			<path class="st0" d="M108,98.4C107.9,98.4,107.9,98.5,108,98.4c-0.2-0.2-0.5-0.4-0.9-0.4c-0.2,0-0.4,0.1-0.5,0.2l0,0
				c0-0.1,0-0.3,0-0.4h0.5C107.5,97.7,107.9,98,108,98.4z"/>
			<path class="st0" d="M107.9,98.5c0,0.1,0.1,0.2,0.1,0.3c-0.1,0.4-0.4,0.8-0.9,0.8h-0.5c0-0.4,0-0.9,0-1.3c0,0,0,0,0,0l0.1,0.1
				c0.2,0.3,0.4,0.4,0.7,0.4C107.6,98.7,107.7,98.6,107.9,98.5z"/>
			<path class="st0" d="M107.8,284.6c0,0.2,0,0.3-0.1,0.5l-39.7-0.4c0.2-0.2,0.3-0.5,0.3-0.8v-1l39,0.4
				C107.7,283.7,107.8,284.2,107.8,284.6z"/>
			<path class="st0" d="M107.7,135.3h-0.4c0.1-0.2,0.2-0.3,0.2-0.6c0.1,0.1,0.2,0.2,0.2,0.4C107.7,135.1,107.7,135.2,107.7,135.3z"
				/>
			<path class="st0" d="M107.9,98.5c-0.2,0.1-0.3,0.2-0.5,0.2c-0.3,0-0.5-0.1-0.7-0.4l-0.1-0.1c0.1-0.1,0.3-0.2,0.5-0.2
				C107.4,98,107.8,98.2,107.9,98.5z"/>
			<path class="st0" d="M107.3,134.1c0.1,0.2,0.2,0.4,0.2,0.6c-0.2-0.2-0.4-0.4-0.7-0.4c-0.5,0.1-0.8,0.5-0.8,0.9h-1.4l1.4-1.3
				C106.4,133.7,106.9,133.7,107.3,134.1z"/>
			<path class="st0" d="M107.5,134.7c0,0.2-0.1,0.4-0.2,0.6H106c0-0.4,0.3-0.8,0.8-0.9C107.1,134.4,107.3,134.5,107.5,134.7z"/>
			<path class="st0" d="M107.3,135.3l-1.1,1.1c-0.1-0.6-0.2-0.9-0.2-1c0,0,0-0.1,0-0.1H107.3z"/>
			<path class="st0" d="M106.6,99.5c0.1,2,0.2,4,0.3,6.1c-1,2.9-2.7,5.6-4.8,7.7c-3.5,3.5-8.2,5.8-13.5,6v-0.1
				c0.2-0.3,0.1-0.6,0-0.9v-1.2c9.5-0.4,17.2-8,17.7-17.6H106.6z"/>
			<path class="st0" d="M106.6,98.2c0,0.4,0,0.9,0,1.3h-0.4c0-0.2,0-0.4,0-0.6C106.2,98.6,106.3,98.3,106.6,98.2z"/>
			<path class="st0" d="M106.6,98.1L106.6,98.1C106.6,98.2,106.6,98.2,106.6,98.1C106.6,98.2,106.6,98.1,106.6,98.1z"/>
			<path class="st0" d="M106.6,98.1C106.6,98.1,106.6,98.2,106.6,98.1c-0.2,0.2-0.4,0.5-0.4,0.8c0,0.2,0,0.4,0,0.6H88.3
				c-0.2-0.2-0.4-0.4-0.8-0.4c-0.3,0-0.6,0.2-0.8,0.4H69c0-0.2,0-0.4,0-0.6c0-0.5-0.4-0.9-0.9-0.9h0v-0.3h38.2L106.6,98.1z"/>
			<path class="st0" d="M106.6,97.7c0,0.1,0,0.3,0,0.4l-0.3-0.4H106.6z"/>
			<path class="st0" d="M106.5,95c0,0.9,0,1.8,0,2.7h-0.3l-16-21h2.3L106.5,95z"/>
			<path class="st0" d="M106.2,136.3l-9,8.5l-1.2-1.5l8.6-8.1h1.4c0,0,0,0.1,0,0.1C106,135.4,106.1,135.8,106.2,136.3z"/>
			<path class="st0" d="M104.4,13.6l1,0.6c-0.6,0.3-1.1,0.7-1.6,1h0l-0.2-0.1c-0.4-0.2-0.6-0.8-0.4-1.2c0.1-0.1,0.2-0.2,0.3-0.3
				c0.1-0.1,0.3-0.1,0.4-0.1C104.1,13.5,104.3,13.5,104.4,13.6z"/>
			<path class="st0" d="M103.6,15.1l0.2,0.1c-1.5,1-2.9,2.2-4.2,3.5c-0.3-0.1-0.5-0.3-0.8-0.4c-0.4-0.3-1-0.1-1.2,0.3
				c-0.3,0.4-0.1,1,0.3,1.2l0.4,0.2c-1,1.2-2,2.5-2.8,3.8L94.1,23c2.4-4,5.6-7.2,9.3-9.5l0.1,0.1c-0.1,0.1-0.2,0.2-0.3,0.3
				C103,14.3,103.2,14.9,103.6,15.1z"/>
			<path class="st0" d="M98.9,18.3c0.2,0.1,0.5,0.3,0.8,0.4c-0.4,0.4-0.8,0.9-1.2,1.3L98,19.8c-0.4-0.2-0.6-0.8-0.3-1.2
				C97.9,18.2,98.5,18,98.9,18.3z"/>
			<path class="st0" d="M96,143.3l1.2,1.5L97,145c-0.3,0.2-0.5,0.3-0.7,0.3c-0.2,0-0.5-0.1-0.7-0.3c-0.3-0.4-0.3-0.9,0-1.3L96,143.3
				z"/>
			<path class="st0" d="M96.5,238.4c0.1,0.3,0.1,0.6-0.1,0.9c0,0,0,0,0,0c-0.1,0.1-0.3,0.2-0.4,0.3c0,0,0,0,0,0
				c-0.1,0-0.2,0.1-0.4,0c-0.4,0-0.7-0.2-0.8-0.6l-0.2-0.6c0.5-0.4,1-0.8,1.5-1.2L96.5,238.4z"/>
			<path class="st0" d="M96,239.6c0.2-0.1,0.3-0.2,0.4-0.3C96.3,239.4,96.2,239.5,96,239.6z"/>
			<path class="st0" d="M87.7,214.1l8.4,23.1c-0.5,0.4-1,0.8-1.5,1.2l-8.9-24.5l0.8-0.3c0.1,0.3,0.4,0.6,0.8,0.6L87.7,214.1z"/>
			<path class="st0" d="M95.6,239.6c0.2,0.1,0.3,0,0.4,0c-7.9,6.1-17.4,9.7-27.6,9.8v-1.8c6.6-0.1,12.9-1.7,18.6-4.5l0.2,0.5
				c0.1,0.4,0.4,0.6,0.8,0.6c0.1,0,0.2,0,0.3-0.1c0.4-0.1,0.7-0.6,0.5-1.1l-0.2-0.7c2.1-1.2,4.2-2.5,6.1-4l0.2,0.6
				C94.9,239.4,95.2,239.6,95.6,239.6z"/>
			<path class="st0" d="M94.1,23l1.5,0.9c-0.1,0.1-0.1,0.1-0.1,0.2c-0.1,0.2-0.2,0.4-0.3,0.5c-0.3,0.4-0.8,0.5-1.2,0.3
				c-0.4-0.3-0.5-0.8-0.3-1.2C93.8,23.5,94,23.2,94.1,23z"/>
			<polygon class="st0" points="91.2,74.9 92.6,76.7 90.3,76.7 88.9,74.9 			"/>
			<path class="st0" d="M68.7,45.3l22.5,29.6h-2.3L68,47.4l0-2.2C68.2,45.3,68.5,45.3,68.7,45.3z"/>
			<polygon class="st0" points="88.9,74.9 90.3,76.7 68.1,76.7 68.1,74.9 			"/>
			<path class="st0" d="M89.5,135.3h-2.4l-0.2-0.3c-0.2-0.2-0.3-0.5-0.2-0.8c0.1,0.4,0.4,0.7,0.9,0.7c0.5-0.1,0.9-0.4,0.9-0.9
				L89.5,135.3z"/>
			<path class="st0" d="M88.7,243c0.2,0.5-0.1,1-0.5,1.1c-0.1,0.1-0.2,0.1-0.3,0.1c-0.4,0-0.7-0.2-0.8-0.6l-0.2-0.5
				c0.5-0.3,1-0.5,1.5-0.8L88.7,243z"/>
			<path class="st0" d="M88.5,118.3c0.1,0.3,0.2,0.6,0,0.9V118.3z"/>
			<path class="st0" d="M88.5,133.5v0.5c0,0,0,0,0,0l-0.2-0.2c-0.1-0.1-0.3-0.2-0.5-0.3H88.5z"/>
			<path class="st0" d="M88.5,119.3v14.2h-0.7c-0.2-0.1-0.4-0.1-0.5,0h-0.6v-12.8l1.5-1.2l0.1-0.1C88.3,119.4,88.4,119.3,88.5,119.3
				C88.4,119.3,88.5,119.3,88.5,119.3z"/>
			<path class="st0" d="M88.5,119.1v0.1c0,0-0.1,0-0.1,0C88.4,119.2,88.5,119.2,88.5,119.1z"/>
			<path class="st0" d="M88.5,118.3v0.9c0,0-0.1,0.1-0.1,0.2c-0.3,0-0.5,0-0.8,0c-0.3,0-0.6,0-0.9,0v-1l0.4-0.3
				c0.4-0.3,0.9-0.3,1.3,0.1C88.4,118.1,88.5,118.2,88.5,118.3z"/>
			<path class="st0" d="M88.5,117.1v1.2c0-0.1-0.1-0.1-0.1-0.2c-0.4-0.4-0.9-0.4-1.3-0.1l-0.4,0.3v-1.2c0.3,0,0.6,0,0.9,0
				c0.1,0,0.2,0,0.4,0C88.2,117.1,88.3,117.1,88.5,117.1z"/>
			<path class="st0" d="M88.5,100v17.1c-0.2,0-0.3,0-0.5,0c-0.1,0-0.2,0-0.4,0c-0.3,0-0.6,0-0.9,0V100c0-0.2,0.1-0.4,0.2-0.5h1.5
				C88.4,99.6,88.5,99.8,88.5,100z"/>
			<path class="st0" d="M88.3,133.8l0.2,0.2c0,0.5-0.4,0.8-0.9,0.9c-0.4,0-0.8-0.3-0.9-0.7v0c0-0.2,0.1-0.3,0.3-0.5
				c0.1-0.1,0.2-0.2,0.3-0.2h0.5C88,133.5,88.2,133.7,88.3,133.8z"/>
			<path class="st0" d="M68.3,186.9l20.1,55.4c-0.5,0.3-1,0.5-1.5,0.8L68.3,192L68.3,186.9z"/>
			<path class="st0" d="M88.4,119.3c0,0-0.1,0.1-0.1,0.1l-0.1,0.1l-1.5,1.2v-1.4c0.3,0,0.6,0,0.9,0
				C87.9,119.3,88.1,119.3,88.4,119.3z"/>
			<path class="st0" d="M88.3,99.5h-1.5c0.2-0.2,0.4-0.4,0.8-0.4C87.9,99.1,88.2,99.3,88.3,99.5z"/>
			<path class="st0" d="M87.8,133.5h-0.5C87.5,133.4,87.7,133.4,87.8,133.5z"/>
			<path class="st0" d="M87,212.3l0.7,1.8l-0.5,0c-0.4,0-0.7-0.2-0.8-0.6c-0.1-0.1-0.1-0.2-0.1-0.4C86.3,212.8,86.6,212.4,87,212.3z
				"/>
			<path class="st0" d="M86.7,133.5h0.6c-0.1,0-0.2,0.1-0.3,0.2c-0.2,0.2-0.2,0.3-0.3,0.5c0-0.1,0-0.1,0-0.2V133.5z"/>
			<path class="st0" d="M86.9,135l0.2,0.3H69.5l-0.5-0.7l1.4-1.1h16.3v0.5c0,0.1,0,0.1,0,0.2v0C86.6,134.5,86.7,134.7,86.9,135z"/>
			<path class="st0" d="M68.2,160.7L87,212.3c-0.4,0.1-0.7,0.4-0.7,0.9c0,0.1,0,0.2,0.1,0.4l-0.8,0.3l-19.2-52.6l0,0
				c0.1,0.3,0.4,0.6,0.8,0.6c0.5,0,0.9-0.4,0.9-0.8V160.7z"/>
			<path class="st0" d="M86.7,119.3v1.4l-16.3,12.8h-2.2v-0.6l17.4-13.7C85.9,119.2,86.3,119.3,86.7,119.3z"/>
			<path class="st0" d="M86.7,118.3v1c-0.4,0-0.8,0-1.1-0.1L86.7,118.3z"/>
			<path class="st0" d="M86.7,117.1v1.2l-1.1,0.9c-2.2-0.2-4.2-0.8-6.2-1.6l0.5-0.4c0.2-0.2,0.3-0.5,0.3-0.8c0-0.2-0.1-0.4-0.2-0.5
				c-0.3-0.4-0.9-0.4-1.3-0.1l-1.1,0.9c-1.4-0.8-2.7-1.8-3.9-2.8l0.4-0.3c0.3-0.4,0.4-0.9,0.1-1.3c-0.3-0.4-0.9-0.5-1.3-0.2
				l-0.6,0.4c-1.9-2.1-3.4-4.7-4.2-7.5l0-5.4H69C69.5,109.1,77.3,116.6,86.7,117.1z"/>
			<path class="st0" d="M80,115.9c0.1,0.2,0.2,0.3,0.2,0.5c0,0.3-0.1,0.5-0.3,0.8l-0.5,0.4c-0.6-0.3-1.2-0.6-1.8-0.9l1.1-0.9
				C79.1,115.5,79.7,115.5,80,115.9z"/>
			<path class="st0" d="M79.4,117.6l-11.1,8.7l-0.2-0.2v-2l9.4-7.4C78.2,117,78.8,117.3,79.4,117.6z"/>
			<path class="st0" d="M74.2,112.2c0.3,0.4,0.2,0.9-0.1,1.3l-0.4,0.3c-0.5-0.4-0.9-0.9-1.3-1.4l0.6-0.4
				C73.3,111.7,73.9,111.8,74.2,112.2z"/>
			<path class="st0" d="M72.3,112.4c0.4,0.5,0.9,0.9,1.3,1.4l-5.4,4.2c-0.1,0-0.1,0-0.2,0l0-2.3L72.3,112.4z"/>
			<path class="st0" d="M70.4,133.5l-1.4,1.1l-0.6-0.8c-0.1-0.1-0.2-0.2-0.2-0.2v-0.1H70.4z"/>
			<path class="st0" d="M69.5,135.3h-1.4V135c0.1,0,0.3,0,0.4-0.1l0.4-0.3L69.5,135.3z"/>
			<path class="st0" d="M69,98.9c0,0.2,0,0.4,0,0.6h-0.9V98h0C68.6,98,69,98.4,69,98.9z"/>
			<path class="st0" d="M68.4,133.8l0.6,0.8l-0.4,0.3c-0.2,0.1-0.3,0.1-0.4,0.1l0-1.4C68.2,133.6,68.3,133.7,68.4,133.8z"/>
			<path class="st0" d="M68.1,44.5l0.6,0.8c-0.2,0-0.5,0-0.7,0v-0.9C68,44.4,68,44.4,68.1,44.5z"/>
			<path class="st0" d="M68.4,282.9v1c0,0.3-0.1,0.6-0.3,0.8h-0.5l-0.3,0.2h0c-0.4-0.1-0.7-0.4-0.7-0.9v-0.8l0.3-0.2
				c0.2-0.1,0.3-0.1,0.5-0.1L68.4,282.9z"/>
			<path class="st0" d="M68.4,274.9l0,8l-1,0c-0.2,0-0.3,0-0.5,0.1l-0.3,0.2l0-8.3C67.2,274.9,67.8,274.9,68.4,274.9z"/>
			<path class="st0" d="M68.4,273v1.9c-0.6,0-1.2,0-1.8,0V273C67.2,273,67.8,273,68.4,273z"/>
			<path class="st0" d="M68.4,249.4l0,23.6c-0.6,0-1.2,0-1.8,0l0-23.6c0.5,0,0.9,0,1.3,0C68.1,249.4,68.2,249.4,68.4,249.4z"/>
			<path class="st0" d="M68.4,247.6v1.8c-0.2,0-0.3,0-0.5,0c-0.5,0-0.9,0-1.3,0v-1.8c0.4,0,0.8,0,1.2,0
				C68,247.6,68.2,247.6,68.4,247.6z"/>
			<path class="st0" d="M68.3,216.5l0,31c-0.2,0-0.4,0-0.6,0c-0.4,0-0.8,0-1.2,0l0-30.3h0.8c0.4,0,0.8-0.3,0.8-0.8H68.3z"/>
			<path class="st0" d="M68.3,192l0,24.6h-0.2c0-0.1,0-0.1,0-0.2c0-0.1,0-0.3-0.1-0.4c0,0,0,0,0,0c0-2.8-0.5-5.5-1.5-8.1l0-20.9
				L68.3,192z"/>
			<path class="st0" d="M68.3,186.9l0,5.1l-1.8-4.9v-0.4c0-0.5,0.4-0.9,0.9-0.9c0.2,0,0.4,0.1,0.6,0.2L68.3,186.9z"/>
			<path class="st0" d="M68.3,186.7v0.2L68,186C68.2,186.2,68.3,186.4,68.3,186.7z"/>
			<path class="st0" d="M68.2,160.7l-1.8-5l0-13.9c0,0,0,0,0,0l1.8,2.4L68.2,160.7z"/>
			<path class="st0" d="M66.4,155.8l1.8,5v0.2c0,0.4-0.4,0.8-0.9,0.8c-0.4,0-0.7-0.2-0.8-0.6c-0.1-0.1-0.1-0.2-0.1-0.4L66.4,155.8z"
				/>
			<path class="st0" d="M68.2,141.1v3.1l-1.8-2.4c0,0,0,0,0,0v-1c0-0.1,0.1-0.2,0.2-0.3c0.4-0.3,1-0.2,1.3,0.2L68.2,141.1z"/>
			<path class="st0" d="M68.2,136.6l0,4.6l-0.3-0.3c-0.3-0.4-0.9-0.5-1.3-0.2c-0.1,0.1-0.2,0.2-0.2,0.3l0-23.7h0.5
				c0,0.5,0.4,0.9,0.9,0.9c0.1,0,0.3,0,0.4-0.1l0,6.1l-1,0.8l0.6,0.7l0.4,0.5l0,6.8l-0.7,0.5c0,0,0,0-0.1,0.1
				c-0.1,0-0.2,0.1-0.3,0.2c-0.1,0.1-0.2,0.2-0.2,0.3c0,0,0,0.1,0,0.1c0,0-0.1,0.1-0.1,0.1c0,0.1-0.1,0.2-0.1,0.3
				c0,0.3,0.1,0.6,0.4,0.7L68.2,136.6z"/>
			<path class="st0" d="M68.2,136.6l-1.1-1.4c0.1,0.1,0.3,0.2,0.5,0.2h0.6V136.6z"/>
			<path class="st0" d="M68.2,135v0.3h-0.6c-0.2,0-0.4-0.1-0.5-0.2l-0.2-0.2c-0.2-0.2-0.2-0.5-0.2-0.8c0-0.1,0-0.1,0.1-0.1
				c0,0,0-0.1,0-0.1c0.1-0.2,0.3-0.3,0.5-0.3c-0.3,0.3-0.3,0.8,0,1.1c0.2,0.2,0.4,0.3,0.7,0.3C68.1,135,68.1,135,68.2,135z"/>
			<path class="st0" d="M68.2,133.6l0,1.4c-0.1,0-0.1,0-0.2,0c-0.3,0-0.5-0.1-0.7-0.3c-0.2-0.3-0.2-0.8,0-1.1c0,0,0,0,0,0
				c0.1,0,0.2,0,0.2,0H68C68.1,133.5,68.1,133.5,68.2,133.6z"/>
			<path class="st0" d="M68.2,133.5L68.2,133.5c-0.1,0-0.1,0-0.2,0H68.2z"/>
			<path class="st0" d="M68.2,132.9v0.6H68c-0.2-0.1-0.4-0.1-0.5-0.1c0,0,0,0,0.1-0.1L68.2,132.9z"/>
			<polygon class="st0" points="68.1,124.1 68.1,126.1 67.7,125.6 67.1,124.9 			"/>
			<path class="st0" d="M68.1,115.7l0,2.3c-0.1,0-0.3,0.1-0.4,0.1c-0.5,0-0.9-0.4-0.9-0.9c0-0.3,0.1-0.5,0.3-0.7L68.1,115.7z"/>
			<path class="st0" d="M68.1,104.9l0,10.8l-1,0.8c-0.2,0.2-0.3,0.4-0.3,0.7h-0.5l-0.1-40.5h1.8l0,21h-0.2c-0.5,0-0.9,0.4-0.9,0.9
				c0,0.2,0.1,0.4,0.2,0.6C67.2,101.2,67.5,103.1,68.1,104.9z"/>
			<path class="st0" d="M68.1,216.4c0,0.1,0,0.1,0,0.2c0,0.4-0.4,0.8-0.8,0.8h-0.8v-0.6c0.2,0.1,0.3,0.2,0.6,0.2
				c0.5,0,0.9-0.4,0.9-0.9C68.1,216.1,68.1,216.2,68.1,216.4z"/>
			<path class="st0" d="M68.1,99.5l0,5.4c-0.6-1.8-0.9-3.8-0.9-5.8c0.2,0.2,0.4,0.3,0.7,0.3H68.1z"/>
			<path class="st0" d="M68.1,98v1.5h-0.2c-0.3,0-0.5-0.1-0.7-0.3c0-0.1,0-0.2,0-0.3C67.2,98.4,67.6,98,68.1,98z"/>
			<path class="st0" d="M68.1,97.7V98c-0.5,0-0.9,0.4-0.9,0.9c0,0.1,0,0.2,0,0.3C67.1,99,67,98.8,67,98.6c0-0.5,0.4-0.9,0.9-0.9
				H68.1z"/>
			<polygon class="st0" points="68.1,74.9 68.1,76.7 66.3,76.7 66.2,74.9 			"/>
			<path class="st0" d="M68,47.4l0,27.5h-1.8l-0.1-29.6c0.1,0,0.2,0,0.2,0c0,0.1,0.1,0.2,0.2,0.3L68,47.4z"/>
			<path class="st0" d="M67.6,284.7h0.5c-0.2,0.1-0.3,0.2-0.6,0.2c-0.1,0-0.1,0-0.2,0L67.6,284.7z"/>
			<path class="st0" d="M68,45.3l0,2.2l-1.4-1.9c-0.1-0.1-0.1-0.2-0.2-0.3c0.3,0,0.6,0,0.9,0C67.5,45.3,67.8,45.3,68,45.3z"/>
			<path class="st0" d="M68,44.4v0.9c-0.2,0-0.5,0-0.7,0c-0.3,0-0.6,0-0.9,0c-0.1-0.3,0-0.7,0.3-1C67.1,44,67.6,44,68,44.4z"/>
			<path class="st0" d="M68,44.3L68,44.3c-0.4-0.3-0.9-0.3-1.3,0c-0.3,0.3-0.4,0.7-0.3,1c-0.1,0-0.2,0-0.2,0v-1
				c0-0.3,0.2-0.7,0.5-0.8c0.2,0,0.4,0,0.6,0c0.1,0,0.1,0,0.2,0C67.8,43.6,68,43.9,68,44.3z"/>
			<path class="st0" d="M68,216C68,216,68,216,68,216c0,0.5-0.4,0.9-0.9,0.9c-0.2,0-0.4-0.1-0.6-0.2v-1.2h0.7
				C67.6,215.5,67.8,215.7,68,216z"/>
			<path class="st0" d="M68,133.5h-0.4c-0.1,0-0.2,0-0.2,0c0,0,0.1-0.1,0.1-0.1C67.6,133.4,67.8,133.4,68,133.5z"/>
			<path class="st0" d="M55.6,152L68,186c-0.2-0.1-0.3-0.2-0.6-0.2c-0.5,0-0.9,0.4-0.9,0.9v0.4l-12.1-33.2l0.4-0.6
				c0.4-0.1,0.7-0.5,0.7-0.9c0-0.1,0-0.2-0.1-0.3L55.6,152z"/>
			<path class="st0" d="M67.5,43.5c-0.1,0-0.1,0-0.2,0c-0.2,0-0.4,0-0.6,0c0.1-0.1,0.2-0.1,0.4-0.1S67.4,43.4,67.5,43.5z"/>
			<path class="st0" d="M67.4,133.4C67.4,133.5,67.4,133.5,67.4,133.4c-0.1,0.1-0.1,0.1-0.1,0.1c-0.2,0.1-0.4,0.2-0.5,0.3
				c0.1-0.1,0.1-0.2,0.2-0.3C67.2,133.5,67.3,133.5,67.4,133.4z"/>
			<path class="st0" d="M68,216c-0.2-0.3-0.4-0.5-0.8-0.5h-0.7l0-7.6C67.5,210.4,68,213.2,68,216z"/>
			<path class="st0" d="M67.3,284.9l-13.5,9c-1-0.1-1.9-0.1-2.8-0.2l4.5-8.6H24.4c0-0.1,0-0.3,0-0.4c0-0.5,0.2-0.9,0.5-1.4H57
				c0.3,0,0.6,0.2,0.8,0.4c0.2,0.3,0.2,0.6,0,0.9l-3.6,6.9l12.4-8.2v0.8C66.6,284.4,66.9,284.8,67.3,284.9z"/>
			<path class="st0" d="M66.9,134.9l0.2,0.2c-0.2-0.2-0.4-0.4-0.4-0.7c0-0.1,0-0.2,0.1-0.3C66.7,134.4,66.7,134.7,66.9,134.9z"/>
			<path class="st0" d="M66.8,133.9C66.8,133.9,66.8,133.9,66.8,133.9C66.8,134,66.8,133.9,66.8,133.9z"/>
			<path class="st0" d="M66.8,134c0,0,0,0.1-0.1,0.1C66.8,134.1,66.8,134,66.8,134z"/>
			<path class="st0" d="M66.6,273v1.9c-0.2,0-0.3,0-0.5,0c-22.1,0-38.2,4.1-41.2,8.3h-1.4c-0.4,0-0.7,0.2-0.8,0.5
				c1.5-7,23.1-10.7,43.4-10.7C66.3,273,66.4,273,66.6,273z"/>
			<path class="st0" d="M66.6,247.6v1.8c-19.5-0.6-36.2-13.8-44-32.6c0.1,0.1,0.3,0.1,0.5,0.1c0,0,0,0,0,0c0.2,0.2,0.4,0.4,0.8,0.4
				h0.8C32.4,234.8,48.2,247,66.6,247.6z"/>
			<path class="st0" d="M66.5,216.7v0.6H47v-0.6c0.5,0,0.9-0.4,0.9-0.9v-0.3h18.3c0,0.2,0,0.3,0,0.5
				C66.2,216.3,66.3,216.5,66.5,216.7z"/>
			<path class="st0" d="M66.5,215.5v1.2c-0.2-0.2-0.3-0.4-0.3-0.7c0-0.2,0-0.3,0-0.5H66.5z"/>
			<path class="st0" d="M66.5,207.9l0,7.6h-0.3c-0.2-10.5-8.1-19.1-18.3-20.4v-1.8C56.5,194.3,63.6,200.1,66.5,207.9z"/>
			<path class="st0" d="M66.5,161.2L66.5,161.2L66.5,161.2l-31-84.9l0.6-0.2c0.1,0.3,0.5,0.5,0.8,0.5h0.7l28.8,79.1l0,5.1
				C66.4,161,66.4,161.1,66.5,161.2z"/>
			<path class="st0" d="M66.4,140.9v1C66.2,141.6,66.2,141.2,66.4,140.9z"/>
			<polygon class="st0" points="66.2,74.9 66.3,76.7 37.6,76.7 36.9,74.9 			"/>
			<path class="st0" d="M66.7,43.5c-0.3,0.1-0.5,0.5-0.5,0.8v1c-14.1,0-27.2-0.5-37.2-1.6c-1.3-0.1-2.5-0.3-3.6-0.4l-0.7-1.8
				C33.7,42.6,48,43.5,66.7,43.5z"/>
			<path class="st1" d="M66.2,215.5H47.9v-20.4C58.1,196.4,65.9,205,66.2,215.5z"/>
			<path class="st0" d="M47.8,130.6l7.8,21.3l-0.2,0.1c-0.1-0.3-0.5-0.6-0.8-0.6l-1,0L47.9,136v-5C47.9,130.9,47.9,130.8,47.8,130.6
				L47.8,130.6z"/>
			<path class="st0" d="M55.4,152c0,0.1,0.1,0.2,0.1,0.3c0,0.4-0.3,0.8-0.7,0.9L55,153c0.1,0,0.1-0.1,0.1-0.1c0.3-0.4,0.1-1-0.3-1.2
				c-0.4-0.3-0.9-0.1-1.1,0.2l-0.1-0.4l1,0C55,151.5,55.3,151.7,55.4,152z"/>
			<path class="st0" d="M54.8,151.7c0.4,0.2,0.6,0.8,0.3,1.2c0,0,0,0.1-0.1,0.1l-0.2,0.3c-0.1,0-0.1,0-0.2,0h-0.4l-0.5-1.4
				C53.9,151.6,54.4,151.4,54.8,151.7z"/>
			<path class="st0" d="M54.8,153.3l-0.4,0.6l-0.2-0.6h0.4C54.7,153.3,54.8,153.3,54.8,153.3z"/>
			<polygon class="st0" points="54.2,153.3 54.4,153.9 47.9,163.4 47.9,160.4 52.7,153.3 			"/>
			<path class="st0" d="M53.7,151.9l0.5,1.4l-1.5,0l0.9-1.3C53.6,152,53.7,151.9,53.7,151.9z"/>
			<path class="st0" d="M53.8,293.8l-1.6,1.1c-0.2,0.1-0.3,0.1-0.5,0.1s-0.4-0.1-0.6-0.2c-0.3-0.3-0.4-0.7-0.2-1.1l0-0.1
				C51.9,293.7,52.8,293.8,53.8,293.8z"/>
			<path class="st0" d="M53.5,151.5l0.1,0.4c0,0-0.1,0.1-0.1,0.1l-0.9,1.3l-4.8,0v-1.8L53.5,151.5z"/>
			<path class="st0" d="M51.7,295l0,0.4c-15.8-1.4-29.1-5.1-29.1-10.9c0-0.1,0-0.2,0-0.3c0.1,0.4,0.4,0.8,0.9,0.8h0.9
				c0.7,3.5,10.9,7.1,26.5,8.6l0,0.1c-0.2,0.4-0.1,0.8,0.2,1.1C51.3,294.9,51.5,295,51.7,295z"/>
			<path class="st0" d="M47.9,215.5v0.3c0,0.5-0.4,0.9-0.9,0.9s-0.9-0.4-0.9-0.9v-0.3H47.9z"/>
			<path class="st0" d="M47.9,195.1v20.4h-1.8v-20.6C46.7,194.9,47.3,195,47.9,195.1z"/>
			<path class="st0" d="M47.9,193.3v1.8c-0.6-0.1-1.2-0.1-1.8-0.2v-1.8C46.7,193.1,47.3,193.2,47.9,193.3z"/>
			<path class="st0" d="M47.9,163.4v29.8c-0.6-0.1-1.2-0.1-1.8-0.1v-27L47.9,163.4z"/>
			<polygon class="st0" points="47.9,160.4 47.9,163.4 46.1,166.1 46.1,163 			"/>
			<polygon class="st0" points="47.9,153.3 47.9,160.4 46.1,163 46.1,153.2 			"/>
			<polygon class="st0" points="47.9,151.5 47.9,153.3 46.1,153.2 46.1,151.4 			"/>
			<polygon class="st0" points="47.9,136 47.9,151.5 46.1,151.4 46.1,131 			"/>
			<path class="st0" d="M47.9,131v5l-1.8-4.9v0c0-0.5,0.4-0.9,0.9-0.9c0.4,0,0.7,0.2,0.8,0.5C47.9,130.8,47.9,130.9,47.9,131z"/>
			<path class="st0" d="M32.4,88.1l15.5,42.6h0c-0.1-0.3-0.5-0.5-0.8-0.5c-0.5,0-0.9,0.4-0.9,0.9v0L32.3,93.3c0-1.6-0.1-3.2-0.1-4.8
				c0-0.1,0-0.2-0.1-0.3L32.4,88.1z"/>
			<path class="st0" d="M47,216.7v0.6H24.7c-0.2-0.5-0.5-1.1-0.7-1.6c0-0.1,0-0.1,0-0.2h22.1v0.3C46.1,216.3,46.5,216.7,47,216.7z"
				/>
			<path class="st1" d="M46.1,194.9v20.6H24c0.3-11.5,9.6-20.6,21.1-20.6C45.4,194.9,45.8,194.9,46.1,194.9z"/>
			<path class="st0" d="M46.1,193.1v1.8c-0.3,0-0.7,0-1,0c-11.5,0-20.8,9.1-21.1,20.6h-0.1c-0.5-1.2-0.9-2.4-1.3-3.7
				c0.9-4.6,3.1-8.8,6.3-12c4.2-4.2,9.9-6.7,16.2-6.7C45.4,193.1,45.8,193.1,46.1,193.1z"/>
			<path class="st0" d="M46.1,163v3.1l-25.3,37.2c0,0.1-0.1,0.2-0.3,0.3c-0.1-0.8-0.3-1.6-0.4-2.4L46.1,163z"/>
			<path class="st0" d="M46.1,151.4v1.8l-19.6-0.1c0.3-0.1,0.5-0.4,0.6-0.7l0.1-1.1L46.1,151.4z"/>
			<path class="st0" d="M36.9,74.9l0.7,1.8h-0.7c-0.4,0-0.7-0.2-0.8-0.5c0-0.1-0.1-0.2-0.1-0.3C36,75.3,36.4,74.9,36.9,74.9
				L36.9,74.9z"/>
			<path class="st0" d="M25.4,43.3l11.5,31.6h0c-0.5,0-0.9,0.4-0.9,0.9c0,0.1,0,0.2,0.1,0.3l-0.6,0.2L23.4,43
				C24,43.1,24.7,43.2,25.4,43.3z"/>
			<path class="st0" d="M32.4,88.1l-0.2,0.1c-0.1-0.3-0.5-0.6-0.8-0.6c-0.1,0-0.1,0-0.1,0c-0.3,0.1-0.6,0.2-0.7,0.5l-3.5-9.8
				c-0.4-2.8-1-5.7-1.6-8.4c0-0.1,0-0.1,0-0.2c0,0,0-0.1,0-0.1l0.3-0.1L32.4,88.1z"/>
			<path class="st0" d="M32.3,93.3c0.2,14.9-2.1,33.2-4.4,52.5l-0.7,5.5l-1.8,0l0.7-5.7c2.5-20.5,5.1-41.6,4.3-57
				c0-0.2,0-0.3,0.1-0.5L32.3,93.3z"/>
			<path class="st0" d="M32.3,93.3l-1.9-5.2c0.1-0.3,0.4-0.5,0.7-0.5c0,0,0,0,0.1,0c0.4,0,0.7,0.2,0.8,0.6c0,0.1,0.1,0.2,0.1,0.3
				C32.3,90,32.3,91.6,32.3,93.3z"/>
			<path class="st0" d="M28,89.4c0.8,15.1-1.6,34-4,54.1c-0.3,2.6-0.6,5.2-1,7.8l-0.9,0c-0.4,0-0.8,0.3-0.9,0.6
				c0.4-2.9,0.7-5.8,1.1-8.7c2.5-19.9,4.8-38.8,4-53.7C26,83,25.1,76.6,23.6,70.2c-0.1-0.3-0.1-0.5,0.1-0.7l3.2,8.9
				C27.5,82,27.8,85.7,28,89.4z"/>
			<path class="st0" d="M27.2,151.3l-0.1,1.1c-0.1,0.3-0.3,0.6-0.6,0.7l-0.6,0c-0.4-0.1-0.6-0.5-0.6-0.9l0.1-0.9L27.2,151.3z"/>
			<path class="st0" d="M26.9,78.3l-3.2-8.9c0.1-0.2,0.3-0.3,0.5-0.4c0.4-0.2,0.9,0.1,1.1,0.5c0,0,0,0.1,0,0.1c0,0.1,0,0.1,0,0.2
				C26,72.7,26.5,75.5,26.9,78.3z"/>
			<path class="st0" d="M25.9,153.1l0.6,0c-0.1,0-0.2,0.1-0.3,0.1h-0.1C26,153.2,25.9,153.2,25.9,153.1z"/>
			<path class="st0" d="M25.9,153.1l-3,0c0.1-0.6,0.1-1.2,0.2-1.8l2.4,0l-0.1,0.9C25.3,152.6,25.5,153,25.9,153.1z"/>
			<path class="st0" d="M15.4,41.4l10.2,28l-0.3,0.1c-0.2-0.4-0.6-0.6-1.1-0.5c-0.2,0.1-0.4,0.2-0.5,0.4L13.1,40.3
				C13.5,40.7,14.2,41,15.4,41.4z"/>
			<path class="st0" d="M24.7,41.5l0.7,1.8c-0.7-0.1-1.4-0.2-2-0.3l-0.7-1.8C23.3,41.3,24,41.4,24.7,41.5z"/>
			<path class="st0" d="M23.5,283.2h1.4c-0.3,0.5-0.5,0.9-0.5,1.4c0,0.1,0,0.3,0,0.4h-0.9c-0.5,0-0.8-0.3-0.9-0.8c0-0.2,0-0.3,0-0.5
				c0,0,0,0,0,0C22.8,283.4,23.1,283.2,23.5,283.2z"/>
			<path class="st0" d="M23.1,36.9l1.6,4.5c-0.7-0.1-1.4-0.2-2-0.3l-1.4-4C21.8,37.1,22.4,37,23.1,36.9z"/>
			<path class="st0" d="M24.7,217.3h-0.8c-0.3,0-0.6-0.2-0.8-0.4c0,0,0,0,0,0c0.5,0,0.9-0.4,0.9-0.9c0-0.1,0-0.2,0-0.3
				C24.2,216.2,24.5,216.8,24.7,217.3z"/>
			<path class="st0" d="M24,215.5c0,0.1,0,0.1,0,0.2C24,215.6,24,215.6,24,215.5L24,215.5z"/>
			<path class="st0" d="M23.9,215.5c0,0.1,0,0.1,0.1,0.2c0,0.1,0,0.2,0,0.3c0,0.5-0.4,0.9-0.9,0.9c-0.1-0.1-0.1-0.3-0.1-0.5
				C23,215.9,23.4,215.5,23.9,215.5L23.9,215.5z"/>
			<path class="st0" d="M23.9,215.5L23.9,215.5c-0.5,0-0.9,0.4-0.9,0.9c0,0.2,0,0.4,0.1,0.5c0,0,0,0,0,0c0,0,0,0,0,0
				c-0.2,0-0.4-0.1-0.5-0.1c-0.1-0.3-0.3-0.6-0.4-1c0-1.4,0.1-2.7,0.4-4C23,213.1,23.5,214.3,23.9,215.5z"/>
			<path class="st0" d="M22.7,41.2l0.7,1.8c-3.9-0.5-6.4-1.1-8-1.6l-0.8-2.1C15.7,39.9,18.4,40.6,22.7,41.2z"/>
			<path class="st0" d="M22.4,35.1l0.7,1.9c-0.6,0.1-1.3,0.2-1.8,0.3l-0.7-1.8C21.1,35.3,21.8,35.2,22.4,35.1z"/>
			<path class="st0" d="M23,151.3c-0.1,0.6-0.1,1.2-0.2,1.8h-0.7c-0.5,0-0.9-0.4-0.9-0.8c0-0.1,0-0.2,0-0.3c0.1-0.4,0.5-0.6,0.9-0.6
				L23,151.3z"/>
			<path class="st0" d="M22.1,153.1h0.7c-1.5,12.2-2.8,24.7-3.4,37c0.1,0.2,0.2,0.3,0.2,0.5c0,0.7,0,1.5,0,2.2
				c0,2.8,0.2,5.6,0.6,8.4l-0.8,1.1c-0.3,0.4-0.2,0.9,0.2,1.2c0.1,0.1,0.3,0.2,0.5,0.2c0.1,0,0.3-0.1,0.4-0.1
				c0.5,2.8,1.2,5.6,2.1,8.3c-0.2,1.3-0.4,2.6-0.4,4c-2.8-7-4.3-14.8-4.3-23c0-0.6,0-1.1,0-1.7c-0.1-0.2-0.2-0.3-0.2-0.5
				c0,0,0,0,0-0.1c0.6-12.7,2-25.6,3.5-38.2C21.2,152.7,21.6,153.1,22.1,153.1z"/>
			<path class="st0" d="M22.6,284.1c0-0.1,0-0.2,0.1-0.4c0,0.2,0,0.3,0,0.5C22.6,284.2,22.6,284.1,22.6,284.1z"/>
			<path class="st0" d="M10.2,1.6l12.2,33.5c-0.7,0.1-1.3,0.2-1.8,0.3L8.9,3.5C9.8,2.8,10.1,2.1,10.2,1.6c-0.1-0.1-0.1-0.1-0.1-0.2
				C10.1,1.5,10.2,1.5,10.2,1.6z"/>
			<path class="st0" d="M22.2,215.8c0.1,0.3,0.2,0.6,0.4,1c-0.2-0.2-0.4-0.4-0.4-0.8C22.2,215.9,22.2,215.8,22.2,215.8z"/>
			<path class="st0" d="M21.2,151.9c0,0.1,0,0.2,0,0.3c0,0,0,0,0-0.1C21.2,152.1,21.2,152,21.2,151.9z"/>
			<path class="st0" d="M20.6,35.4l0.7,1.8c-3.6,0.6-5.9,1.2-6.8,1.7l-0.6-1.8C15,36.6,17,36,20.6,35.4z"/>
			<path class="st0" d="M20.2,201.2c0.1,0.8,0.2,1.6,0.4,2.4c-0.1,0.1-0.3,0.1-0.4,0.1c-0.2,0-0.4-0.1-0.5-0.2
				c-0.4-0.3-0.5-0.8-0.2-1.2L20.2,201.2z"/>
			<path class="st0" d="M14.6,39.3l0.8,2.1c-1.2-0.4-1.9-0.8-2.3-1.1l-0.6-1.7c0.1-0.4,0.4-0.9,1.4-1.4l0.6,1.8
				c-0.1,0-0.1,0.1-0.2,0.1C14.4,39.2,14.5,39.2,14.6,39.3z"/>
			<path class="st0" d="M14.5,39l0.1,0.4c-0.1-0.1-0.2-0.1-0.3-0.2C14.4,39,14.4,39,14.5,39z"/>
			<path class="st0" d="M2.5,5.9l11.4,31.3c-1.1,0.5-1.3,1-1.4,1.4L0.3,5.3c0-0.1,0-0.1,0-0.2C0.6,5.7,1.5,5.9,2.5,5.9
				C2.4,5.9,2.5,5.9,2.5,5.9z"/>
			<path class="st0" d="M12.4,38.6l0.6,1.7c-0.7-0.5-0.7-1-0.7-1.3C12.4,38.9,12.4,38.7,12.4,38.6z"/>
			<path class="st0" d="M10.1,1.4c0,0.1,0,0.1,0,0.2c0,0.5-0.3,1.1-1.2,1.9L8.5,2.3c-0.2-0.5,0-1,0.5-1.2C9.4,0.9,9.8,1.1,10.1,1.4z
				"/>
			<path class="st0" d="M10,1.1c0,0.1,0.1,0.2,0.1,0.3C9.8,1.1,9.4,0.9,9,1.1C8.5,1.3,8.3,1.8,8.5,2.3l0.4,1.2c0,0,0,0,0,0
				C8,4.3,7,4.8,5.9,5.2C4.8,5.6,3.7,5.9,2.5,5.9L2,4.6C1.8,4.2,1.3,3.9,0.8,4.1c-0.4,0.2-0.6,0.6-0.5,1C0.2,5,0.1,4.9,0.1,4.8
				c-0.2-0.5-0.2-1.4,1.1-2.4c0.9-0.7,1.9-1.2,3-1.6C6.7-0.2,9.4-0.4,10,1.1z M8.1,1.8C7,1.8,5.9,2,4.8,2.4c-1,0.3-2,0.9-2.8,1.7
				c1.1,0,2.2-0.1,3.2-0.6C6.3,3.2,7.3,2.6,8.1,1.8z"/>
			<path class="st0" d="M2,4.6l0.5,1.3c0,0,0,0-0.1,0c-1,0-1.8-0.2-2.1-0.8c-0.1-0.4,0.2-0.8,0.5-1C1.3,3.9,1.8,4.2,2,4.6z"/>
		</g>
		<g>
		</g>
	</g>
</g>
</svg>
