<?xml version="1.0" encoding="utf-8"?>
<!-- Generator: Adobe Illustrator 25.2.3, SVG Export Plug-In . SVG Version: 6.00 Build 0)  -->
<svg version="1.1" id="Layer_1" xmlns="http://www.w3.org/2000/svg" xmlns:xlink="http://www.w3.org/1999/xlink" x="0px" y="0px"
	 viewBox="0 0 1920 1080" style="enable-background:new 0 0 1920 1080;" xml:space="preserve">
<style type="text/css">
	.st0{fill:#FFFFFF;}
</style>
<g>
	<path class="st0" d="M822.3,312.1c0.8,0.2,1.6,0.5,2.5,0.8c15.1,3.6,24.8,12.8,28.9,27.7c0.8,3,2,3.6,4.8,3.6
		c65.5-0.1,130.9-0.1,196.4,0c1.6,0,3.2,0,4.9,0.1c10.2,0.7,15.5,11.3,9.7,19.7c-4.1,6-8.7,11.6-13,17.4
		c-28.9,38.4-57.8,76.9-86.8,115.2c-5.8,7.6-8.5,15.9-8.5,25.4c0.1,34.1,0,68.2,0,102.3c0,22.8,12.5,38.4,34.5,44.2
		c5.3,1.4,10.8,3.6,15.2,6.8c3.7,2.7,6.4,7.2,8.5,11.4c2.3,4.6,1.3,6.5-2.9,9.5c-11.5,0-23,0-34.5,0c-2.4-2-4.6-4-3.2-7.5
		c1.3-3.5,4.2-3.8,7.4-3.7c2.8,0.1,5.5,0,8.2,0c3.4,0,6.8,0,10.1,0c0.1-0.5,0.2-1,0.3-1.5c-3.9-1.4-7.8-3.2-11.8-4.2
		c-27.2-6.8-43.1-27-43.1-55.1c0-34.2,0-68.5,0-102.7c0-2.2,0-4.4,0-6.6c-5.1,0-10.1,0-15.1,0c0,1.1,0,2,0,2.8
		c0,36.2,0,72.5,0,108.7c0,9.8-2.4,19-7.5,27.5c-8.4,14.1-21,22.4-37,25.7c-3.7,0.8-7.3,1.8-10.6,5.3c2.1,0,3.4,0,4.7,0
		c23.6,0,47.2,0,70.8,0c3.2,0,6,0.3,7.4,3.7c1.4,3.5-0.8,5.6-3.2,7.5c-30.5,0-61,0-91.5,0c-3.9-3.3-4.5-4.9-2.6-9.7
		c4-10.7,12.5-15.8,23.1-18c18.9-4.1,31.6-17.1,34.7-35.8c0.4-2.5,0.4-5,0.4-7.5c0-34.6-0.1-69.2,0.1-103.9c0-9.3-2.7-17.3-8.3-24.7
		c-27.5-36.4-54.9-72.8-82.3-109.3c-1.4-1.9-2.5-2.4-4.9-1.7c-21.3,6.2-42.5-6.2-47.5-27.7c-4.8-20.6,8.8-41,30.2-45.1
		c0.6-0.1,1.2-0.4,1.7-0.6C815.8,312.1,819.1,312.1,822.3,312.1z M843.2,381.6c1.3,1.9,1.9,2.9,2.7,3.9
		c25.9,34.4,51.9,68.8,77.8,103.3c2.8,3.8,4.9,8.1,7.5,12c0.7,1.1,2.2,2.3,3.5,2.3c5.2,0.2,10.5,0.2,15.7,0c1.2-0.1,2.8-1.2,3.5-2.3
		c2.5-3.6,4.3-7.6,6.9-11.1c22.2-29.6,44.4-59.1,66.7-88.7c0.8-1,1.5-2,1.8-2.4c-11,1.6-22.1,3.8-33.4,4.8
		c-17.2,1.5-34.2-0.8-51-3.9c-9.3-1.7-18.6-3.9-27.8-5.9c-2.8-0.6-5.2-2.1-5.1-5.1c0-1.8,1.2-4.2,2.7-5.2c1.4-0.9,3.8-0.8,5.7-0.5
		c17.1,2.9,34.1,6.7,51.3,8.8c19.5,2.4,38.7,0.3,57.7-5.9c15.1-5,22.9-16.9,31.2-28.7c0.2-0.2,0-0.7,0-1.3c-78.6,0-157.1,0-236.8,0
		c3.4,4.6,6.4,8.2,9,12.1c1.5,2.2,3.2,2.9,5.9,2.9c18.2-0.4,36.1,2.4,53.9,6c2.8,0.6,5.1,2.3,4.8,5.3c-0.2,1.9-1.7,4-3.2,5.3
		c-1,0.8-3.1,0.5-4.7,0.3c-7.8-1.2-15.5-2.8-23.3-3.9C858.7,382.8,851.4,382.4,843.2,381.6z M823.6,374.7c-2.7-3.6-5.5-7.1-8-10.8
		c-4.9-7.2-1.8-16.8,6.3-19.2c2.2-0.7,4.7-0.6,7-0.6c4.5-0.1,9.1,0,13.7,0c-1.1-9.5-9.7-18-19.8-20.1c-11-2.3-22.2,2.5-28,12.1
		c-5.9,9.7-4.8,22,2.6,30.7C803.9,374.4,815.5,378,823.6,374.7z"/>
</g>
</svg>
