<?xml version="1.0" encoding="utf-8"?>
<!-- Generator: Adobe Illustrator 25.4.1, SVG Export Plug-In . SVG Version: 6.00 Build 0)  -->
<svg version="1.1" id="Layer_1" xmlns="http://www.w3.org/2000/svg" xmlns:xlink="http://www.w3.org/1999/xlink" x="0px" y="0px"
	 viewBox="0 0 176 293.6" style="enable-background:new 0 0 176 293.6;" xml:space="preserve">
<style type="text/css">
	.st0{fill:#FFFFFF;}
	.st1{fill:#FEE12B;}
</style>
<g id="Layer_1-2">
	<g id="XMLID_00000061464090543516975030000005402453550600386747_">
		<g>
			<path class="st0" d="M176,32.7c0,0.1,0,0.3,0,0.4l-2.7,32l-0.1,0c0-0.4-0.3-0.8-0.7-0.9c0,0-0.3-0.1-0.9-0.2l2.4-29.1
				c1-0.6,1.6-1.3,1.7-2c0-0.3-0.1-0.6-0.2-0.9C175.8,32.1,175.9,32.4,176,32.7z"/>
			<path class="st0" d="M175.5,32c0.1,0.3,0.2,0.6,0.2,0.9c-0.1,0.7-0.7,1.4-1.7,2l0.2-2c0-0.1,0-0.1,0-0.2c0-0.4,0.4-0.7,0.8-0.8
				C175.2,31.9,175.4,31.9,175.5,32z"/>
			<path class="st0" d="M175.1,31.3c0.2,0.2,0.3,0.4,0.4,0.7c-0.1-0.1-0.3-0.1-0.5-0.1c-0.4,0.1-0.8,0.4-0.8,0.8l-0.3,0
				c0-0.1-0.1-0.2-0.1-0.2c-3.2-3.5-31.8-7.2-74-7.2S29,29,25.8,32.5c-0.1,0.1-0.1,0.2-0.1,0.2s0,0,0.1,0.1l-0.1,0.1l-0.1-0.1
				c-0.1-0.3-0.2-0.5-0.5-0.7l-0.6-0.9c4.8-5.1,41.5-7.7,75.2-7.7C133.7,23.5,170.5,26.2,175.1,31.3z"/>
			<path class="st0" d="M174.2,32.7c0,0.1,0,0.1,0,0.2l-0.2,2c-3.7,2.3-13.4,3.9-25.2,5.1c-4.1,0.4-8.5,0.7-13,1v-0.5
				c0-0.5-0.4-0.9-0.9-0.9l0-0.5c5.9-0.4,11.7-0.8,17.5-1.4c21-2.3,21.5-5,21.5-5L174.2,32.7z"/>
			<path class="st0" d="M173.3,65.1l-2.7,32.5h0c0-0.2-0.1-0.5-0.3-0.7l-1.3-1.3l2.5-29.8c0.4,0.1,0.6,0.1,0.6,0.1
				c0.5,0.1,1-0.2,1.1-0.7c0-0.1,0-0.1,0-0.2L173.3,65.1z"/>
			<path class="st0" d="M173.2,65.1c0,0.1,0,0.1,0,0.2c-0.1,0.5-0.6,0.8-1.1,0.7c0,0-0.2-0.1-0.6-0.1l0.2-1.8
				c0.6,0.1,0.9,0.2,0.9,0.2C172.9,64.3,173.2,64.7,173.2,65.1z"/>
			<path class="st0" d="M171.6,64l-0.2,1.8c-2.4-0.5-11.7-2.3-26-2.3c-2.6,0-5.4,0.1-8.3,0.2l-1.2-1.2l0-0.5
				C155.3,61,168.2,63.3,171.6,64z"/>
			<path class="st0" d="M170.6,97.6l-2.9,34.5c-0.1-0.3-0.3-0.5-0.6-0.6c0,0,0,0,0,0c-0.1-0.1-0.3-0.2-0.5-0.2c-0.1,0-0.3,0-0.4,0.1
				H166l2.7-32.8h0.9c0.2,0,0.4-0.1,0.6-0.3c0,0,0,0,0,0c0,0,0.1,0,0.1-0.1C170.5,98.1,170.6,97.9,170.6,97.6L170.6,97.6z"/>
			<path class="st0" d="M170.3,97c0.2,0.2,0.3,0.4,0.3,0.7s-0.1,0.4-0.3,0.7c0,0-0.1,0.1-0.1,0.1c0.1-0.1,0.1-0.3,0.2-0.5
				c0.1-0.5-0.3-0.9-0.8-1h-0.7l0.1-1.2L170.3,97z"/>
			<path class="st0" d="M169.6,96.9c0.5,0.1,0.9,0.5,0.8,1c0,0.2-0.1,0.3-0.2,0.5c0,0,0,0,0,0c-0.4,0.3-0.8,0.3-1.2-0.1l-0.2-0.2
				l0.1-1.2H169.6z"/>
			<path class="st0" d="M169,98.3c0.4,0.4,0.8,0.4,1.2,0.1c-0.2,0.2-0.4,0.3-0.6,0.3h-0.9l0.1-0.6L169,98.3z"/>
			<path class="st0" d="M169,95.7l-0.1,1.2h-1.3l-31.7-31.7l0-1.3c0.4,0,0.8-0.1,1.2-0.1L169,95.7z"/>
			<polygon class="st0" points="168.9,96.9 168.8,98.1 167.6,96.9 			"/>
			<polygon class="st0" points="168.8,98.1 168.7,98.7 136,98.7 136,96.9 167.6,96.9 			"/>
			<path class="st0" d="M167.8,132.2c0,0.1,0,0.1,0,0.2c0,0.1,0,0.3-0.1,0.4L167.8,132.2z"/>
			<path class="st0" d="M167.8,132.2l-0.1,0.6c0,0.1-0.1,0.1-0.1,0.2c0-0.2,0-0.4,0-0.7c0-0.3-0.2-0.6-0.4-0.7
				C167.5,131.7,167.7,131.9,167.8,132.2z"/>
			<path class="st0" d="M167.7,132.8l-5.7,68.3l-0.3,0c0.1-1.7,0.2-3.4,0.2-5.1c0-0.5-0.4-0.9-0.9-0.9h-0.3l4.5-54.2
				c1.4-2.3,2.2-5,2.3-7.8C167.6,132.9,167.7,132.8,167.7,132.8z"/>
			<path class="st0" d="M167.6,132.3c0,0.2,0,0.4,0,0.7c-0.2,0.2-0.4,0.3-0.7,0.3h-1l0.1-1.6c0.1-0.1,0.2-0.2,0.3-0.2h0.6
				c0.1,0,0.2,0,0.3,0.1c0,0,0,0,0,0C167.4,131.7,167.6,132,167.6,132.3z"/>
			<path class="st0" d="M167.2,131.5c-0.1,0-0.2-0.1-0.3-0.1h-0.6c0.1-0.1,0.3-0.1,0.4-0.1C166.9,131.4,167.1,131.5,167.2,131.5z"/>
			<path class="st0" d="M166.9,133.3c0.3,0,0.5-0.1,0.7-0.3c-0.1,2.8-0.9,5.5-2.3,7.8l0.6-7.5H166.9z"/>
			<path class="st0" d="M166,131.5h0.3c-0.1,0.1-0.2,0.1-0.3,0.2L166,131.5z"/>
			<path class="st0" d="M166,131.5l0,0.2c-0.1,0.1-0.2,0.3-0.2,0.6c0,0.3,0,0.7,0,1h-13.8l0.1-1.2c0-0.2-0.1-0.4-0.2-0.6H166z"/>
			<path class="st0" d="M166,131.7l-0.1,1.6h-0.1c0-0.3,0-0.7,0-1C165.8,132.1,165.9,131.9,166,131.7z"/>
			<path class="st0" d="M165.9,133.3l-0.6,7.5c-2.8,4.7-8,7.9-13.9,8.1l0.1-1.8c7.7-0.2,13.9-6.2,14.4-13.8H165.9z"/>
			<path class="st0" d="M162.1,201l-7,83.9c-0.2-0.6-0.8-1.1-1.7-1.7l2-24.1c0.2-0.1,0.4-0.4,0.4-0.7c0.1-0.3-0.1-0.6-0.3-0.8
				l3.6-43c1.4-4.4,2.3-9,2.6-13.7L162.1,201z"/>
			<path class="st0" d="M161.9,195.9c0,1.7,0,3.4-0.2,5.1c-0.4,4.7-1.3,9.3-2.6,13.7l1.1-13.3l0.5-6.4h0.3
				C161.5,195,161.9,195.4,161.9,195.9z"/>
			<path class="st0" d="M160.7,195l-0.5,6.4l-0.3,0c0.1-1.5,0.2-3,0.2-4.6l-10,0.1c0-0.3,0-0.6,0-0.9c0-0.4-0.3-0.8-0.7-0.9l0-0.1
				L160.7,195z"/>
			<path class="st0" d="M160.2,201.4l-1.1,13.3c-7,22.3-26.3,39.2-49.9,42.8h-9v-1.1c31.4-0.2,57.1-24.3,59.7-55L160.2,201.4z"/>
			<path class="st1" d="M150.1,196.8l10-0.1c0,1.5-0.1,3.1-0.2,4.6c-2.6,30.8-28.3,54.8-59.7,55v-10c7.1,0,13.9-1.5,20-4.2
				c5.6-2.5,10.7-5.9,15-10.2C144.2,223,149.9,210.6,150.1,196.8z"/>
			<path class="st0" d="M155.5,257.7c0.2,0.2,0.3,0.5,0.3,0.8c0,0.3-0.2,0.5-0.4,0.7L155.5,257.7z"/>
			<path class="st0" d="M155.5,257.7l-0.1,1.4c-0.1,0.1-0.3,0.1-0.4,0.1h-54.8v-1.1c3.1,0,6.1-0.3,9-0.7H155
				C155.2,257.5,155.4,257.6,155.5,257.7z"/>
			<path class="st0" d="M155.1,284.9c0.1,0.2,0.1,0.4,0.1,0.6c0,6.3-36.1,8.1-55.2,8.1c-18,0-51-1.5-54.8-7c0.1,0.1,0.3,0.1,0.4,0.1
				v-0.1h0.2c0.2,0,0.3-0.1,0.5-0.2h1.2c4.1,2.2,21.9,5.4,52.5,5.4c30.7,0,48.6-3.1,52.5-5.4h0.9c0.2,0.2,0.4,0.3,0.7,0.3
				c0.5-0.1,0.9-0.4,0.9-0.8L155.1,284.9z"/>
			<path class="st0" d="M155.1,284.9l-0.1,1c0,0.4-0.4,0.7-0.9,0.8c-0.3,0-0.5-0.1-0.7-0.3h0.4c0.5,0,0.9-0.4,0.9-0.9
				s-0.4-0.9-0.9-0.9h-0.5l0.1-1.4C154.3,283.7,154.9,284.3,155.1,284.9z"/>
			<path class="st0" d="M153.8,284.6c0.5,0,0.9,0.4,0.9,0.9s-0.4,0.9-0.9,0.9h-0.4c-0.1-0.1-0.2-0.3-0.2-0.5
				c0.1-0.1,0.2-0.3,0.2-0.4c0-0.1,0-0.2-0.1-0.4l0-0.5H153.8z"/>
			<path class="st0" d="M153.4,286.4h-0.9c0.3-0.2,0.5-0.3,0.7-0.5C153.2,286.1,153.3,286.3,153.4,286.4z"/>
			<path class="st0" d="M153.4,283.2l-0.1,1.4h-0.8c-3.5-2-17.8-4.6-42.3-5.2l0.1-0.1c0.2-0.3,0.3-0.7,0.1-1
				c-0.1-0.3-0.4-0.4-0.8-0.4l0-0.3C126.1,278,147.2,279.5,153.4,283.2z"/>
			<path class="st0" d="M153.3,284.6l0,0.5c-0.1-0.2-0.4-0.4-0.7-0.5H153.3z"/>
			<path class="st0" d="M153.2,285.1c0.1,0.1,0.1,0.2,0.1,0.4c0,0.1-0.1,0.3-0.2,0.4c0-0.1,0-0.1,0-0.2L153.2,285.1z"/>
			<path class="st0" d="M153.2,285.1l-0.1,0.6c0,0.1,0,0.1,0,0.2c-0.1,0.2-0.4,0.3-0.7,0.5h-47.8c-0.5,0-0.9-0.4-0.9-0.9
				c0-0.2,0.1-0.4,0.2-0.5l2.5-3.4l-6.5,3.7l-0.2-0.3c0.2-0.2,0.4-0.4,0.4-0.8v-1.1l6.6-3.7c1.2,0,2.3,0,3.4,0.1l-3.7,5.2h46
				C152.9,284.8,153.1,285,153.2,285.1z"/>
			<path class="st0" d="M152,132.1l-0.1,1.2h-1.8l0.1-1.2c0-0.2,0.1-0.4,0.2-0.6h1.3C151.9,131.7,152,131.9,152,132.1z"/>
			<path class="st0" d="M151.9,133.3l-0.6,13.8c-0.1,0-0.3,0-0.4,0c-0.5,0-0.9,0-1.4-0.1l0.6-13.7H151.9z"/>
			<path class="st0" d="M151.8,131.5h-1.3c0.2-0.2,0.4-0.3,0.7-0.3C151.4,131.2,151.6,131.3,151.8,131.5z"/>
			<path class="st0" d="M151.4,147.1l-0.1,1.8c-0.1,0-0.2,0-0.3,0c-0.5,0-1,0-1.5-0.1l0.1-1.8c0.5,0.1,0.9,0.1,1.4,0.1
				C151.1,147.1,151.3,147.1,151.4,147.1z"/>
			<path class="st0" d="M151.3,148.9l-1.9,46.2l-1.8,0l1.9-46.2c0.5,0.1,1,0.1,1.5,0.1C151.1,148.9,151.2,148.9,151.3,148.9z"/>
			<path class="st0" d="M136.1,131.5h14.3c-0.1,0.2-0.2,0.4-0.2,0.6l-0.1,1.2h-13.9c0-0.3,0-0.7,0-1c0-0.1,0-0.2-0.1-0.3V131.5z"/>
			<path class="st0" d="M150.1,196c0,0.3,0,0.6,0,0.9h-0.4c0-0.2,0-0.5-0.1-0.7c-0.1-0.1-0.1-0.2-0.2-0.2c0-0.1,0-0.2,0-0.2l0-0.6
				C149.8,195.2,150.1,195.6,150.1,196z"/>
			<path class="st0" d="M149.7,196.8h0.4c-0.2,13.7-5.8,26.1-14.9,35.1l-0.2-0.2c0.2-0.2,0.3-0.5,0.3-0.8l-0.1-1.8
				c7.7-8.2,12.5-19.1,13-31c0.5-0.5,0.9-0.8,1.1-0.8C149.5,197.3,149.6,197.1,149.7,196.8z"/>
			<path class="st0" d="M149.6,196.2c0.1,0.2,0.1,0.4,0.1,0.7l-1.4,0c0-0.1,0-0.2,0-0.3c0.1,0,0.1,0,0.2,0c0.4,0.1,0.8-0.2,0.9-0.7
				C149.5,196,149.6,196.1,149.6,196.2z"/>
			<path class="st0" d="M148.3,196.9l1.4,0c0,0.2-0.2,0.4-0.4,0.5c-0.1,0.1-0.5,0.4-1.1,0.8C148.3,197.8,148.3,197.3,148.3,196.9z"
				/>
			<path class="st0" d="M149.6,147l-0.1,1.8c-5.9-0.5-10.8-4-13.3-9l0-6.5h0.1C136.7,140.6,142.4,146.4,149.6,147z"/>
			<path class="st0" d="M149.4,195.1L149.4,195.1c-0.1,0.1-0.1,0-0.2,0c-0.5,0-0.9,0.4-0.9,0.9c-0.1,0.1-0.3,0.2-0.4,0.3
				c-0.2-0.2-0.2-0.4-0.2-0.6l0-0.6L149.4,195.1z"/>
			<path class="st0" d="M149.4,195.1l0,0.6c0,0.1,0,0.2,0,0.2c-0.3-0.2-0.7-0.3-1-0.1c0,0-0.1,0-0.1,0.1c0-0.5,0.4-0.9,0.9-0.9
				C149.3,195.1,149.4,195.1,149.4,195.1z"/>
			<path class="st0" d="M148.4,195.9c0.3-0.2,0.7-0.2,1,0.1c-0.1,0.5-0.4,0.7-0.9,0.7c-0.1,0-0.1,0-0.2,0c0-0.2,0-0.4,0-0.6
				C148.3,196,148.3,196,148.4,195.9C148.3,195.9,148.4,195.9,148.4,195.9z"/>
			<path class="st0" d="M148.3,196C148.3,196,148.3,196,148.3,196c0,0.2,0,0.4,0,0.6c-0.2,0-0.3-0.1-0.4-0.2
				C148,196.2,148.2,196,148.3,196z"/>
			<path class="st0" d="M148.3,196.6c0,0.1,0,0.2,0,0.3h-1.1c0.3-0.2,0.5-0.4,0.7-0.5C148,196.4,148.1,196.5,148.3,196.6z"/>
			<path class="st0" d="M147.2,196.9h1.1c0,0.5,0,0.9,0,1.4c-1,0.9-2.7,2.3-4.6,4c-2.9,2.6-6.4,5.7-9.2,8.1l0.7,18.9
				c-0.4,0.4-0.8,0.8-1.1,1.2c0-0.3-0.2-0.5-0.5-0.6l-3.7-1.7l-8.7-8.6l0.1-0.1c0.2,0.2,0.4,0.3,0.6,0.3c0.5,0,0.9-0.4,0.9-0.7
				l0-0.4l10.5,10.4l-0.7-18.9c0-0.3,0.1-0.5,0.3-0.7C135,207.5,143.8,199.7,147.2,196.9z"/>
			<path class="st0" d="M147.6,195.1l0,0.6c0,0.2,0.1,0.5,0.2,0.6c-0.2,0.2-0.4,0.3-0.7,0.5l-13.7,0.1l0,0l0.1-0.1
				c0.1-0.1,0.2-0.2,0.2-0.4c0.2,0.2,0.4,0.2,0.7,0.2c0.2,0,0.3,0,0.4-0.2c0,0,0.1,0,0.1-0.1c0.1,0.1,0.3,0.2,0.5,0.2
				c0.5,0,0.9-0.4,0.9-0.9v-0.6L147.6,195.1z"/>
			<path class="st1" d="M133.5,196.9l13.7-0.1c-3.3,2.8-12.2,10.7-14.2,12.4c-0.2,0.2-0.3,0.4-0.3,0.7l0.7,18.9l-10.5-10.4l0.3-13.8
				L133.5,196.9z"/>
			<path class="st0" d="M135.9,62.6l1.2,1.2c-0.4,0-0.8,0-1.2,0.1V62.6z"/>
			<path class="st0" d="M136.4,195.1v0.6c0,0.5-0.4,0.9-0.9,0.9c-0.2,0-0.4-0.1-0.5-0.2c0.3-0.2,0.4-0.8,0.1-1.1l-0.1-0.2
				L136.4,195.1z"/>
			<path class="st0" d="M136.2,139.8l0.2,55.3l-1.4,0l-0.4-0.6l-0.2-61.2c0,0,0,0.1,0.1,0.1C134.6,135.7,135.2,137.9,136.2,139.8z"
				/>
			<path class="st0" d="M136.2,133.3L136.2,133.3l-0.1-1.3c0,0.1,0.1,0.2,0.1,0.3C136.2,132.6,136.2,133,136.2,133.3z"/>
			<path class="st0" d="M136.2,133.3l0,6.5c-1-1.9-1.6-4.1-1.7-6.4c0.1,0.1,0.3,0.2,0.5,0.2c0.2-0.1,0.5-0.2,0.6-0.2
				c0,0,0.1-0.1,0.1-0.1H136.2z"/>
			<path class="st0" d="M136.1,132l0,1.3h-0.6c0.2-0.4,0.2-0.8-0.1-1.2l-0.1-0.1l0.2-0.2c0.1-0.1,0.1-0.1,0.1-0.1
				c0.1-0.1,0.1-0.1,0.2-0.2C136,131.7,136.1,131.8,136.1,132z"/>
			<path class="st0" d="M136.1,131.5v0.5c0-0.2-0.1-0.3-0.3-0.4c0,0,0-0.1,0-0.1H136.1z"/>
			<path class="st0" d="M136,98.7l0.1,32.8h-0.2c0.2-0.4,0.1-0.8-0.2-1c-0.4-0.4-1-0.4-1.3,0l0,0.1l-0.1-31.9H136z"/>
			<polygon class="st0" points="136,98.7 134.2,98.7 134.2,96.9 136,96.9 			"/>
			<polygon class="st0" points="135.9,65.2 136,96.9 134.2,96.9 134.1,65.2 135,64.3 			"/>
			<path class="st0" d="M135.7,130.5c0.3,0.2,0.4,0.6,0.2,1h-0.2c-0.1-0.1-0.3-0.1-0.4-0.1c-0.2,0-0.3,0-0.4,0.1h0l-0.5-0.6v-0.4
				l0-0.1C134.7,130.1,135.3,130.1,135.7,130.5z"/>
			<path class="st0" d="M135.9,131.5C135.9,131.5,135.9,131.6,135.9,131.5c-0.1,0.1-0.1,0-0.2,0H135.9z"/>
			<path class="st0" d="M135.9,63.9l0,1.3l-0.9-0.9l-0.9,0.9l0-1.2c0.3,0,0.7,0,1-0.1C135.4,63.9,135.6,63.9,135.9,63.9z"/>
			<path class="st0" d="M135.9,62.6v1.3c-0.3,0-0.5,0-0.8,0c-0.3,0-0.7,0-1,0.1v-1.2l0.3-0.3c0.2-0.2,0.4-0.3,0.7-0.3
				s0.4,0.1,0.6,0.3L135.9,62.6z"/>
			<path class="st0" d="M135.9,62.1l0,0.5l-0.2-0.2c-0.2-0.2-0.4-0.3-0.6-0.3C135.3,62.1,135.6,62.1,135.9,62.1z"/>
			<path class="st0" d="M135.8,40.9l0.1,21.1c-0.3,0-0.6,0-0.8,0c0,0,0,0-0.1,0c-0.3,0-0.6,0-0.9,0L134,41.1
				C134.6,41,135.2,41,135.8,40.9z"/>
			<path class="st0" d="M135.9,131.6c0,0.1-0.1,0.2-0.2,0.2c0,0,0,0-0.1,0.1l-0.2,0.2l-0.6-0.6h0.8
				C135.8,131.5,135.8,131.6,135.9,131.6z"/>
			<path class="st0" d="M135.8,40.5v0.5c-0.6,0-1.2,0.1-1.8,0.1v-0.6c0-0.5,0.4-0.9,0.9-0.9S135.8,40,135.8,40.5z"/>
			<path class="st0" d="M135.7,131.5h-0.8c0.1-0.1,0.2-0.1,0.4-0.1C135.4,131.4,135.6,131.4,135.7,131.5z"/>
			<path class="st0" d="M135.5,132.1c0.3,0.4,0.3,0.8,0.1,1.2h-1.1c0-0.1,0-0.2,0-0.3L135.5,132.1L135.5,132.1z"/>
			<path class="st0" d="M135.6,133.3C135.6,133.3,135.5,133.4,135.6,133.3c-0.2,0.1-0.5,0.2-0.7,0.3c-0.1,0-0.3-0.1-0.5-0.2
				c0-0.1,0-0.1,0-0.1H135.6z"/>
			<path class="st0" d="M135.4,132l-1,1c0-0.2,0-0.5,0-0.7c0-0.4,0.2-0.7,0.5-0.8h0L135.4,132z"/>
			<path class="st0" d="M135.2,229.2l0.1,1.8c-0.1,0.4-0.2,0.6-0.3,0.8c-0.2,0.2-0.4,0.3-0.7,0.3c-0.2,0-0.5-0.1-0.6-0.3l-0.3-0.3
				c0.3,0,0.5-0.2,0.6-0.5c0.1-0.2,0.1-0.4,0.1-0.6C134.5,230,134.9,229.6,135.2,229.2z"/>
			<path class="st0" d="M135.1,195.3c0.3,0.4,0.2,0.9-0.1,1.1c-0.2-0.2-0.4-0.4-0.4-0.7v-0.6h0.4L135.1,195.3z"/>
			<path class="st0" d="M135,231.8l0.2,0.2c-4.3,4.2-9.4,7.7-15,10.2l-0.1-0.1c0.2-0.1,0.3-0.2,0.5-0.4c0.2-0.5,0-1-0.5-1.2
				c-0.1,0-0.2-0.1-0.3-0.2c4.9-2.2,9.4-5.2,13.2-8.9c0.1,0,0.2,0,0.4,0l0.3,0.3c0.1,0.2,0.4,0.3,0.6,0.3
				C134.6,232.1,134.8,232,135,231.8z"/>
			<path class="st0" d="M135,62.1C135,62.1,135,62.1,135,62.1c-0.2,0-0.4,0.1-0.6,0.3l-0.3,0.3l0-0.6
				C134.4,62.1,134.7,62.1,135,62.1z"/>
			<polygon class="st0" points="134.6,194.5 135,195.1 134.6,195.1 			"/>
			<path class="st0" d="M135,196.4C135,196.5,134.9,196.5,135,196.4c-0.2,0.3-0.3,0.3-0.5,0.3c-0.2,0-0.5-0.1-0.7-0.2
				c0.1-0.3,0.1-0.7-0.1-0.9c-0.2-0.2-0.5-0.3-0.8-0.3l0-0.1l1.7,0v0.6C134.6,196,134.8,196.3,135,196.4z"/>
			<path class="st0" d="M134.9,39.1l0,0.5c-0.5,0-0.9,0.4-0.9,0.9v0.6c-11.6,0.7-23.8,0.9-34.2,0.9c-25.1,0-60.5-1.7-72.1-6.1l-2-3
				l0.1-0.1c0.4,0.5,3.1,2.9,21.4,4.9c17.5,1.7,35,2.5,52.6,2.4C111.5,40.2,123.2,39.8,134.9,39.1z"/>
			<polygon class="st0" points="134.4,130.9 134.9,131.5 134.4,131.5 			"/>
			<path class="st0" d="M134.4,131.5h0.5c-0.3,0.1-0.5,0.4-0.5,0.8c0,0.2,0,0.5,0,0.7l-0.1,0.1L134.4,131.5z"/>
			<polygon class="st0" points="134.6,194.5 134.6,195.1 132.9,195.1 107.9,158 109.1,156.8 			"/>
			<path class="st0" d="M134.4,133.3c0,0.1,0,0.1,0,0.1C134.4,133.4,134.4,133.4,134.4,133.3L134.4,133.3L134.4,133.3z"/>
			<path class="st0" d="M134.4,133.3L134.4,133.3l-0.1-0.2l0.1-0.1C134.4,133.1,134.4,133.2,134.4,133.3z"/>
			<path class="st0" d="M134.4,133.3L134.4,133.3C134.3,133.3,134.3,133.3,134.4,133.3L134.4,133.3z"/>
			<polygon class="st0" points="134.4,133.1 134.4,133.3 134.3,133.3 134.2,133.2 			"/>
			<polygon class="st0" points="134.4,131.5 134.4,133.1 134.2,133.2 132.9,131.9 133.3,131.5 			"/>
			<polygon class="st0" points="134.4,130.9 134.4,131.5 133.3,131.5 134.1,130.7 			"/>
			<polygon class="st0" points="134.4,130.5 134.4,130.9 134.1,130.7 			"/>
			<polygon class="st0" points="134.3,133.3 134.1,133.3 134.2,133.2 			"/>
			<polygon class="st0" points="134.2,98.7 102.1,98.7 101.4,98 102.5,96.9 134.2,96.9 			"/>
			<polygon class="st0" points="134.2,133.2 134.1,133.3 131.4,133.3 132.9,131.9 			"/>
			<polygon class="st0" points="134.1,130.7 133.3,131.5 132.5,131.5 100.2,99.3 100.2,98.7 102.1,98.7 			"/>
			<polygon class="st0" points="134.1,133.3 109.1,156.8 108.1,155.2 131.4,133.3 			"/>
			<path class="st0" d="M134.1,230.4c0,0.2,0,0.4-0.1,0.6c-0.1,0.3-0.4,0.5-0.6,0.5l-0.2-0.2C133.5,231,133.8,230.7,134.1,230.4z"/>
			<path class="st0" d="M134.1,64l0,1.2l-31.6,31.7h-2.3v-0.2L132.8,64C133.2,64,133.6,64,134.1,64z"/>
			<path class="st0" d="M134.1,62.7V64c-0.4,0-0.9,0.1-1.3,0.1L134.1,62.7z"/>
			<path class="st0" d="M134.1,62.1l0,0.6l-1.3,1.3c-8.3,0.6-16.8,1.9-25.8,3.1c-2.2,0.3-4.5,0.7-6.8,1v-0.7c0-0.5-0.4-0.9-0.9-0.9
				c-0.1,0-0.1,0-0.2,0l0-0.1c2.6-0.4,5.2-0.7,7.7-1.1C116.3,64,125.3,62.7,134.1,62.1z"/>
			<path class="st0" d="M133.7,195.5c0.2,0.3,0.3,0.6,0.1,0.9c-0.1,0-0.1-0.1-0.1-0.1l-0.8-1.1C133.2,195.2,133.5,195.3,133.7,195.5
				z"/>
			<path class="st0" d="M133.7,196.3c0,0.1,0.1,0.1,0.1,0.1c0,0.1-0.1,0.2-0.2,0.4l-0.1,0.1l0,0l-3.1,0l2.1-1.6
				c0.2-0.1,0.4-0.2,0.6-0.2L133.7,196.3z"/>
			<path class="st0" d="M133.6,229.8c0.3,0.1,0.5,0.3,0.5,0.6c-0.3,0.3-0.6,0.6-0.9,0.9l-3.3-3.2L133.6,229.8z"/>
			<path class="st0" d="M133.5,196.9l-10.3,7.8l-0.3,13.8l-1.8-1.8l0.3-12.6c0-0.3,0.1-0.5,0.3-0.7l8.6-6.4L133.5,196.9z"/>
			<path class="st0" d="M133.2,231.3l0.2,0.2c-0.1,0-0.2,0-0.4,0C133.1,231.4,133.1,231.4,133.2,231.3z"/>
			<polygon class="st0" points="133.3,131.5 132.9,131.9 132.5,131.5 			"/>
			<path class="st0" d="M133.2,231.3c-0.1,0.1-0.1,0.1-0.2,0.2c-0.1,0-0.2,0-0.2-0.1l-32-15.1l0-2l29.2,13.8L133.2,231.3z"/>
			<path class="st0" d="M132.9,195.1L132.9,195.1c-0.2,0.1-0.3,0.1-0.5,0.3l-2.1,1.6l-13.1,0.1c0.2-0.4,0.1-0.8-0.2-1.1
				c-0.2-0.1-0.4-0.2-0.6-0.2v-0.5L132.9,195.1z"/>
			<polygon class="st0" points="132.5,131.5 132.9,131.9 131.4,133.3 100.2,133.3 100.2,131.5 			"/>
			<polygon class="st1" points="129.9,228.1 100.8,214.3 100.7,199.1 110.7,209 121.2,219.4 			"/>
			<path class="st0" d="M122.9,218.5l0,0.4c0,0.3-0.4,0.7-0.9,0.7c-0.2,0-0.5-0.1-0.6-0.3c-0.2-0.2-0.3-0.4-0.3-0.6l0-1.9
				L122.9,218.5z"/>
			<path class="st0" d="M121.4,219.3l-0.1,0.1L110.7,209l0.1-0.1c0.1,0.1,0.3,0.2,0.6,0.2c0.4,0,0.8-0.4,0.9-0.7l0-0.5l8.9,8.8
				l0,1.9C121.1,218.9,121.2,219.2,121.4,219.3z"/>
			<path class="st0" d="M120.1,240.5c0.5,0.2,0.7,0.7,0.5,1.2c-0.2,0.2-0.3,0.3-0.5,0.4c-0.2,0.1-0.3,0.1-0.5,0.1
				c-0.1,0-0.2,0-0.3-0.1c-0.2-0.1-0.8-0.4-1.6-0.9c0.7-0.3,1.4-0.6,2.1-0.9C119.9,240.4,120,240.5,120.1,240.5z"/>
			<path class="st0" d="M120.1,242.1l0.1,0.1c-6.1,2.7-12.9,4.2-20,4.2v-0.5c0.4-0.1,0.7-0.4,0.7-0.9v-0.4
				c5.9-0.1,11.6-1.3,16.8-3.4c0.8,0.5,1.4,0.8,1.6,0.9c0.1,0.1,0.2,0.1,0.3,0.1C119.8,242.2,120,242.1,120.1,242.1z"/>
			<path class="st0" d="M119.8,240.3c-0.7,0.3-1.4,0.6-2.1,0.9c-3.7-2.3-12.8-8.3-16.9-11.1l0-2.1
				C107.7,232.6,117.8,239.2,119.8,240.3z"/>
			<path class="st0" d="M117,195.9c0.3,0.3,0.4,0.7,0.2,1.1l-2.5,0l1-1c0.2-0.2,0.4-0.3,0.7-0.3C116.6,195.7,116.8,195.8,117,195.9z
				"/>
			<path class="st0" d="M114.7,197l2.5,0c0,0.1-0.1,0.1-0.1,0.2c0,0,0,0.1-0.1,0.1l-4.3,4.6l-0.5,6l-1.7-1.7l0.4-4.9
				c0-0.2,0.1-0.4,0.2-0.5L114.7,197z"/>
			<path class="st0" d="M116.4,195.2v0.5c-0.2,0-0.5,0.1-0.7,0.3l-1,1l-13.4,0.1l-0.6-0.6v-0.1c0-0.3-0.2-0.7-0.5-0.8v-0.3
				L116.4,195.2z"/>
			<path class="st0" d="M112.2,207.9l0,0.5c-0.1,0.3-0.5,0.7-0.9,0.7c-0.2,0-0.4-0.1-0.6-0.2c-0.2-0.2-0.3-0.5-0.3-0.8l0.1-1.9
				L112.2,207.9z"/>
			<path class="st0" d="M110.8,208.9L110.8,208.9l-10-9.8l0-2l0.6,0l9.2,9.2l-0.1,1.9C110.4,208.4,110.5,208.7,110.8,208.9z"/>
			<path class="st0" d="M110.4,278.3c0.2,0.3,0.1,0.7-0.1,1l-0.1,0.1c-1.1,0-2.2,0-3.4-0.1l2.4-1.4c0.1-0.1,0.3-0.1,0.4-0.1
				C110,277.9,110.3,278,110.4,278.3z"/>
			<path class="st0" d="M109.7,277.6l0,0.3c-0.2,0-0.3,0-0.4,0.1l-2.4,1.4c-2.1,0-4.3-0.1-6.6-0.1v-1.8
				C103,277.5,106.2,277.5,109.7,277.6z"/>
			<path class="st0" d="M100.2,257.5h9c-2.9,0.4-5.9,0.7-9,0.7V257.5z"/>
			<polygon class="st0" points="108.1,155.2 109.1,156.8 107.9,158 106.8,156.4 			"/>
			<polygon class="st0" points="108.1,155.2 106.8,156.4 100.2,146.6 100.2,143.5 			"/>
			<path class="st0" d="M106.8,156.4l1,1.6l-7.3,6.8c-0.1,0-0.2,0-0.4,0.1c0,0,0,0,0.1-0.1c0.4-0.4,0.3-1-0.1-1.3v-0.9L106.8,156.4z
				"/>
			<polygon class="st0" points="102.5,96.9 101.4,98 102.1,98.7 100.2,98.7 100.2,96.9 			"/>
			<polygon class="st0" points="101.3,197.1 100.7,197.1 100.7,196.5 			"/>
			<path class="st0" d="M100.9,244.6v0.4c0,0.4-0.3,0.8-0.7,0.9v-1.3C100.4,244.6,100.7,244.6,100.9,244.6z"/>
			<path class="st0" d="M100.8,230.1l0.1,14.5c-0.2,0-0.5,0-0.7,0v-14.9C100.4,229.8,100.6,229.9,100.8,230.1z"/>
			<path class="st0" d="M100.8,228l0,2.1c-0.2-0.2-0.4-0.3-0.6-0.4v-2.1c0.1,0,0.1,0.1,0.2,0.1C100.5,227.8,100.7,227.9,100.8,228z"
				/>
			<path class="st0" d="M100.8,216.3l0.1,11.7c-0.1-0.1-0.3-0.2-0.4-0.3c-0.1,0-0.1-0.1-0.2-0.1V216L100.8,216.3z"/>
			<polygon class="st0" points="100.8,214.3 100.8,216.3 100.2,216 100.2,214 			"/>
			<polygon class="st0" points="100.8,214.3 100.2,214 100.2,198.6 100.7,199.1 			"/>
			<path class="st0" d="M100.7,197.1l0,2l-0.5-0.5v-1.3c0.1-0.1,0.1-0.1,0.2-0.2H100.7z"/>
			<path class="st0" d="M100.7,196.5v0.6h-0.3c0.2-0.3,0.2-0.6,0-0.9c0.1,0,0.1,0.1,0.2,0.1L100.7,196.5z"/>
			<path class="st0" d="M100.7,196.4v0.1l-0.2-0.2c-0.1-0.1-0.1-0.1-0.2-0.1c0,0,0,0,0,0c0,0-0.1-0.1-0.1-0.1v-0.4
				C100.5,195.7,100.7,196,100.7,196.4z"/>
			<path class="st0" d="M100.2,163.5c0.4,0.3,0.5,0.9,0.1,1.3c0,0,0,0-0.1,0.1c0,0,0,0,0,0v-0.2c0.1-0.2,0.2-0.4,0.2-0.6
				C100.4,163.9,100.3,163.7,100.2,163.5L100.2,163.5z"/>
			<path class="st0" d="M100.3,196.2c0.2,0.3,0.2,0.6,0,0.9h-0.2v-1C100.2,196.1,100.3,196.1,100.3,196.2
				C100.3,196.2,100.3,196.2,100.3,196.2z"/>
			<path class="st0" d="M100.2,197.1h0.2c0,0.1-0.1,0.1-0.2,0.2V197.1z"/>
			<path class="st0" d="M100.2,196c0.1,0.1,0.1,0.1,0.1,0.1C100.3,196.1,100.2,196.1,100.2,196L100.2,196z"/>
			<path class="st0" d="M100.2,163.5c0.1,0.2,0.2,0.4,0.2,0.6c0,0.2-0.1,0.4-0.2,0.6V163.5z"/>
			<path class="st0" d="M100.2,164.9C100.2,164.9,100.2,164.9,100.2,164.9L100.2,164.9C100.2,164.9,100.2,164.9,100.2,164.9z"/>
			<path class="st0" d="M100.2,283.1v1.1c0,0.3-0.2,0.6-0.4,0.8c-0.1,0.1-0.3,0.1-0.5,0.1c-0.5,0-0.9-0.4-0.9-0.9v-0.1L100.2,283.1z
				"/>
			<path class="st0" d="M100.2,279.3v3.8l-1.8,1v-4.8c0.5,0,1.1,0,1.6,0C100.1,279.3,100.1,279.3,100.2,279.3z"/>
			<path class="st0" d="M100.2,277.5v1.8c-0.1,0-0.1,0-0.2,0c-0.5,0-1.1,0-1.6,0v-1.8c0.5,0,1.1,0,1.6,0
				C100.1,277.5,100.1,277.5,100.2,277.5z"/>
			<path class="st0" d="M100.2,259.3v18.2c-0.1,0-0.1,0-0.2,0c-0.5,0-1.1,0-1.6,0v-18.2H100.2z"/>
			<path class="st0" d="M100.2,258.2v1.1h-1.8v-1.1c0.5,0,1,0,1.5,0H100.2z"/>
			<path class="st0" d="M100.2,257.5v0.7h-0.3c-0.5,0-1,0-1.5,0v-0.7H100.2z"/>
			<path class="st0" d="M100.2,256.4v1.1h-1.8v-1.1c0.5,0,1,0,1.5,0H100.2z"/>
			<path class="st0" d="M100.2,246.4v10h-0.3c-0.5,0-1,0-1.5,0v-10c0.5,0,1,0,1.5,0H100.2z"/>
			<path class="st0" d="M100.2,245.9v0.5h-0.3c-0.5,0-1,0-1.5,0v-1.8c0.2,0,0.5,0,0.7,0v0.4c0,0.5,0.4,0.9,0.9,0.9
				C100.1,245.9,100.1,245.9,100.2,245.9z"/>
			<path class="st0" d="M100.2,244.6v1.3c-0.1,0-0.1,0-0.2,0c-0.5,0-0.9-0.4-0.9-0.9v-0.4C99.4,244.6,99.8,244.6,100.2,244.6
				C100.1,244.6,100.2,244.6,100.2,244.6z"/>
			<path class="st0" d="M100.2,229.7v14.9c0,0-0.1,0-0.1,0c-0.3,0-0.7,0-1,0L99,229.8l0.8-0.5C99.9,229.5,100.1,229.6,100.2,229.7z"
				/>
			<path class="st0" d="M100.2,227.6v2.1c-0.1-0.1-0.3-0.2-0.4-0.3l-0.8,0.5l0-1.9l0.4-0.2C99.6,227.5,99.9,227.5,100.2,227.6z"/>
			<path class="st0" d="M100.2,216v11.6c-0.3-0.1-0.6-0.1-0.8,0.1l-0.4,0.2l0-11.9l0.6-0.3L100.2,216z"/>
			<path class="st0" d="M100.2,214v2l-0.6-0.3L99,216l0-2l0.2-0.1c0.2-0.1,0.5-0.1,0.8,0L100.2,214z"/>
			<path class="st0" d="M100.2,198.6V214l-0.2-0.1c-0.3-0.1-0.6-0.1-0.8,0L99,214l-0.1-15.4l0.6-0.7L100.2,198.6z"/>
			<polygon class="st0" points="100.2,197.3 100.2,198.6 99.6,197.9 			"/>
			<path class="st0" d="M100.2,197.1v0.2l-0.6,0.6l-0.4-0.3c-0.2-0.2-0.2-0.3-0.3-0.5H100.2z"/>
			<path class="st0" d="M100.2,196.1v1h-1.3c0-0.1,0-0.1,0-0.1c0,0,0,0,0,0c0-0.2,0.1-0.4,0.3-0.6C99.5,196,99.9,195.9,100.2,196.1z
				"/>
			<path class="st0" d="M100.2,196L100.2,196c-0.3-0.1-0.7,0-1,0.3c-0.2,0.2-0.3,0.4-0.3,0.6v-0.5c0-0.2,0.1-0.4,0.2-0.5
				C99.4,195.7,99.8,195.7,100.2,196z"/>
			<path class="st0" d="M100.2,195.6v0.4c-0.3-0.3-0.8-0.3-1.1-0.1c0.2-0.2,0.4-0.4,0.8-0.4C99.9,195.5,100.1,195.5,100.2,195.6z"/>
			<path class="st0" d="M100.2,195.3v0.3c-0.1-0.1-0.2-0.1-0.4-0.1c-0.3,0-0.6,0.2-0.8,0.4c-0.1,0-0.1,0.1-0.2,0.1l-0.5,0.5v-1.2
				L100.2,195.3z"/>
			<path class="st0" d="M100.2,164.9v30.4l-1.8,0V165h0.7C99.5,165.2,99.9,165.2,100.2,164.9z"/>
			<path class="st0" d="M100.2,164.9C100.2,164.9,100.2,164.9,100.2,164.9c-0.3,0.3-0.7,0.4-1.1,0.1h0.4c0.2,0,0.3,0,0.4-0.1
				c0,0,0.1,0,0.1,0C100.1,164.9,100.1,164.9,100.2,164.9L100.2,164.9z"/>
			<path class="st0" d="M100.2,164.7v0.2c-0.1,0-0.1,0-0.2,0c0,0-0.1,0-0.1,0C100,164.8,100.1,164.8,100.2,164.7z"/>
			<path class="st0" d="M100.2,163.5v1.1c-0.1,0.1-0.2,0.2-0.3,0.2c-0.5,0-0.8-0.4-0.8-0.9c0-0.2,0.1-0.5,0.3-0.6l0.2-0.2
				C99.8,163.2,100.1,163.4,100.2,163.5z"/>
			<path class="st0" d="M100.2,163.5L100.2,163.5c-0.1-0.1-0.3-0.3-0.6-0.3l0.2-0.2L100.2,163.5z"/>
			<polygon class="st0" points="100.2,162.6 100.2,163.5 99.8,163.1 			"/>
			<polygon class="st0" points="100.2,146.6 100.2,162.6 99.8,163.1 98.4,161.7 98.4,143.9 			"/>
			<polygon class="st0" points="100.2,143.5 100.2,146.6 98.4,143.9 98.4,140.8 			"/>
			<polygon class="st0" points="100.2,133.3 100.2,143.5 98.4,140.8 98.4,133.3 			"/>
			<rect x="98.4" y="131.5" class="st0" width="1.8" height="1.8"/>
			<path class="st0" d="M100.2,99.3v32.2h-1.8V97.8h0.8c0,0.1,0,0.1,0,0.2c0,0,0,0,0,0c0,0.2,0.1,0.4,0.3,0.6L100.2,99.3z"/>
			<path class="st0" d="M100.2,98.7v0.6l-0.7-0.7c-0.2-0.2-0.3-0.4-0.3-0.6c0.1,0.3,0.4,0.6,0.8,0.7H100.2z"/>
			<path class="st0" d="M100.2,96.9v1.8H100c-0.4-0.1-0.7-0.3-0.8-0.7c0,0,0,0,0,0c0-0.2,0.1-0.5,0.3-0.6l0.5-0.5H100.2z"/>
			<polygon class="st0" points="100.2,96.7 100.2,96.9 100,96.9 			"/>
			<path class="st0" d="M100.2,68.2v28.5l-0.2,0.2c-0.4,0-0.8,0.4-0.8,0.8c0,0.1,0,0.1,0,0.2h-0.8V69.6l1.2-1.2l0.1-0.1
				c0,0,0,0,0-0.1C99.9,68.2,100.1,68.2,100.2,68.2z"/>
			<path class="st0" d="M100.2,67.5v0.7c-0.1,0-0.3,0-0.5,0.1c0.3-0.4,0.2-1-0.1-1.2c-0.3-0.2-0.6-0.3-0.9-0.2
				c0.1-0.1,0.3-0.2,0.4-0.2c0.1,0,0.1,0,0.2,0C99.8,66.6,100.2,67,100.2,67.5z"/>
			<path class="st0" d="M99.8,284.9l0.2,0.3l-1.6,0.9c-0.1,0.1-0.3,0.1-0.4,0.1l-50.5,0.1c-0.6-0.3-0.9-0.6-0.9-0.9
				c0-0.3,0.3-0.6,0.9-0.9l50.2-0.1l0.7-0.4v0.1c0,0.5,0.4,0.9,0.9,0.9C99.5,285.1,99.7,285,99.8,284.9z"/>
			<path class="st0" d="M100,96.9l-0.5,0.5c-0.2,0.1-0.3,0.4-0.3,0.6c0-0.1,0-0.1,0-0.2c0,0,0-0.1,0-0.2
				C99.2,97.3,99.6,96.9,100,96.9z"/>
			<path class="st0" d="M99.6,67c0.4,0.3,0.4,0.8,0.1,1.2c-0.4,0.1-0.9,0.1-1.3,0.2v-0.9c0-0.3,0.1-0.5,0.3-0.7
				C99,66.7,99.3,66.8,99.6,67z"/>
			<path class="st0" d="M99.8,163.1l-0.2,0.2c0,0-0.1,0-0.1,0h-1.1v-1.5L99.8,163.1z"/>
			<path class="st0" d="M99.7,68.2C99.7,68.3,99.7,68.3,99.7,68.2l-0.1,0.2l-1.2,1.2v-1.2C98.8,68.4,99.3,68.3,99.7,68.2z"/>
			<path class="st0" d="M99.9,164.9c-0.1,0.1-0.3,0.1-0.4,0.1h-0.4c0,0-0.1-0.1-0.1-0.1l-0.1-0.1l-0.5-0.5v-1.1h1.1c0,0,0.1,0,0.1,0
				l-0.2,0.2c-0.2,0.1-0.3,0.4-0.3,0.6C99.1,164.5,99.5,164.9,99.9,164.9z"/>
			<path class="st0" d="M99.6,197.9l-0.6,0.7l0-1.5h0c0,0.2,0.1,0.3,0.3,0.5L99.6,197.9z"/>
			<path class="st0" d="M99.1,165h-0.7v-0.7l0.5,0.5l0.1,0.1C99,164.9,99.1,165,99.1,165z"/>
			<path class="st0" d="M99.1,66.5l0,0.1c-0.2,0-0.3,0.1-0.4,0.2c-0.2,0-0.3,0.1-0.4,0.3l-1.6,1.6c-10,1.3-20.3,2.5-31.6,2.7h-2.5
				c-4.2,0-8-0.2-11.4-0.6l-1.3-2c4.4,0.5,9.4,0.8,15.2,0.7C77.3,69.4,88.4,68,99.1,66.5z"/>
			<path class="st0" d="M99,229.8l0.1,14.7c-0.2,0-0.5,0-0.7,0v-14.3L99,229.8z"/>
			<path class="st0" d="M98.9,196c0,0,0.1-0.1,0.2-0.1c-0.1,0.1-0.2,0.3-0.2,0.5v0.5c0,0,0,0,0,0v0.1l-0.5,0v-0.6L98.9,196z"/>
			<polygon class="st0" points="99,227.9 99,229.8 98.4,230.2 98.4,228.3 			"/>
			<polygon class="st0" points="99,216 99,227.9 98.4,228.3 98.4,216.3 			"/>
			<polygon class="st0" points="99,214 99,216 98.4,216.3 98.4,214.3 			"/>
			<polygon class="st0" points="98.9,198.6 99,214 98.4,214.3 98.4,199.1 			"/>
			<path class="st0" d="M98.9,197c0,0,0,0.1,0,0.1h0V197z"/>
			<polygon class="st0" points="98.9,197.1 98.9,198.6 98.4,199.1 98.4,197.1 			"/>
			<path class="st0" d="M98.3,67.1c0.1-0.1,0.2-0.2,0.4-0.3c-0.2,0.2-0.3,0.4-0.3,0.7v0.9c-0.6,0.1-1.1,0.2-1.7,0.2L98.3,67.1z"/>
			<path class="st0" d="M98.4,277.5v1.8c-29.6,0.1-46.9,3.1-50.9,5.3h-1l-0.1-1.3C53.4,278.9,81.5,277.6,98.4,277.5z"/>
			<path class="st0" d="M98.4,258.2v1.1h-54l-0.1-1.8h46.3C93.1,257.9,95.7,258.1,98.4,258.2z"/>
			<path class="st0" d="M98.4,257.5v0.7c-2.7-0.1-5.3-0.3-7.8-0.7H98.4z"/>
			<path class="st0" d="M98.4,256.4v1.1h-7.8c-23.6-3.6-42.9-20.5-49.9-42.9l-1.2-14.1l0.3,0C42,231.3,67.3,255.6,98.4,256.4z"/>
			<path class="st0" d="M98.4,244.6v1.8c-13.1-0.4-24.9-5.8-33.7-14.4l0.1-0.1c0.1,0.1,0.3,0.2,0.5,0.2c0.1,0,0.1,0,0.2,0
				c0.1,0,0.1,0,0.2,0c0.2,0,0.3,0,0.4-0.1l0.8-0.4c3.5,3.3,7.6,6.1,12,8.2c-0.2,0.3-0.3,0.7-0.1,1c0.2,0.4,0.8,0.6,1.2,0.3l0.8-0.5
				C86.2,243,92.2,244.4,98.4,244.6z"/>
			<path class="st0" d="M98.4,228.3v1.9l-17.6,10.4c-0.6-0.3-1.3-0.6-1.9-0.9c0.1-0.1,0.1-0.1,0.2-0.2L98.4,228.3z"/>
			<path class="st0" d="M98.4,214.3v2l-31.5,15.3c-0.1-0.1-0.2-0.2-0.4-0.4l2.8-2.8L98.4,214.3z"/>
			<path class="st0" d="M98.4,197.1v2l-29.1,29.3l-3.8,1.8c-0.1-0.1-0.2-0.2-0.3-0.3l32.6-32.9H98.4z"/>
			<polygon class="st0" points="98.4,196.5 98.4,197.1 97.8,197.1 			"/>
			<path class="st0" d="M98.4,195.3v1.2l-0.6,0.6L84,197.2l0.3-0.3c0.2-0.3,0.2-0.7,0-1c-0.2-0.2-0.5-0.4-0.8-0.4v-0.1L98.4,195.3z"
				/>
			<polygon class="st0" points="98.4,164.3 98.4,165 68.7,165 68.7,163.2 97.3,163.2 			"/>
			<polygon class="st0" points="98.4,163.2 98.4,164.3 97.3,163.2 			"/>
			<polygon class="st0" points="98.4,161.7 98.4,163.2 97.3,163.2 68.6,135 68.5,133.3 69.4,133.3 			"/>
			<polygon class="st0" points="98.4,140.8 98.4,143.9 91.2,133.3 93.3,133.3 			"/>
			<polygon class="st0" points="98.4,131.5 98.4,133.3 93.3,133.3 92.1,131.5 			"/>
			<path class="st0" d="M98.4,68.4v1.2L69.5,98l-1-1.6l28.2-27.8C97.3,68.6,97.8,68.5,98.4,68.4z"/>
			<polygon class="st0" points="93.3,133.3 91.2,133.3 90,131.5 92.1,131.5 			"/>
			<polygon class="st0" points="69.5,98 92.1,131.5 90,131.5 68.4,99.4 68.4,99.1 			"/>
			<polygon class="st0" points="90,131.5 91.2,133.3 69.4,133.3 68.5,132.4 68.5,131.5 			"/>
			<path class="st0" d="M84.3,195.9c0.2,0.3,0.2,0.7,0,1l-0.3,0.3l-2.5,0l1.4-1.5c0.2-0.1,0.3-0.2,0.5-0.2
				C83.8,195.5,84.1,195.7,84.3,195.9z"/>
			<path class="st0" d="M84,197.2l-24.7,25.5c-0.4-0.5-0.7-1.1-1-1.6l23.2-23.8L84,197.2z"/>
			<path class="st0" d="M83.5,195.4v0.1c-0.2,0-0.4,0.1-0.5,0.2l-1.4,1.5l-13.2,0.1l0.6-0.6c0.4-0.4,0.4-0.9,0-1.2L83.5,195.4z"/>
			<path class="st0" d="M80.8,240.6l-0.8,0.5c-0.4,0.3-1,0.1-1.2-0.3c-0.2-0.3-0.2-0.7,0.1-1C79.5,240.1,80.1,240.4,80.8,240.6z"/>
			<path class="st0" d="M68.5,96.4l1,1.6l-1.1,1.1v-0.2c0-0.5-0.4-0.9-0.9-0.9c0,0,0,0,0,0l-0.2-0.3L68.5,96.4z"/>
			<polygon class="st0" points="68.5,132.4 69.4,133.3 68.5,133.3 			"/>
			<path class="st0" d="M69.3,228.4l-2.8,2.8c-0.3-0.3-0.7-0.6-1-1L69.3,228.4z"/>
			<path class="st0" d="M68.9,195.4c0.4,0.4,0.3,0.9,0,1.2l-0.6,0.6l-2.6,0l1.1-1.1l0.1,0.1c0.1,0.1,0.1,0.2,0.2,0.2l0,0
				c0.2,0.2,0.4,0.3,0.6,0.3c0.5,0,0.9-0.4,0.9-0.9v-0.4H68.9z"/>
			<path class="st0" d="M68.9,195.4h-0.1v-0.1C68.8,195.3,68.9,195.4,68.9,195.4C68.9,195.4,68.9,195.4,68.9,195.4z"/>
			<path class="st0" d="M68.8,195.4v0.4c0,0.5-0.4,0.9-0.9,0.9c-0.2,0-0.5-0.1-0.6-0.3c0.1,0,0.2,0.1,0.3,0.1c0.2,0,0.4-0.1,0.7-0.2
				c0.2-0.3,0.3-0.6,0.2-0.9H68.8z"/>
			<path class="st0" d="M68.8,195.3v0.1h-0.3c0-0.1-0.1-0.2-0.2-0.3C68.5,195.1,68.6,195.2,68.8,195.3z"/>
			<path class="st0" d="M68.7,165l0.1,30.3c-0.2-0.1-0.3-0.2-0.5-0.2v0l-1.3-1.3L66.9,165H68.7z"/>
			<rect x="66.9" y="163.2" class="st0" width="1.8" height="1.8"/>
			<polygon class="st0" points="68.6,135 68.7,163.2 66.9,163.2 66.8,134.7 67.5,134 			"/>
			<polygon class="st0" points="68.5,133.3 68.6,135 67.5,134 66.8,134.7 66.7,133.3 			"/>
			<path class="st0" d="M68.5,132.4v0.9h-1.8v-1l0.2-0.2c0.4-0.3,0.9-0.3,1.3,0L68.5,132.4z"/>
			<path class="st0" d="M68.5,131.5l0,0.9l-0.3-0.3c-0.4-0.3-0.9-0.3-1.3,0l-0.2,0.2l0-0.8H68.5z"/>
			<polygon class="st0" points="68.4,99.4 68.5,131.5 66.7,131.5 66.6,100.9 68.3,99.2 			"/>
			<path class="st0" d="M68.5,195.4c0.1,0.3,0,0.7-0.2,0.9c-0.3,0.1-0.5,0.2-0.7,0.2c-0.1,0-0.2,0-0.3-0.1l0,0
				c-0.1-0.1-0.2-0.3-0.2-0.5l0.5-0.5L68.5,195.4z"/>
			<path class="st0" d="M68.5,96.4l-1.2,1.2L49,70.6c0.7,0.1,1.5,0.2,2.2,0.3L68.5,96.4z"/>
			<path class="st0" d="M68.5,195.4l-0.9,0l0.1-0.1c0.2-0.2,0.5-0.3,0.7-0.3C68.4,195.2,68.4,195.3,68.5,195.4z"/>
			<polygon class="st0" points="68.4,99.4 68.3,99.2 68.4,99.1 			"/>
			<path class="st0" d="M68.4,98.9v0.2l-0.1,0.1L67.5,98c0,0,0,0,0,0C68,98,68.4,98.4,68.4,98.9z"/>
			<path class="st0" d="M68.3,197.3L54,211.7c-0.2-0.7-0.4-1.3-0.6-2l12.3-12.5L68.3,197.3z"/>
			<path class="st0" d="M68.3,195.1L68.3,195.1c-0.2,0-0.5,0.1-0.7,0.3l-0.1,0.1H67l0-1.7L68.3,195.1z"/>
			<path class="st0" d="M68.3,99.2l-1.7,1.7l0-2c0-0.5,0.4-0.9,0.9-0.9L68.3,99.2z"/>
			<path class="st0" d="M67.5,195.5L67,196c0,0,0-0.1,0-0.1v-0.4H67.5z"/>
			<path class="st0" d="M67.2,97.7l0.2,0.3c-0.5,0-0.9,0.4-0.9,0.9l0,2l-31.1,30.6h-1.7l-0.1-0.8L67.2,97.7z"/>
			<path class="st0" d="M67.2,196.5c-0.1-0.1-0.2-0.1-0.2-0.2l-0.1-0.1L67,196C67,196.2,67.1,196.4,67.2,196.5z"/>
			<path class="st0" d="M67,195.9c0,0,0,0.1,0,0.1l-0.2,0.2l-0.7-0.7l0.8,0V195.9z"/>
			<polygon class="st0" points="67,193.8 67,195.5 66.2,195.5 36.7,166 36.6,165 38.2,165 			"/>
			<path class="st0" d="M66.9,231.6l-0.8,0.4c-0.1,0.1-0.2,0.1-0.4,0.1c-0.1,0-0.1,0-0.2,0c0.1,0,0.3-0.1,0.5-0.3l0.6-0.6
				C66.7,231.4,66.8,231.5,66.9,231.6z"/>
			<polygon class="st0" points="66.9,163.2 66.9,165 38.2,165 37.4,164.2 38.4,163.2 			"/>
			<path class="st0" d="M66.9,196.2l-1.1,1.1l-14.2,0.1c0-0.3,0-0.6,0-0.9c0-0.4-0.3-0.8-0.7-0.9l15.3-0.1L66.9,196.2z"/>
			<polygon class="st0" points="66.7,133.3 66.8,134.7 38.4,163.2 36.4,163.2 36.4,162.6 65.7,133.3 			"/>
			<polygon class="st0" points="66.7,132.3 66.7,133.3 65.7,133.3 			"/>
			<polygon class="st0" points="66.7,131.5 66.7,132.3 65.7,133.3 34,133.3 33.9,133.1 35.5,131.5 			"/>
			<path class="st0" d="M66.6,231.2l-0.6,0.6c-0.2,0.1-0.4,0.2-0.5,0.3c-0.2-0.1-0.5-0.2-0.6-0.5c-0.2-0.4,0-1,0.4-1.2l0.2-0.1
				C65.9,230.6,66.2,230.9,66.6,231.2z"/>
			<path class="st0" d="M65.2,230c0.1,0.1,0.2,0.2,0.3,0.3l-0.2,0.1c-0.4,0.2-0.6,0.8-0.4,1.2c0.1,0.2,0.3,0.4,0.6,0.5
				c-0.1,0-0.1,0-0.2,0c-0.2,0-0.4-0.1-0.5-0.2c0,0-0.1-0.1-0.1-0.1c-0.4-0.4-0.4-0.9,0-1.3L65.2,230z"/>
			<path class="st0" d="M65.2,230l-0.5,0.5c-0.4,0.4-0.4,0.9,0,1.3c0,0.1,0.1,0.1,0.1,0.1l-0.1,0.1c-2.8-2.7-5.2-5.7-7.3-9l0.1-0.1
				c0.2,0.2,0.4,0.4,0.8,0.4c0.3,0,0.5-0.1,0.7-0.3l0.4-0.4C61.1,225.3,63.1,227.7,65.2,230z"/>
			<path class="st0" d="M59.4,222.6L59,223c-0.2,0.2-0.4,0.3-0.7,0.3c-0.3,0-0.6-0.2-0.8-0.4c-0.1-0.1-0.1-0.3-0.1-0.5
				c0-0.2,0.1-0.5,0.3-0.7l0.7-0.7C58.7,221.6,59,222.1,59.4,222.6z"/>
			<path class="st0" d="M58.4,221l-0.7,0.7c-0.2,0.2-0.3,0.5-0.3,0.7c0,0.2,0.1,0.4,0.1,0.5l-0.1,0.1c-4.7-7.4-7.5-16.2-7.7-25.6
				l1.8,0c0.1,4.3,0.8,8.5,1.9,12.4l-0.7,0.7c-0.3,0.4-0.3,0.9,0,1.3c0.1,0.2,0.4,0.3,0.6,0.3s0.4-0.1,0.7-0.3l0-0.1
				C55.2,215,56.6,218.1,58.4,221z"/>
			<path class="st0" d="M54,211.7L54,211.7c-0.3,0.2-0.5,0.4-0.8,0.4s-0.5-0.1-0.6-0.3c-0.3-0.4-0.3-0.9,0-1.3l0.7-0.7
				C53.6,210.4,53.8,211.1,54,211.7z"/>
			<path class="st0" d="M51.5,196.4c0,0.3,0,0.6,0,0.9l-1.8,0c0-0.3,0-0.6,0-1c0-0.4,0.3-0.8,0.6-0.9h0.5
				C51.2,195.6,51.5,196,51.5,196.4z"/>
			<path class="st0" d="M49.9,68.9l1.3,2c-0.8-0.1-1.5-0.2-2.2-0.3l-0.2-0.3l0.3-0.3c0.2-0.2,0.3-0.4,0.3-0.7c0-0.2-0.1-0.4-0.2-0.6
				C49.4,68.8,49.7,68.8,49.9,68.9z"/>
			<path class="st0" d="M50.8,195.5h-0.5c0.1,0,0.2,0,0.3,0S50.8,195.5,50.8,195.5z"/>
			<path class="st0" d="M39.1,195.6l11.2-0.1c-0.4,0.1-0.6,0.5-0.6,0.9c0,0.3,0,0.6,0,1l-10,0c0,1,0.1,2,0.1,3.1l-0.3,0L39.1,195.6z
				"/>
			<path class="st0" d="M49.9,68.9c-0.2,0-0.5-0.1-0.8-0.1c0,0,0-0.1-0.1-0.1c-0.4-0.4-0.9-0.4-1.2-0.1c-0.1,0-0.2,0-0.2,0
				L25.9,36.3L25.8,35c0.5,0.3,1.2,0.6,1.9,0.9L49.9,68.9z"/>
			<path class="st0" d="M49.2,68.8c0.2,0.2,0.2,0.4,0.2,0.6c0,0.2-0.1,0.5-0.3,0.7l-0.3,0.3l-1-1.6l0,0c0,0,0.1-0.1,0.1-0.1
				C48.3,68.7,48.7,68.7,49.2,68.8z"/>
			<path class="st0" d="M49.1,68.7C49.1,68.7,49.2,68.7,49.1,68.7c-0.4,0-0.8,0-1.2-0.1C48.2,68.3,48.7,68.3,49.1,68.7z"/>
			<path class="st0" d="M48.8,70.3l0.2,0.3c-0.1,0-0.3,0-0.4-0.1L48.8,70.3z"/>
			<path class="st0" d="M47.8,68.7l1,1.6l-0.2,0.2c-0.8-0.1-1.5-0.2-2.3-0.3L47.8,68.7z"/>
			<path class="st0" d="M48.6,70.5L30.3,89.1l-0.2-2.5l16.2-16.4C47,70.3,47.8,70.4,48.6,70.5z"/>
			<path class="st0" d="M47.9,68.6C47.9,68.6,47.8,68.7,47.9,68.6l-0.1,0.1l-0.1-0.2C47.7,68.6,47.8,68.6,47.9,68.6z"/>
			<path class="st0" d="M47.8,68.7l-1.4,1.5c-9.6-1.5-15.4-4-18.1-5.4l-0.2-2.2c1.7,1,8,4.3,19.6,6L47.8,68.7z"/>
			<path class="st0" d="M46.5,284.6h1c-0.6,0.3-0.9,0.6-0.9,0.9c0,0.3,0.3,0.6,0.9,0.9h-1.2c0.2-0.2,0.4-0.5,0.3-0.8L46.5,284.6z"/>
			<path class="st0" d="M46.6,285.6c0.1,0.3-0.1,0.6-0.3,0.8h-0.2c-0.5,0-0.9-0.4-0.9-0.9s0.4-0.9,0.9-0.9h0.4L46.6,285.6z"/>
			<path class="st0" d="M46.4,283.3l0.1,1.3h-0.4c-0.5,0-0.9,0.4-0.9,0.9s0.4,0.9,0.9,0.9h0.2c-0.1,0.1-0.3,0.2-0.5,0.2h-0.2v0.1
				c-0.2,0-0.3,0-0.4-0.1c-0.2-0.4-0.4-0.7-0.4-1.1C44.8,284.7,45.4,284,46.4,283.3z"/>
			<path class="st0" d="M44.4,259.3l2,24c-1,0.7-1.6,1.4-1.6,2.2c0,0.4,0.1,0.7,0.4,1.1c-0.3-0.1-0.5-0.4-0.5-0.7l-2.3-27.4l0.5,0
				c0,0.4,0.4,0.8,0.8,0.9H44.4z"/>
			<path class="st0" d="M44.4,259.3h-0.7c-0.5-0.1-0.8-0.4-0.8-0.9c0,0,0-0.1,0-0.1c0-0.4,0.4-0.8,0.8-0.8h0.6L44.4,259.3z"/>
			<path class="st0" d="M40.7,214.6l3.6,42.9h-0.6c-0.4,0-0.8,0.4-0.8,0.8c0,0,0,0.1,0,0.1l-0.5,0l-4.7-57.2l0.4,0
				C38.5,205.9,39.4,210.3,40.7,214.6z"/>
			<path class="st0" d="M39.5,200.5l1.2,14.1c-1.3-4.3-2.2-8.8-2.6-13.4c-0.1-1.6-0.2-3.1-0.2-4.8c0-0.5,0.4-0.9,0.9-0.9h0.3
				L39.5,200.5z"/>
			<path class="st0" d="M36.7,166l2.5,29.6h-0.3c-0.5,0-0.9,0.4-0.9,0.9c0,1.6,0.1,3.2,0.2,4.8l-0.4,0l-3.1-37.1l0.4,0
				c0,0.4,0.3,0.8,0.7,0.9L36.7,166z"/>
			<polygon class="st0" points="38.4,163.2 37.4,164.2 38.2,165 36.6,165 36.4,163.2 			"/>
			<path class="st0" d="M36.6,165l0.1,1l-1-1c0.1,0,0.2,0,0.2,0H36.6z"/>
			<path class="st0" d="M36.4,163.2l0.2,1.8h-0.7c-0.1,0-0.2,0-0.2,0l-0.2-0.2c-0.3-0.4-0.3-0.9,0-1.3l0.3-0.3c0,0,0.1,0,0.1,0H36.4
				z"/>
			<path class="st0" d="M36.4,162.6l0,0.6h-0.5c0,0-0.1,0-0.1,0L36.4,162.6z"/>
			<path class="st0" d="M34,133.3l2.4,29.3l-0.6,0.6c-0.5,0-0.8,0.4-0.8,0.9l-0.4,0L32,132.7l0.1,0c0,0.2,0.1,0.5,0.3,0.7
				c0.1,0.2,0.4,0.3,0.6,0.3s0.5-0.1,0.7-0.3H34z"/>
			<path class="st0" d="M35.8,163.2l-0.3,0.3c-0.3,0.4-0.3,0.9,0,1.3l0.2,0.2c-0.4-0.1-0.7-0.4-0.7-0.9
				C35,163.6,35.3,163.3,35.8,163.2z"/>
			<polygon class="st0" points="35.5,131.5 33.9,133.1 33.8,131.5 			"/>
			<polygon class="st0" points="33.9,133.1 34,133.3 33.7,133.3 			"/>
			<path class="st0" d="M33.8,131.5l0.1,1.6l-0.2,0.2h-0.6c-0.5,0-0.9-0.4-0.9-0.9c0,0,0-0.1,0-0.1c0-0.1,0.1-0.2,0.2-0.2l0.5-0.5
				c0.1,0,0.2,0,0.2,0H33.8z"/>
			<path class="st0" d="M33.7,130.7l0.1,0.8h-0.7c-0.1,0-0.2,0-0.2,0L33.7,130.7z"/>
			<path class="st0" d="M30.3,89.1l3.4,41.6l-0.9,0.8c-0.3,0.1-0.6,0.4-0.6,0.7c-0.1,0.1-0.1,0.3-0.1,0.4l-0.1,0l-3.6-44l0.3,0
				c0,0.2,0.1,0.3,0.2,0.5c0.1,0.2,0.4,0.3,0.6,0.3C29.8,89.4,30,89.3,30.3,89.1L30.3,89.1z"/>
			<path class="st0" d="M33.1,133.3h0.6c-0.2,0.2-0.5,0.3-0.7,0.3s-0.5-0.1-0.6-0.3c-0.2-0.2-0.3-0.4-0.3-0.7c0-0.1,0-0.3,0.1-0.4
				c0,0.1,0,0.1,0,0.1C32.2,132.9,32.6,133.3,33.1,133.3z"/>
			<path class="st0" d="M32.9,131.5l-0.5,0.5c-0.1,0.1-0.1,0.2-0.2,0.2C32.3,131.9,32.5,131.6,32.9,131.5z"/>
			<path class="st0" d="M30.1,86.6l0.2,2.5l-0.1,0.1c-0.2,0.1-0.4,0.2-0.7,0.2c-0.2,0-0.5-0.1-0.6-0.3c-0.1-0.2-0.2-0.3-0.2-0.5
				c-0.1-0.3,0-0.6,0.2-0.8L30.1,86.6z"/>
			<path class="st0" d="M28.3,64.8l1.8,21.9l-1.2,1.2c-0.2,0.2-0.3,0.5-0.2,0.8l-0.3,0l-2.1-25.3c0,0.2,0.1,0.4,0.3,0.5
				C26.7,63.9,27.2,64.2,28.3,64.8z"/>
			<path class="st0" d="M28.1,62.6l0.2,2.2c-1-0.5-1.6-0.9-1.7-1c-0.2-0.1-0.2-0.3-0.3-0.5c0-0.1,0-0.1,0-0.2c0-0.2,0.1-0.4,0.2-0.6
				c0.3-0.3,0.7-0.4,1.1-0.2C27.6,62.3,27.8,62.4,28.1,62.6z"/>
			<path class="st0" d="M25.9,36.3l2.2,26.3c-0.3-0.2-0.5-0.3-0.5-0.3c-0.4-0.2-0.8-0.1-1.1,0.2c-0.1,0.2-0.2,0.4-0.2,0.6l-2.5-29.9
				L25.9,36.3z"/>
			<path class="st0" d="M25.7,32.9l2,3c-0.8-0.3-1.4-0.6-1.9-0.9L25.7,32.9c-0.1-0.1-0.1-0.1-0.1-0.1L25.7,32.9z"/>
			<path class="st0" d="M25.9,36.3l-2.1-3.1l0-0.2c0-0.2,0-0.5,0.2-0.6c0,0.2-0.1,0.4-0.1,0.5c0.1,0.8,0.7,1.5,1.9,2.1L25.9,36.3z"
				/>
			<path class="st0" d="M25.6,32.8l0.2,2.2c-1.1-0.7-1.8-1.4-1.9-2.1c0-0.2,0-0.4,0.1-0.5c0.2-0.2,0.4-0.3,0.6-0.4c0,0,0.1,0,0.1,0
				c0.1,0,0.3,0,0.4,0.1L25.6,32.8C25.6,32.8,25.6,32.8,25.6,32.8z"/>
			<path class="st0" d="M25.6,32.8l-0.5-0.7C25.4,32.2,25.5,32.5,25.6,32.8z"/>
			<path class="st0" d="M24.6,31.2l0.6,0.9C25,32,24.9,32,24.8,32c0,0-0.1,0-0.1,0c-0.3,0-0.5,0.2-0.6,0.4
				C24,32,24.2,31.6,24.6,31.2C24.5,31.3,24.5,31.3,24.6,31.2z"/>
			<path class="st0" d="M13.9,15.4l10.6,15.8c0,0,0,0-0.1,0.1C24.2,31.6,24,32,24,32.4c-0.1,0.2-0.2,0.4-0.2,0.6l0,0.2L12.4,16.3
				C13,16.1,13.5,15.8,13.9,15.4z"/>
			<path class="st0" d="M17.3,7.3c0.3,2.3-0.2,4.5-1.6,6.4c-0.5,0.7-1.1,1.3-1.8,1.8l-1-1.5c0.5-0.4,1-0.8,1.4-1.4
				c2.2-3,1.6-7.2-1.3-9.4l-0.1-0.1c-1.3-0.8-2.7-1.3-4.2-1.3c-2.2,0-4.2,1-5.5,2.7C2.1,6,1.6,7.8,1.9,9.5c0.3,1.8,1.2,3.4,2.7,4.5
				c2.1,1.5,4.6,1.7,6.8,0.8l1,1.5c-1.2,0.5-2.4,0.8-3.7,0.8c-1.9,0-3.7-0.6-5.2-1.7c-3.8-2.7-4.7-8.1-1.9-11.9l0.1-0.1
				C4.6-0.3,10-1.1,13.9,1.7c0.9,0.7,1.7,1.5,2.3,2.5C16.8,5.1,17.1,6.2,17.3,7.3z"/>
			<path class="st1" d="M13,3.2c2.9,2.2,3.5,6.4,1.3,9.4c-0.4,0.5-0.9,1-1.4,1.4L8.7,7.7C8.5,7.3,7.9,7.2,7.5,7.5
				C7.1,7.7,7,8.3,7.3,8.7l4.1,6.1c-2.2,0.9-4.8,0.7-6.8-0.8c-1.5-1.1-2.4-2.7-2.7-4.5C1.6,7.8,2.1,6,3.2,4.5
				c1.3-1.7,3.3-2.7,5.5-2.7c1.5,0,2.9,0.5,4.2,1.3L13,3.2z"/>
			<path class="st0" d="M12.9,14l1,1.5c-0.5,0.3-1,0.6-1.5,0.9l-1-1.5C11.9,14.6,12.4,14.3,12.9,14z"/>
			<path class="st0" d="M8.7,7.7l4.2,6.3c-0.5,0.4-1,0.6-1.5,0.8L7.3,8.7C7,8.3,7.1,7.7,7.5,7.5C7.9,7.2,8.5,7.3,8.7,7.7z"/>
		</g>
		<g>
		</g>
	</g>
</g>
</svg>
