<?xml version="1.0" encoding="utf-8"?>
<!-- Generator: Adobe Illustrator 25.4.1, SVG Export Plug-In . SVG Version: 6.00 Build 0)  -->
<svg version="1.1" id="Layer_1" xmlns="http://www.w3.org/2000/svg" xmlns:xlink="http://www.w3.org/1999/xlink" x="0px" y="0px"
	 viewBox="0 0 142.7 370.8" style="enable-background:new 0 0 142.7 370.8;" xml:space="preserve">
<style type="text/css">
	.st0{fill:#FFFFFF;}
</style>
<g id="Layer_2_00000101785424627955052960000006590989870311735457_">
	<g id="Layer_1-2">
		<path class="st0" d="M125.6,169.8c-0.2,0-0.5-0.1-0.6-0.3l-54.4-52.8c-0.4-0.3-0.4-0.9,0-1.3s0.9-0.4,1.3,0l0,0l54.4,52.8
			c0.3,0.4,0.3,0.9,0,1.3C126.1,169.7,125.8,169.8,125.6,169.8z"/>
		<path class="st0" d="M71.4,49.4c-29.9,0-61.7-3.7-61.7-10.6s31.8-10.6,61.7-10.6s61.7,3.7,61.7,10.6S101.3,49.4,71.4,49.4z
			 M71.4,30.1c-37.1,0-59.9,5.1-59.9,8.8s22.8,8.8,59.9,8.8s59.9-5.1,59.9-8.8S108.5,30.1,71.4,30.1z"/>
		<path class="st0" d="M71,211.8h-0.1c-0.5-0.1-0.8-0.5-0.8-1c1-6.6,6.4-9.4,15.3-14.1c1.4-0.7,2.9-1.5,4.5-2.3s3.5-1.8,5.4-2.7
			c2.5-1.2,4.9-2.4,6-3.1c6.7-3.4,12.8-8,18-13.5c7.6-7.5,13.2-16.7,16.2-26.9c1.9-5.5,3.2-11.1,3.9-16.9c4.1-33.8-1-60.1-8.5-93.6
			c-0.1-0.5,0.2-1,0.7-1.1s1,0.2,1.1,0.7c7.6,33.7,12.7,60.2,8.6,94.2c-0.7,5.9-2.1,11.6-4,17.2c-3.1,10.5-8.9,20-16.7,27.6
			c-5.3,5.6-11.5,10.3-18.4,13.8c-1.2,0.7-3.6,1.9-6.1,3.2c-1.9,0.9-3.8,1.9-5.4,2.7s-3.1,1.6-4.5,2.3c-8.7,4.5-13.5,7-14.4,12.7
			C71.7,211.5,71.4,211.8,71,211.8z"/>
		<path class="st0" d="M70.8,212c-0.4,0-0.8-0.3-0.9-0.7c-1.5-7.4-13.8-13.2-22.8-17.4c-2.7-1.3-5.3-2.5-7.3-3.6
			c-5.8-3-11.1-6.7-15.9-11.2C11.7,167.4,3.9,150.8,1.5,131C-2.6,97.2,2.2,72,10,37.3c0.1-0.5,0.6-0.8,1.1-0.7
			c0.5,0.1,0.8,0.6,0.7,1.1C4,72.1-0.8,97.2,3.3,130.7c2.4,19.7,9.8,35.5,22,47c4.6,4.4,9.8,8,15.5,10.9c2,1.1,4.5,2.3,7.2,3.6
			c9.9,4.6,22.1,10.4,23.8,18.7c0.1,0.5-0.2,1-0.7,1.1c0,0-0.1,0-0.1,0H70.8z"/>
		<path class="st0" d="M71.8,188.2h-0.4c-27.7-0.2-50-22.8-49.8-50.5c0.1-13.3,5.5-26,15-35.4c0.2-0.2,0.4-0.3,0.6-0.3
			c0.2,0,0.5,0.1,0.6,0.3l69.2,70.2c0.2,0.2,0.3,0.4,0.3,0.6c0,0.2-0.1,0.5-0.3,0.6C97.6,183,85,188.2,71.8,188.2z M37.2,104.2
			c-18.6,19.2-18.1,49.8,1.1,68.4c18.6,18,48,18.2,66.8,0.5L37.2,104.2z"/>
		<path class="st0" d="M71.8,178.7c-22.4,0-40.6-18.2-40.6-40.6c0-10.9,4.4-21.3,12.1-28.9c0.4-0.4,0.9-0.4,1.3,0
			c0.3,0.4,0.3,0.9,0,1.3c-14.9,15.4-14.5,40,0.9,54.9c14.9,14.4,38.5,14.6,53.6,0.4c0.4-0.4,0.9-0.3,1.3,0c0.4,0.4,0.3,0.9,0,1.3
			C92.7,174.5,82.4,178.7,71.8,178.7z"/>
		<path class="st0" d="M28.5,182.1c-0.5,0-0.9-0.4-0.9-0.9c0-0.2,0.1-0.5,0.3-0.6l43.1-43.1c0.4-0.3,0.9-0.3,1.3,0.1
			c0.3,0.3,0.3,0.8,0,1.2l-43.1,43.1C28.9,182,28.7,182.1,28.5,182.1z"/>
		<path class="st0" d="M71.2,139L71.2,139L32,138.7c-0.5,0-0.9-0.4-0.9-0.9c0-0.5,0.4-0.9,0.9-0.9c0,0,0,0,0,0l0,0l39.1,0.3
			c0.5,0,0.9,0.4,0.9,0.9C72.1,138.6,71.7,139,71.2,139C71.2,139,71.2,139,71.2,139z"/>
		<path class="st0" d="M70.9,178.5L70.9,178.5c-0.5,0-0.9-0.4-0.9-0.9c0,0,0,0,0,0l0.3-39.1c0-0.5,0.4-0.9,0.9-0.9c0,0,0,0,0,0l0,0
			c0.5,0,0.9,0.4,0.9,0.9l-0.3,39.1C71.8,178.1,71.4,178.5,70.9,178.5z"/>
		<path class="st0" d="M70.9,370.8c-24.5,0-50.5-3.6-50.5-10.4s26-10.4,50.5-10.4s50.5,3.6,50.5,10.4S95.4,370.8,70.9,370.8z
			 M70.9,351.8c-31.4,0-48.7,5.1-48.7,8.6s17.3,8.6,48.7,8.6s48.7-5.1,48.7-8.6S102.2,351.8,70.9,351.8L70.9,351.8z"/>
		<path class="st0" d="M70.9,359.7c-0.5,0-0.9-0.4-0.9-0.9V66.9c0-0.5,0.4-0.9,0.9-0.9s0.9,0.4,0.9,0.9v291.9
			C71.8,359.3,71.4,359.7,70.9,359.7C70.9,359.7,70.9,359.7,70.9,359.7z"/>
		<path class="st0" d="M61.5,370.5c-0.5,0-0.9-0.4-0.9-0.9l-0.2-9.2H21.6c-0.5,0-0.9-0.4-0.9-0.9c0-0.5,0.4-0.9,0.9-0.9h39.7
			c0.5,0,0.9,0.4,0.9,0.9l0.2,10.1C62.4,370,62,370.4,61.5,370.5C61.5,370.5,61.5,370.5,61.5,370.5L61.5,370.5z"/>
		<path class="st0" d="M61.3,370.6c-0.5,0-0.9-0.4-0.9-0.9c0-0.2,0.1-0.4,0.2-0.6l16.7-18.9c0.3-0.4,0.9-0.4,1.3-0.1
			c0.4,0.3,0.4,0.9,0.1,1.2L62,370.3C61.8,370.5,61.6,370.6,61.3,370.6z"/>
		<path class="st0" d="M41.4,72c-12.7-0.2-25.2-3.9-35.9-10.6c-0.4-0.3-0.5-0.8-0.2-1.3c0.3-0.4,0.8-0.5,1.2-0.2
			C6.7,60,24.3,72,46.7,69.9c10-0.9,19-3.1,27.8-5.2c11.3-2.7,22-5.3,33.4-4.9c20.2,0.7,30.3,7.7,30.7,8c0.4,0.3,0.4,0.9,0.1,1.3
			c-0.3,0.3-0.7,0.4-1.1,0.2c-0.1-0.1-10.1-7-29.7-7.7c-11.2-0.4-21.8,2.1-33,4.8c-8.8,2.1-18,4.3-28.1,5.2C45,71.9,43.2,72,41.4,72
			z"/>
		<path class="st0" d="M37.1,104.1c-0.5,0-0.9-0.4-0.9-0.9l0,0v-32c0-0.5,0.4-0.9,0.9-0.9c0.5,0,0.9,0.4,0.9,0.9v32
			C38,103.7,37.6,104.1,37.1,104.1z"/>
		<path class="st0" d="M125.8,168.9c-0.5,0-0.9-0.4-0.9-0.9V96.1c0-0.5,0.4-0.9,0.9-0.9s0.9,0.4,0.9,0.9V168
			C126.7,168.5,126.4,168.9,125.8,168.9C125.8,168.9,125.8,168.9,125.8,168.9z"/>
		<path class="st0" d="M140.6,130c-0.2,0-0.5-0.1-0.6-0.3l-34.2-33.1c-0.4-0.3-0.4-0.9,0-1.3s0.9-0.4,1.3,0l34.2,33.1
			c0.3,0.4,0.3,0.9,0,1.3C141.1,129.9,140.9,130,140.6,130z"/>
		<path class="st0" d="M124.8,166.2c-6.8,0-12.1-11.3-12.1-25.6s5.3-25.6,12.1-25.6s12.1,11.3,12.1,25.6S131.6,166.2,124.8,166.2z
			 M124.8,116.7c-5.6,0-10.3,10.9-10.3,23.8s4.7,23.8,10.3,23.8c5.6,0,10.3-10.9,10.3-23.8S130.4,116.7,124.8,116.7z"/>
		<path class="st0" d="M21.9,138.9H3.8c-0.5,0-0.9-0.4-0.9-0.9c0-0.5,0.4-0.9,0.9-0.9h18.1c0.5,0,0.9,0.4,0.9,0.9
			C22.8,138.5,22.4,138.9,21.9,138.9z"/>
		<path class="st0" d="M106.2,96.5H91.8c-0.5,0-0.9-0.4-0.9-0.9l0,0v-92c0-0.5,0.4-0.9,0.9-0.9s0.9,0.4,0.9,0.9v91.1h12.6V3.6
			c0-0.5,0.4-0.9,0.9-0.9s0.9,0.4,0.9,0.9v92C107.1,96.1,106.7,96.5,106.2,96.5C106.2,96.5,106.2,96.5,106.2,96.5z"/>
		<path class="st0" d="M98.9,6.2c-3,0-8.1-0.7-8.1-3.1S95.9,0,98.9,0s8.1,0.7,8.1,3.1S101.9,6.2,98.9,6.2z M92.7,3.1
			c0.3,0.4,2.5,1.3,6.2,1.3s5.9-0.9,6.2-1.3c-0.3-0.4-2.5-1.3-6.2-1.3S93.1,2.7,92.7,3.1z M105.2,3.2L105.2,3.2z"/>
		<path class="st0" d="M106.1,131.7c-0.2,0-0.5-0.1-0.6-0.3l-35-35c-0.4-0.3-0.4-0.9,0-1.2c0,0,0,0,0,0L105.7,60
			c0.4-0.3,0.9-0.3,1.3,0l35.2,35.2c0.3,0.4,0.3,0.9-0.1,1.3c-0.3,0.3-0.8,0.3-1.2,0L106.3,62L72.4,95.9l34.3,34.3
			c0.3,0.4,0.3,0.9,0,1.3C106.6,131.6,106.4,131.7,106.1,131.7z"/>
		<path class="st0" d="M141.3,96.7H71c-0.5,0-0.9-0.4-0.9-0.9s0.4-0.9,0.9-0.9h70.3c0.5,0,0.9,0.4,0.9,0.9S141.8,96.7,141.3,96.7
			L141.3,96.7L141.3,96.7z"/>
		<path class="st0" d="M106.3,187.6c-0.5,0-0.9-0.4-0.9-0.9c0,0,0,0,0,0l-0.2-91.6c0-0.5,0.4-0.9,0.9-0.9c0,0,0,0,0,0l0,0
			c0.5,0,0.9,0.4,0.9,0.9l0,0l0.2,91.6C107.2,187.2,106.8,187.6,106.3,187.6L106.3,187.6z"/>
		<path class="st0" d="M70.2,104.4c-0.2,0-0.5-0.1-0.6-0.2L36.9,72.3l-34.3,31c-0.4,0.3-0.9,0.3-1.3-0.1C1,102.9,1,102.3,1.4,102
			l34.9-31.6c0.3-0.3,0.9-0.3,1.2,0l33.2,32.4c0.4,0.3,0.4,0.9,0,1.3C70.6,104.3,70.4,104.4,70.2,104.4L70.2,104.4z"/>
		<path class="st0" d="M37,103.6c-0.2,0-0.5-0.1-0.6-0.3L3.9,70.4c-0.3-0.4-0.3-0.9,0-1.3c0.3-0.4,0.9-0.4,1.3,0c0,0,0,0,0,0
			L37,101.4l19.3-19.7c0.4-0.4,0.9-0.3,1.3,0c0.4,0.4,0.3,0.9,0,1.3l0,0l-20,20.3C37.5,103.5,37.2,103.6,37,103.6L37,103.6z"/>
		<path class="st0" d="M36.7,103.7H1.9c-0.5,0-0.9-0.4-0.9-0.9s0.4-0.9,0.9-0.9h34.9c0.5,0,0.9,0.4,0.9,0.9S37.2,103.7,36.7,103.7z"
			/>
	</g>
</g>
</svg>
