<?xml version="1.0" encoding="utf-8"?>
<!-- Generator: Adobe Illustrator 25.4.1, SVG Export Plug-In . SVG Version: 6.00 Build 0)  -->
<svg version="1.1" id="Layer_1" xmlns="http://www.w3.org/2000/svg" xmlns:xlink="http://www.w3.org/1999/xlink" x="0px" y="0px"
	 viewBox="0 0 154.6 217.1" style="enable-background:new 0 0 154.6 217.1;" xml:space="preserve">
<style type="text/css">
	.st0{fill:#FFFFFF;}
	.st1{fill:#FD8612;}
</style>
<g id="Layer_1-2">
	<g id="XMLID_00000130614380310209420070000006962950830616494244_">
		<g>
			<path class="st0" d="M146.8-0.1c4.4,0.1,8,3.8,7.9,8.3c-0.1,2.2-1,4.2-2.5,5.6c-1.4,1.4-3.4,2.3-5.6,2.3h-0.2c-1,0-2-0.2-2.8-0.6
				l0.9-1.6c2.2,0.8,4.7,0.4,6.4-1.4c1.2-1.1,1.9-2.7,1.9-4.4c0.1-3.5-2.6-6.3-6.1-6.4h-0.1c-3.4,0-6.2,2.7-6.2,6.1
				c-0.1,1.7,0.6,3.3,1.7,4.5c0.3,0.3,0.5,0.5,0.8,0.7l-0.9,1.6c-2.1-1.5-3.5-3.9-3.4-6.8V7.8C138.7,3.4,142.4-0.2,146.8-0.1z"/>
			<path class="st1" d="M146.7,1.8c3.5,0.1,6.2,2.9,6.1,6.4c0,1.7-0.7,3.3-1.9,4.4c-1.8,1.7-4.3,2.1-6.4,1.4l3.1-5.6
				c0.3-0.4,0.1-1-0.3-1.2c-0.4-0.3-1-0.1-1.2,0.3l-3.2,5.6c-0.3-0.2-0.6-0.4-0.8-0.7c-1.1-1.2-1.8-2.8-1.7-4.5
				C140.4,4.5,143.2,1.8,146.7,1.8L146.7,1.8z"/>
			<path class="st0" d="M147.3,7.2c0.4,0.2,0.6,0.8,0.3,1.2l-3.1,5.6c-0.5-0.2-1.1-0.5-1.5-0.8l3.2-5.6
				C146.3,7.1,146.9,6.9,147.3,7.2z"/>
			<path class="st0" d="M144.5,13.9l-0.9,1.6c-0.6-0.2-1.1-0.5-1.5-0.8l0.9-1.6C143.4,13.5,143.9,13.7,144.5,13.9z"/>
			<path class="st0" d="M143.6,15.5l-13,22.9c-0.4-0.3-0.9-0.6-1.5-0.8l13-22.9C142.5,15,143,15.3,143.6,15.5z"/>
			<path class="st0" d="M131.7,177.5v28.4c0,0.2,0,0.3-0.1,0.5c-0.1-0.8-0.7-1.6-1.7-2.2v-24.6C131.6,178.7,131.6,178,131.7,177.5
				L131.7,177.5z"/>
			<path class="st0" d="M131.7,120.8v56.7h-0.1c0-0.5,0-1.2-1.7-2v-52.6l1.4-1.4C131.5,121.3,131.6,121.1,131.7,120.8L131.7,120.8z"
				/>
			<path class="st0" d="M131.7,72.2v48.7h-0.1c0-0.1,0-0.2-0.1-0.3c0.1-0.1,0.1-0.3,0.1-0.4c0-0.3-0.2-0.7-0.5-0.8l-1.2-1.2v-45h0.2
				h0.4c0.5,0,0.9-0.4,0.9-0.9H131.7z"/>
			<path class="st0" d="M131.7,39.9v32.3h-0.3c0-0.5-0.4-0.9-0.9-0.9h-0.4h-0.2v-29c1.7-0.9,1.7-1.7,1.7-2.2c0-0.2,0-0.5-0.2-0.8
				C131.6,39.4,131.7,39.6,131.7,39.9z"/>
			<path class="st0" d="M131.6,206.4c0,0.1,0,0.2,0,0.3c0,7.6-39.3,10.4-65.7,10.4s-65.7-2.8-65.7-10.4c0-0.1,0-0.1,0-0.2
				c0.2,0.2,0.4,0.3,0.7,0.3c0.3,0,0.6-0.2,0.8-0.4l0.5,0.1c0,0.1,0,0.1,0,0.2c0,3.6,24.3,8.6,63.8,8.6s63.8-5,63.8-8.6
				c0-0.1,0-0.2-0.1-0.3l0.3-0.1c0.1,0.3,0.4,0.6,0.8,0.6C131.1,206.8,131.4,206.6,131.6,206.4z"/>
			<path class="st0" d="M131.6,206.3L131.6,206.3c-0.2,0.3-0.4,0.4-0.8,0.4c-0.4,0-0.7-0.2-0.8-0.6c-0.1-0.1-0.1-0.2-0.1-0.4v-1.8
				C130.9,204.8,131.4,205.5,131.6,206.3z"/>
			<path class="st0" d="M131.6,120.1c0,0.1,0,0.3-0.1,0.4c0-0.1-0.1-0.1-0.1-0.2c0.1-0.3,0-0.7-0.2-0.9l-0.1-0.1
				C131.4,119.4,131.6,119.7,131.6,120.1z"/>
			<path class="st0" d="M131.5,120.5c0.1,0.1,0.1,0.2,0.1,0.3c0,0.2-0.1,0.5-0.3,0.7l-1.4,1.4v-1.8h0.8
				C131.1,121.1,131.4,120.8,131.5,120.5z"/>
			<path class="st0" d="M131.4,39.2c0.2,0.3,0.2,0.6,0.2,0.8c0,0.5,0,1.3-1.7,2.2v-2.4c0-0.5,0.4-0.9,0.9-0.9
				C131,39,131.3,39.1,131.4,39.2z"/>
			<path class="st0" d="M131.4,120.3c0.1,0.1,0.1,0.1,0.1,0.2c-0.1,0.3-0.4,0.6-0.8,0.6h-0.8v-0.5l0.1,0.1c0.1,0.2,0.4,0.3,0.6,0.3
				c0.3,0,0.5-0.1,0.6-0.3C131.3,120.6,131.4,120.4,131.4,120.3z"/>
			<path class="st0" d="M131.2,119.4c0.2,0.2,0.3,0.6,0.2,0.9c0,0-0.1-0.1-0.1-0.1c-0.4-0.3-0.9-0.3-1.3,0l-0.1,0.1v-1.1h0.8
				C130.9,119.2,131,119.2,131.2,119.4L131.2,119.4z"/>
			<path class="st0" d="M131.3,120.2c0,0,0.1,0.1,0.1,0.1c0,0.1-0.1,0.3-0.2,0.4c-0.1,0.2-0.3,0.3-0.6,0.3c-0.2,0-0.5-0.1-0.6-0.3
				l-0.1-0.1v-0.3l0.1-0.1C130.4,119.9,130.9,119.9,131.3,120.2z"/>
			<path class="st0" d="M129.9,118.1l1.2,1.2c-0.1-0.1-0.2-0.1-0.4-0.1h-0.8V118.1z"/>
			<path class="st0" d="M131.4,39.2c-0.2-0.2-0.4-0.2-0.6-0.2c-0.5,0-0.9,0.4-0.9,0.9v2.4c-0.5,0.3-1.1,0.5-2,0.8l1.5-2.7
				c0.2-0.1,0.3-0.3,0.4-0.4c0,0,0-0.1-0.1-0.1l0.9-1.5C131.1,38.7,131.3,39,131.4,39.2z"/>
			<path class="st0" d="M130.5,71.3c0.5,0,0.9,0.4,0.9,0.9s-0.4,0.9-0.9,0.9h-0.4c0.5,0,0.9-0.4,0.9-0.9s-0.4-0.9-0.9-0.9H130.5z"/>
			<path class="st0" d="M130.6,38.4l-0.9,1.5c-0.2-0.3-0.7-0.6-1.5-0.9l0.8-1.4C129.8,37.8,130.2,38.1,130.6,38.4z"/>
			<path class="st0" d="M130.1,71.3c0.5,0,0.9,0.4,0.9,0.9s-0.4,0.9-0.9,0.9h-0.2v-1.8H130.1z"/>
			<path class="st0" d="M130,206.2l-0.3,0.1c-1.5-3.6-25.5-8.3-63.7-8.3v-0.5c0.5,0,0.9-0.4,0.9-0.9v-0.4
				c23.1,0.1,55.4,2.2,63.1,7.8v1.8C129.9,206,129.9,206.1,130,206.2z"/>
			<path class="st0" d="M129.9,175.5c1.7,0.8,1.7,1.5,1.7,2s0,1.2-1.7,2V175.5z"/>
			<path class="st0" d="M129.9,175.5v4c-0.6,0.3-1.4,0.6-2.5,0.9l0-0.1c0.2,0,0.3-0.1,0.5-0.2c0.4-0.4,0.4-0.9,0-1.3l-0.3-0.2
				c1.2-0.4,1.9-0.7,2.2-1.1c-0.4-0.5-2.1-1.1-5-1.7l-2.3-2.3C126.4,174.2,128.6,174.9,129.9,175.5z"/>
			<polygon class="st0" points="129.9,121.1 129.9,122.9 100.2,151.8 99.7,151.4 99.7,149.7 129.1,121.1 			"/>
			<polygon class="st0" points="129.9,120.6 129.9,121.1 129.1,121.1 129.8,120.4 			"/>
			<polygon class="st0" points="129.9,120.3 129.9,120.6 129.8,120.4 			"/>
			<polygon class="st0" points="129.9,119.2 129.9,120.3 129.8,120.4 128.5,119.2 			"/>
			<polygon class="st0" points="129.9,118.1 129.9,119.2 128.5,119.2 100.8,90.9 101.7,89.4 			"/>
			<path class="st0" d="M129.9,71.3v1.8h-14.2l0.2-0.2c0.3-0.3,0.3-0.9,0-1.2c-0.2-0.2-0.5-0.3-0.7-0.3v-0.1H129.9z"/>
			<polygon class="st0" points="129.8,120.4 129.1,121.1 99.8,121 99.8,119.1 128.5,119.2 			"/>
			<path class="st0" d="M129.8,39.9l-0.3,0.5c-0.5,0.4-1.4,0.8-2.7,1.2l1.5-2.6C129.1,39.3,129.6,39.6,129.8,39.9z"/>
			<path class="st0" d="M129.4,40.4l-1.5,2.7c-0.7,0.2-1.5,0.5-2.4,0.7l1.2-2.2C128.1,41.2,129,40.8,129.4,40.4z"/>
			<path class="st0" d="M129.1,37.5l-0.8,1.4c-5.9-2.3-27.9-5.1-62.3-5.1C26,33.9,2.8,37.6,2,40.1H1.8v-0.2c0-0.5-0.4-0.9-0.9-0.9
				c-0.2,0-0.3,0-0.4,0.1c0.8-1.3,4.3-3.2,19.5-4.9c15.3-1.5,30.6-2.2,45.9-2.1c15.3-0.1,30.7,0.6,45.9,2.1
				C121.6,35.3,126.6,36.5,129.1,37.5z"/>
			<path class="st0" d="M127.9,43.1l-16,28.2h-2l15.6-27.5C126.5,43.5,127.3,43.3,127.9,43.1z"/>
			<path class="st0" d="M127.8,178.8c0.4,0.4,0.4,0.9,0,1.3c-0.2,0.1-0.3,0.2-0.5,0.2c-0.3,0-0.6,0-0.8-0.2l-1-1
				c0.8-0.2,1.5-0.4,2.1-0.5L127.8,178.8z"/>
			<path class="st0" d="M124.7,175.8l2.8,2.8c-0.6,0.2-1.3,0.4-2.1,0.5l-4-3.9C122.7,175.4,123.8,175.6,124.7,175.8z"/>
			<path class="st0" d="M127.3,180.3l0,0.1c-2.8,0.8-7.6,1.6-15.5,2.4c-3.9,0.4-8.3,0.7-13,1l0-0.6c0,0,0,0,0-0.1
				c0.5,0.1,0.9-0.4,0.9-0.8V182c12.2-0.7,20.9-1.8,25.8-2.9l1,1C126.8,180.3,127,180.4,127.3,180.3z"/>
			<path class="st0" d="M126.8,41.6l-1.2,2.2c-2.9,0.7-7.3,1.5-13.7,2.2c-4,0.4-8,0.7-12,1v-0.5c0-0.5-0.4-0.9-0.9-0.9l0-0.4
				C112.8,44.3,122.2,43,126.8,41.6z"/>
			<path class="st0" d="M122.4,173.5l2.3,2.3c-1-0.2-2-0.4-3.2-0.6l-2.2-2.2C120.4,173.2,121.5,173.4,122.4,173.5z"/>
			<path class="st0" d="M100.2,151.8l22.2,21.7c-0.9-0.2-2-0.3-3.1-0.5L99.7,154v-1.7L100.2,151.8z"/>
			<path class="st0" d="M119.3,173l2.2,2.2c-5.1-0.8-12.4-1.6-21.8-2.2v-1.8c4.3,0.2,8.4,0.6,12.1,0.9
				C114.7,172.5,117.2,172.8,119.3,173z"/>
			<path class="st0" d="M115.9,71.7c0.3,0.3,0.3,0.9,0,1.2l-0.2,0.2h-2.6l1.5-1.5c0.2-0.1,0.4-0.2,0.6-0.2
				C115.4,71.4,115.7,71.5,115.9,71.7z"/>
			<polygon class="st0" points="115.7,73.1 105.1,83.3 108.3,77.7 113.1,73.1 			"/>
			<path class="st0" d="M115.2,71.3L115.2,71.3c-0.2,0.1-0.4,0.2-0.6,0.3l-1.5,1.5h-2.1l1-1.8H115.2z"/>
			<polygon class="st0" points="111.9,71.3 110.9,73.1 108.9,73.1 109.9,71.3 			"/>
			<polygon class="st0" points="110.9,73.1 108.3,77.7 103.8,82.1 108.9,73.1 			"/>
			<polygon class="st0" points="109.9,71.3 108.9,73.1 99.8,73.1 99.8,71.3 			"/>
			<polygon class="st0" points="108.3,77.7 105.1,83.3 100.6,87.7 103.8,82.1 			"/>
			<polygon class="st0" points="105.1,83.3 101.7,89.4 100.4,88 100.6,87.7 			"/>
			<polygon class="st0" points="103.8,82.1 100.6,87.7 100.3,88 99.8,87.4 99.8,86 			"/>
			<polygon class="st0" points="101.7,89.4 100.8,90.9 99.8,89.9 99.8,89.2 100.4,88 			"/>
			<polygon class="st0" points="100.8,90.9 99.8,92.8 99.8,89.9 			"/>
			<polygon class="st0" points="100.3,88 100.4,88 99.8,89.2 99.8,88.5 			"/>
			<polygon class="st0" points="99.8,87.4 100.3,88 99.8,88.5 			"/>
			<polygon class="st0" points="99.7,151.4 100.2,151.8 99.7,152.3 			"/>
			<path class="st0" d="M99.8,46.5V47c-0.6,0.1-1.2,0.1-1.8,0.1v-0.6c0-0.5,0.4-0.9,0.9-0.9S99.8,46,99.8,46.5z"/>
			<path class="st0" d="M99.8,47l0,24.3H98l0-24.2C98.6,47.1,99.2,47,99.8,47z"/>
			<rect x="98" y="71.3" class="st0" width="1.8" height="1.8"/>
			<polygon class="st0" points="99.8,73.1 99.8,86 99,86.8 98,85.8 98,73.1 			"/>
			<path class="st0" d="M99.8,86v1.3l-0.3-0.3c-0.1-0.2-0.4-0.3-0.6-0.3c-0.2,0-0.4,0.1-0.6,0.3L98,87.4v-1.6l1,1L99.8,86z"/>
			<path class="st0" d="M99.8,89.2l-0.2,0.4L98.9,89L98,89.9v-1.5l0.3,0.3c0.1,0.1,0.4,0.2,0.6,0.2c0.3,0,0.5-0.1,0.7-0.2l0.2-0.2
				V89.2z"/>
			<polygon class="st0" points="99.5,89.6 99.8,89.2 99.8,89.9 			"/>
			<path class="st0" d="M99.5,87.1l0.3,0.3v1.2l-0.2,0.2c-0.2,0.1-0.4,0.2-0.7,0.2c-0.2,0-0.5-0.1-0.6-0.2L98,88.4v-0.9l0.3-0.3
				c0.2-0.2,0.4-0.3,0.6-0.3C99.1,86.8,99.4,86.9,99.5,87.1z"/>
			<polygon class="st0" points="99.8,89.9 99.8,92.8 98,96 98,92.4 99.5,89.6 			"/>
			<polygon class="st0" points="99.8,92.8 99.8,119.1 97.9,119.1 98,96 			"/>
			<polygon class="st0" points="99.8,119.1 99.8,121 97.9,121 97.9,119.1 			"/>
			<polygon class="st0" points="99.8,121 99.7,149.7 98.9,150.5 97.9,149.4 97.9,121 			"/>
			<path class="st0" d="M98.9,150.5l0.8-0.8v1.7l-0.2-0.2v0c0-0.1-0.1-0.2-0.2-0.3L98.9,150.5z"/>
			<path class="st0" d="M99.7,152.3l-0.2,0.2c-0.3,0.2-0.5,0.3-0.7,0.3c-0.2,0-0.5-0.1-0.6-0.3c-0.1-0.1-0.2-0.2-0.3-0.4
				c0.2,0.2,0.5,0.3,0.7,0.3c0.3,0.1,0.5,0,0.7-0.2c0.2-0.3,0.3-0.7,0.2-1l0.2,0.2V152.3z"/>
			<path class="st0" d="M99.5,152.5l0.2-0.2v1.7l-1.1-1.1l-0.7,0.7v-1.4c0,0,0,0,0,0c0,0.1,0.1,0.3,0.3,0.4c0.1,0.2,0.4,0.3,0.6,0.3
				C99,152.8,99.2,152.7,99.5,152.5z"/>
			<path class="st0" d="M99.7,154l0,17.3c-0.6,0-1.2-0.1-1.8-0.1l0-17.6l0.7-0.7L99.7,154z"/>
			<path class="st0" d="M99.7,171.3v1.8c-0.6,0-1.2-0.1-1.8-0.1v-1.8C98.5,171.2,99.1,171.2,99.7,171.3z"/>
			<path class="st0" d="M99.7,173l0,8.9c-0.6,0-1.2,0.1-1.8,0.1l0-9.2C98.5,173,99.1,173,99.7,173z"/>
			<path class="st0" d="M99.7,182v0.3c0,0.4-0.4,0.9-0.9,0.8c-0.5,0-0.9-0.4-0.9-0.9v-0.1C98.5,182,99.1,182,99.7,182z"/>
			<polygon class="st0" points="99.5,89.6 98,92.4 98,89.9 98.9,89 			"/>
			<path class="st0" d="M99.5,151.2c0.1,0.3,0,0.7-0.2,1c-0.2,0.2-0.4,0.3-0.7,0.2c-0.2,0-0.5-0.1-0.7-0.3c0,0,0,0,0-0.1v0v-0.3v0
				c0-0.2,0.1-0.3,0.3-0.5l0.4-0.4c0.2,0,0.5,0.1,0.7,0.2L99.5,151.2L99.5,151.2z"/>
			<path class="st0" d="M99.5,151.2l-0.2-0.2c-0.2-0.2-0.4-0.2-0.7-0.2l0.3-0.3l0.4,0.4C99.4,151,99.4,151.1,99.5,151.2z"/>
			<path class="st0" d="M97.9,149.4l1,1.1l-0.3,0.3c-0.2,0-0.4,0.1-0.5,0.2l-0.2,0.2V149.4z"/>
			<path class="st0" d="M98.9,45.2l0,0.4c-0.5,0-0.9,0.4-0.9,0.9v0.6C87.6,47.8,77.2,48,66.8,48v-0.9c0-0.5-0.4-0.9-0.9-0.9
				C78.7,46.2,89.7,45.8,98.9,45.2z"/>
			<path class="st0" d="M98.8,183.2l0,0.6c-9.6,0.5-20.6,0.8-32,0.8v-0.8l0.9-0.9c11.5,0,21.6-0.3,30.2-0.8v0.1
				C97.9,182.7,98.3,183.1,98.8,183.2C98.8,183.1,98.8,183.2,98.8,183.2z"/>
			<path class="st0" d="M98.6,150.8l-0.4,0.4c-0.1,0.2-0.2,0.3-0.3,0.5v-0.5l0.2-0.2C98.2,150.9,98.4,150.8,98.6,150.8z"/>
			<path class="st0" d="M98,71.3v1.8h-13l-1.5-1.5l-0.1-0.1c-0.1-0.1-0.3-0.2-0.5-0.2H98z"/>
			<polygon class="st0" points="98,85.8 98,87.4 97.5,87.9 82.3,73.1 84.9,73.1 			"/>
			<polygon class="st0" points="98,87.4 98,88.4 97.5,87.9 			"/>
			<polygon class="st0" points="97.5,87.9 98,88.4 98,89.9 68.4,119.1 66.8,119.1 66.8,118.1 			"/>
			<polygon class="st0" points="98,92.4 98,96 84.8,119.1 82.8,119.1 			"/>
			<polygon class="st0" points="97.9,119.1 97.9,121 83.8,121 84.8,119.1 			"/>
			<path class="st0" d="M97.9,152.1C97.9,152.1,97.9,152.1,97.9,152.1C97.9,152.1,97.9,152.1,97.9,152.1L97.9,152.1z"/>
			<path class="st0" d="M97.9,151.7L97.9,151.7c0,0.1,0,0.2,0,0.3v0v0c0,0,0,0,0,0l-0.5-0.5l0.5-0.5V151.7z"/>
			<path class="st0" d="M97.9,149.4v1.7l-0.5,0.5l-6-6.4c0.2-0.8,0.3-1.5,0.4-2.3L97.9,149.4z"/>
			<path class="st0" d="M97.9,151.7v0.3C97.9,151.9,97.9,151.8,97.9,151.7z"/>
			<path class="st0" d="M97.9,152.1v1.4l-17.5,17c-0.8,0-1.6,0-2.5-0.1l19.5-18.9L97.9,152.1C97.9,152.1,97.9,152.1,97.9,152.1z"/>
			<path class="st0" d="M97.9,171.2v1.8c-5.7-0.3-12.1-0.6-19.2-0.7l1.7-1.7C86.6,170.7,92.5,170.9,97.9,171.2z"/>
			<path class="st0" d="M92,136c0.2,2.4,0.1,4.7-0.2,7l-0.1-0.1l-0.1-0.1c-0.4-0.4-1-0.4-1.3,0c-0.1,0.1-0.2,0.2-0.2,0.3
				c0.2-1.5,0.3-2.9,0.3-4.4c0-0.8,0-1.7-0.1-2.5c-0.7-6-3.3-10.7-7.6-13.3l0.8-1.5C88.3,124.4,91.3,129.5,92,136z"/>
			<path class="st0" d="M91.7,142.9L91.7,142.9c0,0.9-0.1,1.6-0.3,2.4l-1.1-1.2c-0.2-0.1-0.2-0.3-0.3-0.5c0-0.2,0.1-0.4,0.1-0.5
				c0-0.1,0.1-0.2,0.2-0.3C90.6,142.4,91.2,142.4,91.7,142.9L91.7,142.9z"/>
			<path class="st0" d="M90.3,144.1l1.1,1.2c-2.1,10.8-9.1,20.1-19.2,25.1c-1.8,0-3.7,0-5.5,0c1.5-0.3,3.1-0.8,4.7-1.5
				c6.1-2.9,11.1-7.6,14.4-13.5c2.2-3.6,3.6-7.6,4.2-11.8C90.1,143.8,90.1,144,90.3,144.1z"/>
			<path class="st1" d="M90.3,136.2c0.1,0.8,0.1,1.7,0.1,2.5c0,1.5-0.1,2.9-0.3,4.4c-0.1,0.2-0.1,0.4-0.1,0.5
				c-0.6,4.1-2,8.1-4.2,11.8c-3.3,5.9-8.3,10.6-14.4,13.5c-1.6,0.7-3.1,1.2-4.7,1.5c-0.3,0-0.6,0-0.8,0c-2,0-3.9,0-5.8,0
				c-1.2-0.3-2.5-0.7-3.6-1.3l26.2-46.2C87,125.5,89.6,130.2,90.3,136.2z"/>
			<path class="st0" d="M90.1,143.1c0,0.2,0,0.4-0.1,0.5C90,143.5,90,143.3,90.1,143.1z"/>
			<path class="st0" d="M84.9,73.1h-2.6l-0.2-0.2c-0.4-0.3-0.4-0.9-0.1-1.3c0.1-0.2,0.3-0.3,0.6-0.3h0.3c0.2,0,0.3,0.1,0.5,0.2
				l0.1,0.1L84.9,73.1z"/>
			<path class="st0" d="M84.8,119.1l-1,1.9h-1.1c-0.2-0.2-0.5-0.3-0.8-0.4l0.8-1.5H84.8z"/>
			<path class="st0" d="M83.8,121l-0.3,0.5c-0.1-0.1-0.2-0.1-0.2-0.1c-0.2-0.1-0.4-0.2-0.6-0.3H83.8z"/>
			<path class="st0" d="M83.3,121.3c0.1,0,0.2,0.1,0.2,0.1l-0.8,1.5c-0.1,0-0.1-0.1-0.2-0.1c-0.5-0.3-0.9-0.5-1.4-0.7l0.6-1.1h1
				C82.9,121.1,83.1,121.2,83.3,121.3z"/>
			<path class="st0" d="M82.8,71.3h-0.3C82.7,71.3,82.7,71.3,82.8,71.3z"/>
			<path class="st0" d="M82.8,119.1l-0.8,1.5c-2-0.9-4.1-1.4-6.3-1.5L82.8,119.1z"/>
			<path class="st0" d="M82.7,121h-1l0.2-0.4C82.2,120.7,82.5,120.8,82.7,121z"/>
			<path class="st0" d="M82.7,122.9l-26.2,46.2c-0.2-0.1-0.4-0.2-0.6-0.3c-0.3-0.2-0.6-0.4-0.9-0.6l26.1-46.1
				c0.5,0.2,0.9,0.4,1.4,0.7C82.6,122.8,82.6,122.9,82.7,122.9z"/>
			<path class="st0" d="M66.8,71.3h15.8c-0.2,0-0.4,0.1-0.6,0.3c-0.3,0.4-0.3,1,0.1,1.3l0.2,0.2H66.8V71.3z"/>
			<path class="st0" d="M82,120.6l-0.2,0.4l-5.1,0c-0.5-0.1-1-0.1-1.5-0.1c-0.5,0-1,0-1.4,0.1l-7.1,0c2.8-1.2,5.5-1.8,8-1.8l1,0
				C77.9,119.2,80,119.7,82,120.6z"/>
			<path class="st0" d="M81.8,121l-0.6,1.1c-1.4-0.6-2.9-1-4.5-1.2L81.8,121z"/>
			<path class="st1" d="M81.1,122.1L55,168.2c-3.9-2.7-6.2-7.2-6.9-12.8c-0.6-10,3.2-19.6,10.2-26.5c2.5-2.5,5.5-4.6,8.8-6.2
				c2.1-0.9,4.3-1.5,6.7-1.7h3C78.2,121.1,79.7,121.5,81.1,122.1z"/>
			<path class="st0" d="M80.4,170.5l-1.7,1.7c-0.8,0-1.6,0-2.5,0l1.7-1.7C78.8,170.5,79.6,170.5,80.4,170.5z"/>
			<path class="st0" d="M78.7,172.2l-11,10.7c-0.3,0-0.6,0-0.9,0v-1.5l9.5-9.2C77.1,172.2,77.9,172.2,78.7,172.2z"/>
			<path class="st0" d="M78,170.5l-1.7,1.7c-2.9,0-5.9-0.1-9-0.1c1.7-0.3,3.3-0.9,4.8-1.6c0.1,0,0.1-0.1,0.1-0.1
				C74.2,170.4,76.1,170.5,78,170.5z"/>
			<path class="st0" d="M76.6,121h-3c0.5-0.1,1-0.1,1.4-0.1C75.6,120.9,76.1,120.9,76.6,121z"/>
			<path class="st0" d="M74.6,119.1c0.3,0,0.7,0,1,0L74.6,119.1z"/>
			<path class="st0" d="M68.4,119.1l6.2,0c-2.6,0.1-5.3,0.7-8,1.8h-0.2c0.1-0.1,0.2-0.2,0.3-0.3c0,0,0,0,0,0c0.1,0,0.2-0.1,0.3-0.2
				L68.4,119.1z"/>
			<path class="st0" d="M66.6,120.9l7.1,0c-2.3,0.2-4.6,0.8-6.7,1.7c-3.3,1.6-6.2,3.8-8.8,6.2l-0.1-0.1l8-7.7c0,0,0,0,0,0
				C66.3,121,66.4,121,66.6,120.9z"/>
			<path class="st0" d="M72.2,170.4c0,0-0.1,0.1-0.1,0.1c-1.5,0.7-3.2,1.3-4.8,1.6c-0.2,0-0.3,0-0.5,0v-0.3c0-0.5-0.4-0.9-0.9-0.9
				s-0.9,0.4-0.9,0.9v0.3c-1.8,0-3.5,0-5.2,0c-1.4-0.3-2.8-0.8-4.1-1.5l0.1-0.2c1.4,0,2.9,0,4.3,0c2.1,0.5,4.3,0.4,6.6,0
				C68.6,170.4,70.4,170.4,72.2,170.4z"/>
			<path class="st0" d="M68.4,119.1l-1.4,1.4c-0.1,0.1-0.2,0.1-0.3,0.2c0-0.1,0.1-0.1,0.1-0.2c0,0,0-0.1,0-0.1
				c0.1-0.2,0.1-0.3,0-0.5v-0.8H68.4z"/>
			<path class="st0" d="M67.7,182.9l-0.9,0.9v-0.9C67.1,182.9,67.4,182.9,67.7,182.9z"/>
			<path class="st0" d="M67.3,172.1c-0.1,0-0.3,0.1-0.5,0.1v-0.1C67,172.1,67.1,172.1,67.3,172.1z"/>
			<path class="st0" d="M66.8,119.9c0,0.2,0,0.3,0,0.5c0-0.1,0-0.1,0-0.2V119.9z"/>
			<path class="st0" d="M66.8,196.3v0.4c0,0.5-0.4,0.9-0.9,0.9s-0.9-0.4-0.9-0.9v-0.4c0.3,0,0.6,0,0.9,0
				C66.2,196.3,66.5,196.3,66.8,196.3z"/>
			<path class="st0" d="M66.8,184.6v11.7c-0.3,0-0.6,0-0.9,0c-0.3,0-0.6,0-0.9,0v-11.7c0.3,0,0.6,0,0.9,0
				C66.2,184.6,66.5,184.6,66.8,184.6z"/>
			<path class="st0" d="M66.8,183.8v0.8c-0.3,0-0.6,0-0.9,0c-0.3,0-0.6,0-0.9,0v-0.4c0.1,0.1,0.3,0.1,0.4,0.1c0,0,0.1,0,0.1,0
				c0.1,0.1,0.3,0.1,0.4,0.1c0.2,0,0.4-0.1,0.5-0.2L66.8,183.8z"/>
			<path class="st0" d="M66.8,182.9v0.9l-0.4,0.4c-0.1,0.1-0.3,0.2-0.5,0.2c-0.2,0-0.3,0-0.4-0.1c0.3,0,0.4-0.1,0.5-0.2
				c0.4-0.4,0.4-0.8,0.1-1.2C66.3,182.9,66.6,182.9,66.8,182.9z"/>
			<path class="st0" d="M66.8,181.3v1.5c-0.2,0-0.5,0-0.7,0c0,0-0.1-0.1-0.1-0.1l-0.3-0.3L66.8,181.3z"/>
			<path class="st0" d="M66.8,172.2v9.2l-1.2,1.1l-0.7-0.6v-9.4C65.6,172.4,66.2,172.3,66.8,172.2z"/>
			<path class="st0" d="M66.8,172.1L66.8,172.1c-0.6,0.2-1.2,0.3-1.8,0.3v-0.3c0.3,0,0.6,0,0.9,0C66.2,172.1,66.5,172.1,66.8,172.1z
				"/>
			<path class="st0" d="M66.8,171.8v0.3c-0.3,0-0.6,0-0.9,0c-0.3,0-0.6,0-0.9,0v-0.3c0-0.5,0.4-0.9,0.9-0.9S66.8,171.3,66.8,171.8z"
				/>
			<path class="st0" d="M66.8,119.9v0.3c0,0.1,0,0.1,0,0.2c0,0,0,0.1,0,0.1c0,0.1-0.1,0.2-0.2,0.2h0c-0.3,0.1-0.6,0-0.8-0.2
				c0.2,0,0.4-0.1,0.4-0.2c0.3-0.3,0.4-0.6,0.3-0.9c0.1,0,0.1,0.1,0.1,0.1C66.7,119.6,66.8,119.7,66.8,119.9z"/>
			<path class="st0" d="M66.8,119.1v0.8c0-0.2-0.1-0.3-0.2-0.4c0-0.1-0.1-0.1-0.1-0.1c0-0.1-0.1-0.2-0.2-0.3H66.8z"/>
			<path class="st0" d="M66.8,118.1v1h-0.5c0,0-0.1-0.1-0.1-0.1l-0.1-0.2L66.8,118.1z"/>
			<polygon class="st0" points="66.8,73.1 66.8,118.1 66.1,118.8 65,117.8 65,73.1 			"/>
			<rect x="65" y="71.3" class="st0" width="1.8" height="1.8"/>
			<path class="st0" d="M66.8,48v23.3H65V48c0.3,0,0.6,0,0.9,0C66.2,48,66.5,48,66.8,48z"/>
			<path class="st0" d="M66.8,47.1V48c-0.3,0-0.6,0-0.9,0c-0.3,0-0.6,0-0.9,0v-0.9c0-0.5,0.4-0.9,0.9-0.9S66.8,46.6,66.8,47.1z"/>
			<path class="st0" d="M66.8,120.5c0,0.1-0.1,0.2-0.1,0.2c0,0,0,0,0,0c0,0,0,0-0.1,0C66.7,120.6,66.7,120.5,66.8,120.5z"/>
			<path class="st0" d="M65.9,170.4c0.3,0,0.6,0,0.8,0c-2.3,0.5-4.5,0.5-6.6,0C62,170.4,64,170.4,65.9,170.4z"/>
			<path class="st0" d="M66.6,120.7C66.6,120.7,66.6,120.7,66.6,120.7c0,0.1-0.1,0.2-0.2,0.2h-0.1L66.6,120.7L66.6,120.7z"/>
			<path class="st0" d="M66.6,120.7l-0.2,0.2h-0.9c-0.2-0.2-0.4-0.4-0.4-0.8c0.1,0.2,0.4,0.3,0.6,0.3c0.1,0,0.1,0,0.2,0
				C66,120.7,66.3,120.8,66.6,120.7z"/>
			<path class="st0" d="M66.5,119.4c0.1,0.3,0,0.7-0.3,0.9c-0.1,0.2-0.2,0.3-0.4,0.2c0,0,0,0-0.1,0c-0.4-0.3-0.4-0.9,0-1.3
				C65.9,119.1,66.2,119.2,66.5,119.4z"/>
			<path class="st0" d="M66.4,120.9c0,0-0.1,0.1-0.1,0.1L66.4,120.9L66.4,120.9z"/>
			<path class="st0" d="M66.3,120.9L66.3,120.9L66.3,120.9c-0.2,0.1-0.3,0.2-0.4,0.2c-0.2,0-0.4-0.1-0.5-0.2H66.3z"/>
			<path class="st0" d="M66.3,119.1c0.1,0.1,0.1,0.2,0.2,0.3c-0.2-0.2-0.5-0.2-0.8-0.2l0,0l0.1-0.1H66.3z"/>
			<path class="st0" d="M66.3,119.1h-0.5l0.2-0.2l0.1,0.2C66.2,119,66.3,119.1,66.3,119.1z"/>
			<path class="st0" d="M66.2,121L66.2,121c-6.9,3.4-12.3,8.8-15.7,15.2l-16.3,15.7l-0.5-0.5v-1.6l30-28.9l1.7,0
				c0.1,0.1,0.3,0.2,0.5,0.2C66,121.1,66.1,121.1,66.2,121z"/>
			<path class="st0" d="M66.2,121.1l-8,7.7l-7.6,7.4C54,129.8,59.4,124.5,66.2,121.1z"/>
			<path class="st0" d="M66.1,182.9c0.3,0.4,0.3,0.8-0.1,1.2c-0.1,0.1-0.3,0.2-0.5,0.2c-0.3-0.1-0.5-0.4-0.5-0.8
				c0-0.2,0.1-0.4,0.2-0.6c0.2,0,0.4,0,0.7,0C66,182.9,66,182.9,66.1,182.9z"/>
			<path class="st0" d="M66.1,182.9c-0.1,0-0.1,0-0.2,0c-0.2,0-0.5,0-0.7,0c0,0,0-0.1,0.1-0.1l0.3-0.3L66.1,182.9
				C66,182.8,66.1,182.9,66.1,182.9z"/>
			<polygon class="st0" points="66.1,118.8 65.8,119.1 65,119.1 65,117.8 			"/>
			<path class="st0" d="M65.9,197.6v0.5c-39,0-63,4.8-63.8,8.4l-0.5-0.1c0.1-0.1,0.1-0.3,0.1-0.5v-1.7c7.5-5.6,40-7.8,63.2-7.9v0.4
				C65,197.2,65.4,197.6,65.9,197.6z"/>
			<path class="st0" d="M65.8,119.1l-0.1,0.1l0,0c-0.1,0-0.3,0.1-0.4,0.2l-0.3,0.3v-0.6H65.8z"/>
			<path class="st0" d="M65.7,120.5C65.7,120.5,65.7,120.5,65.7,120.5C65.7,120.5,65.7,120.5,65.7,120.5c-0.3,0-0.6-0.1-0.7-0.3
				v-0.5l0.3-0.3c0.1-0.1,0.3-0.2,0.4-0.2C65.3,119.6,65.3,120.2,65.7,120.5z"/>
			<path class="st0" d="M65,181.8l0.7,0.6l-0.3,0.3c0,0-0.1,0.1-0.1,0.1c-0.1,0-0.2,0-0.2,0V181.8z"/>
			<path class="st0" d="M65.5,184.3C65.5,184.3,65.4,184.3,65.5,184.3c-0.2,0-0.4,0-0.5-0.1v-0.7C65,183.8,65.2,184.1,65.5,184.3z"
				/>
			<path class="st0" d="M65.4,120.9l-1.7,0l1-1l0.3,0.3C65,120.5,65.2,120.8,65.4,120.9z"/>
			<path class="st0" d="M65,182.9c0.1,0,0.2,0,0.2,0c-0.2,0.2-0.2,0.4-0.2,0.6V182.9z"/>
			<path class="st0" d="M65.9,46.2c-0.5,0-0.9,0.4-0.9,0.9V48c-15,0.1-30-0.6-45-2C8.8,44.7,3.9,43.4,1.8,42.2v-2.1H2
				C2.8,42.6,26,46.2,65.9,46.2z"/>
			<path class="st0" d="M65,184.2v0.4c-11.5,0-22.5-0.3-32.2-0.8l0-0.2c0.5,0,0.9-0.4,0.9-0.9v-0.6c8.5,0.5,18.5,0.8,30,0.8l1.1,1.1
				C64.8,184.1,64.9,184.1,65,184.2z"/>
			<path class="st0" d="M65,183.5v0.7c-0.1-0.1-0.2-0.1-0.2-0.2l-1.1-1.1c0.4,0,0.9,0,1.3,0V183.5z"/>
			<path class="st0" d="M65,181.8v1.1c-0.4,0-0.9,0-1.3,0l-9.6-9.4l0.7-1.3c0.1,0,0.2,0,0.3,0L65,181.8z"/>
			<path class="st0" d="M65,172.1v0.3c-0.6,0.1-1.1,0.1-1.7,0.1c-1.2,0-2.4-0.1-3.5-0.4C61.5,172.1,63.2,172.1,65,172.1z"/>
			<polygon class="st0" points="65,119.7 65,120.2 64.7,119.9 			"/>
			<polygon class="st0" points="65,119.1 65,119.7 64.7,119.9 63.9,119.1 			"/>
			<polygon class="st0" points="65,117.8 65,119.1 63.9,119.1 36.8,92.8 38.2,91.5 			"/>
			<path class="st0" d="M65,71.3v1.8h-8.5l0.1-0.1c0.4-0.4,0.4-0.9,0-1.3c-0.2-0.2-0.4-0.3-0.6-0.3v-0.1H65z"/>
			<polygon class="st0" points="64.7,119.9 63.7,120.9 33.9,120.9 33.9,119 63.9,119.1 			"/>
			<path class="st0" d="M58.2,128.8l0.1,0.1c-6.9,6.8-10.7,16.4-10.2,26.5c0.7,5.7,3,10.1,6.9,12.8l-0.9,1.5
				c-4.4-2.9-7.1-8-7.8-14.1c-0.5-6.9,1.1-13.6,4.2-19.4L58.2,128.8z"/>
			<path class="st0" d="M56.5,169.1c1.1,0.6,2.3,1,3.6,1.3c-1.5,0-2.9,0-4.3,0L56.5,169.1z"/>
			<path class="st0" d="M56.6,71.7c0.4,0.4,0.4,0.9,0,1.3l-0.1,0.1h-2.6l1.4-1.4c0.2-0.2,0.4-0.3,0.7-0.3S56.4,71.5,56.6,71.7z"/>
			<path class="st0" d="M56.5,169.1l-0.8,1.3c-0.1,0-0.3,0-0.4,0c-0.1-0.1-0.2-0.1-0.3-0.2c-0.3-0.2-0.6-0.4-0.9-0.6l0.9-1.5
				c0.3,0.2,0.6,0.4,0.9,0.6C56.1,168.9,56.3,169,56.5,169.1z"/>
			<polygon class="st0" points="56.5,73.1 38.2,91.5 36.8,90.2 53.9,73.1 			"/>
			<path class="st0" d="M55.6,170.6c1.3,0.7,2.7,1.2,4.1,1.5c-1.6,0-3.1,0-4.7,0.1l-0.2-0.2L55.6,170.6z"/>
			<path class="st0" d="M56,71.3L56,71.3c-0.2,0.1-0.5,0.2-0.7,0.4l-1.4,1.4h-4.4c0.2-0.4,0.1-0.8-0.1-1.1c-0.4-0.4-0.9-0.4-1.3,0
				L47,73.1H33.9v-0.9c0-0.5-0.4-0.9-0.9-0.9H56z"/>
			<path class="st0" d="M55.8,170.5l-0.1,0.2c-0.1,0-0.2-0.1-0.3-0.2C55.5,170.5,55.6,170.5,55.8,170.5z"/>
			<path class="st0" d="M55.6,170.6l-0.8,1.3l-1.3-1.3l0.1-0.2c0.6,0,1.1,0,1.7,0C55.4,170.5,55.5,170.6,55.6,170.6z"/>
			<path class="st0" d="M55,170.3c0.1,0.1,0.2,0.1,0.3,0.2c-0.5,0-1.1,0-1.7,0l0.4-0.8C54.4,169.9,54.7,170.1,55,170.3z"/>
			<path class="st0" d="M55.1,172.2c-0.1,0-0.2,0-0.3,0l0.1-0.2L55.1,172.2z"/>
			<path class="st0" d="M53.6,170.7l1.3,1.3l-0.1,0.2c-0.7,0-1.4,0-2,0l0,0L53.6,170.7z"/>
			<path class="st0" d="M54.8,172.2l-0.7,1.3l-1.3-1.3C53.4,172.2,54.1,172.2,54.8,172.2z"/>
			<path class="st0" d="M52.7,172.2l1.3,1.3l-1.9,3.4c-0.2,0.3-0.5,0.5-0.8,0.5c-0.2,0-0.3,0-0.4-0.1c-0.4-0.2-0.6-0.8-0.4-1.2
				L52.7,172.2C52.7,172.2,52.7,172.2,52.7,172.2z"/>
			<path class="st1" d="M53.9,73.1L36.8,90.2l-2.4-2.3l14.9-14.5c0-0.1,0.1-0.1,0.1-0.2H53.9z"/>
			<path class="st0" d="M53.7,170.5l-0.1,0.2l-0.2-0.2C53.5,170.5,53.6,170.5,53.7,170.5z"/>
			<path class="st0" d="M53.6,170.7l-0.9,1.5l-1.7-1.7c0.8,0,1.6,0,2.4-0.1L53.6,170.7z"/>
			<path class="st0" d="M34.2,151.9l19.1,18.6c-0.8,0-1.6,0-2.4,0.1l-17.3-16.9v-1.3L34.2,151.9z"/>
			<path class="st0" d="M52.7,172.2C52.7,172.2,52.7,172.2,52.7,172.2L52.7,172.2L52.7,172.2z"/>
			<path class="st0" d="M52.7,172.2L52.7,172.2c-7,0.1-13.4,0.4-19,0.7v-1.7c5.4-0.3,11.2-0.5,17.3-0.6L52.7,172.2z"/>
			<path class="st0" d="M49.4,72c0.2,0.3,0.3,0.7,0.1,1.1H47l1.1-1.1C48.5,71.6,49,71.6,49.4,72z"/>
			<path class="st0" d="M47,73.1h2.5c0,0.1-0.1,0.1-0.1,0.2L34.5,87.8l-0.6-0.6v-1.5L47,73.1z"/>
			<polygon class="st0" points="36.8,90.2 38.2,91.5 36.8,92.8 35.5,91.5 			"/>
			<polygon class="st0" points="36.8,90.2 35.5,91.5 33.9,90 33.9,88.4 34.5,87.8 			"/>
			<polygon class="st0" points="36.8,92.8 33.9,95.7 33.9,93.1 35.5,91.5 			"/>
			<polygon class="st0" points="34.5,87.8 33.9,88.4 33.9,87.3 			"/>
			<polygon class="st0" points="33.7,151.4 34.2,151.9 33.7,152.4 			"/>
			<path class="st0" d="M33.9,120.9v22.7c0,0.2-0.1,0.4-0.2,0.6v-23.3H33.9z"/>
			<rect x="33.7" y="119" class="st0" width="0.2" height="1.8"/>
			<path class="st0" d="M33.9,95.7V119h-0.2V99.4c0-0.5-0.4-0.9-0.9-0.9c-0.3,0-0.5,0.1-0.7,0.3v-1.3L33.9,95.7z"/>
			<polygon class="st0" points="33.9,93.1 33.9,95.7 32.1,97.5 32.1,94.9 			"/>
			<polygon class="st0" points="33.9,90 33.9,93.1 32.1,94.9 32.1,89.8 32.9,89 			"/>
			<path class="st0" d="M33.9,88.4V90l-1-1l-0.8,0.8v-1.3l0.2,0.2c0.1,0.1,0.4,0.2,0.6,0.2c0.3,0,0.5-0.1,0.7-0.2L33.9,88.4z"/>
			<path class="st0" d="M33.9,87.3v1.1l-0.3,0.3c-0.2,0.1-0.4,0.2-0.7,0.2c-0.2,0-0.5-0.1-0.6-0.2l-0.2-0.2v-1.3l0.2-0.2
				c0.4-0.3,0.9-0.3,1.3,0L33.9,87.3z"/>
			<path class="st0" d="M33.9,85.8v1.5L33.6,87c-0.4-0.3-0.9-0.3-1.3,0l-0.2,0.2v-1.4l0.9,0.9L33.9,85.8z"/>
			<polygon class="st0" points="33.9,73.1 33.9,85.8 33,86.7 32.1,85.8 32.1,73.1 			"/>
			<path class="st0" d="M33.9,72.2v0.9h-1.8v-0.9c0-0.5,0.4-0.9,0.9-0.9S33.9,71.7,33.9,72.2z"/>
			<path class="st0" d="M33.7,182.1v0.6c0,0.5-0.4,0.9-0.9,0.9s-0.9-0.4-0.9-0.9v-0.8C32.5,182,33.1,182,33.7,182.1z"/>
			<path class="st0" d="M33.7,172.9v9.1c-0.6,0-1.2-0.1-1.8-0.1V173C32.5,173,33.1,173,33.7,172.9z"/>
			<path class="st0" d="M33.7,171.2v1.7c-0.6,0-1.2,0.1-1.8,0.1v-1.7C32.5,171.3,33.1,171.2,33.7,171.2z"/>
			<path class="st0" d="M33.7,153.7v17.5c-0.6,0-1.2,0.1-1.8,0.1v-17.6l0.9-0.9L33.7,153.7z"/>
			<path class="st0" d="M33.7,152.4v1.3l-0.9-0.9c0.2,0,0.4-0.1,0.8-0.3L33.7,152.4z"/>
			<path class="st0" d="M33.7,151.4v1l-0.1,0.1c-0.4,0.2-0.6,0.3-0.8,0.3s-0.5-0.1-0.6-0.3l-0.3-0.3v-1l0.2-0.2
				c0.3-0.3,0.9-0.3,1.2,0L33.7,151.4z"/>
			<path class="st0" d="M33.7,149.8v1.6l-0.4-0.4c-0.3-0.3-0.9-0.3-1.2,0l-0.2,0.2v-1.6l1,1L33.7,149.8z"/>
			<path class="st0" d="M33.7,144.2v5.7l-0.8,0.8l-1-1v-28.8h0.2v22.7c0,0.5,0.4,0.9,0.9,0.9C33.3,144.5,33.5,144.4,33.7,144.2z"/>
			<path class="st0" d="M33.7,120.9v23.3c-0.2,0.2-0.4,0.3-0.7,0.3c-0.5,0-0.9-0.4-0.9-0.9v-22.7L33.7,120.9z"/>
			<polygon class="st0" points="33.7,119 33.7,120.9 32.1,120.9 32.1,119 			"/>
			<path class="st0" d="M33.7,99.4V119h-1.6V98.8c0.2-0.2,0.4-0.3,0.7-0.3C33.3,98.5,33.7,98.9,33.7,99.4z"/>
			<path class="st0" d="M16.9,71.3H33c-0.5,0-0.9,0.4-0.9,0.9v0.9H19l-1.5-1.5l-0.1-0.1C17.3,71.4,17.1,71.3,16.9,71.3z"/>
			<path class="st0" d="M32.8,183.6l0,0.2c-4.6-0.3-8.9-0.6-12.8-1c-8.4-0.8-13.3-1.7-16-2.5l0.1-0.2c0.3,0.1,0.7,0.1,1-0.2l1-0.9
				c4.7,1.1,13.6,2.2,25.9,3v0.8C31.9,183.2,32.3,183.6,32.8,183.6z"/>
			<path class="st0" d="M32.8,152.8l-0.9,0.9v-1.5l0.3,0.3C32.3,152.7,32.6,152.8,32.8,152.8z"/>
			<rect x="31.9" y="119" class="st0" width="0.2" height="1.8"/>
			<path class="st0" d="M32.1,98.8V119h-0.2V99.4C31.9,99.2,32,99,32.1,98.8z"/>
			<polygon class="st0" points="32.1,94.9 32.1,97.5 10.7,119 8,119 			"/>
			<polygon class="st1" points="32.1,89.8 32.1,94.9 8,119 2.1,119 			"/>
			<polygon class="st0" points="32.1,88.5 32.1,89.8 2.1,119 1.8,119 1.8,116.7 31.4,87.8 			"/>
			<polygon class="st0" points="32.1,87.2 32.1,88.5 31.4,87.8 			"/>
			<polygon class="st0" points="32.1,85.8 32.1,87.2 31.4,87.8 16.4,73.1 19,73.1 			"/>
			<path class="st0" d="M31.9,171.3v1.7c-9.6,0.6-17.1,1.4-22.1,2.2l2.2-2.1c2.2-0.3,4.9-0.6,8.1-0.9
				C23.6,171.8,27.6,171.5,31.9,171.3z"/>
			<path class="st0" d="M31.9,152.2v1.5l-20,19.5c-1.1,0.2-2.2,0.3-3.1,0.5l22.6-21.9L31.9,152.2z"/>
			<polygon class="st0" points="31.9,151.2 31.9,152.2 31.4,151.7 			"/>
			<path class="st0" d="M31.9,149.6v1.6l-0.5,0.5L4.1,125.1c0.3,0,0.5-0.1,0.7-0.2l0.8-0.8L31.9,149.6z"/>
			<polygon class="st0" points="31.9,119 31.9,120.9 8.9,120.8 10.7,119 			"/>
			<path class="st0" d="M19,73.1h-2.6l-0.2-0.2c-0.4-0.3-0.4-0.9-0.1-1.3c0.1-0.2,0.4-0.3,0.6-0.3h0.3c0.2,0,0.3,0.1,0.5,0.2
				l0.1,0.1L19,73.1z"/>
			<path class="st0" d="M16.9,71.3h-0.3C16.8,71.3,16.8,71.3,16.9,71.3z"/>
			<path class="st0" d="M1.8,71.3h14.9c-0.2,0-0.4,0.1-0.6,0.3c-0.3,0.4-0.3,1,0.1,1.3l0.2,0.2H1.8V71.3z"/>
			<path class="st0" d="M11.9,173.1l-2.2,2.1c-1.2,0.2-2.3,0.4-3.3,0.6l2.3-2.2C9.8,173.5,10.8,173.3,11.9,173.1z"/>
			<polygon class="st0" points="10.7,119 8.9,120.8 6.2,120.8 8,119 			"/>
			<path class="st0" d="M9.8,175.3L6,179c-0.8-0.2-1.5-0.4-2.1-0.6l2.6-2.5C7.4,175.7,8.5,175.5,9.8,175.3z"/>
			<polygon class="st0" points="8.9,120.8 5.7,124 4.3,122.7 6.2,120.8 			"/>
			<path class="st0" d="M8.8,173.6l-2.3,2.2c-2.5,0.5-4,1.1-4.4,1.6c0.2,0.3,0.8,0.6,1.8,0.9l-0.2,0.2c-0.3,0.4-0.3,0.9,0,1.3
				c0.1,0.1,0.2,0.1,0.3,0.2L4,180.3c-0.9-0.3-1.6-0.6-2.2-0.8v-3.9C3,174.9,5.1,174.3,8.8,173.6z"/>
			<polygon class="st0" points="8,119 6.2,120.8 2.3,120.8 1.8,120.3 1.8,119.3 2.1,119 			"/>
			<path class="st0" d="M6,179l-1,0.9c-0.3,0.2-0.7,0.3-1,0.2c-0.1,0-0.2-0.1-0.3-0.2c-0.3-0.4-0.3-0.9,0-1.3l0.2-0.2
				C4.5,178.6,5.2,178.8,6,179z"/>
			<path class="st0" d="M4.3,122.7l1.4,1.3l-0.8,0.8c-0.2,0.1-0.4,0.2-0.7,0.2h0l-0.8-0.8c0-0.3,0-0.6,0.2-0.8L4.3,122.7z"/>
			<path class="st0" d="M2.3,120.8l2,1.9l-0.8,0.8c-0.2,0.2-0.3,0.5-0.2,0.8l-1.5-1.5v-2.1H2.3z"/>
			<path class="st0" d="M3.3,124.3l0.8,0.8c-0.2,0-0.5-0.1-0.6-0.3C3.4,124.6,3.3,124.5,3.3,124.3z"/>
			<polygon class="st0" points="2.3,120.8 1.8,120.8 1.8,120.3 			"/>
			<polygon class="st0" points="2.1,119 1.8,119.3 1.8,119 			"/>
			<path class="st0" d="M1.8,204.2v1.7c0,0.2-0.1,0.4-0.1,0.5c-0.2,0.2-0.4,0.4-0.8,0.4c-0.3,0-0.5-0.1-0.7-0.3
				C0.3,205.7,0.8,204.9,1.8,204.2z"/>
			<path class="st0" d="M1.8,179.5v24.7c-1,0.7-1.5,1.5-1.6,2.3c-0.1-0.2-0.2-0.4-0.2-0.6v-28.4h0.2C0.2,178,0.2,178.7,1.8,179.5z"
				/>
			<path class="st0" d="M1.8,175.5v3.9c-1.6-0.8-1.6-1.5-1.6-2S0.2,176.3,1.8,175.5z"/>
			<path class="st0" d="M1.8,122.9v52.7c-1.6,0.8-1.6,1.5-1.6,2H0V119c0,0.2,0.1,0.4,0.3,0.5c-0.1,0.1-0.1,0.2-0.1,0.3
				c0,0.2,0,0.3,0.1,0.4c-0.3,0.4-0.3,0.8,0.1,1.2L1.8,122.9z"/>
			<path class="st0" d="M1.8,120.8v2.1l-1.4-1.4c-0.4-0.4-0.4-0.8-0.1-1.2c0.1,0.3,0.4,0.5,0.8,0.5H1.8z"/>
			<path class="st0" d="M1.8,120.3v0.5H1.1c-0.4,0-0.7-0.2-0.8-0.5c0,0,0.1-0.1,0.1-0.1c0.4-0.3,0.9-0.3,1.3,0L1.8,120.3z"/>
			<path class="st0" d="M1.8,119.3v1l-0.1-0.1c-0.4-0.3-0.9-0.3-1.3,0c0,0-0.1,0.1-0.1,0.1c-0.1-0.1-0.1-0.3-0.1-0.4
				c0-0.1,0-0.2,0.1-0.3c0,0,0,0,0,0c0.4,0.3,1,0.3,1.3-0.1L1.8,119.3z"/>
			<path class="st0" d="M1.8,119v0.3l-0.2,0.2c-0.3,0.4-0.9,0.4-1.3,0.1c0,0,0,0,0,0c0.1-0.3,0.5-0.6,0.8-0.6H1.8z"/>
			<path class="st0" d="M1.8,116.7v2.3H1.1c-0.4,0-0.7,0.2-0.8,0.6C0.1,119.4,0,119.2,0,119c0,0,0,0,0,0v-0.2c0-0.2,0.1-0.3,0.2-0.5
				l0.1-0.1L1.8,116.7z"/>
			<path class="st0" d="M1.8,73.1v43.6l-1.5,1.5l-0.1,0.1c-0.1,0.1-0.2,0.3-0.2,0.5V72.2h0.1c0,0.5,0.4,0.9,0.9,0.9h0.1H1.8z"/>
			<path class="st0" d="M1.8,71.3v1.8H1.1c-0.5,0-0.9-0.4-0.9-0.9s0.4-0.9,0.9-0.9H1.8z"/>
			<path class="st0" d="M1.8,42.2v29.1H1.1H1c-0.5,0-0.9,0.4-0.9,0.9H0V39.9c0-0.3,0.2-0.6,0.4-0.8c-0.2,0.4-0.2,0.7-0.2,1
				C0.2,40.6,0.2,41.3,1.8,42.2z"/>
			<path class="st0" d="M1.8,40.1v2.1c-1.6-0.9-1.6-1.7-1.6-2.1c0-0.2,0-0.6,0.2-1C0.6,39,0.7,39,0.9,39c0.5,0,0.9,0.4,0.9,0.9V40.1
				z"/>
			<path class="st0" d="M1,71.3h0.1c-0.5,0-0.9,0.4-0.9,0.9s0.4,0.9,0.9,0.9H1c-0.5,0-0.9-0.4-0.9-0.9S0.5,71.3,1,71.3z"/>
			<path class="st0" d="M0,118.8v0.2C0,118.9,0,118.8,0,118.8z"/>
		</g>
		<g>
		</g>
	</g>
</g>
</svg>
