<?xml version="1.0" encoding="UTF-8" standalone="no"?>
<svg
   xmlns:dc="http://purl.org/dc/elements/1.1/"
   xmlns:cc="http://creativecommons.org/ns#"
   xmlns:rdf="http://www.w3.org/1999/02/22-rdf-syntax-ns#"
   xmlns:svg="http://www.w3.org/2000/svg"
   xmlns="http://www.w3.org/2000/svg"
   xmlns:sodipodi="http://sodipodi.sourceforge.net/DTD/sodipodi-0.dtd"
   xmlns:inkscape="http://www.inkscape.org/namespaces/inkscape"
   width="16"
   height="16"
   fill="currentColor"
   class="bi bi-arrow-return-right"
   viewBox="0 0 16 16"
   version="1.1"
   id="svg4"
   sodipodi:docname="arrow-return-up.svg"
   inkscape:version="1.0.1 (3bc2e813f5, 2020-09-07)">
  <metadata
     id="metadata10">
    <rdf:RDF>
      <cc:Work
         rdf:about="">
        <dc:format>image/svg+xml</dc:format>
        <dc:type
           rdf:resource="http://purl.org/dc/dcmitype/StillImage" />
        <dc:title></dc:title>
      </cc:Work>
    </rdf:RDF>
  </metadata>
  <defs
     id="defs8" />
  <sodipodi:namedview
     pagecolor="#ffffff"
     bordercolor="#666666"
     borderopacity="1"
     objecttolerance="10"
     gridtolerance="10"
     guidetolerance="10"
     inkscape:pageopacity="0"
     inkscape:pageshadow="2"
     inkscape:window-width="1920"
     inkscape:window-height="1001"
     id="namedview6"
     showgrid="false"
     inkscape:zoom="51.875"
     inkscape:cx="8"
     inkscape:cy="8"
     inkscape:window-x="-9"
     inkscape:window-y="-9"
     inkscape:window-maximized="1"
     inkscape:current-layer="svg4" />
  <path
     fill-rule="evenodd"
     d="m 2.0001311,14.000763 a 0.5,0.5 0 0 0 0.5,0.5 h 4.8 a 2.5,2.5 0 0 0 2.5,-2.5 V 2.2077627 l 3.3459999,3.347 a 0.5006316,0.5006316 0 0 0 0.708,-0.708 L 9.6541311,0.64676269 a 0.5,0.5 0 0 0 -0.708,0 l -4,4.00000001 a 0.5006316,0.5006316 0 0 0 0.708,0.708 l 3.146,-3.147 v 9.7930003 a 1.5,1.5 0 0 1 -1.5,1.5 h -4.8 a 0.5,0.5 0 0 0 -0.5,0.5 z"
     id="path2" />
</svg>
