<?xml version="1.0" encoding="utf-8"?>
<!-- Generator: Adobe Illustrator 25.2.3, SVG Export Plug-In . SVG Version: 6.00 Build 0)  -->
<svg version="1.1" id="Layer_1" xmlns="http://www.w3.org/2000/svg" xmlns:xlink="http://www.w3.org/1999/xlink" x="0px" y="0px"
	 viewBox="0 0 1920 500" preserveAspectRatio="xMinYMin meet" style="enable-background:new 0 0 1920 1080;" xml:space="preserve">
<style type="text/css">
	.st0{fill:#FFFFFF;}
</style>
<g>
	<path class="st0" d="M826.9,604.4c4.9-0.7,9.5-1.7,14.1-2.1c14.3-1.3,24.1,5.3,28.4,19c5,15.9-0.8,35.8-13.4,45
		c-10.1,7.4-21.5,6.7-33.1,5c-14.9-2.2-25.5-10.8-33.9-22.6c-22.2-31-27-94.7,13.4-132.1c19-17.6,41.6-21.6,65.9-18.3
		c45.6,6.2,82.6,40.1,95,84.5c6.8,24.2,9.8,48.4,6.8,73.5c-6.6,55-38.9,88.5-90,104.3c-73.4,22.8-155.9-13.5-189.5-81.9
		c-8.5-17.3-11.8-36-15-54.6c-4.3-25.1-6.2-50.4-0.4-75.4c17.3-75,70.1-131,147.2-146.6c73.7-14.9,136.8,8.5,192.1,56.8
		c19.8,17.3,32.5,39.8,44.7,62.6c17.4,32.5,30.9,66.4,36.9,102.9c7.6,46.8,7,93.1-15.1,136.5c-31.4,61.7-80.3,102.9-147,122.6
		c-40.8,12-82.5,15.8-124.9,13.3c-24-1.4-47.8-3.4-70.9-10.7c-38.3-12.1-70.5-34-99-61.8c-48.5-47.1-75.7-104.9-86.1-171.2
		c-5.3-33.7-7.3-67.5-4.5-101.5c3.2-37.9,15.8-73.1,35-105.7c27.2-46.1,59.9-87.6,103.7-119.4c46.4-33.7,98.5-52.9,155.2-59.5
		c48.1-5.6,95.3-0.7,140.3,17.2c48.3,19.1,90.3,47.7,121.1,90.5c9.3,13,16.7,27.3,25.9,40.3c7.7,10.8,16.6,20.7,25.2,30.8
		c2.2,2.6,5.3,4.3,8.1,6.5c-15.1,46-30.4,92.4-45.8,139c-0.5-1.5-1.2-3.3-1.7-5c-14.2-48-36.4-91.9-69.1-129.9
		c-30-35-65.7-62.7-110.5-75.6c-54.2-15.6-108.3-15.5-161.3,6.9c-45,19-78.8,49.9-101.7,93.1c-15.7,29.6-26.9,60.6-28.2,94.3
		c-1.5,40.3,3.7,79.3,21.7,116.5c26.4,54.6,89.7,98.2,144.4,104.7c44.3,5.3,85.8-2.8,123.6-27.2c17-11,28.7-26.9,39.8-43.4
		c13.3-19.8,19-42.1,22-65.1c7.2-56.7-8.8-106.8-46.5-149.4c-26.4-29.8-59.5-44.4-100-40.5c-49.1,4.7-88.7,38.8-99.8,87.2
		c-5.9,25.6-6.7,51.2,2.9,76.2c8.2,21.4,22,38.8,40.5,52.1c15.8,11.4,34,11.9,52.7,9.2c40.3-5.9,59.2-49.5,48.2-84.9
		c-5.1-16.6-14.2-29.7-31.2-35.7c-8.4-3-17.4-3.4-25.5-0.3C827.2,578.4,819.4,589.3,826.9,604.4z"/>
	<path class="st0" d="M1176.1,481.9c4.7,5.5,6.7,11.2,6.5,17.1c-0.7,14.2-1.6,28.5-3.4,42.7c-4.3,32.7-6.1,65.2,0.5,97.8
		c6.7,33.5,24.4,58.8,53.8,76.2c11,6.5,22.7,8.4,35,6.6c26.1-3.7,44-18.9,56.2-41.2c16.9-30.9,15.8-62.9,3.6-95
		c-8-21-20.5-39.5-32.8-58.1c-7.8-11.8-15.2-23.8-23-35.6c-2.3-3.5-2.4-7.2,0.2-9.5c2.1-1.8,6.9-3,8.9-1.8c5.1,3.1,10.3,7,13.7,11.7
		c11.8,16.3,23,33,34.2,49.7c7.9,11.7,15.6,23.6,23.4,35.4c5.2,7.8,12.7,12,21.9,13.1c4.7,0.5,8.3-0.9,11.4-4.6
		c11.4-13.9,22.7-27.9,34.6-41.3c11.4-12.8,24.8-23.2,41.5-28.3c2-0.6,4.6-1.2,6.2-0.3c2.1,1.1,4.6,3.6,4.8,5.7
		c0.2,2.3-1.3,5.4-3.1,7.1c-11,10.4-22.7,20-33.4,30.7c-26.8,26.9-43.1,59.8-54.3,95.8c-6.5,20.9-13,42.3-23.2,61.4
		c-27.8,52.2-66.3,94.5-121.6,118.7c-28.8,12.6-59.3,19.8-90.8,21.4c-7.3,0.4-14.6-0.8-21.9-1c-3.5-0.1-4.6-1.9-5.1-5.2
		c-3.6-22.5-4.4-45.1-2.8-67.7c2.1-31.4,3.7-62.8,7.9-94c4.2-31.2,10.8-62.2,17.2-93.1c7.6-37,18.5-73.1,31.8-108.5
		C1174.2,486,1175,484.4,1176.1,481.9z"/>
	<path class="st0" d="M1092.6,793.3c0.6,6.8,1.3,13.7,1.8,20.6c1.1,16.1,2,32.2,3.2,48.3c0.3,3.3-1.2,4.7-3.8,6
		c-26.7,14.7-55.4,22.3-85.5,25.3c-7.1,0.7-14.3,1.1-21.4,1.5c-2.2,0.1-4.5,0-7-0.7C1024.2,868,1066.8,840.4,1092.6,793.3z"/>
</g>
</svg>
